# Blender v3.4.1 OBJ File: 'plants.blend'
# www.blender.org
o Banana_Plant_LoD_Plane.003
v -0.193772 -0.105278 0.082580
v -0.621264 -0.001407 -0.599207
v -0.429108 0.055725 -0.290991
v 0.113591 -0.115585 -0.113224
v -0.317624 0.010821 -0.796820
v -0.023819 0.045651 -0.351564
v 0.232454 -0.117787 0.001643
v -0.225559 0.073762 0.342452
v 0.230422 0.175996 0.987317
v 0.230107 0.173534 0.521261
v -0.229168 -0.138468 0.008537
v -0.228942 0.184269 0.994006
v -0.009400 0.139251 0.318776
v 0.167566 -0.117787 0.122822
v -0.397702 0.073762 0.042832
v -0.527286 0.175996 0.821919
v -0.199646 0.173534 0.490468
v -0.165362 -0.138468 -0.197024
v -0.858465 0.184270 0.503517
v -0.227420 0.139251 0.178070
v -0.146713 -0.129049 0.195241
v -0.249826 0.104116 -0.337018
v -0.920309 0.437147 -0.116302
v -0.511226 0.295953 0.029821
v -0.021932 -0.192740 -0.235466
v -0.786911 0.400497 -0.544848
v -0.272722 0.179644 -0.128910
v -0.011682 -0.105278 -0.217355
v 0.788033 -0.001407 -0.127687
v 0.427190 0.055725 -0.169085
v -0.049693 -0.115585 0.145089
v 0.753754 0.010821 0.232969
v 0.222383 0.045651 0.185855
v -0.156332 -0.184090 -0.153838
v 0.404775 0.032470 -0.124184
v 0.407729 0.269811 -0.884369
v 0.135581 0.189358 -0.514670
v 0.222518 -0.232457 0.106361
v 0.783256 0.250040 -0.620329
v 0.212769 0.106599 -0.220167
v -0.193772 -0.105278 0.082580
v -0.621264 -0.001407 -0.599208
v -0.429108 0.055725 -0.290991
v 0.113591 -0.115585 -0.113224
v -0.317624 0.010821 -0.796820
v -0.023819 0.045651 -0.351564
v 0.232454 -0.117787 0.001643
v -0.225559 0.073762 0.342452
v 0.230422 0.175996 0.987318
v 0.230107 0.173534 0.521261
v -0.229168 -0.138468 0.008537
v -0.228942 0.184270 0.994006
v -0.009400 0.139251 0.318776
v 0.167566 -0.117787 0.122822
v -0.397702 0.073762 0.042832
v -0.527287 0.175996 0.821919
v -0.199646 0.173534 0.490468
v -0.165362 -0.138468 -0.197024
v -0.858465 0.184270 0.503517
v -0.227420 0.139251 0.178070
v -0.146713 -0.129049 0.195241
v -0.920309 0.437147 -0.116302
v -0.511226 0.295953 0.029821
v -0.021932 -0.192740 -0.235466
v -0.786911 0.400497 -0.544848
v -0.209628 0.137273 -0.348576
v -0.011682 -0.105278 -0.217355
v 0.788033 -0.001407 -0.127687
v 0.427189 0.055725 -0.169085
v -0.049693 -0.115585 0.145089
v 0.753754 0.010821 0.232969
v 0.222383 0.045651 0.185855
v -0.156332 -0.184090 -0.153838
v 0.404775 0.032470 -0.124184
v 0.407730 0.269811 -0.884369
v 0.135581 0.189358 -0.514670
v 0.222518 -0.232457 0.106361
v 0.783256 0.250040 -0.620330
v 0.212769 0.106599 -0.220167
vt 0.000298 0.568085
vt 0.002675 0.000066
vt 0.441994 0.373545
vt 0.437334 0.000066
vt 0.436750 0.997789
vt 0.000298 0.568085
vt 0.002675 0.000066
vt 0.234075 0.368180
vt 0.437334 0.000066
vt 0.436750 0.997789
vt 0.000298 0.568085
vt 0.002675 0.000066
vt 0.234075 0.368180
vt 0.437334 0.000066
vt 0.436750 0.997789
vt 0.000298 0.568085
vt 0.002675 0.000066
vt 0.234075 0.368180
vt 0.437334 0.000066
vt 0.436750 0.997789
vt 0.000298 0.568085
vt 0.002675 0.000066
vt 0.441994 0.373545
vt 0.437334 0.000066
vt 0.436750 0.997789
vt 0.000298 0.568085
vt 0.002675 0.000066
vt 0.234075 0.368180
vt 0.437334 0.000066
vt 0.436750 0.997789
vt 0.002675 0.000066
vt 0.000298 0.568085
vt 0.441994 0.373545
vt 0.436750 0.997789
vt 0.002675 0.000066
vt 0.000298 0.568085
vt 0.234075 0.368180
vt 0.438602 0.373457
vt 0.437334 0.000066
vt 0.436750 0.997789
vt 0.002675 0.000066
vt 0.000298 0.568085
vt 0.234075 0.368180
vt 0.438602 0.373457
vt 0.437334 0.000066
vt 0.436750 0.997789
vt 0.002675 0.000066
vt 0.000298 0.568085
vt 0.441994 0.373545
vt 0.436750 0.997789
vt 0.002675 0.000066
vt 0.000298 0.568085
vt 0.441994 0.373545
vt 0.436750 0.997789
vt 0.002675 0.000066
vt 0.000298 0.568085
vt 0.234075 0.368180
vt 0.438602 0.373457
vt 0.437334 0.000066
vt 0.436750 0.997789
vt 0.004194 0.999934
vt 0.438602 0.373457
vt 0.004194 0.999934
vt 0.438602 0.373457
vt 0.004194 0.999934
vt 0.438602 0.373458
vt 0.004194 0.999934
vt 0.004194 0.999934
vt 0.438602 0.373457
vt 0.004194 0.999934
vt 0.437334 0.000066
vt 0.004194 0.999934
vt 0.004194 0.999934
vt 0.004194 0.999934
vt 0.437334 0.000066
vt 0.004194 0.999934
vt 0.437334 0.000066
vt 0.004194 0.999934
vt 0.004194 0.999934
vn 0.0054 0.9973 0.0735
vn 0.1738 0.9071 0.3834
vn 0.1155 0.9699 0.2143
vn 0.2928 0.8618 0.4142
vn -0.0501 0.9938 -0.0993
vn 0.2765 0.8388 -0.4690
vn 0.0679 0.7998 -0.5965
vn -0.0557 0.9183 -0.3920
vn -0.1270 0.7821 -0.6101
vn -0.0387 0.9974 -0.0602
vn -0.0740 0.9953 -0.0623
vn 0.5264 0.8388 -0.1389
vn 0.4678 0.7998 -0.3762
vn 0.2362 0.9183 -0.3178
vn 0.3390 0.7821 -0.5229
vn 0.0149 0.9974 -0.0700
vn -0.0088 0.9953 -0.0964
vn 0.6061 0.6803 0.4122
vn 0.7712 0.5831 0.2555
vn 0.6633 0.7448 0.0729
vn 0.8369 0.5421 0.0753
vn 0.3859 0.9224 -0.0173
vn 0.3979 0.9161 -0.0501
vn -0.0609 0.9973 -0.0415
vn -0.4083 0.9071 -0.1025
vn -0.2396 0.9699 -0.0429
vn -0.5064 0.8618 -0.0286
vn 0.1089 0.9938 0.0225
vn -0.5379 0.7642 0.3558
vn -0.4417 0.6913 0.5718
vn -0.2277 0.8343 0.5020
vn -0.2911 0.6593 0.6933
vn -0.0512 0.9688 0.2424
vn -0.0237 0.9641 0.2644
vn -0.1738 -0.9071 -0.3834
vn -0.0054 -0.9973 -0.0735
vn -0.1155 -0.9699 -0.2143
vn 0.0501 -0.9938 0.0993
vn -0.0679 -0.7998 0.5965
vn -0.2765 -0.8388 0.4690
vn 0.0557 -0.9183 0.3920
vn 0.3066 -0.8883 0.3420
vn 0.1270 -0.7821 0.6101
vn 0.0387 -0.9974 0.0602
vn 0.0740 -0.9953 0.0623
vn -0.4678 -0.7998 0.3762
vn -0.5264 -0.8388 0.1389
vn -0.2362 -0.9183 0.3178
vn -0.0227 -0.8883 0.4587
vn -0.3390 -0.7821 0.5229
vn -0.0149 -0.9974 0.0700
vn 0.0088 -0.9953 0.0964
vn -0.7543 -0.6198 -0.2163
vn -0.5093 -0.8561 -0.0873
vn -0.6502 -0.7494 -0.1250
vn -0.3742 -0.9273 0.0108
vn 0.4083 -0.9071 0.1025
vn 0.0609 -0.9973 0.0415
vn 0.2396 -0.9699 0.0429
vn -0.1089 -0.9938 -0.0225
vn 0.4417 -0.6913 -0.5718
vn 0.5379 -0.7642 -0.3558
vn 0.2277 -0.8343 -0.5020
vn -0.0061 -0.7973 -0.6035
vn 0.2911 -0.6593 -0.6933
vn 0.0512 -0.9688 -0.2424
vn 0.0237 -0.9641 -0.2644
vn -0.1130 0.9872 -0.1125
vn -0.3066 0.8883 -0.3420
vn 0.0179 0.9998 -0.0053
vn 0.0227 0.8883 -0.4587
vn 0.0165 0.9998 0.0089
vn 0.6850 0.7058 -0.1808
vn 0.3202 0.9472 0.0187
vn 0.1584 0.9872 -0.0184
vn 0.0061 0.7973 0.6035
vn -0.0651 0.9839 0.1662
vn -0.2928 -0.8618 -0.4142
vn 0.1130 -0.9872 0.1125
vn -0.0179 -0.9998 0.0053
vn -0.0165 -0.9998 -0.0089
vn -0.8326 -0.5294 -0.1629
vn -0.3202 -0.9472 -0.0187
vn 0.5064 -0.8618 0.0286
vn -0.1584 -0.9872 0.0184
vn 0.0651 -0.9839 -0.1662
s 1
f 3/1/1 1/2/2 6/3/3
f 6/3/3 1/2/2 4/4/4
f 3/1/1 6/3/3 5/5/5
f 10/6/6 7/7/7 13/8/8
f 13/8/8 7/7/7 11/9/9
f 10/6/10 13/8/8 12/10/11
f 17/11/12 14/12/13 20/13/14
f 20/13/14 14/12/13 18/14/15
f 17/11/16 20/13/14 19/15/17
f 24/16/18 21/17/19 27/18/20
f 27/18/20 21/17/19 25/19/21
f 24/16/22 27/18/20 26/20/23
f 30/21/24 28/22/25 33/23/26
f 33/23/26 28/22/25 31/24/27
f 30/21/24 33/23/26 32/25/28
f 37/26/29 34/27/30 40/28/31
f 40/28/31 34/27/30 38/29/32
f 37/26/33 40/28/31 39/30/34
f 41/31/35 43/32/36 46/33/37
f 46/33/37 43/32/36 45/34/38
f 47/35/39 50/36/40 53/37/41
f 48/38/42 51/39/43 53/37/41
f 53/37/41 50/36/44 52/40/45
f 54/41/46 57/42/47 60/43/48
f 55/44/49 58/45/50 60/43/48
f 60/43/48 57/42/51 59/46/52
f 61/47/53 63/48/54 66/49/55
f 66/49/55 63/48/54 65/50/56
f 67/51/57 69/52/58 72/53/59
f 72/53/59 69/52/58 71/54/60
f 73/55/61 76/56/62 79/57/63
f 74/58/64 77/59/65 79/57/63
f 79/57/63 76/56/66 78/60/67
f 2/61/68 3/1/1 5/5/5
f 8/62/69 13/8/8 11/9/9
f 12/10/11 13/8/8 8/62/69
f 9/63/70 10/6/10 12/10/11
f 15/64/71 20/13/14 18/14/15
f 19/15/17 20/13/14 15/64/71
f 16/65/72 17/11/16 19/15/17
f 22/66/73 27/18/20 25/19/21
f 26/20/23 27/18/20 22/66/73
f 23/67/74 24/16/22 26/20/23
f 29/68/75 30/21/24 32/25/28
f 35/69/76 40/28/31 38/29/32
f 39/30/34 40/28/31 35/69/76
f 36/70/77 37/26/33 39/30/34
f 46/33/37 44/71/78 41/31/35
f 45/34/38 43/32/36 42/72/79
f 53/37/41 51/39/43 47/35/39
f 48/38/42 53/37/41 52/40/45
f 52/40/45 50/36/44 49/73/80
f 60/43/48 58/45/50 54/41/46
f 55/44/49 60/43/48 59/46/52
f 59/46/52 57/42/51 56/74/81
f 66/49/55 64/75/82 61/47/53
f 65/50/56 63/48/54 62/76/83
f 72/53/59 70/77/84 67/51/57
f 71/54/60 69/52/58 68/78/85
f 79/57/63 77/59/65 73/55/61
f 74/58/64 79/57/63 78/60/67
f 78/60/67 76/56/66 75/79/86
