# Blender v3.4.1 OBJ File: 'plants.blend'
# www.blender.org
o Croton_Leaves_Plane.006
v -0.374692 -0.424415 -0.010850
v 0.374692 -0.424415 -0.010850
v -0.374692 0.097401 -0.155982
v 0.374692 0.097401 -0.155982
v -0.311793 0.472355 -0.416371
v 0.311793 0.472355 -0.416371
v -0.234225 0.694425 -0.785255
v 0.234225 0.694425 -0.785255
v -0.116777 0.823649 -1.128721
v 0.116777 0.823649 -1.128721
v 0.087167 -0.452141 0.293968
v -0.227168 -0.438983 -0.386177
v -0.128278 0.032698 0.402917
v -0.442612 0.045856 -0.277228
v -0.448829 0.352644 0.487950
v -0.710397 0.363594 -0.078020
v -0.847228 0.502218 0.589503
v -1.043722 0.510444 0.164335
v -1.224383 0.566150 0.635641
v -1.322349 0.570251 0.423666
v -0.127669 -0.426692 0.141045
v 0.209069 -0.450006 -0.257347
v -0.221798 -0.075208 0.040915
v 0.114941 -0.098521 -0.357478
v -0.344146 0.164670 -0.133980
v -0.063935 0.145270 -0.465495
v -0.512595 0.290733 -0.354578
v -0.302096 0.276160 -0.603618
v -0.646592 0.352990 -0.578741
v -0.541644 0.345724 -0.702904
v 0.211525 -0.425446 -0.313970
v -0.003689 -0.373365 0.401954
v 0.469023 0.049118 -0.271086
v 0.253808 0.101200 0.444838
v 0.780935 0.359414 -0.134056
v 0.601848 0.402752 0.461687
v 1.153416 0.497754 0.049046
v 1.018883 0.530311 0.496579
v 1.469005 0.554337 0.262736
v 1.401931 0.570569 0.485862
v 0.408307 -0.613618 -0.037145
v -0.339201 -0.618623 -0.089904
v 0.398043 -0.080461 0.057691
v -0.349465 -0.085467 0.004932
v 0.316887 0.316929 0.276425
v -0.305138 0.312764 0.232522
v 0.213425 0.572242 0.616304
v -0.253852 0.569113 0.583323
v 0.071982 0.732463 0.936905
v -0.160987 0.730903 0.920462
v 0.190539 -0.466184 0.031531
v -0.375449 -0.351673 -0.104558
v 0.155643 -0.221904 0.382208
v -0.410346 -0.107393 0.246118
v 0.046013 -0.113016 0.712690
v -0.424964 -0.017728 0.599445
v -0.100313 -0.147225 1.024756
v -0.454120 -0.075643 0.939684
v -0.270647 -0.219001 1.267419
v -0.447043 -0.183313 1.225005
v 0.366411 -0.372024 -0.058390
v -0.126957 -0.436430 0.100017
v 0.425260 -0.128548 0.223894
v -0.068108 -0.192954 0.382301
v 0.460859 -0.019217 0.523690
v 0.050312 -0.072812 0.655506
v 0.503149 -0.040734 0.824820
v 0.194739 -0.080996 0.923842
v 0.508803 -0.109156 1.084371
v 0.355040 -0.129229 1.133740
v -0.320499 -0.544877 -0.049267
v 0.259529 -0.561143 0.074342
v -0.259867 -0.193580 -0.287550
v 0.320161 -0.209846 -0.163940
v -0.144423 0.016417 -0.562627
v 0.338237 0.002881 -0.459767
v -0.012953 0.083444 -0.875980
v 0.349631 0.073276 -0.798710
v 0.138657 0.086993 -1.140654
v 0.319429 0.081924 -1.102130
v -0.018415 -0.474310 -0.281106
v 0.262370 -0.494337 0.158679
v 0.195912 -0.189444 -0.404973
v 0.476697 -0.209471 0.034812
v 0.455340 -0.033053 -0.511449
v 0.688990 -0.049717 -0.145490
v 0.736657 -0.005615 -0.625636
v 0.912179 -0.018134 -0.350721
v 0.994994 -0.030049 -0.694522
v 1.082503 -0.036291 -0.557458
v -0.374692 -0.424415 -0.010850
v 0.374692 -0.424415 -0.010850
v -0.374692 0.097401 -0.155982
v 0.374692 0.097401 -0.155982
v -0.311793 0.472355 -0.416371
v 0.311793 0.472355 -0.416371
v -0.234225 0.694425 -0.785255
v 0.234225 0.694425 -0.785255
v -0.116777 0.823649 -1.128721
v 0.116777 0.823649 -1.128721
v 0.087167 -0.452141 0.293968
v -0.227168 -0.438983 -0.386177
v -0.128278 0.032698 0.402917
v -0.442612 0.045856 -0.277228
v -0.448829 0.352644 0.487950
v -0.710397 0.363594 -0.078020
v -0.847228 0.502218 0.589503
v -1.043722 0.510444 0.164335
v -1.224383 0.566150 0.635641
v -1.322349 0.570251 0.423666
v -0.127669 -0.426692 0.141045
v 0.209069 -0.450006 -0.257347
v -0.221798 -0.075208 0.040915
v 0.114941 -0.098521 -0.357478
v -0.344146 0.164670 -0.133980
v -0.063935 0.145270 -0.465495
v -0.512595 0.290733 -0.354578
v -0.302096 0.276160 -0.603618
v -0.646592 0.352990 -0.578741
v -0.541644 0.345724 -0.702904
v 0.211525 -0.425446 -0.313970
v -0.003689 -0.373365 0.401954
v 0.469023 0.049118 -0.271086
v 0.253808 0.101200 0.444838
v 0.780935 0.359414 -0.134056
v 0.601848 0.402752 0.461687
v 1.153416 0.497754 0.049046
v 1.018883 0.530311 0.496579
v 1.469005 0.554337 0.262736
v 1.401931 0.570569 0.485862
v 0.408307 -0.613618 -0.037145
v -0.339201 -0.618623 -0.089904
v 0.398043 -0.080461 0.057691
v -0.349465 -0.085467 0.004932
v 0.316887 0.316929 0.276425
v -0.305138 0.312764 0.232522
v 0.213425 0.572242 0.616304
v -0.253852 0.569113 0.583323
v 0.071982 0.732463 0.936905
v -0.160987 0.730903 0.920462
v 0.190539 -0.466184 0.031531
v -0.375449 -0.351673 -0.104558
v 0.155643 -0.221904 0.382208
v -0.410346 -0.107393 0.246118
v 0.046013 -0.113016 0.712690
v -0.424964 -0.017728 0.599445
v -0.100313 -0.147225 1.024756
v -0.454120 -0.075643 0.939684
v -0.270647 -0.219001 1.267419
v -0.447043 -0.183313 1.225005
v 0.366411 -0.372024 -0.058390
v -0.126957 -0.436430 0.100017
v 0.425260 -0.128548 0.223894
v -0.068108 -0.192954 0.382301
v 0.460859 -0.019217 0.523690
v 0.050312 -0.072812 0.655506
v 0.503149 -0.040734 0.824820
v 0.194739 -0.080996 0.923842
v 0.508803 -0.109156 1.084371
v 0.355040 -0.129229 1.133740
v -0.320499 -0.544877 -0.049267
v 0.259529 -0.561143 0.074342
v -0.259867 -0.193580 -0.287550
v 0.320161 -0.209846 -0.163940
v -0.144423 0.016417 -0.562627
v 0.338237 0.002881 -0.459767
v -0.012953 0.083444 -0.875980
v 0.349631 0.073276 -0.798710
v 0.138657 0.086993 -1.140654
v 0.319429 0.081924 -1.102130
v -0.018415 -0.474310 -0.281106
v 0.262370 -0.494337 0.158679
v 0.195912 -0.189444 -0.404973
v 0.476697 -0.209471 0.034812
v 0.455340 -0.033053 -0.511449
v 0.688990 -0.049717 -0.145490
v 0.736657 -0.005615 -0.625636
v 0.912179 -0.018134 -0.350721
v 0.994994 -0.030049 -0.694522
v 1.082503 -0.036291 -0.557458
vt 0.466930 0.000000
vt 0.000000 0.332733
vt 0.000000 0.000000
vt 0.466930 0.332733
vt 0.039191 0.613174
vt 0.427738 0.613174
vt 0.087523 0.836135
vt 0.379407 0.836135
vt 0.160703 1.000000
vt 0.466930 1.000000
vt 0.933860 0.667267
vt 0.933860 1.000000
vt 0.506122 0.386826
vt 0.894669 0.386826
vt 0.846337 0.163865
vt 0.627633 0.000000
vt 0.773157 0.000000
vt 0.466930 0.000000
vt 0.000000 0.332733
vt 0.000000 0.000000
vt 0.466930 0.332733
vt 0.039191 0.613174
vt 0.427738 0.613174
vt 0.087523 0.836135
vt 0.379407 0.836135
vt 0.160703 1.000000
vt 0.466930 1.000000
vt 0.933860 0.667267
vt 0.933860 1.000000
vt 0.506122 0.386826
vt 0.894669 0.386826
vt 0.846337 0.163865
vt 0.627633 0.000000
vt 0.773157 0.000000
vt 0.000000 0.000000
vt 0.466930 0.332733
vt 0.000000 0.332733
vt 0.039191 0.613174
vt 0.427738 0.613174
vt 0.087523 0.836135
vt 0.379407 0.836135
vt 0.160703 1.000000
vt 0.466930 1.000000
vt 0.933860 0.667267
vt 0.933860 1.000000
vt 0.466930 0.667266
vt 0.894669 0.386826
vt 0.506122 0.386826
vt 0.846337 0.163865
vt 0.554453 0.163865
vt 0.773157 0.000000
vt 0.466930 0.000000
vt 0.000000 0.332733
vt 0.000000 0.000000
vt 0.466930 0.332733
vt 0.039191 0.613174
vt 0.427738 0.613174
vt 0.087523 0.836135
vt 0.306227 1.000000
vt 0.160703 1.000000
vt 0.466930 1.000000
vt 0.933860 0.667267
vt 0.933860 1.000000
vt 0.466930 0.667266
vt 0.894669 0.386826
vt 0.506122 0.386826
vt 0.846337 0.163865
vt 0.554453 0.163865
vt 0.773157 0.000000
vt 0.466930 0.000000
vt 0.000000 0.332733
vt 0.000000 0.000000
vt 0.466930 0.332733
vt 0.039191 0.613174
vt 0.379407 0.836135
vt 0.087523 0.836135
vt 0.306227 1.000000
vt 0.160703 1.000000
vt 0.000000 0.332733
vt 0.466930 0.000000
vt 0.000000 0.000000
vt 0.039191 0.613174
vt 0.466930 0.332733
vt 0.087523 0.836135
vt 0.427738 0.613174
vt 0.160703 1.000000
vt 0.379407 0.836135
vt 0.933860 0.667267
vt 0.466930 1.000000
vt 0.933860 1.000000
vt 0.894669 0.386826
vt 0.466930 0.667266
vt 0.846337 0.163865
vt 0.506122 0.386826
vt 0.627633 0.000000
vt 0.554453 0.163865
vt 0.000000 0.332733
vt 0.466930 0.000000
vt 0.000000 0.000000
vt 0.039191 0.613174
vt 0.466930 0.332733
vt 0.087523 0.836135
vt 0.427738 0.613174
vt 0.160703 1.000000
vt 0.379407 0.836135
vt 0.933860 0.667267
vt 0.466930 1.000000
vt 0.933860 1.000000
vt 0.894669 0.386826
vt 0.466930 0.667266
vt 0.846337 0.163865
vt 0.506122 0.386826
vt 0.627633 0.000000
vt 0.554453 0.163865
vt 0.000000 0.332733
vt 0.466930 0.000000
vt 0.000000 0.000000
vt 0.039191 0.613174
vt 0.466930 0.332733
vt 0.087523 0.836135
vt 0.427738 0.613174
vt 0.160703 1.000000
vt 0.379407 0.836135
vt 0.933860 0.667267
vt 0.466930 1.000000
vt 0.933860 1.000000
vt 0.894669 0.386826
vt 0.466930 0.667266
vt 0.554453 0.163865
vt 0.506122 0.386826
vt 0.773157 0.000000
vt 0.846337 0.163865
vt 0.000000 0.332733
vt 0.466930 0.000000
vt 0.000000 0.000000
vt 0.039191 0.613174
vt 0.466930 0.332733
vt 0.087523 0.836135
vt 0.427738 0.613174
vt 0.306227 1.000000
vt 0.379407 0.836135
vt 0.933860 0.667267
vt 0.466930 1.000000
vt 0.933860 1.000000
vt 0.506122 0.386826
vt 0.466930 0.667266
vt 0.846337 0.163865
vt 0.894669 0.386826
vt 0.773157 0.000000
vt 0.554453 0.163865
vt 0.000000 0.332733
vt 0.466930 0.000000
vt 0.000000 0.000000
vt 0.039191 0.613174
vt 0.466930 0.332733
vt 0.087523 0.836135
vt 0.427738 0.613174
vt 0.306227 1.000000
vt 0.379407 0.836135
vt 0.306227 1.000000
vt 0.466930 0.667266
vt 0.554453 0.163865
vt 0.306227 1.000000
vt 0.466930 0.667266
vt 0.554453 0.163865
vt 0.466930 0.000000
vt 0.306227 1.000000
vt 0.627633 0.000000
vt 0.379407 0.836135
vt 0.627633 0.000000
vt 0.427738 0.613174
vt 0.306227 1.000000
vt 0.773157 0.000000
vt 0.306227 1.000000
vt 0.773157 0.000000
vt 0.306227 1.000000
vt 0.627633 0.000000
vt 0.160703 1.000000
vt 0.627633 0.000000
vt 0.160703 1.000000
vn 0.0000 0.2680 0.9634
vn 0.0000 0.4182 0.9084
vn 0.0000 0.7147 0.6994
vn 0.0000 0.8935 0.4490
vn 0.0000 0.9359 0.3521
vn 0.8160 0.4454 -0.3685
vn 0.7421 0.5824 -0.3317
vn 0.5068 0.8340 -0.2181
vn 0.2538 0.9622 -0.0987
vn 0.1603 0.9855 -0.0550
vn 0.7224 0.3614 0.5895
vn 0.6734 0.5053 0.5396
vn 0.5002 0.7795 0.3772
vn 0.3008 0.9326 0.1997
vn 0.2249 0.9652 0.1336
vn -0.8316 0.4769 -0.2847
vn -0.7451 0.6105 -0.2684
vn -0.4814 0.8518 -0.2067
vn -0.2068 0.9694 -0.1327
vn -0.1068 0.9888 -0.1040
vn 0.0681 0.1760 -0.9820
vn 0.0642 0.3307 -0.9415
vn 0.0495 0.6456 -0.7621
vn 0.0318 0.8472 -0.5303
vn 0.0249 0.8986 -0.4381
vn 0.2885 0.7989 -0.5278
vn 0.2719 0.8795 -0.3906
vn 0.2089 0.9768 -0.0469
vn 0.1336 0.9587 0.2509
vn 0.1045 0.9313 0.3489
vn -0.2880 0.7540 -0.5903
vn -0.2594 0.8473 -0.4635
vn -0.1711 0.9758 -0.1360
vn -0.0781 0.9845 0.1572
vn -0.0440 0.9658 0.2556
vn -0.1555 0.5728 0.8049
vn -0.1309 0.6961 0.7059
vn -0.0637 0.9062 0.4180
vn 0.0002 0.9916 0.1294
vn 0.0224 0.9994 0.0263
vn -0.6232 0.6548 0.4277
vn -0.5246 0.7668 0.3699
vn -0.2547 0.9449 0.2056
vn 0.0018 0.9990 0.0444
vn 0.0908 0.9958 -0.0126
vn 0.0000 -0.4182 -0.9084
vn 0.0000 -0.2680 -0.9634
vn 0.0000 -0.7147 -0.6994
vn 0.0000 -0.8935 -0.4490
vn 0.0000 -0.9359 -0.3521
vn -0.7421 -0.5824 0.3317
vn -0.8160 -0.4454 0.3685
vn -0.5068 -0.8340 0.2181
vn -0.2538 -0.9622 0.0987
vn -0.1603 -0.9855 0.0550
vn -0.6734 -0.5053 -0.5396
vn -0.7224 -0.3614 -0.5895
vn -0.5002 -0.7795 -0.3772
vn -0.3008 -0.9326 -0.1997
vn -0.2249 -0.9652 -0.1336
vn 0.7451 -0.6105 0.2684
vn 0.8316 -0.4769 0.2847
vn 0.4814 -0.8518 0.2067
vn 0.2068 -0.9694 0.1327
vn 0.1068 -0.9888 0.1040
vn -0.0642 -0.3307 0.9415
vn -0.0681 -0.1760 0.9820
vn -0.0495 -0.6456 0.7621
vn -0.0318 -0.8472 0.5303
vn -0.0249 -0.8986 0.4381
vn -0.2719 -0.8795 0.3906
vn -0.2885 -0.7989 0.5278
vn -0.2089 -0.9768 0.0469
vn -0.1336 -0.9587 -0.2509
vn -0.1045 -0.9313 -0.3489
vn 0.2594 -0.8473 0.4635
vn 0.2880 -0.7540 0.5903
vn 0.1711 -0.9758 0.1360
vn 0.0781 -0.9845 -0.1572
vn 0.0440 -0.9658 -0.2556
vn 0.1309 -0.6961 -0.7059
vn 0.1555 -0.5728 -0.8049
vn 0.0637 -0.9062 -0.4180
vn -0.0002 -0.9916 -0.1294
vn -0.0224 -0.9994 -0.0263
vn 0.5246 -0.7668 -0.3699
vn 0.6232 -0.6548 -0.4277
vn 0.2547 -0.9449 -0.2056
vn -0.0018 -0.9990 -0.0444
vn -0.0908 -0.9958 0.0126
s 1
f 2/1/1 3/2/2 1/3/1
f 4/4/2 5/5/3 3/2/2
f 6/6/3 7/7/4 5/5/3
f 8/8/4 9/9/5 7/7/4
f 12/10/6 13/11/7 11/12/6
f 13/11/7 16/13/8 15/14/8
f 16/13/8 17/15/9 15/14/8
f 17/15/9 20/16/10 19/17/10
f 22/18/11 23/19/12 21/20/11
f 24/21/12 25/22/13 23/19/12
f 26/23/13 27/24/14 25/22/13
f 28/25/14 29/26/15 27/24/14
f 32/27/16 33/28/17 31/29/16
f 33/28/17 36/30/18 35/31/18
f 36/30/18 37/32/19 35/31/18
f 37/32/19 40/33/20 39/34/20
f 41/35/21 44/36/22 43/37/22
f 44/36/22 45/38/23 43/37/22
f 46/39/23 47/40/24 45/38/23
f 48/41/24 49/42/25 47/40/24
f 52/43/26 53/44/27 51/45/26
f 54/46/27 55/47/28 53/44/27
f 56/48/28 57/49/29 55/47/28
f 58/50/29 59/51/30 57/49/29
f 62/52/31 63/53/32 61/54/31
f 64/55/32 65/56/33 63/53/32
f 66/57/33 67/58/34 65/56/33
f 67/58/34 70/59/35 69/60/35
f 72/61/36 73/62/37 71/63/36
f 74/64/37 75/65/38 73/62/37
f 76/66/38 77/67/39 75/65/38
f 78/68/39 79/69/40 77/67/39
f 82/70/41 83/71/42 81/72/41
f 84/73/42 85/74/43 83/71/42
f 85/74/43 88/75/44 87/76/44
f 87/76/44 90/77/45 89/78/45
f 93/79/46 92/80/47 91/81/47
f 95/82/48 94/83/46 93/79/46
f 97/84/49 96/85/48 95/82/48
f 99/86/50 98/87/49 97/84/49
f 103/88/51 102/89/52 101/90/52
f 105/91/53 104/92/51 103/88/51
f 107/93/54 106/94/53 105/91/53
f 107/93/54 110/95/55 108/96/54
f 113/97/56 112/98/57 111/99/57
f 115/100/58 114/101/56 113/97/56
f 117/102/59 116/103/58 115/100/58
f 119/104/60 118/105/59 117/102/59
f 123/106/61 122/107/62 121/108/62
f 125/109/63 124/110/61 123/106/61
f 127/111/64 126/112/63 125/109/63
f 127/111/64 130/113/65 128/114/64
f 133/115/66 132/116/67 131/117/67
f 135/118/68 134/119/66 133/115/66
f 137/120/69 136/121/68 135/118/68
f 139/122/70 138/123/69 137/120/69
f 143/124/71 142/125/72 141/126/72
f 145/127/73 144/128/71 143/124/71
f 145/127/73 148/129/74 146/130/73
f 149/131/75 148/129/74 147/132/74
f 153/133/76 152/134/77 151/135/77
f 155/136/78 154/137/76 153/133/76
f 157/138/79 156/139/78 155/136/78
f 157/138/79 160/140/80 158/141/79
f 163/142/81 162/143/82 161/144/82
f 163/142/81 166/145/83 164/146/81
f 167/147/84 166/145/83 165/148/83
f 169/149/85 168/150/84 167/147/84
f 173/151/86 172/152/87 171/153/87
f 175/154/88 174/155/86 173/151/86
f 177/156/89 176/157/88 175/154/88
f 177/156/89 180/158/90 178/159/89
f 2/1/1 4/4/2 3/2/2
f 4/4/2 6/6/3 5/5/3
f 6/6/3 8/8/4 7/7/4
f 8/8/4 10/160/5 9/9/5
f 12/10/6 14/161/7 13/11/7
f 13/11/7 14/161/7 16/13/8
f 16/13/8 18/162/9 17/15/9
f 17/15/9 18/162/9 20/16/10
f 22/18/11 24/21/12 23/19/12
f 24/21/12 26/23/13 25/22/13
f 26/23/13 28/25/14 27/24/14
f 28/25/14 30/163/15 29/26/15
f 32/27/16 34/164/17 33/28/17
f 33/28/17 34/164/17 36/30/18
f 36/30/18 38/165/19 37/32/19
f 37/32/19 38/165/19 40/33/20
f 41/35/21 42/166/21 44/36/22
f 44/36/22 46/39/23 45/38/23
f 46/39/23 48/41/24 47/40/24
f 48/41/24 50/167/25 49/42/25
f 52/43/26 54/46/27 53/44/27
f 54/46/27 56/48/28 55/47/28
f 56/48/28 58/50/29 57/49/29
f 58/50/29 60/168/30 59/51/30
f 62/52/31 64/55/32 63/53/32
f 64/55/32 66/57/33 65/56/33
f 66/57/33 68/169/34 67/58/34
f 67/58/34 68/169/34 70/59/35
f 72/61/36 74/64/37 73/62/37
f 74/64/37 76/66/38 75/65/38
f 76/66/38 78/68/39 77/67/39
f 78/68/39 80/170/40 79/69/40
f 82/70/41 84/73/42 83/71/42
f 84/73/42 86/171/43 85/74/43
f 85/74/43 86/171/43 88/75/44
f 87/76/44 88/75/44 90/77/45
f 93/79/46 94/83/46 92/80/47
f 95/82/48 96/85/48 94/83/46
f 97/84/49 98/87/49 96/85/48
f 99/86/50 100/172/50 98/87/49
f 103/88/51 104/92/51 102/89/52
f 105/91/53 106/94/53 104/92/51
f 107/93/54 108/96/54 106/94/53
f 107/93/54 109/173/55 110/95/55
f 113/97/56 114/101/56 112/98/57
f 115/100/58 116/103/58 114/101/56
f 117/102/59 118/105/59 116/103/58
f 119/104/60 120/174/60 118/105/59
f 123/106/61 124/110/61 122/107/62
f 125/109/63 126/112/63 124/110/61
f 127/111/64 128/114/64 126/112/63
f 127/111/64 129/175/65 130/113/65
f 133/115/66 134/119/66 132/116/67
f 135/118/68 136/121/68 134/119/66
f 137/120/69 138/123/69 136/121/68
f 139/122/70 140/176/70 138/123/69
f 143/124/71 144/128/71 142/125/72
f 145/127/73 146/130/73 144/128/71
f 145/127/73 147/132/74 148/129/74
f 149/131/75 150/177/75 148/129/74
f 153/133/76 154/137/76 152/134/77
f 155/136/78 156/139/78 154/137/76
f 157/138/79 158/141/79 156/139/78
f 157/138/79 159/178/80 160/140/80
f 163/142/81 164/146/81 162/143/82
f 163/142/81 165/148/83 166/145/83
f 167/147/84 168/150/84 166/145/83
f 169/149/85 170/179/85 168/150/84
f 173/151/86 174/155/86 172/152/87
f 175/154/88 176/157/88 174/155/86
f 177/156/89 178/159/89 176/157/88
f 177/156/89 179/180/90 180/158/90
