# Blender v3.4.1 OBJ File: 'plants.blend'
# www.blender.org
o Plane.001_Plane.010
v 0.168328 -1.000000 -0.289801
v -0.168328 -1.000000 0.289801
v 0.168328 1.000000 -0.289801
v -0.168328 1.000000 0.289801
v 0.168328 0.500000 -0.289801
v 0.168328 0.000000 -0.289801
v 0.168328 -0.500000 -0.289801
v 0.084164 -1.000000 -0.144901
v 0.000000 -1.000000 0.000000
v -0.084164 -1.000000 0.144901
v -0.168328 -0.500000 0.289801
v -0.168328 0.000000 0.289801
v -0.168328 0.500000 0.289801
v -0.084164 1.000000 0.144901
v -0.000000 1.000000 -0.000000
v 0.084164 1.000000 -0.144901
v 0.084164 -0.500000 -0.144901
v 0.084164 0.000000 -0.144901
v 0.084164 0.500000 -0.144901
v 0.000000 -0.500000 0.000000
v 0.000000 0.000000 0.000000
v -0.000000 0.500000 -0.000000
v -0.084164 -0.500000 0.144901
v -0.084164 0.000000 0.144901
v -0.084164 0.500000 0.144901
v -0.335141 -1.000000 -0.000000
v 0.335141 -1.000000 -0.000000
v -0.335141 1.000000 0.000000
v 0.335141 1.000000 0.000000
v -0.335141 0.500000 0.000000
v -0.335141 0.000000 0.000000
v -0.335141 -0.500000 0.000000
v -0.167570 -1.000000 -0.000000
v 0.000000 -1.000000 -0.000000
v 0.167570 -1.000000 -0.000000
v 0.335141 -0.500000 -0.000000
v 0.335141 0.000000 -0.000000
v 0.335141 0.500000 0.000000
v 0.167570 1.000000 0.000000
v -0.000000 1.000000 0.000000
v -0.167570 1.000000 0.000000
v -0.167570 -0.500000 -0.000000
v -0.167570 0.000000 0.000000
v -0.167570 0.500000 0.000000
v 0.000000 -0.500000 -0.000000
v 0.000000 0.000000 0.000000
v -0.000000 0.500000 0.000000
v 0.167570 -0.500000 -0.000000
v 0.167570 0.000000 0.000000
v 0.167570 0.500000 0.000000
v -0.176961 -1.000000 -0.284612
v 0.176961 -1.000000 0.284612
v -0.176961 1.000000 -0.284612
v 0.176961 1.000000 0.284612
v -0.176961 0.500000 -0.284612
v -0.176961 0.000000 -0.284612
v -0.176961 -0.500000 -0.284612
v -0.088481 -1.000000 -0.142306
v 0.000000 -1.000000 -0.000000
v 0.088481 -1.000000 0.142306
v 0.176961 -0.500000 0.284612
v 0.176961 0.000000 0.284612
v 0.176961 0.500000 0.284612
v 0.088481 1.000000 0.142306
v -0.000000 1.000000 0.000000
v -0.088481 1.000000 -0.142306
v -0.088481 -0.500000 -0.142306
v -0.088481 0.000000 -0.142306
v -0.088481 0.500000 -0.142306
v 0.000000 -0.500000 -0.000000
v 0.000000 0.000000 0.000000
v -0.000000 0.500000 0.000000
v 0.088481 -0.500000 0.142306
v 0.088481 0.000000 0.142306
v 0.088481 0.500000 0.142306
vt 0.251355 1.000000
vt 0.335141 0.750000
vt 0.251355 0.750000
vt 0.000000 1.000000
vt 0.083785 0.750000
vt 0.000000 0.750000
vt 0.083785 1.000000
vt 0.167570 0.750000
vt 0.167570 1.000000
vt 0.000000 0.250000
vt 0.083785 0.000000
vt 0.000000 0.000000
vt 0.000000 0.500000
vt 0.083785 0.250000
vt 0.083785 0.500000
vt 0.167570 0.000000
vt 0.167570 0.250000
vt 0.167570 0.500000
vt 0.251355 0.000000
vt 0.251355 0.250000
vt 0.251355 0.500000
vt 0.335141 0.000000
vt 0.335141 0.250000
vt 0.335141 0.500000
vt 0.251355 1.000000
vt 0.335141 0.750000
vt 0.251355 0.750000
vt 0.000000 1.000000
vt 0.083785 0.750000
vt 0.000000 0.750000
vt 0.083785 1.000000
vt 0.167570 0.750000
vt 0.167570 1.000000
vt 0.000000 0.250000
vt 0.083785 0.000000
vt 0.000000 0.000000
vt 0.000000 0.500000
vt 0.083785 0.250000
vt 0.083785 0.500000
vt 0.167570 0.000000
vt 0.167570 0.250000
vt 0.167570 0.500000
vt 0.251355 0.000000
vt 0.251355 0.250000
vt 0.251355 0.500000
vt 0.335141 0.000000
vt 0.335141 0.250000
vt 0.335141 0.500000
vt 0.251355 1.000000
vt 0.335141 0.750000
vt 0.251355 0.750000
vt 0.000000 1.000000
vt 0.083785 0.750000
vt 0.000000 0.750000
vt 0.083785 1.000000
vt 0.167570 0.750000
vt 0.167570 1.000000
vt 0.000000 0.250000
vt 0.083785 0.000000
vt 0.000000 0.000000
vt 0.000000 0.500000
vt 0.083785 0.250000
vt 0.083785 0.500000
vt 0.167570 0.000000
vt 0.167570 0.250000
vt 0.167570 0.500000
vt 0.251355 0.000000
vt 0.251355 0.250000
vt 0.251355 0.500000
vt 0.335141 0.000000
vt 0.335141 0.250000
vt 0.335141 0.500000
vt 0.335141 1.000000
vt 0.335141 1.000000
vt 0.335141 1.000000
vn 0.8647 0.0000 0.5023
vn -0.0000 0.0000 -1.0000
vn 0.8492 0.0000 -0.5280
s off
f 14/1/1 13/2/1 25/3/1
f 3/4/1 19/5/1 5/6/1
f 16/7/1 22/8/1 19/5/1
f 15/9/1 25/3/1 22/8/1
f 7/10/1 8/11/1 1/12/1
f 6/13/1 17/14/1 7/10/1
f 5/6/1 18/15/1 6/13/1
f 17/14/1 9/16/1 8/11/1
f 18/15/1 20/17/1 17/14/1
f 19/5/1 21/18/1 18/15/1
f 20/17/1 10/19/1 9/16/1
f 21/18/1 23/20/1 20/17/1
f 22/8/1 24/21/1 21/18/1
f 23/20/1 2/22/1 10/19/1
f 24/21/1 11/23/1 23/20/1
f 25/3/1 12/24/1 24/21/1
f 39/25/2 38/26/2 50/27/2
f 28/28/2 44/29/2 30/30/2
f 41/31/2 47/32/2 44/29/2
f 40/33/2 50/27/2 47/32/2
f 32/34/2 33/35/2 26/36/2
f 31/37/2 42/38/2 32/34/2
f 30/30/2 43/39/2 31/37/2
f 42/38/2 34/40/2 33/35/2
f 43/39/2 45/41/2 42/38/2
f 44/29/2 46/42/2 43/39/2
f 45/41/2 35/43/2 34/40/2
f 46/42/2 48/44/2 45/41/2
f 47/32/2 49/45/2 46/42/2
f 48/44/2 27/46/2 35/43/2
f 49/45/2 36/47/2 48/44/2
f 50/27/2 37/48/2 49/45/2
f 64/49/3 63/50/3 75/51/3
f 53/52/3 69/53/3 55/54/3
f 66/55/3 72/56/3 69/53/3
f 65/57/3 75/51/3 72/56/3
f 57/58/3 58/59/3 51/60/3
f 56/61/3 67/62/3 57/58/3
f 55/54/3 68/63/3 56/61/3
f 67/62/3 59/64/3 58/59/3
f 68/63/3 70/65/3 67/62/3
f 69/53/3 71/66/3 68/63/3
f 70/65/3 60/67/3 59/64/3
f 71/66/3 73/68/3 70/65/3
f 72/56/3 74/69/3 71/66/3
f 73/68/3 52/70/3 60/67/3
f 74/69/3 61/71/3 73/68/3
f 75/51/3 62/72/3 74/69/3
f 14/1/1 4/73/1 13/2/1
f 3/4/1 16/7/1 19/5/1
f 16/7/1 15/9/1 22/8/1
f 15/9/1 14/1/1 25/3/1
f 7/10/1 17/14/1 8/11/1
f 6/13/1 18/15/1 17/14/1
f 5/6/1 19/5/1 18/15/1
f 17/14/1 20/17/1 9/16/1
f 18/15/1 21/18/1 20/17/1
f 19/5/1 22/8/1 21/18/1
f 20/17/1 23/20/1 10/19/1
f 21/18/1 24/21/1 23/20/1
f 22/8/1 25/3/1 24/21/1
f 23/20/1 11/23/1 2/22/1
f 24/21/1 12/24/1 11/23/1
f 25/3/1 13/2/1 12/24/1
f 39/25/2 29/74/2 38/26/2
f 28/28/2 41/31/2 44/29/2
f 41/31/2 40/33/2 47/32/2
f 40/33/2 39/25/2 50/27/2
f 32/34/2 42/38/2 33/35/2
f 31/37/2 43/39/2 42/38/2
f 30/30/2 44/29/2 43/39/2
f 42/38/2 45/41/2 34/40/2
f 43/39/2 46/42/2 45/41/2
f 44/29/2 47/32/2 46/42/2
f 45/41/2 48/44/2 35/43/2
f 46/42/2 49/45/2 48/44/2
f 47/32/2 50/27/2 49/45/2
f 48/44/2 36/47/2 27/46/2
f 49/45/2 37/48/2 36/47/2
f 50/27/2 38/26/2 37/48/2
f 64/49/3 54/75/3 63/50/3
f 53/52/3 66/55/3 69/53/3
f 66/55/3 65/57/3 72/56/3
f 65/57/3 64/49/3 75/51/3
f 57/58/3 67/62/3 58/59/3
f 56/61/3 68/63/3 67/62/3
f 55/54/3 69/53/3 68/63/3
f 67/62/3 70/65/3 59/64/3
f 68/63/3 71/66/3 70/65/3
f 69/53/3 72/56/3 71/66/3
f 70/65/3 73/68/3 60/67/3
f 71/66/3 74/69/3 73/68/3
f 72/56/3 75/51/3 74/69/3
f 73/68/3 61/71/3 52/70/3
f 74/69/3 62/72/3 61/71/3
f 75/51/3 63/50/3 62/72/3
o Plane.002_Plane.012
v 0.168328 -1.000000 -0.289801
v -0.168328 -1.000000 0.289801
v 0.168328 1.000000 -0.289801
v -0.168328 1.000000 0.289801
v 0.168328 0.500000 -0.289801
v 0.168328 0.000000 -0.289801
v 0.168328 -0.500000 -0.289801
v 0.084164 -1.000000 -0.144901
v -0.000000 -1.000000 -0.000000
v -0.084164 -1.000000 0.144901
v -0.168328 -0.500000 0.289801
v -0.168328 0.000000 0.289801
v -0.168328 0.500000 0.289801
v -0.084164 1.000000 0.144901
v 0.000000 1.000000 0.000000
v 0.084164 1.000000 -0.144901
v 0.084164 -0.500000 -0.144901
v 0.084164 0.000000 -0.144901
v 0.084164 0.500000 -0.144901
v -0.000000 -0.500000 -0.000000
v 0.000000 0.000000 0.000000
v 0.000000 0.500000 0.000000
v -0.084164 -0.500000 0.144901
v -0.084164 0.000000 0.144901
v -0.084164 0.500000 0.144901
v 0.166051 -1.000000 0.291112
v -0.166051 -1.000000 -0.291112
v 0.166051 1.000000 0.291112
v -0.166051 1.000000 -0.291112
v 0.166051 0.500000 0.291112
v 0.166051 0.000000 0.291112
v 0.166051 -0.500000 0.291112
v 0.083026 -1.000000 0.145556
v 0.000000 -1.000000 -0.000000
v -0.083026 -1.000000 -0.145556
v -0.166051 -0.500000 -0.291112
v -0.166051 0.000000 -0.291112
v -0.166051 0.500000 -0.291112
v -0.083026 1.000000 -0.145556
v -0.000000 1.000000 0.000000
v 0.083026 1.000000 0.145556
v 0.083026 -0.500000 0.145556
v 0.083026 0.000000 0.145556
v 0.083026 0.500000 0.145556
v 0.000000 -0.500000 -0.000000
v 0.000000 0.000000 0.000000
v -0.000000 0.500000 0.000000
v -0.083026 -0.500000 -0.145556
v -0.083026 0.000000 -0.145556
v -0.083026 0.500000 -0.145556
v 0.334900 -1.000000 0.012697
v -0.334900 -1.000000 -0.012697
v 0.334900 1.000000 0.012697
v -0.334900 1.000000 -0.012697
v 0.334900 0.500000 0.012697
v 0.334900 0.000000 0.012697
v 0.334900 -0.500000 0.012697
v 0.167450 -1.000000 0.006349
v -0.000000 -1.000000 -0.000000
v -0.167450 -1.000000 -0.006349
v -0.334900 -0.500000 -0.012697
v -0.334900 0.000000 -0.012697
v -0.334900 0.500000 -0.012697
v -0.167450 1.000000 -0.006349
v 0.000000 1.000000 0.000000
v 0.167450 1.000000 0.006349
v 0.167450 -0.500000 0.006349
v 0.167450 0.000000 0.006349
v 0.167450 0.500000 0.006349
v -0.000000 -0.500000 -0.000000
v 0.000000 0.000000 0.000000
v 0.000000 0.500000 0.000000
v -0.167450 -0.500000 -0.006349
v -0.167450 0.000000 -0.006349
v -0.167450 0.500000 -0.006349
vt 0.335141 0.750000
vt 0.251355 0.750000
vt 0.251355 1.000000
vt 0.083785 0.750000
vt 0.000000 0.750000
vt 0.000000 1.000000
vt 0.083785 1.000000
vt 0.167570 1.000000
vt 0.167570 0.750000
vt 0.083785 0.000000
vt 0.000000 0.000000
vt 0.000000 0.250000
vt 0.083785 0.250000
vt 0.000000 0.500000
vt 0.083785 0.500000
vt 0.167570 0.000000
vt 0.167570 0.250000
vt 0.167570 0.500000
vt 0.251355 0.000000
vt 0.251355 0.250000
vt 0.251355 0.500000
vt 0.335141 0.000000
vt 0.335141 0.250000
vt 0.335141 0.500000
vt 0.335141 0.750000
vt 0.251355 0.750000
vt 0.251355 1.000000
vt 0.083785 0.750000
vt 0.000000 0.750000
vt 0.000000 1.000000
vt 0.167570 0.750000
vt 0.083785 1.000000
vt 0.167570 1.000000
vt 0.083785 0.000000
vt 0.000000 0.000000
vt 0.000000 0.250000
vt 0.083785 0.250000
vt 0.000000 0.500000
vt 0.083785 0.500000
vt 0.167570 0.000000
vt 0.167570 0.250000
vt 0.167570 0.500000
vt 0.251355 0.000000
vt 0.251355 0.250000
vt 0.251355 0.500000
vt 0.335141 0.000000
vt 0.335141 0.250000
vt 0.335141 0.500000
vt 0.335141 0.750000
vt 0.251355 0.750000
vt 0.251355 1.000000
vt 0.083785 0.750000
vt 0.000000 0.750000
vt 0.000000 1.000000
vt 0.167570 0.750000
vt 0.083785 1.000000
vt 0.167570 1.000000
vt 0.083785 0.000000
vt 0.000000 0.000000
vt 0.000000 0.250000
vt 0.083785 0.250000
vt 0.000000 0.500000
vt 0.083785 0.500000
vt 0.167570 0.000000
vt 0.167570 0.250000
vt 0.167570 0.500000
vt 0.251355 0.000000
vt 0.251355 0.250000
vt 0.251355 0.500000
vt 0.335141 0.000000
vt 0.335141 0.250000
vt 0.335141 0.500000
vt 0.335141 1.000000
vt 0.335141 1.000000
vt 0.335141 1.000000
vn 0.8647 0.0000 0.5023
vn -0.8686 -0.0000 0.4955
vn -0.0379 -0.0000 0.9993
s off
f 88/76/4 100/77/4 89/78/4
f 94/79/4 80/80/4 78/81/4
f 94/79/4 91/82/4 90/83/4
f 100/77/4 97/84/4 90/83/4
f 83/85/4 76/86/4 82/87/4
f 92/88/4 82/87/4 81/89/4
f 93/90/4 81/89/4 80/80/4
f 84/91/4 83/85/4 92/88/4
f 95/92/4 92/88/4 93/90/4
f 96/93/4 93/90/4 94/79/4
f 85/94/4 84/91/4 95/92/4
f 98/95/4 95/92/4 96/93/4
f 99/96/4 96/93/4 97/84/4
f 77/97/4 85/94/4 98/95/4
f 86/98/4 98/95/4 99/96/4
f 87/99/4 99/96/4 100/77/4
f 113/100/5 125/101/5 114/102/5
f 119/103/5 105/104/5 103/105/5
f 122/106/5 119/103/5 116/107/5
f 125/101/5 122/106/5 115/108/5
f 108/109/5 101/110/5 107/111/5
f 117/112/5 107/111/5 106/113/5
f 118/114/5 106/113/5 105/104/5
f 109/115/5 108/109/5 117/112/5
f 120/116/5 117/112/5 118/114/5
f 121/117/5 118/114/5 119/103/5
f 110/118/5 109/115/5 120/116/5
f 123/119/5 120/116/5 121/117/5
f 124/120/5 121/117/5 122/106/5
f 102/121/5 110/118/5 123/119/5
f 111/122/5 123/119/5 124/120/5
f 112/123/5 124/120/5 125/101/5
f 138/124/6 150/125/6 139/126/6
f 144/127/6 130/128/6 128/129/6
f 147/130/6 144/127/6 141/131/6
f 150/125/6 147/130/6 140/132/6
f 133/133/6 126/134/6 132/135/6
f 142/136/6 132/135/6 131/137/6
f 143/138/6 131/137/6 130/128/6
f 134/139/6 133/133/6 142/136/6
f 145/140/6 142/136/6 143/138/6
f 146/141/6 143/138/6 144/127/6
f 135/142/6 134/139/6 145/140/6
f 148/143/6 145/140/6 146/141/6
f 149/144/6 146/141/6 147/130/6
f 127/145/6 135/142/6 148/143/6
f 136/146/6 148/143/6 149/144/6
f 137/147/6 149/144/6 150/125/6
f 88/76/4 89/78/4 79/148/4
f 94/79/4 78/81/4 91/82/4
f 94/79/4 90/83/4 97/84/4
f 100/77/4 90/83/4 89/78/4
f 83/85/4 82/87/4 92/88/4
f 92/88/4 81/89/4 93/90/4
f 93/90/4 80/80/4 94/79/4
f 84/91/4 92/88/4 95/92/4
f 95/92/4 93/90/4 96/93/4
f 96/93/4 94/79/4 97/84/4
f 85/94/4 95/92/4 98/95/4
f 98/95/4 96/93/4 99/96/4
f 99/96/4 97/84/4 100/77/4
f 77/97/4 98/95/4 86/98/4
f 86/98/4 99/96/4 87/99/4
f 87/99/4 100/77/4 88/76/4
f 113/100/5 114/102/5 104/149/5
f 119/103/5 103/105/5 116/107/5
f 122/106/5 116/107/5 115/108/5
f 125/101/5 115/108/5 114/102/5
f 108/109/5 107/111/5 117/112/5
f 117/112/5 106/113/5 118/114/5
f 118/114/5 105/104/5 119/103/5
f 109/115/5 117/112/5 120/116/5
f 120/116/5 118/114/5 121/117/5
f 121/117/5 119/103/5 122/106/5
f 110/118/5 120/116/5 123/119/5
f 123/119/5 121/117/5 124/120/5
f 124/120/5 122/106/5 125/101/5
f 102/121/5 123/119/5 111/122/5
f 111/122/5 124/120/5 112/123/5
f 112/123/5 125/101/5 113/100/5
f 138/124/6 139/126/6 129/150/6
f 144/127/6 128/129/6 141/131/6
f 147/130/6 141/131/6 140/132/6
f 150/125/6 140/132/6 139/126/6
f 133/133/6 132/135/6 142/136/6
f 142/136/6 131/137/6 143/138/6
f 143/138/6 130/128/6 144/127/6
f 134/139/6 142/136/6 145/140/6
f 145/140/6 143/138/6 146/141/6
f 146/141/6 144/127/6 147/130/6
f 135/142/6 145/140/6 148/143/6
f 148/143/6 146/141/6 149/144/6
f 149/144/6 147/130/6 150/125/6
f 127/145/6 148/143/6 136/146/6
f 136/146/6 149/144/6 137/147/6
f 137/147/6 150/125/6 138/124/6
