# Blender v3.4.1 OBJ File: 'plants.blend'
# www.blender.org
o Leaves_Leaves_Plane.003
v -0.610005 -0.973848 -0.290551
v -0.603694 -0.445646 -0.181097
v -0.399094 -0.523225 -0.227281
v 0.117224 0.828643 0.191113
v -0.193679 0.441285 0.034230
v -0.071216 0.903291 0.219003
v -0.276225 -0.072603 0.008863
v -0.012975 0.378020 -0.030638
v -0.432654 -0.000502 -0.014428
v 0.555465 0.061688 0.303001
v 0.553094 0.617755 0.301794
v 0.648876 0.416590 0.495577
v 0.294594 0.111409 0.126001
v 0.263896 0.596363 0.252008
v 0.326844 -0.388935 0.274506
v -0.010604 -0.178047 -0.029430
v 0.182455 0.272576 0.068891
v 0.169346 -0.839558 0.106358
v 0.184826 -0.283491 0.070099
v -0.008233 -0.734114 -0.028223
v -0.183050 -1.100489 -0.073111
v -0.203664 -0.628670 -0.127752
v -0.440907 -1.048636 -0.106838
v -0.253951 -0.894871 -0.150231
v -0.432990 -0.394871 -0.055561
v -0.253951 -0.394871 -0.189566
v -0.253951 1.105129 -0.051052
v -0.399956 0.605129 -0.049756
v -0.426225 1.105129 0.059318
v -0.253951 0.105129 -0.034900
v -0.253951 0.605129 -0.189566
v -0.420346 0.105129 0.015336
v 0.476089 0.605129 -0.150230
v 0.232742 1.105129 -0.150230
v 0.476089 0.998920 -0.021019
v 0.172647 0.514407 -0.189566
v -0.010604 0.964395 -0.063352
v 0.476089 0.105129 -0.071871
v -0.010604 0.105129 -0.189566
v -0.010604 0.605129 -0.189566
v 0.476089 -0.394871 -0.150231
v 0.232742 0.105129 -0.189566
v 0.232742 -0.394871 -0.189566
v 0.232742 -0.801391 -0.150231
v -0.010604 -0.394871 -0.189566
v -0.010604 -0.860855 -0.063265
v -0.603694 -0.445646 -0.173216
v -0.610005 -0.973848 -0.282670
v -0.399094 -0.523225 -0.219401
v 0.117224 0.828643 0.198993
v -0.193679 0.441285 0.042111
v -0.012975 0.378020 -0.022758
v -0.276225 -0.072603 0.016743
v 0.553094 0.617755 0.309674
v 0.555465 0.061688 0.310882
v 0.648876 0.416590 0.503458
v 0.263896 0.596363 0.259888
v 0.294594 0.111409 0.133882
v 0.182455 0.272576 0.076771
v 0.326844 -0.388935 0.282386
v -0.010604 -0.178047 -0.021550
v 0.184826 -0.283491 0.077979
v 0.169346 -0.839558 0.114238
v -0.008233 -0.734114 -0.020343
v -0.203664 -0.628670 -0.119872
v -0.183050 -1.100489 -0.065230
v -0.078603 -1.290181 0.123694
v -0.440907 -1.048636 -0.098958
v -0.432990 -0.394871 -0.047681
v -0.253951 -0.894871 -0.142350
v -0.253951 -0.394871 -0.181686
v -0.253951 1.105129 -0.043172
v -0.399956 0.605129 -0.041876
v -0.253951 0.605129 -0.181686
v -0.253951 0.105129 -0.027020
v 0.232742 1.105129 -0.142350
v 0.476089 0.605129 -0.142350
v 0.476089 0.998920 -0.013139
v -0.010604 0.964395 -0.055471
v 0.172647 0.514407 -0.181686
v -0.010604 0.605129 -0.181686
v 0.476089 0.105129 -0.063991
v -0.010604 0.105129 -0.181686
v 0.232742 0.105129 -0.181686
v 0.476089 -0.394871 -0.142350
v 0.232742 -0.394871 -0.181686
v -0.010604 -0.394871 -0.181686
v 0.232742 -0.801391 -0.142350
v 0.476089 -0.894871 -0.021400
v -0.010604 -0.860855 -0.055384
v 0.767304 -0.422533 -0.534351
v 0.333558 -0.455365 -0.215285
v 0.319066 -0.283398 -0.357516
v -0.912345 0.134009 0.403132
v -0.517359 -0.145365 0.210115
v -0.906604 -0.031461 0.523327
v -0.043483 -0.144262 -0.006629
v -0.542662 -0.005127 0.066736
v -0.062835 -0.304085 0.058893
v -0.343030 0.696078 0.012297
v -0.834647 0.601479 0.254333
v -0.625298 0.805659 0.295287
v -0.357983 0.379376 -0.024186
v -0.735751 0.328582 0.302481
v 0.122445 0.556943 -0.129528
v -0.051046 0.089473 -0.175300
v -0.481910 0.228608 0.036826
v 0.518698 0.417807 -0.411955
v 0.009707 0.323208 -0.205210
v 0.440571 0.184072 -0.417336
v 0.808256 0.070950 -0.554512
v 0.379818 -0.049663 -0.387426
v 0.837157 -0.179333 -0.471807
v 0.337038 -0.455365 -0.208215
v 0.770785 -0.422533 -0.527281
v 0.322546 -0.283398 -0.350446
v -0.908864 0.134009 0.410202
v -0.513879 -0.145365 0.217185
v -0.539182 -0.005127 0.073806
v -0.040002 -0.144262 0.000441
v -0.831166 0.601479 0.261403
v -0.339549 0.696078 0.019366
v -0.621818 0.805659 0.302357
v -0.732270 0.328582 0.309551
v -0.354502 0.379376 -0.017117
v -0.478429 0.228608 0.043896
v 0.125926 0.556943 -0.122458
v -0.047565 0.089473 -0.168230
v 0.013188 0.323208 -0.198140
v 0.522179 0.417807 -0.404886
v 0.383299 -0.049663 -0.380356
v 0.444052 0.184072 -0.410266
v 0.811736 0.070949 -0.547443
v 1.006466 0.278672 -0.508500
v 0.840638 -0.179333 -0.464737
v -0.918244 -0.868404 -0.168575
v -0.078603 -1.290181 0.115814
v -0.497298 -0.894871 0.098345
v 0.476089 -0.894871 -0.029281
v -0.536693 -0.585228 0.723166
v 0.089611 -1.007005 0.095776
v -0.918244 -0.868404 -0.160695
v -0.071216 0.903291 0.226883
v -0.432654 -0.000502 -0.006547
v -0.497298 -0.894871 0.106226
v -0.426225 1.105129 0.067198
v -0.420346 0.105129 0.023216
v 0.816347 -0.656268 -0.281427
v 1.002985 0.278672 -0.515570
v 0.819828 -0.656268 -0.274357
v -0.903123 -0.031461 0.530397
v -0.059354 -0.304085 0.065963
vt 1.000000 0.750000
vt 0.750000 1.000000
vt 0.750000 0.750000
vt 0.000000 0.750000
vt 0.250000 1.000000
vt 0.000000 1.000000
vt 0.500000 0.750000
vt 0.250000 0.750000
vt 0.500000 1.000000
vt 0.250000 0.000000
vt 0.000000 0.250000
vt 0.000000 0.000000
vt 0.250000 0.250000
vt 0.000000 0.500000
vt 0.500000 0.000000
vt 0.500000 0.500000
vt 0.250000 0.500000
vt 0.750000 0.000000
vt 0.500000 0.250000
vt 0.750000 0.250000
vt 1.000000 0.250000
vt 0.750000 0.500000
vt 1.000000 0.500000
vt 1.000000 0.750000
vt 0.750000 1.000000
vt 0.750000 0.750000
vt 0.000000 0.750000
vt 0.250000 1.000000
vt 0.000000 1.000000
vt 0.500000 0.750000
vt 0.250000 0.750000
vt 0.500000 1.000000
vt 0.250000 0.000000
vt 0.000000 0.250000
vt 0.000000 0.000000
vt 0.250000 0.250000
vt 0.000000 0.500000
vt 0.500000 0.000000
vt 0.500000 0.500000
vt 0.250000 0.500000
vt 0.750000 0.000000
vt 0.500000 0.250000
vt 0.750000 0.250000
vt 1.000000 0.250000
vt 0.750000 0.500000
vt 1.000000 0.500000
vt 0.750000 1.000000
vt 1.000000 0.750000
vt 0.750000 0.750000
vt 0.000000 0.750000
vt 0.250000 1.000000
vt 0.250000 0.750000
vt 0.500000 0.750000
vt 0.000000 0.250000
vt 0.250000 0.000000
vt 0.000000 0.000000
vt 0.000000 0.500000
vt 0.250000 0.250000
vt 0.250000 0.500000
vt 0.500000 0.000000
vt 0.500000 0.500000
vt 0.500000 0.250000
vt 0.750000 0.000000
vt 0.750000 0.250000
vt 0.750000 0.500000
vt 1.000000 0.250000
vt 1.000000 0.000000
vt 1.000000 0.500000
vt 0.750000 1.000000
vt 1.000000 0.750000
vt 0.750000 0.750000
vt 0.000000 0.750000
vt 0.250000 1.000000
vt 0.250000 0.750000
vt 0.500000 0.750000
vt 0.000000 0.250000
vt 0.250000 0.000000
vt 0.000000 0.000000
vt 0.000000 0.500000
vt 0.250000 0.250000
vt 0.250000 0.500000
vt 0.500000 0.000000
vt 0.500000 0.500000
vt 0.500000 0.250000
vt 0.750000 0.000000
vt 0.750000 0.250000
vt 0.750000 0.500000
vt 1.000000 0.250000
vt 1.000000 0.000000
vt 1.000000 0.500000
vt 1.000000 0.750000
vt 0.750000 1.000000
vt 0.750000 0.750000
vt 0.000000 0.750000
vt 0.250000 1.000000
vt 0.000000 1.000000
vt 0.500000 0.750000
vt 0.250000 0.750000
vt 0.500000 1.000000
vt 0.250000 0.000000
vt 0.000000 0.250000
vt 0.000000 0.000000
vt 0.250000 0.250000
vt 0.000000 0.500000
vt 0.500000 0.000000
vt 0.500000 0.500000
vt 0.250000 0.500000
vt 0.750000 0.000000
vt 0.500000 0.250000
vt 0.750000 0.250000
vt 1.000000 0.250000
vt 0.750000 0.500000
vt 1.000000 0.500000
vt 0.750000 1.000000
vt 1.000000 0.750000
vt 0.750000 0.750000
vt 0.000000 0.750000
vt 0.250000 1.000000
vt 0.250000 0.750000
vt 0.500000 0.750000
vt 0.000000 0.250000
vt 0.250000 0.000000
vt 0.000000 0.000000
vt 0.000000 0.500000
vt 0.250000 0.250000
vt 0.250000 0.500000
vt 0.500000 0.000000
vt 0.500000 0.500000
vt 0.500000 0.250000
vt 0.750000 0.000000
vt 0.750000 0.500000
vt 0.750000 0.250000
vt 1.000000 0.250000
vt 1.000000 0.000000
vt 1.000000 0.500000
vt 1.000000 1.000000
vt 1.000000 0.000000
vt 1.000000 1.000000
vt 1.000000 0.000000
vt 1.000000 1.000000
vt 0.000000 1.000000
vt 0.500000 1.000000
vt 1.000000 1.000000
vt 0.000000 1.000000
vt 0.500000 1.000000
vt 1.000000 1.000000
vt 1.000000 0.000000
vt 1.000000 1.000000
vt 0.000000 1.000000
vt 0.500000 1.000000
vn 0.2135 0.0028 -0.9769
vn -0.0910 0.3126 -0.9455
vn 0.1752 0.1469 -0.9735
vn 0.2338 0.3375 -0.9118
vn -0.1681 0.2748 -0.9467
vn 0.0088 0.3693 -0.9293
vn 0.0446 0.2033 -0.9781
vn 0.1330 0.2199 -0.9664
vn 0.2090 0.1409 -0.9677
vn 0.6171 -0.0863 -0.7822
vn 0.5528 0.1208 -0.8245
vn 0.8976 0.0029 -0.4407
vn 0.5298 -0.0035 -0.8481
vn 0.4434 0.2446 -0.8623
vn 0.7481 -0.1144 -0.6536
vn 0.2820 0.0876 -0.9554
vn 0.5610 0.1494 -0.8142
vn 0.6153 -0.1489 -0.7741
vn 0.6302 -0.0527 -0.7746
vn 0.4974 -0.0778 -0.8640
vn 0.4190 -0.2127 -0.8827
vn 0.3914 -0.0835 -0.9164
vn 0.3904 -0.1809 -0.9027
vn -0.2293 -0.1071 -0.9674
vn -0.5953 0.0607 -0.8012
vn -0.3212 0.0086 -0.9470
vn -0.3314 0.2152 -0.9186
vn -0.6413 -0.0034 -0.7673
vn -0.5331 0.1535 -0.8320
vn -0.4524 0.0081 -0.8918
vn -0.3837 0.0595 -0.9215
vn -0.2890 0.0174 -0.9572
vn 0.2130 0.0067 -0.9770
vn 0.0544 0.1602 -0.9856
vn 0.5394 0.2625 -0.8001
vn 0.0801 0.0347 -0.9962
vn -0.1026 0.2221 -0.9696
vn 0.3831 0.0572 -0.9219
vn -0.2022 0.0000 -0.9793
vn 0.0527 0.1911 -0.9801
vn 0.2421 -0.0488 -0.9690
vn 0.2122 0.0435 -0.9763
vn 0.0798 -0.0479 -0.9957
vn 0.0676 -0.2035 -0.9767
vn -0.0243 -0.1044 -0.9942
vn 0.0227 -0.1898 -0.9816
vn 0.0910 -0.3126 0.9455
vn -0.2135 -0.0028 0.9769
vn -0.1752 -0.1469 0.9735
vn -0.2338 -0.3375 0.9118
vn 0.1681 -0.2748 0.9467
vn -0.1330 -0.2199 0.9664
vn -0.0446 -0.2033 0.9781
vn -0.5528 -0.1208 0.8245
vn -0.6171 0.0863 0.7822
vn -0.8976 -0.0029 0.4407
vn -0.4434 -0.2446 0.8623
vn -0.5298 0.0035 0.8481
vn -0.5610 -0.1494 0.8142
vn -0.7481 0.1144 0.6536
vn -0.2820 -0.0876 0.9554
vn -0.6302 0.0527 0.7746
vn -0.6153 0.1489 0.7741
vn -0.4974 0.0778 0.8640
vn -0.3914 0.0835 0.9164
vn -0.4190 0.2127 0.8827
vn -0.6197 0.3556 0.6997
vn -0.3904 0.1809 0.9027
vn 0.5953 -0.0607 0.8012
vn 0.2293 0.1071 0.9674
vn 0.3212 -0.0086 0.9470
vn 0.3314 -0.2152 0.9186
vn 0.6413 0.0034 0.7673
vn 0.3837 -0.0595 0.9215
vn 0.4524 -0.0081 0.8918
vn -0.0544 -0.1602 0.9856
vn -0.2130 -0.0067 0.9770
vn -0.5394 -0.2625 0.8001
vn 0.1026 -0.2221 0.9696
vn -0.0801 -0.0347 0.9962
vn -0.0527 -0.1912 0.9801
vn -0.3831 -0.0572 0.9219
vn 0.2022 -0.0000 0.9793
vn -0.2122 -0.0435 0.9763
vn -0.2421 0.0488 0.9690
vn -0.0798 0.0479 0.9957
vn 0.0243 0.1044 0.9942
vn -0.0676 0.2035 0.9767
vn -0.3656 0.2188 0.9047
vn -0.0227 0.1898 0.9816
vn -0.3922 -0.2500 -0.8852
vn -0.5548 -0.5549 -0.6199
vn -0.5059 -0.3061 -0.8065
vn -0.6739 -0.2584 -0.6921
vn -0.4961 -0.6169 -0.6110
vn -0.6329 -0.4693 -0.6158
vn -0.5138 -0.4322 -0.7410
vn -0.5541 -0.3520 -0.7543
vn -0.5099 -0.2727 -0.8159
vn -0.3841 0.2065 -0.8999
vn -0.5598 0.0969 -0.8230
vn -0.4450 0.5912 -0.6727
vn -0.4499 0.0866 -0.8889
vn -0.6453 -0.0367 -0.7631
vn -0.3609 0.3839 -0.8499
vn -0.4831 -0.1942 -0.8538
vn -0.5845 0.1038 -0.8047
vn -0.3255 0.2189 -0.9199
vn -0.4157 0.2159 -0.8835
vn -0.3786 0.0633 -0.9234
vn -0.2392 0.0083 -0.9709
vn -0.3553 -0.0524 -0.9333
vn -0.2643 -0.0310 -0.9639
vn 0.5548 0.5549 0.6199
vn 0.3922 0.2500 0.8852
vn 0.5059 0.3061 0.8065
vn 0.6739 0.2584 0.6921
vn 0.4961 0.6169 0.6110
vn 0.5541 0.3520 0.7543
vn 0.5138 0.4322 0.7410
vn 0.5598 -0.0969 0.8230
vn 0.3841 -0.2065 0.8999
vn 0.4450 -0.5911 0.6727
vn 0.6453 0.0367 0.7631
vn 0.4499 -0.0866 0.8889
vn 0.5845 -0.1038 0.8047
vn 0.3609 -0.3839 0.8499
vn 0.4831 0.1942 0.8538
vn 0.4157 -0.2159 0.8835
vn 0.3255 -0.2189 0.9199
vn 0.3553 0.0524 0.9333
vn 0.3786 -0.0633 0.9234
vn 0.2392 -0.0083 0.9709
vn 0.1197 -0.2902 0.9494
vn 0.2643 0.0310 0.9639
vn -0.3018 0.1969 -0.9328
vn 0.6197 -0.3556 -0.6997
vn -0.7092 -0.1225 -0.6943
vn 0.3656 -0.2188 -0.9047
vn 0.3018 -0.1969 0.9328
vn -0.0088 -0.3693 0.9293
vn -0.2090 -0.1409 0.9677
vn 0.7092 0.1225 0.6943
vn 0.5331 -0.1535 0.8320
vn 0.2890 -0.0174 0.9572
vn -0.3782 -0.7153 -0.5877
vn -0.1197 0.2902 -0.9494
vn 0.3782 0.7153 0.5877
vn 0.6329 0.4693 0.6158
vn 0.5099 0.2727 0.8159
s 1
f 1/1/1 2/2/2 3/3/3
f 4/4/4 5/5/5 6/6/6
f 7/7/7 5/5/5 8/8/8
f 7/7/7 2/2/2 9/9/9
f 10/10/10 11/11/11 12/12/12
f 13/13/13 14/14/14 11/11/11
f 14/14/14 8/8/8 4/4/4
f 15/15/15 13/13/13 10/10/10
f 13/13/13 16/16/16 17/17/17
f 16/16/16 8/8/8 17/17/17
f 18/18/18 19/19/19 15/15/15
f 20/20/20 16/16/16 19/19/19
f 16/16/16 3/3/3 7/7/7
f 18/18/18 21/21/21 20/20/20
f 21/21/21 22/22/22 20/20/20
f 23/23/23 3/3/3 22/22/22
f 24/24/24 25/25/25 26/26/26
f 27/27/27 28/28/28 29/29/29
f 30/30/30 28/28/28 31/31/31
f 30/30/30 25/25/25 32/32/32
f 33/33/33 34/34/34 35/35/35
f 36/36/36 37/37/37 34/34/34
f 37/37/37 31/31/31 27/27/27
f 38/38/38 36/36/36 33/33/33
f 36/36/36 39/39/39 40/40/40
f 39/39/39 31/31/31 40/40/40
f 41/41/41 42/42/42 38/38/38
f 43/43/43 39/39/39 42/42/42
f 39/39/39 26/26/26 30/30/30
f 41/41/41 44/44/44 43/43/43
f 44/44/44 45/45/45 43/43/43
f 46/46/46 26/26/26 45/45/45
f 47/47/47 48/48/48 49/49/49
f 50/50/50 51/51/51 52/52/52
f 51/51/51 53/53/53 52/52/52
f 53/53/53 47/47/47 49/49/49
f 54/54/54 55/55/55 56/56/56
f 57/57/57 58/58/58 54/54/54
f 57/57/57 52/52/52 59/59/59
f 58/58/58 60/60/60 55/55/55
f 58/58/58 61/61/61 62/62/62
f 52/52/52 61/61/61 59/59/59
f 62/62/62 63/63/63 60/60/60
f 61/61/61 64/64/64 62/62/62
f 61/61/61 49/49/49 65/65/65
f 63/63/63 66/66/66 67/67/67
f 65/65/65 66/66/66 64/64/64
f 49/49/49 68/68/68 65/65/65
f 69/69/69 70/70/70 71/71/71
f 72/72/72 73/73/73 74/74/74
f 73/73/73 75/75/75 74/74/74
f 75/75/75 69/69/69 71/71/71
f 76/76/76 77/77/77 78/78/78
f 79/79/79 80/80/80 76/76/76
f 79/79/79 74/74/74 81/81/81
f 80/80/80 82/82/82 77/77/77
f 80/80/80 83/83/83 84/84/84
f 74/74/74 83/83/83 81/81/81
f 84/84/84 85/85/85 82/82/82
f 83/83/83 86/86/86 84/84/84
f 83/83/83 71/71/71 87/87/87
f 85/85/85 88/88/88 89/89/89
f 87/87/87 88/88/88 86/86/86
f 71/71/71 90/90/90 87/87/87
f 91/91/91 92/92/92 93/93/93
f 94/94/94 95/95/95 96/96/96
f 97/97/97 95/95/95 98/98/98
f 97/97/97 92/92/92 99/99/99
f 100/100/100 101/101/101 102/102/102
f 103/103/103 104/104/104 101/101/101
f 104/104/104 98/98/98 94/94/94
f 105/105/105 103/103/103 100/100/100
f 103/103/103 106/106/106 107/107/107
f 106/106/106 98/98/98 107/107/107
f 108/108/108 109/109/109 105/105/105
f 110/110/110 106/106/106 109/109/109
f 106/106/106 93/93/93 97/97/97
f 108/108/108 111/111/111 110/110/110
f 111/111/111 112/112/112 110/110/110
f 113/113/113 93/93/93 112/112/112
f 114/114/114 115/115/115 116/116/116
f 117/117/117 118/118/118 119/119/119
f 118/118/118 120/120/120 119/119/119
f 120/120/120 114/114/114 116/116/116
f 121/121/121 122/122/122 123/123/123
f 124/124/124 125/125/125 121/121/121
f 124/124/124 119/119/119 126/126/126
f 125/125/125 127/127/127 122/122/122
f 125/125/125 128/128/128 129/129/129
f 119/119/119 128/128/128 126/126/126
f 129/129/129 130/130/130 127/127/127
f 129/129/129 131/131/131 132/132/132
f 128/128/128 116/116/116 131/131/131
f 130/130/130 133/133/133 134/134/134
f 131/131/131 133/133/133 132/132/132
f 116/116/116 135/135/135 131/131/131
f 1/1/1 136/136/136 2/2/2
f 4/4/4 8/8/8 5/5/5
f 7/7/7 9/9/9 5/5/5
f 7/7/7 3/3/3 2/2/2
f 10/10/10 13/13/13 11/11/11
f 13/13/13 17/17/17 14/14/14
f 14/14/14 17/17/17 8/8/8
f 15/15/15 19/19/19 13/13/13
f 13/13/13 19/19/19 16/16/16
f 16/16/16 7/7/7 8/8/8
f 18/18/18 20/20/20 19/19/19
f 20/20/20 22/22/22 16/16/16
f 16/16/16 22/22/22 3/3/3
f 18/18/18 137/137/137 21/21/21
f 21/21/21 23/23/23 22/22/22
f 23/23/23 1/1/1 3/3/3
f 24/24/24 138/138/138 25/25/25
f 27/27/27 31/31/31 28/28/28
f 30/30/30 32/32/32 28/28/28
f 30/30/30 26/26/26 25/25/25
f 33/33/33 36/36/36 34/34/34
f 36/36/36 40/40/40 37/37/37
f 37/37/37 40/40/40 31/31/31
f 38/38/38 42/42/42 36/36/36
f 36/36/36 42/42/42 39/39/39
f 39/39/39 30/30/30 31/31/31
f 41/41/41 43/43/43 42/42/42
f 43/43/43 45/45/45 39/39/39
f 39/39/39 45/45/45 26/26/26
f 41/41/41 139/139/139 44/44/44
f 44/44/44 46/46/46 45/45/45
f 46/46/46 24/24/24 26/26/26
f 47/47/47 142/140/140 48/48/48
f 50/50/50 143/141/141 51/51/51
f 51/51/51 144/142/142 53/53/53
f 53/53/53 144/142/142 47/47/47
f 54/54/54 58/58/58 55/55/55
f 57/57/57 59/59/59 58/58/58
f 57/57/57 50/50/50 52/52/52
f 58/58/58 62/62/62 60/60/60
f 58/58/58 59/59/59 61/61/61
f 52/52/52 53/53/53 61/61/61
f 62/62/62 64/64/64 63/63/63
f 61/61/61 65/65/65 64/64/64
f 61/61/61 53/53/53 49/49/49
f 63/63/63 64/64/64 66/66/66
f 65/65/65 68/68/68 66/66/66
f 49/49/49 48/48/48 68/68/68
f 69/69/69 145/143/143 70/70/70
f 72/72/72 146/144/144 73/73/73
f 73/73/73 147/145/145 75/75/75
f 75/75/75 147/145/145 69/69/69
f 76/76/76 80/80/80 77/77/77
f 79/79/79 81/81/81 80/80/80
f 79/79/79 72/72/72 74/74/74
f 80/80/80 84/84/84 82/82/82
f 80/80/80 81/81/81 83/83/83
f 74/74/74 75/75/75 83/83/83
f 84/84/84 86/86/86 85/85/85
f 83/83/83 87/87/87 86/86/86
f 83/83/83 75/75/75 71/71/71
f 85/85/85 86/86/86 88/88/88
f 87/87/87 90/90/90 88/88/88
f 71/71/71 70/70/70 90/90/90
f 91/91/91 148/146/146 92/92/92
f 94/94/94 98/98/98 95/95/95
f 97/97/97 99/99/99 95/95/95
f 97/97/97 93/93/93 92/92/92
f 100/100/100 103/103/103 101/101/101
f 103/103/103 107/107/107 104/104/104
f 104/104/104 107/107/107 98/98/98
f 105/105/105 109/109/109 103/103/103
f 103/103/103 109/109/109 106/106/106
f 106/106/106 97/97/97 98/98/98
f 108/108/108 110/110/110 109/109/109
f 110/110/110 112/112/112 106/106/106
f 106/106/106 112/112/112 93/93/93
f 108/108/108 149/147/147 111/111/111
f 111/111/111 113/113/113 112/112/112
f 113/113/113 91/91/91 93/93/93
f 114/114/114 150/148/148 115/115/115
f 117/117/117 151/149/149 118/118/118
f 118/118/118 152/150/150 120/120/120
f 120/120/120 152/150/150 114/114/114
f 121/121/121 125/125/125 122/122/122
f 124/124/124 126/126/126 125/125/125
f 124/124/124 117/117/117 119/119/119
f 125/125/125 129/129/129 127/127/127
f 125/125/125 126/126/126 128/128/128
f 119/119/119 120/120/120 128/128/128
f 129/129/129 132/132/132 130/130/130
f 129/129/129 128/128/128 131/131/131
f 128/128/128 120/120/120 116/116/116
f 130/130/130 132/132/132 133/133/133
f 131/131/131 135/135/135 133/133/133
f 116/116/116 115/115/115 135/135/135
l 140 141
