# Blender v3.4.1 OBJ File: 'plants.blend'
# www.blender.org
o Shrub_LoD_Plane.001
v -0.409101 0.305685 -0.819467
v -0.821899 0.317559 0.408894
v 0.817920 0.286666 -0.402467
v 0.012311 0.614045 -0.077561
v 0.400970 0.308944 0.814189
v -1.038305 -0.248735 1.025165
v 1.038260 -0.189111 1.029229
v -0.963806 -0.270652 -0.997331
v -0.123248 0.283056 0.021247
v 1.021672 -0.202832 -1.022357
v -1.213282 0.018900 -0.002333
v 0.010714 0.068479 1.215587
v 0.014586 0.000676 -1.153167
v -0.085224 0.461093 -0.059595
v 1.201815 0.057070 -0.005745
vt 0.457718 0.477699
vt 0.994558 0.989460
vt 0.000109 0.999701
vt 0.000303 -0.004071
vt 1.005448 0.002932
vt 0.471043 0.514172
vt 0.994558 0.989460
vt 0.000289 0.984160
vt 1.005448 0.002932
vt 0.000299 0.000000
vt 0.457718 0.477699
vt 0.994558 0.989460
vt 0.000289 0.984160
vt 1.005448 0.002932
vt 0.000299 0.000000
vn 0.4168 0.9002 0.1263
vn 0.1694 0.8722 -0.4588
vn -0.4053 0.9026 -0.1449
vn -0.0361 0.8902 -0.4541
vn -0.0265 0.8932 0.4489
vn 0.2940 0.8902 -0.3480
vn -0.3349 0.8932 0.3002
vn -0.1148 0.9235 0.3660
vn -0.5255 0.8503 -0.0286
vn 0.3835 0.9235 -0.0093
vn -0.3531 0.8503 -0.3902
vn 0.2789 0.9235 0.2634
s 1
f 4/1/1 5/2/1 3/3/1
f 1/4/2 4/1/2 3/3/2
f 2/5/3 4/1/3 1/4/3
f 9/6/4 10/7/4 8/8/4
f 7/9/5 9/6/5 6/10/5
f 14/11/6 15/12/6 13/13/6
f 12/14/7 14/11/7 11/15/7
f 4/1/8 2/5/8 5/2/8
f 6/10/9 9/6/9 8/8/9
f 9/6/10 7/9/10 10/7/10
f 11/15/11 14/11/11 13/13/11
f 14/11/12 12/14/12 15/12/12
