# Blender v3.4.1 OBJ File: 'plants.blend'
# www.blender.org
o Small_Flower_Plane.018
v -0.630484 -1.000000 -0.000000
v 0.630484 -1.000000 -0.000000
v -0.571163 0.945485 -0.205608
v 0.605643 0.945485 -0.205608
v -0.571163 0.387848 -0.205608
v -0.630484 -0.333333 -0.000000
v -0.210161 -1.000000 -0.000000
v 0.210161 -1.000000 -0.000000
v 0.630484 -0.333333 -0.000000
v 0.605643 0.387848 -0.205608
v 0.210161 0.937756 0.000000
v -0.210161 1.000000 0.000000
v -0.210161 -0.333333 -0.000000
v -0.210161 0.333333 0.000000
v 0.210161 -0.333333 -0.000000
v 0.210161 0.333333 0.000000
v -0.630484 -1.000000 -0.000000
v 0.630484 -1.000000 -0.000000
v -0.571163 0.945485 -0.205608
v 0.605643 0.945485 -0.205608
v -0.571163 0.387848 -0.205608
v -0.630484 -0.333333 -0.000000
v -0.210161 -1.000000 -0.000000
v 0.210161 -1.000000 -0.000000
v 0.630484 -0.333333 -0.000000
v 0.605643 0.387848 -0.205608
v 0.210161 0.937756 0.000000
v -0.210161 1.000000 0.000000
v -0.210161 -0.333333 -0.000000
v -0.210161 0.333333 0.000000
v 0.210161 -0.333333 -0.000000
v 0.210161 0.333333 0.000000
vt 0.630484 0.666667
vt 0.420323 1.000000
vt 0.420323 0.666667
vt 0.210161 0.666667
vt 0.000000 1.000000
vt 0.000000 0.666667
vt 0.210161 1.000000
vt 0.210162 0.000000
vt 0.000000 0.333333
vt 0.000000 0.000000
vt 0.420323 0.000000
vt 0.210161 0.333333
vt 0.420323 0.333333
vt 0.630484 0.000000
vt 0.630484 0.333333
vt 0.420323 1.000000
vt 0.630484 0.666667
vt 0.420323 0.666667
vt 0.000000 0.666667
vt 0.210161 1.000000
vt 0.210161 0.666667
vt 0.000000 0.333333
vt 0.210162 0.000000
vt 0.000000 0.000000
vt 0.210161 0.333333
vt 0.420323 0.000000
vt 0.420323 0.333333
vt 0.630484 0.000000
vt 0.630484 0.333333
vt 0.630484 1.000000
vt 0.630484 1.000000
vt 0.000000 1.000000
vn 0.4452 0.1178 0.8876
vn 0.2281 -0.0000 0.9736
vn 0.1896 0.0510 0.9805
vn -0.2041 0.0553 0.9774
vn -0.4949 -0.0000 0.8689
vn -0.4765 0.1263 0.8701
vn -0.2575 -0.0000 0.9663
vn 0.0000 -0.0000 1.0000
vn -0.0795 0.0501 0.9956
vn 0.0791 0.0499 0.9956
vn -0.2281 0.0000 -0.9736
vn -0.4452 -0.1178 -0.8876
vn -0.1896 -0.0510 -0.9805
vn 0.4765 -0.1263 -0.8701
vn 0.2575 0.0000 -0.9663
vn 0.2041 -0.0553 -0.9774
vn 0.0795 -0.0501 -0.9956
vn 0.0000 0.0000 -1.0000
vn -0.0791 -0.0499 -0.9956
vn 0.4613 0.0000 0.8873
vn -0.4613 0.0000 -0.8873
vn 0.4949 0.0000 -0.8689
s 1
f 10/1/1 11/2/2 16/3/3
f 14/4/4 3/5/5 5/6/6
f 14/4/4 11/2/2 12/7/7
f 7/8/8 6/9/9 1/10/8
f 6/9/9 14/4/4 5/6/6
f 8/11/8 13/12/8 7/8/8
f 15/13/8 14/4/4 13/12/8
f 2/14/8 15/13/8 8/11/8
f 9/15/10 16/3/3 15/13/8
f 27/16/11 26/17/12 32/18/13
f 21/19/14 28/20/15 30/21/16
f 30/21/16 27/16/11 32/18/13
f 22/22/17 23/23/18 17/24/18
f 22/22/17 30/21/16 29/25/18
f 29/25/18 24/26/18 23/23/18
f 30/21/16 31/27/18 29/25/18
f 31/27/18 18/28/18 24/26/18
f 32/18/13 25/29/19 31/27/18
f 10/1/1 4/30/20 11/2/2
f 14/4/4 12/7/7 3/5/5
f 14/4/4 16/3/3 11/2/2
f 7/8/8 13/12/8 6/9/9
f 6/9/9 13/12/8 14/4/4
f 8/11/8 15/13/8 13/12/8
f 15/13/8 16/3/3 14/4/4
f 2/14/8 9/15/10 15/13/8
f 9/15/10 10/1/1 16/3/3
f 27/16/11 20/31/21 26/17/12
f 21/19/14 19/32/22 28/20/15
f 30/21/16 28/20/15 27/16/11
f 22/22/17 29/25/18 23/23/18
f 22/22/17 21/19/14 30/21/16
f 29/25/18 31/27/18 24/26/18
f 30/21/16 32/18/13 31/27/18
f 31/27/18 25/29/19 18/28/18
f 32/18/13 26/17/12 25/29/19
