# Blender v3.4.1 OBJ File: 'plants.blend'
# www.blender.org
o Cube
v -1.000000 -0.222129 0.189162
v -0.999694 0.121318 0.179082
v -1.071766 0.222129 0.249966
v -1.000000 -0.222129 -0.189162
v -0.999694 0.121318 -0.179082
v -1.071766 0.222129 -0.249966
v 1.000000 -0.222129 0.189162
v 0.999694 0.121318 0.179082
v 1.071766 0.222129 0.249966
v 1.000000 -0.222129 -0.189162
v 0.999694 0.121318 -0.179082
v 1.071766 0.222129 -0.249966
v -1.016890 0.222129 0.192880
v -1.016890 0.222129 -0.192880
v 1.016890 0.222129 0.192880
v 1.016890 0.222129 -0.192880
vt 0.314292 0.047131
vt 0.607528 0.387509
vt 0.314292 0.340378
vt 0.586483 0.387509
vt 0.293236 0.691278
vt 0.293236 0.398031
vt 0.000000 0.434640
vt 0.293236 0.775017
vt 0.000000 0.727886
vt 0.879729 0.387509
vt 0.586483 0.691278
vt 0.586483 0.398031
vt 0.900774 0.000000
vt 0.607528 0.293247
vt 0.607528 0.000000
vt 0.000000 0.387509
vt 0.008046 0.044249
vt 0.008046 0.343260
vt 0.314292 0.000000
vt 0.314292 0.387509
vt 0.306246 0.044249
vt 0.900774 0.010695
vt 0.967320 0.299011
vt 0.900774 0.288316
vt 0.637400 0.997479
vt 0.570857 0.701800
vt 0.637400 0.704322
vt 0.879729 0.398204
vt 0.946275 0.686519
vt 0.879729 0.675824
vt 0.946273 0.982198
vt 0.879729 0.686519
vt 0.946273 0.689041
vt 0.570857 0.701800
vt 0.293236 0.994957
vt 0.293236 0.701800
vt 0.607528 0.000000
vt 0.586483 0.701800
vt 0.293236 0.387509
vt 0.879729 0.701800
vt 0.900774 0.293247
vt 0.000000 0.000000
vt 0.306246 0.343260
vt 0.967320 0.000000
vt 0.570857 1.000000
vt 0.946275 0.387509
vt 0.879729 0.984719
vt 0.570857 0.994957
vn -0.9872 -0.1595 0.0000
vn 0.0000 -0.1356 -0.9908
vn 0.9872 -0.1595 0.0000
vn 0.0000 -0.1356 0.9908
vn 0.0000 -1.0000 0.0000
vn 0.0000 1.0000 0.0000
vn 0.9858 0.1682 0.0000
vn 0.0000 0.1356 0.9908
vn -0.9858 0.1682 0.0000
vn 0.0000 0.1356 -0.9908
s off
f 1/1/1 6/2/1 4/3/1
f 6/4/2 10/5/2 4/6/2
f 10/7/3 9/8/3 7/9/3
f 9/10/4 1/11/4 7/12/4
f 10/13/5 1/14/5 4/15/5
f 9/16/6 16/17/6 15/18/6
f 6/19/6 3/20/6 14/21/6
f 5/22/7 13/23/7 2/24/7
f 11/25/8 14/26/8 5/27/8
f 8/28/9 16/29/9 11/30/9
f 2/31/10 15/32/10 8/33/10
f 2/34/6 11/35/6 5/36/6
f 1/1/1 3/37/1 6/2/1
f 6/4/2 12/38/2 10/5/2
f 10/7/3 12/39/3 9/8/3
f 9/10/4 3/40/4 1/11/4
f 10/13/5 7/41/5 1/14/5
f 9/16/6 12/42/6 16/17/6
f 14/21/6 16/17/6 12/42/6
f 3/20/6 9/16/6 15/18/6
f 3/20/6 15/18/6 13/43/6
f 14/21/6 12/42/6 6/19/6
f 3/20/6 13/43/6 14/21/6
f 5/22/7 14/44/7 13/23/7
f 11/25/8 16/45/8 14/26/8
f 8/28/9 15/46/9 16/29/9
f 2/31/10 13/47/10 15/32/10
f 2/34/6 8/48/6 11/35/6
