# Blender v3.4.1 OBJ File: 'ac-unit.blend'
# www.blender.org
o Cube
v 0.365968 0.413848 0.102634
v 1.000000 0.493021 0.503176
v 0.927959 0.565062 0.503176
v 0.978900 0.543962 0.503176
v 0.159043 0.358403 0.102634
v 0.844395 -0.450574 -0.389991
v 0.927959 0.565062 -0.503176
v 0.007564 0.206924 0.102634
v 0.844395 0.450574 -0.389991
v -0.047881 0.000000 0.102634
v 1.000000 0.493021 -0.503176
v 0.978900 0.543962 -0.503176
v -0.106504 -0.450574 -0.389991
v 0.007564 -0.206924 0.102634
v -0.914171 0.565062 0.503176
v 0.159043 -0.358403 0.102634
v -0.106504 0.450574 -0.389991
v -1.000000 0.479234 0.503176
v -0.974861 0.539924 0.503176
v 0.365968 -0.413848 0.102634
v -1.000000 0.479234 -0.503176
v -0.914171 0.565062 -0.503176
v 0.572892 -0.358403 0.102634
v -0.974861 0.539924 -0.503176
v 0.942857 -0.565062 0.503176
v 0.724371 -0.206924 0.102634
v 1.000000 -0.507920 0.503176
v 0.983263 -0.548326 0.503176
v 0.779816 0.000000 0.102634
v 1.000000 -0.507920 -0.503176
v 0.942857 -0.565062 -0.503176
v 0.724371 0.206924 0.102634
v 0.983263 -0.548326 -0.503176
v 0.572892 0.358403 0.102634
v -1.000000 -0.501051 0.503176
v -0.935988 -0.565062 0.503176
v -0.981251 -0.546314 0.503176
v -0.935988 -0.565062 -0.503176
v -1.000000 -0.501051 -0.503176
v -0.981251 -0.546314 -0.503176
v 1.000000 0.563250 -0.521536
v 1.000000 0.638048 -0.521536
v 1.000000 0.563250 0.521536
v 1.000000 0.638048 0.521536
v -1.000000 0.563250 -0.521536
v -1.000000 0.638048 -0.521536
v -1.000000 0.563250 0.521536
v -1.000000 0.638048 0.521536
v -0.106504 -0.450574 -0.503176
v 0.844395 -0.450574 -0.503176
v 0.844395 0.450574 -0.503176
v -0.106504 0.450574 -0.503176
v 0.572892 -0.358403 -0.389991
v 0.159043 -0.358403 -0.389991
v 0.097721 -0.297081 -0.389991
v 0.365968 -0.413848 -0.389991
v -0.047881 0.000000 -0.389991
v 0.007564 -0.206924 -0.389991
v 0.068887 0.268247 -0.389991
v 0.007564 0.206924 -0.389991
v 0.779816 0.000000 -0.389991
v 0.724371 -0.206924 -0.389991
v 0.724371 0.206924 -0.389991
v 0.572892 0.358403 -0.389991
v 0.159043 0.358403 -0.389991
v 0.365968 0.413848 -0.389991
vt 0.229007 0.449039
vt 0.449953 0.861541
vt 0.229007 0.861541
vt 0.670898 0.856867
vt 0.449953 0.452426
vt 0.670898 0.452426
vt 0.480423 0.439101
vt 0.260665 0.439101
vt 0.273256 0.404938
vt 0.477396 0.000000
vt 0.496240 0.018844
vt 0.471104 0.196168
vt 0.449953 0.868051
vt 0.449953 0.856867
vt 0.670898 0.914316
vt 0.891844 0.902524
vt 0.891844 0.914316
vt 0.248120 0.015817
vt 0.000000 0.012546
vt 0.232303 0.000000
vt 0.670898 0.439101
vt 0.670898 0.677586
vt 0.891844 0.664261
vt 0.891844 0.677586
vt 0.229007 0.870412
vt 0.891844 0.677586
vt 0.670898 0.685735
vt 0.670898 0.677586
vt 0.891844 0.685735
vt 0.449953 0.439101
vt 0.449953 0.449039
vt 0.891844 0.439101
vt 0.670898 0.449039
vt 0.670898 0.439101
vt 0.891844 0.449039
vt 0.955939 0.424183
vt 0.972139 0.195175
vt 0.972139 0.424183
vt 0.923095 0.439101
vt 0.939517 0.000000
vt 0.939517 0.439101
vt 0.900776 0.437778
vt 0.917198 0.208770
vt 0.917198 0.437778
vt 0.939517 0.439101
vt 0.955939 0.000000
vt 0.955939 0.439101
vt 0.725247 0.439101
vt 0.496240 0.000000
vt 0.725247 0.000000
vt 0.229007 0.878203
vt 0.000000 0.439101
vt 0.229007 0.439101
vt 0.966394 0.794325
vt 0.941544 0.596477
vt 0.966394 0.596477
vt 0.725247 0.000000
vt 0.923095 0.000000
vt 0.824171 0.014178
vt 0.923095 0.208770
vt 0.824171 0.195900
vt 0.869601 0.183727
vt 0.955939 0.000000
vt 0.980789 0.195175
vt 0.955939 0.195175
vt 0.916694 0.596477
vt 0.891844 0.805247
vt 0.891844 0.596477
vt 0.941544 0.596477
vt 0.916694 0.805247
vt 0.916694 0.596477
vt 0.789495 0.208770
vt 0.900776 0.320052
vt 0.748763 0.360783
vt 0.248120 0.426556
vt 0.471104 0.404938
vt 0.251794 0.435427
vt 0.491607 0.434469
vt 0.273256 0.196168
vt 0.248120 0.014054
vt 0.252236 0.004116
vt 0.262174 0.000000
vt 0.490720 0.005519
vt 0.496240 0.423285
vt 0.670898 0.868051
vt 0.670898 0.902524
vt 0.003675 0.003675
vt 0.012546 0.000000
vt 0.243487 0.004633
vt 0.248120 0.420258
vt 0.242601 0.433582
vt 0.229276 0.439101
vt 0.000000 0.425048
vt 0.014054 0.439101
vt 0.004116 0.434985
vt 0.449953 0.439101
vt 0.670898 0.664261
vt 0.449953 0.870412
vt 0.229007 0.439101
vt 0.955939 0.195175
vt 0.923095 0.000000
vt 0.900776 0.208770
vt 0.939517 0.000000
vt 0.496240 0.439101
vt 0.000000 0.878203
vt 0.941544 0.794325
vt 0.745483 0.150469
vt 0.765277 0.170263
vt 0.725247 0.208770
vt 0.889395 0.163933
vt 0.902858 0.150469
vt 0.915032 0.105039
vt 0.733310 0.105039
vt 0.902858 0.059609
vt 0.745483 0.059609
vt 0.778740 0.026351
vt 0.869601 0.026351
vt 0.778740 0.183727
vt 0.980789 0.000000
vt 0.916694 0.805247
vt 0.941544 0.805247
vt 0.725247 0.320052
vt 0.725247 0.273019
vt 0.748763 0.232287
vt 0.836528 0.208770
vt 0.877260 0.232287
vt 0.900776 0.273019
vt 0.877260 0.360783
vt 0.836528 0.384300
vt 0.789495 0.384300
vt 1.000000 0.517789
vt 0.891844 0.563219
vt 0.891844 0.517789
vt 1.000000 0.596477
vt 0.891844 0.596477
vt 0.891844 0.583013
vt 0.449953 0.995940
vt 0.558109 0.953118
vt 0.558109 0.995940
vt 0.449953 0.953118
vt 0.558109 0.906307
vt 0.449953 0.868051
vt 0.558109 0.868051
vt 0.558109 0.883538
vt 0.229007 0.870412
vt 0.274438 0.978568
vt 0.229007 0.978568
vt 0.274438 0.870412
vt 0.319868 0.978568
vt 0.666265 0.868051
vt 0.558109 0.901308
vt 0.558109 0.868051
vt 0.666265 0.901308
vt 0.558109 0.946739
vt 0.666265 0.946739
vt 0.558109 0.992169
vt 1.000000 0.439101
vt 0.891844 0.472359
vt 0.891844 0.439101
vt 1.000000 0.472359
vt 1.000000 0.563219
vt 0.449953 0.906307
vt 0.319868 0.870412
vt 0.666265 0.992169
vn 0.0000 -1.0000 0.0000
vn 0.0000 1.0000 0.0000
vn 0.0000 0.0000 -1.0000
vn 0.3827 0.9239 0.0000
vn 0.9239 0.3827 0.0000
vn 0.0000 0.0000 1.0000
vn -0.3827 0.9239 0.0000
vn -0.9239 0.3827 0.0000
vn 0.3827 -0.9239 0.0000
vn 0.9239 -0.3827 0.0000
vn 1.0000 0.0000 0.0000
vn -0.3827 -0.9239 0.0000
vn -0.9239 -0.3827 0.0000
vn -1.0000 0.0000 0.0000
vn -0.0000 -0.7572 -0.6532
vn 0.3189 -0.5523 -0.7703
vn 0.0000 -0.6377 -0.7703
vn 0.6557 -0.3786 -0.6532
vn 0.5523 -0.3189 -0.7703
vn 0.5000 -0.5000 -0.7071
vn 0.6377 0.0000 -0.7703
vn 0.7572 -0.0000 -0.6532
vn 0.5523 0.3189 -0.7703
vn 0.3786 0.6557 -0.6532
vn 0.3189 0.5523 -0.7703
vn 0.5000 0.5000 -0.7071
vn -0.0000 0.6377 -0.7703
vn 0.0000 0.7572 -0.6532
vn -0.3189 0.5523 -0.7703
vn -0.3786 0.6557 -0.6532
vn -0.5523 0.3189 -0.7703
vn -0.6557 0.3786 -0.6532
vn -0.6377 0.0000 -0.7703
vn -0.7572 -0.0000 -0.6532
vn -0.5523 -0.3189 -0.7703
vn -0.6557 -0.3786 -0.6532
vn -0.3189 -0.5523 -0.7703
vn -0.3786 -0.6557 -0.6532
vn 0.3786 -0.6557 -0.6532
vn 0.6557 0.3786 -0.6532
s off
f 36/1/1 31/2/1 25/3/1
f 3/4/2 22/5/2 15/6/2
f 11/7/3 30/8/3 50/9/3
f 21/10/3 22/11/3 52/12/3
f 3/4/4 12/13/4 7/14/4
f 4/15/5 11/16/5 12/17/5
f 3/18/6 25/19/6 2/20/6
f 22/5/7 19/21/7 15/6/7
f 24/22/8 18/23/8 19/24/8
f 31/2/9 28/25/9 25/3/9
f 33/26/10 27/27/10 28/28/10
f 11/16/11 27/27/11 30/29/11
f 36/1/12 40/30/12 38/31/12
f 37/32/13 39/33/13 40/34/13
f 18/23/14 39/33/14 35/35/14
f 42/36/11 43/37/11 41/38/11
f 44/39/6 47/40/6 43/41/6
f 48/42/14 45/43/14 47/44/14
f 46/45/3 41/46/3 45/47/3
f 47/48/1 41/49/1 43/50/1
f 44/51/2 46/52/2 48/53/2
f 9/54/14 50/55/14 6/56/14
f 9/57/3 6/58/3 61/59/3
f 13/60/3 57/61/3 58/62/3
f 13/63/11 52/64/11 17/65/11
f 13/66/2 50/67/2 49/68/2
f 9/69/1 52/70/1 51/71/1
f 8/72/3 32/73/3 20/74/3
f 36/1/1 38/31/1 31/2/1
f 3/4/2 7/14/2 22/5/2
f 31/75/3 50/9/3 30/8/3
f 50/9/3 51/76/3 11/7/3
f 31/75/3 30/8/3 33/77/3
f 51/76/3 12/78/3 11/7/3
f 49/79/3 50/9/3 31/75/3
f 31/75/3 38/80/3 49/79/3
f 38/80/3 40/81/3 39/82/3
f 49/79/3 38/80/3 39/82/3
f 39/82/3 21/10/3 49/79/3
f 21/10/3 24/83/3 22/11/3
f 22/11/3 7/84/3 52/12/3
f 7/84/3 12/78/3 51/76/3
f 52/12/3 7/84/3 51/76/3
f 52/12/3 49/79/3 21/10/3
f 3/4/4 4/85/4 12/13/4
f 4/15/5 2/86/5 11/16/5
f 28/87/6 27/88/6 25/19/6
f 27/88/6 2/20/6 25/19/6
f 2/20/6 4/89/6 3/18/6
f 3/18/6 15/90/6 25/19/6
f 15/90/6 19/91/6 18/92/6
f 36/93/6 18/92/6 35/94/6
f 15/90/6 18/92/6 36/93/6
f 35/94/6 37/95/6 36/93/6
f 36/93/6 25/19/6 15/90/6
f 22/5/7 24/96/7 19/21/7
f 24/22/8 21/97/8 18/23/8
f 31/2/9 33/98/9 28/25/9
f 33/26/10 30/29/10 27/27/10
f 11/16/11 2/86/11 27/27/11
f 36/1/12 37/99/12 40/30/12
f 37/32/13 35/35/13 39/33/13
f 18/23/14 21/97/14 39/33/14
f 42/36/11 44/100/11 43/37/11
f 44/39/6 48/101/6 47/40/6
f 48/42/14 46/102/14 45/43/14
f 46/45/3 42/103/3 41/46/3
f 47/48/1 45/104/1 41/49/1
f 44/51/2 42/105/2 46/52/2
f 9/54/14 51/106/14 50/55/14
f 65/107/3 59/108/3 17/109/3
f 13/60/3 55/110/3 54/111/3
f 13/60/3 54/111/3 56/112/3
f 66/113/3 65/107/3 17/109/3
f 66/113/3 17/109/3 9/57/3
f 6/58/3 13/60/3 56/112/3
f 6/58/3 56/112/3 53/114/3
f 64/115/3 66/113/3 9/57/3
f 63/116/3 64/115/3 9/57/3
f 6/58/3 53/114/3 62/117/3
f 61/59/3 63/116/3 9/57/3
f 6/58/3 62/117/3 61/59/3
f 17/109/3 59/108/3 60/118/3
f 17/109/3 60/118/3 57/61/3
f 58/62/3 55/110/3 13/60/3
f 13/60/3 17/109/3 57/61/3
f 13/63/11 49/119/11 52/64/11
f 13/66/2 6/120/2 50/67/2
f 9/69/1 17/121/1 52/70/1
f 20/74/3 16/122/3 8/72/3
f 16/122/3 14/123/3 8/72/3
f 14/123/3 10/124/3 8/72/3
f 8/72/3 5/125/3 32/73/3
f 5/125/3 1/126/3 32/73/3
f 1/126/3 34/127/3 32/73/3
f 32/73/3 29/128/3 26/129/3
f 26/129/3 23/130/3 20/74/3
f 32/73/3 26/129/3 20/74/3
s 1
f 1/131/15 65/132/16 66/133/17
f 8/134/18 60/135/19 59/136/20
f 8/137/18 57/138/21 60/139/19
f 10/140/22 58/141/23 57/138/21
f 16/142/24 54/143/25 55/144/26
f 16/145/24 56/146/27 54/147/25
f 20/148/28 53/149/29 56/146/27
f 23/150/30 62/151/31 53/152/29
f 26/153/32 61/154/33 62/151/31
f 29/155/34 63/156/35 61/154/33
f 32/157/36 64/158/37 63/159/35
f 34/160/38 66/133/17 64/158/37
f 1/131/15 5/161/39 65/132/16
f 65/132/16 5/161/39 59/136/20
f 5/161/39 8/134/18 59/136/20
f 8/137/18 10/140/22 57/138/21
f 10/140/22 14/162/40 58/141/23
f 55/144/26 58/141/23 14/162/40
f 14/162/40 16/142/24 55/144/26
f 16/145/24 20/148/28 56/146/27
f 20/148/28 23/163/30 53/149/29
f 23/150/30 26/153/32 62/151/31
f 26/153/32 29/155/34 61/154/33
f 29/155/34 32/164/36 63/156/35
f 32/157/36 34/160/38 64/158/37
f 34/160/38 1/131/15 66/133/17
