# Blender v3.4.1 OBJ File: ''
# www.blender.org
o Cube
v -1.000000 0.392241 0.354947
v -1.000000 -0.473842 0.354947
v -0.708019 0.392241 -0.354947
v -0.708019 -0.392241 -0.354947
v -0.576186 -0.151684 -0.150006
v 1.000000 0.392241 0.354947
v 1.000000 -0.473842 0.354947
v 0.635612 0.392241 -0.354947
v 0.635612 -0.392241 -0.354947
v 0.527460 -0.151684 -0.150006
v 0.527460 0.392241 -0.150006
v 0.770339 0.392241 0.354947
v -0.770804 0.392241 0.354947
v -0.576186 0.392241 -0.150006
v 0.770339 -0.151684 0.354947
v -0.770804 -0.151684 0.354947
vt 0.659218 0.677827
vt 0.841414 0.677827
vt 0.875000 0.750000
vt 0.625000 0.750000
vt 0.375000 1.000000
vt 0.375000 0.750000
vt 0.375000 0.000000
vt 0.625000 0.250000
vt 0.375000 0.250000
vt 0.375000 0.500000
vt 0.125000 0.750000
vt 0.125000 0.500000
vt 0.625000 0.500000
vt 0.451661 0.278708
vt 0.451661 0.471350
vt 0.375000 1.000000
vt 0.586031 0.750000
vt 0.375000 0.750000
vt 0.586031 0.000000
vt 0.375000 0.202870
vt 0.586031 0.202870
vt 0.125000 0.750000
vt 0.375000 0.547130
vt 0.125000 0.547130
vt 0.586031 0.547130
vt 0.846292 0.500000
vt 0.875000 0.500000
vt 0.653650 0.500000
vt 0.625000 1.000000
vt 0.625000 0.000000
vt 0.625000 0.471350
vt 0.625000 0.278708
vt 0.586031 1.000000
vt 0.375000 0.000000
vn 0.0000 1.0000 -0.0000
vn 0.0000 0.0000 -1.0000
vn 0.8896 0.0000 -0.4567
vn 0.0000 -0.9935 -0.1142
vn -0.9248 0.0000 -0.3804
vn 0.0000 0.0000 1.0000
vn -0.9012 0.0000 0.4335
vn 0.9331 0.0000 0.3596
s off
f 14/1/1 11/2/1 8/3/1
f 3/4/2 9/5/2 4/6/2
f 9/7/3 6/8/3 7/9/3
f 2/10/4 9/11/4 7/12/4
f 1/13/5 4/6/5 2/10/5
f 15/14/6 16/15/6 2/10/6
f 10/16/6 14/17/6 5/18/6
f 11/19/7 15/20/7 12/21/7
f 10/22/1 16/23/1 15/24/1
f 5/18/8 13/25/8 16/23/8
f 11/2/1 12/26/1 6/27/1
f 3/4/1 1/13/1 14/1/1
f 1/13/1 13/28/1 14/1/1
f 11/2/1 6/27/1 8/3/1
f 3/4/1 14/1/1 8/3/1
f 3/4/2 8/29/2 9/5/2
f 9/7/3 8/30/3 6/8/3
f 2/10/4 4/6/4 9/11/4
f 1/13/5 3/4/5 4/6/5
f 16/15/6 13/31/6 1/13/6
f 7/9/6 6/8/6 15/14/6
f 6/8/6 12/32/6 15/14/6
f 16/15/6 1/13/6 2/10/6
f 7/9/6 15/14/6 2/10/6
f 10/16/6 11/33/6 14/17/6
f 11/19/7 10/34/7 15/20/7
f 10/22/1 5/18/1 16/23/1
f 5/18/8 14/17/8 13/25/8
