# Blender v3.4.1 OBJ File: 'bathhouse-roof.blend'
# www.blender.org
o Cylinder
v 0.820700 -0.096415 -0.709951
v 0.820700 0.010912 0.507405
v 0.755723 -0.069574 -0.712317
v 0.755723 0.037753 0.505038
v 0.728809 -0.004772 -0.718030
v 0.728809 0.102555 0.499325
v 0.755723 0.060029 -0.723743
v 0.755723 0.167356 0.493612
v 0.820700 0.086871 -0.726110
v 0.820700 0.194197 0.491246
v 0.885677 0.060029 -0.723743
v 0.885677 0.167356 0.493612
v 0.912591 -0.004772 -0.718030
v 0.912591 0.102555 0.499325
v 0.885677 -0.069574 -0.712317
v 0.885677 0.037753 0.505038
vt 0.218363 0.811711
vt 0.218363 0.829804
vt 0.174719 0.811747
vt 0.380264 0.798943
vt 0.393047 0.811747
vt 0.349403 0.811712
vt 0.205580 0.842608
vt 0.174719 0.829840
vt 0.187502 0.842623
vt 0.187502 0.798943
vt 0.205580 0.798928
vt 0.393047 0.829840
vt 0.380264 0.842623
vt 0.362186 0.842608
vt 0.349403 0.829804
vt 0.362186 0.798928
vt 0.972686 0.484857
vt 0.990764 0.798928
vt 0.972686 0.798928
vt 0.174719 0.798928
vt 0.187523 0.484857
vt 0.187523 0.798928
vt 0.205616 0.484857
vt 0.205616 0.798928
vt 0.218399 0.484857
vt 0.218399 0.798928
vt 0.828745 0.797894
vt 0.810667 0.483822
vt 0.828745 0.483822
vt 0.480478 0.798928
vt 0.467674 0.484857
vt 0.480478 0.484857
vt 0.467674 0.798928
vt 0.449581 0.484857
vt 0.449581 0.798928
vt 0.436798 0.484857
vt 0.990764 0.484857
vt 0.174719 0.484857
vt 0.810667 0.797894
vt 0.436798 0.798928
vn 0.0000 0.0878 0.9961
vn 0.0000 -0.0878 -0.9961
vn -0.0000 -0.7181 0.6959
vn -0.5492 -0.6020 -0.5796
vn 0.0000 -0.8288 -0.5596
vn -0.7763 0.0554 0.6279
vn -0.7763 -0.0554 -0.6279
vn -0.5492 0.6020 0.5796
vn -0.5492 0.4913 -0.6760
vn 0.0000 0.8288 0.5596
vn -0.0000 0.7181 -0.6959
vn 0.5492 0.4913 -0.6760
vn 0.5492 0.6020 0.5796
vn 0.7763 -0.0554 -0.6279
vn 0.7763 0.0554 0.6279
vn 0.5492 -0.6020 -0.5796
vn 0.5492 -0.4913 0.6760
vn -0.5492 -0.4913 0.6760
s off
f 8/1/1 6/2/1 14/3/1
f 11/4/2 13/5/2 7/6/2
f 6/2/1 4/7/1 16/8/1
f 4/7/1 2/9/1 16/8/1
f 16/8/1 14/3/1 6/2/1
f 14/3/1 12/10/1 8/1/1
f 12/10/1 10/11/1 8/1/1
f 15/12/2 1/13/2 3/14/2
f 3/14/2 5/15/2 15/12/2
f 5/15/2 7/6/2 13/5/2
f 15/12/2 5/15/2 13/5/2
f 7/6/2 9/16/2 11/4/2
s 1
f 2/17/3 3/18/4 1/19/5
f 3/20/4 6/21/6 5/22/7
f 5/22/7 8/23/8 7/24/9
f 7/24/9 10/25/10 9/26/11
f 10/27/10 11/28/12 9/29/11
f 12/30/13 13/31/14 11/32/12
f 14/33/15 15/34/16 13/31/14
f 16/35/17 1/36/5 15/34/16
f 2/17/3 4/37/18 3/18/4
f 3/20/4 4/38/18 6/21/6
f 5/22/7 6/21/6 8/23/8
f 7/24/9 8/23/8 10/25/10
f 10/27/10 12/39/13 11/28/12
f 12/30/13 14/33/15 13/31/14
f 14/33/15 16/35/17 15/34/16
f 16/35/17 2/40/3 1/36/5
o Cylinder.004_Cylinder.005
v -0.817540 -0.096415 -0.709951
v -0.817540 0.010912 0.507405
v -0.882517 -0.069574 -0.712317
v -0.882517 0.037753 0.505038
v -0.909431 -0.004772 -0.718030
v -0.909431 0.102555 0.499325
v -0.882517 0.060029 -0.723743
v -0.882517 0.167356 0.493612
v -0.817540 0.086871 -0.726110
v -0.817540 0.194197 0.491246
v -0.752563 0.060029 -0.723743
v -0.752563 0.167356 0.493612
v -0.725649 -0.004772 -0.718030
v -0.725649 0.102555 0.499325
v -0.752563 -0.069574 -0.712317
v -0.752563 0.037753 0.505038
v 0.356540 -0.096415 -0.709951
v 0.356540 0.010912 0.507405
v 0.291563 -0.069574 -0.712317
v 0.291563 0.037753 0.505038
v 0.264648 -0.004772 -0.718030
v 0.264648 0.102555 0.499325
v 0.291563 0.060029 -0.723743
v 0.291563 0.167356 0.493612
v 0.356540 0.086871 -0.726110
v 0.356540 0.194197 0.491246
v 0.421517 0.060029 -0.723743
v 0.421517 0.167356 0.493612
v 0.448431 -0.004772 -0.718030
v 0.448431 0.102555 0.499325
v 0.421517 -0.069574 -0.712317
v 0.421517 0.037753 0.505038
v 0.590411 -0.096415 -0.709951
v 0.590411 0.010912 0.507405
v 0.525434 -0.069574 -0.712317
v 0.525434 0.037753 0.505038
v 0.498520 -0.004772 -0.718030
v 0.498520 0.102555 0.499325
v 0.525434 0.060029 -0.723743
v 0.525434 0.167356 0.493612
v 0.590411 0.086871 -0.726110
v 0.590411 0.194197 0.491246
v 0.655388 0.060029 -0.723743
v 0.655388 0.167356 0.493612
v 0.682303 -0.004772 -0.718030
v 0.682303 0.102555 0.499325
v 0.655388 -0.069574 -0.712317
v 0.655388 0.037753 0.505038
v -0.110789 -0.096415 -0.709951
v -0.110789 0.010912 0.507405
v -0.175766 -0.069574 -0.712317
v -0.175766 0.037753 0.505038
v -0.202680 -0.004772 -0.718030
v -0.202680 0.102555 0.499325
v -0.175766 0.060029 -0.723743
v -0.175766 0.167356 0.493612
v -0.110789 0.086871 -0.726110
v -0.110789 0.194197 0.491246
v -0.045812 0.060029 -0.723743
v -0.045812 0.167356 0.493612
v -0.018898 -0.004772 -0.718030
v -0.018898 0.102555 0.499325
v -0.045812 -0.069574 -0.712317
v -0.045812 0.037753 0.505038
v 0.123083 -0.096415 -0.709951
v 0.123083 0.010912 0.507405
v 0.058106 -0.069574 -0.712317
v 0.058106 0.037753 0.505038
v 0.031191 -0.004772 -0.718030
v 0.031191 0.102555 0.499325
v 0.058106 0.060029 -0.723743
v 0.058106 0.167356 0.493612
v 0.123083 0.086871 -0.726110
v 0.123083 0.194197 0.491246
v 0.188060 0.060029 -0.723743
v 0.188060 0.167356 0.493612
v 0.214974 -0.004772 -0.718030
v 0.214974 0.102555 0.499325
v 0.188060 -0.069574 -0.712317
v 0.188060 0.037753 0.505038
v -0.576384 -0.096415 -0.709951
v -0.576384 0.010912 0.507405
v -0.641361 -0.069574 -0.712317
v -0.641361 0.037753 0.505038
v -0.668275 -0.004772 -0.718030
v -0.668275 0.102555 0.499325
v -0.641361 0.060029 -0.723743
v -0.641361 0.167356 0.493612
v -0.576384 0.086871 -0.726110
v -0.576384 0.194197 0.491246
v -0.511407 0.060029 -0.723743
v -0.511407 0.167356 0.493612
v -0.484493 -0.004772 -0.718030
v -0.484493 0.102555 0.499325
v -0.511407 -0.069574 -0.712317
v -0.511407 0.037753 0.505038
v -0.342513 -0.096415 -0.709951
v -0.342513 0.010912 0.507405
v -0.407489 -0.069574 -0.712317
v -0.407489 0.037753 0.505038
v -0.434404 -0.004772 -0.718030
v -0.434404 0.102555 0.499325
v -0.407489 0.060029 -0.723743
v -0.407489 0.167356 0.493612
v -0.342513 0.086871 -0.726110
v -0.342513 0.194197 0.491246
v -0.277536 0.060029 -0.723743
v -0.277536 0.167356 0.493612
v -0.250621 -0.004772 -0.718030
v -0.250621 0.102555 0.499325
v -0.277536 -0.069574 -0.712317
v -0.277536 0.037753 0.505038
vt 0.292976 0.798943
vt 0.305759 0.811747
vt 0.262115 0.829804
vt 0.511195 0.798943
vt 0.523978 0.811747
vt 0.480334 0.811712
vt 0.231182 0.842608
vt 0.218399 0.829804
vt 0.262043 0.811747
vt 0.130932 0.829840
vt 0.130932 0.811747
vt 0.161793 0.842608
vt 0.845320 0.810677
vt 0.845320 0.828770
vt 0.801676 0.810713
vt 0.480334 0.811711
vt 0.480334 0.829804
vt 0.449474 0.798943
vt 0.436691 0.811712
vt 0.436691 0.829804
vt 0.393047 0.811747
vt 0.336620 0.798943
vt 0.349403 0.811747
vt 0.305759 0.811711
vt 0.670744 0.828769
vt 0.714388 0.828805
vt 0.683527 0.841573
vt 0.758032 0.810677
vt 0.758032 0.828769
vt 0.727171 0.797908
vt 0.000000 0.829840
vt 0.000000 0.811747
vt 0.043644 0.829804
vt 0.801676 0.810677
vt 0.801676 0.828769
vt 0.770815 0.797908
vt 0.130932 0.811711
vt 0.130932 0.829804
vt 0.087288 0.811747
vt 0.056427 0.842608
vt 0.043644 0.829804
vt 0.087288 0.829840
vt 0.305759 0.829840
vt 0.274898 0.842608
vt 0.292976 0.842623
vt 0.262115 0.811712
vt 0.274898 0.798928
vt 0.523978 0.829840
vt 0.511195 0.842623
vt 0.493117 0.842608
vt 0.480334 0.829804
vt 0.493117 0.798928
vt 0.218399 0.811711
vt 0.249260 0.798943
vt 0.231182 0.798928
vt 0.262043 0.829840
vt 0.249260 0.842623
vt 0.143715 0.798943
vt 0.161793 0.798928
vt 0.174576 0.811712
vt 0.174576 0.829804
vt 0.143715 0.842623
vt 0.832537 0.841574
vt 0.801676 0.828805
vt 0.814459 0.841588
vt 0.814459 0.797909
vt 0.832537 0.797894
vt 0.467551 0.842608
vt 0.449474 0.842623
vt 0.436691 0.829840
vt 0.436691 0.811747
vt 0.467551 0.798928
vt 0.423908 0.842608
vt 0.393047 0.829840
vt 0.405830 0.842623
vt 0.405830 0.798943
vt 0.423908 0.798928
vt 0.349403 0.829840
vt 0.336620 0.842623
vt 0.318542 0.842608
vt 0.305759 0.829804
vt 0.318542 0.798928
vt 0.670744 0.810677
vt 0.701605 0.797908
vt 0.683527 0.797894
vt 0.714388 0.810713
vt 0.701605 0.841588
vt 0.745249 0.841573
vt 0.727171 0.841588
vt 0.714388 0.828805
vt 0.714388 0.810713
vt 0.745249 0.797894
vt 0.012783 0.798943
vt 0.043644 0.811711
vt 0.030861 0.798928
vt 0.030861 0.842608
vt 0.012783 0.842623
vt 0.788893 0.841573
vt 0.770815 0.841588
vt 0.758032 0.828805
vt 0.758032 0.810713
vt 0.788893 0.797894
vt 0.118149 0.842608
vt 0.087288 0.829840
vt 0.100071 0.842623
vt 0.100071 0.798943
vt 0.118149 0.798928
vt 0.043644 0.811712
vt 0.056427 0.798928
vt 0.074505 0.798943
vt 0.087288 0.811747
vt 0.074505 0.842623
vt 0.792589 0.483822
vt 0.810667 0.797894
vt 0.792589 0.797894
vt 0.436798 0.798928
vt 0.423994 0.484857
vt 0.436798 0.484857
vt 0.405902 0.798928
vt 0.405902 0.484857
vt 0.393119 0.798928
vt 0.393119 0.484857
vt 0.900375 0.484857
vt 0.918453 0.798928
vt 0.900375 0.798928
vt 0.174719 0.484857
vt 0.161915 0.798928
vt 0.161915 0.484857
vt 0.143823 0.484857
vt 0.143823 0.798928
vt 0.131040 0.484857
vt 0.981922 0.314071
vt 0.963844 0.000000
vt 0.981922 0.000000
vt 0.218399 0.484857
vt 0.231203 0.798928
vt 0.218399 0.798928
vt 0.249296 0.484857
vt 0.249296 0.798928
vt 0.262079 0.484857
vt 0.262079 0.798928
vt 0.927688 0.000000
vt 0.909611 0.314071
vt 0.909611 0.000000
vt 0.000000 0.484857
vt 0.012804 0.798928
vt 0.000000 0.798928
vt 0.012804 0.484857
vt 0.030897 0.798928
vt 0.030897 0.484857
vt 0.043680 0.798928
vt 0.936531 0.484857
vt 0.954609 0.798928
vt 0.936531 0.798928
vt 0.661549 0.483822
vt 0.674353 0.797894
vt 0.661549 0.797894
vt 0.674353 0.483822
vt 0.692446 0.797894
vt 0.692446 0.483822
vt 0.705229 0.797894
vt 0.882297 0.798928
vt 0.864219 0.484857
vt 0.882297 0.484857
vt 0.524158 0.798928
vt 0.511354 0.484857
vt 0.524158 0.484857
vt 0.511354 0.798928
vt 0.493261 0.484857
vt 0.493261 0.798928
vt 0.480478 0.484857
vt 0.972686 0.798928
vt 0.954608 0.484857
vt 0.972686 0.484857
vt 0.087360 0.484857
vt 0.100164 0.798928
vt 0.087360 0.798928
vt 0.100164 0.484857
vt 0.118257 0.798928
vt 0.118257 0.484857
vt 0.131040 0.798928
vt 0.945766 0.000000
vt 0.963844 0.314071
vt 0.945766 0.314071
vt 0.393119 0.798928
vt 0.380315 0.484857
vt 0.393119 0.484857
vt 0.380315 0.798928
vt 0.362222 0.484857
vt 0.349439 0.798928
vt 0.349439 0.484857
vt 0.945766 0.314071
vt 0.927688 0.000000
vt 0.945766 0.000000
vt 0.043680 0.798928
vt 0.056484 0.484857
vt 0.056484 0.798928
vt 0.074577 0.798928
vt 0.074577 0.484857
vt 0.087360 0.798928
vt 0.846141 0.484857
vt 0.864219 0.798928
vt 0.846141 0.798928
vt 0.617869 0.483822
vt 0.630673 0.797894
vt 0.617869 0.797894
vt 0.648766 0.483822
vt 0.648766 0.797894
vt 0.661549 0.797894
vt 0.587688 0.484857
vt 0.605766 0.798928
vt 0.587688 0.798928
vt 0.748909 0.483822
vt 0.761713 0.797894
vt 0.748909 0.797894
vt 0.761713 0.483822
vt 0.779806 0.797894
vt 0.779806 0.483822
vt 0.792589 0.797894
vt 0.981922 0.000000
vt 1.000000 0.314071
vt 0.981922 0.314071
vt 0.305759 0.798928
vt 0.292955 0.484857
vt 0.305759 0.484857
vt 0.292955 0.798928
vt 0.274862 0.484857
vt 0.262079 0.798928
vt 0.262079 0.484857
vt 0.936531 0.484857
vt 0.918453 0.798928
vt 0.918453 0.484857
vt 0.705229 0.483822
vt 0.718033 0.797894
vt 0.705229 0.797894
vt 0.718033 0.483822
vt 0.736126 0.797894
vt 0.748909 0.483822
vt 0.748909 0.797894
vt 0.900375 0.798928
vt 0.882297 0.484857
vt 0.900375 0.484857
vt 0.349439 0.798928
vt 0.336635 0.484857
vt 0.349439 0.484857
vt 0.336635 0.798928
vt 0.318542 0.484857
vt 0.318542 0.798928
vt 0.305759 0.484857
vt 0.810667 0.483822
vt 0.423994 0.798928
vt 0.918453 0.484857
vt 0.174719 0.798928
vt 0.131040 0.798928
vt 0.963844 0.314071
vt 0.231203 0.484857
vt 0.927688 0.314071
vt 0.043680 0.484857
vt 0.954609 0.484857
vt 0.705229 0.483822
vt 0.864219 0.798928
vt 0.480478 0.798928
vt 0.954608 0.798928
vt 0.131040 0.484857
vt 0.963844 0.000000
vt 0.362222 0.798928
vt 0.927688 0.314071
vt 0.043680 0.484857
vt 0.087360 0.484857
vt 0.864219 0.484857
vt 0.630673 0.483822
vt 0.661549 0.483822
vt 0.605766 0.484857
vt 0.792589 0.483822
vt 1.000000 0.000000
vt 0.274862 0.798928
vt 0.936531 0.798928
vt 0.736126 0.483822
vt 0.882297 0.798928
vt 0.305759 0.798928
vn 0.0000 0.0878 0.9961
vn 0.0000 -0.0878 -0.9961
vn -0.0000 -0.7181 0.6959
vn -0.5492 -0.6020 -0.5796
vn 0.0000 -0.8288 -0.5596
vn -0.5492 -0.4913 0.6760
vn -0.7763 -0.0554 -0.6279
vn -0.5492 0.6020 0.5796
vn -0.5492 0.4913 -0.6760
vn 0.0000 0.8288 0.5596
vn -0.0000 0.7181 -0.6959
vn 0.5492 0.4913 -0.6760
vn 0.7763 0.0554 0.6279
vn 0.7763 -0.0554 -0.6279
vn 0.5492 -0.6020 -0.5796
vn 0.5492 -0.4913 0.6760
vn 0.5492 0.6020 0.5796
vn -0.7763 0.0554 0.6279
s off
f 24/41/19 22/42/19 30/43/19
f 27/44/20 29/45/20 23/46/20
f 40/47/19 38/48/19 46/49/19
f 43/50/20 45/51/20 39/52/20
f 56/53/19 54/54/19 62/55/19
f 59/56/20 61/57/20 55/58/20
f 72/59/19 70/60/19 78/61/19
f 75/62/20 77/63/20 71/64/20
f 86/65/19 92/66/19 88/67/19
f 91/68/20 93/69/20 87/70/20
f 104/71/19 102/72/19 110/73/19
f 107/74/20 109/75/20 103/76/20
f 120/77/19 118/78/19 126/79/19
f 123/80/20 125/81/20 119/82/20
f 22/42/19 20/83/19 32/84/19
f 20/83/19 18/85/19 32/84/19
f 32/84/19 30/43/19 22/42/19
f 30/43/19 28/86/19 24/41/19
f 28/86/19 26/87/19 24/41/19
f 31/88/20 17/89/20 19/90/20
f 19/90/20 21/91/20 31/88/20
f 21/91/20 23/46/20 29/45/20
f 31/88/20 21/91/20 29/45/20
f 23/46/20 25/92/20 27/44/20
f 38/48/19 36/93/19 48/94/19
f 36/93/19 34/95/19 48/94/19
f 48/94/19 46/49/19 38/48/19
f 46/49/19 44/96/19 40/47/19
f 44/96/19 42/97/19 40/47/19
f 47/98/20 33/99/20 35/100/20
f 35/100/20 37/101/20 47/98/20
f 37/101/20 39/52/20 45/51/20
f 47/98/20 37/101/20 45/51/20
f 39/52/20 41/102/20 43/50/20
f 54/54/19 52/103/19 64/104/19
f 52/103/19 50/105/19 64/104/19
f 64/104/19 62/55/19 54/54/19
f 62/55/19 60/106/19 56/53/19
f 60/106/19 58/107/19 56/53/19
f 63/108/20 49/109/20 51/110/20
f 51/110/20 53/111/20 63/108/20
f 53/111/20 55/58/20 61/57/20
f 63/108/20 53/111/20 61/57/20
f 55/58/20 57/112/20 59/56/20
f 70/60/19 68/113/19 80/114/19
f 68/113/19 66/115/19 80/114/19
f 80/114/19 78/61/19 70/60/19
f 78/61/19 76/116/19 72/59/19
f 76/116/19 74/117/19 72/59/19
f 79/118/20 65/119/20 67/120/20
f 67/120/20 69/121/20 79/118/20
f 69/121/20 71/64/20 77/63/20
f 79/118/20 69/121/20 77/63/20
f 71/64/20 73/122/20 75/62/20
f 86/65/19 84/123/19 96/124/19
f 84/123/19 82/125/19 96/124/19
f 96/124/19 94/126/19 86/65/19
f 94/126/19 92/66/19 86/65/19
f 92/66/19 90/127/19 88/67/19
f 95/128/20 81/129/20 83/130/20
f 83/130/20 85/131/20 95/128/20
f 85/131/20 87/70/20 93/69/20
f 95/128/20 85/131/20 93/69/20
f 87/70/20 89/132/20 91/68/20
f 102/72/19 100/133/19 112/134/19
f 100/133/19 98/135/19 112/134/19
f 112/134/19 110/73/19 102/72/19
f 110/73/19 108/136/19 104/71/19
f 108/136/19 106/137/19 104/71/19
f 111/138/20 97/139/20 99/140/20
f 99/140/20 101/141/20 111/138/20
f 101/141/20 103/76/20 109/75/20
f 111/138/20 101/141/20 109/75/20
f 103/76/20 105/142/20 107/74/20
f 118/78/19 116/143/19 128/144/19
f 116/143/19 114/145/19 128/144/19
f 128/144/19 126/79/19 118/78/19
f 126/79/19 124/146/19 120/77/19
f 124/146/19 122/147/19 120/77/19
f 127/148/20 113/149/20 115/150/20
f 115/150/20 117/151/20 127/148/20
f 117/151/20 119/82/20 125/81/20
f 127/148/20 117/151/20 125/81/20
f 119/82/20 121/152/20 123/80/20
s 1
f 18/153/21 19/154/22 17/155/23
f 20/156/24 21/157/25 19/158/22
f 21/157/25 24/159/26 23/160/27
f 23/160/27 26/161/28 25/162/29
f 26/163/28 27/164/30 25/165/29
f 27/166/30 30/167/31 29/168/32
f 30/167/31 31/169/33 29/168/32
f 32/170/34 17/171/23 31/169/33
f 34/172/21 35/173/22 33/174/23
f 36/175/24 37/176/25 35/177/22
f 37/176/25 40/178/26 39/179/27
f 39/179/27 42/180/28 41/181/29
f 41/182/29 44/183/35 43/184/30
f 44/185/35 45/186/32 43/187/30
f 46/188/31 47/189/33 45/186/32
f 48/190/34 33/191/23 47/189/33
f 50/192/21 51/193/22 49/194/23
f 52/195/24 53/196/25 51/197/22
f 54/198/36 55/199/27 53/196/25
f 56/200/26 57/201/29 55/199/27
f 58/202/28 59/203/30 57/204/29
f 60/205/35 61/206/32 59/207/30
f 62/208/31 63/209/33 61/206/32
f 64/210/34 49/211/23 63/209/33
f 66/212/21 67/213/22 65/214/23
f 68/215/24 69/216/25 67/217/22
f 70/218/36 71/219/27 69/216/25
f 72/220/26 73/221/29 71/219/27
f 74/222/28 75/223/30 73/224/29
f 76/225/35 77/226/32 75/227/30
f 78/228/31 79/229/33 77/226/32
f 79/229/33 66/230/21 65/231/23
f 82/232/21 83/233/22 81/234/23
f 83/235/22 86/236/36 85/237/25
f 86/236/36 87/238/27 85/237/25
f 88/239/26 89/240/29 87/238/27
f 90/241/28 91/242/30 89/243/29
f 92/244/35 93/245/32 91/246/30
f 93/245/32 96/247/34 95/248/33
f 96/247/34 81/249/23 95/248/33
f 98/250/21 99/251/22 97/252/23
f 100/253/24 101/254/25 99/255/22
f 102/256/36 103/257/27 101/254/25
f 104/258/26 105/259/29 103/257/27
f 106/260/28 107/261/30 105/262/29
f 108/263/35 109/264/32 107/265/30
f 110/266/31 111/267/33 109/264/32
f 111/267/33 98/268/21 97/269/23
f 113/270/23 116/271/24 115/272/22
f 116/273/24 117/274/25 115/275/22
f 118/276/36 119/277/27 117/274/25
f 119/277/27 122/278/28 121/279/29
f 122/280/28 123/281/30 121/282/29
f 124/283/35 125/284/32 123/285/30
f 126/286/31 127/287/33 125/284/32
f 128/288/34 113/289/23 127/287/33
f 18/153/21 20/290/24 19/154/22
f 20/156/24 22/291/36 21/157/25
f 21/157/25 22/291/36 24/159/26
f 23/160/27 24/159/26 26/161/28
f 26/163/28 28/292/35 27/164/30
f 27/166/30 28/293/35 30/167/31
f 30/167/31 32/170/34 31/169/33
f 32/170/34 18/294/21 17/171/23
f 34/172/21 36/295/24 35/173/22
f 36/175/24 38/296/36 37/176/25
f 37/176/25 38/296/36 40/178/26
f 39/179/27 40/178/26 42/180/28
f 41/182/29 42/297/28 44/183/35
f 44/185/35 46/188/31 45/186/32
f 46/188/31 48/190/34 47/189/33
f 48/190/34 34/298/21 33/191/23
f 50/192/21 52/299/24 51/193/22
f 52/195/24 54/198/36 53/196/25
f 54/198/36 56/200/26 55/199/27
f 56/200/26 58/300/28 57/201/29
f 58/202/28 60/301/35 59/203/30
f 60/205/35 62/208/31 61/206/32
f 62/208/31 64/210/34 63/209/33
f 64/210/34 50/302/21 49/211/23
f 66/212/21 68/303/24 67/213/22
f 68/215/24 70/218/36 69/216/25
f 70/218/36 72/220/26 71/219/27
f 72/220/26 74/304/28 73/221/29
f 74/222/28 76/305/35 75/223/30
f 76/225/35 78/228/31 77/226/32
f 78/228/31 80/306/34 79/229/33
f 79/229/33 80/306/34 66/230/21
f 82/232/21 84/307/24 83/233/22
f 83/235/22 84/308/24 86/236/36
f 86/236/36 88/239/26 87/238/27
f 88/239/26 90/309/28 89/240/29
f 90/241/28 92/310/35 91/242/30
f 92/244/35 94/311/31 93/245/32
f 93/245/32 94/311/31 96/247/34
f 96/247/34 82/312/21 81/249/23
f 98/250/21 100/313/24 99/251/22
f 100/253/24 102/256/36 101/254/25
f 102/256/36 104/258/26 103/257/27
f 104/258/26 106/314/28 105/259/29
f 106/260/28 108/315/35 107/261/30
f 108/263/35 110/266/31 109/264/32
f 110/266/31 112/316/34 111/267/33
f 111/267/33 112/316/34 98/268/21
f 113/270/23 114/317/21 116/271/24
f 116/273/24 118/276/36 117/274/25
f 118/276/36 120/318/26 119/277/27
f 119/277/27 120/318/26 122/278/28
f 122/280/28 124/319/35 123/281/30
f 124/283/35 126/286/31 125/284/32
f 126/286/31 128/288/34 127/287/33
f 128/288/34 114/320/21 113/289/23
o Cube.001
v 0.941295 -0.002972 0.434959
v 0.941295 0.202768 0.434959
v 0.941295 -0.002972 0.673754
v 0.941295 0.202768 0.673754
v -0.941295 -0.002972 0.434959
v -0.941295 0.202768 0.434959
v -0.941295 -0.002972 0.673754
v -0.941295 0.202768 0.673754
v -0.942304 0.113999 0.524032
v -0.942304 -0.009131 0.534804
v -0.942304 0.009131 -0.674624
v -0.942304 -0.113999 -0.663852
v 0.944314 0.113999 0.524032
v 0.944314 -0.009131 0.534804
v 0.944314 0.009131 -0.674624
v 0.944314 -0.113999 -0.663852
vt 0.617869 0.859263
vt 0.670744 0.797894
vt 0.670744 0.859263
vt 0.793316 0.000000
vt 0.740492 0.483822
vt 0.740492 0.000000
vt 0.524158 0.855456
vt 0.577033 0.794086
vt 0.577033 0.855456
vt 0.793316 0.483822
vt 0.846141 0.000000
vt 0.846141 0.483822
vt 0.679181 0.000000
vt 0.679181 0.483822
vt 0.617869 0.000000
vt 0.679181 0.000000
vt 0.308935 0.484857
vt 0.000000 0.000000
vt 0.308935 0.000000
vt 0.909611 0.000000
vt 0.877876 0.484857
vt 0.877876 0.000000
vt 0.587688 0.484857
vt 0.555923 0.794086
vt 0.555923 0.484857
vt 0.308935 0.000000
vt 0.617869 0.484857
vt 0.308935 0.484857
vt 0.555923 0.484857
vt 0.524158 0.794086
vt 0.524158 0.484857
vt 0.877876 0.000000
vt 0.846141 0.484857
vt 0.846141 0.000000
vt 0.617869 0.797894
vt 0.793316 0.483822
vt 0.524158 0.794086
vt 0.793316 0.000000
vt 0.679181 0.483822
vt 0.617869 0.483822
vt 0.000000 0.484857
vt 0.909611 0.484857
vt 0.587688 0.794086
vt 0.617869 0.000000
vt 0.555923 0.794086
vt 0.877876 0.484857
vn 1.0000 0.0000 0.0000
vn 0.0000 0.0000 1.0000
vn -1.0000 0.0000 0.0000
vn 0.0000 0.0000 -1.0000
vn 0.0000 -1.0000 0.0000
vn 0.0000 1.0000 0.0000
vn 0.0000 0.9962 -0.0872
vn 0.0000 -0.0872 -0.9962
vn 0.0000 -0.9962 0.0872
vn 0.0000 0.0872 0.9962
s off
f 130/321/37 131/322/37 129/323/37
f 132/324/38 135/325/38 131/326/38
f 136/327/39 133/328/39 135/329/39
f 134/330/40 129/331/40 133/332/40
f 135/325/41 129/333/41 131/326/41
f 132/334/42 134/335/42 136/336/42
f 141/337/43 139/338/43 137/339/43
f 139/340/44 144/341/44 140/342/44
f 143/343/37 142/344/37 144/345/37
f 138/346/45 144/347/45 142/348/45
f 137/349/39 140/350/39 138/351/39
f 141/352/46 138/353/46 142/354/46
f 130/321/37 132/355/37 131/322/37
f 132/324/38 136/356/38 135/325/38
f 136/327/39 134/357/39 133/328/39
f 134/330/40 130/358/40 129/331/40
f 135/325/41 133/359/41 129/333/41
f 132/334/42 130/360/42 134/335/42
f 141/337/43 143/361/43 139/338/43
f 139/340/44 143/362/44 144/341/44
f 143/343/37 141/363/37 142/344/37
f 138/346/45 140/364/45 144/347/45
f 137/349/39 139/365/39 140/350/39
f 141/352/46 137/366/46 138/353/46
