# Blender v3.4.1 OBJ File: 'animals.blend'
# www.blender.org
o Bird_Still_Cube.006
v -0.012335 -0.586190 0.452426
v -0.136358 -0.575576 0.227554
v -0.012375 -0.599395 0.452378
v -0.136453 -0.607360 0.227441
v -0.002185 -0.586190 0.443979
v -0.111927 -0.575576 0.207223
v -0.002224 -0.599395 0.443932
v -0.112021 -0.607360 0.207110
v -0.129731 -0.576057 0.229062
v -0.138453 -0.210877 -0.108535
v -0.129731 -0.596395 0.207822
v -0.138453 -0.243279 -0.142374
v -0.100325 -0.576058 0.229062
v -0.091602 -0.210877 -0.108535
v -0.100325 -0.596395 0.207822
v -0.091602 -0.243279 -0.142374
v -0.122870 -0.584519 0.512018
v -0.130491 -0.574932 0.147192
v -0.122870 -0.602349 0.511936
v -0.130491 -0.608004 0.147039
v -0.105040 -0.584519 0.512018
v -0.097419 -0.574932 0.147192
v -0.105040 -0.602349 0.511936
v -0.097419 -0.608004 0.147039
v -0.216835 -0.586190 0.448666
v -0.117094 -0.575576 0.207336
v -0.216798 -0.599395 0.448617
v -0.117005 -0.607360 0.207219
v -0.206325 -0.586190 0.456662
v -0.091799 -0.575576 0.226581
v -0.206288 -0.599395 0.456613
v -0.091710 -0.607360 0.226464
v -0.123207 -0.581629 0.037040
v -0.123207 -0.600133 0.036954
v -0.104703 -0.600133 0.036954
v -0.104703 -0.581629 0.037040
v 0.013996 -0.586190 0.452425
v 0.138019 -0.575576 0.227554
v 0.014035 -0.599395 0.452378
v 0.138113 -0.607360 0.227441
v 0.003846 -0.586190 0.443979
v 0.113587 -0.575576 0.207223
v 0.003885 -0.599395 0.443932
v 0.113682 -0.607360 0.207110
v 0.131391 -0.576057 0.229061
v 0.140113 -0.210877 -0.108535
v 0.131391 -0.596395 0.207822
v 0.140113 -0.243279 -0.142374
v 0.101985 -0.576057 0.229061
v 0.093263 -0.210877 -0.108535
v 0.101985 -0.596395 0.207822
v 0.093263 -0.243279 -0.142374
v 0.124531 -0.584519 0.512018
v 0.132151 -0.574932 0.147192
v 0.124531 -0.602349 0.511936
v 0.132151 -0.608004 0.147039
v 0.106700 -0.584519 0.512018
v 0.099080 -0.574932 0.147192
v 0.106700 -0.602349 0.511936
v 0.099080 -0.608004 0.147039
v 0.218495 -0.586190 0.448666
v 0.118755 -0.575576 0.207336
v 0.218458 -0.599395 0.448617
v 0.118665 -0.607360 0.207219
v 0.207986 -0.586190 0.456661
v 0.093459 -0.575576 0.226581
v 0.207949 -0.599395 0.456613
v 0.093370 -0.607360 0.226464
v 0.124867 -0.581629 0.037040
v 0.124867 -0.600133 0.036954
v 0.106363 -0.600133 0.036954
v 0.106363 -0.581629 0.037040
v -0.000000 0.104228 -0.541828
v -0.000000 0.239851 -0.333607
v 0.210859 0.006589 -0.513935
v 0.290677 0.117526 -0.265550
v 0.262937 -0.317942 -0.451261
v 0.362468 -0.157335 -0.112627
v 0.117018 -0.443240 -0.401000
v 0.161313 -0.377756 0.010007
v -0.117018 -0.443240 -0.401000
v -0.161313 -0.377756 0.010008
v -0.262937 -0.317942 -0.451261
v -0.362468 -0.157335 -0.112627
v -0.210859 0.006589 -0.513935
v -0.290677 0.117526 -0.265550
v 0.290677 0.289051 0.042746
v 0.000000 0.411376 -0.025311
v 0.362468 0.014190 0.195668
v 0.161313 -0.206232 0.318303
v -0.161313 -0.206232 0.318303
v -0.362468 0.014190 0.195669
v -0.290677 0.289051 0.042746
v 0.172572 0.413051 0.286684
v 0.000000 0.479810 0.237189
v 0.215193 0.263044 0.397900
v 0.095770 0.031197 0.538939
v -0.095770 0.031197 0.538939
v -0.215193 0.263044 0.397900
v -0.172572 0.413051 0.286684
v 0.172572 0.517129 0.427063
v 0.000000 0.583888 0.377568
v 0.215193 0.319224 0.573948
v 0.095770 0.238648 0.663136
v -0.095770 0.238648 0.663136
v -0.215193 0.319224 0.573949
v -0.172571 0.517129 0.427064
v 0.085593 0.566024 0.609584
v 0.000000 0.600161 0.586481
v 0.106733 0.441422 0.697165
v 0.047501 0.364481 0.721141
v -0.047500 0.364481 0.721141
v -0.106733 0.441422 0.697166
v -0.085593 0.566025 0.609584
v 0.019767 0.467266 0.813095
v 0.000000 0.476463 0.810640
v 0.024649 0.446600 0.818613
v 0.010970 0.431282 0.823038
v -0.010970 0.431282 0.823038
v -0.024649 0.446600 0.818613
v -0.019767 0.467266 0.813095
v 0.006277 0.451417 0.974175
v 0.000000 0.454439 0.974121
v 0.007827 0.444626 0.974297
v 0.003483 0.439181 0.974394
v -0.003483 0.439181 0.974394
v -0.007826 0.444626 0.974297
v -0.006276 0.451417 0.974175
v -0.000000 -0.081149 -0.800844
v 0.096449 -0.127594 -0.800357
v 0.120270 -0.231955 -0.799260
v 0.053525 -0.315645 -0.798381
v -0.053525 -0.315645 -0.798381
v -0.120270 -0.231954 -0.799260
v -0.096449 -0.127594 -0.800357
v -0.000000 -0.136168 -0.909126
v 0.042304 -0.156540 -0.908912
v 0.052752 -0.202314 -0.908431
v 0.023477 -0.239022 -0.908046
v -0.023477 -0.239022 -0.908046
v -0.052752 -0.202314 -0.908431
v -0.042304 -0.156540 -0.908912
v -0.462139 -0.052975 0.106210
v -0.339434 0.201200 0.315799
v -0.296408 0.324304 -0.222202
v -0.213831 0.449240 0.095857
v -0.221021 0.378346 0.334018
v -0.155793 0.434917 0.249988
v -0.401064 -0.176960 -0.306076
v -0.273845 0.076286 -0.530388
v -0.334184 -0.189466 -0.612968
v -0.253745 -0.086882 -0.710830
v -0.255010 -0.186050 -0.721678
v -0.248828 -0.166143 -0.738386
v 0.464787 -0.052975 0.106210
v 0.342082 0.201200 0.315799
v 0.299055 0.324304 -0.222202
v 0.216479 0.449240 0.095856
v 0.223670 0.378346 0.334018
v 0.158441 0.434917 0.249988
v 0.403712 -0.176960 -0.306076
v 0.276493 0.076286 -0.530388
v 0.336832 -0.189466 -0.612968
v 0.256393 -0.086882 -0.710830
v 0.257658 -0.186051 -0.721678
v 0.251476 -0.166143 -0.738386
vt 0.375000 0.000000
vt 0.625000 0.250000
vt 0.375000 0.250000
vt 0.375000 0.500000
vt 0.625000 0.500000
vt 0.375000 0.750000
vt 0.625000 1.000000
vt 0.375000 1.000000
vt 0.125000 0.750000
vt 0.125000 0.500000
vt 0.875000 0.500000
vt 0.625000 0.750000
vt 0.625000 0.000000
vt 0.375000 0.250000
vt 0.375000 0.000000
vt 0.625000 0.500000
vt 0.375000 0.500000
vt 0.375000 0.750000
vt 0.625000 0.750000
vt 0.375000 1.000000
vt 0.125000 0.750000
vt 0.125000 0.500000
vt 0.875000 0.500000
vt 0.375000 0.000000
vt 0.625000 0.250000
vt 0.375000 0.250000
vt 0.375000 0.500000
vt 0.625000 0.500000
vt 0.375000 0.750000
vt 0.625000 0.750000
vt 0.375000 1.000000
vt 0.125000 0.750000
vt 0.125000 0.500000
vt 0.625000 0.500000
vt 0.625000 0.750000
vt 0.375000 0.000000
vt 0.625000 0.250000
vt 0.375000 0.250000
vt 0.625000 0.500000
vt 0.375000 0.500000
vt 0.375000 0.750000
vt 0.625000 0.750000
vt 0.375000 1.000000
vt 0.125000 0.500000
vt 0.125000 0.750000
vt 0.875000 0.750000
vt 0.875000 0.750000
vt 0.625000 0.000000
vt 0.625000 0.250000
vt 0.625000 1.000000
vt 0.625000 1.000000
vt 0.375000 0.000000
vt 0.625000 0.250000
vt 0.375000 0.250000
vt 0.375000 0.500000
vt 0.625000 0.500000
vt 0.375000 0.750000
vt 0.625000 1.000000
vt 0.375000 1.000000
vt 0.125000 0.750000
vt 0.125000 0.500000
vt 0.875000 0.500000
vt 0.625000 0.750000
vt 0.375000 0.000000
vt 0.625000 0.250000
vt 0.375000 0.250000
vt 0.375000 0.500000
vt 0.625000 0.500000
vt 0.375000 0.750000
vt 0.625000 1.000000
vt 0.375000 1.000000
vt 0.125000 0.500000
vt 0.125000 0.750000
vt 0.875000 0.500000
vt 0.625000 0.750000
vt 0.375000 0.000000
vt 0.625000 0.250000
vt 0.375000 0.250000
vt 0.375000 0.500000
vt 0.625000 0.500000
vt 0.375000 0.750000
vt 0.625000 0.750000
vt 0.375000 1.000000
vt 0.125000 0.500000
vt 0.125000 0.750000
vt 0.625000 0.500000
vt 0.625000 0.750000
vt 0.375000 0.000000
vt 0.625000 0.250000
vt 0.375000 0.250000
vt 0.625000 0.500000
vt 0.375000 0.500000
vt 0.375000 0.750000
vt 0.625000 0.750000
vt 0.375000 1.000000
vt 0.125000 0.750000
vt 0.125000 0.500000
vt 0.875000 0.500000
vt 0.875000 0.500000
vt 0.625000 0.000000
vt 0.625000 0.250000
vt 0.625000 1.000000
vt 0.625000 1.000000
vt 1.000000 1.000000
vt 0.857143 0.500000
vt 1.000000 0.500000
vt 0.714286 1.000000
vt 0.714286 0.500000
vt 0.571429 1.000000
vt 0.571429 0.500000
vt 0.428571 0.500000
vt 0.428571 1.000000
vt 0.285714 0.500000
vt 0.714286 1.000000
vt 0.571429 1.000000
vt 0.285714 1.000000
vt 0.142857 0.500000
vt 0.000000 1.000000
vt 0.000000 0.500000
vt 0.428571 0.500000
vt 0.142857 1.000000
vt 0.285714 1.000000
vt 0.142857 1.000000
vt 0.142857 1.000000
vt 0.285714 1.000000
vt 0.428571 1.000000
vt 0.000000 1.000000
vt 0.857143 1.000000
vt 0.857143 1.000000
vt 0.142857 1.000000
vt 0.571429 1.000000
vt 0.428571 1.000000
vt 0.714286 1.000000
vt 0.000000 1.000000
vt 1.000000 1.000000
vt 0.857143 1.000000
vt 0.428571 1.000000
vt 0.571429 1.000000
vt 0.428571 1.000000
vt 0.571429 1.000000
vt 0.857143 1.000000
vt 0.714286 1.000000
vt 0.000000 1.000000
vt 0.285714 1.000000
vt 1.000000 1.000000
vt 0.857143 1.000000
vt 1.000000 1.000000
vt 0.857143 1.000000
vt 0.714286 1.000000
vt 0.142857 1.000000
vt 0.000000 1.000000
vt 0.285714 1.000000
vt 1.000000 1.000000
vt 0.285714 1.000000
vt 0.142857 1.000000
vt 0.142857 1.000000
vt 0.428571 1.000000
vt 0.714286 1.000000
vt 0.000000 1.000000
vt 0.571429 1.000000
vt 0.354132 0.033767
vt 0.483983 0.196595
vt 0.250000 0.490000
vt 0.571429 1.000000
vt 0.428571 1.000000
vt 0.857143 1.000000
vt 0.714286 1.000000
vt 0.000000 1.000000
vt 0.285714 1.000000
vt 1.000000 1.000000
vt 0.142857 0.500000
vt 0.285714 0.500000
vt 0.285714 0.500000
vt 1.000000 0.500000
vt 0.571429 0.500000
vt 0.714286 0.500000
vt 0.000000 0.500000
vt 0.857143 0.500000
vt 0.854132 0.033767
vt 0.645868 0.033767
vt 0.516017 0.196595
vt 0.428571 0.500000
vt 0.571429 0.500000
vt 0.714286 0.500000
vt 0.857143 0.500000
vt 0.142857 0.500000
vt 1.000000 0.500000
vt 1.000000 0.000000
vt 0.000000 1.000000
vt 0.000000 0.000000
vt 1.000000 1.000000
vt 1.000000 0.000000
vt 1.000000 1.000000
vt 0.000000 0.000000
vt 0.000000 1.000000
vt 0.000000 0.000000
vt 0.000000 1.000000
vt 0.000000 0.000000
vt 1.000000 0.000000
vt 0.000000 1.000000
vt 0.000000 0.000000
vt 1.000000 1.000000
vt 1.000000 0.000000
vt 1.000000 1.000000
vt 0.000000 0.000000
vt 0.000000 1.000000
vt 0.000000 0.000000
vt 0.000000 1.000000
vt 0.000000 0.000000
vt 0.625000 0.000000
vt 0.875000 0.750000
vt 0.625000 0.250000
vt 0.625000 1.000000
vt 0.875000 0.750000
vt 0.625000 0.000000
vt 0.625000 1.000000
vt 0.875000 0.500000
vt 0.875000 0.500000
vt 0.625000 0.000000
vt 0.625000 0.000000
vt 0.875000 0.750000
vt 0.625000 0.000000
vt 0.875000 0.750000
vt 0.625000 0.000000
vt 0.625000 1.000000
vt 0.875000 0.750000
vt 0.875000 0.750000
vt 0.625000 0.000000
vt 1.000000 1.000000
vt 0.437640 0.399638
vt 0.062360 0.399638
vt 0.016017 0.196595
vt 0.145868 0.033767
vt 0.562360 0.399638
vt 0.750000 0.490000
vt 0.937640 0.399638
vt 0.983983 0.196595
vt 0.000000 0.500000
vt 0.000000 1.000000
vt 0.000000 1.000000
vn -0.1476 0.5546 0.8189
vn -0.7890 -0.5972 -0.1443
vn -0.1511 -0.5599 0.8147
vn 0.7918 -0.5828 0.1827
vn 0.1821 -0.5726 -0.7993
vn 0.7955 0.5763 0.1871
vn -0.7852 0.6033 -0.1398
vn 0.1856 0.5775 -0.7950
vn -0.5819 0.8128 0.0274
vn -0.5727 -0.8197 -0.0080
vn -0.5727 -0.0276 0.8193
vn 0.5819 0.0079 -0.8132
vn 0.5727 -0.8197 -0.0080
vn 0.5727 -0.0276 0.8193
vn 0.5819 0.8128 0.0274
vn -0.5819 0.0079 -0.8132
vn -0.5718 0.5688 0.5911
vn -0.7068 -0.7066 -0.0348
vn -0.5718 -0.5748 0.5854
vn 0.5718 -0.5748 0.5854
vn 0.7068 -0.7066 -0.0348
vn 0.5718 0.5688 0.5911
vn 0.7068 0.7069 -0.0272
vn 0.5593 -0.5562 -0.6147
vn 0.5592 0.5623 -0.6091
vn -0.7868 0.5762 0.2210
vn -0.2162 -0.5727 -0.7907
vn -0.7833 -0.5827 0.2165
vn 0.7821 -0.5971 -0.1781
vn 0.1858 -0.5600 0.8074
vn 0.1826 0.5547 0.8118
vn 0.7785 0.6032 -0.1734
vn -0.2196 0.5776 -0.7862
vn -0.5592 0.5623 -0.6091
vn -0.7068 0.7069 -0.0272
vn -0.5593 -0.5562 -0.6147
vn -0.1476 -0.5546 -0.8189
vn -0.7890 0.5972 0.1443
vn -0.1511 0.5599 -0.8147
vn 0.7918 0.5828 -0.1827
vn 0.1821 0.5726 0.7993
vn 0.7955 -0.5763 -0.1871
vn -0.7852 -0.6033 0.1398
vn 0.1857 -0.5775 0.7950
vn -0.5727 0.0276 -0.8193
vn -0.5819 -0.0079 0.8132
vn -0.5727 0.8197 0.0080
vn 0.5727 0.8197 0.0080
vn 0.5819 -0.0079 0.8132
vn 0.5727 0.0276 -0.8193
vn -0.5819 -0.8128 -0.0274
vn 0.5819 -0.8128 -0.0274
vn -0.5718 -0.5688 -0.5911
vn -0.7068 0.7066 0.0348
vn -0.5718 0.5748 -0.5854
vn 0.5718 0.5748 -0.5854
vn 0.7068 0.7066 0.0348
vn 0.5718 -0.5688 -0.5911
vn 0.7068 -0.7069 0.0272
vn 0.5593 0.5562 0.6147
vn 0.5592 -0.5623 0.6091
vn -0.7868 -0.5762 -0.2210
vn -0.2162 0.5727 0.7907
vn -0.7833 0.5827 -0.2165
vn 0.7821 0.5971 0.1781
vn 0.1858 0.5600 -0.8074
vn 0.1826 -0.5547 -0.8118
vn 0.7785 -0.6032 0.1734
vn -0.5593 0.5562 0.6147
vn -0.7068 -0.7069 0.0272
vn -0.5592 -0.5623 0.6091
vn -0.0000 0.8587 -0.5124
vn 0.7497 0.4649 -0.4709
vn 0.0000 0.8268 -0.5625
vn 0.9669 -0.2550 -0.0080
vn 0.8640 -0.4374 -0.2493
vn 0.4162 -0.8607 0.2933
vn 0.3201 -0.9429 -0.0921
vn -0.3201 -0.9429 -0.0921
vn -0.4162 -0.8607 0.2933
vn -0.8640 -0.4374 -0.2493
vn 0.9534 -0.0878 0.2885
vn 0.4319 -0.6884 0.5827
vn -0.9669 -0.2550 -0.0080
vn -0.7497 0.4649 -0.4709
vn -0.3521 -0.8032 -0.4805
vn -0.7841 0.6027 -0.1485
vn -0.9731 0.0788 0.2163
vn -0.7509 0.6319 -0.1920
vn -0.7970 0.4770 -0.3706
vn -0.9534 -0.0878 0.2885
vn -0.4319 -0.6884 0.5827
vn -0.0000 0.9253 -0.3792
vn 0.7970 0.4770 -0.3706
vn 0.7841 0.6027 -0.1485
vn -0.7638 0.6308 -0.1368
vn 0.4200 -0.5061 0.7533
vn -0.4200 -0.5061 0.7533
vn 0.9731 0.0788 0.2163
vn -0.0000 0.9066 -0.4220
vn 0.7509 0.6319 -0.1920
vn -0.3890 -0.3893 0.8349
vn 0.3660 -0.4705 0.8029
vn -0.3660 -0.4705 0.8029
vn 0.3890 -0.3893 0.8349
vn 0.7638 0.6308 -0.1368
vn 0.9300 -0.0388 0.3656
vn -0.0000 0.9303 -0.3668
vn -0.9300 -0.0388 0.3656
vn 0.5760 0.7647 0.2890
vn -0.0000 0.9320 0.3624
vn 0.6733 0.6433 0.3646
vn 0.8093 0.1516 0.5674
vn -0.5760 0.7647 0.2890
vn 0.0000 0.9873 0.1589
vn -0.8093 0.1516 0.5674
vn -0.9164 -0.1383 0.3757
vn -0.5828 0.4675 0.6647
vn -0.6733 0.6433 0.3646
vn -0.4133 -0.8381 0.3560
vn 0.9164 -0.1383 0.3757
vn 0.4133 -0.8381 0.3560
vn 0.3273 -0.6829 0.6530
vn 0.7325 -0.1687 0.6596
vn 0.0000 0.7464 0.6655
vn -0.3273 -0.6829 0.6530
vn 0.5828 0.4675 0.6647
vn -0.7325 -0.1687 0.6596
vn -0.6931 0.5164 -0.5029
vn -0.5553 -0.1118 -0.8241
vn -0.8448 -0.2052 -0.4942
vn -0.0000 0.8560 -0.5169
vn 0.3521 -0.8032 -0.4805
vn 0.8448 -0.2052 -0.4942
vn 0.6931 0.5164 -0.5029
vn 0.2401 -0.4855 -0.8406
vn -0.2401 -0.4855 -0.8406
vn 0.5553 -0.1118 -0.8241
vn 0.4587 0.3829 -0.8019
vn -0.4587 0.3829 -0.8019
vn 0.0000 0.6110 -0.7916
vn -0.8797 0.4716 0.0607
vn -0.9342 0.3373 -0.1164
vn -0.9375 0.3372 -0.0858
vn -0.8199 0.5648 0.0941
vn -0.7473 0.6427 0.1687
vn -0.4360 0.8661 0.2446
vn -0.9415 0.2489 -0.2273
vn -0.9247 0.2676 -0.2708
vn -0.8984 0.2507 -0.3605
vn -0.8661 0.2090 -0.4541
vn -0.8692 0.0647 -0.4902
vn -0.8797 -0.4716 -0.0607
vn -0.9342 -0.3373 0.1164
vn -0.9375 -0.3372 0.0858
vn -0.8199 -0.5648 -0.0941
vn -0.7473 -0.6427 -0.1687
vn -0.4360 -0.8661 -0.2446
vn -0.9415 -0.2489 0.2273
vn -0.9247 -0.2676 0.2708
vn -0.8984 -0.2507 0.3605
vn -0.8661 -0.2090 0.4541
vn -0.8692 -0.0647 0.4902
vn -0.2196 -0.5776 0.7862
vn -0.9531 0.0449 -0.2992
vn -0.9532 -0.0449 0.2992
s 1
f 1/1/1 4/2/2 3/3/3
f 4/2/2 7/4/4 3/3/3
f 8/5/5 5/6/6 7/4/4
f 5/6/6 2/7/7 1/8/1
f 7/4/4 1/9/1 3/10/3
f 4/11/2 6/12/8 8/5/5
f 10/13/9 11/14/10 9/15/11
f 11/14/10 16/16/12 15/17/13
f 16/16/12 13/18/14 15/17/13
f 14/19/15 9/20/11 13/18/14
f 15/17/13 9/21/11 11/22/10
f 12/23/16 14/19/15 16/16/12
f 17/24/17 20/25/18 19/26/19
f 20/25/18 23/27/20 19/26/19
f 24/28/21 21/29/22 23/27/20
f 22/30/23 17/31/17 21/29/22
f 23/27/20 17/32/17 19/33/19
f 22/30/23 35/34/24 36/35/25
f 25/36/26 28/37/27 27/38/28
f 27/38/28 32/39/29 31/40/30
f 32/39/29 29/41/31 31/40/30
f 30/42/32 25/43/26 29/41/31
f 27/44/28 29/41/31 25/45/26
f 32/39/29 26/46/33 30/42/32
f 35/34/24 33/47/34 36/35/25
f 18/48/35 34/49/36 20/25/18
f 22/30/23 33/50/34 18/51/35
f 20/25/18 35/34/24 24/28/21
f 37/52/37 40/53/38 39/54/39
f 40/53/38 43/55/40 39/54/39
f 44/56/41 41/57/42 43/55/40
f 41/57/42 38/58/43 37/59/37
f 43/55/40 37/60/37 39/61/39
f 40/62/38 42/63/44 44/56/41
f 45/64/45 48/65/46 47/66/47
f 48/65/46 51/67/48 47/66/47
f 52/68/49 49/69/50 51/67/48
f 49/69/50 46/70/51 45/71/45
f 47/72/47 49/69/50 45/73/45
f 48/74/46 50/75/52 52/68/49
f 53/76/53 56/77/54 55/78/55
f 56/77/54 59/79/56 55/78/55
f 60/80/57 57/81/58 59/79/56
f 58/82/59 53/83/53 57/81/58
f 55/84/55 57/81/58 53/85/53
f 58/82/59 71/86/60 72/87/61
f 61/88/62 64/89/63 63/90/64
f 63/90/64 68/91/65 67/92/66
f 68/91/65 65/93/67 67/92/66
f 66/94/68 61/95/62 65/93/67
f 67/92/66 61/96/62 63/97/64
f 64/98/63 66/94/68 68/91/65
f 70/99/69 72/87/61 71/86/60
f 54/100/70 70/101/69 56/77/54
f 58/82/59 69/102/71 54/103/70
f 56/77/54 71/86/60 60/80/57
f 74/104/72 75/105/73 73/106/74
f 75/105/73 78/107/75 77/108/76
f 77/108/76 80/109/77 79/110/78
f 80/109/77 81/111/79 79/110/78
f 82/112/80 83/113/81 81/111/79
f 80/109/77 89/114/82 90/115/83
f 84/116/84 85/117/85 83/113/81
f 85/117/85 74/118/72 73/119/74
f 83/113/81 133/120/86 81/111/79
f 93/121/87 99/122/88 100/123/89
f 86/124/90 92/125/91 93/121/87
f 80/109/77 91/126/92 82/112/80
f 86/124/90 88/127/93 74/118/72
f 76/128/94 89/114/82 78/107/75
f 82/112/80 92/125/91 84/116/84
f 74/104/72 87/129/95 76/128/94
f 99/122/88 107/130/96 100/123/89
f 91/126/92 97/131/97 98/132/98
f 87/129/95 96/133/99 89/114/82
f 88/127/93 100/123/89 95/134/100
f 92/125/91 98/132/98 99/122/88
f 89/114/82 97/131/97 90/115/83
f 88/135/93 94/136/101 87/129/95
f 105/137/102 111/138/103 112/139/104
f 98/132/98 104/140/105 105/137/102
f 96/133/99 101/141/106 103/142/107
f 95/134/100 107/130/96 102/143/108
f 98/132/98 106/144/109 99/122/88
f 97/131/97 103/142/107 104/140/105
f 95/145/100 101/141/106 94/136/101
f 108/146/110 116/147/111 115/148/112
f 103/142/107 108/146/110 110/149/113
f 102/143/108 114/150/114 109/151/115
f 105/137/102 113/152/116 106/144/109
f 104/140/105 110/149/113 111/138/103
f 102/153/108 108/146/110 101/141/106
f 106/144/109 114/150/114 107/130/96
f 120/154/117 128/155/118 121/156/119
f 113/152/116 121/156/119 114/150/114
f 111/138/103 119/157/120 112/139/104
f 110/149/113 115/148/112 117/158/121
f 114/150/114 116/159/111 109/151/115
f 112/139/104 120/154/117 113/152/116
f 111/138/103 117/158/121 118/160/122
f 125/161/123 124/162/124 123/163/125
f 119/157/120 125/164/123 126/165/126
f 117/158/121 122/166/127 124/167/124
f 121/156/119 123/168/125 116/159/111
f 119/157/120 127/169/128 120/154/117
f 118/160/122 124/167/124 125/164/123
f 115/148/112 123/170/125 122/166/127
f 135/171/129 141/172/130 134/173/131
f 75/105/73 129/174/132 73/106/74
f 77/108/76 132/175/133 131/176/134
f 85/117/85 134/173/131 83/113/81
f 79/110/78 133/120/86 132/175/133
f 85/117/85 129/177/132 135/171/129
f 75/105/73 131/176/134 130/178/135
f 139/179/136 140/180/137 141/181/130
f 132/175/133 140/182/137 139/183/136
f 130/178/135 138/184/138 137/185/139
f 129/177/132 142/186/140 135/171/129
f 134/173/131 140/182/137 133/120/86
f 131/176/134 139/183/136 138/184/138
f 129/174/132 137/185/139 136/187/141
f 144/188/142 145/189/143 143/190/144
f 146/191/145 147/192/146 148/193/147
f 145/189/143 149/194/148 143/190/144
f 150/195/149 151/196/150 149/194/148
f 152/197/151 153/198/152 151/196/150
f 156/199/153 157/200/154 155/201/155
f 158/202/156 159/203/157 160/204/158
f 157/200/154 161/205/159 155/201/155
f 162/206/160 163/207/161 161/205/159
f 164/208/162 165/209/163 163/207/161
f 1/1/1 2/210/7 4/2/2
f 4/2/2 8/5/5 7/4/4
f 8/5/5 6/12/8 5/6/6
f 5/6/6 6/12/8 2/7/7
f 7/4/4 5/6/6 1/9/1
f 4/11/2 2/211/7 6/12/8
f 10/13/9 12/212/16 11/14/10
f 11/14/10 12/212/16 16/16/12
f 16/16/12 14/19/15 13/18/14
f 14/19/15 10/213/9 9/20/11
f 15/17/13 13/18/14 9/21/11
f 12/23/16 10/214/9 14/19/15
f 17/24/17 18/48/35 20/25/18
f 20/25/18 24/28/21 23/27/20
f 24/28/21 22/30/23 21/29/22
f 22/30/23 18/51/35 17/31/17
f 23/27/20 21/29/22 17/32/17
f 22/30/23 24/28/21 35/34/24
f 25/36/26 26/215/33 28/37/27
f 27/38/28 28/37/27 32/39/29
f 32/39/29 30/42/32 29/41/31
f 30/42/32 26/216/33 25/43/26
f 27/44/28 31/40/30 29/41/31
f 32/39/29 28/217/27 26/46/33
f 35/34/24 34/218/36 33/47/34
f 18/48/35 33/219/34 34/49/36
f 22/30/23 36/35/25 33/50/34
f 20/25/18 34/49/36 35/34/24
f 37/52/37 38/220/43 40/53/38
f 40/53/38 44/56/41 43/55/40
f 44/56/41 42/63/44 41/57/42
f 41/57/42 42/63/44 38/58/43
f 43/55/40 41/57/42 37/60/37
f 40/62/38 38/221/43 42/63/44
f 45/64/45 46/222/51 48/65/46
f 48/65/46 52/68/49 51/67/48
f 52/68/49 50/75/52 49/69/50
f 49/69/50 50/75/52 46/70/51
f 47/72/47 51/67/48 49/69/50
f 48/74/46 46/223/51 50/75/52
f 53/76/53 54/100/70 56/77/54
f 56/77/54 60/80/57 59/79/56
f 60/80/57 58/82/59 57/81/58
f 58/82/59 54/103/70 53/83/53
f 55/84/55 59/79/56 57/81/58
f 58/82/59 60/80/57 71/86/60
f 61/88/62 62/224/164 64/89/63
f 63/90/64 64/89/63 68/91/65
f 68/91/65 66/94/68 65/93/67
f 66/94/68 62/225/164 61/95/62
f 67/92/66 65/93/67 61/96/62
f 64/98/63 62/226/164 66/94/68
f 70/99/69 69/227/71 72/87/61
f 54/100/70 69/228/71 70/101/69
f 58/82/59 72/87/61 69/102/71
f 56/77/54 70/101/69 71/86/60
f 74/104/72 76/128/94 75/105/73
f 75/105/73 76/128/94 78/107/75
f 77/108/76 78/107/75 80/109/77
f 80/109/77 82/112/80 81/111/79
f 82/112/80 84/116/84 83/113/81
f 80/109/77 78/107/75 89/114/82
f 84/116/84 86/124/90 85/117/85
f 85/117/85 86/124/90 74/118/72
f 83/113/81 134/173/131 133/120/86
f 93/121/87 92/125/91 99/122/88
f 86/124/90 84/116/84 92/125/91
f 80/109/77 90/115/83 91/126/92
f 86/124/90 93/121/87 88/127/93
f 76/128/94 87/129/95 89/114/82
f 82/112/80 91/126/92 92/125/91
f 74/104/72 88/135/93 87/129/95
f 99/122/88 106/144/109 107/130/96
f 91/126/92 90/115/83 97/131/97
f 87/129/95 94/136/101 96/133/99
f 88/127/93 93/121/87 100/123/89
f 92/125/91 91/126/92 98/132/98
f 89/114/82 96/133/99 97/131/97
f 88/135/93 95/145/100 94/136/101
f 105/137/102 104/140/105 111/138/103
f 98/132/98 97/131/97 104/140/105
f 96/133/99 94/136/101 101/141/106
f 95/134/100 100/123/89 107/130/96
f 98/132/98 105/137/102 106/144/109
f 97/131/97 96/133/99 103/142/107
f 95/145/100 102/153/108 101/141/106
f 108/146/110 109/229/115 116/147/111
f 103/142/107 101/141/106 108/146/110
f 102/143/108 107/130/96 114/150/114
f 105/137/102 112/139/104 113/152/116
f 104/140/105 103/142/107 110/149/113
f 102/153/108 109/229/115 108/146/110
f 106/144/109 113/152/116 114/150/114
f 120/154/117 127/169/128 128/155/118
f 113/152/116 120/154/117 121/156/119
f 111/138/103 118/160/122 119/157/120
f 110/149/113 108/146/110 115/148/112
f 114/150/114 121/156/119 116/159/111
f 112/139/104 119/157/120 120/154/117
f 111/138/103 110/149/113 117/158/121
f 124/162/124 122/230/127 123/163/125
f 123/163/125 128/231/118 127/232/128
f 127/232/128 126/233/126 123/163/125
f 126/233/126 125/161/123 123/163/125
f 119/157/120 118/160/122 125/164/123
f 117/158/121 115/148/112 122/166/127
f 121/156/119 128/155/118 123/168/125
f 119/157/120 126/165/126 127/169/128
f 118/160/122 117/158/121 124/167/124
f 115/148/112 116/147/111 123/170/125
f 135/171/129 142/186/140 141/172/130
f 75/105/73 130/178/135 129/174/132
f 77/108/76 79/110/78 132/175/133
f 85/117/85 135/171/129 134/173/131
f 79/110/78 81/111/79 133/120/86
f 85/117/85 73/119/74 129/177/132
f 75/105/73 77/108/76 131/176/134
f 142/234/140 136/235/141 141/181/130
f 136/235/141 137/236/139 141/181/130
f 137/236/139 138/237/138 141/181/130
f 138/237/138 139/179/136 141/181/130
f 132/175/133 133/120/86 140/182/137
f 130/178/135 131/176/134 138/184/138
f 129/177/132 136/238/141 142/186/140
f 134/173/131 141/172/130 140/182/137
f 131/176/134 132/175/133 139/183/136
f 129/174/132 130/178/135 137/185/139
f 144/188/142 146/191/145 145/189/143
f 146/191/145 144/188/142 147/192/146
f 145/189/143 150/195/149 149/194/148
f 150/195/149 152/197/151 151/196/150
f 152/197/151 154/239/165 153/198/152
f 156/199/153 158/202/156 157/200/154
f 158/202/156 156/199/153 159/203/157
f 157/200/154 162/206/160 161/205/159
f 162/206/160 164/208/162 163/207/161
f 164/208/162 166/240/166 165/209/163
