# Blender v3.4.1 OBJ File: 'concrete-supports.blend'
# www.blender.org
o Cube
v -1.000000 1.000000 1.000000
v -1.000000 1.000000 -1.000000
v 1.000000 1.000000 1.000000
v 1.000000 -1.000000 1.000000
v 1.000000 1.000000 -1.000000
v 1.000000 -1.000000 -1.000000
v 0.126935 0.174901 -1.000000
v -0.132723 0.374144 -1.000000
v -1.000000 0.542113 -1.000000
v -0.759593 0.542113 -1.000000
v -0.435101 0.499393 -1.000000
v 0.494147 -1.000000 -1.000000
v 0.494147 -0.711627 -1.000000
v 0.326177 -0.084757 -1.000000
v 0.451427 -0.387135 -1.000000
v 0.494147 -1.000000 1.000000
v -1.000000 0.542113 1.000000
v 0.326177 -0.084757 1.000000
v 0.451427 -0.387135 1.000000
v -0.132723 0.374144 1.000000
v -0.435101 0.499393 1.000000
v 0.126935 0.174901 1.000000
v 0.494147 -0.711627 1.000000
v -0.759593 0.542113 1.000000
vt 0.875000 0.500000
vt 0.625000 0.750000
vt 0.625000 0.500000
vt 0.625000 1.000000
vt 0.521863 0.890867
vt 0.546768 0.858410
vt 0.625000 0.000000
vt 0.375000 0.250000
vt 0.375000 0.000000
vt 0.125000 0.500000
vt 0.188232 0.750000
vt 0.125000 0.750000
vt 0.567764 0.750000
vt 0.567764 0.500000
vt 0.625000 0.250000
vt 0.521863 0.359133
vt 0.489405 0.334228
vt 0.718283 0.550754
vt 0.688232 0.699246
vt 0.718283 0.699246
vt 0.468283 0.199246
vt 0.432236 0.050754
vt 0.432236 0.199246
vt 0.758844 0.699246
vt 0.796641 0.699246
vt 0.758844 0.550754
vt 0.875000 0.699246
vt 0.796641 0.550754
vt 0.546641 0.050754
vt 0.625000 0.199246
vt 0.625000 0.050754
vt 0.508844 0.050754
vt 0.546641 0.199246
vt 0.468283 0.050754
vt 0.508844 0.199246
vt 0.875000 0.750000
vt 0.567764 0.780051
vt 0.375000 1.000000
vt 0.451608 0.931428
vt 0.375000 0.936768
vt 0.411047 0.936768
vt 0.562424 0.820612
vt 0.489405 0.915772
vt 0.188232 0.500000
vt 0.375000 0.313232
vt 0.411047 0.313232
vt 0.451608 0.318572
vt 0.562424 0.429388
vt 0.567764 0.469949
vt 0.546768 0.391590
vt 0.688232 0.550754
vt 0.875000 0.550754
vn 0.0000 1.0000 0.0000
vn 0.0000 0.0000 -1.0000
vn 1.0000 0.0000 0.0000
vn 0.0000 -1.0000 0.0000
vn -1.0000 0.0000 0.0000
vn 0.0000 0.0000 1.0000
vn -0.0654 -0.9979 0.0000
vn -0.9979 -0.0654 0.0000
vn -0.2588 -0.9659 0.0000
vn -0.5000 -0.8660 0.0000
vn -0.7071 -0.7071 0.0000
vn -0.8660 -0.5000 0.0000
vn -0.9659 -0.2588 0.0000
s 1
f 3/1/1 2/2/1 1/3/1
f 5/4/2 7/5/2 8/6/2
f 5/7/3 4/8/3 6/9/3
f 4/10/4 12/11/4 6/12/4
f 1/3/5 9/13/5 17/14/5
f 3/15/6 22/16/6 18/17/6
f 24/18/7 9/19/4 10/20/7
f 23/21/8 12/22/5 16/23/5
f 11/24/9 24/18/7 10/20/7
f 8/25/10 21/26/9 11/24/9
f 7/27/11 20/28/10 8/25/10
f 14/29/12 22/30/11 7/31/11
f 15/32/13 18/33/12 14/29/12
f 13/34/8 19/35/13 15/32/13
f 3/1/1 5/36/1 2/2/1
f 10/37/2 9/13/2 2/2/2
f 5/4/2 6/38/2 15/39/2
f 6/38/2 12/40/2 13/41/2
f 6/38/2 13/41/2 15/39/2
f 10/37/2 2/2/2 11/42/2
f 2/2/2 5/4/2 11/42/2
f 5/4/2 15/39/2 14/43/2
f 8/6/2 11/42/2 5/4/2
f 5/4/2 14/43/2 7/5/2
f 5/7/3 3/15/3 4/8/3
f 4/10/4 16/44/4 12/11/4
f 1/3/5 2/2/5 9/13/5
f 16/45/6 4/8/6 23/46/6
f 4/8/6 3/15/6 19/47/6
f 23/46/6 4/8/6 19/47/6
f 3/15/6 1/3/6 21/48/6
f 1/3/6 17/14/6 24/49/6
f 1/3/6 24/49/6 21/48/6
f 3/15/6 21/48/6 20/50/6
f 18/17/6 19/47/6 3/15/6
f 3/15/6 20/50/6 22/16/6
f 24/18/7 17/51/4 9/19/4
f 23/21/8 13/34/8 12/22/5
f 11/24/9 21/26/9 24/18/7
f 8/25/10 20/28/10 21/26/9
f 7/27/11 22/52/11 20/28/10
f 14/29/12 18/33/12 22/30/11
f 15/32/13 19/35/13 18/33/12
f 13/34/8 23/21/8 19/35/13
