# Blender v3.4.1 OBJ File: 'umimura.blend'
# www.blender.org
o Dome_Roof_Icosphere
v 0.000000 0.834110 0.000000
v -0.072050 0.889151 -0.052347
v 0.027520 0.889151 -0.084699
v 0.089058 0.889151 0.000000
v 0.027520 0.889151 0.084699
v -0.072050 0.889151 0.052347
v -0.027520 0.978210 -0.084699
v 0.072050 0.978210 -0.052347
v 0.072050 0.978210 0.052347
v -0.027520 0.978210 0.084699
v -0.089058 0.978210 0.000000
v 0.000000 1.033250 0.000000
v 0.016176 0.848980 -0.049785
v -0.042349 0.848980 -0.030768
v -0.026174 0.881332 -0.080553
v -0.084699 0.881333 0.000000
v -0.042349 0.848980 0.030768
v 0.052347 0.848981 0.000000
v 0.068523 0.881333 -0.049785
v 0.016176 0.848980 0.049785
v 0.068523 0.881333 0.049785
v -0.026174 0.881332 0.080553
v -0.094697 0.933680 -0.030768
v -0.094697 0.933680 0.030768
v 0.000000 0.933680 -0.099570
v -0.058526 0.933680 -0.080554
v 0.094697 0.933680 -0.030768
v 0.058526 0.933680 -0.080554
v 0.058526 0.933680 0.080554
v 0.094697 0.933680 0.030768
v -0.058526 0.933680 0.080554
v 0.000000 0.933680 0.099570
v -0.068523 0.986028 -0.049785
v 0.026174 0.986028 -0.080553
v 0.084699 0.986028 0.000000
v 0.026174 0.986028 0.080553
v -0.068523 0.986028 0.049785
v -0.016176 1.018380 -0.049785
v -0.052347 1.018380 0.000000
v 0.042349 1.018380 -0.030768
v 0.042349 1.018380 0.030768
v -0.016176 1.018380 0.049785
v -0.218508 0.477261 0.218508
v -0.415627 0.335221 0.415627
v -0.572061 0.113989 0.572061
v -0.672499 -0.164779 0.672499
v -0.707107 -0.473796 0.707107
v -0.309017 0.477261 0.000000
v -0.587785 0.335221 0.000000
v -0.809017 0.113989 0.000000
v -0.951057 -0.164779 0.000000
v -1.000000 -0.473796 0.000000
v -0.218508 0.477261 -0.218508
v -0.415627 0.335221 -0.415627
v -0.572061 0.113989 -0.572061
v -0.672499 -0.164779 -0.672499
v -0.707107 -0.473796 -0.707107
v 0.000000 0.477261 -0.309017
v 0.000000 0.335221 -0.587785
v 0.000000 0.113989 -0.809017
v 0.000000 -0.164779 -0.951057
v 0.000000 -0.473796 -1.000000
v 0.218508 0.477261 -0.218508
v 0.415627 0.335221 -0.415627
v 0.572061 0.113989 -0.572061
v 0.672499 -0.164779 -0.672499
v 0.707107 -0.473796 -0.707107
v 0.000000 0.526204 0.000000
v 0.309017 0.477261 0.000000
v 0.587785 0.335221 0.000000
v 0.809017 0.113989 0.000000
v 0.951057 -0.164779 0.000000
v 1.000000 -0.473796 0.000000
v 0.218508 0.477261 0.218508
v 0.415627 0.335221 0.415627
v 0.572061 0.113989 0.572061
v 0.672499 -0.164779 0.672499
v 0.707107 -0.473796 0.707107
v 0.000000 0.477261 0.309017
v 0.000000 0.335221 0.587785
v 0.000000 0.113989 0.809017
v 0.000000 -0.164779 0.951057
v 0.000000 -0.473796 1.000000
v 0.938681 -0.560423 -1.127201
v 1.127201 -0.560423 -0.938681
v 1.032941 -0.560423 -1.101944
v 1.101944 -0.560423 -1.032941
v 1.042331 -0.453972 -0.868005
v 0.868005 -0.453972 -1.042331
v 1.018975 -0.453972 -0.955168
v 0.955168 -0.453972 -1.018975
v 1.127201 -0.560423 0.938681
v 0.938681 -0.560423 1.127201
v 1.101944 -0.560423 1.032941
v 1.032941 -0.560423 1.101944
v 0.868005 -0.453972 1.042331
v 1.042331 -0.453972 0.868005
v 0.955168 -0.453972 1.018975
v 1.018975 -0.453972 0.955168
v -1.127201 -0.560423 -0.938681
v -0.938681 -0.560423 -1.127201
v -1.101944 -0.560423 -1.032941
v -1.032941 -0.560423 -1.101944
v -0.868005 -0.453972 -1.042331
v -1.042331 -0.453972 -0.868005
v -0.955168 -0.453972 -1.018975
v -1.018975 -0.453972 -0.955168
v -0.938681 -0.560423 1.127201
v -1.127201 -0.560423 0.938681
v -1.032941 -0.560423 1.101944
v -1.101944 -0.560423 1.032941
v -1.042331 -0.453972 0.868005
v -0.868005 -0.453972 1.042331
v -1.018975 -0.453972 0.955168
v -0.955168 -0.453972 1.018975
v 0.000000 0.777993 0.035586
v -0.025163 0.777993 0.025163
v -0.035586 0.777993 0.000000
v -0.025163 0.777993 -0.025163
v 0.000000 0.777993 -0.035586
v 0.025163 0.777993 -0.025163
v 0.035586 0.777993 0.000000
v 0.025163 0.777993 0.025163
v 0.000000 1.001583 0.000000
v 0.000000 0.613698 0.069793
v -0.049351 0.613698 0.049351
v -0.069793 0.613698 0.000000
v -0.049351 0.613698 -0.049351
v 0.000000 0.613698 -0.069793
v 0.049351 0.613698 -0.049351
v 0.069793 0.613698 0.000000
v 0.049351 0.613698 0.049351
v 0.000000 0.495293 0.124152
v -0.087789 0.495293 0.087789
v -0.124152 0.495293 0.000000
v -0.087789 0.495293 -0.087789
v 0.000000 0.495293 -0.124152
v 0.087789 0.495293 -0.087789
v 0.124152 0.495293 0.000000
v 0.087789 0.495293 0.087789
vt 0.645437 0.796324
vt 0.644626 0.785809
vt 0.655187 0.792303
vt 0.644056 0.778435
vt 0.634374 0.783332
vt 0.652275 0.804353
vt 0.639914 0.805308
vt 0.635186 0.793847
vt 0.653297 0.879669
vt 0.645356 0.877902
vt 0.656085 0.871699
vt 0.861818 0.342985
vt 0.872205 0.342423
vt 0.864290 0.351477
vt 0.639879 0.907560
vt 0.632412 0.899988
vt 0.644380 0.899460
vt 0.877877 0.341040
vt 0.867451 0.342423
vt 0.871601 0.332724
vt 0.636891 0.871761
vt 0.627997 0.868036
vt 0.635713 0.860953
vt 0.882568 0.345861
vt 0.887016 0.355869
vt 0.876487 0.353168
vt 0.627997 0.890147
vt 0.632412 0.880198
vt 0.637396 0.889225
vt 0.650696 0.906994
vt 0.883890 0.332074
vt 0.646442 0.867051
vt 0.869102 0.361265
vt 0.879101 0.364923
vt 0.868521 0.370498
vt 0.648359 0.889247
vt 0.644380 0.879669
vt 0.655680 0.883999
vt 0.635692 0.845699
vt 0.627997 0.838050
vt 0.638512 0.838861
vt 0.887335 0.322249
vt 0.877161 0.321679
vt 0.882006 0.313507
vt 0.655144 0.861207
vt 0.646442 0.854750
vt 0.656085 0.851796
vt 0.651517 0.823588
vt 0.650563 0.835949
vt 0.642533 0.829112
vt 0.659547 0.830425
vt 0.636891 0.850833
vt 0.645356 0.845698
vt 0.646541 0.845699
vt 0.866428 0.323356
vt 0.869717 0.314157
vt 0.632019 0.828300
vt 0.655680 0.896230
vt 0.640056 0.818861
vt 0.629541 0.818049
vt 0.859367 0.362188
vt 0.649040 0.813337
vt 0.657818 0.819714
vt 0.860722 0.332028
vt 0.859558 0.320553
vt 0.887016 0.365861
vt 0.627997 0.855735
vt 0.887335 0.341371
vt 0.859368 0.339856
vt 0.629663 0.802830
vt 0.627997 0.792109
vt 0.636040 0.811608
vt 0.646751 0.813337
vt 0.657070 0.809985
vt 0.662024 0.800332
vt 0.662024 0.789482
vt 0.633957 0.878511
vt 0.654375 0.781788
vt 0.844347 0.689868
vt 0.777027 0.781333
vt 0.787373 0.664411
vt 0.547251 0.499019
vt 0.604768 0.522843
vt 0.547251 0.546668
vt 0.714173 0.777988
vt 0.725050 0.655050
vt 0.495363 0.477526
vt 0.495363 0.568160
vt 0.454185 0.585217
vt 0.454185 0.460470
vt 0.835547 0.789327
vt 0.777027 0.926583
vt 0.580943 0.580361
vt 0.714173 0.930713
vt 0.559451 0.632248
vt 0.884003 0.801189
vt 0.835547 0.912884
vt 0.963954 0.035732
vt 0.889348 0.117045
vt 0.906751 0.009370
vt 0.628592 0.580361
vt 0.826446 0.113216
vt 0.844744 0.000000
vt 0.650085 0.632248
vt 0.667141 0.673426
vt 0.542395 0.673426
vt 1.000000 0.143054
vt 0.949151 0.251975
vt 0.949151 0.127326
vt 0.889348 0.263578
vt 0.662285 0.546668
vt 0.826446 0.267290
vt 0.714173 0.568160
vt 0.714173 0.477526
vt 0.891482 0.434976
vt 0.836682 0.509236
vt 0.843086 0.400615
vt 0.777189 0.506697
vt 0.784717 0.379005
vt 0.662285 0.499019
vt 0.714173 0.506523
vt 0.722088 0.372261
vt 0.784717 0.647953
vt 0.722088 0.655050
vt 0.628592 0.465326
vt 0.650085 0.413439
vt 0.886829 0.513894
vt 0.843086 0.629397
vt 0.580943 0.465326
vt 0.535032 0.682840
vt 0.454185 0.787121
vt 0.473063 0.673426
vt 0.559451 0.413438
vt 0.542395 0.372261
vt 0.667141 0.372261
vt 0.592242 0.709205
vt 0.517079 0.790971
vt 0.576970 0.801187
vt 0.517079 0.937475
vt 0.454185 0.941164
vt 0.627997 0.816767
vt 0.576970 0.925810
vt 0.563218 0.000000
vt 0.826446 0.109033
vt 0.717413 0.372261
vt 0.943172 0.417381
vt 0.922027 0.754292
vt 0.918874 0.409958
vt 0.969378 0.415016
vt 0.948034 0.736765
vt 0.946087 0.410190
vt 0.419826 0.487933
vt 0.402501 0.874011
vt 0.016423 0.856687
vt 0.995221 0.412766
vt 0.974013 0.709689
vt 0.971179 0.409777
vt 0.915862 0.417368
vt 0.894739 0.753621
vt 0.891482 0.409965
vt 0.417514 0.890435
vt 0.419826 0.868501
vt 0.436249 0.884475
vt 0.997841 0.378074
vt 0.971862 0.391655
vt 0.974013 0.372261
vt 0.995852 0.396008
vt 0.916588 0.399475
vt 0.892267 0.390616
vt 0.918874 0.382502
vt 0.414315 0.470609
vt 0.436249 0.472921
vt 0.969812 0.397492
vt 0.946556 0.391240
vt 0.971179 0.379942
vt 0.016423 0.476119
vt 0.018735 0.454185
vt 0.033748 0.470609
vt 0.943874 0.399474
vt 0.919634 0.390592
vt 0.946087 0.382522
vt 0.021934 0.874011
vt 0.000000 0.871699
vt 0.454185 0.037980
vt 0.416205 0.454185
vt 0.000000 0.416205
vt 0.684843 0.717525
vt 0.696465 0.673426
vt 0.689151 0.718381
vt 0.694554 0.718967
vt 0.692063 0.837379
vt 0.695440 0.882635
vt 0.687991 0.837644
vt 0.682646 0.838867
vt 0.659641 0.732946
vt 0.662585 0.778435
vt 0.654886 0.733489
vt 0.649727 0.734674
vt 0.846565 0.328308
vt 0.846908 0.293650
vt 0.851907 0.327081
vt 0.856001 0.326830
vt 0.859368 0.372065
vt 0.639267 0.702538
vt 0.645995 0.675319
vt 0.649385 0.700214
vt 0.854937 0.293158
vt 0.683354 0.751520
vt 0.674905 0.749841
vt 0.658711 0.699150
vt 0.683009 0.804213
vt 0.690996 0.803694
vt 0.872904 0.313507
vt 0.859368 0.299970
vt 0.905585 0.280827
vt 0.672527 0.806614
vt 0.681231 0.778753
vt 0.693951 0.752668
vt 0.677614 0.775787
vt 0.859368 0.267290
vt 0.662585 0.673426
vt 0.695440 0.777830
vt 0.662585 0.772801
vt 0.836430 0.296056
vt 0.845086 0.268165
vt 0.884003 0.890959
vt 1.000000 0.233616
vt 0.891482 0.601195
vt 0.627997 0.907312
vt 0.563218 0.372261
vt 0.454185 0.263228
vt 0.454185 0.109033
vt 0.717413 0.000000
vt 0.826446 0.263228
vt 0.946087 0.735789
vt 0.971179 0.717002
vt 0.000285 0.507313
vt 0.004175 0.489554
vt 0.383122 0.454470
vt 0.400881 0.458360
vt 0.435964 0.837308
vt 0.432074 0.855066
vt 0.053127 0.890150
vt 0.035368 0.886260
vt 0.997841 0.690096
vt 0.918874 0.735148
vt 0.894739 0.372261
vt 0.430290 0.454185
vt 0.948034 0.372261
vt 0.000000 0.460145
vt 0.922027 0.372261
vt 0.005959 0.890435
vt 0.000000 0.037980
vt 0.037980 0.000000
vt 0.005088 0.018990
vt 0.018990 0.005088
vt 0.416205 0.000000
vt 0.435195 0.005088
vt 0.449097 0.018990
vt 0.454185 0.416205
vt 0.449097 0.435195
vt 0.435195 0.449097
vt 0.037980 0.454185
vt 0.018990 0.449097
vt 0.005088 0.435195
vt 0.627997 0.679452
vt 0.859368 0.280827
vt 0.872904 0.267290
vt 0.892048 0.267290
vt 0.905585 0.299970
vt 0.892048 0.313507
vt 0.662585 0.783023
vt 0.696465 0.777830
vt 0.826446 0.272446
vn 0.0000 -1.0000 -0.0000
vn -0.4253 -0.8507 -0.3090
vn 0.1625 -0.8507 -0.5000
vn -0.7236 -0.4472 -0.5257
vn -0.8506 -0.5257 0.0000
vn 0.5257 -0.8507 0.0000
vn 0.1625 -0.8507 0.5000
vn -0.4253 -0.8507 0.3090
vn -0.9511 -0.0000 -0.3090
vn 0.2764 -0.4472 -0.8506
vn -0.2629 -0.5257 -0.8090
vn -0.0000 -0.0000 -1.0000
vn 0.8944 -0.4472 0.0000
vn 0.6882 -0.5257 -0.5000
vn 0.9511 0.0000 -0.3090
vn 0.2764 -0.4472 0.8506
vn 0.6882 -0.5257 0.5000
vn 0.5878 -0.0000 0.8090
vn -0.7236 -0.4472 0.5257
vn -0.2629 -0.5257 0.8090
vn -0.5878 0.0000 0.8090
vn -0.5878 0.0000 -0.8090
vn 0.5878 -0.0000 -0.8090
vn 0.9511 0.0000 0.3090
vn -0.0000 -0.0000 1.0000
vn -0.9511 -0.0000 0.3090
vn -0.2764 0.4472 -0.8506
vn -0.6882 0.5257 -0.5000
vn -0.1625 0.8507 -0.5000
vn 0.7236 0.4472 -0.5257
vn 0.2629 0.5257 -0.8090
vn 0.4253 0.8507 -0.3090
vn 0.7236 0.4472 0.5257
vn 0.8506 0.5257 -0.0000
vn 0.4253 0.8507 0.3090
vn -0.2764 0.4472 0.8506
vn 0.2629 0.5257 0.8090
vn -0.1625 0.8507 0.5000
vn -0.8944 0.4472 0.0000
vn -0.6882 0.5257 0.5000
vn -0.5257 0.8507 0.0000
vn -0.0000 1.0000 -0.0000
vn -0.3221 0.5398 0.7777
vn -0.3677 0.2774 0.8876
vn -0.0000 0.9392 0.3434
vn -0.2428 0.9392 0.2428
vn -0.3787 0.1448 0.9141
vn 0.0000 0.7908 0.6120
vn -0.4328 0.7908 0.4328
vn -0.7777 0.5398 0.3221
vn -0.8876 0.2774 0.3677
vn -0.3434 0.9392 -0.0000
vn -0.9141 0.1448 0.3787
vn -0.6120 0.7908 -0.0000
vn -0.7777 0.5398 -0.3221
vn -0.8876 0.2774 -0.3677
vn -0.2428 0.9392 -0.2428
vn -0.9141 0.1448 -0.3787
vn -0.4328 0.7908 -0.4328
vn -0.3221 0.5398 -0.7777
vn -0.3677 0.2774 -0.8876
vn 0.0000 0.9392 -0.3434
vn -0.3787 0.1448 -0.9141
vn -0.0000 0.7908 -0.6120
vn 0.4328 0.7908 -0.4328
vn 0.3221 0.5398 -0.7777
vn 0.3677 0.2774 -0.8876
vn 0.2428 0.9392 -0.2428
vn 0.3787 0.1448 -0.9141
vn 0.9141 0.1448 -0.3787
vn 0.8876 0.2774 -0.3677
vn 0.3434 0.9392 0.0000
vn 0.6120 0.7908 0.0000
vn 0.7777 0.5398 -0.3221
vn 0.2428 0.9392 0.2428
vn 0.8876 0.2774 0.3677
vn 0.9141 0.1448 0.3787
vn 0.4328 0.7908 0.4328
vn 0.7777 0.5398 0.3221
vn 0.3221 0.5398 0.7777
vn 0.3677 0.2774 0.8876
vn 0.3787 0.1448 0.9141
vn -0.0723 0.6507 -0.7559
vn 0.1198 0.6663 -0.7360
vn -0.1198 0.6663 -0.7360
vn -0.7559 0.6507 0.0723
vn -0.7360 0.6663 -0.1198
vn -0.7360 0.6663 0.1198
vn 0.7559 0.6507 -0.0723
vn 0.7360 0.6663 0.1198
vn 0.7360 0.6663 -0.1198
vn 0.0723 0.6507 0.7559
vn -0.1198 0.6663 0.7360
vn 0.1198 0.6663 0.7360
vn 0.3277 0.7180 -0.6140
vn 0.3595 0.7227 -0.5903
vn 0.5903 0.7227 -0.3595
vn 0.6140 0.7180 -0.3277
vn 0.3277 0.7180 0.6140
vn 0.3595 0.7227 0.5903
vn 0.6140 0.7180 0.3277
vn 0.7559 0.6507 0.0723
vn -0.6140 0.7180 0.3277
vn -0.5903 0.7227 0.3595
vn -0.3277 0.7180 0.6140
vn -0.0723 0.6507 0.7559
vn -0.3277 0.7180 -0.6140
vn -0.3595 0.7227 -0.5903
vn -0.6140 0.7180 -0.3277
vn -0.7559 0.6507 -0.0723
vn -0.3772 0.1682 0.9107
vn -0.3786 0.1455 0.9141
vn -0.9107 0.1682 0.3772
vn -0.9141 0.1455 0.3786
vn -0.9107 0.1682 -0.3772
vn -0.9141 0.1455 -0.3786
vn -0.3772 0.1682 -0.9107
vn -0.3786 0.1455 -0.9141
vn 0.3772 0.1682 -0.9107
vn 0.3786 0.1455 -0.9141
vn 0.9107 0.1682 -0.3772
vn 0.9141 0.1455 -0.3786
vn 0.3772 0.1682 0.9107
vn 0.3652 0.2988 0.8817
vn 0.9107 0.1682 0.3772
vn 0.9141 0.1455 0.3786
vn 0.3786 0.1455 0.9141
vn 0.8817 0.2988 -0.3652
vn 0.8505 0.3905 -0.3523
vn 0.8817 0.2988 0.3652
vn -0.3652 0.2988 0.8817
vn 0.3652 0.2988 -0.8817
vn -0.3652 0.2988 -0.8817
vn -0.8817 0.2988 -0.3652
vn -0.8817 0.2988 0.3652
vn -0.3523 0.3905 -0.8505
vn -0.8505 0.3905 0.3523
vn 0.8505 0.3905 0.3523
vn 0.3523 0.3905 -0.8505
vn -0.8505 0.3905 -0.3523
vn -0.3523 0.3905 0.8505
vn 0.3523 0.3905 0.8505
vn 0.0723 0.6507 -0.7559
vn 0.5903 0.7227 0.3595
vn -0.3595 0.7227 0.5903
vn -0.5903 0.7227 -0.3595
s 1
f 1/1/1 14/2/2 13/3/3
f 2/4/4 14/2/2 16/5/5
f 1/1/1 13/3/3 18/6/6
f 1/1/1 18/6/6 20/7/7
f 1/1/1 20/7/7 17/8/8
f 2/9/4 16/10/5 23/11/9
f 3/12/10 15/13/11 25/14/12
f 4/15/13 19/16/14 27/17/15
f 5/18/16 21/19/17 29/20/18
f 6/21/19 22/22/20 31/23/21
f 2/24/4 23/25/9 26/26/22
f 3/27/10 25/28/12 28/29/23
f 4/15/13 27/17/15 30/30/24
f 5/18/16 29/20/18 32/31/25
f 6/21/19 31/23/21 24/32/26
f 7/33/27 33/34/28 38/35/29
f 8/36/30 34/37/31 40/38/32
f 9/39/33 35/40/34 41/41/35
f 10/42/36 36/43/37 42/44/38
f 11/45/39 37/46/40 39/47/41
f 39/48/41 42/49/38 12/50/42
f 39/48/41 37/51/40 42/49/38
f 37/46/40 10/52/36 42/53/38
f 42/49/38 41/41/35 12/50/42
f 42/49/38 36/54/37 41/41/35
f 36/43/37 9/55/33 41/56/35
f 41/41/35 40/57/32 12/50/42
f 41/41/35 35/40/34 40/57/32
f 35/58/34 8/36/30 40/38/32
f 40/57/32 38/59/29 12/50/42
f 40/57/32 34/60/31 38/59/29
f 34/61/31 7/33/27 38/35/29
f 38/59/29 39/48/41 12/50/42
f 38/59/29 33/62/28 39/48/41
f 33/62/28 11/63/39 39/48/41
f 24/32/26 37/46/40 11/45/39
f 24/32/26 31/23/21 37/46/40
f 31/23/21 10/52/36 37/46/40
f 32/31/25 36/43/37 10/42/36
f 32/31/25 29/20/18 36/43/37
f 29/20/18 9/55/33 36/43/37
f 30/64/24 35/65/34 9/55/33
f 30/30/24 27/17/15 35/58/34
f 27/17/15 8/36/30 35/58/34
f 28/29/23 34/37/31 8/36/30
f 28/29/23 25/28/12 34/37/31
f 25/14/12 7/33/27 34/61/31
f 26/26/22 33/34/28 7/33/27
f 26/26/22 23/25/9 33/34/28
f 23/25/9 11/66/39 33/34/28
f 31/23/21 32/67/25 10/52/36
f 31/23/21 22/22/20 32/67/25
f 22/68/20 5/18/16 32/31/25
f 29/20/18 30/64/24 9/55/33
f 29/20/18 21/19/17 30/64/24
f 21/19/17 4/69/13 30/64/24
f 27/17/15 28/29/23 8/36/30
f 27/17/15 19/16/14 28/29/23
f 19/16/14 3/27/10 28/29/23
f 25/14/12 26/26/22 7/33/27
f 25/14/12 15/13/11 26/26/22
f 15/13/11 2/24/4 26/26/22
f 23/11/9 24/32/26 11/45/39
f 23/11/9 16/10/5 24/32/26
f 16/10/5 6/21/19 24/32/26
f 17/8/8 22/70/20 6/71/19
f 17/8/8 20/7/7 22/70/20
f 20/7/7 5/72/16 22/70/20
f 20/7/7 21/73/17 5/72/16
f 20/7/7 18/6/6 21/73/17
f 18/6/6 4/74/13 21/73/17
f 18/6/6 19/75/14 4/74/13
f 18/6/6 13/3/3 19/75/14
f 13/3/3 3/76/10 19/75/14
f 16/10/5 17/77/8 6/21/19
f 16/5/5 14/2/2 17/8/8
f 14/2/2 1/1/1 17/8/8
f 13/3/3 15/78/11 3/76/10
f 13/3/3 14/2/2 15/78/11
f 14/2/2 2/4/4 15/78/11
f 81/79/43 46/80/44 82/81/44
f 79/82/45 68/83/42 43/84/46
f 82/81/44 47/85/47 83/86/47
f 80/87/48 43/84/46 44/88/49
f 80/87/48 45/89/43 81/90/43
f 45/91/50 51/92/51 46/80/51
f 43/84/46 68/83/42 48/93/52
f 46/80/51 52/94/53 47/85/53
f 44/88/49 48/93/52 49/95/54
f 44/96/49 50/97/50 45/91/50
f 50/98/55 56/99/56 51/100/56
f 48/93/52 68/83/42 53/101/57
f 51/100/56 57/102/58 52/103/58
f 48/93/52 54/104/59 49/95/54
f 49/95/54 55/105/55 50/106/55
f 54/107/59 60/108/60 55/109/60
f 55/109/60 61/110/61 56/99/61
f 53/101/57 68/83/42 58/111/62
f 57/102/63 61/110/61 62/112/63
f 54/104/59 58/111/62 59/113/64
f 58/111/62 64/114/65 59/113/64
f 59/115/64 65/116/66 60/117/66
f 60/117/66 66/118/67 61/119/67
f 58/111/62 68/83/42 63/120/68
f 61/119/67 67/121/69 62/122/69
f 67/121/70 72/123/71 73/124/70
f 64/114/65 69/125/72 70/126/73
f 64/127/65 71/128/74 65/116/74
f 65/116/74 72/123/71 66/118/71
f 63/120/68 68/83/42 69/125/72
f 69/125/72 68/83/42 74/129/75
f 72/130/76 78/131/77 73/132/77
f 69/125/72 75/133/78 70/126/73
f 70/126/73 76/134/79 71/135/79
f 71/136/79 77/137/76 72/130/76
f 76/138/80 82/139/81 77/137/81
f 74/129/75 68/83/42 79/82/45
f 78/131/82 82/139/81 83/140/82
f 75/133/78 79/82/45 80/87/48
f 75/141/78 81/142/80 76/138/80
f 47/143/1 57/144/1 67/145/1
f 104/146/83 84/147/84 101/148/85
f 112/149/86 100/150/87 109/151/88
f 97/152/42 89/153/42 105/154/42
f 88/155/89 92/156/90 85/157/91
f 96/158/92 108/159/93 93/160/94
f 84/161/84 91/162/95 86/163/96
f 91/164/95 87/165/97 86/166/96
f 90/167/98 85/157/91 87/165/97
f 93/160/94 98/168/99 96/158/92
f 95/169/100 99/170/101 98/168/99
f 99/171/101 92/172/90 97/152/102
f 109/151/88 114/173/103 112/149/86
f 111/174/104 115/175/105 114/173/103
f 115/176/105 108/177/93 113/178/106
f 101/148/85 106/179/107 104/146/83
f 103/180/108 107/181/109 106/179/107
f 107/182/109 100/183/87 105/154/110
f 109/184/1 101/185/1 85/186/1
f 116/187/111 124/188/112 117/189/111
f 117/189/113 124/188/114 118/190/113
f 118/191/115 124/192/116 119/193/115
f 119/193/117 124/192/118 120/194/117
f 120/195/119 124/196/120 121/197/119
f 121/197/121 124/196/122 122/198/121
f 116/199/123 132/200/124 123/201/123
f 122/202/125 124/203/126 123/201/125
f 123/201/123 124/203/127 116/199/123
f 131/204/128 138/205/129 130/206/128
f 122/202/125 132/200/130 131/207/130
f 122/198/121 130/206/128 121/197/121
f 116/187/111 126/208/131 125/209/131
f 120/195/119 130/206/132 129/210/132
f 120/194/117 128/211/133 119/193/117
f 118/191/115 128/211/134 127/212/134
f 118/190/113 126/208/135 117/189/113
f 139/213/1 140/214/1 136/215/1
f 129/216/133 136/217/136 128/211/133
f 127/218/135 134/219/137 126/208/135
f 132/200/130 139/220/138 131/207/130
f 130/206/132 137/221/139 129/210/132
f 128/211/134 135/222/140 127/212/134
f 126/208/131 133/223/141 125/209/131
f 125/224/124 140/225/142 132/200/124
f 81/79/43 45/91/43 46/80/44
f 82/81/44 46/80/44 47/85/47
f 80/87/48 79/82/45 43/84/46
f 80/87/48 44/88/49 45/89/43
f 45/91/50 50/97/50 51/92/51
f 46/80/51 51/92/51 52/94/53
f 44/88/49 43/84/46 48/93/52
f 44/96/49 49/226/54 50/97/50
f 50/98/55 55/109/55 56/99/56
f 51/100/56 56/99/56 57/102/58
f 48/93/52 53/101/57 54/104/59
f 49/95/54 54/104/59 55/105/55
f 54/107/59 59/227/64 60/108/60
f 55/109/60 60/108/60 61/110/61
f 57/102/63 56/99/61 61/110/61
f 54/104/59 53/101/57 58/111/62
f 58/111/62 63/120/68 64/114/65
f 59/115/64 64/127/65 65/116/66
f 60/117/66 65/116/66 66/118/67
f 61/119/67 66/118/67 67/121/69
f 67/121/70 66/118/71 72/123/71
f 64/114/65 63/120/68 69/125/72
f 64/127/65 70/228/73 71/128/74
f 65/116/74 71/128/74 72/123/71
f 72/130/76 77/137/76 78/131/77
f 69/125/72 74/129/75 75/133/78
f 70/126/73 75/133/78 76/134/79
f 71/136/79 76/138/79 77/137/76
f 76/138/80 81/142/80 82/139/81
f 78/131/82 77/137/81 82/139/81
f 75/133/78 74/129/75 79/82/45
f 75/141/78 80/229/48 81/142/80
f 67/145/1 73/230/1 78/231/1
f 78/231/1 83/232/1 47/143/1
f 47/143/1 52/233/1 57/144/1
f 57/144/1 62/234/1 67/145/1
f 67/145/1 78/231/1 47/143/1
f 104/146/83 89/235/143 84/147/84
f 112/149/86 105/236/110 100/150/87
f 105/154/42 112/237/42 113/178/42
f 112/237/42 114/238/42 113/178/42
f 114/238/42 115/176/42 113/178/42
f 113/178/42 96/239/42 97/152/42
f 96/239/42 98/240/42 97/152/42
f 98/240/42 99/171/42 97/152/42
f 97/152/42 88/241/42 89/153/42
f 88/241/42 90/242/42 89/153/42
f 90/242/42 91/162/42 89/153/42
f 89/153/42 104/243/42 105/154/42
f 104/243/42 106/244/42 105/154/42
f 106/244/42 107/182/42 105/154/42
f 105/154/42 113/178/42 97/152/42
f 88/155/89 97/245/102 92/156/90
f 96/158/92 113/246/106 108/159/93
f 84/161/84 89/153/143 91/162/95
f 91/164/95 90/167/98 87/165/97
f 90/167/98 88/155/89 85/157/91
f 93/160/94 95/169/100 98/168/99
f 95/169/100 94/247/144 99/170/101
f 99/171/101 94/248/144 92/172/90
f 109/151/88 111/174/104 114/173/103
f 111/174/104 110/249/145 115/175/105
f 115/176/105 110/250/145 108/177/93
f 101/148/85 103/180/108 106/179/107
f 103/180/108 102/251/146 107/181/109
f 107/182/109 102/252/146 100/183/87
f 85/186/1 92/253/1 93/254/1
f 92/253/1 94/255/1 93/254/1
f 94/255/1 95/256/1 93/254/1
f 93/254/1 108/257/1 109/184/1
f 108/257/1 110/258/1 109/184/1
f 110/258/1 111/259/1 109/184/1
f 109/184/1 100/260/1 101/185/1
f 100/260/1 102/261/1 101/185/1
f 102/261/1 103/262/1 101/185/1
f 101/185/1 84/263/1 85/186/1
f 84/263/1 86/264/1 85/186/1
f 86/264/1 87/265/1 85/186/1
f 85/186/1 93/254/1 109/184/1
f 116/199/123 125/224/124 132/200/124
f 131/204/128 139/266/129 138/205/129
f 122/202/125 123/201/125 132/200/130
f 122/198/121 131/204/128 130/206/128
f 116/187/111 117/189/111 126/208/131
f 120/195/119 121/197/119 130/206/132
f 120/194/117 129/216/133 128/211/133
f 118/191/115 119/193/115 128/211/134
f 118/190/113 127/218/135 126/208/135
f 140/214/1 133/267/1 134/268/1
f 134/268/1 135/269/1 140/214/1
f 135/269/1 136/215/1 140/214/1
f 136/215/1 137/270/1 138/271/1
f 138/271/1 139/213/1 136/215/1
f 129/216/133 137/272/136 136/217/136
f 127/218/135 135/273/137 134/219/137
f 132/200/130 140/225/138 139/220/138
f 130/206/132 138/205/139 137/221/139
f 128/211/134 136/217/140 135/222/140
f 126/208/131 134/219/141 133/223/141
f 125/224/124 133/274/142 140/225/142
