# Blender v3.4.1 OBJ File: ''
# www.blender.org
o Cube
v -0.589757 1.000000 0.063671
v -0.589757 -1.000000 0.063671
v -0.589757 1.000000 -0.063671
v -0.589757 -1.000000 -0.063671
v 0.589757 1.000000 0.063671
v 0.589757 -1.000000 0.063671
v 0.589757 1.000000 -0.063671
v 0.589757 -1.000000 -0.063671
vt 1.000000 0.860629
vt 0.953543 0.430314
vt 1.000000 0.430314
vt 0.430314 0.729646
vt 0.000000 0.000000
vt 0.430314 0.000000
vt 0.953543 0.729646
vt 0.907086 0.000000
vt 0.953543 0.000000
vt 1.000000 0.430314
vt 1.000000 0.000000
vt 0.907086 0.729646
vt 0.860629 0.000000
vt 0.907086 0.000000
vt 0.860629 0.729646
vt 0.430314 0.000000
vt 0.860629 0.000000
vt 0.953543 0.860629
vt 0.000000 0.729646
vt 0.907086 0.729646
vt 0.953543 0.430314
vt 0.860629 0.729646
vt 0.430314 0.729646
vn 0.0000 1.0000 0.0000
vn 0.0000 0.0000 -1.0000
vn 1.0000 0.0000 0.0000
vn 0.0000 -1.0000 0.0000
vn -1.0000 0.0000 0.0000
vn 0.0000 0.0000 1.0000
s off
f 5/1/1 3/2/1 1/3/1
f 3/4/2 8/5/2 4/6/2
f 7/7/3 6/8/3 8/9/3
f 2/10/4 8/9/4 6/11/4
f 1/12/5 4/13/5 2/14/5
f 5/15/6 2/16/6 6/17/6
f 5/1/1 7/18/1 3/2/1
f 3/4/2 7/19/2 8/5/2
f 7/7/3 5/20/3 6/8/3
f 2/10/4 4/21/4 8/9/4
f 1/12/5 3/22/5 4/13/5
f 5/15/6 1/23/6 2/16/6
