# Blender v3.4.1 OBJ File: 'environment.blend'
# www.blender.org
o Icosphere_Icosphere.001
v -0.010114 -2.632741 -0.012383
v 0.775033 -2.050913 0.525901
v -0.273803 -2.076393 0.846302
v -1.083069 -2.137875 -0.106815
v -0.404471 -2.102618 -0.971989
v 0.773978 -2.050803 -0.527187
v 0.269263 0.374852 0.791323
v -0.599481 0.373737 0.459951
v -0.438137 0.346656 -0.383239
v 0.286040 0.435760 -0.825222
v 0.823968 0.406589 -0.017459
v 0.015468 0.824454 -0.014332
v -0.236828 -2.290217 0.711600
v -0.171369 -2.485535 0.493766
v -0.088147 -2.602568 0.230165
v 0.221298 -2.589548 0.145178
v 0.462343 -2.463017 0.309264
v 0.656543 -2.264072 0.443258
v 0.579141 -2.108725 0.682104
v 0.301041 -2.137548 0.809405
v -0.007030 -2.122328 0.863411
v 0.865425 -2.105174 -0.295127
v 0.903409 -2.128567 0.000107
v 0.865032 -2.105428 0.295369
v 0.214357 -2.590818 -0.155542
v 0.456529 -2.463933 -0.313222
v 0.653870 -2.264268 -0.445018
v -0.909344 -2.340500 -0.082791
v -0.630240 -2.517749 -0.053813
v -0.301436 -2.616046 -0.028292
v -0.514993 -2.145426 0.702765
v -0.771884 -2.187670 0.462993
v -0.973667 -2.182044 0.167083
v -0.335999 -2.309930 -0.809062
v -0.230617 -2.497154 -0.557622
v -0.111731 -2.607127 -0.267641
v -1.036522 -2.194697 -0.365390
v -0.889049 -2.211285 -0.639966
v -0.654203 -2.173445 -0.854023
v -0.097618 -2.140300 -0.946139
v 0.256309 -2.146153 -0.849079
v 0.566012 -2.110935 -0.693834
v 0.848424 0.211532 0.115211
v 1.005915 -1.601477 0.309013
v 0.914853 -1.853081 0.442894
v 0.915097 -1.852907 -0.442876
v 1.005915 -1.601477 -0.309013
v 0.931856 0.241472 -0.152811
v 0.184686 0.215569 0.901344
v 0.038785 -1.610901 0.999829
v -0.133011 -1.870770 0.953864
v 0.739637 -1.854165 0.681837
v 0.640871 -1.602621 0.809107
v 0.386960 0.189887 0.780311
v -0.855800 0.202170 0.458636
v -1.096300 -1.672739 0.217949
v -1.135482 -1.937282 0.043869
v -0.443652 -1.883588 0.855653
v -0.608874 -1.635278 0.791286
v -0.666253 0.210631 0.629352
v -0.446871 0.037667 -0.523627
v -0.799782 -1.674237 -1.000324
v -0.610569 -1.917396 -1.023328
v -1.180541 -1.946503 -0.290383
v -1.194931 -1.693048 -0.486799
v -0.537248 0.002352 -0.314782
v 0.438593 0.247348 -0.856718
v 0.624301 -1.605725 -0.826004
v 0.733994 -1.854990 -0.687864
v -0.261578 -1.896642 -1.073953
v -0.070112 -1.632869 -1.101517
v 0.169388 0.231394 -0.925561
v 0.689439 0.402515 0.183937
v 0.527131 0.378444 0.394314
v 0.399837 0.381748 0.629156
v 0.060847 0.419902 0.768800
v -0.180030 0.432944 0.671272
v -0.397518 0.409948 0.554242
v -0.615719 0.394016 0.261754
v -0.554696 0.385136 0.010557
v -0.502158 0.379609 -0.213394
v -0.334401 0.417266 -0.534305
v -0.163238 0.473153 -0.703568
v 0.065603 0.476929 -0.807774
v 0.482990 0.494838 -0.706201
v 0.683187 0.520866 -0.496688
v 0.813576 0.490469 -0.240177
v 0.069533 0.758418 0.165974
v 0.128820 0.643835 0.375871
v 0.202898 0.511951 0.616866
v 0.673808 0.575578 -0.022700
v 0.447916 0.708481 -0.027539
v 0.211891 0.803994 -0.021731
v -0.132173 0.778418 0.105274
v -0.289767 0.674947 0.242385
v -0.427964 0.524992 0.357823
v -0.133079 0.808375 -0.131417
v -0.290707 0.718332 -0.260570
v -0.398155 0.553847 -0.351612
v 0.084569 0.824738 -0.212149
v 0.169595 0.751805 -0.453242
v 0.244207 0.623897 -0.680218
v 0.332193 0.767532 -0.251336
v 0.595123 0.667392 -0.261385
v 0.433613 0.678443 -0.497459
v -0.082139 0.765252 -0.377940
v -0.007380 0.658834 -0.617810
v -0.234302 0.633329 -0.499418
v -0.305765 0.717086 -0.005746
v -0.440177 0.585391 -0.122383
v -0.443557 0.565662 0.123834
v -0.091708 0.691443 0.326167
v -0.252778 0.580267 0.465780
v -0.028817 0.565973 0.549548
v 0.288213 0.683743 0.183231
v 0.346701 0.536403 0.405240
v 0.505720 0.560599 0.189126
v 0.861584 0.276299 -0.425348
v 0.862265 -1.601821 -0.589514
v 0.670846 0.276322 -0.688106
v -0.090487 0.207482 -0.880967
v -0.455034 -1.653887 -1.105161
v -0.309494 0.118458 -0.717897
v -0.655943 0.035580 -0.094254
v -1.205514 -1.687124 -0.137848
v -0.834357 0.142180 0.201849
v -0.341906 0.206345 0.724092
v -0.291425 -1.620646 0.947225
v -0.072062 0.223185 0.853616
v 0.516756 0.163896 0.571648
v 0.863667 -1.601614 0.587794
v 0.671359 0.176567 0.334010
v 0.303960 -1.615988 -1.002536
v 0.466270 -1.887630 -0.878426
v 0.100281 -1.902935 -1.021445
v -1.056625 -1.688494 -0.786948
v -0.892696 -1.960176 -0.864424
v -1.102137 -1.971458 -0.593786
v -0.887718 -1.653879 0.539673
v -0.981464 -1.946834 0.362491
v -0.725394 -1.926168 0.660963
v 0.357941 -1.605298 0.951348
v 0.176853 -1.887748 0.951268
v 0.495495 -1.882124 0.850985
v 1.054857 -1.601477 0.000000
v 1.001803 -1.878046 0.162471
v 1.001869 -1.878003 -0.162447
v 0.379235 -2.339427 -0.604827
v 0.130292 -2.521551 -0.448674
v 0.015291 -2.356379 -0.739224
v -0.585276 -2.391322 -0.625666
v -0.454025 -2.553360 -0.321170
v -0.796285 -2.403213 -0.358301
v -0.739934 -2.391994 0.216713
v -0.413287 -2.545338 0.240027
v -0.491618 -2.372661 0.508085
v 0.718504 -2.329562 -0.162253
v 0.718514 -2.329697 0.162808
v 0.483166 -2.506937 -0.000336
v 0.072801 -2.345184 0.687386
v 0.156739 -2.516551 0.424073
v 0.399412 -2.335773 0.588188
vt 0.181819 0.000000
vt 0.204546 0.039365
vt 0.159092 0.039365
vt 0.272728 0.157461
vt 0.295455 0.118096
vt 0.318182 0.157461
vt 0.909091 0.000000
vt 0.931818 0.039365
vt 0.886364 0.039365
vt 0.727273 0.000000
vt 0.750000 0.039365
vt 0.704546 0.039365
vt 0.545455 0.000000
vt 0.568182 0.039365
vt 0.522728 0.039365
vt 0.295455 0.196826
vt 0.090910 0.157461
vt 0.136364 0.157461
vt 0.113637 0.196826
vt 0.818182 0.157461
vt 0.863636 0.157461
vt 0.840909 0.196826
vt 0.636364 0.157461
vt 0.681818 0.157461
vt 0.659091 0.196826
vt 0.454546 0.157461
vt 0.500000 0.157461
vt 0.477273 0.196826
vt 0.250001 0.196826
vt 0.068182 0.196826
vt 0.795455 0.196826
vt 0.613637 0.196826
vt 0.431819 0.196826
vt 0.181819 0.314921
vt 0.227273 0.314921
vt 0.204546 0.354286
vt 0.000000 0.314921
vt 0.045455 0.314921
vt 0.022727 0.354286
vt 0.727273 0.314921
vt 0.772727 0.314921
vt 0.750000 0.354286
vt 0.545455 0.314921
vt 0.590909 0.314921
vt 0.568182 0.354286
vt 0.363637 0.314921
vt 0.409091 0.314921
vt 0.386364 0.354286
vt 0.431819 0.433017
vt 0.477273 0.433017
vt 0.454546 0.472382
vt 0.409091 0.393651
vt 0.454546 0.393651
vt 0.431819 0.354286
vt 0.500000 0.393651
vt 0.477273 0.354286
vt 0.522728 0.354286
vt 0.454546 0.314921
vt 0.500000 0.314921
vt 0.613637 0.433017
vt 0.659091 0.433017
vt 0.636364 0.472382
vt 0.590909 0.393651
vt 0.636364 0.393651
vt 0.613637 0.354286
vt 0.681818 0.393651
vt 0.659091 0.354286
vt 0.704546 0.354286
vt 0.636364 0.314921
vt 0.681818 0.314921
vt 0.795455 0.433017
vt 0.840909 0.433017
vt 0.818182 0.472382
vt 0.772727 0.393651
vt 0.818182 0.393651
vt 0.795455 0.354286
vt 0.863636 0.393651
vt 0.840909 0.354286
vt 0.886364 0.354286
vt 0.818182 0.314921
vt 0.863636 0.314921
vt 0.909091 0.314921
vt 0.068182 0.433017
vt 0.113637 0.433017
vt 0.090910 0.472382
vt 0.045455 0.393651
vt 0.090910 0.393651
vt 0.068182 0.354286
vt 0.136365 0.393651
vt 0.113637 0.354286
vt 0.159092 0.354286
vt 0.090909 0.314921
vt 0.136364 0.314921
vt 0.250001 0.433017
vt 0.295455 0.433017
vt 0.272728 0.472382
vt 0.227273 0.393651
vt 0.272728 0.393651
vt 0.250001 0.354286
vt 0.318182 0.393651
vt 0.295455 0.354286
vt 0.340910 0.354286
vt 0.272728 0.314921
vt 0.318182 0.314921
vt 0.386364 0.275556
vt 0.409091 0.236191
vt 0.431819 0.275556
vt 0.454546 0.236191
vt 0.477273 0.275556
vt 0.500000 0.236191
vt 0.522728 0.275556
vt 0.568182 0.275556
vt 0.590909 0.236191
vt 0.613637 0.275556
vt 0.636364 0.236191
vt 0.659091 0.275556
vt 0.681818 0.236191
vt 0.704546 0.275556
vt 0.750000 0.275556
vt 0.772727 0.236191
vt 0.795455 0.275556
vt 0.818182 0.236191
vt 0.840909 0.275556
vt 0.863636 0.236191
vt 0.886364 0.275556
vt 0.022727 0.275556
vt 0.045455 0.236191
vt 0.068182 0.275556
vt 0.090910 0.236191
vt 0.113637 0.275556
vt 0.136364 0.236191
vt 0.159092 0.275556
vt 0.204546 0.275556
vt 0.227273 0.236191
vt 0.250001 0.275556
vt 0.272728 0.236191
vt 0.295455 0.275556
vt 0.318182 0.236191
vt 0.340910 0.275556
vt 0.545455 0.236191
vt 0.522728 0.196826
vt 0.568182 0.196826
vt 0.545455 0.157461
vt 0.590909 0.157461
vt 0.727273 0.236191
vt 0.704546 0.196826
vt 0.750000 0.196826
vt 0.727273 0.157461
vt 0.772727 0.157461
vt 0.931818 0.275556
vt 0.909091 0.236191
vt 0.886364 0.196826
vt 0.954545 0.236191
vt 0.931818 0.196826
vt 0.977273 0.196826
vt 0.909091 0.157461
vt 0.954545 0.157461
vt 1.000000 0.157461
vt 0.181819 0.236191
vt 0.159092 0.196826
vt 0.204546 0.196826
vt 0.181819 0.157461
vt 0.227274 0.157461
vt 0.363637 0.236191
vt 0.340910 0.196826
vt 0.386364 0.196826
vt 0.363637 0.157461
vt 0.409092 0.157461
vt 0.477273 0.118096
vt 0.500000 0.078731
vt 0.522728 0.118096
vt 0.545455 0.078731
vt 0.568182 0.118096
vt 0.590909 0.078731
vt 0.613637 0.118096
vt 0.659091 0.118096
vt 0.681818 0.078731
vt 0.704546 0.118096
vt 0.727273 0.078731
vt 0.750000 0.118096
vt 0.772727 0.078731
vt 0.795455 0.118096
vt 0.840909 0.118096
vt 0.863636 0.078731
vt 0.886364 0.118096
vt 0.909091 0.078731
vt 0.931818 0.118096
vt 0.954545 0.078731
vt 0.977273 0.118096
vt 0.431819 0.118096
vt 0.386364 0.118096
vt 0.340910 0.118096
vt 0.409091 0.078731
vt 0.363637 0.078730
vt 0.386364 0.039365
vt 0.318182 0.078731
vt 0.340910 0.039365
vt 0.363637 0.000000
vt 0.113637 0.118096
vt 0.136365 0.078731
vt 0.159092 0.118096
vt 0.181819 0.078731
vt 0.204546 0.118096
vt 0.227273 0.078731
vt 0.250001 0.118096
vn 0.0496 -0.9987 0.0076
vn 0.2296 -0.9612 0.1527
vn -0.0332 -0.9657 0.2577
vn 0.7200 -0.4515 0.5271
vn 0.6010 -0.6677 0.4393
vn 0.8121 -0.5084 0.2866
vn -0.1733 -0.9846 0.0239
vn -0.0021 -0.9739 -0.2271
vn 0.2379 -0.9598 -0.1486
vn 0.8633 -0.2464 0.4405
vn -0.2524 -0.4355 0.8641
vn -0.0084 -0.4973 0.8675
vn -0.1420 -0.2357 0.9614
vn -0.8496 -0.5151 0.1136
vn -0.7663 -0.5359 0.3543
vn -0.9261 -0.2481 0.2842
vn -0.1073 -0.5252 -0.8442
vn -0.3349 -0.6188 -0.7106
vn -0.2788 -0.3258 -0.9034
vn 0.7191 -0.4525 -0.5274
vn 0.5328 -0.5088 -0.6762
vn 0.6845 -0.2479 -0.6855
vn 0.6814 -0.2469 0.6890
vn -0.4174 -0.2252 0.8804
vn -0.9547 -0.2940 -0.0452
vn 0.0117 -0.2908 -0.9567
vn 0.8629 -0.2461 -0.4414
vn 0.3880 0.5977 0.7016
vn 0.6835 0.5649 0.4623
vn 0.2618 0.8384 0.4781
vn -0.4949 0.7884 0.3653
vn -0.3966 0.6646 0.6333
vn -0.5556 0.7650 0.3257
vn -0.8805 0.2194 -0.4203
vn -0.9064 0.2913 -0.3059
vn -0.8064 0.4524 -0.3808
vn 0.1845 0.4962 -0.8484
vn -0.1632 0.5427 -0.8239
vn 0.1278 0.7638 -0.6326
vn 0.7988 0.5063 0.3249
vn 0.7923 0.6057 -0.0734
vn 0.5987 0.7401 0.3062
vn 0.2483 0.9496 0.1914
vn 0.0415 0.9900 -0.1350
vn -0.0198 0.9869 0.1599
vn 0.4194 0.8735 0.2473
vn 0.2875 0.9522 -0.1029
vn 0.5074 0.8584 -0.0757
vn 0.0783 0.9294 -0.3606
vn 0.3489 0.8514 -0.3918
vn 0.6459 0.6183 -0.4477
vn 0.4396 0.5752 -0.6898
vn -0.2858 0.9571 -0.0468
vn -0.2283 0.9104 -0.3452
vn -0.2086 0.7788 -0.5915
vn -0.5659 0.7936 -0.2235
vn -0.5480 0.6534 -0.5222
vn -0.5358 0.4731 -0.6993
vn -0.7752 0.3211 -0.5440
vn -0.2259 0.9389 0.2596
vn -0.5693 0.8187 0.0754
vn -0.8187 0.5650 -0.1026
vn -0.4617 0.8360 0.2966
vn -0.7273 0.6832 0.0657
vn -0.8418 0.4864 -0.2338
vn -0.6782 0.7341 -0.0348
vn 0.1206 0.9135 0.3885
vn -0.0819 0.8934 0.4417
vn -0.3379 0.7847 0.5197
vn 0.2071 0.8742 0.4392
vn -0.0580 0.8396 0.5400
vn -0.3269 0.6326 0.7020
vn -0.0855 0.6816 0.7267
vn 0.3539 0.8386 0.4140
vn 0.4826 0.7708 0.4159
vn 0.5115 0.7234 0.4636
vn 0.6986 0.5179 0.4937
vn 0.6668 0.5128 0.5408
vn 0.9723 0.2306 0.0390
vn 0.9515 -0.0348 -0.3058
vn 0.8820 0.2424 -0.4041
vn 0.8072 -0.0373 -0.5891
vn 0.6790 0.2371 -0.6948
vn 0.5969 -0.0454 -0.8010
vn 0.4089 0.2134 -0.8873
vn 0.0287 0.2306 -0.9726
vn 0.1253 -0.0283 -0.9917
vn -0.4045 0.2656 -0.8751
vn -0.1620 0.0102 -0.9867
vn -0.7312 0.2642 -0.6289
vn -0.4932 0.0490 -0.8685
vn -0.8615 0.2767 -0.4257
vn -0.8646 0.2870 -0.4123
vn -0.9650 0.0931 -0.2451
vn -0.8147 0.3078 -0.4914
vn -0.9926 0.0647 0.1029
vn -0.8633 0.3942 -0.3151
vn -0.9125 0.0023 0.4091
vn -0.8430 0.4446 0.3028
vn -0.4738 0.3907 0.7892
vn -0.5544 -0.0120 0.8321
vn -0.3692 0.3143 0.8746
vn -0.3055 -0.0075 0.9522
vn -0.2960 0.2969 0.9079
vn -0.0048 -0.0293 0.9996
vn 0.1596 0.2628 0.9516
vn 0.6959 0.2192 0.6839
vn 0.5909 -0.0034 0.8068
vn 0.8240 0.2427 0.5119
vn 0.8090 0.0202 0.5875
vn 0.7690 0.2568 0.5854
vn 0.9487 0.0071 0.3160
vn 0.8436 0.2450 0.4778
vn 0.3676 -0.0497 -0.9287
vn 0.4721 -0.2820 -0.8352
vn 0.2461 -0.2960 -0.9229
vn 0.3222 -0.5384 -0.7787
vn 0.1076 -0.5435 -0.8325
vn -0.7949 0.0751 -0.6021
vn -0.5808 -0.3827 -0.7185
vn -0.8379 -0.3715 -0.3998
vn -0.5787 -0.6617 -0.4767
vn -0.7647 -0.6201 -0.1752
vn -0.7592 -0.0292 0.6502
vn -0.8078 -0.2566 0.5307
vn -0.6331 -0.2492 0.7329
vn -0.6281 -0.5270 0.5725
vn -0.4483 -0.4917 0.7465
vn 0.3092 -0.0349 0.9503
vn 0.1452 -0.2716 0.9514
vn 0.4366 -0.2753 0.8565
vn 0.2641 -0.5246 0.8094
vn 0.5203 -0.5064 0.6876
vn 0.9997 -0.0249 0.0078
vn 0.9488 -0.2751 0.1555
vn 0.9489 -0.2749 -0.1551
vn 0.8477 -0.5305 0.0002
vn 0.8113 -0.5092 -0.2872
vn 0.6009 -0.6686 -0.4382
vn 0.4319 -0.8484 -0.3059
vn 0.3794 -0.7283 -0.5706
vn 0.1929 -0.8900 -0.4131
vn 0.1495 -0.7458 -0.6491
vn -0.0465 -0.8835 -0.4661
vn -0.0810 -0.7288 -0.6799
vn -0.3016 -0.8208 -0.4851
vn -0.2458 -0.9416 -0.2303
vn -0.5118 -0.8321 -0.2137
vn -0.4187 -0.9067 0.0516
vn -0.6593 -0.7470 0.0854
vn -0.5504 -0.7636 0.3376
vn -0.2928 -0.9077 0.3004
vn -0.3910 -0.7316 0.5585
vn -0.1208 -0.8489 0.5145
vn -0.1978 -0.6579 0.7267
vn 0.6636 -0.7316 -0.1563
vn 0.6646 -0.7310 0.1547
vn 0.4570 -0.8895 -0.0016
vn 0.4277 -0.8498 0.3081
vn 0.0756 -0.7223 0.6874
vn 0.1594 -0.8863 0.4348
vn 0.3565 -0.7263 0.5877
s 1
f 1/1/1 16/2/2 15/3/3
f 2/4/4 18/5/5 24/6/6
f 1/7/1 15/8/3 30/9/7
f 1/10/1 30/11/7 36/12/8
f 1/13/1 36/14/8 25/15/9
f 2/4/4 24/6/6 45/16/10
f 3/17/11 21/18/12 51/19/13
f 4/20/14 33/21/15 57/22/16
f 5/23/17 39/24/18 63/25/19
f 6/26/20 42/27/21 69/28/22
f 2/4/4 45/16/10 52/29/23
f 3/17/11 51/19/13 58/30/24
f 4/20/14 57/22/16 64/31/25
f 5/23/17 63/25/19 70/32/26
f 6/26/20 69/28/22 46/33/27
f 7/34/28 75/35/29 90/36/30
f 8/37/31 78/38/32 96/39/33
f 9/40/34 81/41/35 99/42/36
f 10/43/37 84/44/38 102/45/39
f 11/46/40 87/47/41 91/48/42
f 93/49/43 100/50/44 12/51/45
f 92/52/46 103/53/47 93/49/43
f 91/48/42 104/54/48 92/52/46
f 93/49/43 103/53/47 100/50/44
f 103/53/47 101/55/49 100/50/44
f 92/52/46 104/54/48 103/53/47
f 104/54/48 105/56/50 103/53/47
f 103/53/47 105/56/50 101/55/49
f 105/56/50 102/57/39 101/55/49
f 91/48/42 87/47/41 104/54/48
f 87/47/41 86/58/51 104/54/48
f 104/54/48 86/58/51 105/56/50
f 86/58/51 85/59/52 105/56/50
f 105/56/50 85/59/52 102/57/39
f 85/59/52 10/43/37 102/57/39
f 100/60/44 97/61/53 12/62/45
f 101/63/49 106/64/54 100/60/44
f 102/45/39 107/65/55 101/63/49
f 100/60/44 106/64/54 97/61/53
f 106/64/54 98/66/56 97/61/53
f 101/63/49 107/65/55 106/64/54
f 107/65/55 108/67/57 106/64/54
f 106/64/54 108/67/57 98/66/56
f 108/67/57 99/68/36 98/66/56
f 102/45/39 84/44/38 107/65/55
f 84/44/38 83/69/58 107/65/55
f 107/65/55 83/69/58 108/67/57
f 83/69/58 82/70/59 108/67/57
f 108/67/57 82/70/59 99/68/36
f 82/70/59 9/40/34 99/68/36
f 97/71/53 94/72/60 12/73/45
f 98/74/56 109/75/61 97/71/53
f 99/42/36 110/76/62 98/74/56
f 97/71/53 109/75/61 94/72/60
f 109/75/61 95/77/63 94/72/60
f 98/74/56 110/76/62 109/75/61
f 110/76/62 111/78/64 109/75/61
f 109/75/61 111/78/64 95/77/63
f 111/78/64 96/79/33 95/77/63
f 99/42/36 81/41/35 110/76/62
f 81/41/35 80/80/65 110/76/62
f 110/76/62 80/80/65 111/78/64
f 80/80/65 79/81/66 111/78/64
f 111/78/64 79/81/66 96/79/33
f 79/81/66 8/82/31 96/79/33
f 94/83/60 88/84/67 12/85/45
f 95/86/63 112/87/68 94/83/60
f 96/39/33 113/88/69 95/86/63
f 94/83/60 112/87/68 88/84/67
f 112/87/68 89/89/70 88/84/67
f 95/86/63 113/88/69 112/87/68
f 113/88/69 114/90/71 112/87/68
f 112/87/68 114/90/71 89/89/70
f 114/90/71 90/91/30 89/89/70
f 96/39/33 78/38/32 113/88/69
f 78/38/32 77/92/72 113/88/69
f 113/88/69 77/92/72 114/90/71
f 77/92/72 76/93/73 114/90/71
f 114/90/71 76/93/73 90/91/30
f 76/93/73 7/34/28 90/91/30
f 88/94/67 93/95/43 12/96/45
f 89/97/70 115/98/74 88/94/67
f 90/36/30 116/99/75 89/97/70
f 88/94/67 115/98/74 93/95/43
f 115/98/74 92/100/46 93/95/43
f 89/97/70 116/99/75 115/98/74
f 116/99/75 117/101/76 115/98/74
f 115/98/74 117/101/76 92/100/46
f 117/101/76 91/102/42 92/100/46
f 90/36/30 75/35/29 116/99/75
f 75/35/29 74/103/77 116/99/75
f 116/99/75 74/103/77 117/101/76
f 74/103/77 73/104/78 117/101/76
f 117/101/76 73/104/78 91/102/42
f 73/104/78 11/46/40 91/102/42
f 48/105/79 87/47/41 11/46/40
f 47/106/80 118/107/81 48/105/79
f 46/33/27 119/108/82 47/106/80
f 48/105/79 118/107/81 87/47/41
f 118/107/81 86/58/51 87/47/41
f 47/106/80 119/108/82 118/107/81
f 119/108/82 120/109/83 118/107/81
f 118/107/81 120/109/83 86/58/51
f 120/109/83 85/59/52 86/58/51
f 46/33/27 69/28/22 119/108/82
f 69/28/22 68/110/84 119/108/82
f 119/108/82 68/110/84 120/109/83
f 68/110/84 67/111/85 120/109/83
f 120/109/83 67/111/85 85/59/52
f 67/111/85 10/43/37 85/59/52
f 72/112/86 84/44/38 10/43/37
f 71/113/87 121/114/88 72/112/86
f 70/32/26 122/115/89 71/113/87
f 72/112/86 121/114/88 84/44/38
f 121/114/88 83/69/58 84/44/38
f 71/113/87 122/115/89 121/114/88
f 122/115/89 123/116/90 121/114/88
f 121/114/88 123/116/90 83/69/58
f 123/116/90 82/70/59 83/69/58
f 70/32/26 63/25/19 122/115/89
f 63/25/19 62/117/91 122/115/89
f 122/115/89 62/117/91 123/116/90
f 62/117/91 61/118/92 123/116/90
f 123/116/90 61/118/92 82/70/59
f 61/118/92 9/40/34 82/70/59
f 66/119/93 81/41/35 9/40/34
f 65/120/94 124/121/95 66/119/93
f 64/31/25 125/122/96 65/120/94
f 66/119/93 124/121/95 81/41/35
f 124/121/95 80/80/65 81/41/35
f 65/120/94 125/122/96 124/121/95
f 125/122/96 126/123/97 124/121/95
f 124/121/95 126/123/97 80/80/65
f 126/123/97 79/81/66 80/80/65
f 64/31/25 57/22/16 125/122/96
f 57/22/16 56/124/98 125/122/96
f 125/122/96 56/124/98 126/123/97
f 56/124/98 55/125/99 126/123/97
f 126/123/97 55/125/99 79/81/66
f 55/125/99 8/82/31 79/81/66
f 60/126/100 78/38/32 8/37/31
f 59/127/101 127/128/102 60/126/100
f 58/30/24 128/129/103 59/127/101
f 60/126/100 127/128/102 78/38/32
f 127/128/102 77/92/72 78/38/32
f 59/127/101 128/129/103 127/128/102
f 128/129/103 129/130/104 127/128/102
f 127/128/102 129/130/104 77/92/72
f 129/130/104 76/93/73 77/92/72
f 58/30/24 51/19/13 128/129/103
f 51/19/13 50/131/105 128/129/103
f 128/129/103 50/131/105 129/130/104
f 50/131/105 49/132/106 129/130/104
f 129/130/104 49/132/106 76/93/73
f 49/132/106 7/34/28 76/93/73
f 54/133/107 75/35/29 7/34/28
f 53/134/108 130/135/109 54/133/107
f 52/29/23 131/136/110 53/134/108
f 54/133/107 130/135/109 75/35/29
f 130/135/109 74/103/77 75/35/29
f 53/134/108 131/136/110 130/135/109
f 131/136/110 132/137/111 130/135/109
f 130/135/109 132/137/111 74/103/77
f 132/137/111 73/104/78 74/103/77
f 52/29/23 45/16/10 131/136/110
f 45/16/10 44/138/112 131/136/110
f 131/136/110 44/138/112 132/137/111
f 44/138/112 43/139/113 132/137/111
f 132/137/111 43/139/113 73/104/78
f 43/139/113 11/46/40 73/104/78
f 67/111/85 72/112/86 10/43/37
f 68/110/84 133/140/114 67/111/85
f 69/28/22 134/141/115 68/110/84
f 67/111/85 133/140/114 72/112/86
f 133/140/114 71/113/87 72/112/86
f 68/110/84 134/141/115 133/140/114
f 134/141/115 135/142/116 133/140/114
f 133/140/114 135/142/116 71/113/87
f 135/142/116 70/32/26 71/113/87
f 69/28/22 42/27/21 134/141/115
f 42/27/21 41/143/117 134/141/115
f 134/141/115 41/143/117 135/142/116
f 41/143/117 40/144/118 135/142/116
f 135/142/116 40/144/118 70/32/26
f 40/144/118 5/23/17 70/32/26
f 61/118/92 66/119/93 9/40/34
f 62/117/91 136/145/119 61/118/92
f 63/25/19 137/146/120 62/117/91
f 61/118/92 136/145/119 66/119/93
f 136/145/119 65/120/94 66/119/93
f 62/117/91 137/146/120 136/145/119
f 137/146/120 138/147/121 136/145/119
f 136/145/119 138/147/121 65/120/94
f 138/147/121 64/31/25 65/120/94
f 63/25/19 39/24/18 137/146/120
f 39/24/18 38/148/122 137/146/120
f 137/146/120 38/148/122 138/147/121
f 38/148/122 37/149/123 138/147/121
f 138/147/121 37/149/123 64/31/25
f 37/149/123 4/20/14 64/31/25
f 55/125/99 60/150/100 8/82/31
f 56/124/98 139/151/124 55/125/99
f 57/22/16 140/152/125 56/124/98
f 55/125/99 139/151/124 60/150/100
f 139/151/124 59/153/101 60/150/100
f 56/124/98 140/152/125 139/151/124
f 140/152/125 141/154/126 139/151/124
f 139/151/124 141/154/126 59/153/101
f 141/154/126 58/155/24 59/153/101
f 57/22/16 33/21/15 140/152/125
f 33/21/15 32/156/127 140/152/125
f 140/152/125 32/156/127 141/154/126
f 32/156/127 31/157/128 141/154/126
f 141/154/126 31/157/128 58/155/24
f 31/157/128 3/158/11 58/155/24
f 49/132/106 54/133/107 7/34/28
f 50/131/105 142/159/129 49/132/106
f 51/19/13 143/160/130 50/131/105
f 49/132/106 142/159/129 54/133/107
f 142/159/129 53/134/108 54/133/107
f 50/131/105 143/160/130 142/159/129
f 143/160/130 144/161/131 142/159/129
f 142/159/129 144/161/131 53/134/108
f 144/161/131 52/29/23 53/134/108
f 51/19/13 21/18/12 143/160/130
f 21/18/12 20/162/132 143/160/130
f 143/160/130 20/162/132 144/161/131
f 20/162/132 19/163/133 144/161/131
f 144/161/131 19/163/133 52/29/23
f 19/163/133 2/4/4 52/29/23
f 43/139/113 48/105/79 11/46/40
f 44/138/112 145/164/134 43/139/113
f 45/16/10 146/165/135 44/138/112
f 43/139/113 145/164/134 48/105/79
f 145/164/134 47/106/80 48/105/79
f 44/138/112 146/165/135 145/164/134
f 146/165/135 147/166/136 145/164/134
f 145/164/134 147/166/136 47/106/80
f 147/166/136 46/33/27 47/106/80
f 45/16/10 24/6/6 146/165/135
f 24/6/6 23/167/137 146/165/135
f 146/165/135 23/167/137 147/166/136
f 23/167/137 22/168/138 147/166/136
f 147/166/136 22/168/138 46/33/27
f 22/168/138 6/26/20 46/33/27
f 27/169/139 42/27/21 6/26/20
f 26/170/140 148/171/141 27/169/139
f 25/15/9 149/172/142 26/170/140
f 27/169/139 148/171/141 42/27/21
f 148/171/141 41/143/117 42/27/21
f 26/170/140 149/172/142 148/171/141
f 149/172/142 150/173/143 148/171/141
f 148/171/141 150/173/143 41/143/117
f 150/173/143 40/144/118 41/143/117
f 25/15/9 36/14/8 149/172/142
f 36/14/8 35/174/144 149/172/142
f 149/172/142 35/174/144 150/173/143
f 35/174/144 34/175/145 150/173/143
f 150/173/143 34/175/145 40/144/118
f 34/175/145 5/23/17 40/144/118
f 34/176/145 39/24/18 5/23/17
f 35/177/144 151/178/146 34/176/145
f 36/12/8 152/179/147 35/177/144
f 34/176/145 151/178/146 39/24/18
f 151/178/146 38/148/122 39/24/18
f 35/177/144 152/179/147 151/178/146
f 152/179/147 153/180/148 151/178/146
f 151/178/146 153/180/148 38/148/122
f 153/180/148 37/149/123 38/148/122
f 36/12/8 30/11/7 152/179/147
f 30/11/7 29/181/149 152/179/147
f 152/179/147 29/181/149 153/180/148
f 29/181/149 28/182/150 153/180/148
f 153/180/148 28/182/150 37/149/123
f 28/182/150 4/20/14 37/149/123
f 28/183/150 33/21/15 4/20/14
f 29/184/149 154/185/151 28/183/150
f 30/9/7 155/186/152 29/184/149
f 28/183/150 154/185/151 33/21/15
f 154/185/151 32/156/127 33/21/15
f 29/184/149 155/186/152 154/185/151
f 155/186/152 156/187/153 154/185/151
f 154/185/151 156/187/153 32/156/127
f 156/187/153 31/157/128 32/156/127
f 30/9/7 15/8/3 155/186/152
f 15/8/3 14/188/154 155/186/152
f 155/186/152 14/188/154 156/187/153
f 14/188/154 13/189/155 156/187/153
f 156/187/153 13/189/155 31/157/128
f 13/189/155 3/158/11 31/157/128
f 22/168/138 27/190/139 6/26/20
f 23/167/137 157/191/156 22/168/138
f 24/6/6 158/192/157 23/167/137
f 22/168/138 157/191/156 27/190/139
f 157/191/156 26/193/140 27/190/139
f 23/167/137 158/192/157 157/191/156
f 158/192/157 159/194/158 157/191/156
f 157/191/156 159/194/158 26/193/140
f 159/194/158 25/195/9 26/193/140
f 24/6/6 18/5/5 158/192/157
f 18/5/5 17/196/159 158/192/157
f 158/192/157 17/196/159 159/194/158
f 17/196/159 16/197/2 159/194/158
f 159/194/158 16/197/2 25/195/9
f 16/197/2 1/198/1 25/195/9
f 13/199/155 21/18/12 3/17/11
f 14/200/154 160/201/160 13/199/155
f 15/3/3 161/202/161 14/200/154
f 13/199/155 160/201/160 21/18/12
f 160/201/160 20/162/132 21/18/12
f 14/200/154 161/202/161 160/201/160
f 161/202/161 162/203/162 160/201/160
f 160/201/160 162/203/162 20/162/132
f 162/203/162 19/163/133 20/162/132
f 15/3/3 16/2/2 161/202/161
f 16/2/2 17/204/159 161/202/161
f 161/202/161 17/204/159 162/203/162
f 17/204/159 18/205/5 162/203/162
f 162/203/162 18/205/5 19/163/133
f 18/205/5 2/4/4 19/163/133
