# Blender v3.4.1 OBJ File: 'hot-air-balloon.blend'
# www.blender.org
o Balloon_LoD_Sphere.001
v 0.299194 0.623490 -0.722318
v 0.023411 -1.266551 -0.187110
v 0.689378 0.222521 -0.689378
v 0.689378 -0.256022 -0.689378
v 0.974928 0.222521 0.000000
v 0.357943 -0.977568 0.357906
v 0.299194 0.623490 0.722318
v 0.344786 0.433884 0.832387
v 0.373088 0.222521 0.900716
v -0.000000 0.623490 0.781831
v -0.000000 0.222521 0.974928
v -0.000000 -0.256022 0.974928
v -0.166053 0.900964 0.400861
v -0.306750 0.901088 0.306761
v -0.689405 -0.256038 0.689402
v -0.604763 -0.533536 0.604763
v 0.000036 0.980009 -0.000036
v -0.185446 0.955330 0.125024
v -0.400902 0.900939 0.166061
v -0.576033 0.781827 0.238605
v -0.974928 0.222521 -0.000000
v -0.722318 0.623490 -0.299194
v -0.832386 0.433884 -0.344786
v -0.900716 0.222521 -0.373089
v -0.187114 -1.266549 -0.023411
v -0.552838 0.623490 -0.552838
v -0.637081 0.433884 -0.637081
v -0.360140 -0.976969 -0.355682
v -0.344785 0.433884 -0.832386
v -0.373088 0.222521 -0.900716
v -0.115754 -1.266550 -0.148863
v 0.055513 0.902963 -0.430712
v 0.000000 -0.256022 -0.974928
v 0.000000 0.623490 -0.781831
v 0.000000 0.222521 -0.974928
v 0.440874 0.781831 -0.440874
v 0.604746 -0.533493 -0.604746
v 0.470694 -0.791928 -0.470694
v 0.139884 0.956760 -0.171784
v 0.238599 0.781831 -0.576030
v 0.373089 0.222521 -0.900716
v 0.382684 0.000000 -0.923880
v 0.306802 0.900969 -0.306802
v 0.360216 -0.974741 -0.359644
v 0.637081 0.433884 -0.637081
v 0.707107 0.000000 -0.707107
v 0.419259 0.904264 -0.083396
v 0.855240 -0.533493 0.000000
v 0.576030 0.781831 -0.238599
v 0.473448 -0.970779 -0.196070
v 0.722318 0.623490 -0.299194
v 0.832387 0.433884 -0.344786
v 0.923880 0.000000 -0.382683
v 0.400856 0.900969 0.166040
v 0.790138 -0.533493 0.327286
v 0.515351 -0.928020 0.212206
v 0.623490 0.781831 0.000000
v 0.781831 0.623490 0.000000
v 0.900969 0.433884 0.000000
v 1.000000 -0.000000 0.000000
v 0.576029 0.781831 0.238599
v 0.832387 0.433883 0.344786
v 0.900716 0.222521 0.373089
v 0.923880 -0.000000 0.382684
v 0.382683 -0.000000 0.923880
v 0.254738 -0.791929 0.614992
v 0.552838 0.623490 0.552838
v 0.637081 0.433884 0.637081
v 0.707107 -0.000000 0.707107
v 0.306802 0.900969 0.306802
v -0.000000 0.000000 1.000000
v 0.133041 0.955675 0.178300
v 0.166040 0.900969 0.400856
v 0.238599 0.781831 0.576029
v -0.344786 0.433881 0.832388
v -0.000000 0.433884 0.900969
v -0.000000 -0.533493 0.855240
v -0.000000 0.900969 0.433884
v -0.000000 0.781831 0.623490
v -0.552847 0.623564 0.552846
v -0.689404 0.222551 0.689403
v -0.707134 0.000009 0.707134
v -0.373089 0.222520 0.900716
v -0.382683 -0.000000 0.923880
v -0.373088 -0.256020 0.900716
v -0.041883 0.955519 0.219478
v -0.254740 -0.791923 0.614995
v -0.190816 -0.974456 0.471684
v -0.299194 0.623484 0.722322
v -0.832388 0.433881 0.344786
v -0.790139 -0.533492 0.327286
v -0.387408 -0.930488 0.396944
v -0.440868 0.781922 0.440868
v -0.637101 0.433936 0.637101
v -0.569033 -0.916167 -0.001993
v -0.923880 -0.000000 0.382683
v -0.183265 -1.259390 0.075266
v -0.790138 -0.533493 -0.327286
v -0.513071 -0.929260 -0.213595
v -0.974928 -0.256022 -0.000000
v -1.000000 -0.000000 -0.000000
v -0.214157 0.956532 -0.063878
v -0.781831 0.623490 -0.000000
v -0.900969 0.433884 -0.000000
v -0.367144 0.904396 -0.222946
v -0.440874 0.781831 -0.440874
v -0.707106 0.000000 -0.707107
v -0.604745 -0.533494 -0.604746
v -0.900716 -0.256022 -0.373089
v -0.923879 0.000000 -0.382684
v -0.576029 0.781831 -0.238599
v -0.382683 -0.000000 -0.923880
v -0.062832 0.955597 -0.212239
v -0.194458 -0.978256 -0.466786
v 0.000001 0.000000 -1.000000
v 0.000001 -0.533493 -0.855240
v 0.000000 -0.791928 -0.665662
v 0.000000 0.781831 -0.623490
v 0.220553 0.955488 0.026255
v 0.000036 -1.349223 -0.000036
v -0.166040 0.900969 -0.400856
v -0.299194 0.623490 -0.722318
v -0.373088 -0.256022 -0.900716
v -0.238599 0.781831 -0.576030
v -0.689378 -0.256022 -0.689378
v -0.689378 0.222521 -0.689378
v -0.254738 -0.791928 -0.614992
v -0.327286 -0.533493 -0.790138
v -0.470694 -0.791928 -0.470694
v -0.623490 0.781831 -0.000000
v -0.433884 0.900969 -0.000000
v -0.855240 -0.533493 -0.000000
v -0.722322 0.623484 0.299194
v -0.543889 -0.889257 0.225415
v -0.900716 -0.256021 0.373088
v -0.900716 0.222520 0.373088
v -0.116872 -1.265820 0.148789
v -0.238606 0.781827 0.576033
v -0.327287 -0.533493 0.790139
v 0.023411 -1.266549 0.187114
v 0.191573 -0.976125 0.470430
v -0.000453 -0.914604 0.570013
v 0.373088 -0.256022 0.900716
v 0.327286 -0.533493 0.790139
v 0.689378 -0.256022 0.689378
v 0.689378 0.222521 0.689378
v 0.133967 -1.264233 0.133966
v 0.440874 0.781831 0.440874
v 0.470694 -0.791928 0.470694
v 0.604746 -0.533493 0.604746
v 0.900716 -0.256022 0.373089
v 0.181827 -1.266550 0.049975
v 0.722318 0.623490 0.299194
v 0.974928 -0.256022 0.000000
v 0.510656 -0.972857 -0.001356
v 0.900716 -0.256022 -0.373089
v 0.900716 0.222521 -0.373089
v 0.160680 -1.265167 -0.107363
v 0.665662 -0.791928 0.000000
v 0.552838 0.623490 -0.552838
v 0.614992 -0.791929 -0.254738
v 0.790139 -0.533493 -0.327286
v 0.373089 -0.256022 -0.900716
v 0.344786 0.433884 -0.832387
v 0.327286 -0.533493 -0.790139
v 0.000000 0.433884 -0.900968
v 0.001356 -0.972857 -0.510657
v 0.221142 -0.915757 -0.525803
vt 0.750000 0.285714
vt 0.687500 0.232779
vt 0.750000 0.204648
vt 0.730200 0.071429
vt 0.625000 0.203851
vt 0.593750 0.071429
vt 0.656250 0.000000
vt 0.687500 0.500000
vt 0.625000 0.500000
vt 0.687500 0.428571
vt 0.625000 0.857143
vt 0.531250 0.857143
vt 0.562500 0.785714
vt 0.562500 0.205522
vt 0.562500 0.500000
vt 0.562500 0.428571
vt 0.531250 0.000000
vt 0.457300 0.071429
vt 0.562500 0.571429
vt 0.500000 0.571429
vt 0.500000 0.500000
vt 0.437500 0.500000
vt 0.500000 0.428571
vt 0.406250 0.000000
vt 0.375000 0.071429
vt 0.437500 0.571429
vt 0.375000 0.571429
vt 0.375000 0.500000
vt 0.437500 0.428571
vt 0.343750 0.000000
vt 0.269800 0.071429
vt 0.312500 0.571429
vt 0.312500 0.500000
vt 0.375000 0.428571
vt 0.312500 0.203293
vt 0.250000 0.232867
vt 0.250000 0.357143
vt 0.187500 0.357143
vt 0.187500 0.285715
vt 0.187500 0.642856
vt 0.125000 0.642857
vt 0.125000 0.571429
vt 0.187500 0.500000
vt 0.125000 0.500000
vt 0.125000 0.428571
vt 0.187500 0.785712
vt 0.125001 0.785714
vt 0.125000 0.714290
vt 0.062500 0.428571
vt 0.062500 0.357143
vt 0.062499 0.714286
vt 0.062500 0.642856
vt 0.062500 0.571429
vt 0.000000 0.571429
vt 0.000000 0.500000
vt 0.062500 0.500000
vt 0.094408 0.928576
vt 0.031250 1.000000
vt -0.000000 0.928571
vt -0.000000 0.357143
vt -0.000000 0.232276
vt 0.062502 0.243166
vt 0.062507 0.074297
vt 0.000000 0.071429
vt 1.000000 0.500000
vt 0.937500 0.500000
vt 0.937500 0.428571
vt 1.000000 0.857143
vt 0.913117 0.857143
vt 0.937500 0.785714
vt 0.875000 0.500000
vt 0.875000 0.428571
vt 0.906250 0.000000
vt 0.980200 0.071429
vt 0.855200 0.071429
vt 0.875000 0.571429
vt 0.812500 0.571429
vt 0.812500 0.500000
vt 0.812500 0.202296
vt 0.781250 0.000000
vt 0.750000 0.500000
vt 0.750000 0.428571
vt 0.750000 0.571429
vt 0.812500 0.285714
vt 0.812500 0.857143
vt 0.729671 0.857143
vt 0.812500 0.785714
vt 0.953768 0.928572
vt 0.843750 1.000000
vt 0.795804 0.928572
vt 0.875000 0.202695
vt 0.875000 0.285714
vt 0.875000 0.785714
vt 0.937500 0.571429
vt 0.937500 0.225951
vt 1.000000 0.571429
vt 1.000000 0.232276
vt 0.031250 0.000000
vt 0.125000 0.225410
vt 0.143968 0.071426
vt 0.062500 0.785712
vt 0.062494 0.857140
vt 0.125000 0.357143
vt 0.125005 0.857149
vt 0.093750 0.000000
vt 0.187501 0.714285
vt 0.220014 0.928569
vt 0.187500 0.857140
vt 0.187500 0.428572
vt 0.156250 1.000000
vt 0.187500 0.571429
vt 0.187498 0.203861
vt 0.250000 0.857143
vt 0.250000 0.500000
vt 0.250000 0.571429
vt 0.218750 0.000000
vt 0.312500 0.285714
vt 0.312500 0.857143
vt 0.312500 0.785714
vt 0.352073 0.928571
vt 0.281250 1.000000
vt 0.312500 0.428571
vt 0.375000 0.285714
vt 0.375000 0.857143
vt 0.375000 0.785714
vt 0.375000 0.202567
vt 0.437500 0.857143
vt 0.437500 0.785714
vt 0.481187 0.928572
vt 0.406250 1.000000
vt 0.437500 0.226675
vt 0.500000 0.204648
vt 0.500000 0.285714
vt 0.500000 0.785714
vt 0.641090 0.928572
vt 0.531250 1.000000
vt 0.562500 0.285714
vt 0.625000 0.571429
vt 0.625000 0.285714
vt 0.687500 0.571429
vt 0.687500 0.785714
vt 0.718750 1.000000
vt 0.687500 0.357143
vt 0.625000 0.428571
vt 0.625000 0.357143
vt 0.562500 0.357143
vt 0.500000 0.357143
vt 0.437500 0.357143
vt 0.312500 0.357143
vt 0.250000 0.428571
vt 0.000000 0.428571
vt 1.000000 0.357143
vt 0.937500 0.357143
vt 0.875000 0.357143
vt 0.812500 0.357143
vt 0.750000 0.357143
vt 0.750000 0.642857
vt 0.812500 0.428571
vt 0.812500 0.642857
vt 0.750000 0.714286
vt 0.750000 0.785714
vt 0.875000 0.642857
vt 0.875000 0.714286
vt 0.812500 0.714286
vt 0.937500 0.642857
vt 0.937500 0.714286
vt 1.000000 0.642857
vt 1.000000 0.714286
vt 1.000000 0.785714
vt 0.000000 0.642857
vt 1.000000 0.428571
vt 0.000000 0.714286
vt -0.000000 0.785714
vt 0.000000 0.857143
vt 0.250000 0.714286
vt 0.250000 0.785714
vt 0.250000 0.642857
vt 0.312500 0.642857
vt 0.312500 0.714286
vt 0.375000 0.642857
vt 0.375000 0.714286
vt 0.375000 0.357143
vt 0.437500 0.642857
vt 0.437500 0.714286
vt 0.500000 0.714286
vt 0.500000 0.642857
vt 0.562500 0.714286
vt 0.562500 0.642857
vt 0.625000 0.714286
vt 0.625000 0.785714
vt 0.687500 0.642857
vt 0.625000 0.642857
vt 0.687500 0.714286
vn -0.0021 -0.6158 -0.7879
vn 0.2887 -0.6664 -0.6874
vn -0.0063 -0.6975 -0.7166
vn 0.0755 -0.8341 -0.5465
vn 0.5077 -0.6995 -0.5030
vn 0.4579 -0.8341 -0.3077
vn 0.0012 -1.0000 -0.0019
vn 0.3827 0.0072 -0.9239
vn 0.7071 0.0072 -0.7071
vn 0.3710 -0.2452 -0.8957
vn 0.2870 0.9133 -0.2889
vn 0.3889 0.9179 -0.0790
vn 0.5809 0.7768 -0.2433
vn 0.6680 -0.6919 -0.2738
vn 0.9239 0.0072 -0.3827
vn 0.8957 -0.2452 -0.3710
vn 0.5411 -0.8325 0.1190
vn 0.9013 0.2196 -0.3733
vn 0.9756 0.2196 0.0000
vn 1.0000 0.0072 0.0000
vn 0.9239 0.0072 0.3827
vn 0.9695 -0.2452 0.0000
vn 0.3864 -0.8273 0.4078
vn 0.9013 0.2196 0.3733
vn 0.6899 0.2196 0.6899
vn 0.7071 0.0072 0.7071
vn 0.8957 -0.2452 0.3710
vn 0.0559 -0.8346 0.5481
vn 0.3733 0.2196 0.9013
vn 0.3827 0.0072 0.9239
vn 0.6855 -0.2452 0.6855
vn 0.2765 -0.6978 0.6608
vn -0.0014 -0.6644 0.7474
vn 0.0000 -0.4927 0.8702
vn -0.3344 -0.4929 0.8032
vn -0.3122 -0.6101 0.7282
vn -0.3457 0.4285 0.8348
vn -0.6389 0.4285 0.6389
vn -0.6899 0.2196 0.6899
vn -0.3826 0.0072 0.9239
vn -0.7071 0.0072 0.7071
vn -0.6855 -0.2452 0.6855
vn -0.2417 0.7751 0.5838
vn -0.4468 0.7751 0.4468
vn -0.5566 0.6168 0.5566
vn -0.8957 -0.2452 0.3710
vn -0.8028 -0.4950 0.3324
vn -0.7273 0.6168 0.3011
vn -0.8348 0.4285 0.3457
vn -0.9014 0.2196 0.3733
vn -0.9756 0.2196 -0.0000
vn -1.0000 0.0072 -0.0000
vn -0.9239 0.0072 0.3826
vn -0.1544 0.9827 0.1027
vn 0.0006 1.0000 -0.0007
vn -0.1733 0.9834 -0.0541
vn -0.8690 -0.4948 0.0002
vn -0.7465 -0.6654 0.0028
vn -0.6977 -0.6539 0.2926
vn -0.5295 -0.8196 0.2186
vn -0.5430 -0.8339 -0.0984
vn -0.9239 0.0072 -0.3827
vn -0.8957 -0.2452 -0.3710
vn -0.4088 0.9126 -0.0043
vn -0.3373 0.9168 -0.2137
vn -0.5851 0.7749 -0.2391
vn -0.7071 0.0072 -0.7071
vn -0.6855 -0.2452 -0.6855
vn -0.3402 -0.8340 -0.4344
vn -0.6899 0.2196 -0.6899
vn -0.3733 0.2196 -0.9013
vn -0.3827 0.0072 -0.9239
vn -0.2750 -0.6954 -0.6639
vn 0.0000 0.0072 -1.0000
vn 0.0000 -0.2452 -0.9695
vn -0.0000 0.2196 -0.9756
vn -0.3003 -0.6195 -0.7253
vn -0.1609 0.9119 -0.3775
vn 0.0551 0.9143 -0.4012
vn -0.2387 0.7769 -0.5826
vn -0.0565 0.9831 -0.1743
vn -0.5069 -0.6994 -0.5039
vn -0.5569 -0.6173 -0.5557
vn -0.4430 0.7771 -0.4471
vn -0.9013 0.2196 -0.3733
vn -0.6832 -0.6710 -0.2882
vn -0.5224 -0.6713 0.5258
vn -0.3169 -0.8341 0.4515
vn -0.5838 0.7751 0.2417
vn -0.3792 0.9123 0.1544
vn -0.6137 -0.4961 0.6142
vn -0.2878 0.9124 0.2910
vn -0.3011 0.6168 0.7273
vn -0.0339 0.9828 0.1817
vn -0.1587 0.9123 0.3776
vn -0.3709 -0.2452 0.8957
vn -0.3733 0.2196 0.9014
vn -0.2638 -0.7033 0.6602
vn 0.0022 0.9122 0.4098
vn -0.0000 0.0072 1.0000
vn -0.0000 0.2196 0.9756
vn 0.3029 -0.6161 0.7271
vn 0.1546 0.9125 0.3788
vn 0.2418 0.7751 0.5838
vn 0.1097 0.9829 0.1476
vn 0.3710 -0.2452 0.8957
vn 0.5569 -0.6171 0.5560
vn 0.2915 0.9118 0.2891
vn 0.4468 0.7751 0.4468
vn 0.5028 -0.6995 0.5078
vn 0.3802 0.9131 0.1476
vn 0.5838 0.7751 0.2418
vn 0.1830 0.9829 0.0183
vn 0.6864 -0.6695 0.2840
vn 0.7160 -0.6981 -0.0096
vn 0.7875 -0.6164 0.0005
vn 0.6298 0.7768 0.0025
vn 0.1174 0.9830 -0.1410
vn 0.7255 -0.6191 -0.3006
vn 0.6899 0.2196 -0.6899
vn 0.5596 -0.6153 -0.5552
vn 0.3733 0.2196 -0.9013
vn 0.2440 0.7771 -0.5802
vn 0.3331 -0.4923 -0.8042
vn 0.6855 -0.2452 -0.6855
vn 0.6160 -0.4910 -0.6160
vn 0.8048 -0.4910 -0.3334
vn 0.8712 -0.4910 0.0000
vn 0.8036 -0.4935 0.3329
vn 0.3334 -0.4910 0.8049
vn -0.0000 -0.2452 0.9695
vn -0.9695 -0.2452 -0.0000
vn -0.8034 -0.4944 -0.3318
vn -0.6160 -0.4910 -0.6160
vn -0.3334 -0.4910 -0.8048
vn 0.0000 -0.4910 -0.8712
vn 0.0000 0.4285 -0.9035
vn -0.3710 -0.2452 -0.8957
vn -0.3458 0.4285 -0.8347
vn -0.0000 0.6168 -0.7871
vn -0.0062 0.7760 -0.6307
vn -0.6389 0.4285 -0.6389
vn -0.5566 0.6168 -0.5566
vn -0.3012 0.6168 -0.7272
vn -0.8347 0.4285 -0.3458
vn -0.7272 0.6168 -0.3012
vn -0.9035 0.4285 -0.0000
vn -0.7871 0.6168 -0.0000
vn -0.6319 0.7751 -0.0000
vn -0.0000 0.6168 0.7871
vn -0.0000 0.7751 0.6319
vn -0.0000 0.4285 0.9035
vn 0.3458 0.4285 0.8347
vn 0.3012 0.6168 0.7272
vn 0.6389 0.4285 0.6389
vn 0.5566 0.6168 0.5566
vn 0.6160 -0.4910 0.6160
vn 0.8347 0.4285 0.3458
vn 0.7272 0.6168 0.3012
vn 0.7871 0.6168 0.0000
vn 0.9035 0.4285 0.0000
vn 0.7272 0.6168 -0.3012
vn 0.8347 0.4285 -0.3458
vn 0.5566 0.6168 -0.5566
vn 0.4468 0.7751 -0.4468
vn 0.3458 0.4285 -0.8347
vn 0.6389 0.4285 -0.6389
vn 0.3012 0.6168 -0.7272
s 1
f 117/1/1 168/2/2 167/3/3
f 167/3/3 168/2/2 2/4/4
f 168/2/2 44/5/5 158/6/6
f 120/7/7 2/4/4 158/6/6
f 42/8/8 46/9/9 163/10/10
f 43/11/11 47/12/12 49/13/13
f 44/5/5 50/14/14 158/6/6
f 46/9/9 53/15/15 156/16/16
f 120/17/7 158/6/6 152/18/17
f 157/19/18 5/20/19 60/21/20
f 53/15/15 60/21/20 156/16/16
f 60/21/20 64/22/21 154/23/22
f 120/24/7 152/18/17 147/25/23
f 63/26/24 146/27/25 69/28/26
f 64/22/21 69/28/26 151/29/27
f 120/30/7 147/25/23 140/31/28
f 146/27/25 9/32/29 65/33/30
f 69/28/26 65/33/30 145/34/31
f 141/35/32 142/36/33 140/31/28
f 77/37/34 139/38/35 87/39/36
f 75/40/37 94/41/38 81/42/39
f 84/43/40 82/44/41 15/45/42
f 138/46/43 93/47/44 80/48/45
f 135/49/46 91/50/47 15/45/42
f 80/48/45 133/51/48 90/52/49
f 136/53/50 21/54/51 101/55/52
f 96/56/53 101/55/52 135/49/46
f 18/57/54 17/58/55 102/59/56
f 132/60/57 95/61/58 134/62/59
f 97/63/60 95/61/58 25/64/61
f 101/65/52 110/66/62 109/67/63
f 131/68/64 105/69/65 111/70/66
f 110/66/62 107/71/67 125/72/68
f 120/73/7 25/74/61 31/75/69
f 126/76/70 30/77/71 112/78/72
f 114/79/73 167/3/3 2/4/4
f 120/80/7 31/75/69 2/4/4
f 112/78/72 115/81/74 33/82/75
f 30/77/71 35/83/76 112/78/72
f 127/84/77 117/1/1 167/3/3
f 121/85/78 32/86/79 124/87/80
f 102/88/56 17/89/55 113/90/81
f 107/71/67 112/78/72 125/72/68
f 28/91/82 114/79/73 31/75/69
f 129/92/83 127/84/77 114/79/73
f 105/69/65 121/85/78 106/93/84
f 102/88/56 113/90/81 105/69/65
f 24/94/85 126/76/70 110/66/62
f 99/95/86 28/91/82 31/75/69
f 99/95/86 129/92/83 28/91/82
f 21/96/51 24/94/85 101/65/52
f 95/97/58 99/95/86 25/74/61
f 120/98/7 97/63/60 25/64/61
f 91/50/47 132/60/57 134/62/59
f 94/41/38 90/52/49 81/42/39
f 92/99/87 97/63/60 137/100/88
f 93/47/44 20/101/89 80/48/45
f 93/47/44 19/102/90 20/101/89
f 16/103/91 91/50/47 134/62/59
f 18/57/54 19/102/90 14/104/92
f 16/103/91 15/45/42 91/50/47
f 82/44/41 96/56/53 135/49/46
f 81/42/39 136/53/50 82/44/41
f 120/105/7 137/100/88 97/63/60
f 89/106/93 80/48/45 75/40/37
f 139/38/35 16/103/91 92/99/87
f 86/107/94 14/104/92 13/108/95
f 139/38/35 85/109/96 16/103/91
f 86/107/94 17/110/55 18/57/54
f 83/111/97 81/42/39 84/43/40
f 88/112/98 92/99/87 137/100/88
f 142/36/33 87/39/36 88/112/98
f 142/36/33 77/37/34 87/39/36
f 78/113/99 86/107/94 13/108/95
f 71/114/100 84/43/40 85/109/96
f 11/115/101 83/111/97 71/114/100
f 120/116/7 140/31/28 137/100/88
f 142/36/33 88/112/98 140/31/28
f 66/117/102 142/36/33 141/35/32
f 73/118/103 78/113/99 74/119/104
f 72/120/105 86/107/94 73/118/103
f 72/120/105 17/121/55 86/107/94
f 65/33/30 71/114/100 143/122/106
f 9/32/29 11/115/101 65/33/30
f 149/123/107 66/117/102 141/35/32
f 70/124/108 73/118/103 148/125/109
f 6/126/110 141/35/32 147/25/23
f 54/127/111 70/124/108 61/128/112
f 119/129/113 72/120/105 54/127/111
f 119/129/113 17/130/55 72/120/105
f 56/131/114 6/126/110 152/18/17
f 56/131/114 149/123/107 6/126/110
f 5/20/19 63/26/24 60/21/20
f 155/132/115 56/131/114 152/18/17
f 159/133/116 56/131/114 155/132/115
f 47/12/12 54/127/111 57/134/117
f 39/135/118 17/136/55 119/129/113
f 50/14/14 155/132/115 158/6/6
f 161/137/119 159/133/116 155/132/115
f 39/135/118 119/129/113 47/12/12
f 3/138/120 157/19/18 46/9/9
f 38/139/121 161/137/119 50/14/14
f 41/140/122 3/138/120 42/8/8
f 168/2/2 38/139/121 44/5/5
f 32/86/79 43/11/11 40/141/123
f 35/83/76 41/140/122 115/81/74
f 113/90/81 39/135/118 32/86/79
f 113/90/81 17/142/55 39/135/118
f 115/81/74 42/8/8 163/10/10
f 165/143/124 4/144/125 37/145/126
f 38/139/121 165/143/124 37/145/126
f 162/146/127 154/23/22 48/147/128
f 159/133/116 55/148/129 56/131/114
f 48/147/128 151/29/27 55/148/129
f 149/123/107 144/149/130 66/117/102
f 144/149/130 12/150/131 77/37/34
f 91/50/47 100/151/132 132/60/57
f 14/104/92 86/107/94 18/57/54
f 132/152/57 109/67/63 98/153/133
f 95/97/58 98/153/133 99/95/86
f 98/153/133 125/72/68 108/154/134
f 117/1/1 128/155/135 116/156/136
f 128/155/135 33/82/75 116/156/136
f 30/77/71 166/157/137 35/83/76
f 123/158/138 112/78/72 33/82/75
f 112/78/72 35/83/76 115/81/74
f 29/159/139 34/160/140 166/157/137
f 31/75/69 114/79/73 2/4/4
f 34/160/140 124/87/80 118/161/141
f 30/77/71 27/162/142 29/159/139
f 114/79/73 127/84/77 167/3/3
f 124/87/80 32/86/79 118/161/141
f 121/85/78 113/90/81 32/86/79
f 125/72/68 112/78/72 123/158/138
f 107/71/67 126/76/70 112/78/72
f 29/159/139 26/163/143 122/164/144
f 26/163/143 124/87/80 122/164/144
f 127/84/77 108/154/134 128/155/135
f 28/91/82 129/92/83 114/79/73
f 106/93/84 121/85/78 124/87/80
f 128/155/135 125/72/68 123/158/138
f 105/69/65 113/90/81 121/85/78
f 126/76/70 23/165/145 27/162/142
f 110/66/62 126/76/70 107/71/67
f 23/165/145 26/163/143 27/162/142
f 25/74/61 99/95/86 31/75/69
f 22/166/146 106/93/84 26/163/143
f 129/92/83 98/153/133 108/154/134
f 116/156/136 163/10/10 165/143/124
f 111/70/66 105/69/65 106/93/84
f 24/94/85 104/167/147 23/165/145
f 109/67/63 110/66/62 125/72/68
f 101/65/52 24/94/85 110/66/62
f 22/166/146 104/167/147 103/168/148
f 22/166/146 130/169/149 111/70/66
f 21/54/51 90/52/49 104/170/147
f 130/169/149 131/68/64 111/70/66
f 131/68/64 102/88/56 105/69/65
f 100/171/132 101/65/52 109/67/63
f 103/172/148 20/101/89 130/173/149
f 104/170/147 133/51/48 103/172/148
f 90/52/49 133/51/48 104/170/147
f 97/63/60 134/62/59 95/61/58
f 130/173/149 19/102/90 131/174/64
f 131/174/64 18/57/54 102/59/56
f 93/47/44 13/108/95 14/104/92
f 135/49/46 101/55/52 100/151/132
f 96/56/53 136/53/50 101/55/52
f 81/42/39 90/52/49 136/53/50
f 94/41/38 80/48/45 90/52/49
f 92/99/87 134/62/59 97/63/60
f 80/48/45 20/101/89 133/51/48
f 14/104/92 19/102/90 93/47/44
f 92/99/87 16/103/91 134/62/59
f 15/45/42 82/44/41 135/49/46
f 82/44/41 136/53/50 96/56/53
f 75/40/37 80/48/45 94/41/38
f 89/106/93 138/46/43 80/48/45
f 88/112/98 87/39/36 92/99/87
f 138/46/43 10/175/150 79/176/151
f 87/39/36 139/38/35 92/99/87
f 85/109/96 15/45/42 16/103/91
f 85/109/96 84/43/40 15/45/42
f 84/43/40 81/42/39 82/44/41
f 83/111/97 75/40/37 81/42/39
f 13/108/95 79/176/151 78/113/99
f 139/38/35 12/150/131 85/109/96
f 11/115/101 75/40/37 83/111/97
f 12/150/131 71/114/100 85/109/96
f 71/114/100 83/111/97 84/43/40
f 10/175/150 74/119/104 79/176/151
f 140/31/28 88/112/98 137/100/88
f 76/177/152 89/106/93 75/40/37
f 10/175/150 89/106/93 76/177/152
f 77/37/34 66/117/102 144/149/130
f 74/119/104 78/113/99 79/176/151
f 9/32/29 76/177/152 11/115/101
f 73/118/103 86/107/94 78/113/99
f 143/122/106 71/114/100 12/150/131
f 65/33/30 11/115/101 71/114/100
f 8/178/153 10/175/150 76/177/152
f 144/149/130 145/34/31 143/122/106
f 6/126/110 149/123/107 141/35/32
f 148/125/109 73/118/103 74/119/104
f 70/124/108 72/120/105 73/118/103
f 146/27/25 8/178/153 9/32/29
f 145/34/31 65/33/30 143/122/106
f 69/28/26 146/27/25 65/33/30
f 7/179/154 68/180/155 67/181/156
f 147/25/23 141/35/32 140/31/28
f 7/179/154 148/125/109 74/119/104
f 149/123/107 55/148/129 150/182/157
f 61/128/112 70/124/108 148/125/109
f 150/182/157 151/29/27 145/34/31
f 54/127/111 72/120/105 70/124/108
f 146/27/25 62/183/158 68/180/155
f 151/29/27 69/28/26 145/34/31
f 64/22/21 63/26/24 69/28/26
f 68/180/155 153/184/159 67/181/156
f 152/18/17 6/126/110 147/25/23
f 153/184/159 148/125/109 67/181/156
f 5/20/19 62/183/158 63/26/24
f 47/12/12 119/129/113 54/127/111
f 154/23/22 64/22/21 151/29/27
f 60/21/20 63/26/24 64/22/21
f 62/183/158 58/185/160 153/184/159
f 61/128/112 58/185/160 57/134/117
f 157/19/18 59/186/161 5/20/19
f 57/134/117 54/127/111 61/128/112
f 156/16/16 60/21/20 154/23/22
f 53/15/15 157/19/18 60/21/20
f 59/186/161 51/187/162 58/185/160
f 158/6/6 155/132/115 152/18/17
f 58/185/160 49/13/13 57/134/117
f 159/133/116 162/146/127 48/147/128
f 50/14/14 161/137/119 155/132/115
f 49/13/13 47/12/12 57/134/117
f 3/138/120 52/188/163 157/19/18
f 4/144/125 46/9/9 156/16/16
f 46/9/9 157/19/18 53/15/15
f 52/188/163 160/189/164 51/187/162
f 160/189/164 49/13/13 51/187/162
f 161/137/119 37/145/126 162/146/127
f 44/5/5 38/139/121 50/14/14
f 36/190/165 43/11/11 49/13/13
f 162/146/127 4/144/125 156/16/16
f 43/11/11 39/135/118 47/12/12
f 3/138/120 164/191/166 45/192/167
f 163/10/10 46/9/9 4/144/125
f 42/8/8 3/138/120 46/9/9
f 164/191/166 160/189/164 45/192/167
f 2/4/4 168/2/2 158/6/6
f 160/189/164 40/141/123 36/190/165
f 41/140/122 166/157/137 164/191/166
f 40/141/123 43/11/11 36/190/165
f 32/86/79 39/135/118 43/11/11
f 115/81/74 41/140/122 42/8/8
f 166/157/137 1/193/168 164/191/166
f 1/193/168 118/161/141 40/141/123
f 165/143/124 117/1/1 116/156/136
f 118/161/141 32/86/79 40/141/123
f 33/82/75 115/81/74 163/10/10
f 165/143/124 163/10/10 4/144/125
f 38/139/121 168/2/2 165/143/124
f 162/146/127 156/16/16 154/23/22
f 159/133/116 48/147/128 55/148/129
f 48/147/128 154/23/22 151/29/27
f 149/123/107 150/182/157 144/149/130
f 144/149/130 143/122/106 12/150/131
f 91/50/47 135/49/46 100/151/132
f 132/152/57 100/171/132 109/67/63
f 95/97/58 132/152/57 98/153/133
f 98/153/133 109/67/63 125/72/68
f 117/1/1 127/84/77 128/155/135
f 128/155/135 123/158/138 33/82/75
f 30/77/71 29/159/139 166/157/137
f 29/159/139 122/164/144 34/160/140
f 34/160/140 122/164/144 124/87/80
f 30/77/71 126/76/70 27/162/142
f 29/159/139 27/162/142 26/163/143
f 26/163/143 106/93/84 124/87/80
f 127/84/77 129/92/83 108/154/134
f 128/155/135 108/154/134 125/72/68
f 126/76/70 24/94/85 23/165/145
f 23/165/145 22/166/146 26/163/143
f 22/166/146 111/70/66 106/93/84
f 129/92/83 99/95/86 98/153/133
f 116/156/136 33/82/75 163/10/10
f 24/94/85 21/96/51 104/167/147
f 22/166/146 23/165/145 104/167/147
f 22/166/146 103/168/148 130/169/149
f 21/54/51 136/53/50 90/52/49
f 103/172/148 133/51/48 20/101/89
f 130/173/149 20/101/89 19/102/90
f 131/174/64 19/102/90 18/57/54
f 93/47/44 138/46/43 13/108/95
f 138/46/43 89/106/93 10/175/150
f 13/108/95 138/46/43 79/176/151
f 139/38/35 77/37/34 12/150/131
f 11/115/101 76/177/152 75/40/37
f 10/175/150 7/179/154 74/119/104
f 77/37/34 142/36/33 66/117/102
f 9/32/29 8/178/153 76/177/152
f 8/178/153 7/179/154 10/175/150
f 144/149/130 150/182/157 145/34/31
f 146/27/25 68/180/155 8/178/153
f 7/179/154 8/178/153 68/180/155
f 7/179/154 67/181/156 148/125/109
f 149/123/107 56/131/114 55/148/129
f 150/182/157 55/148/129 151/29/27
f 146/27/25 63/26/24 62/183/158
f 68/180/155 62/183/158 153/184/159
f 153/184/159 61/128/112 148/125/109
f 5/20/19 59/186/161 62/183/158
f 62/183/158 59/186/161 58/185/160
f 61/128/112 153/184/159 58/185/160
f 157/19/18 52/188/163 59/186/161
f 59/186/161 52/188/163 51/187/162
f 58/185/160 51/187/162 49/13/13
f 159/133/116 161/137/119 162/146/127
f 3/138/120 45/192/167 52/188/163
f 52/188/163 45/192/167 160/189/164
f 160/189/164 36/190/165 49/13/13
f 161/137/119 38/139/121 37/145/126
f 162/146/127 37/145/126 4/144/125
f 3/138/120 41/140/122 164/191/166
f 164/191/166 1/193/168 160/189/164
f 160/189/164 1/193/168 40/141/123
f 41/140/122 35/83/76 166/157/137
f 166/157/137 34/160/140 1/193/168
f 1/193/168 34/160/140 118/161/141
f 165/143/124 168/2/2 117/1/1
