# Blender v3.4.1 OBJ File: 'umimura.blend'
# www.blender.org
o Japanese_Building_Cube.007
v 1.000000 -1.000000 -1.000000
v 1.000000 1.000000 -1.000000
v 1.000000 -1.000000 1.000000
v 1.000000 1.000000 1.000000
v -1.000000 -1.000000 -1.000000
v -1.000000 1.000000 -1.000000
v -1.000000 -1.000000 1.000000
v -1.000000 1.000000 1.000000
v 1.000000 -0.423840 -1.000000
v 1.000000 -0.423840 1.000000
v -1.000000 -0.423840 1.000000
v -1.000000 -0.423840 -1.000000
v 1.063015 -1.000494 1.063015
v 1.063015 -1.000494 -1.063015
v 1.063015 -0.422907 1.063015
v -1.063015 -1.000494 1.063015
v -1.063015 -0.422907 1.063015
v -1.063015 -1.000494 -1.063015
v -1.063015 -0.422907 -1.063015
v 1.063015 -0.422907 -1.063015
v -0.966667 -0.423840 -1.000000
v 0.966667 -0.423840 -1.000000
v -1.000000 -0.423840 0.966667
v -1.000000 -0.423840 -0.966667
v 0.966667 -0.423840 1.000000
v -0.966667 -0.423840 1.000000
v 1.000000 -0.423840 -0.966667
v 1.000000 -0.423840 0.966667
v -0.965926 -0.422907 -1.063015
v 0.965926 -0.422907 -1.063015
v -1.063015 -0.422907 0.965926
v -1.063015 -0.422907 -0.965926
v 0.965926 -0.422907 1.063015
v -0.965926 -0.422907 1.063015
v 1.063015 -0.422907 -0.965926
v 1.063015 -0.422907 0.965926
v 1.063015 0.950320 -1.063015
v 1.000000 0.949387 -1.000000
v 1.000000 0.949387 1.000000
v 1.063015 0.950320 1.063015
v 0.966667 0.949387 -1.000000
v -1.000000 0.949387 -0.966667
v -1.000000 0.949387 -1.000000
v -0.966667 0.949387 1.000000
v -1.000000 0.949387 1.000000
v 1.000000 0.949387 0.966667
v 0.965926 0.950320 -1.063015
v -1.063015 0.950320 -0.965926
v -1.063015 0.950320 -1.063015
v -0.965926 0.950320 1.063015
v -1.063015 0.950320 1.063015
v 1.063015 0.950320 0.965926
v -0.966667 0.949387 -1.000000
v -1.000000 0.949387 0.966667
v 0.966667 0.949387 1.000000
v 1.000000 0.949387 -0.966667
v -0.965926 0.950320 -1.063015
v -1.063015 0.950320 0.965926
v 0.965926 0.950320 1.063015
v 1.063015 0.950320 -0.965926
v 1.153308 0.856836 -1.153308
v 1.096423 1.051526 -1.096423
v 1.153308 0.856836 1.153308
v 1.096423 1.051526 1.096423
v -1.153308 0.856836 -1.153308
v -1.096423 1.051526 -1.096423
v -1.153308 0.856836 1.153308
v -1.096423 1.051526 1.096423
vt 0.953506 0.280357
vt 0.953506 0.524130
vt 0.780020 0.528333
vt 0.953506 0.540620
vt 0.953506 0.784393
vt 0.780020 0.788596
vt 0.173486 0.587706
vt 0.173486 0.831479
vt 0.000000 0.835682
vt 0.981094 0.004203
vt 0.981094 0.247976
vt 0.807609 0.252178
vt 0.540488 0.007946
vt 0.296682 0.260124
vt 0.296682 0.007946
vt 0.799792 0.000000
vt 0.555986 0.252178
vt 0.555986 0.000000
vt 0.548170 0.000000
vt 0.787702 0.796795
vt 0.780020 0.969745
vt 0.780020 0.796681
vt 0.456319 0.544224
vt 0.289000 0.531982
vt 0.456319 0.531982
vt 0.540488 0.260124
vt 0.289000 0.268070
vt 0.701829 0.288396
vt 0.701829 0.276154
vt 0.772204 0.276154
vt 0.456319 0.288396
vt 0.456319 0.276154
vt 0.526694 0.276154
vt 0.456319 0.564550
vt 0.456319 0.552308
vt 0.526694 0.552308
vt 0.701829 0.564550
vt 0.701829 0.552308
vt 0.772204 0.552308
vt 0.289000 0.000000
vt 0.534510 0.552308
vt 0.548170 0.268070
vt 0.931827 0.796681
vt 0.927764 0.969745
vt 0.927764 0.796681
vt 0.896188 0.969745
vt 0.888506 0.796795
vt 0.896188 0.796681
vt 0.976820 0.818851
vt 0.984502 0.575172
vt 0.984502 0.818758
vt 0.908068 0.796681
vt 0.904004 0.969745
vt 0.904004 0.796681
vt 0.996592 0.000000
vt 0.988910 0.243679
vt 0.988910 0.000093
vt 0.289000 0.552308
vt 1.000000 0.575078
vt 0.992318 0.818758
vt 0.992318 0.575172
vt 0.803200 0.796795
vt 0.795518 0.969745
vt 0.795518 0.796681
vt 0.969004 0.575079
vt 0.961322 0.818758
vt 0.961322 0.575172
vt 0.316333 0.832759
vt 0.308652 0.828463
vt 0.316333 0.828556
vt 0.352109 0.836408
vt 0.359791 0.840704
vt 0.352109 0.840611
vt 0.332457 0.832759
vt 0.328303 0.840704
vt 0.328394 0.832759
vt 0.293154 0.832759
vt 0.289000 0.840704
vt 0.289090 0.832759
vt 0.320487 0.840704
vt 0.308652 0.840704
vt 0.347955 0.828463
vt 0.359791 0.828463
vt 0.300835 0.828463
vt 0.300835 0.840704
vt 0.340139 0.828463
vt 0.340139 0.840704
vt 0.943707 0.796681
vt 0.939644 0.969745
vt 0.939644 0.796681
vt 0.281184 0.733458
vt 0.277120 0.906522
vt 0.277120 0.733458
vt 0.849694 0.969745
vt 0.842012 0.796795
vt 0.849694 0.796681
vt 0.919948 0.796681
vt 0.915884 0.969745
vt 0.915884 0.796681
vt 0.456319 0.820378
vt 0.289000 0.808136
vt 0.456319 0.808136
vt 0.834196 0.796795
vt 0.826514 0.969745
vt 0.826514 0.796681
vt 0.965386 0.826936
vt 0.961322 1.000000
vt 0.961322 0.826936
vt 0.279195 0.298924
vt 0.275131 0.471989
vt 0.275131 0.298924
vt 0.865192 0.969745
vt 0.857510 0.796795
vt 0.865192 0.796681
vt 0.701829 0.820378
vt 0.534510 0.808136
vt 0.701829 0.808136
vt 0.534510 0.276154
vt 0.818698 0.796795
vt 0.811016 0.969745
vt 0.811016 0.796681
vt 0.281184 0.552308
vt 0.277120 0.725373
vt 0.277120 0.552308
vt 0.289000 0.276154
vt 0.701829 0.544224
vt 0.534510 0.531982
vt 0.701829 0.531982
vt 0.880690 0.969745
vt 0.873008 0.796795
vt 0.880690 0.796681
vt 0.268750 0.590676
vt 0.244812 0.874343
vt 0.244812 0.583503
vt 0.236995 0.590676
vt 0.213057 0.874343
vt 0.213057 0.583503
vt 0.985261 0.283327
vt 0.961322 0.566994
vt 0.961322 0.276154
vt 0.205240 0.590676
vt 0.181302 0.874343
vt 0.181302 0.583503
vt 0.281184 0.000000
vt 0.000000 0.290840
vt 0.000000 0.000000
vt 0.267315 0.298924
vt 0.000000 0.575419
vt 0.000000 0.298924
vt 0.953506 0.528333
vt 0.780020 0.276154
vt 0.953506 0.276154
vt 0.953506 0.788596
vt 0.780020 0.536417
vt 0.953506 0.536417
vt 0.173486 0.835682
vt 0.000000 0.583503
vt 0.173486 0.583503
vt 0.981094 0.252178
vt 0.807609 0.000000
vt 0.981094 0.000000
vt 0.799792 0.252179
vt 0.787702 0.969860
vt 0.289000 0.544224
vt 0.772204 0.544224
vt 0.526694 0.544224
vt 0.526694 0.820378
vt 0.772204 0.820378
vt 0.534510 0.564550
vt 0.931827 0.969745
vt 0.888506 0.969860
vt 0.976820 0.575078
vt 0.908068 0.969745
vt 0.996592 0.243773
vt 0.289000 0.564550
vt 1.000000 0.818851
vt 0.803200 0.969860
vt 0.969004 0.818851
vt 0.320397 0.832759
vt 0.348045 0.836408
vt 0.293154 0.828556
vt 0.332457 0.828556
vt 0.943707 0.969745
vt 0.281184 0.906522
vt 0.842012 0.969860
vt 0.919948 0.969745
vt 0.289000 0.820378
vt 0.834196 0.969860
vt 0.965386 1.000000
vt 0.279195 0.471989
vt 0.857510 0.969860
vt 0.534510 0.820378
vt 0.534510 0.288396
vt 0.818698 0.969860
vt 0.281184 0.725373
vt 0.289000 0.288396
vt 0.534510 0.544224
vt 0.873008 0.969860
vt 0.268750 0.867170
vt 0.236995 0.867170
vt 0.985261 0.559821
vt 0.205240 0.867170
vt 0.281184 0.290840
vt 0.267315 0.575419
vn 1.0000 -0.0000 0.0000
vn 0.0000 0.0000 1.0000
vn -1.0000 -0.0000 0.0000
vn 0.0000 0.0000 -1.0000
vn 0.0000 -1.0000 0.0000
vn 0.0000 1.0000 0.0000
vn 0.0000 -1.0000 -0.0078
vn -0.9999 0.0000 -0.0117
vn 0.0000 -1.0000 0.0078
vn -0.0078 -1.0000 0.0000
vn 0.0078 -1.0000 0.0000
vn -0.9999 0.0000 0.0117
vn 0.0000 0.9999 0.0148
vn 0.0000 0.9999 -0.0148
vn -0.0148 0.9999 0.0000
vn 0.9999 0.0000 0.0117
vn 0.0148 0.9999 0.0000
vn 0.9999 0.0000 -0.0117
vn -0.0118 0.0000 0.9999
vn -0.0117 0.0000 -0.9999
vn 0.0118 0.0000 -0.9999
vn 0.0117 0.0000 0.9999
vn 0.9599 0.2805 0.0000
vn 0.0000 0.2805 0.9599
vn -0.9599 0.2805 0.0000
vn 0.0000 0.2805 -0.9599
vn -0.0117 0.0000 0.9999
vn -0.0118 0.0000 -0.9999
vn 0.0117 0.0000 -0.9999
vn 0.0118 0.0000 0.9999
s off
f 28/1/1 27/2/1 2/3/1
f 26/4/2 25/5/2 4/6/2
f 24/7/3 23/8/3 8/9/3
f 22/10/4 21/11/4 6/12/4
f 7/13/5 1/14/5 3/15/5
f 4/16/6 6/17/6 8/18/6
f 3/15/7 16/19/7 7/13/7
f 33/20/8 55/21/8 25/22/8
f 17/23/3 58/24/3 31/25/3
f 5/26/9 14/27/9 1/14/9
f 30/28/4 20/29/4 14/30/4
f 32/31/3 19/32/3 18/33/3
f 34/34/2 17/35/2 16/36/2
f 36/37/1 15/38/1 13/39/1
f 1/14/10 13/40/10 3/15/10
f 36/37/1 40/41/1 15/38/1
f 7/13/11 18/42/11 5/26/11
f 9/43/2 41/44/2 22/45/2
f 30/46/12 41/47/12 47/48/12
f 21/49/13 30/50/13 29/51/13
f 23/52/1 45/53/1 11/54/1
f 25/55/14 34/56/14 33/57/14
f 34/34/2 51/58/2 17/35/2
f 27/59/15 36/60/15 35/61/15
f 29/62/16 53/63/16 21/64/16
f 23/65/17 32/66/17 31/67/17
f 43/68/17 48/69/17 42/70/17
f 39/71/15 52/72/15 46/73/15
f 45/74/14 50/75/14 44/76/14
f 38/77/13 47/78/13 41/79/13
f 43/68/13 57/80/13 49/81/13
f 39/71/14 59/82/14 40/83/14
f 38/77/15 60/84/15 37/85/15
f 45/74/17 58/86/17 51/87/17
f 12/88/1 42/89/1 24/90/1
f 25/91/4 39/92/4 10/93/4
f 34/94/18 44/95/18 50/96/18
f 11/97/4 44/98/4 26/99/4
f 15/100/2 59/101/2 33/102/2
f 35/103/19 56/104/19 27/105/19
f 10/106/3 46/107/3 28/108/3
f 27/109/3 38/110/3 9/111/3
f 36/112/20 46/113/20 52/114/20
f 20/115/1 60/116/1 35/117/1
f 30/28/4 37/118/4 20/29/4
f 31/119/21 54/120/21 23/121/21
f 21/122/2 43/123/2 12/124/2
f 32/31/3 49/125/3 19/32/3
f 19/126/4 57/127/4 29/128/4
f 32/129/22 42/130/22 48/131/22
f 62/132/23 63/133/23 61/134/23
f 64/135/24 67/136/24 63/137/24
f 68/138/25 65/139/25 67/140/25
f 66/141/26 61/142/26 65/143/26
f 67/144/5 61/145/5 63/146/5
f 64/147/6 66/148/6 68/149/6
f 27/2/1 9/150/1 2/3/1
f 2/3/1 4/151/1 28/1/1
f 4/151/1 10/152/1 28/1/1
f 25/5/2 10/153/2 4/6/2
f 4/6/2 8/154/2 26/4/2
f 8/154/2 11/155/2 26/4/2
f 23/8/3 11/156/3 8/9/3
f 8/9/3 6/157/3 24/7/3
f 6/157/3 12/158/3 24/7/3
f 21/11/4 12/159/4 6/12/4
f 6/12/4 2/160/4 22/10/4
f 2/160/4 9/161/4 22/10/4
f 7/13/5 5/26/5 1/14/5
f 4/16/6 2/162/6 6/17/6
f 3/15/7 13/40/7 16/19/7
f 33/20/8 59/163/8 55/21/8
f 17/23/3 51/164/3 58/24/3
f 5/26/9 18/42/9 14/27/9
f 14/30/4 18/165/4 29/128/4
f 18/165/4 19/126/4 29/128/4
f 29/128/4 30/28/4 14/30/4
f 18/33/3 16/166/3 31/25/3
f 16/166/3 17/23/3 31/25/3
f 31/25/3 32/31/3 18/33/3
f 16/36/2 13/167/2 33/102/2
f 13/167/2 15/100/2 33/102/2
f 33/102/2 34/34/2 16/36/2
f 13/39/1 14/168/1 35/117/1
f 14/168/1 20/115/1 35/117/1
f 35/117/1 36/37/1 13/39/1
f 1/14/10 14/27/10 13/40/10
f 36/37/1 52/169/1 40/41/1
f 7/13/11 16/19/11 18/42/11
f 9/43/2 38/170/2 41/44/2
f 30/46/12 22/171/12 41/47/12
f 21/49/13 22/172/13 30/50/13
f 23/52/1 54/173/1 45/53/1
f 25/55/14 26/174/14 34/56/14
f 34/34/2 50/175/2 51/58/2
f 27/59/15 28/176/15 36/60/15
f 29/62/16 57/177/16 53/63/16
f 23/65/17 24/178/17 32/66/17
f 43/68/17 49/81/17 48/69/17
f 39/71/15 40/83/15 52/72/15
f 45/74/14 51/87/14 50/75/14
f 38/77/13 37/85/13 47/78/13
f 43/68/13 53/179/13 57/80/13
f 39/71/14 55/180/14 59/82/14
f 38/77/15 56/181/15 60/84/15
f 45/74/17 54/182/17 58/86/17
f 12/88/1 43/183/1 42/89/1
f 25/91/4 55/184/4 39/92/4
f 34/94/18 26/185/18 44/95/18
f 11/97/4 45/186/4 44/98/4
f 15/100/2 40/187/2 59/101/2
f 35/103/27 60/188/27 56/104/27
f 10/106/3 39/189/3 46/107/3
f 27/109/3 56/190/3 38/110/3
f 36/112/28 28/191/28 46/113/28
f 20/115/1 37/192/1 60/116/1
f 30/28/4 47/193/4 37/118/4
f 31/119/29 58/194/29 54/120/29
f 21/122/2 53/195/2 43/123/2
f 32/31/3 48/196/3 49/125/3
f 19/126/4 49/197/4 57/127/4
f 32/129/30 24/198/30 42/130/30
f 62/132/23 64/199/23 63/133/23
f 64/135/24 68/200/24 67/136/24
f 68/138/25 66/201/25 65/139/25
f 66/141/26 62/202/26 61/142/26
f 67/144/5 65/203/5 61/145/5
f 64/147/6 62/204/6 66/148/6
