# Blender v3.4.1 OBJ File: 'japanese-roof.blend'
# www.blender.org
o Cylinder
v -1.034650 0.287385 0.523771
v 1.034650 0.290205 0.523771
v -1.034786 0.378926 0.485855
v 1.034515 0.381746 0.485855
v -1.034842 0.416844 0.394316
v 1.034459 0.419664 0.394316
v -1.034786 0.378926 0.302778
v 1.034515 0.381746 0.302778
v -1.034650 0.287385 0.264861
v 1.034650 0.290205 0.264861
v -1.034515 0.195843 0.302778
v 1.034786 0.198663 0.302778
v -1.034459 0.157926 0.394316
v 1.034842 0.160745 0.394316
v -1.034515 0.195843 0.485855
v 1.034786 0.198663 0.485855
v 1.029298 0.067465 0.269257
v 1.029298 0.292954 0.269257
v 1.029298 0.067465 0.521197
v 1.029298 0.292954 0.521197
v -1.029298 0.067465 0.269257
v -1.029298 0.292954 0.269257
v -1.029298 0.067465 0.521197
v -1.029298 0.292954 0.521197
vt 0.250000 0.490000
vt 0.010000 0.250000
vt 0.250000 0.010000
vt 0.580294 0.080294
vt 0.510000 0.250000
vt 0.580294 0.419706
vt 0.625000 0.000000
vt 0.375000 0.250000
vt 0.375000 0.000000
vt 0.625000 0.250000
vt 0.375000 0.500000
vt 0.625000 0.500000
vt 0.375000 0.750000
vt 0.625000 0.750000
vt 0.375000 1.000000
vt 0.125000 0.750000
vt 0.125000 0.500000
vt 0.875000 0.500000
vt 0.490000 0.250000
vt 0.419706 0.419706
vt 0.080294 0.419706
vt 0.080294 0.080294
vt 0.419706 0.080294
vt 0.750000 0.490000
vt 0.919706 0.080294
vt 0.919706 0.419706
vt 0.990000 0.250000
vt 0.750000 0.010000
vt 0.625000 1.000000
vt 0.875000 0.750000
vt 1.000000 0.500000
vt 0.875000 1.000000
vt 0.875000 0.500000
vt 0.750000 0.500000
vt 0.750000 1.000000
vt 0.625000 0.500000
vt 0.625000 1.000000
vt 0.500000 0.500000
vt 0.500000 1.000000
vt 0.375000 0.500000
vt 0.375000 1.000000
vt 0.250000 0.500000
vt 0.250000 1.000000
vt 0.125000 0.500000
vt 0.125000 1.000000
vt 0.000000 0.500000
vt 1.000000 1.000000
vt 0.000000 1.000000
vn 1.0000 0.0015 0.0000
vn -1.0000 -0.0015 0.0000
vn 1.0000 0.0000 0.0000
vn 0.0000 0.0000 1.0000
vn -1.0000 0.0000 0.0000
vn 0.0000 0.0000 -1.0000
vn 0.0000 -1.0000 0.0000
vn 0.0000 1.0000 0.0000
vn -0.6303 -0.0009 0.7764
vn 0.6295 0.5499 0.5490
vn -0.6310 0.5481 0.5490
vn -0.6314 0.7755 0.0000
vn 0.6292 0.7773 -0.0000
vn -0.6310 0.5481 -0.5490
vn 0.6295 0.5499 -0.5490
vn -0.6303 -0.0009 -0.7764
vn 0.6303 0.0009 -0.7764
vn -0.6295 -0.5499 -0.5490
vn 0.6310 -0.5481 -0.5490
vn -0.6292 -0.7773 0.0000
vn 0.6314 -0.7755 -0.0000
vn -0.6295 -0.5499 0.5490
vn 0.6310 -0.5481 0.5490
vn 0.6303 0.0009 0.7764
s off
f 2/1/1 14/2/1 10/3/1
f 11/4/2 13/5/2 15/6/2
f 18/7/3 19/8/3 17/9/3
f 20/10/4 23/11/4 19/8/4
f 24/12/5 21/13/5 23/11/5
f 22/14/6 17/15/6 21/13/6
f 23/11/7 17/16/7 19/17/7
f 20/18/8 22/14/8 24/12/8
f 6/19/1 4/20/1 2/1/1
f 2/1/1 16/21/1 14/2/1
f 14/2/1 12/22/1 10/3/1
f 10/3/1 8/23/1 6/19/1
f 6/19/1 2/1/1 10/3/1
f 15/6/2 1/24/2 7/25/2
f 1/24/2 3/26/2 7/25/2
f 3/26/2 5/27/2 7/25/2
f 7/25/2 9/28/2 15/6/2
f 9/28/2 11/4/2 15/6/2
f 18/7/3 20/10/3 19/8/3
f 20/10/4 24/12/4 23/11/4
f 24/12/5 22/14/5 21/13/5
f 22/14/6 18/29/6 17/15/6
f 23/11/7 21/13/7 17/16/7
f 20/18/8 18/30/8 22/14/8
s 1
f 1/31/9 4/32/10 3/33/11
f 4/32/10 5/34/12 3/33/11
f 6/35/13 7/36/14 5/34/12
f 8/37/15 9/38/16 7/36/14
f 10/39/17 11/40/18 9/38/16
f 12/41/19 13/42/20 11/40/18
f 14/43/21 15/44/22 13/42/20
f 16/45/23 1/46/9 15/44/22
f 1/31/9 2/47/24 4/32/10
f 4/32/10 6/35/13 5/34/12
f 6/35/13 8/37/15 7/36/14
f 8/37/15 10/39/17 9/38/16
f 10/39/17 12/41/19 11/40/18
f 12/41/19 14/43/21 13/42/20
f 14/43/21 16/45/23 15/44/22
f 16/45/23 2/48/24 1/46/9
o Cube_Cube.001
v 1.034872 -0.338640 -0.413175
v 1.034872 -0.243273 -0.468235
v 1.034872 0.110735 0.365166
v 1.034872 0.206102 0.310106
v -1.034872 -0.338640 -0.413175
v -1.034872 -0.243273 -0.468235
v -1.034872 0.110735 0.365166
v -1.034872 0.206102 0.310106
vt 0.625000 0.000000
vt 0.375000 0.250000
vt 0.375000 0.000000
vt 0.625000 0.250000
vt 0.375000 0.500000
vt 0.625000 0.500000
vt 0.375000 0.750000
vt 0.625000 0.750000
vt 0.375000 1.000000
vt 0.125000 0.750000
vt 0.125000 0.500000
vt 0.875000 0.500000
vt 0.625000 1.000000
vt 0.875000 0.750000
vn 1.0000 -0.0000 0.0000
vn 0.0000 0.5000 0.8660
vn -1.0000 0.0000 0.0000
vn 0.0000 -0.5000 -0.8660
vn 0.0000 -0.8660 0.5000
vn 0.0000 0.8660 -0.5000
s off
f 26/49/25 27/50/25 25/51/25
f 28/52/26 31/53/26 27/50/26
f 32/54/27 29/55/27 31/53/27
f 30/56/28 25/57/28 29/55/28
f 31/53/29 25/58/29 27/59/29
f 28/60/30 30/56/30 32/54/30
f 26/49/25 28/52/25 27/50/25
f 28/52/26 32/54/26 31/53/26
f 32/54/27 30/56/27 29/55/27
f 30/56/28 26/61/28 25/57/28
f 31/53/29 29/55/29 25/58/29
f 28/60/30 26/62/30 30/56/30
o Cylinder.001
v 0.998856 0.253604 0.304175
v 0.998856 -0.200136 -0.485991
v 0.931220 0.278452 0.289857
v 0.931220 -0.175288 -0.500309
v 0.863585 0.253604 0.304175
v 0.863585 -0.200136 -0.485991
v 1.020180 -0.245797 -0.459682
v 1.019317 0.209791 0.329420
v 0.842261 -0.245797 -0.459682
v 0.843123 0.209791 0.329420
vt 0.490000 0.250000
vt 0.419706 0.419706
vt 0.290535 0.473210
vt 0.990000 0.250000
vt 0.919706 0.080294
vt 0.795762 0.028955
vt 0.874232 0.548397
vt 0.625759 0.578351
vt 0.874232 0.578497
vt 0.290535 0.026790
vt 0.419706 0.080294
vt 0.795762 0.471045
vt 0.919706 0.419706
vt 0.625759 0.548543
vt 0.875000 1.000000
vt 0.966293 0.500000
vt 0.970143 1.000000
vt 0.750000 0.500000
vt 0.875000 0.500000
vt 0.625000 1.000000
vt 0.625000 0.500000
vt 0.533707 0.500000
vt 0.529857 1.000000
vt 0.750000 1.000000
vn 0.0000 -0.4993 -0.8665
vn -0.0000 0.4993 0.8665
vn 0.0000 -0.8660 0.5000
vn 0.5536 0.1576 -0.8178
vn 0.6869 -0.1214 0.7166
vn 0.6873 -0.6808 -0.2533
vn 0.0000 0.9875 0.1574
vn 0.5534 0.7863 0.2748
vn -0.5536 0.1576 -0.8178
vn -0.5534 0.7863 0.2748
vn -0.6869 -0.1214 0.7166
vn -0.6873 -0.6808 -0.2533
vn -0.0000 0.3604 -0.9328
s off
f 36/63/31 34/64/31 39/65/31
f 35/66/32 37/67/32 42/68/32
f 39/69/33 42/70/33 41/71/33
f 39/65/31 41/72/31 36/63/31
f 41/72/31 38/73/31 36/63/31
f 42/68/32 40/74/32 35/66/32
f 40/74/32 33/75/32 35/66/32
f 39/69/33 40/76/33 42/70/33
s 1
f 34/77/34 40/78/35 39/79/36
f 34/77/34 35/80/37 33/81/38
f 35/80/37 38/82/39 37/83/40
f 42/84/41 38/82/39 41/85/42
f 34/77/34 33/81/38 40/78/35
f 34/77/34 36/86/43 35/80/37
f 35/80/37 36/86/43 38/82/39
f 42/84/41 37/83/40 38/82/39
o Cylinder.003_Cylinder.007
v -0.855208 0.253604 0.304175
v -0.855208 -0.200136 -0.485991
v -0.922844 0.278452 0.289857
v -0.922844 -0.175288 -0.500309
v -0.990480 0.253604 0.304175
v -0.990480 -0.200136 -0.485991
v -0.833884 -0.245797 -0.459682
v -0.834747 0.209791 0.329420
v -1.011804 -0.245797 -0.459682
v -1.010941 0.209791 0.329420
v -0.442601 0.253604 0.304175
v -0.442601 -0.200136 -0.485991
v -0.510237 0.278452 0.289857
v -0.510237 -0.175288 -0.500309
v -0.577873 0.253604 0.304175
v -0.577873 -0.200136 -0.485991
v -0.421277 -0.245797 -0.459682
v -0.422140 0.209791 0.329420
v -0.599197 -0.245797 -0.459682
v -0.598334 0.209791 0.329420
v -0.651169 0.253604 0.304175
v -0.651169 -0.200136 -0.485991
v -0.718805 0.278452 0.289857
v -0.718805 -0.175288 -0.500309
v -0.786441 0.253604 0.304175
v -0.786440 -0.200136 -0.485991
v -0.629845 -0.245797 -0.459682
v -0.630708 0.209791 0.329420
v -0.807765 -0.245797 -0.459682
v -0.806902 0.209791 0.329420
v 0.382210 0.253604 0.304175
v 0.382210 -0.200136 -0.485991
v 0.314575 0.278452 0.289857
v 0.314575 -0.175288 -0.500309
v 0.246939 0.253604 0.304175
v 0.246939 -0.200136 -0.485991
v 0.403535 -0.245797 -0.459682
v 0.402672 0.209791 0.329420
v 0.225615 -0.245797 -0.459682
v 0.226478 0.209791 0.329420
v 0.794817 0.253604 0.304175
v 0.794817 -0.200136 -0.485991
v 0.727182 0.278452 0.289857
v 0.727182 -0.175288 -0.500309
v 0.659546 0.253604 0.304175
v 0.659546 -0.200136 -0.485991
v 0.816141 -0.245797 -0.459682
v 0.815278 0.209791 0.329420
v 0.638222 -0.245797 -0.459682
v 0.639085 0.209791 0.329420
v 0.586250 0.253604 0.304175
v 0.586250 -0.200136 -0.485991
v 0.518614 0.278452 0.289857
v 0.518614 -0.175288 -0.500309
v 0.450978 0.253604 0.304175
v 0.450978 -0.200136 -0.485991
v 0.607574 -0.245797 -0.459682
v 0.606711 0.209791 0.329420
v 0.429654 -0.245797 -0.459682
v 0.430517 0.209791 0.329420
v -0.236786 0.253604 0.304175
v -0.236786 -0.200136 -0.485991
v -0.304422 0.278452 0.289857
v -0.304422 -0.175288 -0.500309
v -0.372058 0.253604 0.304175
v -0.372058 -0.200136 -0.485991
v -0.215462 -0.245797 -0.459682
v -0.216325 0.209791 0.329420
v -0.393382 -0.245797 -0.459682
v -0.392519 0.209791 0.329420
v 0.175820 0.253604 0.304175
v 0.175820 -0.200136 -0.485991
v 0.108185 0.278452 0.289857
v 0.108185 -0.175288 -0.500309
v 0.040549 0.253604 0.304175
v 0.040549 -0.200136 -0.485991
v 0.197145 -0.245797 -0.459682
v 0.196281 0.209791 0.329420
v 0.019225 -0.245797 -0.459682
v 0.020088 0.209791 0.329420
v -0.032747 0.253604 0.304175
v -0.032747 -0.200136 -0.485991
v -0.100383 0.278452 0.289857
v -0.100383 -0.175288 -0.500309
v -0.168019 0.253604 0.304175
v -0.168019 -0.200136 -0.485991
v -0.011423 -0.245797 -0.459682
v -0.012286 0.209791 0.329420
v -0.189343 -0.245797 -0.459682
v -0.188480 0.209791 0.329420
vt 0.490000 0.250000
vt 0.419706 0.419706
vt 0.290535 0.473210
vt 0.990000 0.250000
vt 0.919706 0.080294
vt 0.795762 0.028955
vt 0.874232 0.548397
vt 0.625759 0.578351
vt 0.874232 0.578497
vt 0.490000 0.250000
vt 0.419706 0.419706
vt 0.290535 0.473210
vt 0.990000 0.250000
vt 0.919706 0.080294
vt 0.795762 0.028955
vt 0.874232 0.548397
vt 0.625759 0.578351
vt 0.874232 0.578497
vt 0.490000 0.250000
vt 0.419706 0.419706
vt 0.290535 0.473210
vt 0.990000 0.250000
vt 0.919706 0.080294
vt 0.795762 0.028955
vt 0.874232 0.548397
vt 0.625759 0.578351
vt 0.874232 0.578497
vt 0.490000 0.250000
vt 0.419706 0.419706
vt 0.290535 0.473210
vt 0.990000 0.250000
vt 0.919706 0.080294
vt 0.795762 0.028955
vt 0.874232 0.548397
vt 0.625759 0.578351
vt 0.874232 0.578497
vt 0.490000 0.250000
vt 0.419706 0.419706
vt 0.290535 0.473210
vt 0.990000 0.250000
vt 0.919706 0.080294
vt 0.795762 0.028955
vt 0.874232 0.548397
vt 0.625759 0.578351
vt 0.874232 0.578497
vt 0.490000 0.250000
vt 0.419706 0.419706
vt 0.290535 0.473210
vt 0.990000 0.250000
vt 0.919706 0.080294
vt 0.795762 0.028955
vt 0.874232 0.548397
vt 0.625759 0.578351
vt 0.874232 0.578497
vt 0.490000 0.250000
vt 0.419706 0.419706
vt 0.290535 0.473210
vt 0.990000 0.250000
vt 0.919706 0.080294
vt 0.795762 0.028955
vt 0.874232 0.548397
vt 0.625759 0.578351
vt 0.874232 0.578497
vt 0.490000 0.250000
vt 0.419706 0.419706
vt 0.290535 0.473210
vt 0.990000 0.250000
vt 0.919706 0.080294
vt 0.795762 0.028955
vt 0.874232 0.548397
vt 0.625759 0.578351
vt 0.874232 0.578497
vt 0.490000 0.250000
vt 0.419706 0.419706
vt 0.290535 0.473210
vt 0.990000 0.250000
vt 0.919706 0.080294
vt 0.795762 0.028955
vt 0.874232 0.548397
vt 0.625759 0.578351
vt 0.874232 0.578497
vt 0.290535 0.026790
vt 0.419706 0.080294
vt 0.795762 0.471045
vt 0.919706 0.419706
vt 0.625759 0.548543
vt 0.290535 0.026790
vt 0.419706 0.080294
vt 0.795762 0.471045
vt 0.919706 0.419706
vt 0.625759 0.548543
vt 0.290535 0.026790
vt 0.419706 0.080294
vt 0.795762 0.471045
vt 0.919706 0.419706
vt 0.625759 0.548543
vt 0.290535 0.026790
vt 0.419706 0.080294
vt 0.795762 0.471045
vt 0.919706 0.419706
vt 0.625759 0.548543
vt 0.290535 0.026790
vt 0.419706 0.080294
vt 0.795762 0.471045
vt 0.919706 0.419706
vt 0.625759 0.548543
vt 0.290535 0.026790
vt 0.419706 0.080294
vt 0.795762 0.471045
vt 0.919706 0.419706
vt 0.625759 0.548543
vt 0.290535 0.026790
vt 0.419706 0.080294
vt 0.795762 0.471045
vt 0.919706 0.419706
vt 0.625759 0.548543
vt 0.290535 0.026790
vt 0.419706 0.080294
vt 0.795762 0.471045
vt 0.919706 0.419706
vt 0.625759 0.548543
vt 0.290535 0.026790
vt 0.419706 0.080294
vt 0.795762 0.471045
vt 0.919706 0.419706
vt 0.625759 0.548543
vt 0.875000 1.000000
vt 0.966293 0.500000
vt 0.970143 1.000000
vt 0.750000 0.500000
vt 0.875000 0.500000
vt 0.625000 1.000000
vt 0.625000 0.500000
vt 0.533707 0.500000
vt 0.529857 1.000000
vt 0.875000 1.000000
vt 0.966293 0.500000
vt 0.970143 1.000000
vt 0.750000 0.500000
vt 0.875000 0.500000
vt 0.750000 1.000000
vt 0.625000 0.500000
vt 0.533707 0.500000
vt 0.625000 1.000000
vt 0.529857 1.000000
vt 0.875000 1.000000
vt 0.966293 0.500000
vt 0.970143 1.000000
vt 0.750000 0.500000
vt 0.875000 0.500000
vt 0.750000 1.000000
vt 0.625000 0.500000
vt 0.533707 0.500000
vt 0.625000 1.000000
vt 0.529857 1.000000
vt 0.875000 1.000000
vt 0.966293 0.500000
vt 0.970143 1.000000
vt 0.750000 0.500000
vt 0.875000 0.500000
vt 0.625000 1.000000
vt 0.625000 0.500000
vt 0.533707 0.500000
vt 0.529857 1.000000
vt 0.875000 1.000000
vt 0.966293 0.500000
vt 0.970143 1.000000
vt 0.750000 0.500000
vt 0.875000 0.500000
vt 0.750000 1.000000
vt 0.625000 0.500000
vt 0.533707 0.500000
vt 0.625000 1.000000
vt 0.529857 1.000000
vt 0.875000 1.000000
vt 0.966293 0.500000
vt 0.970143 1.000000
vt 0.750000 0.500000
vt 0.875000 0.500000
vt 0.750000 1.000000
vt 0.625000 0.500000
vt 0.533707 0.500000
vt 0.625000 1.000000
vt 0.529857 1.000000
vt 0.875000 1.000000
vt 0.966293 0.500000
vt 0.970143 1.000000
vt 0.750000 0.500000
vt 0.875000 0.500000
vt 0.750000 1.000000
vt 0.625000 0.500000
vt 0.533707 0.500000
vt 0.625000 1.000000
vt 0.529857 1.000000
vt 0.875000 1.000000
vt 0.966293 0.500000
vt 0.970143 1.000000
vt 0.875000 0.500000
vt 0.750000 1.000000
vt 0.750000 0.500000
vt 0.625000 1.000000
vt 0.625000 0.500000
vt 0.533707 0.500000
vt 0.529857 1.000000
vt 0.875000 1.000000
vt 0.966293 0.500000
vt 0.970143 1.000000
vt 0.750000 0.500000
vt 0.875000 0.500000
vt 0.625000 1.000000
vt 0.625000 0.500000
vt 0.533707 0.500000
vt 0.529857 1.000000
vt 0.750000 1.000000
vt 0.750000 1.000000
vt 0.750000 1.000000
vn 0.0000 -0.4993 -0.8665
vn -0.0000 0.4993 0.8665
vn 0.0000 -0.8660 0.5000
vn 0.5536 0.1576 -0.8178
vn 0.6869 -0.1214 0.7166
vn 0.6873 -0.6808 -0.2533
vn -0.0000 0.9875 0.1574
vn 0.5534 0.7863 0.2748
vn -0.5536 0.1576 -0.8178
vn -0.5534 0.7863 0.2748
vn -0.6869 -0.1214 0.7166
vn -0.6873 -0.6808 -0.2533
vn -0.0000 0.3604 -0.9328
s off
f 46/87/44 44/88/44 49/89/44
f 45/90/45 47/91/45 52/92/45
f 49/93/46 52/94/46 51/95/46
f 56/96/44 54/97/44 59/98/44
f 55/99/45 57/100/45 62/101/45
f 59/102/46 62/103/46 61/104/46
f 66/105/44 64/106/44 69/107/44
f 65/108/45 67/109/45 72/110/45
f 69/111/46 72/112/46 71/113/46
f 76/114/44 74/115/44 79/116/44
f 75/117/45 77/118/45 82/119/45
f 79/120/46 82/121/46 81/122/46
f 86/123/44 84/124/44 89/125/44
f 85/126/45 87/127/45 92/128/45
f 89/129/46 92/130/46 91/131/46
f 96/132/44 94/133/44 99/134/44
f 95/135/45 97/136/45 102/137/45
f 99/138/46 102/139/46 101/140/46
f 106/141/44 104/142/44 109/143/44
f 105/144/45 107/145/45 112/146/45
f 109/147/46 112/148/46 111/149/46
f 116/150/44 114/151/44 119/152/44
f 115/153/45 117/154/45 122/155/45
f 119/156/46 122/157/46 121/158/46
f 126/159/44 124/160/44 129/161/44
f 125/162/45 127/163/45 132/164/45
f 129/165/46 132/166/46 131/167/46
f 49/89/44 51/168/44 46/87/44
f 51/168/44 48/169/44 46/87/44
f 52/92/45 50/170/45 45/90/45
f 50/170/45 43/171/45 45/90/45
f 49/93/46 50/172/46 52/94/46
f 59/98/44 61/173/44 56/96/44
f 61/173/44 58/174/44 56/96/44
f 62/101/45 60/175/45 55/99/45
f 60/175/45 53/176/45 55/99/45
f 59/102/46 60/177/46 62/103/46
f 69/107/44 71/178/44 66/105/44
f 71/178/44 68/179/44 66/105/44
f 72/110/45 70/180/45 65/108/45
f 70/180/45 63/181/45 65/108/45
f 69/111/46 70/182/46 72/112/46
f 79/116/44 81/183/44 76/114/44
f 81/183/44 78/184/44 76/114/44
f 82/119/45 80/185/45 75/117/45
f 80/185/45 73/186/45 75/117/45
f 79/120/46 80/187/46 82/121/46
f 89/125/44 91/188/44 86/123/44
f 91/188/44 88/189/44 86/123/44
f 92/128/45 90/190/45 85/126/45
f 90/190/45 83/191/45 85/126/45
f 89/129/46 90/192/46 92/130/46
f 99/134/44 101/193/44 96/132/44
f 101/193/44 98/194/44 96/132/44
f 102/137/45 100/195/45 95/135/45
f 100/195/45 93/196/45 95/135/45
f 99/138/46 100/197/46 102/139/46
f 109/143/44 111/198/44 106/141/44
f 111/198/44 108/199/44 106/141/44
f 112/146/45 110/200/45 105/144/45
f 110/200/45 103/201/45 105/144/45
f 109/147/46 110/202/46 112/148/46
f 119/152/44 121/203/44 116/150/44
f 121/203/44 118/204/44 116/150/44
f 122/155/45 120/205/45 115/153/45
f 120/205/45 113/206/45 115/153/45
f 119/156/46 120/207/46 122/157/46
f 129/161/44 131/208/44 126/159/44
f 131/208/44 128/209/44 126/159/44
f 132/164/45 130/210/45 125/162/45
f 130/210/45 123/211/45 125/162/45
f 129/165/46 130/212/46 132/166/46
s 1
f 44/213/47 50/214/48 49/215/49
f 44/213/47 45/216/50 43/217/51
f 45/216/50 48/218/52 47/219/53
f 52/220/54 48/218/52 51/221/55
f 54/222/47 60/223/48 59/224/49
f 54/222/47 55/225/50 53/226/51
f 56/227/56 57/228/53 55/225/50
f 62/229/54 58/230/52 61/231/55
f 64/232/47 70/233/48 69/234/49
f 64/232/47 65/235/50 63/236/51
f 66/237/56 67/238/53 65/235/50
f 72/239/54 68/240/52 71/241/55
f 74/242/47 80/243/48 79/244/49
f 74/242/47 75/245/50 73/246/51
f 75/245/50 78/247/52 77/248/53
f 82/249/54 78/247/52 81/250/55
f 84/251/47 90/252/48 89/253/49
f 84/251/47 85/254/50 83/255/51
f 86/256/56 87/257/53 85/254/50
f 92/258/54 88/259/52 91/260/55
f 94/261/47 100/262/48 99/263/49
f 94/261/47 95/264/50 93/265/51
f 96/266/56 97/267/53 95/264/50
f 102/268/54 98/269/52 101/270/55
f 104/271/47 110/272/48 109/273/49
f 104/271/47 105/274/50 103/275/51
f 106/276/56 107/277/53 105/274/50
f 112/278/54 108/279/52 111/280/55
f 114/281/47 120/282/48 119/283/49
f 113/284/51 116/285/56 115/286/50
f 115/286/50 118/287/52 117/288/53
f 122/289/54 118/287/52 121/290/55
f 124/291/47 130/292/48 129/293/49
f 124/291/47 125/294/50 123/295/51
f 125/294/50 128/296/52 127/297/53
f 132/298/54 128/296/52 131/299/55
f 44/213/47 43/217/51 50/214/48
f 44/213/47 46/300/56 45/216/50
f 45/216/50 46/300/56 48/218/52
f 52/220/54 47/219/53 48/218/52
f 54/222/47 53/226/51 60/223/48
f 54/222/47 56/227/56 55/225/50
f 56/227/56 58/230/52 57/228/53
f 62/229/54 57/228/53 58/230/52
f 64/232/47 63/236/51 70/233/48
f 64/232/47 66/237/56 65/235/50
f 66/237/56 68/240/52 67/238/53
f 72/239/54 67/238/53 68/240/52
f 74/242/47 73/246/51 80/243/48
f 74/242/47 76/301/56 75/245/50
f 75/245/50 76/301/56 78/247/52
f 82/249/54 77/248/53 78/247/52
f 84/251/47 83/255/51 90/252/48
f 84/251/47 86/256/56 85/254/50
f 86/256/56 88/259/52 87/257/53
f 92/258/54 87/257/53 88/259/52
f 94/261/47 93/265/51 100/262/48
f 94/261/47 96/266/56 95/264/50
f 96/266/56 98/269/52 97/267/53
f 102/268/54 97/267/53 98/269/52
f 104/271/47 103/275/51 110/272/48
f 104/271/47 106/276/56 105/274/50
f 106/276/56 108/279/52 107/277/53
f 112/278/54 107/277/53 108/279/52
f 114/281/47 113/284/51 120/282/48
f 113/284/51 114/281/47 116/285/56
f 115/286/50 116/285/56 118/287/52
f 122/289/54 117/288/53 118/287/52
f 124/291/47 123/295/51 130/292/48
f 124/291/47 126/302/56 125/294/50
f 125/294/50 126/302/56 128/296/52
f 132/298/54 127/297/53 128/296/52
