# Blender v3.4.1 OBJ File: 'ladder.blend'
# www.blender.org
o Cube.007
v 0.419825 0.793420 -0.207889
v 0.419825 0.851666 -0.207889
v 0.419825 0.793420 -0.146134
v 0.419825 0.851666 -0.146134
v -0.419825 0.793420 -0.207889
v -0.419825 0.851666 -0.207889
v -0.419825 0.793420 -0.146134
v -0.419825 0.851666 -0.146134
v 0.364163 1.000000 -0.133901
v 0.364163 -1.000000 -0.133901
v 0.364163 1.000000 -0.220122
v 0.364163 -1.000000 -0.220122
v 0.447590 1.000000 -0.133901
v 0.447590 -1.000000 -0.133901
v 0.447590 1.000000 -0.220122
v 0.447590 -1.000000 -0.220122
v -0.454484 1.000000 -0.133901
v -0.454484 -1.000000 -0.133901
v -0.454484 1.000000 -0.220122
v -0.454484 -1.000000 -0.220122
v -0.371058 1.000000 -0.133901
v -0.371058 -1.000000 -0.133901
v -0.371058 1.000000 -0.220122
v -0.371058 -1.000000 -0.220122
v 0.419825 -0.830155 -0.207889
v 0.419825 -0.771909 -0.207889
v 0.419825 -0.830155 -0.146134
v 0.419825 -0.771909 -0.146134
v -0.419825 -0.830155 -0.207889
v -0.419825 -0.771909 -0.207889
v -0.419825 -0.830155 -0.146134
v -0.419825 -0.771909 -0.146134
v 0.419825 -0.494901 -0.207889
v 0.419825 -0.436655 -0.207889
v 0.419825 -0.494901 -0.146134
v 0.419825 -0.436655 -0.146134
v -0.419825 -0.494901 -0.207889
v -0.419825 -0.436655 -0.207889
v -0.419825 -0.494901 -0.146134
v -0.419825 -0.436655 -0.146134
v 0.419825 -0.168314 -0.207889
v 0.419825 -0.110068 -0.207889
v 0.419825 -0.168314 -0.146134
v 0.419825 -0.110068 -0.146134
v -0.419825 -0.168314 -0.207889
v -0.419825 -0.110068 -0.207889
v -0.419825 -0.168314 -0.146134
v -0.419825 -0.110068 -0.146134
v 0.419825 0.156966 -0.207889
v 0.419825 0.215212 -0.207889
v 0.419825 0.156966 -0.146134
v 0.419825 0.215212 -0.146134
v -0.419825 0.156966 -0.207889
v -0.419825 0.215212 -0.207889
v -0.419825 0.156966 -0.146134
v -0.419825 0.215212 -0.146134
v 0.419825 0.483553 -0.207889
v 0.419825 0.541799 -0.207889
v 0.419825 0.483553 -0.146134
v 0.419825 0.541799 -0.146134
v -0.419825 0.483553 -0.207889
v -0.419825 0.541799 -0.207889
v -0.419825 0.483553 -0.146134
v -0.419825 0.541799 -0.146134
v 0.376423 -0.084463 -0.184535
v 0.376423 0.084463 -0.184535
v 0.376423 -0.084463 0.237014
v 0.376423 0.084463 0.237014
v 0.436761 -0.084463 -0.184535
v 0.436761 0.084463 -0.184535
v 0.436761 -0.084463 0.237014
v 0.436761 0.084463 0.237014
v -0.442563 -0.084463 -0.184535
v -0.442563 0.084463 -0.184535
v -0.442563 -0.084463 0.237014
v -0.442563 0.084463 0.237014
v -0.382224 -0.084463 -0.184535
v -0.382224 0.084463 -0.184535
v -0.382224 -0.084463 0.237014
v -0.382224 0.084463 0.237014
vt 0.788656 0.604863
vt 0.817779 0.573985
vt 0.817779 0.604863
vt 0.461052 0.839650
vt 0.490176 0.419825
vt 0.490176 0.839650
vt 0.783658 0.481580
vt 0.812781 0.450702
vt 0.812781 0.481580
vt 0.797195 0.419825
vt 0.826319 0.000000
vt 0.826319 0.419825
vt 0.462807 0.419825
vt 0.431929 0.000000
vt 0.462807 0.000000
vt 0.401052 0.419825
vt 0.370174 0.000000
vt 0.401052 0.000000
vt 0.626275 0.752974
vt 0.584562 0.796085
vt 0.584562 0.752974
vt 0.339297 1.000000
vt 0.297584 0.000000
vt 0.339297 0.000000
vt 0.129333 1.000000
vt 0.086222 0.000000
vt 0.129333 0.000000
vt 0.667988 0.752974
vt 0.626275 0.796085
vt 0.626275 0.752974
vt 0.172444 1.000000
vt 0.129333 0.000000
vt 0.172444 0.000000
vt 0.255870 1.000000
vt 0.214157 0.000000
vt 0.255870 0.000000
vt 0.709702 0.752974
vt 0.667988 0.796085
vt 0.667988 0.752974
vt 0.297584 1.000000
vt 0.255870 0.000000
vt 0.297584 0.000000
vt 0.086222 1.000000
vt 0.043111 0.000000
vt 0.086222 0.000000
vt 0.801246 0.530875
vt 0.759533 0.573985
vt 0.759533 0.530875
vt 0.043111 1.000000
vt 0.000000 0.000000
vt 0.043111 0.000000
vt 0.214157 1.000000
vt 0.172444 0.000000
vt 0.214157 0.000000
vt 0.759533 0.604863
vt 0.788656 0.573985
vt 0.788656 0.604863
vt 0.768072 0.419825
vt 0.797195 0.000000
vt 0.797195 0.419825
vt 0.759533 0.666618
vt 0.788656 0.635740
vt 0.788656 0.666618
vt 0.490176 0.839650
vt 0.519299 0.419825
vt 0.519299 0.839650
vt 0.586316 0.419825
vt 0.555439 0.000000
vt 0.586316 0.000000
vt 0.524561 0.419825
vt 0.493684 0.000000
vt 0.524561 0.000000
vt 0.759533 0.730678
vt 0.788656 0.699801
vt 0.788656 0.730678
vt 0.339297 0.839650
vt 0.368420 0.419825
vt 0.368420 0.839650
vt 0.759533 0.761556
vt 0.788656 0.730678
vt 0.788656 0.761556
vt 0.431929 0.839650
vt 0.461052 0.419825
vt 0.461052 0.839650
vt 0.617194 0.419825
vt 0.586316 0.000000
vt 0.617194 0.000000
vt 0.431929 0.419825
vt 0.401052 0.000000
vt 0.431929 0.000000
vt 0.783658 0.450702
vt 0.812781 0.419825
vt 0.812781 0.450702
vt 0.738949 0.419825
vt 0.768072 0.000000
vt 0.768072 0.419825
vt 0.759533 0.635740
vt 0.788656 0.604863
vt 0.788656 0.635740
vt 0.709826 0.419825
vt 0.738949 0.000000
vt 0.738949 0.419825
vt 0.493684 0.419825
vt 0.462807 0.000000
vt 0.493684 0.000000
vt 0.648071 0.419825
vt 0.617194 0.000000
vt 0.648071 0.000000
vt 0.759533 0.697495
vt 0.788656 0.666618
vt 0.788656 0.697495
vt 0.370174 0.839650
vt 0.399298 0.419825
vt 0.399298 0.839650
vt 0.729364 0.815142
vt 0.758487 0.784264
vt 0.758487 0.815142
vt 0.555439 0.839650
vt 0.584562 0.419825
vt 0.584562 0.839650
vt 0.370174 0.419825
vt 0.339297 0.000000
vt 0.370174 0.000000
vt 0.678948 0.419825
vt 0.648071 0.000000
vt 0.678948 0.000000
vt 0.783658 0.512457
vt 0.812781 0.481580
vt 0.812781 0.512457
vt 0.519299 0.839650
vt 0.548422 0.419825
vt 0.548422 0.839650
vt 0.759533 0.792433
vt 0.788656 0.761556
vt 0.788656 0.792433
vt 0.401052 0.839650
vt 0.430175 0.419825
vt 0.430175 0.839650
vt 0.555439 0.419825
vt 0.524561 0.000000
vt 0.555439 0.000000
vt 0.709826 0.419825
vt 0.678948 0.000000
vt 0.709826 0.000000
vt 0.584562 0.641924
vt 0.669025 0.530875
vt 0.584562 0.530875
vt 0.729364 0.615338
vt 0.759533 0.699801
vt 0.759533 0.615338
vt 0.584562 0.530875
vt 0.669025 0.419825
vt 0.584562 0.419825
vt 0.759533 0.615338
vt 0.729364 0.530875
vt 0.759533 0.530875
vt 0.699195 0.641924
vt 0.729364 0.530875
vt 0.699195 0.530875
vt 0.669025 0.641924
vt 0.699195 0.530875
vt 0.669025 0.530875
vt 0.669025 0.641924
vt 0.584562 0.752974
vt 0.669025 0.752974
vt 0.753489 0.419825
vt 0.783658 0.504288
vt 0.783658 0.419825
vt 0.753489 0.419825
vt 0.669025 0.530875
vt 0.753489 0.530875
vt 0.759533 0.784264
vt 0.729364 0.699801
vt 0.759533 0.699801
vt 0.699195 0.752974
vt 0.729364 0.641924
vt 0.699195 0.641924
vt 0.669025 0.752974
vt 0.699195 0.641924
vt 0.669025 0.641924
vt 0.788656 0.573985
vt 0.461052 0.419825
vt 0.783658 0.450702
vt 0.797195 0.000000
vt 0.431929 0.419825
vt 0.370174 0.419825
vt 0.626275 0.796085
vt 0.297584 1.000000
vt 0.086222 1.000000
vt 0.667988 0.796085
vt 0.129333 1.000000
vt 0.214157 1.000000
vt 0.709702 0.796085
vt 0.255870 1.000000
vt 0.043111 1.000000
vt 0.801246 0.573985
vt 0.000000 1.000000
vt 0.172444 1.000000
vt 0.759533 0.573985
vt 0.768072 0.000000
vt 0.759533 0.635740
vt 0.490176 0.419825
vt 0.555439 0.419825
vt 0.493684 0.419825
vt 0.759533 0.699801
vt 0.339297 0.419825
vt 0.759533 0.730678
vt 0.431929 0.419825
vt 0.586316 0.419825
vt 0.401052 0.419825
vt 0.783658 0.419825
vt 0.738949 0.000000
vt 0.759533 0.604863
vt 0.709826 0.000000
vt 0.462807 0.419825
vt 0.617194 0.419825
vt 0.759533 0.666618
vt 0.370174 0.419825
vt 0.729364 0.784264
vt 0.555439 0.419825
vt 0.339297 0.419825
vt 0.648071 0.419825
vt 0.783658 0.481580
vt 0.519299 0.419825
vt 0.759533 0.761556
vt 0.401052 0.419825
vt 0.524561 0.419825
vt 0.678948 0.419825
vt 0.669025 0.641924
vt 0.729364 0.699801
vt 0.669025 0.530875
vt 0.729364 0.615338
vt 0.729364 0.641924
vt 0.699195 0.641924
vt 0.584562 0.641924
vt 0.753489 0.504288
vt 0.669025 0.419825
vt 0.729364 0.784264
vt 0.729364 0.752974
vt 0.699195 0.752974
vn 1.0000 0.0000 0.0000
vn 0.0000 0.0000 1.0000
vn -1.0000 0.0000 0.0000
vn 0.0000 0.0000 -1.0000
vn 0.0000 -1.0000 0.0000
vn 0.0000 1.0000 0.0000
s off
f 2/1/1 3/2/1 1/3/1
f 4/4/2 7/5/2 3/6/2
f 8/7/3 5/8/3 7/9/3
f 6/10/4 1/11/4 5/12/4
f 7/13/5 1/14/5 3/15/5
f 4/16/6 6/17/6 8/18/6
f 13/19/6 11/20/6 9/21/6
f 11/22/4 16/23/4 12/24/4
f 15/25/1 14/26/1 16/27/1
f 10/28/5 16/29/5 14/30/5
f 9/31/3 12/32/3 10/33/3
f 13/34/2 10/35/2 14/36/2
f 21/37/6 19/38/6 17/39/6
f 19/40/4 24/41/4 20/42/4
f 23/43/1 22/44/1 24/45/1
f 18/46/5 24/47/5 22/48/5
f 17/49/3 20/50/3 18/51/3
f 21/52/2 18/53/2 22/54/2
f 26/55/1 27/56/1 25/57/1
f 28/58/2 31/59/2 27/60/2
f 32/61/3 29/62/3 31/63/3
f 30/64/4 25/65/4 29/66/4
f 31/67/5 25/68/5 27/69/5
f 28/70/6 30/71/6 32/72/6
f 34/73/1 35/74/1 33/75/1
f 36/76/2 39/77/2 35/78/2
f 40/79/3 37/80/3 39/81/3
f 38/82/4 33/83/4 37/84/4
f 39/85/5 33/86/5 35/87/5
f 36/88/6 38/89/6 40/90/6
f 42/91/1 43/92/1 41/93/1
f 44/94/2 47/95/2 43/96/2
f 48/97/3 45/98/3 47/99/3
f 46/100/4 41/101/4 45/102/4
f 47/103/5 41/104/5 43/105/5
f 44/106/6 46/107/6 48/108/6
f 50/109/1 51/110/1 49/111/1
f 52/112/2 55/113/2 51/114/2
f 56/115/3 53/116/3 55/117/3
f 54/118/4 49/119/4 53/120/4
f 55/121/5 49/122/5 51/123/5
f 52/124/6 54/125/6 56/126/6
f 58/127/1 59/128/1 57/129/1
f 60/130/2 63/131/2 59/132/2
f 64/133/3 61/134/3 63/135/3
f 62/136/4 57/137/4 61/138/4
f 63/139/5 57/140/5 59/141/5
f 60/142/6 62/143/6 64/144/6
f 67/145/3 66/146/3 65/147/3
f 71/148/2 68/149/2 67/150/2
f 69/151/1 72/152/1 71/153/1
f 70/154/2 65/155/2 69/156/2
f 65/157/5 71/158/5 67/159/5
f 70/160/6 68/161/6 72/162/6
f 75/163/3 74/164/3 73/165/3
f 79/166/2 76/167/2 75/168/2
f 77/169/1 80/170/1 79/171/1
f 78/172/2 73/173/2 77/174/2
f 73/175/5 79/176/5 75/177/5
f 78/178/6 76/179/6 80/180/6
f 2/1/1 4/181/1 3/2/1
f 4/4/2 8/182/2 7/5/2
f 8/7/3 6/183/3 5/8/3
f 6/10/4 2/184/4 1/11/4
f 7/13/5 5/185/5 1/14/5
f 4/16/6 2/186/6 6/17/6
f 13/19/6 15/187/6 11/20/6
f 11/22/4 15/188/4 16/23/4
f 15/25/1 13/189/1 14/26/1
f 10/28/5 12/190/5 16/29/5
f 9/31/3 11/191/3 12/32/3
f 13/34/2 9/192/2 10/35/2
f 21/37/6 23/193/6 19/38/6
f 19/40/4 23/194/4 24/41/4
f 23/43/1 21/195/1 22/44/1
f 18/46/5 20/196/5 24/47/5
f 17/49/3 19/197/3 20/50/3
f 21/52/2 17/198/2 18/53/2
f 26/55/1 28/199/1 27/56/1
f 28/58/2 32/200/2 31/59/2
f 32/61/3 30/201/3 29/62/3
f 30/64/4 26/202/4 25/65/4
f 31/67/5 29/203/5 25/68/5
f 28/70/6 26/204/6 30/71/6
f 34/73/1 36/205/1 35/74/1
f 36/76/2 40/206/2 39/77/2
f 40/79/3 38/207/3 37/80/3
f 38/82/4 34/208/4 33/83/4
f 39/85/5 37/209/5 33/86/5
f 36/88/6 34/210/6 38/89/6
f 42/91/1 44/211/1 43/92/1
f 44/94/2 48/212/2 47/95/2
f 48/97/3 46/213/3 45/98/3
f 46/100/4 42/214/4 41/101/4
f 47/103/5 45/215/5 41/104/5
f 44/106/6 42/216/6 46/107/6
f 50/109/1 52/217/1 51/110/1
f 52/112/2 56/218/2 55/113/2
f 56/115/3 54/219/3 53/116/3
f 54/118/4 50/220/4 49/119/4
f 55/121/5 53/221/5 49/122/5
f 52/124/6 50/222/6 54/125/6
f 58/127/1 60/223/1 59/128/1
f 60/130/2 64/224/2 63/131/2
f 64/133/3 62/225/3 61/134/3
f 62/136/4 58/226/4 57/137/4
f 63/139/5 61/227/5 57/140/5
f 60/142/6 58/228/6 62/143/6
f 67/145/3 68/229/3 66/146/3
f 71/148/2 72/230/2 68/149/2
f 69/151/1 70/231/1 72/152/1
f 70/154/2 66/232/2 65/155/2
f 65/157/5 69/233/5 71/158/5
f 70/160/6 66/234/6 68/161/6
f 75/163/3 76/235/3 74/164/3
f 79/166/2 80/236/2 76/167/2
f 77/169/1 78/237/1 80/170/1
f 78/172/2 74/238/2 73/173/2
f 73/175/5 77/239/5 79/176/5
f 78/178/6 74/240/6 76/179/6
