# Blender v3.4.1 OBJ File: 'bush.blend'
# www.blender.org
o Leaves_Plane.003
v 0.648876 0.416590 0.495577
v -0.078603 -1.290181 0.115814
v -0.071216 0.903291 0.219003
v -0.918244 -0.868404 -0.168575
v 0.117224 0.828643 0.191113
v 0.263896 0.596363 0.252008
v 0.553094 0.617755 0.301794
v 0.555465 0.061688 0.303001
v 0.326844 -0.388935 0.274506
v 0.169346 -0.839558 0.106358
v -0.183050 -1.100489 -0.073111
v -0.440907 -1.048636 -0.106838
v -0.610005 -0.973848 -0.290551
v -0.603694 -0.445646 -0.181097
v -0.432654 -0.000502 -0.014428
v -0.193679 0.441285 0.034230
v 0.294594 0.111409 0.126001
v 0.182455 0.272576 0.068891
v -0.012975 0.378020 -0.030638
v 0.184826 -0.283491 0.070099
v -0.010604 -0.178047 -0.029430
v -0.276225 -0.072603 0.008863
v -0.008233 -0.734114 -0.028223
v -0.203664 -0.628670 -0.127752
v -0.399094 -0.523225 -0.227281
v 0.476089 0.998920 -0.021019
v 0.476089 -0.894871 -0.029281
v -0.426225 1.105129 0.059318
v -0.497298 -0.894871 0.098345
v -0.253951 1.105129 -0.051052
v -0.010604 0.964395 -0.063352
v 0.232742 1.105129 -0.150230
v 0.476089 0.605129 -0.150230
v 0.476089 0.105129 -0.071871
v 0.476089 -0.394871 -0.150231
v 0.232742 -0.801391 -0.150231
v -0.010604 -0.860855 -0.063265
v -0.253951 -0.894871 -0.150231
v -0.432990 -0.394871 -0.055561
v -0.420346 0.105129 0.015336
v -0.399956 0.605129 -0.049756
v 0.172647 0.514407 -0.189566
v -0.010604 0.605129 -0.189566
v -0.253951 0.605129 -0.189566
v 0.232742 0.105129 -0.189566
v -0.010604 0.105129 -0.189566
v -0.253951 0.105129 -0.034900
v 0.232742 -0.394871 -0.189566
v -0.010604 -0.394871 -0.189566
v -0.253951 -0.394871 -0.189566
v 0.751872 0.699766 -0.388843
v 0.089611 -1.007005 0.095776
v 0.185433 1.186467 0.134772
v -0.536693 -0.585228 0.723166
v 0.243729 1.111819 -0.046581
v 0.363195 0.879539 -0.151218
v 0.535710 0.900930 -0.388605
v 0.537841 0.344863 -0.390197
v 0.411205 -0.105759 -0.197733
v 0.190751 -0.556382 -0.130804
v -0.126025 -0.817313 0.105934
v -0.270279 -0.765460 0.322310
v -0.509823 -0.690672 0.392761
v -0.408857 -0.162470 0.435492
v -0.183742 0.282673 0.355763
v -0.034444 0.724461 0.162926
v 0.263744 0.394585 -0.234462
v 0.162941 0.555752 -0.159127
v -0.012736 0.661196 -0.027838
v 0.165072 -0.000315 -0.160720
v -0.010604 0.105129 -0.029430
v -0.093692 0.210573 0.225750
v -0.008473 -0.450938 -0.031023
v -0.184149 -0.345494 0.100266
v -0.359826 -0.240050 0.231556
v 0.648876 0.416590 0.503458
v -0.078603 -1.290181 0.123694
v -0.071216 0.903291 0.226883
v -0.918244 -0.868404 -0.160695
v 0.117224 0.828643 0.198993
v 0.263896 0.596363 0.259888
v 0.553094 0.617755 0.309674
v 0.555465 0.061688 0.310882
v 0.326844 -0.388935 0.282386
v 0.169346 -0.839558 0.114238
v -0.183050 -1.100489 -0.065230
v -0.440907 -1.048636 -0.098958
v -0.610005 -0.973848 -0.282670
v -0.603694 -0.445646 -0.173216
v -0.432654 -0.000502 -0.006547
v -0.193679 0.441285 0.042111
v 0.294594 0.111409 0.133882
v 0.182455 0.272576 0.076771
v -0.012975 0.378020 -0.022758
v 0.184826 -0.283491 0.077979
v -0.010604 -0.178047 -0.021550
v -0.276225 -0.072603 0.016743
v -0.008233 -0.734114 -0.020343
v -0.203664 -0.628670 -0.119872
v -0.399094 -0.523225 -0.219401
v 0.476089 0.998920 -0.013139
v 0.476089 -0.894871 -0.021400
v -0.426225 1.105129 0.067198
v -0.497298 -0.894871 0.106226
v -0.253951 1.105129 -0.043172
v -0.010604 0.964395 -0.055471
v 0.232742 1.105129 -0.142350
v 0.476089 0.605129 -0.142350
v 0.476089 0.105129 -0.063991
v 0.476089 -0.394871 -0.142350
v 0.232742 -0.801391 -0.142350
v -0.010604 -0.860855 -0.055384
v -0.253951 -0.894871 -0.142350
v -0.432990 -0.394871 -0.047681
v -0.420346 0.105129 0.023216
v -0.399956 0.605129 -0.041876
v 0.172647 0.514407 -0.181686
v -0.010604 0.605129 -0.181686
v -0.253951 0.605129 -0.181686
v 0.232742 0.105129 -0.181686
v -0.010604 0.105129 -0.181686
v -0.253951 0.105129 -0.027020
v 0.232742 -0.394871 -0.181686
v -0.010604 -0.394871 -0.181686
v -0.253951 -0.394871 -0.181686
v 0.751872 0.699766 -0.380962
v 0.089611 -1.007005 0.103657
v 0.185433 1.186467 0.142653
v -0.536693 -0.585228 0.731046
v 0.243729 1.111819 -0.038701
v 0.363195 0.879539 -0.143337
v 0.535710 0.900931 -0.380724
v 0.537841 0.344863 -0.382317
v 0.411205 -0.105759 -0.189852
v 0.190751 -0.556382 -0.122924
v -0.126025 -0.817313 0.113815
v -0.270279 -0.765460 0.330190
v -0.509823 -0.690672 0.400642
v -0.408857 -0.162470 0.443372
v -0.183742 0.282673 0.363644
v -0.034444 0.724461 0.170806
v 0.263744 0.394585 -0.226581
v 0.162941 0.555752 -0.151247
v -0.012736 0.661196 -0.019957
v 0.165072 -0.000315 -0.152840
v -0.010604 0.105129 -0.021550
v -0.093692 0.210573 0.233630
v -0.008473 -0.450938 -0.023143
v -0.184149 -0.345494 0.108146
v -0.359826 -0.240049 0.239436
v -0.625298 0.805659 0.295287
v 1.002985 0.278672 -0.515570
v -0.906604 -0.031461 0.523327
v 0.816347 -0.656268 -0.281427
v -0.912345 0.134009 0.403132
v -0.735751 0.328582 0.302481
v -0.834647 0.601479 0.254333
v -0.343030 0.696078 0.012297
v 0.122445 0.556943 -0.129528
v 0.518698 0.417807 -0.411955
v 0.808256 0.070950 -0.554512
v 0.837157 -0.179333 -0.471807
v 0.767304 -0.422533 -0.534351
v 0.333558 -0.455365 -0.215285
v -0.062835 -0.304085 0.058893
v -0.517359 -0.145365 0.210115
v -0.357983 0.379376 -0.024186
v -0.481910 0.228608 0.036826
v -0.542662 -0.005127 0.066736
v 0.009707 0.323208 -0.205210
v -0.051046 0.089473 -0.175300
v -0.043483 -0.144262 -0.006629
v 0.440571 0.184072 -0.417336
v 0.379818 -0.049663 -0.387426
v 0.319066 -0.283398 -0.357516
v -0.621818 0.805659 0.302357
v 1.006466 0.278672 -0.508500
v -0.903123 -0.031461 0.530397
v 0.819828 -0.656268 -0.274357
v -0.908864 0.134009 0.410202
v -0.732270 0.328582 0.309551
v -0.831166 0.601479 0.261403
v -0.339549 0.696078 0.019366
v 0.125926 0.556943 -0.122458
v 0.522179 0.417807 -0.404886
v 0.811736 0.070949 -0.547443
v 0.840638 -0.179333 -0.464737
v 0.770785 -0.422533 -0.527281
v 0.337038 -0.455365 -0.208215
v -0.059354 -0.304085 0.065963
v -0.513879 -0.145365 0.217185
v -0.354502 0.379376 -0.017117
v -0.478429 0.228608 0.043896
v -0.539182 -0.005127 0.073806
v 0.013188 0.323208 -0.198140
v -0.047565 0.089473 -0.168230
v -0.040002 -0.144262 0.000441
v 0.444052 0.184072 -0.410266
v 0.383299 -0.049663 -0.380356
v 0.322546 -0.283398 -0.350446
vt 1.000000 0.750000
vt 0.750000 1.000000
vt 0.750000 0.750000
vt 0.000000 0.750000
vt 0.250000 1.000000
vt 0.000000 1.000000
vt 0.500000 0.750000
vt 0.250000 0.750000
vt 0.500000 1.000000
vt 0.250000 0.000000
vt 0.000000 0.250000
vt 0.000000 0.000000
vt 0.250000 0.250000
vt 0.000000 0.500000
vt 0.500000 0.000000
vt 0.500000 0.500000
vt 0.250000 0.500000
vt 0.750000 0.000000
vt 0.500000 0.250000
vt 0.750000 0.250000
vt 1.000000 0.250000
vt 0.750000 0.500000
vt 1.000000 0.500000
vt 1.000000 0.750000
vt 0.750000 1.000000
vt 0.750000 0.750000
vt 0.000000 0.750000
vt 0.250000 1.000000
vt 0.000000 1.000000
vt 0.500000 0.750000
vt 0.250000 0.750000
vt 0.500000 1.000000
vt 0.250000 0.000000
vt 0.000000 0.250000
vt 0.000000 0.000000
vt 0.250000 0.250000
vt 0.000000 0.500000
vt 0.500000 0.000000
vt 0.500000 0.500000
vt 0.250000 0.500000
vt 0.750000 0.000000
vt 0.500000 0.250000
vt 0.750000 0.250000
vt 1.000000 0.250000
vt 0.750000 0.500000
vt 1.000000 0.500000
vt 1.000000 0.750000
vt 0.750000 1.000000
vt 0.750000 0.750000
vt 0.000000 0.750000
vt 0.250000 1.000000
vt 0.000000 1.000000
vt 0.500000 0.750000
vt 0.250000 0.750000
vt 0.500000 1.000000
vt 0.250000 0.000000
vt 0.000000 0.250000
vt 0.000000 0.000000
vt 0.250000 0.250000
vt 0.000000 0.500000
vt 0.500000 0.000000
vt 0.500000 0.500000
vt 0.250000 0.500000
vt 0.750000 0.000000
vt 0.500000 0.250000
vt 0.750000 0.250000
vt 1.000000 0.250000
vt 0.750000 0.500000
vt 1.000000 0.500000
vt 0.750000 1.000000
vt 1.000000 0.750000
vt 0.750000 0.750000
vt 0.000000 0.750000
vt 0.250000 1.000000
vt 0.250000 0.750000
vt 0.500000 0.750000
vt 0.000000 0.250000
vt 0.250000 0.000000
vt 0.000000 0.000000
vt 0.000000 0.500000
vt 0.250000 0.250000
vt 0.250000 0.500000
vt 0.500000 0.000000
vt 0.500000 0.500000
vt 0.500000 0.250000
vt 0.750000 0.000000
vt 0.750000 0.250000
vt 0.750000 0.500000
vt 1.000000 0.250000
vt 1.000000 0.000000
vt 1.000000 0.500000
vt 0.750000 1.000000
vt 1.000000 0.750000
vt 0.750000 0.750000
vt 0.000000 0.750000
vt 0.250000 1.000000
vt 0.250000 0.750000
vt 0.500000 0.750000
vt 0.000000 0.250000
vt 0.250000 0.000000
vt 0.000000 0.000000
vt 0.000000 0.500000
vt 0.250000 0.250000
vt 0.250000 0.500000
vt 0.500000 0.000000
vt 0.500000 0.500000
vt 0.500000 0.250000
vt 0.750000 0.000000
vt 0.750000 0.250000
vt 0.750000 0.500000
vt 1.000000 0.250000
vt 1.000000 0.000000
vt 1.000000 0.500000
vt 0.750000 1.000000
vt 1.000000 0.750000
vt 0.750000 0.750000
vt 0.000000 0.750000
vt 0.250000 1.000000
vt 0.250000 0.750000
vt 0.500000 0.750000
vt 0.000000 0.250000
vt 0.250000 0.000000
vt 0.000000 0.000000
vt 0.000000 0.500000
vt 0.250000 0.250000
vt 0.250000 0.500000
vt 0.500000 0.000000
vt 0.500000 0.500000
vt 0.500000 0.250000
vt 0.750000 0.000000
vt 0.750000 0.250000
vt 0.750000 0.500000
vt 1.000000 0.250000
vt 1.000000 0.000000
vt 1.000000 0.500000
vt 1.000000 0.750000
vt 0.750000 1.000000
vt 0.750000 0.750000
vt 0.000000 0.750000
vt 0.250000 1.000000
vt 0.000000 1.000000
vt 0.500000 0.750000
vt 0.250000 0.750000
vt 0.500000 1.000000
vt 0.250000 0.000000
vt 0.000000 0.250000
vt 0.000000 0.000000
vt 0.250000 0.250000
vt 0.000000 0.500000
vt 0.500000 0.000000
vt 0.500000 0.500000
vt 0.250000 0.500000
vt 0.750000 0.000000
vt 0.500000 0.250000
vt 0.750000 0.250000
vt 1.000000 0.250000
vt 0.750000 0.500000
vt 1.000000 0.500000
vt 0.750000 1.000000
vt 1.000000 0.750000
vt 0.750000 0.750000
vt 0.000000 0.750000
vt 0.250000 1.000000
vt 0.250000 0.750000
vt 0.500000 0.750000
vt 0.000000 0.250000
vt 0.250000 0.000000
vt 0.000000 0.000000
vt 0.000000 0.500000
vt 0.250000 0.250000
vt 0.250000 0.500000
vt 0.500000 0.000000
vt 0.500000 0.500000
vt 0.500000 0.250000
vt 0.750000 0.000000
vt 0.750000 0.500000
vt 0.750000 0.250000
vt 1.000000 0.250000
vt 1.000000 0.000000
vt 1.000000 0.500000
vt 1.000000 1.000000
vt 1.000000 0.000000
vt 1.000000 1.000000
vt 1.000000 0.000000
vt 1.000000 1.000000
vt 1.000000 0.000000
vt 1.000000 1.000000
vt 0.000000 1.000000
vt 0.500000 1.000000
vt 1.000000 1.000000
vt 0.000000 1.000000
vt 0.500000 1.000000
vt 1.000000 1.000000
vt 0.000000 1.000000
vt 0.500000 1.000000
vt 1.000000 1.000000
vt 1.000000 0.000000
vt 1.000000 1.000000
vt 0.000000 1.000000
vt 0.500000 1.000000
vn 0.2135 0.0028 -0.9769
vn -0.0910 0.3126 -0.9455
vn 0.1752 0.1469 -0.9735
vn 0.2338 0.3375 -0.9118
vn -0.1681 0.2748 -0.9467
vn 0.0088 0.3693 -0.9293
vn 0.0446 0.2033 -0.9781
vn 0.1330 0.2199 -0.9664
vn 0.2090 0.1409 -0.9677
vn 0.6171 -0.0863 -0.7822
vn 0.5528 0.1208 -0.8245
vn 0.8976 0.0029 -0.4407
vn 0.5298 -0.0035 -0.8481
vn 0.4434 0.2446 -0.8623
vn 0.7481 -0.1144 -0.6536
vn 0.2820 0.0876 -0.9554
vn 0.5610 0.1494 -0.8142
vn 0.6153 -0.1489 -0.7741
vn 0.6302 -0.0527 -0.7746
vn 0.4974 -0.0778 -0.8640
vn 0.4190 -0.2127 -0.8827
vn 0.3914 -0.0835 -0.9164
vn 0.3904 -0.1809 -0.9027
vn -0.2293 -0.1071 -0.9674
vn -0.5953 0.0607 -0.8012
vn -0.3212 0.0086 -0.9470
vn -0.3314 0.2152 -0.9186
vn -0.6413 -0.0034 -0.7673
vn -0.5331 0.1535 -0.8320
vn -0.4524 0.0081 -0.8918
vn -0.3837 0.0595 -0.9215
vn -0.2890 0.0174 -0.9572
vn 0.2130 0.0067 -0.9770
vn 0.0544 0.1602 -0.9856
vn 0.5394 0.2625 -0.8001
vn 0.0801 0.0347 -0.9962
vn -0.1026 0.2221 -0.9696
vn 0.3831 0.0572 -0.9219
vn -0.2022 0.0000 -0.9793
vn 0.0527 0.1912 -0.9801
vn 0.2421 -0.0488 -0.9690
vn 0.2122 0.0435 -0.9763
vn 0.0798 -0.0479 -0.9957
vn 0.0676 -0.2035 -0.9767
vn -0.0243 -0.1044 -0.9942
vn 0.0227 -0.1898 -0.9816
vn -0.7819 0.0028 -0.6235
vn -0.8883 0.3126 -0.3364
vn -0.7957 0.1469 -0.5875
vn -0.7145 0.3375 -0.6129
vn -0.9235 0.2748 -0.2678
vn -0.8296 0.3693 -0.4187
vn -0.8576 0.2033 -0.4724
vn -0.8080 0.2199 -0.5466
vn -0.7756 0.1409 -0.6153
vn -0.4288 -0.0863 -0.8993
vn -0.4951 0.1208 -0.8604
vn 0.0016 0.0029 -1.0000
vn -0.5265 -0.0035 -0.8502
vn -0.5774 0.2446 -0.7790
vn -0.2555 -0.1144 -0.9600
vn -0.7322 0.0876 -0.6754
vn -0.4823 0.1494 -0.8631
vn -0.4223 -0.1489 -0.8941
vn -0.4161 -0.0527 -0.9078
vn -0.5551 -0.0778 -0.8281
vn -0.6065 -0.2127 -0.7661
vn -0.6490 -0.0835 -0.7562
vn -0.6371 -0.1809 -0.7493
vn 0.0910 -0.3126 0.9455
vn -0.2135 -0.0028 0.9769
vn -0.1752 -0.1469 0.9735
vn -0.2338 -0.3375 0.9118
vn 0.1681 -0.2748 0.9467
vn -0.1330 -0.2199 0.9664
vn -0.0446 -0.2033 0.9781
vn -0.5528 -0.1208 0.8245
vn -0.6171 0.0863 0.7822
vn -0.8976 -0.0029 0.4407
vn -0.4434 -0.2446 0.8623
vn -0.5298 0.0035 0.8481
vn -0.5610 -0.1494 0.8142
vn -0.7481 0.1144 0.6536
vn -0.2820 -0.0876 0.9554
vn -0.6302 0.0527 0.7746
vn -0.6153 0.1489 0.7741
vn -0.4974 0.0778 0.8640
vn -0.3914 0.0835 0.9164
vn -0.4190 0.2127 0.8827
vn -0.6197 0.3556 0.6997
vn -0.3904 0.1809 0.9027
vn 0.5953 -0.0607 0.8012
vn 0.2293 0.1071 0.9674
vn 0.3212 -0.0086 0.9470
vn 0.3314 -0.2152 0.9186
vn 0.6413 0.0034 0.7673
vn 0.3837 -0.0595 0.9215
vn 0.4524 -0.0081 0.8918
vn -0.0544 -0.1602 0.9856
vn -0.2130 -0.0067 0.9770
vn -0.5394 -0.2625 0.8001
vn 0.1026 -0.2221 0.9696
vn -0.0801 -0.0347 0.9962
vn -0.0527 -0.1912 0.9801
vn -0.3831 -0.0572 0.9219
vn 0.2022 -0.0000 0.9793
vn -0.2122 -0.0435 0.9763
vn -0.2421 0.0488 0.9690
vn -0.0798 0.0479 0.9957
vn 0.0243 0.1044 0.9942
vn -0.0676 0.2035 0.9767
vn -0.3656 0.2188 0.9047
vn -0.0227 0.1898 0.9816
vn 0.8883 -0.3126 0.3364
vn 0.7819 -0.0028 0.6235
vn 0.7957 -0.1469 0.5875
vn 0.7145 -0.3375 0.6129
vn 0.9235 -0.2748 0.2678
vn 0.8080 -0.2199 0.5466
vn 0.8576 -0.2033 0.4724
vn 0.4951 -0.1208 0.8604
vn 0.4288 0.0863 0.8993
vn -0.0016 -0.0029 1.0000
vn 0.5774 -0.2446 0.7790
vn 0.5265 0.0035 0.8502
vn 0.4823 -0.1494 0.8631
vn 0.2555 0.1144 0.9600
vn 0.7322 -0.0876 0.6754
vn 0.4161 0.0527 0.9078
vn 0.4223 0.1489 0.8941
vn 0.5551 0.0778 0.8281
vn 0.6490 0.0835 0.7562
vn 0.6065 0.2127 0.7661
vn 0.3536 0.3556 0.8651
vn 0.6371 0.1809 0.7493
vn -0.3922 -0.2500 -0.8852
vn -0.5548 -0.5549 -0.6199
vn -0.5059 -0.3061 -0.8065
vn -0.6739 -0.2584 -0.6921
vn -0.4961 -0.6169 -0.6110
vn -0.6329 -0.4693 -0.6158
vn -0.5138 -0.4322 -0.7410
vn -0.5541 -0.3520 -0.7543
vn -0.5099 -0.2727 -0.8159
vn -0.3841 0.2065 -0.8999
vn -0.5598 0.0969 -0.8230
vn -0.4450 0.5912 -0.6727
vn -0.4499 0.0866 -0.8889
vn -0.6453 -0.0367 -0.7631
vn -0.3609 0.3839 -0.8499
vn -0.4831 -0.1942 -0.8538
vn -0.5845 0.1038 -0.8047
vn -0.3255 0.2189 -0.9199
vn -0.4157 0.2159 -0.8835
vn -0.3786 0.0633 -0.9234
vn -0.2392 0.0083 -0.9709
vn -0.3553 -0.0524 -0.9333
vn -0.2643 -0.0310 -0.9639
vn 0.5548 0.5549 0.6199
vn 0.3922 0.2500 0.8852
vn 0.5059 0.3061 0.8065
vn 0.6739 0.2584 0.6921
vn 0.4961 0.6169 0.6110
vn 0.5541 0.3520 0.7543
vn 0.5138 0.4322 0.7410
vn 0.5598 -0.0969 0.8230
vn 0.3841 -0.2065 0.8999
vn 0.4450 -0.5912 0.6727
vn 0.6453 0.0367 0.7631
vn 0.4499 -0.0866 0.8889
vn 0.5845 -0.1038 0.8047
vn 0.3609 -0.3839 0.8499
vn 0.4831 0.1942 0.8538
vn 0.4157 -0.2159 0.8835
vn 0.3255 -0.2189 0.9199
vn 0.3553 0.0524 0.9333
vn 0.3786 -0.0633 0.9234
vn 0.2392 -0.0083 0.9709
vn 0.1197 -0.2902 0.9494
vn 0.2643 0.0310 0.9639
vn -0.3018 0.1969 -0.9328
vn 0.6197 -0.3556 -0.6997
vn -0.7092 -0.1225 -0.6943
vn 0.3656 -0.2188 -0.9047
vn -0.9701 0.1969 -0.1417
vn -0.3536 -0.3556 -0.8651
vn 0.3018 -0.1969 0.9328
vn -0.0088 -0.3693 0.9293
vn -0.2090 -0.1409 0.9677
vn 0.7092 0.1225 0.6943
vn 0.5331 -0.1535 0.8320
vn 0.2890 -0.0174 0.9572
vn 0.9701 -0.1969 0.1417
vn 0.8296 -0.3693 0.4187
vn 0.7756 -0.1409 0.6153
vn -0.3782 -0.7153 -0.5877
vn -0.1197 0.2902 -0.9494
vn 0.3782 0.7153 0.5877
vn 0.6329 0.4693 0.6158
vn 0.5099 0.2727 0.8159
s 1
f 13/1/1 14/2/2 25/3/3
f 5/4/4 16/5/5 3/6/6
f 22/7/7 16/5/5 19/8/8
f 22/7/7 14/2/2 15/9/9
f 8/10/10 7/11/11 1/12/12
f 17/13/13 6/14/14 7/11/11
f 6/14/14 19/8/8 5/4/4
f 9/15/15 17/13/13 8/10/10
f 17/13/13 21/16/16 18/17/17
f 21/16/16 19/8/8 18/17/17
f 10/18/18 20/19/19 9/15/15
f 23/20/20 21/16/16 20/19/19
f 21/16/16 25/3/3 22/7/7
f 10/18/18 11/21/21 23/20/20
f 11/21/21 24/22/22 23/20/20
f 12/23/23 25/3/3 24/22/22
f 38/24/24 39/25/25 50/26/26
f 30/27/27 41/28/28 28/29/29
f 47/30/30 41/28/28 44/31/31
f 47/30/30 39/25/25 40/32/32
f 33/33/33 32/34/34 26/35/35
f 42/36/36 31/37/37 32/34/34
f 31/37/37 44/31/31 30/27/27
f 34/38/38 42/36/36 33/33/33
f 42/36/36 46/39/39 43/40/40
f 46/39/39 44/31/31 43/40/40
f 35/41/41 45/42/42 34/38/38
f 48/43/43 46/39/39 45/42/42
f 46/39/39 50/26/26 47/30/30
f 35/41/41 36/44/44 48/43/43
f 36/44/44 49/45/45 48/43/43
f 37/46/46 50/26/26 49/45/45
f 63/47/47 64/48/48 75/49/49
f 55/50/50 66/51/51 53/52/52
f 72/53/53 66/51/51 69/54/54
f 72/53/53 64/48/48 65/55/55
f 58/56/56 57/57/57 51/58/58
f 67/59/59 56/60/60 57/57/57
f 56/60/60 69/54/54 55/50/50
f 59/61/61 67/59/59 58/56/56
f 67/59/59 71/62/62 68/63/63
f 71/62/62 69/54/54 68/63/63
f 60/64/64 70/65/65 59/61/61
f 73/66/66 71/62/62 70/65/65
f 71/62/62 75/49/49 72/53/53
f 60/64/64 61/67/67 73/66/66
f 61/67/67 74/68/68 73/66/66
f 62/69/69 75/49/49 74/68/68
f 89/70/70 88/71/71 100/72/72
f 80/73/73 91/74/74 94/75/75
f 91/74/74 97/76/76 94/75/75
f 97/76/76 89/70/70 100/72/72
f 82/77/77 83/78/78 76/79/79
f 81/80/80 92/81/81 82/77/77
f 81/80/80 94/75/75 93/82/82
f 92/81/81 84/83/83 83/78/78
f 92/81/81 96/84/84 95/85/85
f 94/75/75 96/84/84 93/82/82
f 95/85/85 85/86/86 84/83/83
f 96/84/84 98/87/87 95/85/85
f 96/84/84 100/72/72 99/88/88
f 85/86/86 86/89/89 77/90/90
f 99/88/88 86/89/89 98/87/87
f 100/72/72 87/91/91 99/88/88
f 114/92/92 113/93/93 125/94/94
f 105/95/95 116/96/96 119/97/97
f 116/96/96 122/98/98 119/97/97
f 122/98/98 114/92/92 125/94/94
f 107/99/99 108/100/100 101/101/101
f 106/102/102 117/103/103 107/99/99
f 106/102/102 119/97/97 118/104/104
f 117/103/103 109/105/105 108/100/100
f 117/103/103 121/106/106 120/107/107
f 119/97/97 121/106/106 118/104/104
f 120/107/107 110/108/108 109/105/105
f 121/106/106 123/109/109 120/107/107
f 121/106/106 125/94/94 124/110/110
f 110/108/108 111/111/111 102/112/112
f 124/110/110 111/111/111 123/109/109
f 125/94/94 112/113/113 124/110/110
f 139/114/114 138/115/115 150/116/116
f 130/117/117 141/118/118 144/119/119
f 141/118/118 147/120/120 144/119/119
f 147/120/120 139/114/114 150/116/116
f 132/121/121 133/122/122 126/123/123
f 131/124/124 142/125/125 132/121/121
f 131/124/124 144/119/119 143/126/126
f 142/125/125 134/127/127 133/122/122
f 142/125/125 146/128/128 145/129/129
f 144/119/119 146/128/128 143/126/126
f 145/129/129 135/130/130 134/127/127
f 146/128/128 148/131/131 145/129/129
f 146/128/128 150/116/116 149/132/132
f 135/130/130 136/133/133 127/134/134
f 149/132/132 136/133/133 148/131/131
f 150/116/116 137/135/135 149/132/132
f 163/136/136 164/137/137 175/138/138
f 155/139/139 166/140/140 153/141/141
f 172/142/142 166/140/140 169/143/143
f 172/142/142 164/137/137 165/144/144
f 158/145/145 157/146/146 151/147/147
f 167/148/148 156/149/149 157/146/146
f 156/149/149 169/143/143 155/139/139
f 159/150/150 167/148/148 158/145/145
f 167/148/148 171/151/151 168/152/152
f 171/151/151 169/143/143 168/152/152
f 160/153/153 170/154/154 159/150/150
f 173/155/155 171/151/151 170/154/154
f 171/151/151 175/138/138 172/142/142
f 160/153/153 161/156/156 173/155/155
f 161/156/156 174/157/157 173/155/155
f 162/158/158 175/138/138 174/157/157
f 189/159/159 188/160/160 200/161/161
f 180/162/162 191/163/163 194/164/164
f 191/163/163 197/165/165 194/164/164
f 197/165/165 189/159/159 200/161/161
f 182/166/166 183/167/167 176/168/168
f 181/169/169 192/170/170 182/166/166
f 181/169/169 194/164/164 193/171/171
f 192/170/170 184/172/172 183/167/167
f 192/170/170 196/173/173 195/174/174
f 194/164/164 196/173/173 193/171/171
f 195/174/174 185/175/175 184/172/172
f 195/174/174 199/176/176 198/177/177
f 196/173/173 200/161/161 199/176/176
f 185/175/175 186/178/178 177/179/179
f 199/176/176 186/178/178 198/177/177
f 200/161/161 187/180/180 199/176/176
f 13/1/1 4/181/181 14/2/2
f 5/4/4 19/8/8 16/5/5
f 22/7/7 15/9/9 16/5/5
f 22/7/7 25/3/3 14/2/2
f 8/10/10 17/13/13 7/11/11
f 17/13/13 18/17/17 6/14/14
f 6/14/14 18/17/17 19/8/8
f 9/15/15 20/19/19 17/13/13
f 17/13/13 20/19/19 21/16/16
f 21/16/16 22/7/7 19/8/8
f 10/18/18 23/20/20 20/19/19
f 23/20/20 24/22/22 21/16/16
f 21/16/16 24/22/22 25/3/3
f 10/18/18 2/182/182 11/21/21
f 11/21/21 12/23/23 24/22/22
f 12/23/23 13/1/1 25/3/3
f 38/24/24 29/183/183 39/25/25
f 30/27/27 44/31/31 41/28/28
f 47/30/30 40/32/32 41/28/28
f 47/30/30 50/26/26 39/25/25
f 33/33/33 42/36/36 32/34/34
f 42/36/36 43/40/40 31/37/37
f 31/37/37 43/40/40 44/31/31
f 34/38/38 45/42/42 42/36/36
f 42/36/36 45/42/42 46/39/39
f 46/39/39 47/30/30 44/31/31
f 35/41/41 48/43/43 45/42/42
f 48/43/43 49/45/45 46/39/39
f 46/39/39 49/45/45 50/26/26
f 35/41/41 27/184/184 36/44/44
f 36/44/44 37/46/46 49/45/45
f 37/46/46 38/24/24 50/26/26
f 63/47/47 54/185/185 64/48/48
f 55/50/50 69/54/54 66/51/51
f 72/53/53 65/55/55 66/51/51
f 72/53/53 75/49/49 64/48/48
f 58/56/56 67/59/59 57/57/57
f 67/59/59 68/63/63 56/60/60
f 56/60/60 68/63/63 69/54/54
f 59/61/61 70/65/65 67/59/59
f 67/59/59 70/65/65 71/62/62
f 71/62/62 72/53/53 69/54/54
f 60/64/64 73/66/66 70/65/65
f 73/66/66 74/68/68 71/62/62
f 71/62/62 74/68/68 75/49/49
f 60/64/64 52/186/186 61/67/67
f 61/67/67 62/69/69 74/68/68
f 62/69/69 63/47/47 75/49/49
f 89/70/70 79/187/187 88/71/71
f 80/73/73 78/188/188 91/74/74
f 91/74/74 90/189/189 97/76/76
f 97/76/76 90/189/189 89/70/70
f 82/77/77 92/81/81 83/78/78
f 81/80/80 93/82/82 92/81/81
f 81/80/80 80/73/73 94/75/75
f 92/81/81 95/85/85 84/83/83
f 92/81/81 93/82/82 96/84/84
f 94/75/75 97/76/76 96/84/84
f 95/85/85 98/87/87 85/86/86
f 96/84/84 99/88/88 98/87/87
f 96/84/84 97/76/76 100/72/72
f 85/86/86 98/87/87 86/89/89
f 99/88/88 87/91/91 86/89/89
f 100/72/72 88/71/71 87/91/91
f 114/92/92 104/190/190 113/93/93
f 105/95/95 103/191/191 116/96/96
f 116/96/96 115/192/192 122/98/98
f 122/98/98 115/192/192 114/92/92
f 107/99/99 117/103/103 108/100/100
f 106/102/102 118/104/104 117/103/103
f 106/102/102 105/95/95 119/97/97
f 117/103/103 120/107/107 109/105/105
f 117/103/103 118/104/104 121/106/106
f 119/97/97 122/98/98 121/106/106
f 120/107/107 123/109/109 110/108/108
f 121/106/106 124/110/110 123/109/109
f 121/106/106 122/98/98 125/94/94
f 110/108/108 123/109/109 111/111/111
f 124/110/110 112/113/113 111/111/111
f 125/94/94 113/93/93 112/113/113
f 139/114/114 129/193/193 138/115/115
f 130/117/117 128/194/194 141/118/118
f 141/118/118 140/195/195 147/120/120
f 147/120/120 140/195/195 139/114/114
f 132/121/121 142/125/125 133/122/122
f 131/124/124 143/126/126 142/125/125
f 131/124/124 130/117/117 144/119/119
f 142/125/125 145/129/129 134/127/127
f 142/125/125 143/126/126 146/128/128
f 144/119/119 147/120/120 146/128/128
f 145/129/129 148/131/131 135/130/130
f 146/128/128 149/132/132 148/131/131
f 146/128/128 147/120/120 150/116/116
f 135/130/130 148/131/131 136/133/133
f 149/132/132 137/135/135 136/133/133
f 150/116/116 138/115/115 137/135/135
f 163/136/136 154/196/196 164/137/137
f 155/139/139 169/143/143 166/140/140
f 172/142/142 165/144/144 166/140/140
f 172/142/142 175/138/138 164/137/137
f 158/145/145 167/148/148 157/146/146
f 167/148/148 168/152/152 156/149/149
f 156/149/149 168/152/152 169/143/143
f 159/150/150 170/154/154 167/148/148
f 167/148/148 170/154/154 171/151/151
f 171/151/151 172/142/142 169/143/143
f 160/153/153 173/155/155 170/154/154
f 173/155/155 174/157/157 171/151/151
f 171/151/151 174/157/157 175/138/138
f 160/153/153 152/197/197 161/156/156
f 161/156/156 162/158/158 174/157/157
f 162/158/158 163/136/136 175/138/138
f 189/159/159 179/198/198 188/160/160
f 180/162/162 178/199/199 191/163/163
f 191/163/163 190/200/200 197/165/165
f 197/165/165 190/200/200 189/159/159
f 182/166/166 192/170/170 183/167/167
f 181/169/169 193/171/171 192/170/170
f 181/169/169 180/162/162 194/164/164
f 192/170/170 195/174/174 184/172/172
f 192/170/170 193/171/171 196/173/173
f 194/164/164 197/165/165 196/173/173
f 195/174/174 198/177/177 185/175/175
f 195/174/174 196/173/173 199/176/176
f 196/173/173 197/165/165 200/161/161
f 185/175/175 198/177/177 186/178/178
f 199/176/176 187/180/180 186/178/178
f 200/161/161 188/160/160 187/180/180
