# Blender v3.4.1 OBJ File: 'fence.blend'
# www.blender.org
o Cube.001_Cube.002
v -0.479072 0.582978 -0.008842
v -0.479072 -0.582978 -0.008842
v -0.479072 0.582978 0.008842
v -0.479072 -0.582978 0.008842
v 0.477439 0.582978 -0.008842
v 0.477439 -0.582978 -0.008842
v 0.477439 0.582978 0.008842
v 0.477439 -0.582978 0.008842
vt 0.479649 0.584678
vt 0.000000 0.000000
vt 0.479649 0.000000
vt 0.959299 0.584678
vt 0.479650 0.000000
vt 0.959299 0.000000
vt 0.000000 0.584678
vt 0.479649 0.584678
vn 0.0000 0.0000 -1.0000
vn 0.0000 0.0000 1.0000
s off
f 3/1/1 8/2/1 4/3/1
f 5/4/2 2/5/2 6/6/2
f 3/1/1 7/7/1 8/2/1
f 5/4/2 1/8/2 2/5/2
