# Blender v3.4.1 OBJ File: 'food.blend'
# www.blender.org
o Onigiri_Plane
v -0.302449 -0.006662 0.503971
v 0.302449 -0.006662 0.503971
v -0.302449 -0.020814 -0.530572
v 0.302449 -0.020814 -0.530572
v -0.360690 -0.719602 -0.101598
v -0.360690 -0.479720 -0.493666
v -0.360690 -0.687297 -0.271299
v -0.360690 -0.599039 -0.414806
v -0.360690 -0.477133 0.496187
v -0.360690 -0.719602 0.120591
v -0.360690 -0.597745 0.425563
v -0.360690 -0.686951 0.288085
v 0.360690 -0.719602 0.120591
v 0.360690 -0.477133 0.496187
v 0.360690 -0.686951 0.288085
v 0.360690 -0.597745 0.425563
v 0.360690 -0.479720 -0.493666
v 0.360690 -0.719602 -0.101598
v 0.360690 -0.599039 -0.414806
v 0.360690 -0.687297 -0.271299
v 0.170796 0.730897 0.145857
v -0.153757 0.732307 0.145857
v 0.004781 0.360531 0.494379
v 0.068790 0.846763 0.145857
v 0.147955 0.661119 0.319889
v 0.050003 0.772678 0.312524
v -0.133239 0.662340 0.319889
v -0.050341 0.847281 0.145857
v -0.033868 0.773043 0.312524
v 0.087017 0.525172 0.447818
v -0.075047 0.525876 0.447818
v 0.007101 0.676968 0.402589
v 0.171253 0.730559 -0.145857
v 0.007093 0.360521 -0.494379
v -0.153285 0.732650 -0.145857
v 0.149676 0.660822 -0.319889
v 0.069592 0.846642 -0.145857
v 0.051995 0.772590 -0.312524
v -0.072636 0.526040 -0.447817
v 0.089420 0.524996 -0.447817
v 0.009573 0.676965 -0.402589
v -0.049533 0.847409 -0.145857
v -0.131505 0.662633 -0.319889
v -0.031872 0.773130 -0.312524
v -0.355693 -0.210031 0.494379
v -0.690962 -0.115657 0.145855
v -0.523327 -0.162844 0.447685
v -0.646044 -0.128301 0.320117
v -0.199946 -0.400851 0.494379
v -0.246918 -0.694726 0.145855
v -0.223432 -0.547789 0.447685
v -0.240625 -0.655354 0.320117
v -0.379722 -0.339770 0.494379
v -0.744587 -0.405192 0.145855
v -0.562155 -0.372481 0.447685
v -0.695704 -0.396427 0.320117
v -0.361574 -0.363436 0.494379
v -0.582056 -0.617146 0.145855
v -0.471815 -0.490291 0.447685
v -0.552517 -0.583155 0.320117
v -0.199946 -0.400851 -0.494379
v -0.246918 -0.694726 -0.145855
v -0.223432 -0.547789 -0.447685
v -0.240625 -0.655354 -0.320117
v -0.355761 -0.210401 -0.494379
v -0.690962 -0.115657 -0.145855
v -0.523362 -0.163029 -0.447685
v -0.646053 -0.128350 -0.320117
v -0.361574 -0.363436 -0.494379
v -0.582056 -0.617146 -0.145855
v -0.471815 -0.490291 -0.447685
v -0.552517 -0.583155 -0.320117
v -0.379722 -0.339770 -0.494379
v -0.744587 -0.405192 -0.145855
v -0.562155 -0.372481 -0.447685
v -0.695704 -0.396427 -0.320117
v 0.199946 -0.400851 0.494379
v 0.246918 -0.694726 0.145855
v 0.223432 -0.547789 0.447685
v 0.240625 -0.655354 0.320117
v 0.355408 -0.208495 0.494379
v 0.690962 -0.115657 0.145855
v 0.523185 -0.162076 0.447685
v 0.646006 -0.128095 0.320117
v 0.361574 -0.363436 0.494379
v 0.582056 -0.617146 0.145855
v 0.471815 -0.490291 0.447685
v 0.552517 -0.583155 0.320117
v 0.379722 -0.339770 0.494379
v 0.744587 -0.405192 0.145855
v 0.562155 -0.372481 0.447685
v 0.695704 -0.396427 0.320117
v 0.355339 -0.208121 -0.494379
v 0.690962 -0.115657 -0.145855
v 0.523150 -0.161889 -0.447685
v 0.645997 -0.128045 -0.320117
v 0.199946 -0.400851 -0.494379
v 0.246918 -0.694726 -0.145855
v 0.223432 -0.547789 -0.447685
v 0.240625 -0.655354 -0.320117
v 0.379722 -0.339770 -0.494379
v 0.744587 -0.405192 -0.145855
v 0.562155 -0.372481 -0.447685
v 0.695704 -0.396427 -0.320117
v 0.361574 -0.363436 -0.494379
v 0.582056 -0.617146 -0.145855
v 0.471815 -0.490291 -0.447685
v 0.552517 -0.583155 -0.320117
v -0.302449 -0.006662 0.524261
v 0.302449 -0.006662 0.524261
v -0.302449 -0.020814 -0.548908
v 0.302449 -0.020814 -0.548908
v -0.360690 -0.719602 -0.101598
v -0.360690 -0.479720 -0.512002
v -0.360690 -0.687297 -0.271299
v -0.360690 -0.599039 -0.433142
v -0.360690 -0.477133 0.516477
v -0.360690 -0.719602 0.120591
v -0.360690 -0.597745 0.445853
v -0.360690 -0.686951 0.288085
v 0.360690 -0.719602 0.120591
v 0.360690 -0.477133 0.516477
v 0.360690 -0.686951 0.288085
v 0.360690 -0.597745 0.445853
v 0.360690 -0.479720 -0.512002
v 0.360690 -0.719602 -0.101598
v 0.360690 -0.599039 -0.433142
v 0.360690 -0.687297 -0.271299
vt 0.818830 0.252530
vt 0.713432 0.312117
vt 0.713432 0.252300
vt 0.889064 0.182876
vt 0.762410 0.004348
vt 0.889064 0.020028
vt 0.811447 0.207445
vt 0.706049 0.004330
vt 0.729982 0.198549
vt 0.706049 0.198537
vt 0.729982 0.004342
vt 0.762410 0.198555
vt 0.658261 0.995658
vt 0.627024 0.801455
vt 0.658261 0.801450
vt 0.627024 0.995662
vt 0.604845 0.801463
vt 0.706128 0.357810
vt 0.818830 0.312347
vt 0.811526 0.358040
vt 0.781303 0.979975
vt 0.085554 0.466449
vt 0.164096 0.733728
vt 0.085563 0.733728
vt 0.205871 0.097308
vt 0.268992 0.117413
vt 0.108853 0.222318
vt 0.686096 0.792790
vt 0.764602 0.717370
vt 0.764629 0.792790
vt 0.620896 0.283869
vt 0.557778 0.304093
vt 0.460546 0.179286
vt 0.514928 0.764308
vt 0.436395 0.808064
vt 0.436395 0.764308
vt 0.436395 0.541134
vt 0.514928 0.450910
vt 0.514928 0.541134
vt 0.514928 0.674083
vt 0.436395 0.674083
vt 0.085606 0.807033
vt 0.164139 0.807033
vt 0.436395 0.450910
vt 0.514928 0.407154
vt 0.164088 0.466305
vt 0.208988 0.439209
vt 0.210962 0.478746
vt 0.164135 0.407679
vt 0.164097 0.425202
vt 0.686088 0.447762
vt 0.641245 0.422752
vt 0.686099 0.407288
vt 0.697389 0.056019
vt 0.668335 0.031393
vt 0.691120 0.016542
vt 0.628327 0.053517
vt 0.665026 0.077114
vt 0.623062 0.102295
vt 0.633714 0.015076
vt 0.672127 0.004330
vt 0.040714 0.439520
vt 0.085563 0.425347
vt 0.282757 0.388140
vt 0.316777 0.371253
vt 0.321206 0.399019
vt 0.313191 0.325146
vt 0.276467 0.348701
vt 0.270919 0.299520
vt 0.346477 0.347271
vt 0.764623 0.447621
vt 0.809518 0.422476
vt 0.811491 0.461405
vt 0.040741 0.427144
vt 0.085600 0.407768
vt 0.340211 0.386829
vt 0.247838 0.082024
vt 0.189581 0.060680
vt 0.254074 0.037192
vt 0.355137 0.734629
vt 0.389481 0.672389
vt 0.389481 0.756355
vt 0.599756 0.319343
vt 0.541282 0.341114
vt 0.596186 0.734629
vt 0.561842 0.672389
vt 0.596186 0.667760
vt 0.561842 0.756355
vt 0.255407 0.084701
vt 0.291756 0.050516
vt 0.258603 0.004330
vt 0.318328 0.025448
vt 0.389481 0.794904
vt 0.607320 0.316664
vt 0.605791 0.364550
vt 0.643445 0.351211
vt 0.609651 0.398494
vt 0.561842 0.794904
vt 0.313749 0.103478
vt 0.346477 0.093234
vt 0.811554 0.784450
vt 0.811529 0.714619
vt 0.665381 0.298220
vt 0.697389 0.309576
vt 0.669333 0.377352
vt 0.639193 0.784450
vt 0.686069 0.717370
vt 0.436461 0.213342
vt 0.440375 0.275611
vt 0.392709 0.226229
vt 0.596186 0.480588
vt 0.561842 0.542828
vt 0.561842 0.458862
vt 0.084645 0.188184
vt 0.088738 0.126280
vt 0.115627 0.156013
vt 0.355137 0.480588
vt 0.389481 0.542828
vt 0.355137 0.547457
vt 0.389481 0.458862
vt 0.435829 0.205342
vt 0.389564 0.186406
vt 0.360122 0.236514
vt 0.355137 0.173394
vt 0.561842 0.420314
vt 0.084024 0.196189
vt 0.041126 0.175719
vt 0.038034 0.215567
vt 0.009231 0.166551
vt 0.389481 0.420314
vt 0.429180 0.144645
vt 0.405660 0.120136
vt 0.211067 0.797909
vt 0.211027 0.729972
vt 0.077751 0.257365
vt 0.054946 0.282979
vt 0.004330 0.229710
vt 0.038706 0.797909
vt 0.355137 0.667760
vt 0.467478 0.245476
vt 0.596186 0.547457
vt 0.604846 0.486546
vt 0.639168 0.714607
vt 0.604861 0.707056
vt 0.639251 0.461697
vt 0.845966 0.486199
vt 0.245450 0.500583
vt 0.245417 0.719711
vt 0.038723 0.479065
vt 0.038666 0.729959
vt 0.004330 0.500974
vt 0.713432 0.312117
vt 0.818830 0.252530
vt 0.713432 0.252300
vt 0.762410 0.004348
vt 0.889064 0.182876
vt 0.889064 0.020028
vt 0.811447 0.207445
vt 0.729982 0.198549
vt 0.706049 0.004330
vt 0.706049 0.198537
vt 0.762410 0.198555
vt 0.729982 0.004342
vt 0.627024 0.801455
vt 0.658261 0.995658
vt 0.658261 0.801450
vt 0.604845 0.801463
vt 0.627024 0.995662
vt 0.818830 0.312347
vt 0.706128 0.357810
vt 0.811526 0.358040
vt 0.781303 0.979975
vt 0.706049 0.207215
vt 0.604845 0.995670
vt 0.781303 0.817127
vt 0.514928 0.808064
vt 0.436395 0.407154
vt 0.209014 0.426873
vt 0.764634 0.407154
vt 0.845910 0.707104
vt 0.004369 0.719664
vt 0.706049 0.207215
vt 0.604845 0.995670
vt 0.781303 0.817127
vn -0.0000 0.9954 -0.0961
vn 0.0000 0.9956 0.0939
vn 0.0000 0.0165 -0.9999
vn 0.0000 0.2800 -0.9600
vn -0.0000 0.9272 -0.3747
vn 0.0000 0.6907 -0.7231
vn 0.0000 0.3362 0.9418
vn 0.0000 0.7185 0.6955
vn 0.0000 0.9324 0.3614
vn 0.0000 0.0802 0.9968
vn 0.7896 0.5913 -0.1643
vn 0.9251 0.3568 0.1297
vn 0.9253 0.3565 -0.1295
vn -0.0179 -0.1613 -0.9867
vn -0.1361 0.0557 -0.9891
vn 0.1360 0.0542 -0.9892
vn -0.9641 -0.2296 0.1335
vn -0.9227 0.3631 -0.1297
vn -0.9641 -0.2296 -0.1335
vn -0.1361 0.0555 0.9891
vn -0.0179 -0.1613 0.9867
vn 0.1360 0.0545 0.9892
vn -0.5402 -0.8327 0.1218
vn -0.5402 -0.8327 -0.1218
vn 0.1131 -0.9873 -0.1112
vn 0.5402 -0.8327 0.1218
vn 0.1131 -0.9873 0.1112
vn -0.1131 -0.9873 0.1112
vn -0.1131 -0.9873 -0.1112
vn 0.9641 -0.2296 -0.1335
vn 0.9641 -0.2296 0.1335
vn 0.5402 -0.8327 -0.1218
vn 0.7884 0.5919 0.1677
vn 0.3432 0.7478 0.5684
vn 0.6696 0.5157 0.5345
vn -0.3895 0.8993 0.1989
vn 0.3984 0.8949 0.2009
vn -0.7815 0.6020 0.1639
vn -0.3374 0.7521 0.5661
vn -0.6655 0.5252 0.5304
vn 0.0016 0.5208 0.8537
vn 0.3244 0.3361 0.8842
vn -0.3222 0.3409 0.8832
vn 0.0004 0.1450 0.9894
vn 0.3462 0.7477 -0.5666
vn 0.4004 0.8944 -0.1991
vn 0.6722 0.5159 -0.5311
vn 0.0045 0.5208 -0.8537
vn -0.3205 0.3407 -0.8838
vn 0.3261 0.3362 -0.8835
vn 0.0011 0.1450 -0.9894
vn -0.6630 0.5250 -0.5338
vn -0.7803 0.6025 -0.1674
vn -0.3344 0.7521 -0.5679
vn -0.3876 0.8997 -0.2007
vn -0.0841 -0.1438 -0.9860
vn -0.0636 -0.5618 -0.8248
vn -0.2929 -0.4723 -0.8314
vn -0.1022 -0.8911 -0.4421
vn -0.4808 -0.7443 -0.4635
vn -0.0841 -0.1438 0.9860
vn -0.0636 -0.5618 0.8248
vn -0.2929 -0.4723 0.8314
vn -0.1022 -0.8911 0.4421
vn -0.4808 -0.7443 0.4635
vn -0.1504 -0.0398 -0.9878
vn -0.5128 -0.1287 -0.8488
vn -0.8471 -0.2032 -0.4910
vn -0.1504 -0.0398 0.9878
vn -0.5128 -0.1287 0.8488
vn -0.8471 -0.2032 0.4910
vn -0.4875 0.1980 -0.8504
vn -0.8124 0.3238 -0.4850
vn -0.4876 0.1974 0.8504
vn -0.8127 0.3231 0.4849
vn -0.9228 0.3629 0.1294
vn 0.0841 -0.1438 0.9860
vn 0.0636 -0.5618 0.8248
vn 0.2929 -0.4723 0.8314
vn 0.1022 -0.8911 0.4421
vn 0.4808 -0.7443 0.4635
vn 0.0841 -0.1438 -0.9860
vn 0.0636 -0.5618 -0.8248
vn 0.0179 -0.1613 -0.9867
vn 0.2929 -0.4723 -0.8314
vn 0.1022 -0.8911 -0.4421
vn 0.4808 -0.7443 -0.4635
vn 0.1504 -0.0398 0.9878
vn 0.5128 -0.1287 0.8488
vn 0.8471 -0.2032 0.4910
vn 0.1504 -0.0398 -0.9878
vn 0.5128 -0.1287 -0.8488
vn 0.8471 -0.2032 -0.4910
vn 0.4883 0.1942 0.8508
vn 0.8144 0.3181 0.4853
vn 0.4884 0.1936 -0.8509
vn 0.8147 0.3174 -0.4852
vn 0.0179 -0.1613 0.9867
vn -0.0000 -0.9956 -0.0939
vn 0.0000 -0.9954 0.0961
vn 0.0000 -0.2800 0.9600
vn 0.0000 -0.0165 0.9999
vn 0.0000 -0.9381 0.3462
vn 0.0000 -0.7124 0.7017
vn -0.0000 -0.7364 -0.6765
vn -0.0000 -0.3362 -0.9418
vn -0.0000 -0.9415 -0.3370
vn 0.0000 -0.0802 -0.9968
s 1
f 13/1/1 5/2/2 10/3/1
f 2/4/3 9/5/4 1/6/3
f 10/3/1 15/7/5 13/1/1
f 12/8/5 16/9/6 15/10/5
f 11/11/6 14/12/4 16/9/6
f 6/13/7 19/14/8 17/15/7
f 8/16/8 20/17/9 19/14/8
f 7/18/9 18/19/2 20/20/9
f 17/15/7 3/21/10 6/13/7
f 33/22/11 82/23/12 94/24/13
f 61/25/14 65/26/15 93/27/16
f 54/28/17 66/29/18 74/30/19
f 45/31/20 49/32/21 81/33/22
f 58/34/23 74/35/19 70/36/24
f 98/37/25 86/38/26 78/39/27
f 98/37/25 50/40/28 62/41/29
f 102/42/30 82/23/12 90/43/31
f 106/44/32 90/45/31 86/38/26
f 50/40/28 70/36/24 62/41/29
f 21/46/33 26/47/34 25/48/35
f 28/49/36 26/47/34 24/50/37
f 22/51/38 29/52/39 28/53/36
f 27/54/40 32/55/41 29/56/39
f 30/57/42 31/58/43 23/59/44
f 25/60/35 32/55/41 30/57/42
f 26/61/34 29/56/39 32/55/41
f 33/22/11 38/62/45 37/63/46
f 36/64/47 41/65/48 38/66/45
f 39/67/49 40/68/50 34/69/51
f 43/70/52 41/65/48 39/67/49
f 35/71/53 44/72/54 43/73/52
f 37/63/46 44/74/54 42/75/55
f 38/66/45 41/65/48 44/76/54
f 21/46/33 37/63/46 24/50/37
f 24/50/37 42/75/55 28/49/36
f 28/53/36 35/71/53 22/51/38
f 69/77/56 63/78/57 71/79/58
f 71/80/58 64/81/59 72/82/60
f 72/82/60 62/41/29 70/36/24
f 57/83/61 51/84/62 49/32/21
f 59/85/63 52/86/64 51/87/62
f 60/88/65 50/40/28 52/86/64
f 73/89/66 71/79/58 75/90/67
f 75/90/67 72/91/60 76/92/68
f 76/93/68 70/36/24 74/35/19
f 53/94/69 59/95/63 57/83/61
f 55/96/70 60/97/65 59/95/63
f 56/98/71 58/34/23 60/88/65
f 73/89/66 67/99/72 65/26/15
f 75/90/67 68/100/73 67/99/72
f 76/101/68 66/29/18 68/102/73
f 53/94/69 47/103/74 55/96/70
f 55/96/70 48/104/75 56/105/71
f 56/106/71 46/107/76 54/28/17
f 85/108/77 79/109/78 87/110/79
f 87/111/79 80/112/80 88/113/81
f 88/113/81 78/39/27 86/38/26
f 105/114/82 99/115/83 97/116/84
f 107/117/85 100/118/86 99/119/83
f 108/120/87 98/37/25 100/118/86
f 89/121/88 87/110/79 91/122/89
f 91/122/89 88/123/81 92/124/90
f 92/125/90 86/38/26 90/45/31
f 101/126/91 107/127/85 105/114/82
f 103/128/92 108/129/87 107/127/85
f 104/130/93 106/44/32 108/120/87
f 89/121/88 83/131/94 81/33/22
f 91/122/89 84/132/95 83/131/94
f 92/133/90 82/23/12 84/134/95
f 101/126/91 95/135/96 103/128/92
f 103/128/92 96/136/97 104/137/93
f 104/138/93 94/24/13 102/42/30
f 97/116/84 63/78/57 61/25/14
f 99/119/83 64/81/59 63/139/57
f 100/118/86 62/41/29 64/81/59
f 49/32/21 79/109/78 77/140/98
f 51/87/62 80/112/80 79/141/78
f 80/112/80 50/40/28 78/39/27
f 23/59/44 47/103/74 45/31/20
f 31/142/43 48/143/75 47/144/74
f 27/145/40 46/107/76 48/143/75
f 34/69/51 67/99/72 39/67/49
f 39/146/49 68/102/73 43/73/52
f 43/73/52 66/29/18 35/71/53
f 82/23/12 25/48/35 84/134/95
f 84/134/95 30/147/42 83/148/94
f 83/131/94 23/59/44 81/33/22
f 94/24/13 36/149/47 33/22/11
f 96/150/97 40/151/50 36/149/47
f 95/135/96 34/69/51 40/68/50
f 22/51/38 66/29/18 46/107/76
f 113/152/99 121/153/100 118/154/100
f 117/155/101 110/156/102 109/157/102
f 123/158/103 118/154/100 121/153/100
f 124/159/104 120/160/103 123/161/103
f 122/162/101 119/163/104 124/159/104
f 127/164/105 114/165/106 125/166/106
f 128/167/107 116/168/105 127/164/105
f 126/169/99 115/170/107 128/171/107
f 111/172/108 125/166/106 114/165/106
f 13/1/1 18/19/2 5/2/2
f 2/4/3 14/12/4 9/5/4
f 10/3/1 12/173/5 15/7/5
f 12/8/5 11/11/6 16/9/6
f 11/11/6 9/5/4 14/12/4
f 6/13/7 8/16/8 19/14/8
f 8/16/8 7/174/9 20/17/9
f 7/18/9 5/2/2 18/19/2
f 17/15/7 4/175/10 3/21/10
f 33/22/11 21/46/33 82/23/12
f 97/116/84 61/25/14 93/27/16
f 61/25/14 69/77/56 65/26/15
f 69/77/56 73/89/66 65/26/15
f 65/26/15 34/69/51 93/27/16
f 93/27/16 101/126/91 105/114/82
f 105/114/82 97/116/84 93/27/16
f 54/28/17 46/107/76 66/29/18
f 49/32/21 77/140/98 81/33/22
f 77/140/98 85/108/77 81/33/22
f 85/108/77 89/121/88 81/33/22
f 81/33/22 23/59/44 45/31/20
f 45/31/20 53/94/69 57/83/61
f 57/83/61 49/32/21 45/31/20
f 58/34/23 54/176/17 74/35/19
f 98/37/25 106/44/32 86/38/26
f 98/37/25 78/39/27 50/40/28
f 102/42/30 94/24/13 82/23/12
f 106/44/32 102/177/30 90/45/31
f 50/40/28 58/34/23 70/36/24
f 21/46/33 24/50/37 26/47/34
f 28/49/36 29/178/39 26/47/34
f 22/51/38 27/145/40 29/52/39
f 27/54/40 31/58/43 32/55/41
f 30/57/42 32/55/41 31/58/43
f 25/60/35 26/61/34 32/55/41
f 33/22/11 36/149/47 38/62/45
f 36/64/47 40/68/50 41/65/48
f 39/67/49 41/65/48 40/68/50
f 43/70/52 44/76/54 41/65/48
f 35/71/53 42/179/55 44/72/54
f 37/63/46 38/62/45 44/74/54
f 21/46/33 33/22/11 37/63/46
f 24/50/37 37/63/46 42/75/55
f 28/53/36 42/179/55 35/71/53
f 69/77/56 61/25/14 63/78/57
f 71/80/58 63/139/57 64/81/59
f 72/82/60 64/81/59 62/41/29
f 57/83/61 59/95/63 51/84/62
f 59/85/63 60/88/65 52/86/64
f 60/88/65 58/34/23 50/40/28
f 73/89/66 69/77/56 71/79/58
f 75/90/67 71/79/58 72/91/60
f 76/93/68 72/82/60 70/36/24
f 53/94/69 55/96/70 59/95/63
f 55/96/70 56/105/71 60/97/65
f 56/98/71 54/176/17 58/34/23
f 73/89/66 75/90/67 67/99/72
f 75/90/67 76/92/68 68/100/73
f 76/101/68 74/30/19 66/29/18
f 53/94/69 45/31/20 47/103/74
f 55/96/70 47/103/74 48/104/75
f 56/106/71 48/143/75 46/107/76
f 85/108/77 77/140/98 79/109/78
f 87/111/79 79/141/78 80/112/80
f 88/113/81 80/112/80 78/39/27
f 105/114/82 107/127/85 99/115/83
f 107/117/85 108/120/87 100/118/86
f 108/120/87 106/44/32 98/37/25
f 89/121/88 85/108/77 87/110/79
f 91/122/89 87/110/79 88/123/81
f 92/125/90 88/113/81 86/38/26
f 101/126/91 103/128/92 107/127/85
f 103/128/92 104/137/93 108/129/87
f 104/130/93 102/177/30 106/44/32
f 89/121/88 91/122/89 83/131/94
f 91/122/89 92/124/90 84/132/95
f 92/133/90 90/43/31 82/23/12
f 101/126/91 93/27/16 95/135/96
f 103/128/92 95/135/96 96/136/97
f 104/138/93 96/150/97 94/24/13
f 97/116/84 99/115/83 63/78/57
f 99/119/83 100/118/86 64/81/59
f 100/118/86 98/37/25 62/41/29
f 49/32/21 51/84/62 79/109/78
f 51/87/62 52/86/64 80/112/80
f 80/112/80 52/86/64 50/40/28
f 23/59/44 31/58/43 47/103/74
f 31/142/43 27/145/40 48/143/75
f 27/145/40 22/51/38 46/107/76
f 34/69/51 65/26/15 67/99/72
f 39/146/49 67/180/72 68/102/73
f 43/73/52 68/102/73 66/29/18
f 82/23/12 21/46/33 25/48/35
f 84/134/95 25/48/35 30/147/42
f 83/131/94 30/57/42 23/59/44
f 94/24/13 96/150/97 36/149/47
f 96/150/97 95/181/96 40/151/50
f 95/135/96 93/27/16 34/69/51
f 22/51/38 35/71/53 66/29/18
f 113/152/99 126/169/99 121/153/100
f 117/155/101 122/162/101 110/156/102
f 123/158/103 120/182/103 118/154/100
f 124/159/104 119/163/104 120/160/103
f 122/162/101 117/155/101 119/163/104
f 127/164/105 116/168/105 114/165/106
f 128/167/107 115/183/107 116/168/105
f 126/169/99 113/152/99 115/170/107
f 111/172/108 112/184/108 125/166/106
