# Blender v3.4.1 OBJ File: 'environment.blend'
# www.blender.org
o Cube_Cube.012
v -0.118535 -0.019825 0.226571
v -0.226571 -0.019825 0.118535
v -0.172553 -0.019825 0.212097
v -0.212097 -0.019825 0.172553
v -0.194440 0.822581 0.086404
v -0.086404 0.822581 0.194440
v -0.179966 0.822581 0.140422
v -0.140422 0.822581 0.179966
v -0.226571 -0.019825 -0.118535
v -0.118535 -0.019825 -0.226571
v -0.212097 -0.019825 -0.172553
v -0.172553 -0.019825 -0.212097
v -0.086404 0.822581 -0.194440
v -0.194440 0.822581 -0.086404
v -0.140422 0.822581 -0.179966
v -0.179966 0.822581 -0.140422
v 0.226571 -0.019825 0.118535
v 0.118535 -0.019825 0.226571
v 0.212097 -0.019825 0.172553
v 0.172553 -0.019825 0.212097
v 0.086404 0.822581 0.194440
v 0.194440 0.822581 0.086404
v 0.140422 0.822581 0.179966
v 0.179966 0.822581 0.140422
v 0.118535 -0.019825 -0.226571
v 0.226571 -0.019825 -0.118535
v 0.172553 -0.019825 -0.212097
v 0.212097 -0.019825 -0.172553
v 0.194440 0.822581 -0.086404
v 0.086404 0.822581 -0.194440
v 0.179966 0.822581 -0.140422
v 0.140422 0.822581 -0.179966
v 0.000000 0.819032 0.000000
v 0.202035 0.973372 0.146786
v -0.077169 0.973372 0.237506
v -0.249729 0.973373 0.000000
v -0.077169 0.973372 -0.237506
v 0.202035 0.973372 -0.146786
v 0.077169 1.223105 0.237506
v -0.202035 1.223105 0.146786
v -0.202035 1.223105 -0.146786
v 0.077169 1.223105 -0.237506
v 0.249729 1.223104 0.000000
v 0.000000 1.377444 0.000000
v -0.045359 0.860730 0.139602
v 0.118753 0.860731 0.086278
v 0.073395 0.951449 0.225881
v 0.237506 0.951450 0.000000
v 0.118753 0.860731 -0.086278
v -0.146787 0.860731 0.000000
v -0.192147 0.951450 0.139602
v -0.045359 0.860730 -0.139602
v -0.192147 0.951450 -0.139602
v 0.073395 0.951449 -0.225881
v 0.265541 1.098238 0.086278
v 0.265541 1.098238 -0.086278
v 0.000000 1.098238 0.279206
v 0.164113 1.098238 0.225882
v -0.265541 1.098238 0.086278
v -0.164113 1.098238 0.225882
v -0.164113 1.098238 -0.225882
v -0.265541 1.098238 -0.086278
v 0.164113 1.098238 -0.225882
v 0.000000 1.098238 -0.279206
v 0.192147 1.245027 0.139602
v -0.073395 1.245028 0.225881
v -0.237506 1.245027 0.000000
v -0.073395 1.245028 -0.225881
v 0.192147 1.245027 -0.139602
v 0.045359 1.335746 0.139602
v 0.146787 1.335745 0.000000
v -0.118753 1.335746 0.086278
v -0.118753 1.335746 -0.086278
v 0.045359 1.335746 -0.139602
v -0.239033 0.749215 0.068149
v -0.585140 0.078943 -0.068149
v -0.585140 0.078943 0.068149
v -0.239033 0.749215 -0.068149
v -0.464036 0.016408 -0.068149
v -0.117929 0.686681 -0.068149
v -0.464036 0.016408 0.068149
v -0.117929 0.686681 0.068149
v 0.234828 0.105353 -0.105353
v 0.234828 -0.814921 0.105353
v 0.234828 -0.814921 -0.105353
v 0.234828 0.105353 0.105353
v 0.024123 -0.814921 0.105353
v 0.024123 0.105353 0.105353
v 0.024123 -0.814921 -0.105353
v 0.024123 0.105353 -0.105353
v -0.026642 0.105353 -0.105353
v -0.026642 -0.814921 0.105353
v -0.026642 -0.814921 -0.105353
v -0.237347 0.105353 0.105353
v -0.237348 -0.814921 0.105353
v -0.237348 -0.814921 -0.105353
v -0.237348 0.105353 -0.105353
v -0.026642 0.105353 0.105353
v 0.236965 0.749215 -0.068149
v 0.583072 0.078943 0.068149
v 0.583072 0.078943 -0.068149
v 0.236965 0.749215 0.068149
v 0.461967 0.016408 0.068149
v 0.115860 0.686681 -0.068149
v 0.461967 0.016408 -0.068149
v 0.115860 0.686681 0.068149
vt 0.625000 0.819453
vt 0.375000 0.940396
vt 0.375000 0.809604
vt 0.625000 0.569453
vt 0.375000 0.690396
vt 0.375000 0.559604
vt 0.875000 0.569453
vt 0.805547 0.750000
vt 0.625000 0.680547
vt 0.625000 0.069453
vt 0.375000 0.190396
vt 0.375000 0.059604
vt 0.625000 0.319453
vt 0.375000 0.440396
vt 0.375000 0.309604
vt 0.625000 1.000000
vt 0.378589 1.000000
vt 0.625000 0.000000
vt 0.375764 0.029781
vt 0.378589 0.000000
vt 0.625764 0.034708
vt 0.625764 0.284708
vt 0.375764 0.279781
vt 0.625764 0.215292
vt 0.625000 0.180547
vt 0.625764 0.534708
vt 0.375764 0.529781
vt 0.625764 0.465292
vt 0.625000 0.430547
vt 0.625764 0.784708
vt 0.375764 0.779782
vt 0.625764 0.715292
vt 0.315396 0.750000
vt 0.125000 0.690396
vt 0.181819 0.000000
vt 0.227273 0.078731
vt 0.136365 0.078731
vt 0.272728 0.157461
vt 0.318182 0.078731
vt 0.363637 0.157461
vt 0.909091 0.000000
vt 0.954545 0.078731
vt 0.863636 0.078731
vt 0.727273 0.000000
vt 0.772727 0.078731
vt 0.681818 0.078731
vt 0.545455 0.000000
vt 0.590909 0.078731
vt 0.500000 0.078731
vt 0.318182 0.236191
vt 0.090910 0.157461
vt 0.181819 0.157461
vt 0.136365 0.236191
vt 0.818182 0.157461
vt 0.909091 0.157461
vt 0.863636 0.236191
vt 0.636364 0.157461
vt 0.727273 0.157461
vt 0.681818 0.236191
vt 0.454546 0.157461
vt 0.545455 0.157461
vt 0.500000 0.236191
vt 0.227273 0.236191
vt 0.045455 0.236191
vt 0.772727 0.236191
vt 0.590909 0.236191
vt 0.409092 0.236191
vt 0.181819 0.314921
vt 0.272728 0.314921
vt 0.227273 0.393651
vt 0.000000 0.314921
vt 0.090910 0.314921
vt 0.045455 0.393651
vt 0.727273 0.314921
vt 0.818182 0.314921
vt 0.772727 0.393651
vt 0.545455 0.314921
vt 0.636364 0.314921
vt 0.590909 0.393651
vt 0.363637 0.314921
vt 0.454546 0.314921
vt 0.409092 0.393651
vt 0.500000 0.393651
vt 0.454546 0.472382
vt 0.681818 0.393651
vt 0.636364 0.472382
vt 0.863636 0.393651
vt 0.818182 0.472382
vt 0.909091 0.314921
vt 0.136365 0.393651
vt 0.090910 0.472382
vt 0.318182 0.393651
vt 0.272728 0.472382
vt 0.954545 0.236191
vt 1.000000 0.157461
vt 0.409092 0.078731
vt 0.363637 0.000000
vt 0.625000 0.000000
vt 0.375000 0.250000
vt 0.375000 0.000000
vt 0.625000 0.250000
vt 0.375000 0.500000
vt 0.625000 0.500000
vt 0.375000 0.750000
vt 0.625000 0.750000
vt 0.375000 1.000000
vt 0.125000 0.750000
vt 0.125000 0.500000
vt 0.875000 0.500000
vt 0.625000 0.000000
vt 0.375000 0.250000
vt 0.375000 0.000000
vt 0.625000 0.250000
vt 0.375000 0.500000
vt 0.625000 0.500000
vt 0.375000 0.750000
vt 0.625000 1.000000
vt 0.375000 1.000000
vt 0.125000 0.750000
vt 0.125000 0.500000
vt 0.875000 0.500000
vt 0.625000 0.750000
vt 0.625000 0.000000
vt 0.375000 0.250000
vt 0.375000 0.000000
vt 0.625000 0.500000
vt 0.375000 0.500000
vt 0.375000 0.750000
vt 0.625000 0.750000
vt 0.375000 1.000000
vt 0.125000 0.750000
vt 0.125000 0.500000
vt 0.875000 0.500000
vt 0.625000 0.000000
vt 0.375000 0.250000
vt 0.375000 0.000000
vt 0.625000 0.250000
vt 0.375000 0.500000
vt 0.625000 0.750000
vt 0.375000 0.750000
vt 0.625000 1.000000
vt 0.375000 1.000000
vt 0.125000 0.750000
vt 0.125000 0.500000
vt 0.625000 0.500000
vt 0.875000 0.750000
vt 0.625000 1.000000
vt 0.875000 0.750000
vt 0.875000 0.750000
vt 0.625000 0.250000
vt 0.625000 1.000000
vt 0.875000 0.750000
vt 0.875000 0.500000
vt 0.625000 0.930547
vt 0.694453 0.500000
vt 0.634305 0.534727
vt 0.659727 0.509305
vt 0.805547 0.500000
vt 0.840273 0.509305
vt 0.865695 0.534727
vt 0.875000 0.680547
vt 0.865695 0.715273
vt 0.840273 0.740695
vt 0.694453 0.750000
vt 0.659727 0.740695
vt 0.634305 0.715273
vt 0.375764 0.220219
vt 0.375764 0.470219
vt 0.375764 0.720219
vt 0.125000 0.559604
vt 0.184604 0.500000
vt 0.132985 0.529802
vt 0.154802 0.507985
vt 0.315396 0.500000
vt 0.345198 0.507985
vt 0.367015 0.529802
vt 0.367015 0.720198
vt 0.345198 0.742015
vt 0.184604 0.750000
vt 0.154802 0.742015
vt 0.132985 0.720198
vn 0.0920 0.6943 0.7137
vn -0.0997 -0.6631 0.7419
vn 0.0997 -0.6631 0.7419
vn 0.7137 0.6943 -0.0920
vn 0.7419 -0.6631 0.0997
vn 0.7419 -0.6631 -0.0997
vn -0.7137 0.6943 -0.0920
vn -0.0920 0.6943 0.7137
vn 0.7137 0.6943 0.0920
vn -0.7137 0.6943 0.0920
vn -0.7419 -0.6631 -0.0997
vn -0.7419 -0.6631 0.0997
vn -0.0920 0.6943 -0.7137
vn 0.0997 -0.6631 -0.7419
vn -0.0997 -0.6631 -0.7419
vn -0.3686 0.6725 0.6418
vn -0.3883 -0.6337 0.6691
vn -0.6691 -0.6337 0.3883
vn -0.6418 0.6725 0.3686
vn -0.3686 0.6725 -0.6418
vn -0.3883 -0.6337 -0.6691
vn -0.6418 0.6725 -0.3686
vn 0.6418 0.6725 -0.3686
vn 0.6691 -0.6337 -0.3883
vn 0.3686 0.6725 -0.6418
vn 0.0920 0.6943 -0.7137
vn 0.3686 0.6725 0.6418
vn 0.3883 -0.6337 0.6691
vn 0.6418 0.6725 0.3686
vn -0.0000 -1.0000 0.0000
vn 0.4253 -0.8507 0.3090
vn -0.1625 -0.8507 0.5000
vn 0.7236 -0.4472 0.5257
vn 0.8506 -0.5257 -0.0000
vn -0.5257 -0.8507 0.0000
vn -0.1625 -0.8507 -0.5000
vn 0.4253 -0.8507 -0.3090
vn 0.9511 -0.0000 0.3090
vn -0.2764 -0.4472 0.8506
vn 0.2629 -0.5257 0.8090
vn 0.0000 -0.0000 1.0000
vn -0.8944 -0.4472 0.0000
vn -0.6882 -0.5257 0.5000
vn -0.9511 0.0000 0.3090
vn -0.2764 -0.4472 -0.8506
vn -0.6882 -0.5257 -0.5000
vn -0.5878 -0.0000 -0.8090
vn 0.7236 -0.4472 -0.5257
vn 0.2629 -0.5257 -0.8090
vn 0.5878 0.0000 -0.8090
vn 0.5878 0.0000 0.8090
vn -0.5878 -0.0000 0.8090
vn -0.9511 0.0000 -0.3090
vn 0.0000 -0.0000 -1.0000
vn 0.9511 -0.0000 -0.3090
vn 0.2764 0.4472 0.8506
vn 0.6882 0.5257 0.5000
vn 0.1625 0.8507 0.5000
vn -0.7236 0.4472 0.5257
vn -0.2629 0.5257 0.8090
vn -0.4253 0.8507 0.3090
vn -0.7236 0.4472 -0.5257
vn -0.8506 0.5257 0.0000
vn -0.4253 0.8507 -0.3090
vn 0.2764 0.4472 -0.8506
vn -0.2629 0.5257 -0.8090
vn 0.1625 0.8507 -0.5000
vn 0.8944 0.4472 0.0000
vn 0.6882 0.5257 -0.5000
vn 0.5257 0.8507 -0.0000
vn 0.0000 1.0000 -0.0000
vn -0.8885 0.4588 0.0000
vn 0.8885 -0.4588 0.0000
vn -0.4588 -0.8885 0.0000
vn 0.4588 0.8885 0.0000
vn 1.0000 -0.0000 0.0000
vn -1.0000 -0.0000 0.0000
vn 0.8885 0.4588 0.0000
vn -0.8885 -0.4588 0.0000
vn 0.4588 -0.8885 0.0000
vn -0.4588 0.8885 0.0000
vn -0.6691 -0.6337 -0.3883
vn 0.3883 -0.6337 -0.6691
vn 0.6691 -0.6337 0.3883
s 1
f 21/1/1 1/2/2 18/3/3
f 29/4/4 17/5/5 26/6/6
f 14/7/7 6/8/8 22/9/9
f 5/10/10 9/11/11 2/12/12
f 13/13/13 25/14/14 10/15/15
f 1/2/2 8/16/16 3/17/17
f 8/18/16 4/19/18 3/20/17
f 7/21/19 2/12/12 4/19/18
f 10/15/15 15/22/20 13/13/13
f 12/23/21 16/24/22 15/22/20
f 16/24/22 9/11/11 14/25/7
f 26/6/6 31/26/23 29/4/4
f 28/27/24 32/28/25 31/26/23
f 32/28/25 25/14/14 30/29/26
f 18/3/3 23/30/27 21/1/1
f 20/31/28 24/32/29 23/30/27
f 24/32/29 17/5/5 22/9/9
f 26/6/6 18/33/3 2/34/12
f 33/35/30 46/36/31 45/37/32
f 34/38/33 46/39/31 48/40/34
f 33/41/30 45/42/32 50/43/35
f 33/44/30 50/45/35 52/46/36
f 33/47/30 52/48/36 49/49/37
f 34/38/33 48/40/34 55/50/38
f 35/51/39 47/52/40 57/53/41
f 36/54/42 51/55/43 59/56/44
f 37/57/45 53/58/46 61/59/47
f 38/60/48 54/61/49 63/62/50
f 34/38/33 55/50/38 58/63/51
f 35/51/39 57/53/41 60/64/52
f 36/54/42 59/56/44 62/65/53
f 37/57/45 61/59/47 64/66/54
f 38/60/48 63/62/50 56/67/55
f 39/68/56 65/69/57 70/70/58
f 40/71/59 66/72/60 72/73/61
f 41/74/62 67/75/63 73/76/64
f 42/77/65 68/78/66 74/79/67
f 43/80/68 69/81/69 71/82/70
f 71/82/70 74/83/67 44/84/71
f 71/82/70 69/81/69 74/83/67
f 69/81/69 42/77/65 74/83/67
f 74/79/67 73/85/64 44/86/71
f 74/79/67 68/78/66 73/85/64
f 68/78/66 41/74/62 73/85/64
f 73/76/64 72/87/61 44/88/71
f 73/76/64 67/75/63 72/87/61
f 67/75/63 40/89/59 72/87/61
f 72/73/61 70/90/58 44/91/71
f 72/73/61 66/72/60 70/90/58
f 66/72/60 39/68/56 70/90/58
f 70/70/58 71/92/70 44/93/71
f 70/70/58 65/69/57 71/92/70
f 65/69/57 43/80/68 71/92/70
f 56/67/55 69/81/69 43/80/68
f 56/67/55 63/62/50 69/81/69
f 63/62/50 42/77/65 69/81/69
f 64/66/54 68/78/66 42/77/65
f 64/66/54 61/59/47 68/78/66
f 61/59/47 41/74/62 68/78/66
f 62/65/53 67/75/63 41/74/62
f 62/65/53 59/56/44 67/75/63
f 59/56/44 40/89/59 67/75/63
f 60/64/52 66/72/60 40/71/59
f 60/64/52 57/53/41 66/72/60
f 57/53/41 39/68/56 66/72/60
f 58/63/51 65/69/57 39/68/56
f 58/63/51 55/50/38 65/69/57
f 55/50/38 43/80/68 65/69/57
f 63/62/50 64/66/54 42/77/65
f 63/62/50 54/61/49 64/66/54
f 54/61/49 37/57/45 64/66/54
f 61/59/47 62/65/53 41/74/62
f 61/59/47 53/58/46 62/65/53
f 53/58/46 36/54/42 62/65/53
f 59/56/44 60/94/52 40/89/59
f 59/56/44 51/55/43 60/94/52
f 51/55/43 35/95/39 60/94/52
f 57/53/41 58/63/51 39/68/56
f 57/53/41 47/52/40 58/63/51
f 47/52/40 34/38/33 58/63/51
f 55/50/38 56/67/55 43/80/68
f 55/50/38 48/40/34 56/67/55
f 48/40/34 38/60/48 56/67/55
f 49/49/37 54/61/49 38/60/48
f 49/49/37 52/48/36 54/61/49
f 52/48/36 37/57/45 54/61/49
f 52/46/36 53/58/46 37/57/45
f 52/46/36 50/45/35 53/58/46
f 50/45/35 36/54/42 53/58/46
f 50/43/35 51/55/43 36/54/42
f 50/43/35 45/42/32 51/55/43
f 45/42/32 35/95/39 51/55/43
f 48/40/34 49/96/37 38/60/48
f 48/40/34 46/39/31 49/96/37
f 46/39/31 33/97/30 49/96/37
f 45/37/32 47/52/40 35/51/39
f 45/37/32 46/36/31 47/52/40
f 46/36/31 34/38/33 47/52/40
f 75/98/72 76/99/72 77/100/72
f 78/101/54 79/102/54 76/99/54
f 80/103/73 81/104/73 79/102/73
f 82/105/41 77/106/41 81/104/41
f 79/102/74 77/107/74 76/108/74
f 78/109/75 82/105/75 80/103/75
f 83/110/76 84/111/76 85/112/76
f 86/113/41 87/114/41 84/111/41
f 88/115/77 89/116/77 87/114/77
f 89/116/54 83/117/54 85/118/54
f 87/114/30 85/119/30 84/120/30
f 86/121/71 90/122/71 88/115/71
f 91/123/76 92/124/76 93/125/76
f 92/124/41 94/126/41 95/127/41
f 94/126/77 96/128/77 95/127/77
f 97/129/54 93/130/54 96/128/54
f 95/127/30 93/131/30 92/132/30
f 98/133/71 97/129/71 94/126/71
f 99/134/78 100/135/78 101/136/78
f 102/137/41 103/138/41 100/135/41
f 103/138/79 104/139/79 105/140/79
f 105/140/54 99/141/54 101/142/54
f 103/138/80 101/143/80 100/144/80
f 106/145/81 99/146/81 104/139/81
f 75/98/72 78/101/72 76/99/72
f 78/101/54 80/103/54 79/102/54
f 80/103/73 82/105/73 81/104/73
f 82/105/41 75/147/41 77/106/41
f 79/102/74 81/104/74 77/107/74
f 78/109/75 75/148/75 82/105/75
f 83/110/76 86/113/76 84/111/76
f 86/113/41 88/115/41 87/114/41
f 88/115/77 90/122/77 89/116/77
f 89/116/54 90/122/54 83/117/54
f 87/114/30 89/116/30 85/119/30
f 86/121/71 83/149/71 90/122/71
f 91/123/76 98/150/76 92/124/76
f 92/124/41 98/150/41 94/126/41
f 94/126/77 97/129/77 96/128/77
f 97/129/54 91/151/54 93/130/54
f 95/127/30 96/128/30 93/131/30
f 98/133/71 91/152/71 97/129/71
f 99/134/78 102/137/78 100/135/78
f 102/137/41 106/145/41 103/138/41
f 103/138/79 106/145/79 104/139/79
f 105/140/54 104/139/54 99/141/54
f 103/138/80 105/140/80 101/143/80
f 106/145/81 102/153/81 99/146/81
f 21/1/1 6/154/8 1/2/2
f 29/4/4 22/9/9 17/5/5
f 22/9/9 29/4/4 30/155/26
f 29/4/4 31/156/23 30/155/26
f 31/156/23 32/157/25 30/155/26
f 30/155/26 13/158/13 14/7/7
f 13/158/13 15/159/20 14/7/7
f 15/159/20 16/160/22 14/7/7
f 14/7/7 5/161/10 6/8/8
f 5/161/10 7/162/19 6/8/8
f 7/162/19 8/163/16 6/8/8
f 6/8/8 21/164/1 22/9/9
f 21/164/1 23/165/27 22/9/9
f 23/165/27 24/166/29 22/9/9
f 22/9/9 30/155/26 14/7/7
f 5/10/10 14/25/7 9/11/11
f 13/13/13 30/29/26 25/14/14
f 1/2/2 6/154/8 8/16/16
f 8/18/16 7/21/19 4/19/18
f 7/21/19 5/10/10 2/12/12
f 10/15/15 12/23/21 15/22/20
f 12/23/21 11/167/82 16/24/22
f 16/24/22 11/167/82 9/11/11
f 26/6/6 28/27/24 31/26/23
f 28/27/24 27/168/83 32/28/25
f 32/28/25 27/168/83 25/14/14
f 18/3/3 20/31/28 23/30/27
f 20/31/28 19/169/84 24/32/29
f 24/32/29 19/169/84 17/5/5
f 2/34/12 9/170/11 10/171/15
f 9/170/11 11/172/82 10/171/15
f 11/172/82 12/173/21 10/171/15
f 10/171/15 25/174/14 26/6/6
f 25/174/14 27/175/83 26/6/6
f 27/175/83 28/176/24 26/6/6
f 26/6/6 17/5/5 18/33/3
f 17/5/5 19/177/84 18/33/3
f 19/177/84 20/178/28 18/33/3
f 18/33/3 1/179/2 2/34/12
f 1/179/2 3/180/17 2/34/12
f 3/180/17 4/181/18 2/34/12
f 2/34/12 10/171/15 26/6/6
