# Blender v3.4.1 OBJ File: 'environment.blend'
# www.blender.org
o NPC_Icosphere.005
v 0.000000 0.819032 0.000000
v 0.202036 0.973372 0.146786
v -0.077169 0.973372 0.237506
v -0.249729 0.973373 0.000000
v -0.077169 0.973372 -0.237506
v 0.202036 0.973372 -0.146786
v 0.077169 1.223105 0.237506
v -0.202036 1.223105 0.146786
v -0.202036 1.223105 -0.146786
v 0.077169 1.223105 -0.237506
v 0.249729 1.223104 0.000000
v 0.000000 1.377444 0.000000
v -0.045359 0.860731 0.139602
v 0.118753 0.860731 0.086278
v 0.073395 0.951449 0.225881
v 0.237506 0.951450 0.000000
v 0.118753 0.860731 -0.086278
v -0.146787 0.860731 0.000000
v -0.192147 0.951450 0.139602
v -0.045359 0.860731 -0.139602
v -0.192147 0.951450 -0.139602
v 0.073395 0.951449 -0.225881
v 0.265541 1.098238 0.086278
v 0.265541 1.098238 -0.086278
v 0.000000 1.098238 0.279206
v 0.164113 1.098238 0.225882
v -0.265541 1.098238 0.086278
v -0.164113 1.098238 0.225882
v -0.164113 1.098238 -0.225882
v -0.265541 1.098238 -0.086278
v 0.164113 1.098238 -0.225882
v 0.000000 1.098238 -0.279206
v 0.192147 1.245027 0.139602
v -0.073395 1.245027 0.225881
v -0.237506 1.245027 0.000000
v -0.073395 1.245027 -0.225881
v 0.192147 1.245027 -0.139602
v 0.045359 1.335746 0.139602
v 0.146787 1.335745 0.000000
v -0.118753 1.335746 0.086278
v -0.118753 1.335746 -0.086278
v 0.045359 1.335746 -0.139602
v -0.239033 0.749215 0.068149
v -0.585140 0.078943 -0.068149
v -0.585140 0.078943 0.068149
v -0.239033 0.749215 -0.068149
v -0.464036 0.016408 -0.068149
v -0.117929 0.686681 -0.068149
v -0.464036 0.016408 0.068149
v -0.117929 0.686681 0.068149
v 0.250000 0.872584 0.250000
v -0.250000 0.872584 -0.250000
v -0.250000 0.872584 0.250000
v 0.267834 -0.016029 -0.267834
v -0.267834 -0.016029 -0.267834
v 0.250000 0.872584 -0.250000
v 0.267834 -0.016029 0.267834
v -0.267834 -0.016029 0.267834
v 0.234828 0.105353 -0.105353
v 0.234828 -0.814921 0.105353
v 0.234828 -0.814921 -0.105353
v 0.234828 0.105353 0.105353
v 0.024123 -0.814921 0.105353
v 0.024123 0.105353 0.105353
v 0.024123 -0.814921 -0.105353
v 0.024123 0.105353 -0.105353
v -0.026642 0.105353 -0.105353
v -0.026642 -0.814921 0.105353
v -0.026642 -0.814921 -0.105353
v -0.237347 0.105353 0.105353
v -0.237348 -0.814921 0.105353
v -0.237348 -0.814921 -0.105353
v -0.237348 0.105353 -0.105353
v -0.026642 0.105353 0.105353
v 0.236965 0.749215 -0.068149
v 0.583072 0.078943 0.068149
v 0.583072 0.078943 -0.068149
v 0.236965 0.749215 0.068149
v 0.461967 0.016408 0.068149
v 0.115860 0.686681 -0.068149
v 0.461967 0.016408 -0.068149
v 0.115860 0.686681 0.068149
vt 0.181819 0.000000
vt 0.227273 0.078731
vt 0.136365 0.078731
vt 0.272728 0.157461
vt 0.318182 0.078731
vt 0.363637 0.157461
vt 0.909091 0.000000
vt 0.954545 0.078731
vt 0.863636 0.078731
vt 0.727273 0.000000
vt 0.772727 0.078731
vt 0.681818 0.078731
vt 0.545455 0.000000
vt 0.590909 0.078731
vt 0.500000 0.078731
vt 0.318182 0.236191
vt 0.090910 0.157461
vt 0.181819 0.157461
vt 0.136365 0.236191
vt 0.818182 0.157461
vt 0.909091 0.157461
vt 0.863636 0.236191
vt 0.636364 0.157461
vt 0.727273 0.157461
vt 0.681818 0.236191
vt 0.454546 0.157461
vt 0.545455 0.157461
vt 0.500000 0.236191
vt 0.227273 0.236191
vt 0.045455 0.236191
vt 0.772727 0.236191
vt 0.590909 0.236191
vt 0.409092 0.236191
vt 0.181819 0.314921
vt 0.272728 0.314921
vt 0.227273 0.393651
vt 0.000000 0.314921
vt 0.090910 0.314921
vt 0.045455 0.393651
vt 0.727273 0.314921
vt 0.818182 0.314921
vt 0.772727 0.393651
vt 0.545455 0.314921
vt 0.636364 0.314921
vt 0.590909 0.393651
vt 0.363637 0.314921
vt 0.454546 0.314921
vt 0.409092 0.393651
vt 0.500000 0.393651
vt 0.454546 0.472382
vt 0.681818 0.393651
vt 0.636364 0.472382
vt 0.863636 0.393651
vt 0.818182 0.472382
vt 0.909091 0.314921
vt 0.136365 0.393651
vt 0.090910 0.472382
vt 0.318182 0.393651
vt 0.272728 0.472382
vt 0.954545 0.236191
vt 1.000000 0.157461
vt 0.409092 0.078731
vt 0.363637 0.000000
vt 0.625000 0.000000
vt 0.375000 0.250000
vt 0.375000 0.000000
vt 0.625000 0.250000
vt 0.375000 0.500000
vt 0.625000 0.500000
vt 0.375000 0.750000
vt 0.625000 0.750000
vt 0.375000 1.000000
vt 0.125000 0.750000
vt 0.125000 0.500000
vt 0.875000 0.500000
vt 0.875000 0.500000
vt 0.625000 0.750000
vt 0.625000 0.500000
vt 0.375000 1.000000
vt 0.375000 0.750000
vt 0.625000 0.000000
vt 0.375000 0.250000
vt 0.375000 0.000000
vt 0.125000 0.500000
vt 0.125000 0.750000
vt 0.375000 0.500000
vt 0.625000 0.000000
vt 0.375000 0.250000
vt 0.375000 0.000000
vt 0.625000 0.250000
vt 0.375000 0.500000
vt 0.625000 0.500000
vt 0.375000 0.750000
vt 0.625000 1.000000
vt 0.375000 1.000000
vt 0.125000 0.750000
vt 0.125000 0.500000
vt 0.875000 0.500000
vt 0.625000 0.750000
vt 0.625000 0.000000
vt 0.375000 0.250000
vt 0.375000 0.000000
vt 0.625000 0.500000
vt 0.375000 0.500000
vt 0.375000 0.750000
vt 0.625000 0.750000
vt 0.375000 1.000000
vt 0.125000 0.750000
vt 0.125000 0.500000
vt 0.875000 0.500000
vt 0.625000 0.000000
vt 0.375000 0.250000
vt 0.375000 0.000000
vt 0.625000 0.250000
vt 0.375000 0.500000
vt 0.625000 0.750000
vt 0.375000 0.750000
vt 0.625000 1.000000
vt 0.375000 1.000000
vt 0.125000 0.750000
vt 0.125000 0.500000
vt 0.625000 0.500000
vt 0.875000 0.750000
vt 0.625000 1.000000
vt 0.875000 0.750000
vt 0.875000 0.750000
vt 0.625000 1.000000
vt 0.625000 0.250000
vt 0.875000 0.750000
vt 0.625000 0.250000
vt 0.625000 1.000000
vt 0.875000 0.750000
vt 0.875000 0.500000
vn -0.0000 -1.0000 0.0000
vn 0.4253 -0.8507 0.3090
vn -0.1625 -0.8507 0.5000
vn 0.7236 -0.4472 0.5257
vn 0.8506 -0.5257 -0.0000
vn -0.5257 -0.8507 -0.0000
vn -0.1625 -0.8507 -0.5000
vn 0.4253 -0.8507 -0.3090
vn 0.9511 -0.0000 0.3090
vn -0.2764 -0.4472 0.8506
vn 0.2629 -0.5257 0.8090
vn 0.0000 0.0000 1.0000
vn -0.8944 -0.4472 0.0000
vn -0.6882 -0.5257 0.5000
vn -0.9511 0.0000 0.3090
vn -0.2764 -0.4472 -0.8506
vn -0.6882 -0.5257 -0.5000
vn -0.5878 -0.0000 -0.8090
vn 0.7236 -0.4472 -0.5257
vn 0.2629 -0.5257 -0.8090
vn 0.5878 0.0000 -0.8090
vn 0.5878 0.0000 0.8090
vn -0.5878 -0.0000 0.8090
vn -0.9511 0.0000 -0.3090
vn 0.0000 0.0000 -1.0000
vn 0.9511 -0.0000 -0.3090
vn 0.2764 0.4472 0.8506
vn 0.6882 0.5257 0.5000
vn 0.1625 0.8507 0.5000
vn -0.7236 0.4472 0.5257
vn -0.2629 0.5257 0.8090
vn -0.4253 0.8507 0.3090
vn -0.7236 0.4472 -0.5257
vn -0.8506 0.5257 0.0000
vn -0.4253 0.8507 -0.3090
vn 0.2764 0.4472 -0.8506
vn -0.2629 0.5257 -0.8090
vn 0.1625 0.8507 -0.5000
vn 0.8944 0.4472 -0.0000
vn 0.6882 0.5257 -0.5000
vn 0.5257 0.8507 -0.0000
vn 0.0000 1.0000 -0.0000
vn -0.8885 0.4588 0.0000
vn 0.8885 -0.4588 0.0000
vn -0.4588 -0.8885 0.0000
vn 0.4588 0.8885 0.0000
vn 0.0000 0.0201 -0.9998
vn 0.9998 0.0201 0.0000
vn -0.9998 0.0201 0.0000
vn 0.0000 0.0201 0.9998
vn 1.0000 -0.0000 0.0000
vn -1.0000 -0.0000 0.0000
vn 0.8885 0.4588 0.0000
vn -0.8885 -0.4588 0.0000
vn 0.4588 -0.8885 0.0000
vn -0.4588 0.8885 0.0000
s 1
f 1/1/1 14/2/2 13/3/3
f 2/4/4 14/5/2 16/6/5
f 1/7/1 13/8/3 18/9/6
f 1/10/1 18/11/6 20/12/7
f 1/13/1 20/14/7 17/15/8
f 2/4/4 16/6/5 23/16/9
f 3/17/10 15/18/11 25/19/12
f 4/20/13 19/21/14 27/22/15
f 5/23/16 21/24/17 29/25/18
f 6/26/19 22/27/20 31/28/21
f 2/4/4 23/16/9 26/29/22
f 3/17/10 25/19/12 28/30/23
f 4/20/13 27/22/15 30/31/24
f 5/23/16 29/25/18 32/32/25
f 6/26/19 31/28/21 24/33/26
f 7/34/27 33/35/28 38/36/29
f 8/37/30 34/38/31 40/39/32
f 9/40/33 35/41/34 41/42/35
f 10/43/36 36/44/37 42/45/38
f 11/46/39 37/47/40 39/48/41
f 39/48/41 42/49/38 12/50/42
f 39/48/41 37/47/40 42/49/38
f 37/47/40 10/43/36 42/49/38
f 42/45/38 41/51/35 12/52/42
f 42/45/38 36/44/37 41/51/35
f 36/44/37 9/40/33 41/51/35
f 41/42/35 40/53/32 12/54/42
f 41/42/35 35/41/34 40/53/32
f 35/41/34 8/55/30 40/53/32
f 40/39/32 38/56/29 12/57/42
f 40/39/32 34/38/31 38/56/29
f 34/38/31 7/34/27 38/56/29
f 38/36/29 39/58/41 12/59/42
f 38/36/29 33/35/28 39/58/41
f 33/35/28 11/46/39 39/58/41
f 24/33/26 37/47/40 11/46/39
f 24/33/26 31/28/21 37/47/40
f 31/28/21 10/43/36 37/47/40
f 32/32/25 36/44/37 10/43/36
f 32/32/25 29/25/18 36/44/37
f 29/25/18 9/40/33 36/44/37
f 30/31/24 35/41/34 9/40/33
f 30/31/24 27/22/15 35/41/34
f 27/22/15 8/55/30 35/41/34
f 28/30/23 34/38/31 8/37/30
f 28/30/23 25/19/12 34/38/31
f 25/19/12 7/34/27 34/38/31
f 26/29/22 33/35/28 7/34/27
f 26/29/22 23/16/9 33/35/28
f 23/16/9 11/46/39 33/35/28
f 31/28/21 32/32/25 10/43/36
f 31/28/21 22/27/20 32/32/25
f 22/27/20 5/23/16 32/32/25
f 29/25/18 30/31/24 9/40/33
f 29/25/18 21/24/17 30/31/24
f 21/24/17 4/20/13 30/31/24
f 27/22/15 28/60/23 8/55/30
f 27/22/15 19/21/14 28/60/23
f 19/21/14 3/61/10 28/60/23
f 25/19/12 26/29/22 7/34/27
f 25/19/12 15/18/11 26/29/22
f 15/18/11 2/4/4 26/29/22
f 23/16/9 24/33/26 11/46/39
f 23/16/9 16/6/5 24/33/26
f 16/6/5 6/26/19 24/33/26
f 17/15/8 22/27/20 6/26/19
f 17/15/8 20/14/7 22/27/20
f 20/14/7 5/23/16 22/27/20
f 20/12/7 21/24/17 5/23/16
f 20/12/7 18/11/6 21/24/17
f 18/11/6 4/20/13 21/24/17
f 18/9/6 19/21/14 4/20/13
f 18/9/6 13/8/3 19/21/14
f 13/8/3 3/61/10 19/21/14
f 16/6/5 17/62/8 6/26/19
f 16/6/5 14/5/2 17/62/8
f 14/5/2 1/63/1 17/62/8
f 13/3/3 15/18/11 3/17/10
f 13/3/3 14/2/2 15/18/11
f 14/2/2 2/4/4 15/18/11
f 43/64/43 44/65/43 45/66/43
f 46/67/25 47/68/25 44/65/25
f 48/69/44 49/70/44 47/68/44
f 50/71/12 45/72/12 49/70/12
f 47/68/45 45/73/45 44/74/45
f 46/75/46 50/71/46 48/69/46
f 51/76/42 52/77/42 53/78/42
f 52/77/47 54/79/47 55/80/47
f 56/81/48 57/82/48 54/83/48
f 57/84/1 55/80/1 54/85/1
f 53/78/49 55/80/49 58/86/49
f 57/82/50 53/78/50 58/86/50
f 59/87/51 60/88/51 61/89/51
f 62/90/12 63/91/12 60/88/12
f 64/92/52 65/93/52 63/91/52
f 65/93/25 59/94/25 61/95/25
f 63/91/1 61/96/1 60/97/1
f 62/98/42 66/99/42 64/92/42
f 67/100/51 68/101/51 69/102/51
f 68/101/12 70/103/12 71/104/12
f 70/103/52 72/105/52 71/104/52
f 73/106/25 69/107/25 72/105/25
f 71/104/1 69/108/1 68/109/1
f 74/110/42 73/106/42 70/103/42
f 75/111/53 76/112/53 77/113/53
f 78/114/12 79/115/12 76/112/12
f 79/115/54 80/116/54 81/117/54
f 81/117/25 75/118/25 77/119/25
f 79/115/55 77/120/55 76/121/55
f 82/122/56 75/123/56 80/116/56
f 43/64/43 46/67/43 44/65/43
f 46/67/25 48/69/25 47/68/25
f 48/69/44 50/71/44 49/70/44
f 50/71/12 43/124/12 45/72/12
f 47/68/45 49/70/45 45/73/45
f 46/75/46 43/125/46 50/71/46
f 51/76/42 56/126/42 52/77/42
f 52/77/47 56/127/47 54/79/47
f 56/81/48 51/128/48 57/82/48
f 57/84/1 58/86/1 55/80/1
f 53/78/49 52/77/49 55/80/49
f 57/82/50 51/128/50 53/78/50
f 59/87/51 62/90/51 60/88/51
f 62/90/12 64/92/12 63/91/12
f 64/92/52 66/99/52 65/93/52
f 65/93/25 66/99/25 59/94/25
f 63/91/1 65/93/1 61/96/1
f 62/98/42 59/129/42 66/99/42
f 67/100/51 74/130/51 68/101/51
f 68/101/12 74/130/12 70/103/12
f 70/103/52 73/106/52 72/105/52
f 73/106/25 67/131/25 69/107/25
f 71/104/1 72/105/1 69/108/1
f 74/110/42 67/132/42 73/106/42
f 75/111/53 78/114/53 76/112/53
f 78/114/12 82/122/12 79/115/12
f 79/115/54 82/122/54 80/116/54
f 81/117/25 80/116/25 75/118/25
f 79/115/55 81/117/55 77/120/55
f 82/122/56 78/133/56 75/123/56
