# Blender v3.4.1 OBJ File: ''
# www.blender.org
o Cube.005_Cube.006
v -0.585140 0.249454 0.068149
v -0.239033 0.919726 0.068149
v -0.585140 0.249454 -0.068149
v -0.239033 0.919726 -0.068149
v -0.464036 0.186919 0.068149
v -0.117929 0.857192 0.068149
v -0.464036 0.186919 -0.068149
v -0.117929 0.857192 -0.068149
v -0.250000 1.000000 0.250000
v -0.267834 -0.016029 0.267834
v -0.250000 1.000000 -0.250000
v -0.267834 -0.016029 -0.267834
v 0.250000 1.000000 0.250000
v 0.267834 -0.016029 0.267834
v 0.250000 1.000000 -0.250000
v 0.267834 -0.016029 -0.267834
v 0.191161 0.985930 -0.191161
v 0.191161 1.368252 -0.191161
v 0.191161 0.985930 0.191161
v 0.191161 1.368252 0.191161
v -0.191161 0.985930 -0.191161
v -0.191161 1.368252 -0.191161
v -0.191161 0.985930 0.191161
v -0.191161 1.368252 0.191161
v 0.234828 -0.814921 -0.105353
v 0.234828 0.105353 -0.105353
v 0.234828 -0.814921 0.105353
v 0.234828 0.105353 0.105353
v 0.024123 -0.814921 -0.105353
v 0.024123 0.105353 -0.105353
v 0.024123 -0.814921 0.105353
v 0.024123 0.105353 0.105353
v -0.026642 -0.814921 -0.105353
v -0.026642 0.105353 -0.105353
v -0.026642 -0.814921 0.105353
v -0.026642 0.105353 0.105353
v -0.237348 -0.814921 -0.105353
v -0.237348 0.105353 -0.105353
v -0.237348 -0.814921 0.105353
v -0.237347 0.105353 0.105353
v 0.583072 0.249454 -0.068149
v 0.236965 0.919726 -0.068149
v 0.583072 0.249454 0.068149
v 0.236965 0.919726 0.068149
v 0.461967 0.186919 -0.068149
v 0.115860 0.857192 -0.068149
v 0.461967 0.186919 0.068149
v 0.115860 0.857192 0.068149
vt 0.625000 0.000000
vt 0.375000 0.250000
vt 0.375000 0.000000
vt 0.625000 0.250000
vt 0.375000 0.500000
vt 0.625000 0.500000
vt 0.375000 0.750000
vt 0.625000 0.750000
vt 0.375000 1.000000
vt 0.125000 0.750000
vt 0.125000 0.500000
vt 0.875000 0.500000
vt 0.875000 0.500000
vt 0.625000 0.750000
vt 0.625000 0.500000
vt 0.375000 1.000000
vt 0.375000 0.750000
vt 0.625000 0.000000
vt 0.375000 0.250000
vt 0.375000 0.000000
vt 0.125000 0.500000
vt 0.125000 0.750000
vt 0.375000 0.500000
vt 0.625000 0.000000
vt 0.375000 0.250000
vt 0.375000 0.000000
vt 0.625000 0.500000
vt 0.375000 0.500000
vt 0.625000 0.750000
vt 0.375000 0.750000
vt 0.625000 1.000000
vt 0.375000 1.000000
vt 0.125000 0.750000
vt 0.125000 0.500000
vt 0.875000 0.500000
vt 0.625000 0.000000
vt 0.375000 0.250000
vt 0.375000 0.000000
vt 0.625000 0.250000
vt 0.375000 0.500000
vt 0.625000 0.500000
vt 0.375000 0.750000
vt 0.625000 1.000000
vt 0.375000 1.000000
vt 0.125000 0.750000
vt 0.125000 0.500000
vt 0.875000 0.500000
vt 0.625000 0.750000
vt 0.625000 0.000000
vt 0.375000 0.250000
vt 0.375000 0.000000
vt 0.625000 0.500000
vt 0.375000 0.500000
vt 0.375000 0.750000
vt 0.625000 0.750000
vt 0.375000 1.000000
vt 0.125000 0.750000
vt 0.125000 0.500000
vt 0.875000 0.500000
vt 0.625000 0.000000
vt 0.375000 0.250000
vt 0.375000 0.000000
vt 0.625000 0.250000
vt 0.375000 0.500000
vt 0.625000 0.750000
vt 0.375000 0.750000
vt 0.625000 1.000000
vt 0.375000 1.000000
vt 0.125000 0.750000
vt 0.125000 0.500000
vt 0.625000 0.500000
vt 0.875000 0.750000
vt 0.625000 1.000000
vt 0.875000 0.750000
vt 0.875000 0.750000
vt 0.625000 1.000000
vt 0.625000 0.250000
vt 0.625000 0.250000
vt 0.875000 0.750000
vt 0.875000 0.750000
vt 0.625000 0.250000
vt 0.625000 1.000000
vt 0.875000 0.750000
vt 0.875000 0.500000
vn -0.8885 0.4588 0.0000
vn 0.0000 0.0000 -1.0000
vn 0.8885 -0.4588 0.0000
vn -0.0000 -0.0000 1.0000
vn -0.4588 -0.8885 0.0000
vn 0.4588 0.8885 0.0000
vn 0.0000 1.0000 -0.0000
vn -0.0000 0.0175 -0.9998
vn 0.9998 0.0175 0.0000
vn -0.0000 -1.0000 -0.0000
vn -0.9998 0.0175 -0.0000
vn 0.0000 0.0175 0.9998
vn 1.0000 0.0000 -0.0000
vn -1.0000 0.0000 0.0000
vn 0.8885 0.4588 0.0000
vn -0.8885 -0.4588 0.0000
vn 0.4588 -0.8885 0.0000
vn -0.4588 0.8885 0.0000
s off
f 2/1/1 3/2/1 1/3/1
f 4/4/2 7/5/2 3/2/2
f 8/6/3 5/7/3 7/5/3
f 6/8/4 1/9/4 5/7/4
f 7/5/5 1/10/5 3/11/5
f 4/12/6 6/8/6 8/6/6
f 13/13/7 11/14/7 9/15/7
f 11/14/8 16/16/8 12/17/8
f 15/18/9 14/19/9 16/20/9
f 14/21/10 12/17/10 16/22/10
f 9/15/11 12/17/11 10/23/11
f 14/19/12 9/15/12 10/23/12
f 18/24/13 19/25/13 17/26/13
f 19/25/4 24/27/4 23/28/4
f 23/28/14 22/29/14 21/30/14
f 21/30/2 18/31/2 17/32/2
f 23/28/10 17/33/10 19/34/10
f 20/35/7 22/29/7 24/27/7
f 26/36/13 27/37/13 25/38/13
f 28/39/4 31/40/4 27/37/4
f 32/41/14 29/42/14 31/40/14
f 29/42/2 26/43/2 25/44/2
f 31/40/10 25/45/10 27/46/10
f 28/47/7 30/48/7 32/41/7
f 34/49/13 35/50/13 33/51/13
f 35/50/4 40/52/4 39/53/4
f 40/52/14 37/54/14 39/53/14
f 38/55/2 33/56/2 37/54/2
f 39/53/10 33/57/10 35/58/10
f 36/59/7 38/55/7 40/52/7
f 42/60/15 43/61/15 41/62/15
f 44/63/4 47/64/4 43/61/4
f 47/64/16 46/65/16 45/66/16
f 45/66/2 42/67/2 41/68/2
f 47/64/17 41/69/17 43/70/17
f 48/71/18 42/72/18 46/65/18
f 2/1/1 4/4/1 3/2/1
f 4/4/2 8/6/2 7/5/2
f 8/6/3 6/8/3 5/7/3
f 6/8/4 2/73/4 1/9/4
f 7/5/5 5/7/5 1/10/5
f 4/12/6 2/74/6 6/8/6
f 13/13/7 15/75/7 11/14/7
f 11/14/8 15/76/8 16/16/8
f 15/18/9 13/77/9 14/19/9
f 14/21/10 10/23/10 12/17/10
f 9/15/11 11/14/11 12/17/11
f 14/19/12 13/77/12 9/15/12
f 18/24/13 20/78/13 19/25/13
f 19/25/4 20/78/4 24/27/4
f 23/28/14 24/27/14 22/29/14
f 21/30/2 22/29/2 18/31/2
f 23/28/10 21/30/10 17/33/10
f 20/35/7 18/79/7 22/29/7
f 26/36/13 28/39/13 27/37/13
f 28/39/4 32/41/4 31/40/4
f 32/41/14 30/48/14 29/42/14
f 29/42/2 30/48/2 26/43/2
f 31/40/10 29/42/10 25/45/10
f 28/47/7 26/80/7 30/48/7
f 34/49/13 36/81/13 35/50/13
f 35/50/4 36/81/4 40/52/4
f 40/52/14 38/55/14 37/54/14
f 38/55/2 34/82/2 33/56/2
f 39/53/10 37/54/10 33/57/10
f 36/59/7 34/83/7 38/55/7
f 42/60/15 44/63/15 43/61/15
f 44/63/4 48/71/4 47/64/4
f 47/64/16 48/71/16 46/65/16
f 45/66/2 46/65/2 42/67/2
f 47/64/17 45/66/17 41/69/17
f 48/71/18 44/84/18 42/72/18
