# Blender v3.4.1 OBJ File: 'bush.blend'
# www.blender.org
o Plane
v -0.384620 -0.122186 0.719860
v 0.384620 -0.035192 0.719860
v -0.384620 -0.122268 -0.719860
v 0.384620 -0.122268 -0.719860
v -0.520748 -0.062219 -0.324880
v -0.520748 -0.062219 0.324880
v -0.173583 -0.062219 0.974640
v 0.173583 -0.062219 0.974640
v 0.520748 -0.062219 0.324880
v 0.520748 -0.062219 -0.324880
v 0.173583 -0.062219 -0.974640
v -0.173583 -0.062219 -0.974640
v -0.173583 0.024775 0.324880
v -0.173583 0.024775 -0.324880
v 0.173583 0.024775 0.324880
v 0.173583 0.024775 -0.324880
v -0.384620 -0.144012 0.719860
v 0.384620 -0.057017 0.719860
v -0.384620 -0.144094 -0.719860
v 0.384620 -0.144094 -0.719860
v -0.520748 -0.084045 -0.324880
v -0.520748 -0.084045 0.324880
v -0.173583 -0.084045 0.974640
v 0.173583 -0.084045 0.974640
v 0.520748 -0.084045 0.324880
v 0.520748 -0.084045 -0.324880
v 0.173583 -0.084045 -0.974640
v -0.173583 -0.084045 -0.974640
v -0.173583 0.002950 0.324880
v -0.173583 0.002950 -0.324880
v 0.173583 0.002950 0.324880
v 0.173583 0.002950 -0.324880
vt 0.666667 0.666667
vt 1.000000 1.000000
vt 0.666667 1.000000
vt 0.333333 0.666667
vt 0.000000 1.000000
vt 0.000000 0.666667
vt 0.333333 1.000000
vt 0.000000 0.000000
vt 0.333333 0.333333
vt 0.000000 0.333333
vt 0.666667 0.000000
vt 0.333333 0.000000
vt 0.666667 0.333333
vt 1.000000 0.000000
vt 1.000000 0.333333
vt 0.666667 0.666667
vt 1.000000 1.000000
vt 1.000000 0.666667
vt 0.000000 1.000000
vt 0.333333 0.666667
vt 0.000000 0.666667
vt 0.333333 1.000000
vt 0.000000 0.000000
vt 0.333333 0.333333
vt 0.333333 0.000000
vt 0.000000 0.333333
vt 0.666667 0.000000
vt 0.666667 0.333333
vt 1.000000 0.000000
vt 1.000000 0.333333
vt 1.000000 0.666667
vt 0.666667 1.000000
vn 0.1351 0.9875 -0.0816
vn 0.3551 0.9221 -0.1536
vn 0.1340 0.9822 -0.1315
vn -0.1351 0.9875 -0.0816
vn -0.3551 0.9221 -0.1536
vn -0.2418 0.9649 -0.1022
vn -0.1340 0.9822 -0.1315
vn -0.3548 0.9222 0.1535
vn -0.1351 0.9875 0.0816
vn -0.2418 0.9649 0.1021
vn 0.0101 0.9911 0.1327
vn -0.1339 0.9822 0.1315
vn 0.1058 0.9933 0.0470
vn 0.0969 0.9904 0.0986
vn 0.2431 0.9700 0.0077
vn -0.1351 -0.9875 0.0816
vn -0.3551 -0.9221 0.1536
vn -0.2418 -0.9649 0.1022
vn 0.3551 -0.9221 0.1536
vn 0.1351 -0.9875 0.0816
vn 0.2418 -0.9649 0.1022
vn 0.1340 -0.9822 0.1315
vn 0.3548 -0.9222 -0.1535
vn 0.1351 -0.9875 -0.0816
vn 0.1339 -0.9822 -0.1315
vn 0.2418 -0.9649 -0.1021
vn -0.0101 -0.9911 -0.1327
vn -0.1058 -0.9933 -0.0470
vn -0.0969 -0.9904 -0.0986
vn -0.2431 -0.9700 -0.0077
vn 0.2418 0.9649 -0.1022
vn -0.1340 -0.9822 0.1315
s 1
f 16/1/1 4/2/2 11/3/3
f 14/4/4 3/5/5 5/6/6
f 16/1/1 12/7/7 14/4/4
f 1/8/8 13/9/9 6/10/10
f 13/9/9 5/6/6 6/10/10
f 8/11/11 13/9/9 7/12/12
f 15/13/13 14/4/4 13/9/9
f 2/14/14 15/13/13 8/11/11
f 9/15/15 16/1/1 15/13/13
f 32/16/16 20/17/17 26/18/18
f 19/19/19 30/20/20 21/21/21
f 28/22/22 32/16/16 30/20/20
f 17/23/23 29/24/24 23/25/25
f 21/21/21 29/24/24 22/26/26
f 29/24/24 24/27/27 23/25/25
f 30/20/20 31/28/28 29/24/24
f 31/28/28 18/29/29 24/27/27
f 32/16/16 25/30/30 31/28/28
f 16/1/1 10/31/31 4/2/2
f 14/4/4 12/7/7 3/5/5
f 16/1/1 11/3/3 12/7/7
f 1/8/8 7/12/12 13/9/9
f 13/9/9 14/4/4 5/6/6
f 8/11/11 15/13/13 13/9/9
f 15/13/13 16/1/1 14/4/4
f 2/14/14 9/15/15 15/13/13
f 9/15/15 10/31/31 16/1/1
f 32/16/16 27/32/32 20/17/17
f 19/19/19 28/22/22 30/20/20
f 28/22/22 27/32/32 32/16/16
f 17/23/23 22/26/26 29/24/24
f 21/21/21 30/20/20 29/24/24
f 29/24/24 31/28/28 24/27/27
f 30/20/20 32/16/16 31/28/28
f 31/28/28 25/30/30 18/29/29
f 32/16/16 26/18/18 25/30/30
