# Blender v3.4.1 OBJ File: ''
# www.blender.org
o Torus.002
v 0.000000 0.666410 -0.278997
v 0.160697 0.610784 -0.297071
v 0.246202 0.469933 -0.342836
v 0.216506 0.309764 -0.394878
v 0.085505 0.205220 -0.428846
v -0.085505 0.205220 -0.428846
v -0.216506 0.309764 -0.394878
v -0.246202 0.469933 -0.342836
v -0.160697 0.610784 -0.297071
v 0.000000 0.488860 0.069464
v 0.160697 0.441542 0.035085
v 0.246202 0.321727 -0.051966
v 0.216506 0.185479 -0.150956
v 0.085505 0.096549 -0.215567
v -0.085505 0.096549 -0.215567
v -0.216506 0.185479 -0.150956
v -0.246202 0.321727 -0.051966
v -0.160697 0.441542 0.035085
v 0.000000 0.212320 0.346003
v 0.160697 0.177942 0.298685
v 0.246202 0.090891 0.178870
v 0.216506 -0.008099 0.042622
v 0.085505 -0.072710 -0.046308
v -0.085505 -0.072710 -0.046308
v -0.216506 -0.008099 0.042622
v -0.246202 0.090891 0.178870
v -0.160697 0.177942 0.298685
v 0.000000 -0.136140 0.523553
v 0.160697 -0.154214 0.467926
v 0.246202 -0.199979 0.327076
v 0.216506 -0.252021 0.166906
v 0.085505 -0.285989 0.062363
v -0.085505 -0.285989 0.062363
v -0.216506 -0.252021 0.166906
v -0.246202 -0.199979 0.327076
v -0.160697 -0.154214 0.467926
v 0.000000 -0.522411 0.584732
v 0.160697 -0.522411 0.526243
v 0.246202 -0.522411 0.378144
v 0.216506 -0.522411 0.209732
v 0.085505 -0.522411 0.099809
v -0.085505 -0.522411 0.099809
v -0.216506 -0.522411 0.209732
v -0.246202 -0.522411 0.378144
v -0.160697 -0.522411 0.526243
v -0.000000 0.727589 -0.665268
v 0.160697 0.669100 -0.665268
v 0.246202 0.521001 -0.665268
v 0.216506 0.352589 -0.665268
v 0.085505 0.242666 -0.665268
v -0.085505 0.242666 -0.665268
v -0.216506 0.352589 -0.665268
v -0.246202 0.521001 -0.665268
v -0.160697 0.669100 -0.665268
v 0.000000 -0.522411 0.584732
v 0.160697 -0.522411 0.526243
v 0.246202 -0.522411 0.378144
v 0.216506 -0.522411 0.209732
v 0.085505 -0.522411 0.099809
v -0.085505 -0.522411 0.099809
v -0.216506 -0.522411 0.209732
v -0.246202 -0.522411 0.378144
v -0.160697 -0.522411 0.526243
v -0.000000 0.727589 -0.667022
v 0.160697 0.669100 -0.667022
v 0.246202 0.521001 -0.667022
v 0.216506 0.352589 -0.667022
v 0.085505 0.242666 -0.667022
v -0.085505 0.242666 -0.667022
v -0.216506 0.352589 -0.667022
v -0.246202 0.521001 -0.667022
v -0.160697 0.669100 -0.667022
vt 0.533345 0.885011
vt 0.857508 0.966910
vt 0.577117 0.999663
vt 0.835266 0.856323
vt 0.999958 0.888872
vt 0.989272 0.789986
vt 0.942061 0.804704
vt 0.930631 0.720304
vt 0.720200 0.752944
vt 0.701425 0.678590
vt 0.437347 0.755032
vt 0.407185 0.680939
vt 0.216633 0.809750
vt 0.099215 0.796280
vt 0.158442 0.894154
vt 0.298363 0.970073
vt 0.809106 0.677082
vt 0.973453 0.635425
vt 0.682399 0.569155
vt 0.379896 0.571837
vt 0.171154 0.726101
vt 0.131457 0.600042
vt 0.047142 0.643125
vt 0.238273 0.860231
vt 0.183376 0.682081
vt 0.455212 0.457093
vt 0.490015 0.696292
vt 0.954522 0.444252
vt 0.915916 0.593253
vt 0.899855 0.438893
vt 0.665863 0.437618
vt 0.104187 0.446767
vt 0.011766 0.453536
vt 0.436127 0.209716
vt 0.783171 0.451548
vt 0.935566 0.247393
vt 0.884920 0.280372
vt 0.654361 0.302723
vt 0.359677 0.440656
vt 0.094143 0.289204
vt 0.000000 0.258086
vt 0.144269 0.457811
vt 0.129145 0.226041
vt 0.435867 0.000000
vt 0.762277 0.218648
vt 0.750052 0.020385
vt 0.919759 0.077910
vt 0.649497 0.184208
vt 0.349780 0.306076
vt 0.102575 0.151663
vt 0.013312 0.089505
vt 0.750052 0.020385
vt 0.919759 0.077910
vt 0.873393 0.142197
vt 0.873393 0.142197
vt 0.649497 0.184208
vt 0.351497 0.187774
vt 0.351497 0.187774
vt 0.102575 0.151663
vt 0.013312 0.089505
vt 0.140119 0.028480
vt 0.140119 0.028480
vt 0.435867 0.000000
vt 0.720329 0.753341
vt 0.216927 0.810132
vt 0.158762 0.894516
vt 0.577303 1.000000
vt 0.857598 0.967256
vt 0.437567 0.755428
vt 1.000000 0.889238
vt 0.942121 0.805090
vt 0.298642 0.970416
vn 0.0000 0.9511 0.3090
vn 0.6336 0.7713 0.0606
vn -0.0000 0.9970 0.0771
vn 0.6265 0.7413 0.2409
vn 0.9817 0.1900 0.0163
vn 0.9785 0.1963 0.0638
vn 0.8729 -0.4864 -0.0377
vn 0.8808 -0.4503 -0.1463
vn 0.3468 -0.9349 -0.0747
vn 0.3535 -0.8897 -0.2891
vn -0.3468 -0.9349 -0.0747
vn -0.3535 -0.8897 -0.2891
vn -0.8729 -0.4864 -0.0377
vn -0.9785 0.1963 0.0638
vn -0.9817 0.1900 0.0163
vn -0.6336 0.7713 0.0606
vn 0.6265 0.6306 0.4581
vn 0.9785 0.1670 0.1213
vn 0.3535 -0.7568 -0.5498
vn -0.3535 -0.7568 -0.5498
vn -0.8808 -0.4503 -0.1463
vn -0.8808 -0.3831 -0.2783
vn -0.9785 0.1670 0.1213
vn -0.6265 0.7413 0.2409
vn -0.6265 0.6306 0.4581
vn 0.0000 0.5878 0.8090
vn 0.0000 0.8090 0.5878
vn 0.9785 0.1213 0.1670
vn 0.8808 -0.3831 -0.2783
vn 0.8808 -0.2783 -0.3831
vn 0.3535 -0.5498 -0.7568
vn -0.8808 -0.2783 -0.3831
vn -0.9785 0.1213 0.1670
vn 0.0000 0.3090 0.9511
vn 0.6265 0.4581 0.6306
vn 0.9785 0.0638 0.1963
vn 0.8808 -0.1463 -0.4503
vn 0.3535 -0.2891 -0.8897
vn -0.3535 -0.5498 -0.7568
vn -0.8808 -0.1463 -0.4503
vn -0.9785 0.0638 0.1963
vn -0.6265 0.4581 0.6306
vn -0.6265 0.2409 0.7413
vn -0.0531 0.0770 0.9956
vn 0.6265 0.2409 0.7413
vn 0.6742 0.0609 0.7360
vn 0.9611 0.0163 0.2758
vn 0.3497 -0.1466 -0.9253
vn -0.3535 -0.2891 -0.8897
vn -0.9581 -0.0374 -0.2838
vn -0.9792 0.0159 0.2023
vn 0.5536 -0.6400 0.5328
vn 0.7234 -0.6378 0.2644
vn 0.8368 -0.0390 -0.5461
vn 0.5885 -0.6606 -0.4662
vn 0.0001 -1.0000 -0.0001
vn -0.2790 -0.0734 -0.9575
vn -0.1610 -0.6222 -0.7661
vn -0.7848 -0.6156 -0.0722
vn -0.7678 -0.6216 0.1553
vn -0.4042 -0.6338 0.6595
vn -0.5735 0.0604 0.8170
vn -0.0801 -0.6355 0.7679
vn 0.2635 -0.7239 -0.6376
vn -0.6671 -0.3852 -0.6376
vn -0.7586 0.1338 -0.6376
vn -0.0000 0.7703 -0.6376
vn 0.4952 0.5901 -0.6376
vn -0.2635 -0.7239 -0.6376
vn 0.7586 0.1338 -0.6376
vn 0.6672 -0.3852 -0.6376
vn -0.4952 0.5901 -0.6376
s 1
f 1/1/1 47/2/2 46/3/3
f 2/4/4 48/5/5 47/2/2
f 3/6/6 49/7/7 48/5/5
f 4/8/8 50/9/9 49/7/7
f 5/10/10 51/11/11 50/9/9
f 6/12/12 52/13/13 51/11/11
f 52/13/13 8/14/14 53/15/15
f 8/14/14 54/16/16 53/15/15
f 54/16/16 1/1/1 46/3/3
f 1/1/1 11/17/17 2/4/4
f 11/17/17 3/6/6 2/4/4
f 12/18/18 4/8/8 3/6/6
f 4/8/8 14/19/19 5/10/10
f 14/19/19 6/12/12 5/10/10
f 15/20/20 7/21/21 6/12/12
f 16/22/22 8/14/14 7/21/21
f 17/23/23 9/24/24 8/14/14
f 18/25/25 1/1/1 9/24/24
f 19/26/26 11/17/17 10/27/27
f 11/17/17 21/28/28 12/18/18
f 21/28/28 13/29/29 12/18/18
f 22/30/30 14/19/19 13/29/29
f 23/31/31 15/20/20 14/19/19
f 15/20/20 25/32/32 16/22/22
f 16/22/22 26/33/33 17/23/23
f 26/33/33 18/25/25 17/23/23
f 18/25/25 19/26/26 10/27/27
f 28/34/34 20/35/35 19/26/26
f 20/35/35 30/36/36 21/28/28
f 30/36/36 22/30/30 21/28/28
f 31/37/37 23/31/31 22/30/30
f 32/38/38 24/39/39 23/31/31
f 24/39/39 34/40/40 25/32/32
f 25/32/32 35/41/41 26/33/33
f 35/41/41 27/42/42 26/33/33
f 36/43/43 19/26/26 27/42/42
f 37/44/44 29/45/45 28/34/34
f 38/46/46 30/36/36 29/45/45
f 39/47/47 31/37/37 30/36/36
f 31/37/37 41/48/48 32/38/38
f 41/48/48 33/49/49 32/38/38
f 33/49/49 43/50/50 34/40/40
f 43/50/50 35/41/41 34/40/40
f 44/51/51 36/43/43 35/41/41
f 36/43/43 37/44/44 28/34/34
f 37/44/44 56/52/52 38/46/46
f 39/47/47 56/52/52 57/53/53
f 40/54/54 57/53/53 58/55/55
f 40/54/54 59/56/56 41/48/48
f 42/57/57 59/56/56 60/58/58
f 42/57/57 61/59/59 43/50/50
f 43/50/50 62/60/60 44/51/51
f 44/51/51 63/61/61 45/62/62
f 45/62/62 55/63/63 37/44/44
f 51/11/11 68/64/64 50/9/9
f 59/56/56 55/63/63 62/60/60
f 70/65/65 71/66/66 64/67/67
f 48/5/5 65/68/68 47/2/2
f 51/11/11 70/65/65 69/69/69
f 49/7/7 66/70/70 48/5/5
f 52/13/13 71/66/66 70/65/65
f 50/9/9 67/71/71 49/7/7
f 47/2/2 64/67/67 46/3/3
f 53/15/15 72/72/72 71/66/66
f 54/16/16 64/67/67 72/72/72
f 1/1/1 2/4/4 47/2/2
f 2/4/4 3/6/6 48/5/5
f 3/6/6 4/8/8 49/7/7
f 4/8/8 5/10/10 50/9/9
f 5/10/10 6/12/12 51/11/11
f 6/12/12 7/21/21 52/13/13
f 52/13/13 7/21/21 8/14/14
f 8/14/14 9/24/24 54/16/16
f 54/16/16 9/24/24 1/1/1
f 1/1/1 10/27/27 11/17/17
f 11/17/17 12/18/18 3/6/6
f 12/18/18 13/29/29 4/8/8
f 4/8/8 13/29/29 14/19/19
f 14/19/19 15/20/20 6/12/12
f 15/20/20 16/22/22 7/21/21
f 16/22/22 17/23/23 8/14/14
f 17/23/23 18/25/25 9/24/24
f 18/25/25 10/27/27 1/1/1
f 19/26/26 20/35/35 11/17/17
f 11/17/17 20/35/35 21/28/28
f 21/28/28 22/30/30 13/29/29
f 22/30/30 23/31/31 14/19/19
f 23/31/31 24/39/39 15/20/20
f 15/20/20 24/39/39 25/32/32
f 16/22/22 25/32/32 26/33/33
f 26/33/33 27/42/42 18/25/25
f 18/25/25 27/42/42 19/26/26
f 28/34/34 29/45/45 20/35/35
f 20/35/35 29/45/45 30/36/36
f 30/36/36 31/37/37 22/30/30
f 31/37/37 32/38/38 23/31/31
f 32/38/38 33/49/49 24/39/39
f 24/39/39 33/49/49 34/40/40
f 25/32/32 34/40/40 35/41/41
f 35/41/41 36/43/43 27/42/42
f 36/43/43 28/34/34 19/26/26
f 37/44/44 38/46/46 29/45/45
f 38/46/46 39/47/47 30/36/36
f 39/47/47 40/54/54 31/37/37
f 31/37/37 40/54/54 41/48/48
f 41/48/48 42/57/57 33/49/49
f 33/49/49 42/57/57 43/50/50
f 43/50/50 44/51/51 35/41/41
f 44/51/51 45/62/62 36/43/43
f 36/43/43 45/62/62 37/44/44
f 37/44/44 55/63/63 56/52/52
f 39/47/47 38/46/46 56/52/52
f 40/54/54 39/47/47 57/53/53
f 40/54/54 58/55/55 59/56/56
f 42/57/57 41/48/48 59/56/56
f 42/57/57 60/58/58 61/59/59
f 43/50/50 61/59/59 62/60/60
f 44/51/51 62/60/60 63/61/61
f 45/62/62 63/61/61 55/63/63
f 51/11/11 69/69/69 68/64/64
f 61/59/59 60/58/58 59/56/56
f 59/56/56 58/55/55 55/63/63
f 58/55/55 57/53/53 55/63/63
f 57/53/53 56/52/52 55/63/63
f 55/63/63 63/61/61 62/60/60
f 62/60/60 61/59/59 59/56/56
f 71/66/66 72/72/72 64/67/67
f 64/67/67 65/68/68 66/70/70
f 66/70/70 67/71/71 64/67/67
f 67/71/71 68/64/64 64/67/67
f 68/64/64 69/69/69 64/67/67
f 69/69/69 70/65/65 64/67/67
f 48/5/5 66/70/70 65/68/68
f 51/11/11 52/13/13 70/65/65
f 49/7/7 67/71/71 66/70/70
f 52/13/13 53/15/15 71/66/66
f 50/9/9 68/64/64 67/71/71
f 47/2/2 65/68/68 64/67/67
f 53/15/15 54/16/16 72/72/72
f 54/16/16 46/3/3 64/67/67
