# Blender v3.4.1 OBJ File: ''
# www.blender.org
o Cylinder
v 0.000000 1.000000 -0.300000
v 0.176336 -1.000000 -0.242705
v 0.000000 -1.000000 -0.300000
v 0.176336 1.000000 -0.242705
v 0.285317 -1.000000 -0.092705
v 0.285317 1.000000 -0.092705
v 0.285317 -1.000000 0.092705
v 0.285317 1.000000 0.092705
v 0.176336 -1.000000 0.242705
v 0.176336 1.000000 0.242705
v 0.000000 -1.000000 0.300000
v 0.000000 1.000000 0.300000
v -0.176336 -1.000000 0.242705
v -0.176336 1.000000 0.242705
v -0.285317 -1.000000 0.092705
v -0.285317 1.000000 0.092705
v -0.285317 -1.000000 -0.092705
v -0.285317 1.000000 -0.092705
v -0.176336 -1.000000 -0.242705
v -0.176336 1.000000 -0.242705
v -0.284293 0.997481 0.094471
v 0.286341 0.997481 0.094471
v 0.177359 0.997481 -0.240939
v 0.000000 -1.000000 0.298565
v -0.285317 -1.000000 0.091270
v -0.176336 -1.000000 -0.244140
v 0.001024 0.997481 -0.298234
v -0.175312 0.997481 -0.240939
v -0.284293 0.997481 -0.090939
v -0.175312 0.997481 0.244471
v 0.001024 0.997481 0.301766
v 0.177359 0.997481 0.244471
v 0.286341 0.997481 -0.090939
v 0.000000 -1.000000 -0.301435
v 0.176336 -1.000000 -0.244140
v 0.285317 -1.000000 -0.094140
v 0.285317 -1.000000 0.091270
v 0.176336 -1.000000 0.241270
v -0.176336 -1.000000 0.241270
v -0.285317 -1.000000 -0.094140
vt 1.227805 1.012593
vt 0.999175 0.041498
vt 1.059484 0.033648
vt 1.040215 1.020442
vt 0.939146 0.037728
vt 0.794048 1.016672
vt 0.878126 0.023777
vt 0.695154 1.002722
vt 0.813072 0.004975
vt 0.625618 0.983920
vt 0.732165 -0.011496
vt 0.562928 0.967448
vt 0.557152 -0.019346
vt 0.502092 0.959599
vt 0.292153 -0.015575
vt 0.441397 0.963369
vt 0.191046 -0.001625
vt 0.379438 0.977319
vt 0.121738 0.017177
vt 0.312776 0.996121
vt 0.059484 0.033648
vt 0.442023 0.962074
vt 0.695405 1.001426
vt 1.037134 1.019147
vt 0.732927 -0.011388
vt 0.290799 -0.015467
vt 1.121694 0.017285
vt 0.227805 1.012593
vt 0.037134 1.019147
vt 0.227754 1.011298
vt 0.313240 0.994826
vt 0.380027 0.976024
vt 0.502715 0.958303
vt 0.563510 0.966153
vt 0.626105 0.982625
vt 0.793336 1.015377
vt 1.059633 0.033756
vt 0.999463 0.041606
vt 0.939553 0.037836
vt 0.878647 0.023885
vt 0.813722 0.005083
vt 0.556360 -0.019238
vt 0.190655 -0.001517
vt 0.121694 0.017285
vn 0.0000 -0.0000 -1.0000
vn 0.5878 -0.0000 -0.8090
vn 0.9511 -0.0000 -0.3090
vn 0.9511 0.0000 0.3090
vn 0.5878 0.0000 0.8090
vn 0.0000 0.0000 1.0000
vn -0.5878 0.0000 0.8090
vn -0.9511 0.0000 0.3090
vn -0.9511 -0.0000 -0.3090
vn -0.5878 -0.0000 -0.8090
vn 0.0000 1.0000 -0.0000
vn -0.0000 -1.0000 0.0000
s 1
f 1/1/1 2/2/2 3/3/1
f 4/4/2 5/5/3 2/2/2
f 6/6/3 7/7/4 5/5/3
f 8/8/4 9/9/5 7/7/4
f 10/10/5 11/11/6 9/9/5
f 12/12/6 13/13/7 11/11/6
f 14/14/7 15/15/8 13/13/7
f 16/16/8 17/17/9 15/15/8
f 18/18/9 19/19/10 17/17/9
f 20/20/10 3/21/1 19/19/10
f 21/22/11 22/23/11 23/24/11
f 24/25/12 25/26/12 26/27/12
f 1/1/1 4/4/2 2/2/2
f 4/4/2 6/6/3 5/5/3
f 6/6/3 8/8/4 7/7/4
f 8/8/4 10/10/5 9/9/5
f 10/10/5 12/12/6 11/11/6
f 12/12/6 14/14/7 13/13/7
f 14/14/7 16/16/8 15/15/8
f 16/16/8 18/18/9 17/17/9
f 18/18/9 20/20/10 19/19/10
f 20/20/10 1/28/1 3/21/1
f 23/29/11 27/30/11 28/31/11
f 28/31/11 29/32/11 21/22/11
f 21/22/11 30/33/11 31/34/11
f 31/34/11 32/35/11 21/22/11
f 32/35/11 22/23/11 21/22/11
f 22/23/11 33/36/11 23/24/11
f 23/29/11 28/31/11 21/22/11
f 26/27/12 34/37/12 35/38/12
f 35/38/12 36/39/12 37/40/12
f 37/40/12 38/41/12 24/25/12
f 24/25/12 39/42/12 25/26/12
f 25/26/12 40/43/12 26/44/12
f 26/27/12 35/38/12 37/40/12
f 37/40/12 24/25/12 26/27/12
