# Blender v3.4.1 OBJ File: 'ramen-bowl.blend'
# www.blender.org
o Cube_Cube.002
v -0.307020 0.216433 -0.321495
v -0.995945 0.542962 -0.836638
v -0.432277 0.221745 -0.150616
v -1.121202 0.548275 -0.665759
v -0.333658 0.173222 -0.339678
v -0.985274 0.514941 -0.827945
v -0.458915 0.178534 -0.168799
v -1.110530 0.520254 -0.657066
v -0.471589 0.370661 -0.446921
v -0.636521 0.516325 -0.572348
v -0.804227 0.596601 -0.697774
v -0.929483 0.601914 -0.526895
v -0.761778 0.521638 -0.401469
v -0.596845 0.375974 -0.276042
v -0.956121 0.558703 -0.545077
v -0.788416 0.478427 -0.419651
v -0.623483 0.332763 -0.294225
v -0.830865 0.553390 -0.715957
v -0.663159 0.473114 -0.590530
v -0.498227 0.327450 -0.465104
v -0.000000 -0.521311 -0.000000
v -0.000000 -0.356875 -0.000000
v -0.723607 0.031469 -0.525725
v -0.696577 0.175257 -0.506087
v 0.276388 0.031469 -0.850649
v 0.266064 0.175257 -0.818874
v 0.861015 0.175261 -0.000000
v 0.894426 0.031473 -0.000000
v 0.266064 0.175257 0.818874
v 0.276388 0.031469 0.850649
v -0.696577 0.175257 0.506087
v -0.723607 0.031469 0.525725
v 0.162455 -0.371966 -0.499995
v 0.156387 -0.213108 -0.481318
v -0.425323 -0.371965 -0.309011
v -0.409435 -0.213108 -0.297469
v -0.262869 -0.047049 -0.809012
v -0.253050 0.099672 -0.778792
v -0.850648 -0.047047 -0.000000
v -0.818873 0.099673 -0.000000
v -0.425323 -0.371965 0.309011
v -0.409435 -0.213108 0.297468
v 0.525730 -0.371963 -0.000000
v 0.506091 -0.213105 -0.000000
v 0.688189 -0.047047 -0.499997
v 0.662482 0.099673 -0.481320
v 0.162455 -0.371966 0.499995
v 0.156387 -0.213108 0.481318
v 0.688189 -0.047047 0.499997
v 0.662482 0.099673 0.481320
v -0.262869 -0.047049 0.809012
v -0.253050 0.099672 0.778792
v -0.951058 0.478689 -0.309013
v -0.951058 0.478689 0.309013
v -0.000000 0.478689 -1.000000
v -0.587786 0.478689 -0.809017
v 0.951058 0.478689 -0.309013
v 0.587785 0.478689 -0.809017
v 0.587785 0.478689 0.809017
v 0.951058 0.478689 0.309013
v -0.587786 0.478689 0.809017
v -0.000000 0.478689 1.000000
v 0.851991 0.478689 0.343635
v 0.899439 0.478689 0.209660
v 0.477342 0.478689 -0.790627
v 0.590099 0.478689 -0.704100
v -0.604424 0.478689 -0.698296
v -0.487290 0.478689 -0.778795
v -0.891260 0.478689 0.222774
v -0.850899 0.478689 0.359051
v -0.063541 0.478689 0.916480
v 0.078538 0.478689 0.920206
v 0.899439 0.478689 -0.209660
v 0.851991 0.478689 -0.343635
v 0.590099 0.478689 0.704100
v 0.078538 0.478689 -0.920206
v 0.026371 0.478689 -0.918838
v -0.063541 0.478689 -0.916480
v -0.561414 0.478689 0.727854
v -0.891260 0.478689 -0.222775
v -0.850899 0.478689 -0.359051
v -0.604424 0.478689 0.698296
v 0.477342 0.478689 0.790627
v -0.487290 0.478689 0.778795
v 0.299700 0.223564 -0.814377
v -0.329617 0.223564 -0.778793
v -0.191104 0.223564 -0.823799
v 0.236209 0.223564 -0.835006
v -0.681906 0.223564 -0.536687
v -0.721146 0.223564 0.482679
v -0.681906 0.223564 0.536687
v -0.721146 0.223564 -0.482679
v -0.842534 0.223564 0.072819
v -0.842534 0.223564 -0.072819
v 0.867132 0.223564 0.033376
v 0.867132 0.223564 -0.033376
v 0.724428 0.223564 0.436314
v 0.638822 0.223564 -0.554141
v 0.724428 0.223564 -0.436314
v 0.638822 0.223564 0.554141
v 0.299700 0.223564 0.814377
v 0.236209 0.223564 0.835006
v -0.329617 0.223564 0.778793
v -0.191104 0.223564 0.823799
v -0.043386 -0.005829 0.320674
v -0.405387 0.921514 1.162918
v -0.056871 -0.038921 0.350138
v -0.431320 0.857881 1.219575
v -0.085498 -0.005829 0.301398
v -0.486368 0.921514 1.125853
v -0.098984 -0.038921 0.330862
v -0.512300 0.857881 1.182509
v -0.092371 -0.003141 0.301271
v -0.638671 0.915035 1.048864
v -0.105857 -0.036233 0.330735
v -0.664604 0.851401 1.105521
v -0.131768 -0.008279 0.277468
v -0.714428 0.905155 1.003093
v -0.145254 -0.041371 0.306932
v -0.740360 0.841522 1.059750
vt 0.826660 0.862133
vt 0.599304 0.862133
vt 0.498528 0.623625
vt 0.984185 0.442765
vt 0.996395 0.698539
vt 0.990046 0.704996
vt 0.987741 0.258083
vt 0.975677 0.008407
vt 0.987741 0.008328
vt 0.989650 0.711416
vt 0.977410 0.967270
vt 0.983285 0.704996
vt 0.942587 0.963025
vt 0.953825 0.721282
vt 0.954649 0.963162
vt 0.987410 0.000000
vt 0.931455 0.704996
vt 0.930630 0.721019
vt 0.987741 0.012367
vt 1.000000 0.266521
vt 0.993625 0.272953
vt 0.954649 0.708165
vt 0.975046 0.959797
vt 0.963209 0.961445
vt 0.984185 0.440740
vt 0.971608 0.692995
vt 0.977645 0.434499
vt 0.952665 0.262770
vt 0.960439 0.017858
vt 0.964543 0.263990
vt 0.965573 0.969437
vt 0.941703 0.000000
vt 0.937600 0.015511
vt 0.500887 0.751487
vt 0.495525 0.734946
vt 0.568622 0.839831
vt 0.510282 0.587540
vt 0.573429 0.495764
vt 0.694317 0.453919
vt 0.587507 0.485542
vt 0.732263 0.453919
vt 0.927796 0.623627
vt 0.839026 0.485543
vt 0.916097 0.587542
vt 0.853090 0.495766
vt 0.930630 0.734948
vt 0.925243 0.751488
vt 0.857374 0.839832
vt 0.721651 0.899308
vt 0.704257 0.899308
vt 0.996395 0.430349
vt 0.964543 0.258235
vt 0.989650 0.979614
vt 0.975346 0.000079
vt 0.954649 0.705259
vt 1.000000 0.000000
vt 0.977410 0.704996
vt 0.984185 0.704996
vt 0.977410 0.967790
vt 0.964543 0.002347
vt 0.321428 0.521082
vt 0.376474 0.582350
vt 0.321238 0.582254
vt 0.393574 0.747698
vt 0.383439 0.799931
vt 0.377465 0.807100
vt 0.432082 0.743780
vt 0.376674 0.694502
vt 0.431908 0.694371
vt 0.480459 0.698054
vt 0.490594 0.750287
vt 0.474485 0.690885
vt 0.432082 0.529163
vt 0.376765 0.521213
vt 0.431999 0.521082
vt 0.376815 0.747698
vt 0.376848 0.743911
vt 0.492937 0.528251
vt 0.479866 0.578146
vt 0.486963 0.521082
vt 0.485840 0.585315
vt 0.473683 0.635066
vt 0.479658 0.642235
vt 0.431983 0.584189
vt 0.376848 0.529293
vt 0.431897 0.639228
vt 0.376749 0.584319
vt 0.376663 0.639359
vt 0.382846 0.919839
vt 0.395917 0.969734
vt 0.389943 0.976903
vt 0.376663 0.862920
vt 0.388820 0.912670
vt 0.382638 0.855751
vt 0.321328 0.692827
vt 0.376663 0.748217
vt 0.321428 0.748122
vt 0.376475 0.637630
vt 0.376563 0.692923
vt 0.321240 0.637534
vt 0.724952 0.236216
vt 0.714000 0.098593
vt 0.850916 0.183249
vt 0.704662 0.000000
vt 0.579147 0.063847
vt 0.812608 0.339670
vt 0.652015 0.351684
vt 0.591073 0.202691
vt 0.000000 0.780572
vt 0.050313 0.703003
vt 0.065841 0.841854
vt 0.918304 0.060828
vt 0.937599 0.144027
vt 0.838991 0.044405
vt 0.181449 0.827335
vt 0.134153 0.866253
vt 0.124558 0.746572
vt 0.122099 0.825043
vt 0.075205 0.867399
vt 0.065841 0.738707
vt 0.238730 0.674054
vt 0.189424 0.742639
vt 0.181449 0.601569
vt 0.000000 0.624414
vt 0.180709 0.674052
vt 0.132893 0.605473
vt 0.181449 0.521082
vt 0.124558 0.521082
vt 0.122099 0.666850
vt 0.075205 0.598267
vt 0.124558 0.935233
vt 0.237248 0.827331
vt 0.238730 0.521082
vt 0.520497 0.397700
vt 0.517160 0.316939
vt 0.599205 0.430587
vt 0.012391 0.521082
vt 0.065841 0.589189
vt 0.012391 0.929906
vt 0.497865 0.092284
vt 0.495524 0.177102
vt 0.738697 0.453918
vt 0.872424 0.410146
vt 0.937599 0.285483
vt 0.400889 0.049876
vt 0.405224 0.078726
vt 0.374709 0.057730
vt 0.094635 0.471207
vt 0.123407 0.466437
vt 0.227301 0.500277
vt 0.254219 0.254615
vt 0.359770 0.333220
vt 0.212366 0.381007
vt 0.180791 0.471686
vt 0.078106 0.383126
vt 0.359772 0.178212
vt 0.212367 0.130201
vt 0.121266 0.255536
vt 0.432082 0.708569
vt 0.473387 0.628399
vt 0.473683 0.665014
vt 0.431573 0.390385
vt 0.405222 0.442596
vt 0.394017 0.450288
vt 0.280025 0.636304
vt 0.321239 0.547446
vt 0.320965 0.578028
vt 0.264316 0.021773
vt 0.180792 0.044987
vt 0.227302 0.020774
vt 0.246407 0.578544
vt 0.279861 0.625079
vt 0.279921 0.638668
vt 0.439374 0.575841
vt 0.471576 0.521082
vt 0.321239 0.829338
vt 0.288221 0.772122
vt 0.320605 0.725551
vt 0.971608 0.704996
vt 0.937705 0.651323
vt 0.967156 0.603425
vt 0.426295 0.818309
vt 0.395917 0.796477
vt 0.426295 0.747698
vt 0.278855 0.521082
vt 0.280025 0.772370
vt 0.238730 0.714345
vt 0.280025 0.662089
vt 0.279861 0.802821
vt 0.967221 0.566411
vt 0.930630 0.515848
vt 0.971608 0.453918
vt 0.320572 0.688534
vt 0.321239 0.813767
vt 0.326881 0.748218
vt 0.371791 0.813767
vt 0.264314 0.499334
vt 0.473683 0.770117
vt 0.013447 0.314991
vt 0.025802 0.258220
vt 0.078106 0.132319
vt 0.316614 0.054995
vt 0.431574 0.126669
vt 0.464018 0.258014
vt 0.316611 0.460811
vt 0.376663 0.521177
vt 0.395917 0.751945
vt 0.492937 0.746041
vt 0.432049 0.747567
vt 0.025808 0.170841
vt 0.017986 0.192924
vt 0.000000 0.179842
vt 0.400887 0.471439
vt 0.495524 0.341240
vt 0.469432 0.354258
vt 0.094034 0.076978
vt 0.094637 0.049643
vt 0.479947 0.318760
vt 0.123408 0.054456
vt 0.247763 0.000000
vt 0.495524 0.180216
vt 0.479947 0.202673
vt 0.469432 0.167160
vt 0.013447 0.205738
vt 0.000000 0.340866
vt 0.374706 0.463546
vt 0.247762 0.521082
vt 0.025808 0.349905
vt 0.094033 0.443871
vt 0.289115 0.521082
vt 0.246407 0.829073
vn 0.0000 1.0000 0.0000
vn 0.9140 -0.0115 0.4055
vn -0.2863 -0.7259 0.6254
vn -0.9043 -0.0115 -0.4268
vn 0.2960 0.7029 -0.6467
vn 0.2974 -0.6996 -0.6497
vn -0.2974 0.6996 0.6497
vn 0.8577 0.0996 0.5044
vn -0.2840 -0.7257 0.6266
vn -0.8433 -0.1222 -0.5233
vn 0.2983 0.7031 -0.6455
vn 0.4378 -0.6908 -0.5755
vn -0.4378 0.6908 0.5755
vn -0.2600 0.3413 -0.9033
vn -0.3272 0.7763 0.5387
vn 0.4378 0.7439 -0.5050
vn -0.9291 0.3696 0.0095
vn -0.5102 -0.6094 0.6069
vn -0.6480 -0.7078 0.2814
vn 0.4065 -0.6483 -0.6438
vn -0.2583 -0.7932 0.5514
vn 0.9946 0.1032 0.0098
vn 0.3122 0.1321 0.9408
vn 0.0519 -0.7375 -0.6734
vn 0.4242 -0.8222 -0.3796
vn 0.7606 0.5574 -0.3329
vn 0.0783 -0.5877 -0.8053
vn 0.6897 0.6295 -0.3580
vn 0.1693 -0.6158 -0.7695
vn -0.7613 -0.5521 0.3401
vn -0.7006 -0.5789 0.4172
vn -0.0715 0.5926 0.8023
vn -0.1146 0.6636 0.7393
vn 0.0000 -1.0000 0.0000
vn -0.4253 -0.8507 -0.3090
vn 0.1625 -0.8507 -0.5000
vn -0.7236 -0.4472 -0.5257
vn -0.8506 -0.5257 0.0000
vn 0.5257 -0.8507 -0.0000
vn 0.1625 -0.8507 0.5000
vn -0.4253 -0.8507 0.3090
vn -0.7950 0.5551 -0.2445
vn -0.0132 0.5551 -0.8317
vn 0.2764 -0.4472 -0.8506
vn -0.2629 -0.5257 -0.8090
vn 0.7869 0.5551 -0.2695
vn 0.8944 -0.4472 -0.0000
vn 0.6882 -0.5257 -0.5000
vn 0.4995 0.5551 0.6651
vn 0.2764 -0.4472 0.8506
vn 0.6882 -0.5257 0.5000
vn -0.4782 0.5551 0.6806
vn -0.7236 -0.4472 0.5257
vn -0.2629 -0.5257 0.8090
vn -0.4782 0.5551 -0.6806
vn 0.4995 0.5551 -0.6651
vn 0.7869 0.5551 0.2695
vn -0.0132 0.5551 0.8317
vn -0.7950 0.5551 0.2445
vn -0.5449 0.8288 -0.1272
vn -0.5070 0.8281 -0.2393
vn 0.5156 0.8288 0.2174
vn 0.3661 0.8288 0.4232
vn -0.1625 0.8507 0.5000
vn 0.4253 0.8507 0.3090
vn 0.7236 0.4472 0.5257
vn 0.8506 0.5257 -0.0000
vn -0.5257 0.8507 0.0000
vn -0.1625 0.8507 -0.5000
vn 0.4253 0.8507 -0.3090
vn 0.5508 0.8281 0.1044
vn -0.2764 0.4472 0.8506
vn -0.0474 0.8288 0.5575
vn 0.0152 0.8156 0.5784
vn -0.6882 0.5257 0.5000
vn -0.5449 0.8288 0.1272
vn -0.5070 0.8281 0.2393
vn -0.3843 0.8281 -0.4082
vn -0.2764 0.4472 -0.8506
vn -0.2894 0.8288 -0.4789
vn 0.7236 0.4472 -0.5257
vn 0.3661 0.8288 -0.4232
vn 0.3277 0.8156 -0.4769
vn -0.2894 0.8288 0.4789
vn -0.8944 0.4472 0.0000
vn -0.0474 0.8288 -0.5575
vn 0.5156 0.8288 -0.2174
vn 0.0709 0.8281 -0.5561
vn 0.2629 0.5257 -0.8090
vn 0.2695 0.8281 -0.4916
vn -0.6882 0.5257 -0.5000
vn -0.3843 0.8281 0.4082
vn 0.2629 0.5257 0.8090
vn 0.0709 0.8281 0.5561
vn 0.2695 0.8281 0.4916
vn 0.5508 0.8281 -0.1044
s off
f 93/1/1 103/2/1 100/3/1
f 106/4/2 107/5/2 105/6/2
f 108/7/3 111/8/3 107/9/3
f 111/10/4 110/11/4 109/12/4
f 109/13/5 106/14/5 105/15/5
f 111/8/6 105/16/6 107/9/6
f 112/17/7 106/14/7 110/18/7
f 114/19/8 115/20/8 113/21/8
f 116/22/9 119/23/9 115/24/9
f 119/25/10 118/26/10 117/27/10
f 117/28/11 114/29/11 113/30/11
f 119/23/12 113/31/12 115/24/12
f 120/32/13 114/29/13 118/33/13
f 102/34/1 101/35/1 104/36/1
f 101/35/1 100/3/1 104/36/1
f 100/3/1 97/37/1 93/1/1
f 97/37/1 95/38/1 99/39/1
f 95/38/1 96/40/1 99/39/1
f 99/39/1 98/41/1 86/42/1
f 98/41/1 85/43/1 87/44/1
f 85/43/1 88/45/1 87/44/1
f 87/44/1 86/42/1 98/41/1
f 86/42/1 89/46/1 92/47/1
f 94/48/1 86/42/1 92/47/1
f 94/48/1 93/1/1 97/37/1
f 93/1/1 90/49/1 103/2/1
f 90/49/1 91/50/1 103/2/1
f 103/2/1 104/36/1 100/3/1
f 97/37/1 99/39/1 94/48/1
f 86/42/1 94/48/1 99/39/1
f 106/4/2 108/51/2 107/5/2
f 108/7/3 112/52/3 111/8/3
f 111/10/4 112/53/4 110/11/4
f 109/13/5 110/18/5 106/14/5
f 111/8/6 109/54/6 105/16/6
f 112/17/7 108/55/7 106/14/7
f 114/19/8 116/56/8 115/20/8
f 116/22/9 120/57/9 119/23/9
f 119/25/10 120/58/10 118/26/10
f 117/28/11 118/33/11 114/29/11
f 119/23/12 117/59/12 113/31/12
f 120/32/13 116/60/13 114/29/13
s 1
f 2/61/14 12/62/15 11/63/16
f 4/64/17 15/65/18 12/66/15
f 8/67/19 18/68/20 15/69/18
f 18/70/20 2/71/14 11/72/16
f 7/73/21 1/74/22 3/75/23
f 8/67/19 2/76/14 6/77/24
f 5/78/25 9/79/26 1/80/22
f 20/81/27 10/82/28 9/79/26
f 19/83/29 11/72/16 10/82/28
f 17/84/30 5/85/25 7/73/21
f 16/86/31 20/87/27 17/84/30
f 15/69/18 19/88/29 16/86/31
f 14/89/32 7/90/21 3/91/23
f 13/92/33 17/93/30 14/89/32
f 12/66/15 16/94/31 13/92/33
f 9/95/26 3/96/23 1/97/22
f 9/95/26 13/98/33 14/99/32
f 11/63/16 13/98/33 10/100/28
f 21/101/34 35/102/35 33/103/36
f 23/104/37 35/102/35 39/105/38
f 21/101/34 33/103/36 43/106/39
f 21/101/34 43/106/39 47/107/40
f 21/101/34 47/107/40 41/108/41
f 53/109/42 23/110/37 39/111/38
f 55/112/43 25/113/44 37/114/45
f 57/115/46 28/116/47 45/117/48
f 59/118/49 30/119/50 49/120/51
f 61/121/52 32/122/53 51/123/54
f 56/124/55 23/110/37 53/109/42
f 58/125/56 25/126/44 55/127/43
f 57/128/46 60/129/57 28/130/47
f 59/118/49 62/131/58 30/119/50
f 54/132/59 32/122/53 61/121/52
f 62/133/58 61/121/52 51/123/54
f 62/134/58 51/135/54 30/136/50
f 60/129/57 59/118/49 49/120/51
f 60/129/57 49/120/51 28/130/47
f 58/125/56 57/115/46 45/117/48
f 58/125/56 45/117/48 25/126/44
f 55/137/43 37/138/45 56/124/55
f 56/124/55 37/138/45 23/110/37
f 53/109/42 39/111/38 54/139/59
f 54/140/59 39/105/38 32/141/53
f 51/135/54 32/141/53 41/108/41
f 51/135/54 41/108/41 47/107/40
f 30/136/50 51/135/54 47/107/40
f 30/136/50 47/107/40 49/142/51
f 49/142/51 47/107/40 43/106/39
f 28/143/47 49/142/51 43/106/39
f 45/144/48 28/143/47 43/106/39
f 43/106/39 33/103/36 45/144/48
f 45/144/48 33/103/36 25/113/44
f 39/105/38 41/108/41 32/141/53
f 41/108/41 39/105/38 35/102/35
f 35/102/35 21/101/34 41/108/41
f 25/113/44 33/103/36 37/114/45
f 33/103/36 35/102/35 37/114/45
f 35/102/35 23/104/37 37/114/45
f 60/145/57 64/146/60 63/147/61
f 53/148/42 81/149/62 67/150/63
f 22/151/1 34/152/64 36/153/65
f 24/154/66 40/155/67 36/153/65
f 44/156/68 34/152/64 22/151/1
f 48/157/69 44/156/68 22/151/1
f 48/157/69 22/151/1 42/158/70
f 40/159/67 81/160/62 80/161/71
f 26/162/72 76/163/73 77/164/74
f 46/165/75 73/166/76 74/167/77
f 75/168/78 29/169/79 83/170/80
f 31/171/81 82/172/82 79/173/83
f 81/160/62 24/174/66 67/175/63
f 76/176/73 26/177/72 65/178/84
f 73/179/76 27/180/85 64/181/60
f 83/182/80 29/183/79 72/184/86
f 82/172/82 31/171/81 70/185/87
f 71/186/88 52/187/89 84/188/90
f 72/189/86 52/187/89 71/186/88
f 63/190/61 50/191/91 75/192/78
f 64/181/60 50/191/91 63/190/61
f 66/193/92 46/165/75 74/167/77
f 26/177/72 66/193/92 65/178/84
f 38/194/93 78/195/94 68/196/95
f 24/154/66 68/197/95 67/150/63
f 40/159/67 80/161/71 69/198/96
f 40/155/67 70/199/87 31/200/81
f 52/201/89 42/158/70 31/200/81
f 52/201/89 48/157/69 42/158/70
f 29/169/79 48/157/69 52/201/89
f 29/169/79 50/202/91 48/157/69
f 50/202/91 44/156/68 48/157/69
f 27/203/85 44/156/68 50/202/91
f 46/204/75 44/156/68 27/203/85
f 44/156/68 46/204/75 34/152/64
f 46/204/75 26/162/72 34/152/64
f 40/155/67 31/200/81 42/158/70
f 42/158/70 36/153/65 40/155/67
f 36/153/65 42/158/70 22/151/1
f 26/162/72 38/205/93 34/152/64
f 34/152/64 38/205/93 36/153/65
f 36/153/65 38/205/93 24/154/66
f 2/61/14 4/206/17 12/62/15
f 4/64/17 8/207/19 15/65/18
f 8/67/19 6/77/24 18/68/20
f 18/70/20 6/208/24 2/71/14
f 7/73/21 5/85/25 1/74/22
f 8/67/19 4/209/17 2/76/14
f 5/78/25 20/81/27 9/79/26
f 20/81/27 19/83/29 10/82/28
f 19/83/29 18/70/20 11/72/16
f 17/84/30 20/87/27 5/85/25
f 16/86/31 19/88/29 20/87/27
f 15/69/18 18/68/20 19/88/29
f 14/89/32 17/93/30 7/90/21
f 13/92/33 16/94/31 17/93/30
f 12/66/15 15/65/18 16/94/31
f 9/95/26 14/99/32 3/96/23
f 9/95/26 10/100/28 13/98/33
f 11/63/16 12/62/15 13/98/33
f 84/210/90 79/211/83 61/212/52
f 55/213/43 77/164/74 76/163/73
f 55/213/43 76/163/73 58/214/56
f 76/163/73 65/215/84 58/214/56
f 84/210/90 61/212/52 71/216/88
f 61/212/52 62/217/58 71/216/88
f 58/214/56 65/215/84 66/218/92
f 72/219/86 71/216/88 62/217/58
f 83/170/80 72/219/86 59/220/49
f 72/219/86 62/217/58 59/220/49
f 57/221/46 58/214/56 66/218/92
f 57/221/46 66/218/92 74/222/77
f 75/168/78 83/170/80 59/220/49
f 57/221/46 74/222/77 73/223/76
f 57/221/46 73/223/76 64/146/60
f 75/168/78 59/220/49 60/145/57
f 63/147/61 75/168/78 60/145/57
f 60/145/57 57/221/46 64/146/60
f 61/212/52 79/211/83 82/224/82
f 61/212/52 82/224/82 54/225/59
f 82/224/82 70/199/87 54/225/59
f 78/226/94 77/164/74 55/213/43
f 68/197/95 78/226/94 56/227/55
f 78/226/94 55/213/43 56/227/55
f 54/225/59 70/199/87 69/228/96
f 67/150/63 68/197/95 56/227/55
f 53/148/42 54/225/59 69/228/96
f 53/148/42 69/228/96 80/229/71
f 67/150/63 56/227/55 53/148/42
f 53/148/42 80/229/71 81/149/62
f 40/159/67 24/174/66 81/160/62
f 78/226/94 38/205/93 77/164/74
f 38/205/93 26/162/72 77/164/74
f 46/165/75 27/230/85 73/166/76
f 75/168/78 50/202/91 29/169/79
f 79/173/83 84/188/90 52/187/89
f 52/187/89 31/171/81 79/173/83
f 72/189/86 29/231/79 52/187/89
f 64/181/60 27/180/85 50/191/91
f 26/177/72 46/165/75 66/193/92
f 24/154/66 38/205/93 68/197/95
f 40/155/67 69/228/96 70/199/87
