# Blender v3.4.1 OBJ File: 'umimura.blend'
# www.blender.org
o Ramen_Lamp_Cylinder.002
v 0.000000 -1.042524 0.396862
v 0.000000 -0.866787 0.396862
v -0.255098 -1.042524 0.304014
v -0.255098 -0.866787 0.304014
v -0.390832 -1.042524 0.068914
v -0.390832 -0.866787 0.068914
v -0.343692 -1.042524 -0.198431
v -0.343692 -0.866787 -0.198431
v -0.135735 -1.042524 -0.372928
v -0.135735 -0.866787 -0.372928
v 0.135735 -1.042524 -0.372928
v 0.135735 -0.866787 -0.372928
v 0.343692 -1.042524 -0.198431
v 0.343692 -0.866787 -0.198431
v 0.390832 -1.042524 0.068914
v 0.390832 -0.866787 0.068914
v 0.255098 -1.042524 0.304014
v 0.255098 -0.866787 0.304014
v 0.000000 -0.582011 0.617550
v 0.000000 0.582011 0.617550
v -0.396953 -0.582011 0.473071
v -0.396953 0.582011 0.473071
v -0.608168 -0.582011 0.107236
v -0.608168 0.582011 0.107236
v -0.534814 -0.582011 -0.308775
v -0.534814 0.582011 -0.308775
v -0.211214 -0.582011 -0.580307
v -0.211214 0.582011 -0.580307
v 0.211214 -0.582011 -0.580307
v 0.211214 0.582011 -0.580307
v 0.534814 -0.582011 -0.308775
v 0.534814 0.582011 -0.308775
v 0.608168 -0.582011 0.107236
v 0.608168 0.582011 0.107236
v 0.396953 -0.582011 0.473071
v 0.396953 0.582011 0.473071
v -0.339817 0.809220 0.404978
v -0.000000 0.809220 0.528661
v -0.520629 0.809220 0.091801
v -0.457834 0.809220 -0.264331
v -0.180813 0.809220 -0.496779
v 0.180813 0.809220 -0.496779
v 0.457834 0.809220 -0.264331
v 0.520629 0.809220 0.091801
v 0.339817 0.809220 0.404978
v -0.188404 0.944621 0.224531
v -0.000000 0.944621 0.293105
v -0.288652 0.944621 0.050897
v -0.253836 0.944621 -0.146552
v -0.100248 0.944621 -0.275429
v 0.100248 0.944621 -0.275429
v 0.253836 0.944621 -0.146552
v 0.288652 0.944621 0.050897
v 0.188404 0.944621 0.224531
v -0.000000 -0.798883 0.544897
v -0.350253 -0.798883 0.417415
v -0.536618 -0.798883 0.094620
v -0.471894 -0.798883 -0.272448
v -0.186366 -0.798883 -0.512035
v 0.186366 -0.798883 -0.512035
v 0.471894 -0.798883 -0.272448
v 0.536618 -0.798883 0.094620
v 0.350253 -0.798883 0.417415
v -0.000000 -0.923267 0.373563
v -0.240121 -0.923267 0.286166
v -0.367887 -0.923267 0.064869
v -0.323515 -0.923267 -0.186781
v -0.127766 -0.923267 -0.351034
v 0.127766 -0.923267 -0.351034
v 0.323515 -0.923267 -0.186781
v 0.367887 -0.923267 0.064869
v 0.240121 -0.923267 0.286166
v 0.000000 0.863157 0.396862
v 0.000000 1.038893 0.396862
v -0.255098 0.863157 0.304014
v -0.255098 1.038893 0.304014
v -0.390832 0.863157 0.068914
v -0.390832 1.038893 0.068914
v -0.343692 0.863157 -0.198431
v -0.343692 1.038893 -0.198431
v -0.135735 0.863157 -0.372928
v -0.135735 1.038893 -0.372928
v 0.135735 0.863157 -0.372928
v 0.135735 1.038893 -0.372928
v 0.343692 0.863157 -0.198431
v 0.343692 1.038893 -0.198431
v 0.390832 0.863157 0.068914
v 0.390832 1.038893 0.068914
v 0.255098 0.863157 0.304014
v 0.255098 1.038893 0.304014
v -0.000000 1.020087 0.021797
v -0.000000 1.485679 0.021797
v -0.014011 1.020087 0.016697
v -0.014011 1.485679 0.016697
v -0.021466 1.020087 0.003785
v -0.021466 1.485679 0.003785
v -0.018877 1.020087 -0.010898
v -0.018877 1.485679 -0.010898
v -0.007455 1.020087 -0.020482
v -0.007455 1.485679 -0.020482
v 0.007455 1.020087 -0.020482
v 0.007455 1.485679 -0.020482
v 0.018877 1.020087 -0.010898
v 0.018877 1.485679 -0.010898
v 0.021466 1.020087 0.003785
v 0.021466 1.485679 0.003785
v 0.014011 1.020087 0.016697
v 0.014011 1.485679 0.016697
vt 0.850552 0.063960
vt 0.900072 0.005360
vt 0.900072 0.063960
vt 0.834523 0.663941
vt 0.884043 0.605342
vt 0.884043 0.663941
vt 0.834523 0.605342
vt 0.884043 0.528846
vt 0.834523 0.528846
vt 0.884043 0.470246
vt 0.850552 0.403470
vt 0.900072 0.344871
vt 0.900072 0.403470
vt 0.850552 0.344871
vt 0.900072 0.268375
vt 0.850552 0.268375
vt 0.900072 0.209776
vt 0.534849 0.884509
vt 0.751764 0.846261
vt 0.702593 0.981356
vt 0.850552 0.199055
vt 0.900072 0.140456
vt 0.900072 0.199055
vt 0.850552 0.140456
vt 0.788648 0.812626
vt 0.979400 0.922757
vt 0.854895 0.994640
vt 0.408672 0.394131
vt 0.317486 0.067351
vt 0.408672 0.066167
vt 0.096546 0.070755
vt 0.215580 0.398719
vt 0.096546 0.398719
vt 0.215580 0.070755
vt 0.306765 0.397535
vt 0.629612 0.070755
vt 0.748646 0.398719
vt 0.629612 0.398719
vt 0.748646 0.070755
vt 0.839831 0.397535
vt 0.005360 0.535641
vt 0.124394 0.863605
vt 0.005360 0.863605
vt 0.124394 0.535641
vt 0.215580 0.862421
vt 0.317486 0.395316
vt 0.417238 0.458512
vt 0.339178 0.459526
vt 0.618891 0.395316
vt 0.527706 0.066167
vt 0.618891 0.067351
vt 0.527706 0.394131
vt 0.005360 0.397535
vt 0.103548 0.459526
vt 0.023090 0.458481
vt 0.569701 0.521197
vt 0.601225 0.616952
vt 0.534849 0.616952
vt 0.285073 0.005360
vt 0.306765 0.069570
vt 0.207013 0.006374
vt 0.519139 0.458512
vt 0.215580 0.534456
vt 0.115828 0.471260
vt 0.193888 0.470246
vt 0.013927 0.471260
vt 0.839831 0.069570
vt 0.740079 0.006374
vt 0.818140 0.005360
vt 0.761429 0.588704
vt 0.725114 0.688479
vt 0.823802 0.566002
vt 0.725114 0.545425
vt 0.758302 0.487941
vt 0.657950 0.763657
vt 0.758302 0.745963
vt 0.669476 0.535614
vt 0.657950 0.470246
vt 0.761429 0.645200
vt 0.823802 0.667902
vt 0.569701 0.712707
vt 0.620548 0.670041
vt 0.620548 0.563862
vt 0.669476 0.698290
vt 0.456616 0.754430
vt 0.478760 0.657460
vt 0.524128 0.673972
vt 0.208578 0.459526
vt 0.520704 0.005360
vt 0.601161 0.006405
vt 0.197850 0.923367
vt 0.117392 0.924412
vt 0.012362 0.924412
vt 0.741644 0.459525
vt 0.636614 0.459525
vt 0.361565 0.517792
vt 0.432477 0.712619
vt 0.299207 0.689120
vt 0.456616 0.488485
vt 0.353182 0.470246
vt 0.226301 0.621457
vt 0.299207 0.553795
vt 0.274580 0.621457
vt 0.361565 0.725123
vt 0.524128 0.568942
vt 0.432477 0.530296
vt 0.262223 0.720153
vt 0.353182 0.772668
vt 0.478760 0.585455
vt 0.262223 0.522761
vt 0.850552 0.063960
vt 0.900072 0.005360
vt 0.900072 0.063960
vt 0.834523 0.663941
vt 0.884043 0.605342
vt 0.884043 0.663941
vt 0.834523 0.605342
vt 0.884043 0.528846
vt 0.834523 0.528846
vt 0.884043 0.470246
vt 0.850552 0.403470
vt 0.900072 0.344871
vt 0.900072 0.403470
vt 0.850552 0.344871
vt 0.900072 0.268375
vt 0.850552 0.268375
vt 0.900072 0.209776
vt 0.534849 0.884509
vt 0.751764 0.846261
vt 0.702593 0.981356
vt 0.850552 0.199055
vt 0.900072 0.140456
vt 0.900072 0.199055
vt 0.850552 0.140456
vt 0.788648 0.812626
vt 0.979400 0.922757
vt 0.854895 0.994640
vt 0.850552 0.063960
vt 0.900072 0.005360
vt 0.900072 0.063960
vt 0.834523 0.663941
vt 0.884043 0.605342
vt 0.884043 0.663941
vt 0.834523 0.605342
vt 0.884043 0.528846
vt 0.834523 0.528846
vt 0.884043 0.470246
vt 0.850552 0.403470
vt 0.900072 0.344871
vt 0.900072 0.403470
vt 0.850552 0.344871
vt 0.900072 0.268375
vt 0.850552 0.268375
vt 0.900072 0.209776
vt 0.627260 0.994640
vt 0.534849 0.884509
vt 0.751764 0.846261
vt 0.850552 0.199055
vt 0.900072 0.140456
vt 0.900072 0.199055
vt 0.850552 0.140456
vt 0.850552 0.005360
vt 0.834523 0.470246
vt 0.850552 0.209776
vt 0.627260 0.994640
vt 0.561012 0.956392
vt 0.561012 0.812626
vt 0.627260 0.774378
vt 0.702593 0.787662
vt 0.751764 0.922757
vt 0.788648 0.956392
vt 0.762485 0.884509
vt 0.854895 0.774378
vt 0.930229 0.787662
vt 0.979400 0.846261
vt 0.930229 0.981356
vt 0.105113 0.006374
vt 0.597199 0.459526
vt 0.638179 0.006374
vt 0.289036 0.458481
vt 0.415674 0.005360
vt 0.822102 0.458481
vt 0.850552 0.005360
vt 0.834523 0.470246
vt 0.850552 0.209776
vt 0.627260 0.994640
vt 0.561012 0.956392
vt 0.561012 0.812626
vt 0.627260 0.774378
vt 0.702593 0.787662
vt 0.751764 0.922757
vt 0.788648 0.956392
vt 0.762485 0.884509
vt 0.854895 0.774378
vt 0.930229 0.787662
vt 0.979400 0.846261
vt 0.930229 0.981356
vt 0.850552 0.005360
vt 0.834523 0.470246
vt 0.850552 0.209776
vt 0.561012 0.956392
vt 0.561012 0.812626
vt 0.627260 0.774378
vt 0.702593 0.787662
vt 0.751764 0.922757
vt 0.702593 0.981356
vn 0.0000 0.0000 1.0000
vn -0.6428 0.0000 0.7660
vn -0.9848 0.0000 0.1736
vn -0.8660 0.0000 -0.5000
vn -0.3420 0.0000 -0.9397
vn 0.3420 0.0000 -0.9397
vn 0.8660 0.0000 -0.5000
vn 0.9848 0.0000 0.1736
vn 0.0000 1.0000 -0.0000
vn 0.6428 0.0000 0.7660
vn 0.0000 -1.0000 -0.0000
vn -0.0000 0.1784 0.9840
vn -0.6350 -0.1556 0.7567
vn 0.0000 -0.1556 0.9878
vn -0.6325 0.1784 0.7538
vn -0.9728 -0.1556 0.1715
vn -0.9690 0.1784 0.1709
vn -0.8555 -0.1556 -0.4939
vn -0.8521 0.1784 -0.4920
vn -0.3379 -0.1556 -0.9282
vn -0.3365 0.1784 -0.9246
vn 0.3379 -0.1556 -0.9282
vn 0.3365 0.1784 -0.9246
vn 0.8555 -0.1556 -0.4939
vn 0.8521 0.1784 -0.4920
vn 0.9728 -0.1556 0.1715
vn 0.0000 0.6187 0.7856
vn -0.5050 0.6187 0.6018
vn 0.9690 0.1784 0.1709
vn 0.6350 -0.1556 0.7567
vn 0.6325 0.1784 0.7538
vn -0.5318 -0.5617 0.6338
vn -0.0000 -0.5617 0.8273
vn 0.5050 0.6187 0.6018
vn 0.0000 0.9509 0.3096
vn -0.6804 0.6187 -0.3928
vn -0.7737 0.6187 0.1364
vn 0.6804 0.6187 -0.3928
vn 0.7737 0.6187 0.1364
vn 0.2687 0.6187 -0.7382
vn -0.2687 0.6187 -0.7382
vn 0.1059 0.9509 -0.2910
vn -0.2682 0.9509 -0.1548
vn 0.2682 0.9509 -0.1548
vn 0.3049 0.9509 0.0538
vn -0.1059 0.9509 -0.2910
vn -0.1990 0.9509 0.2372
vn 0.1990 0.9509 0.2372
vn -0.3049 0.9509 0.0538
vn 0.2830 -0.5617 -0.7774
vn -0.1259 -0.9298 -0.3459
vn -0.2830 -0.5617 -0.7774
vn -0.8148 -0.5617 0.1437
vn 0.5318 -0.5617 0.6338
vn 0.8148 -0.5617 0.1437
vn 0.7165 -0.5617 -0.4137
vn -0.7165 -0.5617 -0.4137
vn -0.2366 -0.9298 0.2820
vn 0.1259 -0.9298 -0.3459
vn 0.3625 -0.9298 0.0639
vn 0.0000 -0.9298 0.3681
vn 0.2366 -0.9298 0.2820
vn 0.3187 -0.9298 -0.1840
vn -0.3625 -0.9298 0.0639
vn -0.3187 -0.9298 -0.1840
s 1
f 2/1/1 3/2/2 1/3/1
f 4/4/2 5/5/3 3/6/2
f 6/7/3 7/8/4 5/5/3
f 8/9/4 9/10/5 7/8/4
f 10/11/5 11/12/6 9/13/5
f 12/14/6 13/15/7 11/12/6
f 14/16/7 15/17/8 13/15/7
f 2/18/9 12/19/9 8/20/9
f 16/21/8 17/22/10 15/23/8
f 18/24/10 1/3/1 17/22/10
f 3/25/11 11/26/11 15/27/11
f 20/28/12 21/29/13 19/30/14
f 22/31/15 23/32/16 21/33/13
f 24/34/17 25/35/18 23/32/16
f 26/36/19 27/37/20 25/38/18
f 28/39/21 29/40/22 27/37/20
f 30/41/23 31/42/24 29/43/22
f 32/44/25 33/45/26 31/42/24
f 22/46/15 38/47/27 37/48/28
f 34/49/29 35/50/30 33/51/26
f 36/52/31 19/30/14 35/50/30
f 19/53/14 56/54/32 55/55/33
f 45/56/34 47/57/35 38/58/27
f 24/34/17 40/59/36 26/60/19
f 22/31/15 39/61/37 24/34/17
f 36/52/31 38/47/27 20/28/12
f 34/49/29 45/62/34 36/52/31
f 34/63/29 43/64/38 44/65/39
f 32/44/25 42/66/40 43/64/38
f 30/67/23 41/68/41 42/69/40
f 26/36/19 41/68/41 28/39/21
f 47/57/35 51/70/42 49/71/43
f 42/72/40 52/73/44 43/74/38
f 39/75/37 49/71/43 40/76/36
f 43/74/38 53/77/45 44/78/39
f 40/76/36 50/79/46 41/80/41
f 37/81/28 47/57/35 46/82/47
f 44/78/39 54/83/48 45/56/34
f 41/80/41 51/70/42 42/72/40
f 37/81/28 48/84/49 39/75/37
f 60/85/50 68/86/51 59/87/52
f 25/35/18 57/88/53 23/32/16
f 23/32/16 56/54/32 21/33/13
f 19/30/14 63/89/54 35/50/30
f 35/50/30 62/90/55 33/51/26
f 31/42/24 62/91/55 61/92/56
f 31/42/24 60/93/50 29/43/22
f 29/40/22 59/94/52 27/37/20
f 25/38/18 59/94/52 58/95/57
f 65/96/58 69/97/59 71/98/60
f 57/99/53 65/96/58 56/100/32
f 63/101/54 64/102/61 72/103/62
f 60/85/50 70/104/63 69/97/59
f 58/105/57 66/106/64 57/99/53
f 62/107/55 70/104/63 61/108/56
f 59/87/52 67/109/65 58/105/57
f 56/100/32 64/102/61 55/110/33
f 63/101/54 71/98/60 62/107/55
f 74/111/1 75/112/2 73/113/1
f 76/114/2 77/115/3 75/116/2
f 78/117/3 79/118/4 77/115/3
f 80/119/4 81/120/5 79/118/4
f 82/121/5 83/122/6 81/123/5
f 84/124/6 85/125/7 83/122/6
f 86/126/7 87/127/8 85/125/7
f 74/128/9 84/129/9 80/130/9
f 88/131/8 89/132/10 87/133/8
f 90/134/10 73/113/1 89/132/10
f 75/135/11 83/136/11 87/137/11
f 92/138/1 93/139/2 91/140/1
f 94/141/2 95/142/3 93/143/2
f 96/144/3 97/145/4 95/142/3
f 98/146/4 99/147/5 97/145/4
f 100/148/5 101/149/6 99/150/5
f 102/151/6 103/152/7 101/149/6
f 104/153/7 105/154/8 103/152/7
f 96/155/9 92/156/9 102/157/9
f 106/158/8 107/159/10 105/160/8
f 108/161/10 91/140/1 107/159/10
f 2/1/1 4/162/2 3/2/2
f 4/4/2 6/7/3 5/5/3
f 6/7/3 8/9/4 7/8/4
f 8/9/4 10/163/5 9/10/5
f 10/11/5 12/14/6 11/12/6
f 12/14/6 14/16/7 13/15/7
f 14/16/7 16/164/8 15/17/8
f 6/165/9 4/166/9 2/18/9
f 2/18/9 18/167/9 16/168/9
f 16/168/9 14/169/9 12/19/9
f 12/19/9 10/170/9 8/20/9
f 8/20/9 6/165/9 2/18/9
f 2/18/9 16/168/9 12/19/9
f 16/21/8 18/24/10 17/22/10
f 18/24/10 2/1/1 1/3/1
f 17/171/11 1/172/11 3/25/11
f 3/25/11 5/173/11 7/174/11
f 7/174/11 9/175/11 11/26/11
f 11/26/11 13/176/11 15/27/11
f 15/27/11 17/171/11 3/25/11
f 3/25/11 7/174/11 11/26/11
f 20/28/12 22/46/15 21/29/13
f 22/31/15 24/34/17 23/32/16
f 24/34/17 26/60/19 25/35/18
f 26/36/19 28/39/21 27/37/20
f 28/39/21 30/67/23 29/40/22
f 30/41/23 32/44/25 31/42/24
f 32/44/25 34/63/29 33/45/26
f 22/46/15 20/28/12 38/47/27
f 34/49/29 36/52/31 35/50/30
f 36/52/31 20/28/12 19/30/14
f 19/53/14 21/33/13 56/54/32
f 45/56/34 54/83/48 47/57/35
f 24/34/17 39/61/37 40/59/36
f 22/31/15 37/177/28 39/61/37
f 36/52/31 45/62/34 38/47/27
f 34/49/29 44/178/39 45/62/34
f 34/63/29 32/44/25 43/64/38
f 32/44/25 30/41/23 42/66/40
f 30/67/23 28/39/21 41/68/41
f 26/36/19 40/179/36 41/68/41
f 48/84/49 46/82/47 47/57/35
f 47/57/35 54/83/48 53/77/45
f 53/77/45 52/73/44 51/70/42
f 51/70/42 50/79/46 49/71/43
f 49/71/43 48/84/49 47/57/35
f 47/57/35 53/77/45 51/70/42
f 42/72/40 51/70/42 52/73/44
f 39/75/37 48/84/49 49/71/43
f 43/74/38 52/73/44 53/77/45
f 40/76/36 49/71/43 50/79/46
f 37/81/28 38/58/27 47/57/35
f 44/78/39 53/77/45 54/83/48
f 41/80/41 50/79/46 51/70/42
f 37/81/28 46/82/47 48/84/49
f 60/85/50 69/97/59 68/86/51
f 25/35/18 58/180/57 57/88/53
f 23/32/16 57/88/53 56/54/32
f 19/30/14 55/181/33 63/89/54
f 35/50/30 63/89/54 62/90/55
f 31/42/24 33/45/26 62/91/55
f 31/42/24 61/92/56 60/93/50
f 29/40/22 60/182/50 59/94/52
f 25/38/18 27/37/20 59/94/52
f 72/103/62 64/102/61 65/96/58
f 65/96/58 66/106/64 67/109/65
f 67/109/65 68/86/51 65/96/58
f 68/86/51 69/97/59 65/96/58
f 69/97/59 70/104/63 71/98/60
f 71/98/60 72/103/62 65/96/58
f 57/99/53 66/106/64 65/96/58
f 63/101/54 55/110/33 64/102/61
f 60/85/50 61/108/56 70/104/63
f 58/105/57 67/109/65 66/106/64
f 62/107/55 71/98/60 70/104/63
f 59/87/52 68/86/51 67/109/65
f 56/100/32 65/96/58 64/102/61
f 63/101/54 72/103/62 71/98/60
f 74/111/1 76/183/2 75/112/2
f 76/114/2 78/117/3 77/115/3
f 78/117/3 80/119/4 79/118/4
f 80/119/4 82/184/5 81/120/5
f 82/121/5 84/124/6 83/122/6
f 84/124/6 86/126/7 85/125/7
f 86/126/7 88/185/8 87/127/8
f 78/186/9 76/187/9 74/128/9
f 74/128/9 90/188/9 88/189/9
f 88/189/9 86/190/9 84/129/9
f 84/129/9 82/191/9 80/130/9
f 80/130/9 78/186/9 74/128/9
f 74/128/9 88/189/9 84/129/9
f 88/131/8 90/134/10 89/132/10
f 90/134/10 74/111/1 73/113/1
f 89/192/11 73/193/11 75/135/11
f 75/135/11 77/194/11 79/195/11
f 79/195/11 81/196/11 83/136/11
f 83/136/11 85/197/11 87/137/11
f 87/137/11 89/192/11 75/135/11
f 75/135/11 79/195/11 83/136/11
f 92/138/1 94/198/2 93/139/2
f 94/141/2 96/144/3 95/142/3
f 96/144/3 98/146/4 97/145/4
f 98/146/4 100/199/5 99/147/5
f 100/148/5 102/151/6 101/149/6
f 102/151/6 104/153/7 103/152/7
f 104/153/7 106/200/8 105/154/8
f 96/155/9 94/201/9 92/156/9
f 92/156/9 108/202/9 106/203/9
f 106/203/9 104/204/9 92/156/9
f 104/204/9 102/157/9 92/156/9
f 102/157/9 100/205/9 98/206/9
f 98/206/9 96/155/9 102/157/9
f 106/158/8 108/161/10 107/159/10
f 108/161/10 92/138/1 91/140/1
