# Blender v3.4.1 OBJ File: 'environment.blend'
# www.blender.org
o Rock_1_Icosphere
v 0.278873 0.330774 0.766582
v -0.595686 0.237513 0.405296
v -0.563233 0.186940 -0.366347
v 0.808240 0.298571 -0.041198
v 0.062374 0.921053 0.018416
v 0.935731 0.127828 0.095514
v 0.955148 -0.125500 0.256799
v 0.862504 -0.378014 0.389550
v 0.839316 -0.377240 -0.473851
v 0.934150 -0.129440 -0.347683
v 0.950134 0.122506 -0.196201
v 0.166124 0.139230 0.907612
v 0.004482 -0.125055 0.978014
v -0.153364 -0.377977 0.903316
v 0.688995 -0.377996 0.628459
v 0.597119 -0.121816 0.768931
v 0.443242 0.146160 0.823708
v -0.803533 0.106837 0.376285
v -0.937964 -0.127127 0.252730
v -0.954819 -0.378012 0.094311
v -0.434953 -0.377544 0.812352
v -0.587855 -0.120192 0.767677
v -0.607375 0.081340 0.576337
v -0.953508 -0.378188 -0.200107
v -0.926653 -0.132315 -0.347723
v -0.765365 0.073137 -0.388774
v 0.612294 -0.382571 -0.587894
v 0.675378 0.308563 0.166988
v 0.509531 0.311131 0.411366
v 0.407909 0.336185 0.591102
v 0.060782 0.325632 0.710573
v -0.212244 0.293625 0.623187
v -0.442891 0.290521 0.531917
v -0.682835 0.294343 0.205920
v -0.768093 0.330407 -0.031650
v -0.719865 0.304408 -0.247691
v 0.574110 0.295161 -0.366274
v 0.788252 0.362114 -0.254905
v 0.156662 0.962026 0.197923
v 0.220785 0.988136 0.393741
v 0.244671 0.528948 0.607503
v 0.669652 0.504798 -0.032620
v 0.564257 0.934241 -0.049033
v 0.301007 0.933427 -0.006017
v -0.142074 0.932668 0.146498
v -0.360393 0.711282 0.282037
v -0.486947 0.446799 0.334629
v -0.154225 0.885631 -0.086266
v -0.310003 0.497784 -0.136729
v -0.473057 0.336787 -0.243440
v 0.113113 0.883068 -0.199489
v 0.400630 0.878956 -0.287443
v 0.635585 0.626082 -0.283713
v -0.089405 0.514823 -0.209223
v -0.379699 0.693343 0.049436
v -0.564912 0.479246 -0.085713
v -0.569136 0.519796 0.143287
v -0.088117 0.911559 0.355879
v -0.283771 0.550513 0.483255
v -0.007208 0.580843 0.564752
v 0.434108 0.977910 0.181150
v 0.416652 0.559198 0.409084
v 0.473629 0.498169 0.180881
v 0.741657 0.097434 -0.359818
v 0.654537 -0.161276 -0.476742
v -0.876588 0.109698 -0.184718
v -0.997025 -0.126186 -0.053347
v -0.918306 0.135177 0.097113
v -0.395152 0.106103 0.764162
v -0.315180 -0.119345 0.935094
v -0.127547 0.127763 0.885538
v 0.643555 0.163125 0.633876
v 0.814149 -0.124830 0.537942
v 0.782758 0.150632 0.368067
v -0.725687 -0.183537 -0.517371
v -0.619190 -0.402787 -0.642371
v -0.838378 -0.401220 -0.461269
v -0.791464 -0.128314 0.526885
v -0.859465 -0.403074 0.371850
v -0.668806 -0.403123 0.634617
v 0.318096 -0.121842 0.918929
v 0.140015 -0.403259 0.897865
v 0.449186 -0.403157 0.797622
v 1.001789 -0.126865 -0.053299
v 0.949020 -0.403259 0.109150
v 0.948761 -0.403290 -0.215562
v -0.395779 -0.423918 -0.789464
v 0.255605 0.553937 -0.374432
v 0.129782 0.557576 -0.342718
v 0.349487 0.658113 -0.369877
v 0.339691 0.417880 -0.389931
v 0.420849 0.297489 -0.401340
v 0.342683 0.172103 -0.445880
v 0.010083 0.177611 -0.457451
v -0.112491 0.377750 -0.274119
v -0.137019 0.425852 -0.224191
v -0.244926 0.307927 -0.292538
v -0.362389 0.301176 -0.276489
v -0.384877 0.231039 -0.342020
v -0.441621 0.147394 -0.404776
v 0.456910 0.048899 -0.461471
v 0.463913 -0.077232 -0.503874
v 0.458660 0.172783 -0.424845
v 0.268623 -0.129262 -0.570083
v 0.428968 -0.278266 -0.599571
v -0.365604 0.011862 -0.503383
v 0.386603 -0.334910 -0.638680
v -0.563069 -0.007813 -0.489571
v -0.550816 -0.118934 -0.564924
v -0.592808 -0.180778 -0.599448
v -0.470720 -0.270076 -0.675688
v -0.491136 -0.361043 -0.731104
v 0.019764 -0.139626 -0.619322
v 0.204975 0.075158 -0.491561
v -0.197984 -0.090239 -0.596715
v 0.851275 -0.436808 0.354992
v 0.821396 -0.436808 0.414399
v -0.123964 -0.436808 0.881666
v -0.189729 -0.436808 0.871525
v -0.936167 -0.436808 0.050044
v -0.925421 -0.436808 0.115669
v -0.379756 -0.436808 -0.794556
v -0.400068 -0.436808 -0.785333
v -0.371846 -0.436808 -0.798766
v 0.587337 -0.436808 -0.608825
v 0.639760 -0.436808 -0.578491
v 0.699918 -0.436808 0.581658
v -0.386595 -0.436808 0.807826
v -0.935288 -0.436808 -0.156178
v 0.797968 -0.436808 -0.499314
v 0.430856 -0.436808 -0.652543
v 0.389724 -0.436808 -0.682956
v -0.592288 -0.436808 -0.656989
v -0.627356 -0.436808 -0.628728
v -0.815323 -0.436808 -0.473149
v -0.836936 -0.436808 -0.434852
v -0.924460 -0.436808 -0.221588
v -0.854956 -0.436808 0.344053
v -0.836066 -0.436808 0.381968
v -0.671179 -0.436808 0.609243
v -0.640993 -0.436808 0.638885
v -0.446073 -0.436808 0.777236
v 0.115088 -0.436808 0.884947
v 0.156788 -0.436808 0.878737
v 0.424295 -0.436808 0.791967
v 0.461777 -0.436808 0.772427
v 0.652644 -0.436808 0.628446
v 0.929048 -0.436808 0.128869
v 0.936027 -0.436808 0.087291
v 0.935814 -0.436808 -0.193748
v 0.928392 -0.436808 -0.234900
v 0.832789 -0.436808 -0.443480
v 0.204949 -0.436808 -0.734039
v -0.350425 -0.436808 -0.798350
v -0.265213 -0.436808 -0.796940
v 0.196725 -0.436808 -0.736140
v -0.230496 -0.436808 -0.799451
v -0.166534 -0.436808 -0.796594
v -0.217205 -0.436808 -0.801971
v -0.192634 -0.436808 -0.801231
v -0.206155 -0.436808 -0.803079
vt 0.777377 0.531417
vt 0.775995 0.531278
vt 0.774305 0.531510
vt 0.696369 0.550096
vt 0.676809 0.555560
vt 0.670256 0.559352
vt 0.650480 0.569249
vt 0.646127 0.576229
vt 0.634177 0.602301
vt 0.633249 0.607445
vt 0.633223 0.642575
vt 0.634095 0.647772
vt 0.643816 0.676037
vt 0.647551 0.683463
vt 0.662736 0.704371
vt 0.668645 0.710219
vt 0.692504 0.728217
vt 0.697189 0.730659
vt 0.730627 0.741506
vt 0.724607 0.539909
vt 0.735840 0.742282
vt 0.765721 0.741872
vt 0.773942 0.740604
vt 0.725635 0.539646
vt 0.798550 0.732642
vt 0.805985 0.728818
vt 0.830350 0.711524
vt 0.834123 0.707819
vt 0.854734 0.679410
vt 0.857095 0.674670
vt 0.771043 0.532089
vt 0.865904 0.646122
vt 0.828645 0.553073
vt 0.867247 0.637919
vt 0.867137 0.612141
vt 0.865783 0.603965
vt 0.854843 0.577307
vt 0.852141 0.572520
vt 0.824262 0.549540
vt 0.783377 0.532046
vt 0.800234 0.533497
vt 0.797695 0.532344
vt 0.794029 0.531870
vt 0.796707 0.531818
vt 0.701510 0.546294
vt 0.779038 0.531732
vt 0.300776 0.187611
vt 0.295455 0.196826
vt 0.288640 0.185022
vt 0.118960 0.187606
vt 0.113637 0.196826
vt 0.106819 0.185017
vt 0.834094 0.185021
vt 0.846230 0.187610
vt 0.840909 0.196826
vt 0.661192 0.184397
vt 0.664223 0.187938
vt 0.659483 0.183820
vt 0.470647 0.185348
vt 0.482652 0.187510
vt 0.477273 0.196826
vt 0.256817 0.185019
vt 0.075036 0.184956
vt 0.795455 0.196826
vt 0.438894 0.184571
vt 0.181819 0.314921
vt 0.227273 0.314921
vt 0.204546 0.354286
vt 0.000000 0.314921
vt 0.045455 0.314921
vt 0.022727 0.354286
vt 0.750000 0.354286
vt 0.727273 0.314921
vt 0.772727 0.314921
vt 0.363637 0.314921
vt 0.409091 0.314921
vt 0.386364 0.354286
vt 0.431819 0.433017
vt 0.477273 0.433017
vt 0.454546 0.472382
vt 0.409091 0.393651
vt 0.454546 0.393651
vt 0.431819 0.354286
vt 0.476272 0.393651
vt 0.489350 0.412099
vt 0.466704 0.372593
vt 0.454546 0.314921
vt 0.465068 0.354286
vt 0.463668 0.330722
vt 0.464801 0.314921
vt 0.613637 0.433017
vt 0.659091 0.433017
vt 0.636364 0.472382
vt 0.636364 0.393651
vt 0.601560 0.412099
vt 0.634557 0.393651
vt 0.681818 0.393651
vt 0.635955 0.392944
vt 0.637295 0.392039
vt 0.667082 0.368127
vt 0.681488 0.354286
vt 0.694462 0.336821
vt 0.704546 0.354286
vt 0.709544 0.314921
vt 0.795455 0.433017
vt 0.840909 0.433017
vt 0.818182 0.472382
vt 0.772727 0.393651
vt 0.818182 0.393651
vt 0.795455 0.354286
vt 0.863636 0.393651
vt 0.840909 0.354286
vt 0.886364 0.354286
vt 0.818182 0.314921
vt 0.863636 0.314921
vt 0.909091 0.314921
vt 0.068182 0.433017
vt 0.113637 0.433017
vt 0.090910 0.472382
vt 0.045455 0.393651
vt 0.090910 0.393651
vt 0.068182 0.354286
vt 0.136365 0.393651
vt 0.113637 0.354286
vt 0.159092 0.354286
vt 0.090909 0.314921
vt 0.136364 0.314921
vt 0.250001 0.433017
vt 0.295455 0.433017
vt 0.272728 0.472382
vt 0.227273 0.393651
vt 0.272728 0.393651
vt 0.250001 0.354286
vt 0.318182 0.393651
vt 0.295455 0.354286
vt 0.340910 0.354286
vt 0.272728 0.314921
vt 0.318182 0.314921
vt 0.386364 0.275556
vt 0.409091 0.236191
vt 0.431819 0.275556
vt 0.431819 0.196826
vt 0.454546 0.236191
vt 0.469629 0.275556
vt 0.471985 0.266396
vt 0.466002 0.295078
vt 0.491738 0.221879
vt 0.484590 0.236191
vt 0.710983 0.286706
vt 0.750000 0.275556
vt 0.795455 0.275556
vt 0.772727 0.236191
vt 0.818182 0.236191
vt 0.840909 0.275556
vt 0.863636 0.236191
vt 0.886364 0.275556
vt 0.022727 0.275556
vt 0.045455 0.236191
vt 0.068182 0.275556
vt 0.068182 0.196826
vt 0.090910 0.236191
vt 0.113637 0.275556
vt 0.136364 0.236191
vt 0.159092 0.275556
vt 0.204546 0.275556
vt 0.227273 0.236191
vt 0.250001 0.275556
vt 0.250001 0.196826
vt 0.272728 0.236191
vt 0.295455 0.275556
vt 0.318182 0.236191
vt 0.340910 0.275556
vt 0.514345 0.196826
vt 0.510102 0.189587
vt 0.709629 0.275556
vt 0.708056 0.269476
vt 0.697229 0.236191
vt 0.727273 0.236191
vt 0.690023 0.221980
vt 0.671737 0.196826
vt 0.704546 0.196826
vt 0.750000 0.196826
vt 0.665456 0.185802
vt 0.700776 0.190297
vt 0.707692 0.191376
vt 0.746730 0.191161
vt 0.753549 0.190680
vt 0.790146 0.187631
vt 0.802256 0.185046
vt 0.931818 0.275556
vt 0.909091 0.236191
vt 0.886364 0.196826
vt 0.954545 0.236191
vt 0.931818 0.196826
vt 0.977273 0.196826
vt 0.882973 0.190952
vt 0.889436 0.191504
vt 0.928750 0.191511
vt 0.935205 0.190960
vt 0.971920 0.187555
vt 0.984126 0.184956
vt 0.181819 0.236191
vt 0.159092 0.196826
vt 0.204546 0.196826
vt 0.155717 0.190980
vt 0.162150 0.191529
vt 0.201480 0.191516
vt 0.207930 0.190965
vt 0.244679 0.187609
vt 0.363637 0.236191
vt 0.340910 0.196826
vt 0.386364 0.196826
vt 0.337535 0.190980
vt 0.343968 0.191529
vt 0.383309 0.191534
vt 0.389743 0.190973
vt 0.426436 0.187502
vt 0.604631 0.890292
vt 0.555592 0.792767
vt 0.550197 0.830176
vt 0.616667 0.855613
vt 0.614225 0.835278
vt 0.603981 0.817441
vt 0.587356 0.807996
vt 0.568601 0.798122
vt 0.538560 0.788849
vt 0.520737 0.786900
vt 0.512219 0.786947
vt 0.484084 0.792151
vt 0.472118 0.797011
vt 0.448475 0.813567
vt 0.444953 0.817046
vt 0.440216 0.824240
vt 0.443742 0.930855
vt 0.440003 0.924818
vt 0.441429 0.927419
vt 0.450252 0.937666
vt 0.471008 0.952220
vt 0.484084 0.957849
vt 0.511911 0.963248
vt 0.516994 0.963321
vt 0.524271 0.962185
vt 0.545502 0.956106
vt 0.561220 0.946889
vt 0.574672 0.935489
vt 0.585281 0.923205
vt 0.603632 0.893047
vt 0.604244 0.891693
vt 0.436485 0.911565
vt 0.436832 0.915556
vt 0.440537 0.824242
vt 0.435125 0.894907
vt 0.518369 0.916646
vt 0.508545 0.865544
vt 0.439226 0.906384
vt 0.518937 0.192812
vt 0.437851 0.908262
vt 0.438035 0.902700
vn 0.0000 -1.0000 0.0000
vn 0.8633 -0.3680 0.3455
vn 0.8640 -0.2496 0.4373
vn 0.7892 -0.3339 0.5154
vn -0.0602 -0.3711 0.9266
vn -0.1448 -0.3065 0.9408
vn -0.2455 -0.3390 0.9082
vn -0.9423 -0.3320 0.0439
vn -0.9014 -0.3674 0.2292
vn -0.9598 -0.2306 0.1597
vn -0.4474 -0.2130 -0.8686
vn -0.2861 0.2510 -0.9248
vn -0.0635 0.5039 -0.8614
vn 0.4646 0.0824 -0.8817
vn 0.3438 0.1962 -0.9183
vn 0.3709 0.2507 -0.8942
vn 0.7342 -0.3340 0.5911
vn -0.3336 -0.3394 0.8795
vn -0.9548 -0.2200 -0.1997
vn 0.5802 -0.0554 -0.8126
vn 0.2328 0.6456 0.7273
vn 0.6445 0.6081 0.4635
vn 0.3083 0.5094 0.8034
vn -0.6040 0.6135 0.5087
vn -0.5261 0.5660 0.6347
vn -0.6940 0.4900 0.5275
vn -0.0829 0.6614 -0.7455
vn -0.1248 0.5868 -0.8001
vn -0.4893 0.6680 -0.5607
vn 0.7680 0.6054 0.2089
vn 0.7615 0.4424 -0.4737
vn 0.8282 0.4330 0.3558
vn -0.0541 0.9791 -0.1961
vn -0.2479 0.7375 -0.6282
vn -0.0678 0.9796 -0.1890
vn 0.6780 0.7351 0.0018
vn 0.1281 0.7047 -0.6979
vn 0.7116 0.3561 -0.6056
vn -0.1342 0.2531 -0.9581
vn -0.3643 0.3650 -0.8568
vn -0.0347 0.2721 -0.9616
vn 0.2885 0.2156 -0.9329
vn 0.1381 0.1700 -0.9757
vn 0.2116 0.2197 -0.9523
vn 0.1253 0.2836 -0.9507
vn -0.4454 0.7156 -0.5381
vn -0.4324 0.3265 -0.8405
vn -0.1053 0.4540 -0.8847
vn -0.2841 0.5159 -0.8082
vn -0.3466 0.5367 -0.7693
vn -0.3630 0.4871 -0.7943
vn -0.1567 0.6137 -0.7738
vn -0.0808 0.6503 -0.7553
vn -0.0463 0.6337 -0.7722
vn -0.0379 0.5869 -0.8088
vn -0.4061 0.9138 -0.0030
vn -0.6738 0.6725 -0.3062
vn -0.4400 0.7681 -0.4651
vn -0.6896 0.6301 0.3569
vn -0.7465 0.6359 0.1957
vn -0.7415 0.6707 -0.0183
vn -0.6788 0.6153 0.4009
vn -0.1089 0.9883 -0.1064
vn -0.3686 0.7808 0.5044
vn -0.4764 0.4576 0.7507
vn 0.1554 0.8252 0.5430
vn -0.2020 0.4422 0.8739
vn -0.3117 0.5909 0.7441
vn -0.2038 0.6075 0.7678
vn 0.5578 0.7896 0.2556
vn 0.8366 0.3168 0.4470
vn 0.8320 0.3526 0.4283
vn 0.6974 0.6443 0.3139
vn 0.6180 0.6739 0.4048
vn 0.8690 0.3743 -0.3238
vn 0.7766 0.1528 -0.6111
vn 0.4114 0.2900 -0.8641
vn 0.7061 -0.0123 -0.7080
vn 0.3251 0.3306 -0.8860
vn 0.2431 0.3055 -0.9206
vn 0.2484 0.2971 -0.9220
vn 0.2116 0.2678 -0.9400
vn 0.2576 0.4144 -0.8729
vn 0.1779 0.4015 -0.8984
vn -0.1127 0.5554 -0.8239
vn -0.4995 0.4686 -0.7287
vn -0.8365 0.4549 -0.3056
vn -0.8403 0.1857 -0.5093
vn -0.9931 0.1091 -0.0427
vn -0.8625 0.4836 0.1493
vn -0.9362 0.0832 0.3413
vn -0.7048 0.5121 0.4910
vn -0.6070 0.5354 0.5873
vn -0.6417 0.1667 0.7487
vn -0.4483 0.5818 0.6786
vn -0.4504 -0.2862 0.8457
vn -0.3464 0.0890 0.9339
vn -0.2185 0.5555 0.8023
vn 0.0046 0.0104 0.9999
vn 0.0660 0.4285 0.9011
vn 0.4720 0.4087 0.7812
vn 0.6170 0.0052 0.7870
vn 0.6631 0.5510 0.5067
vn 0.6862 -0.2609 0.6790
vn 0.8277 0.0876 0.5543
vn 0.7161 0.5938 0.3670
vn 0.9417 0.0835 0.3259
vn 0.8506 0.4759 0.2235
vn 0.2713 0.3812 -0.8838
vn 0.3883 0.2878 -0.8754
vn -0.2035 0.5035 -0.8397
vn -0.2318 0.5525 -0.8006
vn -0.3635 0.4528 -0.8142
vn -0.5243 0.2818 -0.8035
vn -0.2272 0.4901 -0.8415
vn -0.4591 0.3168 -0.8300
vn -0.5870 0.0448 -0.8083
vn -0.7846 -0.1261 -0.6071
vn -0.5040 -0.1051 -0.8573
vn -0.5706 -0.0993 -0.8152
vn -0.6261 -0.1561 -0.7639
vn -0.7016 -0.2293 -0.6747
vn -0.8592 -0.3269 -0.3935
vn -0.8962 -0.3394 -0.2856
vn -0.9424 -0.3306 -0.0502
vn -0.7979 0.1415 0.5860
vn -0.8634 -0.2477 0.4395
vn -0.6896 -0.2664 0.6734
vn -0.8699 -0.3777 0.3173
vn -0.7747 -0.3875 0.4996
vn -0.7150 -0.3878 0.5817
vn -0.5719 -0.3801 0.7269
vn -0.4972 -0.3713 0.7841
vn 0.3213 -0.0269 0.9466
vn 0.1485 -0.3166 0.9369
vn 0.4408 -0.3022 0.8452
vn 0.0336 -0.3808 0.9241
vn 0.2356 -0.3898 0.8903
vn 0.3321 -0.3900 0.8588
vn 0.5185 -0.3796 0.7662
vn 0.5957 -0.3683 0.7138
vn 0.9996 0.0204 -0.0185
vn 0.9493 -0.2744 0.1535
vn 0.9459 -0.2543 -0.2014
vn 0.8893 -0.3790 0.2559
vn 0.9199 -0.3890 0.0503
vn 0.9189 -0.3907 -0.0550
vn 0.8797 -0.3472 -0.3248
vn 0.8423 -0.3152 -0.4372
vn 0.0378 0.3723 -0.9273
vn 0.3919 0.3767 -0.8393
vn 0.2278 0.4172 -0.8798
vn 0.0135 0.5993 -0.8004
vn -0.1205 0.5212 -0.8449
vn -0.0424 0.5529 -0.8322
vn 0.1786 0.4348 -0.8826
vn 0.1557 0.4335 -0.8876
vn -0.1238 0.5174 -0.8468
vn 0.1420 0.4456 -0.8839
vn -0.0033 0.4912 -0.8711
vn -0.1225 0.5108 -0.8509
vn 0.1319 0.4473 -0.8846
s off
f 159/1/1 161/2/1 160/3/1
f 131/4/1 125/5/1 126/6/1
f 126/6/1 130/7/1 152/8/1
f 152/8/1 151/9/1 126/6/1
f 151/9/1 150/10/1 126/6/1
f 150/10/1 149/11/1 126/6/1
f 149/11/1 148/12/1 131/4/1
f 148/12/1 116/13/1 131/4/1
f 116/13/1 117/14/1 131/4/1
f 117/14/1 127/15/1 131/4/1
f 127/15/1 147/16/1 131/4/1
f 147/16/1 146/17/1 131/4/1
f 146/17/1 145/18/1 131/4/1
f 145/18/1 144/19/1 153/20/1
f 144/19/1 143/21/1 153/20/1
f 145/18/1 153/20/1 131/4/1
f 143/21/1 118/22/1 153/20/1
f 118/22/1 119/23/1 156/24/1
f 119/23/1 128/25/1 156/24/1
f 128/25/1 142/26/1 156/24/1
f 142/26/1 141/27/1 156/24/1
f 141/27/1 140/28/1 156/24/1
f 140/28/1 139/29/1 156/24/1
f 139/29/1 138/30/1 158/31/1
f 138/30/1 121/32/1 134/33/1
f 121/32/1 120/34/1 134/33/1
f 120/34/1 129/35/1 134/33/1
f 129/35/1 137/36/1 134/33/1
f 137/36/1 136/37/1 134/33/1
f 136/37/1 135/38/1 134/33/1
f 134/33/1 133/39/1 158/31/1
f 158/31/1 133/39/1 155/40/1
f 133/39/1 123/41/1 155/40/1
f 123/41/1 122/42/1 154/43/1
f 155/40/1 123/41/1 154/43/1
f 122/42/1 124/44/1 154/43/1
f 139/29/1 158/31/1 156/24/1
f 138/30/1 134/33/1 158/31/1
f 153/20/1 118/22/1 156/24/1
f 149/11/1 131/4/1 126/6/1
f 153/20/1 132/45/1 131/4/1
f 158/31/1 157/46/1 160/3/1
f 158/31/1 155/40/1 157/46/1
f 157/46/1 159/1/1 160/3/1
s 1
f 116/47/2 8/48/3 117/49/4
f 118/50/5 14/51/6 119/52/7
f 120/53/8 121/54/9 20/55/10
f 122/56/11 87/57/12 124/58/13
f 126/59/14 125/60/15 27/61/16
f 8/48/3 127/62/17 117/49/4
f 14/51/6 128/63/18 119/52/7
f 24/64/19 120/53/8 20/55/10
f 27/61/16 130/65/20 126/59/14
f 1/66/21 30/67/22 41/68/23
f 2/69/24 33/70/25 47/71/26
f 50/72/27 3/73/28 36/74/29
f 4/75/30 38/76/31 42/77/32
f 44/78/33 51/79/34 5/80/35
f 43/81/36 52/82/37 44/78/33
f 42/77/32 53/83/38 43/81/36
f 44/78/33 52/82/37 51/79/34
f 51/79/34 88/84/39 89/85/40
f 43/81/36 53/83/38 52/82/37
f 53/83/38 90/86/41 52/82/37
f 90/86/41 88/84/39 52/82/37
f 42/77/32 38/76/31 53/83/38
f 53/83/38 38/76/31 37/87/42
f 91/88/43 37/87/42 92/89/44
f 92/89/44 37/87/42 93/90/45
f 51/91/34 48/92/46 5/93/35
f 54/94/47 89/95/40 94/96/48
f 54/94/47 48/92/46 51/91/34
f 49/97/49 48/92/46 54/94/47
f 95/98/50 54/94/47 94/96/48
f 54/94/47 95/98/50 96/99/51
f 49/97/49 96/99/51 97/100/52
f 98/101/53 49/97/49 97/100/52
f 99/102/54 50/103/27 98/101/53
f 3/73/28 99/102/54 100/104/55
f 48/105/46 45/106/56 5/107/35
f 49/108/49 55/109/57 48/105/46
f 50/72/27 56/110/58 49/108/49
f 48/105/46 55/109/57 45/106/56
f 55/109/57 46/111/59 45/106/56
f 49/108/49 56/110/58 55/109/57
f 56/110/58 57/112/60 55/109/57
f 55/109/57 57/112/60 46/111/59
f 57/112/60 47/113/26 46/111/59
f 56/110/58 50/72/27 36/74/29
f 36/74/29 35/114/61 56/110/58
f 56/110/58 35/114/61 57/112/60
f 35/114/61 34/115/62 57/112/60
f 57/112/60 34/115/62 47/113/26
f 34/115/62 2/116/24 47/113/26
f 45/117/56 39/118/63 5/119/35
f 46/120/59 58/121/64 45/117/56
f 47/71/26 59/122/65 46/120/59
f 45/117/56 58/121/64 39/118/63
f 58/121/64 40/123/66 39/118/63
f 46/120/59 59/122/65 58/121/64
f 59/122/65 60/124/67 58/121/64
f 58/121/64 60/124/67 40/123/66
f 60/124/67 41/125/23 40/123/66
f 47/71/26 33/70/25 59/122/65
f 33/70/25 32/126/68 59/122/65
f 59/122/65 32/126/68 60/124/67
f 32/126/68 31/127/69 60/124/67
f 60/124/67 31/127/69 41/125/23
f 31/127/69 1/66/21 41/125/23
f 39/128/63 44/129/33 5/130/35
f 40/131/66 61/132/70 39/128/63
f 41/68/23 62/133/71 40/131/66
f 39/128/63 61/132/70 44/129/33
f 61/132/70 43/134/36 44/129/33
f 40/131/66 62/133/71 61/132/70
f 62/133/71 63/135/72 61/132/70
f 61/132/70 63/135/72 43/134/36
f 63/135/72 42/136/32 43/134/36
f 41/68/23 30/67/22 62/133/71
f 30/67/22 29/137/73 62/133/71
f 62/133/71 29/137/73 63/135/72
f 29/137/73 28/138/74 63/135/72
f 63/135/72 28/138/74 42/136/32
f 28/138/74 4/75/30 42/136/32
f 11/139/75 38/76/31 4/75/30
f 11/139/75 10/140/76 64/141/77
f 10/140/76 9/142/78 65/143/79
f 38/76/31 11/139/75 64/141/77
f 38/76/31 64/141/77 37/87/42
f 64/141/77 10/140/76 65/143/79
f 101/144/80 65/143/79 102/145/81
f 64/141/77 103/146/82 37/87/42
f 103/146/82 93/90/45 37/87/42
f 65/143/79 9/142/78 27/61/16
f 105/147/83 65/143/79 27/61/16
f 102/145/81 65/143/79 104/148/84
f 3/73/28 100/104/55 106/149/85
f 36/74/29 3/73/28 26/150/86
f 66/151/87 26/150/86 25/152/88
f 24/64/19 67/153/89 25/152/88
f 36/74/29 26/150/86 66/151/87
f 66/151/87 35/114/61 36/74/29
f 25/152/88 67/153/89 66/151/87
f 67/153/89 68/154/90 66/151/87
f 66/151/87 68/154/90 35/114/61
f 68/154/90 34/115/62 35/114/61
f 24/64/19 20/55/10 67/153/89
f 20/55/10 19/155/91 67/153/89
f 67/153/89 19/155/91 68/154/90
f 19/155/91 18/156/92 68/154/90
f 68/154/90 18/156/92 34/115/62
f 18/156/92 2/116/24 34/115/62
f 23/157/93 33/70/25 2/69/24
f 22/158/94 69/159/95 23/157/93
f 21/160/96 70/161/97 22/158/94
f 23/157/93 69/159/95 33/70/25
f 69/159/95 32/126/68 33/70/25
f 22/158/94 70/161/97 69/159/95
f 70/161/97 71/162/98 69/159/95
f 69/159/95 71/162/98 32/126/68
f 71/162/98 31/127/69 32/126/68
f 21/160/96 14/51/6 70/161/97
f 14/51/6 13/163/99 70/161/97
f 70/161/97 13/163/99 71/162/98
f 13/163/99 12/164/100 71/162/98
f 71/162/98 12/164/100 31/127/69
f 12/164/100 1/66/21 31/127/69
f 17/165/101 30/67/22 1/66/21
f 16/166/102 72/167/103 17/165/101
f 15/168/104 73/169/105 16/166/102
f 17/165/101 72/167/103 30/67/22
f 72/167/103 29/137/73 30/67/22
f 16/166/102 73/169/105 72/167/103
f 73/169/105 74/170/106 72/167/103
f 72/167/103 74/170/106 29/137/73
f 74/170/106 28/138/74 29/137/73
f 15/168/104 8/48/3 73/169/105
f 8/48/3 7/171/107 73/169/105
f 73/169/105 7/171/107 74/170/106
f 7/171/107 6/172/108 74/170/106
f 74/170/106 6/172/108 28/138/74
f 6/172/108 4/75/30 28/138/74
f 27/61/16 107/173/109 105/147/83
f 27/61/16 125/60/15 131/174/110
f 108/175/111 3/73/28 106/149/85
f 109/176/112 110/177/113 75/178/114
f 111/179/115 112/180/116 76/181/117
f 108/175/111 75/178/114 26/150/86
f 26/150/86 75/178/114 25/152/88
f 110/177/113 76/181/117 75/178/114
f 75/178/114 76/181/117 77/182/118
f 25/152/88 75/178/114 77/182/118
f 25/152/88 77/182/118 24/64/19
f 112/180/116 123/183/119 133/184/120
f 133/184/120 134/185/121 76/181/117
f 76/181/117 135/186/122 77/182/118
f 135/186/122 136/187/123 77/182/118
f 24/64/19 136/187/123 137/188/124
f 137/188/124 129/189/125 24/64/19
f 18/156/92 23/190/93 2/116/24
f 19/155/91 78/191/126 18/156/92
f 20/55/10 79/192/127 19/155/91
f 18/156/92 78/191/126 23/190/93
f 78/191/126 22/193/94 23/190/93
f 19/155/91 79/192/127 78/191/126
f 79/192/127 80/194/128 78/191/126
f 78/191/126 80/194/128 22/193/94
f 80/194/128 21/195/96 22/193/94
f 20/55/10 138/196/129 79/192/127
f 138/196/129 139/197/130 79/192/127
f 79/192/127 140/198/131 80/194/128
f 141/199/132 80/194/128 140/198/131
f 21/195/96 141/199/132 142/200/133
f 128/201/18 21/195/96 142/200/133
f 12/164/100 17/165/101 1/66/21
f 13/163/99 81/202/134 12/164/100
f 14/51/6 82/203/135 13/163/99
f 12/164/100 81/202/134 17/165/101
f 81/202/134 16/166/102 17/165/101
f 13/163/99 82/203/135 81/202/134
f 82/203/135 83/204/136 81/202/134
f 81/202/134 83/204/136 16/166/102
f 83/204/136 15/168/104 16/166/102
f 143/205/137 14/51/6 118/50/5
f 144/206/138 82/203/135 143/205/137
f 145/207/139 82/203/135 144/206/138
f 146/208/140 83/204/136 145/207/139
f 15/168/104 146/208/140 147/209/141
f 127/62/17 15/168/104 147/209/141
f 6/172/108 11/139/75 4/75/30
f 7/171/107 84/210/142 6/172/108
f 8/48/3 85/211/143 7/171/107
f 6/172/108 84/210/142 11/139/75
f 84/210/142 10/140/76 11/139/75
f 7/171/107 85/211/143 84/210/142
f 85/211/143 86/212/144 84/210/142
f 84/210/142 86/212/144 10/140/76
f 10/140/76 86/212/144 9/142/78
f 148/213/145 8/48/3 116/47/2
f 149/214/146 85/211/143 148/213/145
f 86/212/144 149/214/146 150/215/147
f 151/216/148 86/212/144 150/215/147
f 9/142/78 151/216/148 152/217/149
f 130/65/20 9/142/78 152/217/149
f 94/218/48 93/219/45 114/220/150
f 94/218/48 89/221/40 88/222/39
f 88/222/39 90/223/41 91/224/43
f 91/224/43 92/225/44 93/219/45
f 93/219/45 103/226/82 101/227/80
f 101/227/80 102/228/81 104/229/84
f 104/229/84 105/230/83 107/231/109
f 132/232/151 153/233/152 107/231/109
f 87/234/12 154/235/153 124/236/13
f 87/234/12 112/237/116 111/238/115
f 111/238/115 110/239/113 109/240/112
f 109/240/112 108/241/111 106/242/85
f 106/242/85 100/243/55 99/244/54
f 99/244/54 98/245/53 97/246/52
f 97/246/52 96/247/51 95/248/50
f 94/218/48 88/222/39 91/224/43
f 97/246/52 95/248/50 94/218/48
f 106/242/85 99/244/54 97/246/52
f 111/238/115 109/240/112 106/242/85
f 111/238/115 154/235/153 87/234/12
f 153/233/152 104/229/84 107/231/109
f 93/219/45 101/227/80 104/229/84
f 94/218/48 91/224/43 93/219/45
f 106/242/85 97/246/52 94/218/48
f 111/238/115 157/249/154 155/250/155
f 156/251/156 158/252/157 104/229/84
f 115/253/158 157/249/154 106/242/85
f 94/218/48 104/229/84 113/254/159
f 158/252/157 113/254/159 104/229/84
f 113/254/159 161/255/160 94/218/48
f 93/219/45 104/229/84 114/220/150
f 104/229/84 94/218/48 114/220/150
f 106/242/85 94/218/48 115/253/158
f 161/255/160 115/253/158 94/218/48
f 122/56/11 123/183/119 87/57/12
f 8/48/3 15/168/104 127/62/17
f 14/51/6 21/160/96 128/63/18
f 24/64/19 129/189/125 120/53/8
f 27/61/16 9/142/78 130/65/20
f 51/79/34 52/82/37 88/84/39
f 53/83/38 91/88/43 90/86/41
f 91/88/43 53/83/38 37/87/42
f 54/94/47 51/91/34 89/95/40
f 49/97/49 54/94/47 96/99/51
f 98/101/53 50/103/27 49/97/49
f 3/73/28 50/103/27 99/102/54
f 101/144/80 64/141/77 65/143/79
f 64/141/77 101/144/80 103/146/82
f 105/147/83 104/148/84 65/143/79
f 132/256/151 107/173/109 131/174/110
f 107/173/109 27/61/16 131/174/110
f 108/175/111 26/150/86 3/73/28
f 108/175/111 109/176/112 75/178/114
f 110/177/113 111/179/115 76/181/117
f 133/184/120 76/181/117 112/180/116
f 112/180/116 87/57/12 123/183/119
f 76/181/117 134/185/121 135/186/122
f 24/64/19 77/182/118 136/187/123
f 20/55/10 121/54/9 138/196/129
f 79/192/127 139/197/130 140/198/131
f 21/195/96 80/194/128 141/199/132
f 143/205/137 82/203/135 14/51/6
f 145/207/139 83/204/136 82/203/135
f 15/168/104 83/204/136 146/208/140
f 148/213/145 85/211/143 8/48/3
f 86/212/144 85/211/143 149/214/146
f 9/142/78 86/212/144 151/216/148
f 111/238/115 155/250/155 154/235/153
f 153/233/152 156/251/156 104/229/84
f 111/238/115 106/242/85 157/249/154
f 115/253/158 159/257/161 157/249/154
f 158/252/157 160/258/162 113/254/159
f 113/254/159 160/258/162 161/255/160
f 161/255/160 159/257/161 115/253/158
