# Blender v3.4.1 OBJ File: 'animals.blend'
# www.blender.org
o Seagull_Plane.001
v -0.120581 0.119909 -0.358873
v -0.942383 0.425392 -0.435091
v -0.120581 0.119909 0.457750
v -0.942383 0.425392 0.176606
v -1.450629 0.458424 -0.344539
v -1.459240 0.458424 0.030986
v -1.769154 0.439462 -0.248613
v -1.652820 0.439214 -0.048905
v -0.000000 0.205867 0.399631
v -0.000000 0.205867 -0.174638
v -0.124851 0.160425 0.399631
v -0.124851 0.160425 -0.174638
v -0.191283 0.045362 0.399631
v -0.191283 0.045362 -0.174638
v -0.168211 -0.085483 0.399631
v -0.168211 -0.085483 -0.174638
v -0.066432 -0.170886 0.399631
v -0.066432 -0.170886 -0.174638
v 0.066432 -0.170886 0.399631
v 0.066432 -0.170886 -0.174638
v 0.168211 -0.085483 0.399631
v 0.168211 -0.085483 -0.174638
v 0.191283 0.045362 0.399631
v 0.191283 0.045362 -0.174638
v 0.124851 0.160425 0.399631
v 0.124851 0.160425 -0.174638
v -0.084757 0.167619 -0.426861
v -0.000000 0.198468 -0.426861
v -0.129856 0.089506 -0.426861
v -0.114193 0.000679 -0.426861
v -0.045098 -0.057298 -0.426861
v 0.045098 -0.057298 -0.426861
v 0.114193 0.000679 -0.426861
v 0.129856 0.089506 -0.426861
v 0.084757 0.167619 -0.426861
v -0.000000 0.185419 0.770333
v -0.042362 0.170001 0.770333
v -0.064902 0.130960 0.770333
v -0.057074 0.086565 0.770333
v -0.022540 0.057588 0.770333
v 0.022540 0.057588 0.770333
v 0.057074 0.086565 0.770333
v 0.064902 0.130960 0.770333
v 0.042362 0.170001 0.770333
v -0.104998 0.168908 -0.553807
v 0.000000 0.194390 -0.596777
v -0.160866 0.094974 -0.553807
v -0.141463 -0.015065 -0.553807
v -0.055868 -0.057234 -0.553807
v 0.055868 -0.057234 -0.553807
v 0.141464 -0.015065 -0.553807
v 0.160866 0.094974 -0.553807
v 0.104998 0.168908 -0.553807
v -0.053722 0.089013 -0.775835
v 0.000000 0.108567 -0.775835
v -0.059843 0.082659 -0.775835
v -0.052625 0.055029 -0.775835
v -0.028585 0.034818 -0.775835
v 0.028585 0.034818 -0.775835
v 0.052625 0.055029 -0.775835
v 0.059843 0.082659 -0.775835
v 0.053722 0.089013 -0.775835
v -0.024282 0.078691 -1.011359
v 0.000000 0.087529 -1.011359
v -0.027048 0.075819 -1.011359
v -0.023786 0.063331 -1.011359
v -0.012920 0.054196 -1.011359
v 0.012920 0.054196 -1.011359
v 0.023786 0.063331 -1.011359
v 0.027048 0.075819 -1.011359
v 0.024282 0.078691 -1.011359
v 0.088656 0.165774 0.541831
v -0.088656 0.165774 0.541831
v 0.466881 0.168028 1.185740
v -0.466881 0.168028 1.185740
v -0.120581 0.112205 -0.358873
v -0.942383 0.417688 -0.435091
v -0.120581 0.112205 0.457750
v -0.942383 0.417688 0.176606
v -1.450629 0.450720 -0.344539
v -1.459240 0.450720 0.030986
v -1.769154 0.431758 -0.248613
v -1.652820 0.432005 -0.048905
v 1.633590 0.439214 -0.048905
v 1.749924 0.439462 -0.248613
v 1.440010 0.458424 0.030986
v 1.431400 0.458424 -0.344539
v 0.923153 0.425392 0.176606
v 0.101351 0.119909 0.457750
v 0.923153 0.425392 -0.435091
v 0.101351 0.119909 -0.358873
v 1.633590 0.432005 -0.048905
v 1.749924 0.431758 -0.248613
v 1.440010 0.450720 0.030986
v 1.431400 0.450720 -0.344539
v 0.923153 0.417688 0.176606
v 0.101351 0.112205 0.457750
v 0.923153 0.417688 -0.435091
v 0.101351 0.112205 -0.358873
v 0.088656 0.159020 0.541831
v -0.088656 0.159020 0.541831
v 0.466881 0.156766 1.185740
v -0.466881 0.156766 1.185740
v 0.038769 0.166827 0.541831
v -0.038769 0.166827 0.541831
v -0.155627 0.168028 1.413076
v 0.155627 0.168028 1.413076
v -0.038769 0.157967 0.541831
v 0.038769 0.157967 0.541831
v 0.155627 0.156766 1.413076
v -0.155627 0.156766 1.413076
vt 0.358138 0.041483
vt 0.118108 0.336275
vt 0.004614 0.004614
vt 0.358138 0.361308
vt 0.135617 0.539249
vt 0.298531 0.552888
vt 0.157759 0.662169
vt 0.974847 0.194478
vt 0.903742 0.487973
vt 0.906742 0.193519
vt 0.851714 0.195397
vt 0.677103 0.487404
vt 0.605041 0.193468
vt 0.673280 0.192625
vt 0.608864 0.488247
vt 0.552065 0.195751
vt 0.367365 0.437690
vt 0.422310 0.733665
vt 0.370021 0.732474
vt 0.419654 0.438881
vt 0.490560 0.733051
vt 0.487905 0.438267
vt 0.542837 0.730919
vt 0.833198 0.434209
vt 0.790499 0.306658
vt 0.827229 0.304758
vt 0.710918 0.438343
vt 0.785381 0.731716
vt 0.717206 0.733053
vt 0.779093 0.437007
vt 0.839486 0.728918
vt 0.482178 0.919477
vt 0.493925 0.306772
vt 0.542837 0.240341
vt 0.529414 0.305325
vt 0.744217 0.307565
vt 0.540182 0.436135
vt 0.447592 0.307189
vt 0.612781 0.620093
vt 0.555887 0.490530
vt 0.971847 0.488932
vt 0.922765 0.617801
vt 0.648745 0.618544
vt 0.885408 0.619076
vt 0.848714 0.489851
vt 0.395342 0.928705
vt 0.433034 0.950466
vt 0.418148 0.991365
vt 0.464436 0.919073
vt 0.660562 0.005675
vt 0.678537 0.004900
vt 0.949448 0.004614
vt 0.972556 0.004939
vt 0.701690 0.004614
vt 0.930777 0.005251
vt 0.816325 0.920074
vt 0.793194 0.920528
vt 0.505335 0.919269
vt 0.397501 0.241649
vt 0.469891 0.126260
vt 0.441475 0.242651
vt 0.599750 0.685127
vt 0.969000 0.618453
vt 0.917572 0.681909
vt 0.793984 0.242017
vt 0.412095 0.306381
vt 0.871293 0.683489
vt 0.839486 0.239664
vt 0.498873 0.242134
vt 0.695070 0.617971
vt 0.644302 0.683208
vt 0.761167 0.126722
vt 0.760222 0.005217
vt 0.762230 0.005158
vt 0.915092 0.799399
vt 0.784448 0.125518
vt 0.486024 0.126114
vt 0.701690 0.682498
vt 0.672491 0.798748
vt 0.497986 0.125685
vt 0.659958 0.799287
vt 0.974847 0.682716
vt 0.919284 0.799338
vt 0.756726 0.126852
vt 0.310512 0.700945
vt 0.305819 0.706527
vt 0.293388 0.694308
vt 0.447391 0.125747
vt 0.469034 0.004874
vt 0.927869 0.920909
vt 0.772752 0.004614
vt 0.476326 0.004808
vt 0.682056 0.920095
vt 0.675440 0.920197
vt 0.481733 0.004614
vt 0.669775 0.920441
vt 0.948589 0.799751
vt 0.929764 0.920881
vt 0.100124 0.959960
vt 0.097796 0.680413
vt 0.129633 0.959960
vt 0.358138 0.041483
vt 0.118108 0.336275
vt 0.358138 0.361308
vt 0.135617 0.539249
vt 0.157759 0.662169
vt 0.298531 0.552888
vt 0.157759 0.662169
vt 0.298531 0.552888
vt 0.135617 0.539249
vt 0.358138 0.361308
vt 0.118108 0.336275
vt 0.358138 0.041483
vt 0.298531 0.552888
vt 0.157759 0.662169
vt 0.135617 0.539249
vt 0.358138 0.361308
vt 0.118108 0.336275
vt 0.358138 0.041483
vt 0.004614 0.004614
vt 0.097796 0.680413
vt 0.100124 0.959960
vt 0.129633 0.959960
vt 0.188651 0.959960
vt 0.190978 0.680413
vt 0.159142 0.959960
vt 0.188651 0.959960
vt 0.190978 0.680413
vt 0.284161 0.680413
vt 0.159142 0.959960
vt 0.244215 0.671185
vt 0.367365 0.962045
vt 0.375286 0.940284
vt 0.418148 0.932726
vt 0.433034 0.973625
vt 0.395342 0.995386
vt 0.375286 0.983807
vt 0.834683 0.919125
vt 0.523072 0.918545
vt 0.736650 0.243141
vt 0.687129 0.798523
vt 0.299404 0.708203
vt 0.297929 0.706782
vt 0.297929 0.681834
vt 0.305819 0.682089
vt 0.299404 0.680413
vt 0.310512 0.687671
vt 0.458865 0.004642
vt 0.943009 0.921068
vt 0.004614 0.680413
vt 0.004614 0.004614
vt 0.244215 0.671185
vt 0.244215 0.671185
vt 0.004614 0.004614
vt 0.244215 0.671185
vt 0.004614 0.680413
vt 0.284161 0.680413
vn 0.3484 0.9373 0.0000
vn 0.2347 0.9721 0.0000
vn 0.2130 0.9770 0.0003
vn -0.0002 1.0000 -0.0005
vn 0.0081 0.9999 0.0073
vn -0.0763 0.9970 0.0126
vn -0.0000 0.9996 0.0274
vn -0.6533 0.7559 -0.0417
vn -0.6558 0.7522 0.0639
vn -0.9784 0.1471 0.1455
vn -0.9827 0.1527 -0.1049
vn -0.8353 -0.5038 0.2201
vn -0.8458 -0.5067 -0.1670
vn -0.3241 -0.9097 0.2598
vn -0.3295 -0.9223 -0.2022
vn 0.3241 -0.9097 0.2598
vn 0.3295 -0.9223 -0.2022
vn 0.8353 -0.5038 0.2201
vn 0.8458 -0.5067 -0.1670
vn 0.9784 0.1471 0.1455
vn -0.0000 0.9999 -0.0146
vn 0.6207 0.7839 0.0158
vn -0.0000 1.0000 -0.0016
vn 0.9827 0.1527 -0.1049
vn 0.6558 0.7522 0.0639
vn 0.6533 0.7559 -0.0417
vn 0.2035 -0.5229 0.8278
vn 0.8608 -0.5026 -0.0798
vn 0.9703 0.2254 -0.0875
vn 0.9776 0.2103 0.0094
vn 0.3344 -0.9194 -0.2070
vn -0.3344 -0.9194 -0.2070
vn -0.6207 0.7839 0.0158
vn -0.8608 -0.5026 -0.0798
vn -0.9776 0.2103 0.0094
vn -0.4476 0.5808 0.6799
vn -0.5430 -0.2740 0.7938
vn -0.2035 -0.5229 0.8278
vn 0.0000 0.7529 0.6581
vn -0.6588 0.1602 0.7350
vn 0.4476 0.5808 0.6799
vn 0.6588 0.1602 0.7350
vn 0.5430 -0.2740 0.7938
vn -0.2596 -0.9516 -0.1645
vn 0.3368 -0.9051 -0.2594
vn 0.2596 -0.9516 -0.1645
vn -0.5977 0.7934 -0.1151
vn 0.5977 0.7934 -0.1151
vn -0.9703 0.2254 -0.0875
vn -0.0000 0.9645 -0.2639
vn 0.7971 -0.5947 -0.1046
vn -0.7971 -0.5947 -0.1046
vn 0.5347 0.8033 -0.2624
vn 0.7228 0.1906 -0.6643
vn 0.3836 0.6053 -0.6975
vn -0.9217 0.2420 -0.3030
vn -0.0000 0.9614 -0.2753
vn 0.8118 -0.5143 -0.2764
vn -0.8118 -0.5143 -0.2764
vn 0.9217 0.2420 -0.3030
vn -0.3368 -0.9051 -0.2595
vn -0.5347 0.8033 -0.2624
vn -0.2475 -0.6957 -0.6744
vn -0.6095 -0.3913 -0.6895
vn -0.0000 0.7418 -0.6707
vn 0.2475 -0.6957 -0.6744
vn -0.7227 0.1907 -0.6643
vn 0.6095 -0.3913 -0.6895
vn -0.3836 0.6053 -0.6975
vn -0.0162 0.9999 -0.0038
vn 0.0002 1.0000 -0.0019
vn -0.0097 0.9999 -0.0027
vn -0.3484 -0.9373 0.0000
vn -0.2347 -0.9721 0.0000
vn -0.2130 -0.9770 -0.0003
vn -0.0008 -1.0000 0.0005
vn 0.0752 -0.9971 -0.0117
vn -0.0085 -0.9999 -0.0068
vn 0.0763 0.9970 0.0126
vn -0.0081 0.9999 0.0073
vn 0.0002 1.0000 -0.0005
vn -0.2130 0.9770 0.0003
vn -0.2347 0.9721 0.0000
vn -0.3484 0.9373 0.0000
vn 0.0085 -0.9999 -0.0068
vn -0.0752 -0.9971 -0.0117
vn 0.0008 -1.0000 0.0005
vn 0.2130 -0.9770 -0.0003
vn 0.2347 -0.9721 0.0000
vn 0.3484 -0.9373 0.0000
vn 0.0002 -1.0000 -0.0019
vn -0.0162 -0.9999 -0.0038
vn -0.0097 -0.9999 -0.0027
vn 0.0162 -0.9999 -0.0038
vn -0.0002 -1.0000 -0.0019
vn 0.0097 -0.9999 -0.0027
vn 0.0162 0.9999 -0.0038
vn -0.0002 1.0000 -0.0019
vn -0.0018 1.0000 -0.0025
vn 0.0097 0.9999 -0.0027
vn -0.0502 0.9983 0.0305
vn 0.0018 1.0000 -0.0025
vn 0.0509 -0.9983 -0.0284
vn 0.0502 0.9983 0.0305
vn -0.0509 -0.9983 -0.0284
vn 0.0018 -1.0000 -0.0025
vn -0.0018 -1.0000 -0.0025
s 1
f 1/1/1 4/2/2 3/3/1
f 2/4/3 6/5/4 4/2/2
f 5/6/5 8/7/6 6/5/4
f 9/8/7 12/9/8 11/10/9
f 12/9/8 13/11/10 11/10/9
f 14/12/11 15/13/12 13/14/10
f 16/15/13 17/16/14 15/13/12
f 18/17/15 19/18/16 17/19/14
f 20/20/17 21/21/18 19/18/16
f 22/22/19 23/23/20 21/21/18
f 10/24/21 35/25/22 28/26/23
f 24/27/24 25/28/25 23/29/20
f 26/30/26 9/31/7 25/28/25
f 21/21/18 41/32/27 19/18/16
f 33/33/28 52/34/29 34/35/30
f 26/30/26 34/36/30 35/25/22
f 24/37/24 33/33/28 34/35/30
f 22/22/19 32/38/31 33/33/28
f 18/17/15 32/38/31 20/20/17
f 16/15/13 31/39/32 18/40/15
f 10/41/21 27/42/33 12/9/8
f 14/12/11 30/43/34 16/15/13
f 12/9/8 29/44/35 14/45/11
f 37/46/36 39/47/37 41/48/27
f 19/18/16 40/49/38 17/19/14
f 15/13/12 40/50/38 39/51/37
f 9/8/7 37/52/36 36/53/39
f 13/14/10 39/51/37 38/54/40
f 11/10/9 38/55/40 37/52/36
f 9/31/7 44/56/41 25/28/25
f 25/28/25 43/57/42 23/29/20
f 23/23/20 42/58/43 21/21/18
f 49/59/44 59/60/45 50/61/46
f 30/43/34 49/62/44 31/39/32
f 28/63/23 45/64/47 27/42/33
f 34/36/30 53/65/48 35/25/22
f 31/66/32 50/61/46 32/38/31
f 29/44/35 45/64/47 47/67/49
f 28/26/23 53/65/48 46/68/50
f 33/33/28 50/61/46 51/69/51
f 29/70/35 48/71/52 30/43/34
f 62/72/53 70/73/54 71/74/55
f 45/64/47 56/75/56 47/67/49
f 46/68/50 62/72/53 55/76/57
f 50/61/46 60/77/58 51/69/51
f 47/78/49 57/79/59 48/71/52
f 52/34/29 60/77/58 61/80/60
f 49/62/44 57/79/59 58/81/61
f 46/82/50 54/83/62 45/64/47
f 53/65/48 61/84/60 62/72/53
f 67/85/63 66/86/64 64/87/65
f 58/88/61 68/89/66 59/60/45
f 54/83/62 65/90/67 56/75/56
f 55/76/57 71/74/55 64/91/65
f 59/60/45 69/92/68 60/77/58
f 57/79/59 65/93/67 66/94/64
f 60/77/58 70/95/54 61/80/60
f 58/81/61 66/94/64 67/96/63
f 55/97/57 63/98/69 54/83/62
f 73/99/70 106/100/71 105/101/72
f 76/102/73 79/103/74 77/104/75
f 81/105/76 77/104/75 79/103/74
f 83/106/77 80/107/78 81/105/76
f 84/108/79 87/109/80 86/110/81
f 86/110/81 90/111/82 88/112/83
f 91/113/84 88/112/83 90/111/82
f 95/114/85 92/115/86 94/116/87
f 98/117/88 94/116/87 96/118/89
f 99/119/90 96/118/89 97/120/90
f 111/121/91 101/122/92 108/123/93
f 100/124/94 110/125/95 109/126/96
f 109/126/96 111/121/91 108/123/93
f 72/127/97 107/128/98 74/129/99
f 105/101/72 107/128/98 104/130/100
f 1/1/1 2/4/3 4/2/2
f 2/4/3 5/6/5 6/5/4
f 5/6/5 7/131/101 8/7/6
f 9/8/7 10/41/21 12/9/8
f 12/9/8 14/45/11 13/11/10
f 14/12/11 16/15/13 15/13/12
f 16/15/13 18/40/15 17/16/14
f 18/17/15 20/20/17 19/18/16
f 20/20/17 22/22/19 21/21/18
f 22/22/19 24/37/24 23/23/20
f 10/24/21 26/30/26 35/25/22
f 24/27/24 26/30/26 25/28/25
f 26/30/26 10/24/21 9/31/7
f 21/21/18 42/58/43 41/32/27
f 33/33/28 51/69/51 52/34/29
f 26/30/26 24/27/24 34/36/30
f 24/37/24 22/22/19 33/33/28
f 22/22/19 20/20/17 32/38/31
f 18/17/15 31/66/32 32/38/31
f 16/15/13 30/43/34 31/39/32
f 10/41/21 28/63/23 27/42/33
f 14/12/11 29/70/35 30/43/34
f 12/9/8 27/42/33 29/44/35
f 44/132/41 36/133/39 37/46/36
f 37/46/36 38/134/40 39/47/37
f 39/47/37 40/135/38 41/48/27
f 41/48/27 42/136/43 43/137/42
f 43/137/42 44/132/41 41/48/27
f 44/132/41 37/46/36 41/48/27
f 19/18/16 41/32/27 40/49/38
f 15/13/12 17/16/14 40/50/38
f 9/8/7 11/10/9 37/52/36
f 13/14/10 15/13/12 39/51/37
f 11/10/9 13/11/10 38/55/40
f 9/31/7 36/138/39 44/56/41
f 25/28/25 44/56/41 43/57/42
f 23/23/20 43/139/42 42/58/43
f 49/59/44 58/88/61 59/60/45
f 30/43/34 48/71/52 49/62/44
f 28/63/23 46/82/50 45/64/47
f 34/36/30 52/140/29 53/65/48
f 31/66/32 49/59/44 50/61/46
f 29/44/35 27/42/33 45/64/47
f 28/26/23 35/25/22 53/65/48
f 33/33/28 32/38/31 50/61/46
f 29/70/35 47/78/49 48/71/52
f 62/72/53 61/84/60 70/73/54
f 45/64/47 54/83/62 56/75/56
f 46/68/50 53/65/48 62/72/53
f 50/61/46 59/60/45 60/77/58
f 47/78/49 56/141/56 57/79/59
f 52/34/29 51/69/51 60/77/58
f 49/62/44 48/71/52 57/79/59
f 46/82/50 55/97/57 54/83/62
f 53/65/48 52/140/29 61/84/60
f 65/142/67 63/143/69 66/86/64
f 63/143/69 64/87/65 66/86/64
f 64/87/65 71/144/55 69/145/68
f 71/144/55 70/146/54 69/145/68
f 64/87/65 69/145/68 68/147/66
f 68/147/66 67/85/63 64/87/65
f 58/88/61 67/148/63 68/89/66
f 54/83/62 63/98/69 65/90/67
f 55/76/57 62/72/53 71/74/55
f 59/60/45 68/89/66 69/92/68
f 57/79/59 56/141/56 65/93/67
f 60/77/58 69/92/68 70/95/54
f 58/81/61 57/79/59 66/94/64
f 55/97/57 64/149/65 63/98/69
f 73/99/70 75/150/102 106/100/71
f 76/102/73 78/151/73 79/103/74
f 81/105/76 80/107/78 77/104/75
f 83/106/77 82/152/103 80/107/78
f 84/108/79 85/153/104 87/109/80
f 86/110/81 87/109/80 90/111/82
f 91/113/84 89/154/84 88/112/83
f 95/114/85 93/155/105 92/115/86
f 98/117/88 95/114/85 94/116/87
f 99/119/90 98/117/88 96/118/89
f 111/121/91 103/156/106 101/122/92
f 100/124/94 102/157/107 110/125/95
f 109/126/96 110/125/95 111/121/91
f 72/127/97 104/130/100 107/128/98
f 105/101/72 106/100/71 107/128/98
