# Blender v3.4.1 OBJ File: ''
# www.blender.org
o Cube
v -0.072858 0.475923 1.000000
v -0.072858 -0.475923 1.000000
v -0.072858 0.475923 -1.000000
v -0.072858 -0.475923 -1.000000
v 0.072858 0.475923 1.000000
v 0.072858 -0.475923 1.000000
v 0.072858 0.475923 -1.000000
v 0.072858 -0.475923 -1.000000
vt 0.937751 0.854394
vt 0.875501 0.000000
vt 0.875501 0.854394
vt 1.000000 0.041142
vt 0.937751 0.447768
vt 1.000000 0.447768
vt 0.406626 0.000000
vt 0.813252 0.854394
vt 0.813252 0.000000
vt 0.875501 0.854394
vt 0.000000 0.000000
vt 0.406626 0.854394
vt 0.406626 0.000000
vt 1.000000 0.447768
vt 0.937751 0.854394
vt 1.000000 0.854394
vt 0.937751 0.000000
vt 0.937751 0.041142
vt 0.406626 0.854394
vt 0.875501 0.000000
vt 0.000000 0.854394
vt 0.937751 0.447768
vn 0.0000 1.0000 0.0000
vn 0.0000 0.0000 -1.0000
vn 1.0000 0.0000 0.0000
vn 0.0000 -1.0000 0.0000
vn -1.0000 0.0000 0.0000
vn 0.0000 0.0000 1.0000
s off
f 5/1/1 3/2/1 1/3/1
f 3/4/2 8/5/2 4/6/2
f 7/7/3 6/8/3 8/9/3
f 2/10/4 8/9/4 6/8/4
f 1/11/5 4/12/5 2/13/5
f 5/14/6 2/15/6 6/16/6
f 5/1/1 7/17/1 3/2/1
f 3/4/2 7/18/2 8/5/2
f 7/7/3 5/19/3 6/8/3
f 2/10/4 4/20/4 8/9/4
f 1/11/5 3/21/5 4/12/5
f 5/14/6 1/22/6 2/15/6
