# Blender v3.4.1 OBJ File: ''
# www.blender.org
o Cylinder
v 0.000000 -0.435349 -0.115222
v 0.000000 0.245574 -0.115222
v 0.090084 -0.435349 -0.071840
v 0.090084 0.245574 -0.071840
v 0.112333 -0.435349 0.025639
v 0.112333 0.245574 0.025639
v 0.049993 -0.435349 0.103812
v 0.049993 0.245574 0.103812
v -0.049993 -0.435349 0.103812
v -0.049993 0.245574 0.103812
v -0.112333 -0.435349 0.025639
v -0.112333 0.245574 0.025639
v -0.090084 -0.435349 -0.071840
v -0.090084 0.245574 -0.071840
v 0.519007 0.565620 0.000000
v 0.479925 0.572511 0.082407
v 0.392108 0.587996 0.102760
v 0.321684 0.600413 0.045733
v 0.321684 0.600413 -0.045733
v 0.392108 0.587996 -0.102760
v 0.479925 0.572511 -0.082407
v 0.456407 0.920642 -0.000000
v 0.422039 0.900799 0.082407
v 0.344814 0.856213 0.102760
v 0.282884 0.820458 0.045733
v 0.282884 0.820458 -0.045733
v 0.344814 0.856213 -0.102760
v 0.422039 0.900799 -0.082407
v -0.456407 0.920642 -0.000000
v -0.422039 0.900799 0.082407
v -0.344814 0.856213 0.102760
v -0.282884 0.820458 0.045733
v -0.282884 0.820458 -0.045733
v -0.344814 0.856213 -0.102760
v -0.422039 0.900799 -0.082407
v -0.519007 0.565620 0.000000
v -0.479925 0.572511 0.082407
v -0.392108 0.587996 0.102760
v -0.321684 0.600413 0.045733
v -0.321684 0.600413 -0.045733
v -0.392108 0.587996 -0.102760
v -0.479925 0.572511 -0.082407
v -0.338758 0.253419 0.000000
v -0.313249 0.283819 0.082407
v -0.255930 0.352129 0.102760
v -0.209964 0.406909 0.045733
v -0.209964 0.406909 -0.045733
v -0.255930 0.352129 -0.102760
v -0.313249 0.283819 -0.082407
v 0.000000 0.130121 0.000000
v 0.000000 0.169806 0.082407
v 0.000000 0.258978 0.102760
v 0.000000 0.330488 0.045733
v 0.000000 0.330488 -0.045733
v 0.000000 0.258978 -0.102760
v 0.000000 0.169806 -0.082407
v 0.338758 0.253419 0.000000
v 0.313249 0.283819 0.082407
v 0.255930 0.352129 0.102760
v 0.209964 0.406909 0.045733
v 0.209964 0.406909 -0.045733
v 0.255930 0.352129 -0.102760
v 0.313249 0.283819 -0.082407
vt 1.000000 1.000000
vt 0.857143 0.500000
vt 1.000000 0.500000
vt 0.857143 1.000000
vt 0.714286 0.500000
vt 0.714286 1.000000
vt 0.571429 0.500000
vt 0.571429 1.000000
vt 0.428571 0.500000
vt 0.428571 1.000000
vt 0.285714 0.500000
vt 0.250000 0.490000
vt 0.016017 0.196595
vt 0.354132 0.033767
vt 0.285714 1.000000
vt 0.142857 0.500000
vt 0.142857 1.000000
vt 0.000000 0.500000
vt 0.516017 0.196595
vt 0.562360 0.399638
vt 0.937640 0.399638
vt 0.666667 0.571429
vt 0.555556 0.714286
vt 0.555556 0.571429
vt 0.666667 0.714286
vt 0.555556 0.857143
vt 0.666667 0.857143
vt 0.555556 1.000000
vt 0.666667 -0.000000
vt 0.555556 0.142857
vt 0.555556 -0.000000
vt 0.666667 0.285714
vt 0.555556 0.285714
vt 0.666667 0.428571
vt 0.555556 0.428571
vt 0.000000 0.571429
vt 0.111111 0.714286
vt 0.000000 0.714286
vt 0.111111 0.857143
vt 0.000000 0.857143
vt 0.111111 1.000000
vt 0.000000 1.000000
vt 0.111111 -0.000000
vt 0.000000 0.142857
vt 0.000000 -0.000000
vt 0.111111 0.142857
vt 0.000000 0.285714
vt 0.111111 0.285714
vt 0.000000 0.428571
vt 0.111111 0.428571
vt 0.222222 0.571429
vt 0.111111 0.571429
vt 0.222222 0.714286
vt 0.222222 0.857143
vt 0.222222 -0.000000
vt 0.222222 0.285714
vt 0.222222 0.428571
vt 0.333333 0.571429
vt 0.333333 0.714286
vt 0.333333 0.857143
vt 0.222222 1.000000
vt 0.333333 0.142857
vt 0.222222 0.142857
vt 0.333333 0.285714
vt 0.333333 0.428571
vt 0.444444 0.714286
vt 0.444444 0.857143
vt 0.444444 1.000000
vt 0.333333 1.000000
vt 0.444444 -0.000000
vt 0.333333 -0.000000
vt 0.444444 0.142857
vt 0.444444 0.285714
vt 0.444444 0.428571
vt 0.444444 0.571429
vt 0.000000 0.000000
vt 0.000000 0.000000
vt 0.000000 0.000000
vt 0.000000 0.000000
vt 0.000000 0.000000
vt 0.000000 0.000000
vt 0.000000 0.000000
vt 0.000000 0.000000
vt 0.000000 0.000000
vt 0.000000 0.000000
vt 0.000000 0.000000
vt 0.000000 0.000000
vt 0.000000 0.000000
vt 0.483983 0.196595
vt 0.437640 0.399638
vt 0.062360 0.399638
vt 0.145868 0.033767
vt 0.000000 1.000000
vt 0.750000 0.490000
vt 0.983983 0.196595
vt 0.854132 0.033767
vt 0.645868 0.033767
vt 0.666667 1.000000
vt 0.666667 0.142857
vn 0.0000 0.6212 -0.7836
vn 0.6127 -0.6212 -0.4886
vn 0.0000 -0.6212 -0.7836
vn 0.6127 0.6212 -0.4886
vn 0.7640 -0.6212 0.1744
vn 0.7640 0.6212 0.1744
vn 0.3400 -0.6212 0.7060
vn 0.3400 0.6212 0.7060
vn -0.3400 -0.6212 0.7060
vn -0.3400 0.6212 0.7060
vn -0.7640 -0.6212 0.1744
vn -0.7640 0.6212 0.1744
vn -0.6127 -0.6212 -0.4886
vn -0.6127 0.6212 -0.4886
vn 0.5128 0.8585 0.0000
vn 0.6652 -0.1173 0.7374
vn 0.9848 -0.1736 0.0000
vn 0.2323 0.7445 0.6259
vn -0.1258 0.0222 0.9918
vn -0.4041 0.5031 0.7640
vn -0.8662 0.1527 0.4758
vn -0.8844 0.3369 0.3232
vn -0.8662 0.1527 -0.4758
vn -0.4041 0.5031 -0.7640
vn -0.1258 0.0222 -0.9918
vn 0.2323 0.7445 -0.6259
vn 0.6652 -0.1173 -0.7374
vn -0.5128 0.8585 0.0000
vn -0.6652 -0.1173 0.7374
vn -0.2323 0.7445 0.6259
vn 0.1258 0.0222 0.9918
vn 0.4041 0.5031 0.7640
vn 0.8662 0.1527 0.4758
vn 0.8844 0.3369 0.3232
vn 0.8844 0.3369 -0.3232
vn 0.8662 0.1527 -0.4758
vn 0.4041 0.5031 -0.7640
vn 0.1258 0.0222 -0.9918
vn -0.2323 0.7445 -0.6259
vn -0.6652 -0.1173 -0.7374
vn -0.6428 -0.7660 0.0000
vn -0.9848 -0.1736 -0.0000
vn -0.4342 -0.5175 0.7374
vn 0.0821 0.0978 0.9918
vn 0.5654 0.6738 0.4758
vn 0.0821 0.0978 -0.9918
vn -0.4342 -0.5175 -0.7374
vn 0.0000 -1.0000 0.0000
vn 0.0000 -0.6755 0.7374
vn 0.0000 0.1277 0.9918
vn -0.0000 0.8796 -0.4758
vn 0.5654 0.6738 -0.4758
vn -0.0000 0.1277 -0.9918
vn 0.0000 -0.6755 -0.7374
vn 0.4342 -0.5175 0.7374
vn -0.0821 0.0978 0.9918
vn -0.5654 0.6738 0.4758
vn -0.0000 0.8796 0.4758
vn -0.5654 0.6738 -0.4758
vn -0.0821 0.0978 -0.9918
vn 0.4342 -0.5175 -0.7374
vn 0.6428 -0.7660 0.0000
vn -0.8844 0.3369 -0.3232
s 1
f 2/1/1 3/2/2 1/3/3
f 4/4/4 5/5/5 3/2/2
f 6/6/6 7/7/7 5/5/5
f 8/8/8 9/9/9 7/7/7
f 10/10/10 11/11/11 9/9/9
f 2/12/1 12/13/12 8/14/8
f 12/15/12 13/16/13 11/11/11
f 14/17/14 1/18/3 13/16/13
f 11/19/11 13/20/13 3/21/2
f 22/22/15 16/23/16 15/24/17
f 23/25/18 17/26/19 16/23/16
f 24/27/20 18/28/21 17/26/19
f 25/29/22 19/30/23 18/31/21
f 19/30/23 27/32/24 20/33/25
f 20/33/25 28/34/26 21/35/27
f 21/35/27 22/22/15 15/24/17
f 29/36/28 37/37/29 30/38/30
f 30/38/30 38/39/31 31/40/32
f 31/40/32 39/41/33 32/42/34
f 39/43/33 33/44/35 32/45/34
f 40/46/36 34/47/37 33/44/35
f 41/48/38 35/49/39 34/47/37
f 42/50/40 29/36/28 35/49/39
f 43/51/41 37/37/29 36/52/42
f 44/53/43 38/39/31 37/37/29
f 45/54/44 39/41/33 38/39/31
f 46/55/45 40/46/36 39/43/33
f 40/46/36 48/56/46 41/48/38
f 41/48/38 49/57/47 42/50/40
f 42/50/40 43/51/41 36/52/42
f 50/58/48 44/53/43 43/51/41
f 51/59/49 45/54/44 44/53/43
f 52/60/50 46/61/45 45/54/44
f 46/55/45 54/62/51 47/63/52
f 47/63/52 55/64/53 48/56/46
f 48/56/46 56/65/54 49/57/47
f 49/57/47 50/58/48 43/51/41
f 50/58/48 58/66/55 51/59/49
f 51/59/49 59/67/56 52/60/50
f 52/60/50 60/68/57 53/69/58
f 60/70/57 54/62/51 53/71/58
f 61/72/59 55/64/53 54/62/51
f 62/73/60 56/65/54 55/64/53
f 63/74/61 50/58/48 56/65/54
f 57/75/62 16/23/16 58/66/55
f 58/66/55 17/26/19 59/67/56
f 59/67/56 18/28/21 60/68/57
f 18/31/21 61/72/59 60/70/57
f 19/30/23 62/73/60 61/72/59
f 20/33/25 63/74/61 62/73/60
f 21/35/27 57/75/62 63/74/61
f 35/76/39 33/77/35 34/78/37
f 29/79/28 33/77/35 35/76/39
f 29/79/28 32/45/34 33/77/35
f 30/80/30 32/45/34 29/79/28
f 30/80/30 31/81/32 32/45/34
f 26/82/63 22/83/15 27/84/24
f 25/85/22 24/86/20 26/82/63
f 26/82/63 24/86/20 23/87/18
f 22/83/15 28/88/26 27/84/24
f 22/83/15 26/82/63 23/87/18
f 2/1/1 4/4/4 3/2/2
f 4/4/4 6/6/6 5/5/5
f 6/6/6 8/8/8 7/7/7
f 8/8/8 10/10/10 9/9/9
f 10/10/10 12/15/12 11/11/11
f 6/89/6 4/90/4 2/12/1
f 2/12/1 14/91/14 12/13/12
f 12/13/12 10/92/10 8/14/8
f 8/14/8 6/89/6 2/12/1
f 12/15/12 14/17/14 13/16/13
f 14/17/14 2/93/1 1/18/3
f 13/20/13 1/94/3 3/21/2
f 3/21/2 5/95/5 7/96/7
f 7/96/7 9/97/9 3/21/2
f 9/97/9 11/19/11 3/21/2
f 22/22/15 23/25/18 16/23/16
f 23/25/18 24/27/20 17/26/19
f 24/27/20 25/98/22 18/28/21
f 25/29/22 26/99/63 19/30/23
f 19/30/23 26/99/63 27/32/24
f 20/33/25 27/32/24 28/34/26
f 21/35/27 28/34/26 22/22/15
f 29/36/28 36/52/42 37/37/29
f 30/38/30 37/37/29 38/39/31
f 31/40/32 38/39/31 39/41/33
f 39/43/33 40/46/36 33/44/35
f 40/46/36 41/48/38 34/47/37
f 41/48/38 42/50/40 35/49/39
f 42/50/40 36/52/42 29/36/28
f 43/51/41 44/53/43 37/37/29
f 44/53/43 45/54/44 38/39/31
f 45/54/44 46/61/45 39/41/33
f 46/55/45 47/63/52 40/46/36
f 40/46/36 47/63/52 48/56/46
f 41/48/38 48/56/46 49/57/47
f 42/50/40 49/57/47 43/51/41
f 50/58/48 51/59/49 44/53/43
f 51/59/49 52/60/50 45/54/44
f 52/60/50 53/69/58 46/61/45
f 46/55/45 53/71/58 54/62/51
f 47/63/52 54/62/51 55/64/53
f 48/56/46 55/64/53 56/65/54
f 49/57/47 56/65/54 50/58/48
f 50/58/48 57/75/62 58/66/55
f 51/59/49 58/66/55 59/67/56
f 52/60/50 59/67/56 60/68/57
f 60/70/57 61/72/59 54/62/51
f 61/72/59 62/73/60 55/64/53
f 62/73/60 63/74/61 56/65/54
f 63/74/61 57/75/62 50/58/48
f 57/75/62 15/24/17 16/23/16
f 58/66/55 16/23/16 17/26/19
f 59/67/56 17/26/19 18/28/21
f 18/31/21 19/30/23 61/72/59
f 19/30/23 20/33/25 62/73/60
f 20/33/25 21/35/27 63/74/61
f 21/35/27 15/24/17 57/75/62
