# Blender v3.4.1 OBJ File: 'stairs.blend'
# www.blender.org
o Cube.003_Cube.005
v 1.000000 0.372813 0.533221
v 1.000000 0.458330 0.896455
v -1.000000 0.372813 0.533221
v -1.000000 0.458330 0.896455
v 1.000000 0.404268 0.533221
v 1.000000 0.417992 0.552449
v 1.000000 0.413998 0.538853
v -1.000000 0.417992 0.552449
v -1.000000 0.404268 0.533221
v -1.000000 0.413998 0.538853
v 1.000000 0.416940 0.876627
v 1.000000 0.431093 0.896455
v 1.000000 0.421059 0.890647
v -1.000000 0.431093 0.896455
v -1.000000 0.416940 0.876627
v -1.000000 0.421059 0.890647
v 1.000000 0.371691 0.533518
v 1.000000 0.457208 0.896751
v -1.000000 0.371691 0.533518
v -1.000000 0.457208 0.896751
v 1.000000 0.403146 0.533518
v 1.000000 0.416870 0.552745
v 1.000000 0.412876 0.539149
v -1.000000 0.416870 0.552745
v -1.000000 0.403146 0.533518
v -1.000000 0.412876 0.539149
v 1.000000 0.415818 0.876923
v 1.000000 0.429972 0.896751
v 1.000000 0.419937 0.890943
v -1.000000 0.429972 0.896751
v -1.000000 0.415818 0.876923
v -1.000000 0.419937 0.890943
v 1.000000 0.169686 0.178241
v 1.000000 0.255203 0.541474
v -1.000000 0.169686 0.178241
v -1.000000 0.255203 0.541474
v 1.000000 0.201140 0.178241
v 1.000000 0.214865 0.197468
v 1.000000 0.210871 0.183873
v -1.000000 0.214865 0.197468
v -1.000000 0.201140 0.178241
v -1.000000 0.210871 0.183873
v 1.000000 0.213813 0.521646
v 1.000000 0.227966 0.541474
v 1.000000 0.217932 0.535667
v -1.000000 0.227966 0.541474
v -1.000000 0.213813 0.521646
v -1.000000 0.217932 0.535667
v 1.000000 0.168564 0.178537
v 1.000000 0.254081 0.541771
v -1.000000 0.168564 0.178537
v -1.000000 0.254081 0.541771
v 1.000000 0.200019 0.178537
v 1.000000 0.213743 0.197765
v 1.000000 0.209749 0.184169
v -1.000000 0.213743 0.197765
v -1.000000 0.200019 0.178537
v -1.000000 0.209749 0.184169
v 1.000000 0.212691 0.521943
v 1.000000 0.226844 0.541771
v 1.000000 0.216810 0.535963
v -1.000000 0.226844 0.541771
v -1.000000 0.212691 0.521943
v -1.000000 0.216810 0.535963
v 1.000000 -0.028773 -0.181617
v 1.000000 0.056744 0.181617
v -1.000000 -0.028773 -0.181617
v -1.000000 0.056744 0.181617
v 1.000000 0.002682 -0.181617
v 1.000000 0.016406 -0.162389
v 1.000000 0.012412 -0.175985
v -1.000000 0.016406 -0.162389
v -1.000000 0.002682 -0.181617
v -1.000000 0.012412 -0.175985
v 1.000000 0.015354 0.161789
v 1.000000 0.029507 0.181617
v 1.000000 0.019473 0.175809
v -1.000000 0.029507 0.181617
v -1.000000 0.015354 0.161789
v -1.000000 0.019473 0.175809
v 1.000000 -0.029895 -0.181320
v 1.000000 0.055622 0.181913
v -1.000000 -0.029895 -0.181320
v -1.000000 0.055622 0.181913
v 1.000000 0.001560 -0.181320
v 1.000000 0.015284 -0.162093
v 1.000000 0.011290 -0.175689
v -1.000000 0.015284 -0.162093
v -1.000000 0.001560 -0.181320
v -1.000000 0.011290 -0.175689
v 1.000000 0.014233 0.162085
v 1.000000 0.028386 0.181913
v 1.000000 0.018351 0.176105
v -1.000000 0.028386 0.181913
v -1.000000 0.014233 0.162085
v -1.000000 0.018351 0.176105
v 1.000000 -0.219891 -0.536456
v 1.000000 -0.134374 -0.173223
v -1.000000 -0.219891 -0.536456
v -1.000000 -0.134374 -0.173223
v 1.000000 -0.188437 -0.536456
v 1.000000 -0.174712 -0.517228
v 1.000000 -0.178706 -0.530824
v -1.000000 -0.174712 -0.517228
v -1.000000 -0.188437 -0.536456
v -1.000000 -0.178706 -0.530824
v 1.000000 -0.175764 -0.193051
v 1.000000 -0.161611 -0.173223
v 1.000000 -0.171645 -0.179030
v -1.000000 -0.161611 -0.173223
v -1.000000 -0.175764 -0.193051
v -1.000000 -0.171645 -0.179030
v 1.000000 -0.221013 -0.536159
v 1.000000 -0.135496 -0.172926
v -1.000000 -0.221013 -0.536159
v -1.000000 -0.135496 -0.172926
v 1.000000 -0.189558 -0.536159
v 1.000000 -0.175834 -0.516932
v 1.000000 -0.179828 -0.530528
v -1.000000 -0.175834 -0.516932
v -1.000000 -0.189558 -0.536159
v -1.000000 -0.179828 -0.530528
v 1.000000 -0.176886 -0.192754
v 1.000000 -0.162733 -0.172926
v 1.000000 -0.172767 -0.178734
v -1.000000 -0.162733 -0.172926
v -1.000000 -0.176886 -0.192754
v -1.000000 -0.172767 -0.178734
v 1.000000 -0.423018 -0.891436
v 1.000000 -0.337501 -0.528203
v -1.000000 -0.423018 -0.891436
v -1.000000 -0.337501 -0.528203
v 1.000000 -0.391564 -0.891436
v 1.000000 -0.377840 -0.872209
v 1.000000 -0.381833 -0.885805
v -1.000000 -0.377840 -0.872209
v -1.000000 -0.391564 -0.891436
v -1.000000 -0.381833 -0.885805
v 1.000000 -0.378891 -0.548031
v 1.000000 -0.364738 -0.528203
v 1.000000 -0.374772 -0.534011
v -1.000000 -0.364738 -0.528203
v -1.000000 -0.378891 -0.548031
v -1.000000 -0.374772 -0.534011
v 1.000000 -0.424140 -0.891140
v 1.000000 -0.338623 -0.527907
v -1.000000 -0.424140 -0.891140
v -1.000000 -0.338623 -0.527907
v 1.000000 -0.392686 -0.891140
v 1.000000 -0.378961 -0.871912
v 1.000000 -0.382955 -0.885508
v -1.000000 -0.378961 -0.871912
v -1.000000 -0.392686 -0.891140
v -1.000000 -0.382955 -0.885508
v 1.000000 -0.380013 -0.547735
v 1.000000 -0.365860 -0.527907
v 1.000000 -0.375894 -0.533714
v -1.000000 -0.365860 -0.527907
v -1.000000 -0.380013 -0.547735
v -1.000000 -0.375894 -0.533714
vt 0.187995 0.002772
vt 0.346195 0.997228
vt 0.187995 0.997228
vt 0.346195 0.002772
vt 0.353209 0.997228
vt 0.384802 0.002772
vt 0.390201 0.997228
vt 0.384802 0.997228
vt 0.405306 0.002772
vt 0.405306 0.997228
vt 0.180763 0.002772
vt 0.453689 0.997228
vt 0.448122 0.002772
vt 0.453689 0.002772
vt 0.435042 0.997228
vt 0.435042 0.002772
vt 0.168205 0.002772
vt 0.010005 0.997228
vt 0.010005 0.002772
vt 0.175218 0.002772
vt 0.168205 0.997228
vt 0.364152 0.002772
vt 0.358753 0.997228
vt 0.358753 0.002772
vt 0.379257 0.997228
vt 0.379257 0.002772
vt 0.002772 0.997228
vt 0.423930 0.997228
vt 0.429498 0.002772
vt 0.429498 0.997228
vt 0.410850 0.002772
vt 0.410850 0.997228
vt 0.187995 0.002772
vt 0.346195 0.997228
vt 0.187995 0.997228
vt 0.346195 0.002772
vt 0.353209 0.997228
vt 0.384802 0.002772
vt 0.390201 0.997228
vt 0.384802 0.997228
vt 0.405306 0.002772
vt 0.405306 0.997228
vt 0.180763 0.002772
vt 0.453689 0.997228
vt 0.448122 0.002772
vt 0.453689 0.002772
vt 0.435042 0.997228
vt 0.435042 0.002772
vt 0.168205 0.002772
vt 0.010005 0.997228
vt 0.010005 0.002772
vt 0.175218 0.002772
vt 0.168205 0.997228
vt 0.364152 0.002772
vt 0.358753 0.997228
vt 0.358753 0.002772
vt 0.379257 0.997228
vt 0.379257 0.002772
vt 0.002772 0.997228
vt 0.423930 0.997228
vt 0.429498 0.002772
vt 0.429498 0.997228
vt 0.410850 0.002772
vt 0.410850 0.997228
vt 0.187995 0.002772
vt 0.346195 0.997228
vt 0.187995 0.997228
vt 0.346195 0.002772
vt 0.353209 0.997228
vt 0.384802 0.002772
vt 0.390201 0.997228
vt 0.384802 0.997228
vt 0.405306 0.002772
vt 0.405306 0.997228
vt 0.180763 0.002772
vt 0.453689 0.997228
vt 0.448122 0.002772
vt 0.453689 0.002772
vt 0.435042 0.997228
vt 0.435042 0.002772
vt 0.168205 0.002772
vt 0.010005 0.997228
vt 0.010005 0.002772
vt 0.175218 0.002772
vt 0.168205 0.997228
vt 0.364152 0.002772
vt 0.358753 0.997228
vt 0.358753 0.002772
vt 0.379257 0.997228
vt 0.379257 0.002772
vt 0.002772 0.997228
vt 0.423930 0.997228
vt 0.429498 0.002772
vt 0.429498 0.997228
vt 0.410850 0.002772
vt 0.410850 0.997228
vt 0.187995 0.002772
vt 0.346195 0.997228
vt 0.187995 0.997228
vt 0.346195 0.002772
vt 0.353209 0.997228
vt 0.384802 0.002772
vt 0.390201 0.997228
vt 0.384802 0.997228
vt 0.405306 0.002772
vt 0.405306 0.997228
vt 0.180763 0.002772
vt 0.453689 0.997228
vt 0.448122 0.002772
vt 0.453689 0.002772
vt 0.435042 0.997228
vt 0.435042 0.002772
vt 0.168205 0.002772
vt 0.010005 0.997228
vt 0.010005 0.002772
vt 0.175218 0.002772
vt 0.168205 0.997228
vt 0.364152 0.002772
vt 0.358753 0.997228
vt 0.358753 0.002772
vt 0.379257 0.997228
vt 0.379257 0.002772
vt 0.002772 0.997228
vt 0.423930 0.997228
vt 0.429498 0.002772
vt 0.429498 0.997228
vt 0.410850 0.002772
vt 0.410850 0.997228
vt 0.187995 0.002772
vt 0.346195 0.997228
vt 0.187995 0.997228
vt 0.346195 0.002772
vt 0.353209 0.997228
vt 0.384802 0.002772
vt 0.390201 0.997228
vt 0.384802 0.997228
vt 0.405306 0.002772
vt 0.405306 0.997228
vt 0.180763 0.002772
vt 0.453689 0.997228
vt 0.448122 0.002772
vt 0.453689 0.002772
vt 0.435042 0.997228
vt 0.435042 0.002772
vt 0.168205 0.002772
vt 0.010005 0.997228
vt 0.010005 0.002772
vt 0.175218 0.002772
vt 0.168205 0.997228
vt 0.364152 0.002772
vt 0.358753 0.997228
vt 0.358753 0.002772
vt 0.379257 0.997228
vt 0.379257 0.002772
vt 0.002772 0.997228
vt 0.423930 0.997228
vt 0.429498 0.002772
vt 0.429498 0.997228
vt 0.410850 0.002772
vt 0.410850 0.997228
vt 0.353209 0.002772
vt 0.390201 0.002772
vt 0.180763 0.997228
vt 0.448122 0.997228
vt 0.175218 0.997228
vt 0.364152 0.997228
vt 0.002772 0.002772
vt 0.423930 0.002772
vt 0.353209 0.002772
vt 0.390201 0.002772
vt 0.180763 0.997228
vt 0.448122 0.997228
vt 0.175218 0.997228
vt 0.364152 0.997228
vt 0.002772 0.002772
vt 0.423930 0.002772
vt 0.353209 0.002772
vt 0.390201 0.002772
vt 0.180763 0.997228
vt 0.448122 0.997228
vt 0.175218 0.997228
vt 0.364152 0.997228
vt 0.002772 0.002772
vt 0.423930 0.002772
vt 0.353209 0.002772
vt 0.390201 0.002772
vt 0.180763 0.997228
vt 0.448122 0.997228
vt 0.175218 0.997228
vt 0.364152 0.997228
vt 0.002772 0.002772
vt 0.423930 0.002772
vt 0.353209 0.002772
vt 0.390201 0.002772
vt 0.180763 0.997228
vt 0.448122 0.997228
vt 0.175218 0.997228
vt 0.364152 0.997228
vt 0.002772 0.002772
vt 0.423930 0.002772
vn 0.0000 0.9900 -0.1408
vn 0.0000 0.7863 -0.6178
vn 0.0000 0.2593 -0.9658
vn 0.0000 0.0000 -1.0000
vn 0.0000 -0.9900 0.1408
vn 0.0000 -0.7863 0.6178
vn 0.0000 -0.2593 0.9658
vn 0.0000 0.0000 1.0000
s 1
f 11/1/1 8/2/1 15/3/1
f 6/4/1 10/5/2 8/2/1
f 7/6/2 9/7/3 10/8/2
f 9/7/3 1/9/4 3/10/4
f 15/3/1 13/11/2 11/1/1
f 16/12/2 12/13/3 13/14/2
f 12/13/3 4/15/4 2/16/4
f 24/17/5 27/18/5 31/19/5
f 26/20/6 22/21/5 24/17/5
f 25/22/7 23/23/6 26/24/6
f 17/25/8 25/22/7 19/26/8
f 29/27/6 31/19/5 27/18/5
f 28/28/7 32/29/6 29/30/6
f 20/31/8 28/28/7 18/32/8
f 43/33/1 40/34/1 47/35/1
f 38/36/1 42/37/2 40/34/1
f 39/38/2 41/39/3 42/40/2
f 41/39/3 33/41/4 35/42/4
f 47/35/1 45/43/2 43/33/1
f 48/44/2 44/45/3 45/46/2
f 44/45/3 36/47/4 34/48/4
f 56/49/5 59/50/5 63/51/5
f 58/52/6 54/53/5 56/49/5
f 57/54/7 55/55/6 58/56/6
f 49/57/8 57/54/7 51/58/8
f 61/59/6 63/51/5 59/50/5
f 60/60/7 64/61/6 61/62/6
f 52/63/8 60/60/7 50/64/8
f 75/65/1 72/66/1 79/67/1
f 70/68/1 74/69/2 72/66/1
f 71/70/2 73/71/3 74/72/2
f 73/71/3 65/73/4 67/74/4
f 79/67/1 77/75/2 75/65/1
f 80/76/2 76/77/3 77/78/2
f 76/77/3 68/79/4 66/80/4
f 88/81/5 91/82/5 95/83/5
f 90/84/6 86/85/5 88/81/5
f 89/86/7 87/87/6 90/88/6
f 81/89/8 89/86/7 83/90/8
f 93/91/6 95/83/5 91/82/5
f 92/92/7 96/93/6 93/94/6
f 84/95/8 92/92/7 82/96/8
f 107/97/1 104/98/1 111/99/1
f 102/100/1 106/101/2 104/98/1
f 103/102/2 105/103/3 106/104/2
f 105/103/3 97/105/4 99/106/4
f 111/99/1 109/107/2 107/97/1
f 112/108/2 108/109/3 109/110/2
f 108/109/3 100/111/4 98/112/4
f 120/113/5 123/114/5 127/115/5
f 122/116/6 118/117/5 120/113/5
f 121/118/7 119/119/6 122/120/6
f 113/121/8 121/118/7 115/122/8
f 125/123/6 127/115/5 123/114/5
f 124/124/7 128/125/6 125/126/6
f 116/127/8 124/124/7 114/128/8
f 139/129/1 136/130/1 143/131/1
f 134/132/1 138/133/2 136/130/1
f 135/134/2 137/135/3 138/136/2
f 137/135/3 129/137/4 131/138/4
f 143/131/1 141/139/2 139/129/1
f 144/140/2 140/141/3 141/142/2
f 140/141/3 132/143/4 130/144/4
f 152/145/5 155/146/5 159/147/5
f 154/148/6 150/149/5 152/145/5
f 153/150/7 151/151/6 154/152/6
f 145/153/8 153/150/7 147/154/8
f 157/155/6 159/147/5 155/146/5
f 156/156/7 160/157/6 157/158/6
f 148/159/8 156/156/7 146/160/8
f 11/1/1 6/4/1 8/2/1
f 6/4/1 7/161/2 10/5/2
f 7/6/2 5/162/3 9/7/3
f 9/7/3 5/162/3 1/9/4
f 15/3/1 16/163/2 13/11/2
f 16/12/2 14/164/3 12/13/3
f 12/13/3 14/164/3 4/15/4
f 24/17/5 22/21/5 27/18/5
f 26/20/6 23/165/6 22/21/5
f 25/22/7 21/166/7 23/23/6
f 17/25/8 21/166/7 25/22/7
f 29/27/6 32/167/6 31/19/5
f 28/28/7 30/168/7 32/29/6
f 20/31/8 30/168/7 28/28/7
f 43/33/1 38/36/1 40/34/1
f 38/36/1 39/169/2 42/37/2
f 39/38/2 37/170/3 41/39/3
f 41/39/3 37/170/3 33/41/4
f 47/35/1 48/171/2 45/43/2
f 48/44/2 46/172/3 44/45/3
f 44/45/3 46/172/3 36/47/4
f 56/49/5 54/53/5 59/50/5
f 58/52/6 55/173/6 54/53/5
f 57/54/7 53/174/7 55/55/6
f 49/57/8 53/174/7 57/54/7
f 61/59/6 64/175/6 63/51/5
f 60/60/7 62/176/7 64/61/6
f 52/63/8 62/176/7 60/60/7
f 75/65/1 70/68/1 72/66/1
f 70/68/1 71/177/2 74/69/2
f 71/70/2 69/178/3 73/71/3
f 73/71/3 69/178/3 65/73/4
f 79/67/1 80/179/2 77/75/2
f 80/76/2 78/180/3 76/77/3
f 76/77/3 78/180/3 68/79/4
f 88/81/5 86/85/5 91/82/5
f 90/84/6 87/181/6 86/85/5
f 89/86/7 85/182/7 87/87/6
f 81/89/8 85/182/7 89/86/7
f 93/91/6 96/183/6 95/83/5
f 92/92/7 94/184/7 96/93/6
f 84/95/8 94/184/7 92/92/7
f 107/97/1 102/100/1 104/98/1
f 102/100/1 103/185/2 106/101/2
f 103/102/2 101/186/3 105/103/3
f 105/103/3 101/186/3 97/105/4
f 111/99/1 112/187/2 109/107/2
f 112/108/2 110/188/3 108/109/3
f 108/109/3 110/188/3 100/111/4
f 120/113/5 118/117/5 123/114/5
f 122/116/6 119/189/6 118/117/5
f 121/118/7 117/190/7 119/119/6
f 113/121/8 117/190/7 121/118/7
f 125/123/6 128/191/6 127/115/5
f 124/124/7 126/192/7 128/125/6
f 116/127/8 126/192/7 124/124/7
f 139/129/1 134/132/1 136/130/1
f 134/132/1 135/193/2 138/133/2
f 135/134/2 133/194/3 137/135/3
f 137/135/3 133/194/3 129/137/4
f 143/131/1 144/195/2 141/139/2
f 144/140/2 142/196/3 140/141/3
f 140/141/3 142/196/3 132/143/4
f 152/145/5 150/149/5 155/146/5
f 154/148/6 151/197/6 150/149/5
f 153/150/7 149/198/7 151/151/6
f 145/153/8 149/198/7 153/150/7
f 157/155/6 160/199/6 159/147/5
f 156/156/7 158/200/7 160/157/6
f 148/159/8 158/200/7 156/156/7
