# Blender v3.4.1 OBJ File: 'umimura.blend'
# www.blender.org
o Japanese_Streetlamp_Cylinder.001
v -0.432285 -0.798597 0.003147
v -0.432285 1.114681 0.003147
v -0.422259 -0.798597 -0.027712
v -0.422259 1.114681 -0.027712
v -0.396009 -0.798597 -0.046784
v -0.396009 1.114681 -0.046783
v -0.363562 -0.798597 -0.046784
v -0.363562 1.114681 -0.046783
v -0.337312 -0.798597 -0.027712
v -0.337312 1.114681 -0.027712
v -0.327285 -0.798597 0.003147
v -0.327285 1.114681 0.003147
v -0.337312 -0.798597 0.034006
v -0.337312 1.114681 0.034006
v -0.363562 -0.798597 0.053077
v -0.363562 1.114681 0.053078
v -0.396009 -0.798597 0.053077
v -0.396009 1.114681 0.053078
v -0.422259 -0.798597 0.034006
v -0.422259 1.114681 0.034006
v -0.453062 -0.818752 0.003149
v -0.439068 -0.818752 -0.039922
v -0.402429 -0.818752 -0.066541
v -0.357142 -0.818752 -0.066541
v -0.320503 -0.818752 -0.039922
v -0.306509 -0.818752 0.003149
v -0.320503 -0.818752 0.046220
v -0.357142 -0.818752 0.072839
v -0.402429 -0.818752 0.072839
v -0.439068 -0.818752 0.046220
v -0.467266 -1.031038 0.003147
v -0.450559 -1.031038 -0.048273
v -0.406819 -1.031038 -0.080053
v -0.352752 -1.031038 -0.080053
v -0.309012 -1.031038 -0.048273
v -0.292304 -1.031038 0.003147
v -0.309012 -1.031038 0.054567
v -0.352752 -1.031038 0.086346
v -0.406819 -1.031038 0.086346
v -0.450559 -1.031038 0.054567
v 0.202674 1.105887 0.030016
v 0.202674 1.159626 0.030016
v -0.392981 1.105887 0.030016
v -0.392981 1.159626 0.030016
v 0.202674 1.105887 -0.023723
v 0.202674 1.159626 -0.023723
v -0.392981 1.105887 -0.023723
v -0.392981 1.159626 -0.023723
v 0.322665 1.127250 0.024299
v 0.322665 1.169555 0.024299
v 0.322665 1.169555 -0.018006
v 0.322665 1.127250 -0.018006
v 0.386656 1.157842 0.016478
v 0.373638 1.181109 0.016478
v 0.373638 1.181109 -0.010184
v 0.386656 1.157842 -0.010184
v -0.514419 1.173238 0.022143
v -0.514419 1.135247 0.022143
v -0.514419 1.135247 -0.015849
v -0.514419 1.173238 -0.015849
v -0.572330 1.192116 0.014970
v -0.579648 1.169630 0.014970
v -0.579648 1.169630 -0.008677
v -0.572330 1.192116 -0.008677
v 0.336958 0.963486 0.017998
v 0.336958 0.993188 0.017998
v -0.243734 0.951468 0.030016
v -0.243734 1.005206 0.030016
v 0.336958 0.963486 -0.011704
v 0.336958 0.993188 -0.011704
v -0.243734 0.951468 -0.023723
v -0.243734 1.005206 -0.023723
v -0.318187 0.976808 0.030016
v -0.285089 0.934472 0.030016
v -0.285089 0.934472 -0.023723
v -0.318187 0.976808 -0.023723
v -0.387761 0.875194 0.030016
v -0.334389 0.868923 0.030016
v -0.334389 0.868923 -0.023723
v -0.387761 0.875194 -0.023723
v -0.057154 0.980093 0.024287
v -0.057154 1.131307 0.024287
v -0.104243 0.980093 0.024287
v -0.104243 1.131307 0.024287
v -0.057154 0.980093 -0.017993
v -0.057154 1.131307 -0.017993
v -0.104243 0.980093 -0.017993
v -0.104243 1.131307 -0.017993
v 0.202639 0.914037 0.029877
v 0.202639 1.154425 0.029877
v 0.146190 0.914037 0.029877
v 0.146190 1.154425 0.029877
v 0.202639 0.914037 -0.023583
v 0.202639 1.154425 -0.023583
v 0.146190 0.914037 -0.023583
v 0.146190 1.154425 -0.023583
v 0.139043 0.908072 0.036645
v 0.209786 0.908072 0.036645
v 0.139043 0.908072 -0.030351
v 0.209786 0.908072 -0.030351
v 0.132306 0.894564 0.043025
v 0.216523 0.894564 0.043025
v 0.132306 0.894564 -0.036731
v 0.216523 0.894564 -0.036731
v 0.129424 0.875688 0.045755
v 0.219405 0.875688 0.045755
v 0.129424 0.875688 -0.039461
v 0.219405 0.875688 -0.039461
vt 1.000000 0.500000
vt 0.900000 1.000000
vt 0.900000 0.500000
vt 0.800000 1.000000
vt 0.800000 0.500000
vt 0.700000 0.500000
vt 0.700000 1.000000
vt 0.600000 0.500000
vt 0.600000 1.000000
vt 0.500000 0.500000
vt 0.500000 1.000000
vt 0.400000 0.500000
vt 0.400000 1.000000
vt 0.300000 0.500000
vt 0.300000 1.000000
vt 0.200000 0.500000
vt 0.478254 0.324164
vt 0.250000 0.490000
vt 0.021746 0.324164
vt 0.100000 1.000000
vt 0.100000 0.500000
vt -0.000000 1.000000
vt -0.000000 0.500000
vt 0.700000 0.500000
vt 0.200000 0.500000
vt 0.300000 0.500000
vt 0.300000 0.500000
vt 0.900000 0.500000
vt 1.000000 0.500000
vt 0.800000 0.500000
vt -0.000000 0.500000
vt 0.100000 0.500000
vt 0.400000 0.500000
vt 0.500000 0.500000
vt 0.600000 0.500000
vt 0.978254 0.175836
vt 0.521746 0.175836
vt 0.608932 0.444164
vt 0.500000 0.500000
vt 0.600000 0.500000
vt 0.900000 0.500000
vt 0.200000 0.500000
vt 0.400000 0.500000
vt 0.800000 0.500000
vt 0.100000 0.500000
vt 0.700000 0.500000
vt 1.000000 0.500000
vt 0.625000 0.000000
vt 0.375000 0.250000
vt 0.375000 0.000000
vt 0.625000 0.250000
vt 0.375000 0.250000
vt 0.625000 0.500000
vt 0.375000 0.750000
vt 0.375000 0.500000
vt 0.125000 0.750000
vt 0.125000 0.750000
vt 0.125000 0.500000
vt 0.875000 0.500000
vt 0.625000 0.750000
vt 0.875000 0.750000
vt 0.625000 0.750000
vt 0.625000 0.750000
vt 0.875000 0.750000
vt 0.375000 0.750000
vt 0.375000 0.000000
vt 0.625000 0.000000
vt 0.375000 1.000000
vt 0.375000 0.750000
vt 0.125000 0.750000
vt 0.625000 0.000000
vt 0.625000 0.500000
vt 0.875000 0.500000
vt 0.875000 0.500000
vt 0.375000 0.500000
vt 0.625000 0.250000
vt 0.375000 0.500000
vt 0.375000 0.250000
vt 0.625000 0.500000
vt 0.125000 0.500000
vt 0.625000 0.000000
vt 0.375000 0.250000
vt 0.375000 0.000000
vt 0.625000 0.500000
vt 0.875000 0.500000
vt 0.875000 0.500000
vt 0.375000 0.750000
vt 0.375000 0.500000
vt 0.125000 0.750000
vt 0.125000 0.500000
vt 0.625000 0.750000
vt 0.000000 0.000000
vt 0.000000 0.000000
vt 0.000000 0.000000
vt 0.000000 0.000000
vt 0.625000 0.500000
vt 0.875000 0.500000
vt 0.625000 0.250000
vt 0.375000 0.250000
vt 0.375000 0.500000
vt 0.625000 0.250000
vt 0.375000 0.500000
vt 0.375000 0.250000
vt 0.625000 0.250000
vt 0.625000 0.500000
vt 0.125000 0.500000
vt 0.625000 0.000000
vt 0.375000 0.250000
vt 0.375000 0.000000
vt 0.625000 0.250000
vt 0.375000 0.500000
vt 0.625000 0.500000
vt 0.375000 0.750000
vt 0.625000 0.750000
vt 0.375000 1.000000
vt 0.125000 0.750000
vt 0.125000 0.500000
vt 0.875000 0.500000
vt 0.625000 0.000000
vt 0.375000 0.250000
vt 0.375000 0.000000
vt 0.625000 0.250000
vt 0.375000 0.500000
vt 0.625000 0.500000
vt 0.375000 0.750000
vt 0.625000 0.750000
vt 0.375000 1.000000
vt 0.375000 0.750000
vt 0.875000 0.500000
vt 0.375000 0.500000
vt 0.375000 0.500000
vt 0.375000 0.250000
vt 0.375000 0.000000
vt 0.375000 0.750000
vt 0.375000 0.500000
vt 0.375000 0.000000
vt 0.375000 1.000000
vt 0.375000 0.250000
vt 0.125000 0.750000
vt 0.125000 0.500000
vt 0.375000 0.000000
vt 0.375000 0.750000
vt 0.375000 0.250000
vt 1.000000 1.000000
vt 0.200000 1.000000
vt 0.391068 0.444164
vt 0.108932 0.444164
vt 0.021746 0.175836
vt 0.108932 0.055836
vt 0.250000 0.010000
vt 0.391068 0.055836
vt 0.478254 0.175836
vt 0.750000 0.490000
vt 0.891068 0.444164
vt 0.978254 0.324164
vt 0.891068 0.055836
vt 0.750000 0.010000
vt 0.608932 0.055836
vt 0.521746 0.324164
vt -0.000000 0.500000
vt 0.625000 0.250000
vt 0.875000 0.750000
vt 0.625000 1.000000
vt 0.375000 0.000000
vt 0.125000 0.500000
vt 0.875000 0.750000
vt 0.125000 0.500000
vt 0.625000 1.000000
vt 0.875000 0.750000
vt 0.625000 1.000000
vt 0.375000 1.000000
vt 0.875000 0.750000
vt 0.375000 1.000000
vn -1.0000 -0.0000 -0.0000
vn -0.8090 0.0000 -0.5878
vn -0.3090 0.0000 -0.9511
vn 0.3090 0.0000 -0.9511
vn 0.8090 0.0000 -0.5878
vn 1.0000 0.0000 -0.0000
vn 0.8090 -0.0000 0.5878
vn 0.3090 -0.0000 0.9511
vn -0.3090 -0.0000 0.9511
vn 0.0000 1.0000 0.0000
vn -0.8090 -0.0000 0.5878
vn 0.5633 0.7177 -0.4093
vn 0.2152 0.7177 -0.6622
vn -0.3083 0.0668 0.9489
vn 0.3083 0.0668 0.9489
vn -0.6963 0.7178 -0.0000
vn -0.5633 0.7177 -0.4093
vn -0.2152 0.7177 -0.6622
vn -0.5633 0.7178 0.4092
vn -0.5633 0.7178 0.4093
vn -0.2152 0.7178 0.6622
vn -0.2151 0.7178 0.6622
vn 0.2151 0.7178 0.6622
vn 0.2152 0.7178 0.6622
vn 0.5633 0.7178 0.4093
vn 0.5633 0.7178 0.4092
vn 0.6963 0.7178 0.0000
vn 0.0000 -1.0000 0.0000
vn 0.8072 0.0668 -0.5865
vn 0.9978 0.0668 -0.0000
vn -0.3083 0.0668 -0.9489
vn -0.8072 0.0668 -0.5865
vn -0.8072 0.0668 0.5865
vn 0.8072 0.0668 0.5865
vn 0.3083 0.0668 -0.9489
vn -0.9978 0.0668 0.0000
vn 0.0244 0.0000 0.9997
vn -0.0297 0.0000 0.9996
vn 0.0224 0.0000 0.9997
vn -0.0335 0.0000 0.9994
vn -0.0837 0.0030 0.9965
vn -0.0335 0.0000 -0.9994
vn 0.0224 0.0000 -0.9997
vn -0.0297 0.0000 -0.9996
vn 0.0866 -0.9962 0.0000
vn 0.2995 -0.9541 0.0000
vn -0.1159 -0.9933 0.0000
vn 0.0546 0.9985 0.0000
vn -0.0406 0.9992 0.0000
vn -0.1477 0.9890 0.0000
vn -0.2211 0.9753 0.0000
vn 0.0244 0.0000 -0.9997
vn 0.0815 0.0068 -0.9967
vn 0.0815 0.0068 0.9967
vn 0.1046 0.0000 0.9945
vn 0.8727 0.4883 0.0000
vn 0.1136 0.0367 -0.9929
vn 0.0958 0.0536 -0.9940
vn 0.4313 -0.9022 0.0000
vn 0.1136 0.0367 0.9929
vn 0.2059 0.9786 0.0000
vn 0.3099 0.9508 0.0000
vn -0.0837 0.0030 -0.9965
vn -0.0975 0.0000 -0.9952
vn -0.3474 -0.9377 0.0000
vn -0.9509 0.3095 0.0000
vn -0.1021 0.0215 0.9945
vn -0.0934 0.0304 0.9952
vn -0.1021 0.0215 -0.9945
vn -0.4663 -0.8846 0.0000
vn 0.0207 0.0000 0.9998
vn 0.0091 0.0000 1.0000
vn -0.1723 0.9850 0.0000
vn -0.6190 0.7854 0.0000
vn 0.0116 -0.0000 -0.9999
vn 0.0207 0.0000 -0.9998
vn 0.0091 0.0000 -1.0000
vn 0.2051 -0.9787 0.0000
vn 0.0207 -0.9998 0.0000
vn 0.0207 0.9998 0.0000
vn -0.8251 0.5650 0.0000
vn 0.0116 -0.0000 0.9999
vn -0.0000 -0.0000 1.0000
vn -0.0000 -0.0000 -1.0000
vn 0.6115 -0.7913 0.0000
vn -0.1167 -0.9932 0.0000
vn 0.7992 -0.6011 0.0000
vn 0.6408 0.7677 0.0000
vn 0.8280 0.5607 0.0000
vn 0.0000 0.5371 -0.8435
vn 0.0000 0.2595 -0.9658
vn -0.6408 0.7677 0.0000
vn -0.8280 0.5607 0.0000
vn -0.0000 0.7502 0.6612
vn -0.0000 0.5371 0.8435
vn 0.0000 0.7502 -0.6612
vn 0.0000 0.1431 -0.9897
vn -0.0000 0.2595 0.9658
vn 0.9617 0.2741 0.0000
vn -0.9617 0.2741 0.0000
vn -0.0000 0.1431 0.9897
vn 0.9885 0.1510 0.0000
vn -0.9885 0.1509 0.0000
vn -0.0975 0.0000 0.9952
vn 0.1046 0.0000 -0.9945
vn 0.0958 0.0536 0.9940
vn -0.0934 0.0304 -0.9952
vn 0.9885 0.1509 0.0000
s 1
f 1/1/1 4/2/2 3/3/2
f 3/3/2 6/4/3 5/5/3
f 6/4/3 7/6/4 5/5/3
f 8/7/4 9/8/5 7/6/4
f 10/9/5 11/10/6 9/8/5
f 12/11/6 13/12/7 11/10/6
f 14/13/7 15/14/8 13/12/7
f 16/15/8 17/16/9 15/14/8
f 6/17/10 2/18/10 18/19/10
f 17/16/9 20/20/11 19/21/11
f 19/21/11 2/22/1 1/23/1
f 9/8/12 24/24/13 7/6/13
f 29/25/14 38/26/15 28/27/15
f 1/1/16 22/28/17 21/29/16
f 7/6/13 23/30/18 5/5/18
f 3/3/17 23/30/18 22/28/17
f 19/21/19 21/31/16 30/32/20
f 17/16/21 30/32/20 29/25/22
f 17/16/21 28/27/23 15/14/24
f 15/14/24 27/33/25 13/12/26
f 13/12/26 26/34/27 11/10/27
f 11/10/27 25/35/12 9/8/12
f 34/36/28 38/37/28 40/38/28
f 25/35/29 36/39/30 35/40/29
f 23/30/31 32/41/32 22/28/32
f 30/32/33 39/42/14 29/25/14
f 26/34/30 37/43/34 36/39/30
f 24/24/35 33/44/31 23/30/31
f 21/31/36 40/45/33 30/32/33
f 27/33/34 38/26/15 37/43/34
f 24/24/35 35/40/29 34/46/35
f 22/28/32 31/47/36 21/29/36
f 42/48/37 43/49/38 41/50/39
f 44/51/40 58/52/41 43/49/38
f 48/53/42 45/54/43 47/55/44
f 45/54/45 49/56/46 41/57/45
f 47/55/47 41/57/45 43/58/47
f 44/59/48 46/60/49 48/53/48
f 50/61/50 55/62/51 51/63/50
f 42/64/49 51/63/50 46/60/49
f 46/60/52 52/65/53 45/54/43
f 42/48/37 49/66/54 50/67/55
f 55/62/56 53/68/56 56/69/56
f 52/65/53 55/62/57 56/69/58
f 52/65/46 53/70/59 49/56/46
f 49/66/54 54/71/60 50/67/55
f 60/72/61 61/73/62 57/74/61
f 48/53/42 59/75/63 60/72/64
f 43/58/47 59/75/65 47/55/47
f 48/53/48 57/74/61 44/59/48
f 61/76/66 63/77/66 62/78/66
f 58/52/41 61/76/67 62/78/68
f 59/75/63 64/79/69 60/72/64
f 59/75/65 62/80/70 63/77/70
f 66/81/71 67/82/72 65/83/71
f 72/84/73 73/85/74 68/86/73
f 72/84/75 69/87/76 71/88/77
f 71/88/78 65/89/79 67/90/78
f 68/86/73 70/91/80 72/84/73
f 66/92/6 69/93/6 70/94/6
f 66/92/6 65/95/6 69/93/6
f 76/96/74 77/97/81 73/85/74
f 68/98/82 74/99/83 67/82/72
f 72/84/75 75/100/84 76/96/84
f 67/90/78 75/100/85 71/88/78
f 77/101/86 79/102/86 78/103/86
f 73/104/83 78/103/83 74/99/83
f 76/96/84 79/102/84 80/105/84
f 74/106/85 79/102/87 75/100/85
f 82/107/83 83/108/83 81/109/83
f 84/110/1 87/111/1 83/108/1
f 88/112/84 85/113/84 87/111/84
f 86/114/6 81/115/6 85/113/6
f 87/111/28 81/116/28 83/117/28
f 84/118/10 86/114/10 88/112/10
f 90/119/83 91/120/83 89/121/83
f 92/122/1 95/123/1 91/120/1
f 96/124/84 93/125/84 95/123/84
f 94/126/6 89/127/6 93/125/6
f 89/127/88 100/128/89 93/125/88
f 92/129/10 94/126/10 96/124/10
f 100/128/90 103/130/91 99/131/90
f 95/123/92 97/132/93 91/120/92
f 89/121/94 97/132/95 98/133/95
f 93/125/96 99/131/90 95/123/96
f 104/134/91 107/135/97 103/130/91
f 97/132/95 102/136/98 98/133/95
f 100/128/89 102/137/99 104/134/99
f 97/132/93 103/130/100 101/138/100
f 107/135/28 106/139/28 105/140/28
f 101/138/98 106/141/101 102/136/98
f 102/137/99 108/142/102 104/134/99
f 103/130/100 105/143/103 101/138/100
f 1/1/1 2/144/1 4/2/2
f 3/3/2 4/2/2 6/4/3
f 6/4/3 8/7/4 7/6/4
f 8/7/4 10/9/5 9/8/5
f 10/9/5 12/11/6 11/10/6
f 12/11/6 14/13/7 13/12/7
f 14/13/7 16/15/8 15/14/8
f 16/15/8 18/145/9 17/16/9
f 6/17/10 4/146/10 2/18/10
f 2/18/10 20/147/10 18/19/10
f 18/19/10 16/148/10 14/149/10
f 14/149/10 12/150/10 18/19/10
f 12/150/10 10/151/10 18/19/10
f 10/151/10 8/152/10 18/19/10
f 8/152/10 6/17/10 18/19/10
f 17/16/9 18/145/9 20/20/11
f 19/21/11 20/20/11 2/22/1
f 9/8/12 25/35/12 24/24/13
f 29/25/14 39/42/14 38/26/15
f 1/1/16 3/3/17 22/28/17
f 7/6/13 24/24/13 23/30/18
f 3/3/17 5/5/18 23/30/18
f 19/21/19 1/23/16 21/31/16
f 17/16/21 19/21/19 30/32/20
f 17/16/21 29/25/22 28/27/23
f 15/14/24 28/27/23 27/33/25
f 13/12/26 27/33/25 26/34/27
f 11/10/27 26/34/27 25/35/12
f 40/38/28 31/153/28 34/36/28
f 31/153/28 32/154/28 34/36/28
f 32/154/28 33/155/28 34/36/28
f 34/36/28 35/156/28 38/37/28
f 35/156/28 36/157/28 38/37/28
f 36/157/28 37/158/28 38/37/28
f 38/37/28 39/159/28 40/38/28
f 25/35/29 26/34/30 36/39/30
f 23/30/31 33/44/31 32/41/32
f 30/32/33 40/45/33 39/42/14
f 26/34/30 27/33/34 37/43/34
f 24/24/35 34/46/35 33/44/31
f 21/31/36 31/160/36 40/45/33
f 27/33/34 28/27/15 38/26/15
f 24/24/35 25/35/29 35/40/29
f 22/28/32 32/41/32 31/47/36
f 42/48/37 44/51/40 43/49/38
f 44/51/40 57/161/104 58/52/41
f 48/53/42 46/60/52 45/54/43
f 45/54/45 52/65/46 49/56/46
f 47/55/47 45/54/45 41/57/45
f 44/59/48 42/64/49 46/60/49
f 50/61/50 54/162/51 55/62/51
f 42/64/49 50/61/50 51/63/50
f 46/60/52 51/63/105 52/65/53
f 42/48/37 41/50/39 49/66/54
f 55/62/56 54/163/56 53/68/56
f 52/65/53 51/63/105 55/62/57
f 52/65/46 56/69/59 53/70/59
f 49/66/54 53/164/106 54/71/60
f 60/72/61 64/79/62 61/73/62
f 48/53/42 47/55/44 59/75/63
f 43/58/47 58/165/65 59/75/65
f 48/53/48 60/72/61 57/74/61
f 61/76/66 64/79/66 63/77/66
f 58/52/41 57/161/104 61/76/67
f 59/75/63 63/77/107 64/79/69
f 59/75/65 58/165/65 62/80/70
f 66/81/71 68/98/82 67/82/72
f 72/84/73 76/96/74 73/85/74
f 72/84/75 70/91/76 69/87/76
f 71/88/78 69/87/79 65/89/79
f 68/86/73 66/166/80 70/91/80
f 76/96/74 80/105/81 77/97/81
f 68/98/82 73/104/83 74/99/83
f 72/84/75 71/88/77 75/100/84
f 67/90/78 74/106/85 75/100/85
f 77/101/86 80/105/86 79/102/86
f 73/104/83 77/101/83 78/103/83
f 76/96/84 75/100/84 79/102/84
f 74/106/85 78/167/87 79/102/87
f 82/107/83 84/110/83 83/108/83
f 84/110/1 88/112/1 87/111/1
f 88/112/84 86/114/84 85/113/84
f 86/114/6 82/168/6 81/115/6
f 87/111/28 85/113/28 81/116/28
f 84/118/10 82/169/10 86/114/10
f 90/119/83 92/122/83 91/120/83
f 92/122/1 96/124/1 95/123/1
f 96/124/84 94/126/84 93/125/84
f 94/126/6 90/170/6 89/127/6
f 89/127/88 98/171/89 100/128/89
f 92/129/10 90/172/10 94/126/10
f 100/128/90 104/134/91 103/130/91
f 95/123/92 99/131/93 97/132/93
f 89/121/94 91/120/94 97/132/95
f 93/125/96 100/128/90 99/131/90
f 104/134/91 108/142/97 107/135/97
f 97/132/95 101/138/98 102/136/98
f 100/128/89 98/171/89 102/137/99
f 97/132/93 99/131/93 103/130/100
f 107/135/28 108/142/28 106/139/28
f 101/138/98 105/143/101 106/141/101
f 102/137/99 106/173/108 108/142/102
f 103/130/100 107/135/103 105/143/103
