# Blender v3.4.1 OBJ File: 'umimura.blend'
# www.blender.org
o Cube.002_Cube.010
v 0.070142 0.493296 -0.054403
v 0.070142 0.709853 -0.054403
v 0.070142 0.493296 0.054403
v 0.070142 0.709853 0.054403
v -0.070142 0.493296 -0.054403
v -0.070142 0.709853 -0.054403
v -0.070142 0.493296 0.054403
v -0.070142 0.709853 0.054403
v 0.820141 0.424539 -0.054668
v 0.820141 0.533875 -0.054668
v 0.820141 0.424539 0.054668
v 0.820141 0.533875 0.054668
v -0.820141 0.424539 -0.054668
v -0.820141 0.533875 -0.054668
v -0.820141 0.424539 0.054668
v -0.820141 0.533875 0.054668
v 0.952477 0.670078 -0.153201
v 0.952477 0.799345 -0.153201
v 0.952477 0.670078 0.153201
v 0.952477 0.799345 0.153201
v -0.952477 0.670078 -0.153201
v -0.952477 0.799345 -0.153201
v -0.952477 0.670078 0.153201
v -0.952477 0.799345 0.153201
v 1.094338 0.784244 -0.176019
v 1.291376 1.011151 -0.207711
v 1.094338 0.784244 0.176019
v 1.291376 1.011151 0.207711
v -1.094338 0.784244 -0.176019
v -1.291376 1.011151 -0.207711
v -1.094338 0.784244 0.176019
v -1.291376 1.011151 0.207711
v -0.656603 0.741756 0.176019
v -0.218868 0.729453 0.176019
v 0.218868 0.729453 0.176019
v 0.656603 0.741756 0.176019
v 0.656603 0.914586 0.176019
v 0.218868 0.877973 0.176019
v -0.218868 0.877973 0.176019
v -0.656603 0.914586 0.176019
v 0.656603 0.741756 -0.176019
v 0.218868 0.729453 -0.176019
v -0.218868 0.729453 -0.176019
v -0.656603 0.741756 -0.176019
v -0.656603 0.914586 -0.176019
v -0.218868 0.877973 -0.176019
v 0.218868 0.877973 -0.176019
v 0.656603 0.914586 -0.176019
v -0.557274 -0.784088 -0.102926
v -0.557274 0.784088 -0.102926
v -0.484494 -0.784088 -0.072779
v -0.484494 0.784088 -0.072779
v -0.454348 -0.784088 0.000000
v -0.454348 0.784088 0.000000
v -0.484494 -0.784088 0.072780
v -0.484494 0.784088 0.072780
v -0.557274 -0.784088 0.102926
v -0.557274 0.784088 0.102926
v -0.630053 -0.784088 0.072780
v -0.630053 0.784088 0.072780
v -0.660199 -0.784088 0.000000
v -0.660199 0.784088 0.000000
v -0.630053 -0.784088 -0.072779
v -0.630053 0.784088 -0.072779
v 0.557274 -0.784088 0.102926
v 0.557274 0.784088 0.102926
v 0.484494 -0.784088 0.072779
v 0.484494 0.784088 0.072779
v 0.454348 -0.784088 0.000000
v 0.454348 0.784088 0.000000
v 0.484494 -0.784088 -0.072779
v 0.484494 0.784088 -0.072779
v 0.557274 -0.784088 -0.102926
v 0.557274 0.784088 -0.102926
v 0.630053 -0.784088 -0.072779
v 0.630053 0.784088 -0.072779
v 0.660199 -0.784088 0.000000
v 0.660199 0.784088 0.000000
v 0.630053 -0.784088 0.072779
v 0.630053 0.784088 0.072779
v 0.557274 -0.797551 0.139011
v 0.557274 -0.559367 0.128616
v 0.458978 -0.797551 0.098296
v 0.466328 -0.559367 0.090945
v 0.418263 -0.797551 0.000000
v 0.428658 -0.559367 0.000000
v 0.458978 -0.797551 -0.098296
v 0.466328 -0.559367 -0.090945
v 0.557274 -0.797551 -0.139011
v 0.557274 -0.559367 -0.128616
v 0.655569 -0.797551 -0.098296
v 0.648219 -0.559367 -0.090945
v 0.696285 -0.797551 -0.000000
v 0.685890 -0.559367 0.000000
v 0.655569 -0.797551 0.098296
v 0.648219 -0.559367 0.090945
v -0.554521 -0.797551 0.139011
v -0.554521 -0.559367 0.128616
v -0.652817 -0.797551 0.098296
v -0.645466 -0.559367 0.090945
v -0.693532 -0.797551 0.000000
v -0.683137 -0.559367 0.000000
v -0.652816 -0.797551 -0.098296
v -0.645466 -0.559367 -0.090945
v -0.554521 -0.797551 -0.139011
v -0.554521 -0.559367 -0.128616
v -0.456225 -0.797551 -0.098296
v -0.463576 -0.559367 -0.090945
v -0.415510 -0.797551 0.000000
v -0.425905 -0.559367 0.000000
v -0.456225 -0.797551 0.098296
v -0.463576 -0.559367 0.090945
vt 0.408679 0.817751
vt 0.377471 0.755645
vt 0.408679 0.755645
vt 0.544569 0.895289
vt 0.504332 0.833176
vt 0.544569 0.833176
vt 0.231510 0.788300
vt 0.200302 0.726194
vt 0.231510 0.726194
vt 0.045189 0.896000
vt 0.004953 0.833887
vt 0.045189 0.833887
vt 0.231510 0.838442
vt 0.200302 0.798205
vt 0.231510 0.798205
vt 0.689255 0.699263
vt 0.658047 0.659026
vt 0.689255 0.659026
vt 0.244887 0.865247
vt 0.276243 0.833887
vt 0.276243 0.865247
vt 0.963687 0.955792
vt 0.995047 0.485325
vt 0.995047 0.955792
vt 0.377471 0.859016
vt 0.408827 0.827656
vt 0.408827 0.859016
vt 0.963687 0.475420
vt 0.995047 0.004953
vt 0.995047 0.475420
vt 0.953782 0.475420
vt 0.922422 0.004953
vt 0.953782 0.004953
vt 0.953782 0.955792
vt 0.922422 0.485325
vt 0.953782 0.485325
vt 0.658047 0.649121
vt 0.695119 0.561238
vt 0.695119 0.649121
vt 0.668821 0.551333
vt 0.705898 0.004953
vt 0.705898 0.551333
vt 0.071245 0.843528
vt 0.108317 0.755645
vt 0.108317 0.843528
vt 0.621839 0.551333
vt 0.658916 0.004953
vt 0.658916 0.551333
vt 0.611934 0.551333
vt 0.524052 0.004953
vt 0.611934 0.004953
vt 0.514146 0.551333
vt 0.426264 0.004953
vt 0.514146 0.004953
vt 0.490461 0.671300
vt 0.426264 0.561238
vt 0.490461 0.570328
vt 0.272570 0.187019
vt 0.309955 0.061467
vt 0.322141 0.187019
vt 0.564564 0.671300
vt 0.500366 0.561238
vt 0.564564 0.570328
vt 0.363258 0.187019
vt 0.400643 0.061467
vt 0.412830 0.187019
vt 0.234982 0.632711
vt 0.134010 0.507159
vt 0.234982 0.507159
vt 0.124104 0.745740
vt 0.014043 0.563674
vt 0.115014 0.563674
vt 0.124105 0.004953
vt 0.014043 0.187019
vt 0.004953 0.004953
vt 0.115014 0.312570
vt 0.115014 0.187019
vt 0.115014 0.438122
vt 0.014043 0.312570
vt 0.014043 0.438122
vt 0.234982 0.130504
vt 0.134010 0.004953
vt 0.234982 0.004953
vt 0.234982 0.256056
vt 0.134010 0.130504
vt 0.234982 0.381607
vt 0.134010 0.256056
vt 0.134010 0.381607
vt 0.400643 0.689225
vt 0.363258 0.563674
vt 0.412830 0.563674
vt 0.373760 0.438122
vt 0.416358 0.438122
vt 0.416358 0.312570
vt 0.373760 0.312570
vt 0.309955 0.689225
vt 0.272570 0.563674
vt 0.322141 0.563674
vt 0.283072 0.438122
vt 0.325670 0.438122
vt 0.325670 0.312570
vt 0.283072 0.312570
vt 0.891642 0.914509
vt 0.870767 0.464737
vt 0.891642 0.464724
vt 0.912517 0.454818
vt 0.891642 0.004953
vt 0.912517 0.005087
vt 0.891642 0.454684
vt 0.870767 0.005087
vt 0.860862 0.914522
vt 0.839987 0.464724
vt 0.860862 0.464737
vt 0.839987 0.914509
vt 0.819113 0.464737
vt 0.809207 0.454818
vt 0.788332 0.004953
vt 0.809207 0.005087
vt 0.134010 0.843192
vt 0.134010 0.820598
vt 0.188558 0.843192
vt 0.788332 0.454684
vt 0.767458 0.005087
vt 0.912517 0.914522
vt 0.912517 0.464737
vt 0.640761 0.817289
vt 0.679332 0.801312
vt 0.695309 0.839884
vt 0.788332 0.914509
vt 0.767458 0.464737
vt 0.788332 0.464724
vt 0.757552 0.454818
vt 0.736678 0.004953
vt 0.757552 0.005087
vt 0.736678 0.454684
vt 0.715803 0.005087
vt 0.757552 0.914522
vt 0.736678 0.464724
vt 0.757552 0.464737
vt 0.736678 0.914509
vt 0.715803 0.464737
vt 0.860862 0.454818
vt 0.839987 0.004953
vt 0.860862 0.005087
vt 0.504333 0.807294
vt 0.504333 0.784700
vt 0.558881 0.807294
vt 0.839987 0.454684
vt 0.819113 0.005087
vt 0.809207 0.914522
vt 0.809207 0.464737
vt 0.574469 0.839884
vt 0.574469 0.817289
vt 0.629017 0.839884
vt 0.454457 0.768364
vt 0.428372 0.836701
vt 0.426264 0.768382
vt 0.697147 0.723066
vt 0.668954 0.791239
vt 0.668954 0.722885
vt 0.640761 0.723066
vt 0.299165 0.823982
vt 0.273080 0.755645
vt 0.301274 0.755663
vt 0.246995 0.823982
vt 0.244887 0.755663
vt 0.558611 0.758817
vt 0.532526 0.690296
vt 0.560719 0.690477
vt 0.426264 0.710260
vt 0.474463 0.690296
vt 0.494427 0.738495
vt 0.532526 0.758650
vt 0.504332 0.690477
vt 0.480542 0.836701
vt 0.482650 0.768382
vt 0.648141 0.613333
vt 0.596047 0.634911
vt 0.574469 0.582817
vt 0.033146 0.755645
vt 0.007061 0.823982
vt 0.004953 0.755663
vt 0.628747 0.791407
vt 0.602662 0.722885
vt 0.630855 0.723066
vt 0.602662 0.791239
vt 0.574469 0.723066
vt 0.367565 0.755663
vt 0.339372 0.823965
vt 0.339372 0.755645
vt 0.311179 0.755663
vt 0.188288 0.794716
vt 0.162203 0.726194
vt 0.190396 0.726375
vt 0.594434 0.644816
vt 0.642632 0.664781
vt 0.622668 0.712980
vt 0.162203 0.794548
vt 0.134010 0.726375
vt 0.059231 0.823982
vt 0.061339 0.755663
vt 0.186104 0.716289
vt 0.155588 0.716289
vt 0.134010 0.694710
vt 0.377471 0.817751
vt 0.504332 0.895289
vt 0.200302 0.788300
vt 0.004953 0.896000
vt 0.200302 0.838442
vt 0.658047 0.699263
vt 0.244887 0.833887
vt 0.963687 0.485325
vt 0.377471 0.827656
vt 0.963687 0.004953
vt 0.922422 0.475420
vt 0.922422 0.955792
vt 0.658047 0.561238
vt 0.668821 0.004953
vt 0.071245 0.755645
vt 0.621839 0.004953
vt 0.524052 0.551333
vt 0.426264 0.551333
vt 0.426264 0.680390
vt 0.244887 0.004953
vt 0.500366 0.680390
vt 0.335575 0.004953
vt 0.134010 0.632711
vt 0.004953 0.745740
vt 0.335575 0.745740
vt 0.244887 0.745740
vt 0.870767 0.914522
vt 0.870767 0.454818
vt 0.819113 0.914522
vt 0.149987 0.804621
vt 0.172581 0.804621
vt 0.188558 0.820598
vt 0.172581 0.859169
vt 0.149987 0.859169
vt 0.767458 0.454818
vt 0.679332 0.855860
vt 0.656738 0.855860
vt 0.640761 0.839884
vt 0.656738 0.801312
vt 0.695309 0.817289
vt 0.767458 0.914522
vt 0.715803 0.454818
vt 0.715803 0.914522
vt 0.520309 0.768723
vt 0.542904 0.768723
vt 0.558881 0.784700
vt 0.542904 0.823271
vt 0.520309 0.823271
vt 0.819113 0.454818
vt 0.590446 0.801312
vt 0.613040 0.801312
vt 0.629017 0.817289
vt 0.613040 0.855860
vt 0.590446 0.855860
vt 0.454457 0.836685
vt 0.695039 0.791407
vt 0.642869 0.791407
vt 0.273080 0.823966
vt 0.474462 0.758459
vt 0.446228 0.758459
vt 0.426264 0.738495
vt 0.446228 0.690296
vt 0.494427 0.710260
vt 0.506441 0.758817
vt 0.626563 0.634911
vt 0.574469 0.613333
vt 0.596047 0.561238
vt 0.626563 0.561238
vt 0.648141 0.582817
vt 0.033146 0.823966
vt 0.576577 0.791407
vt 0.365457 0.823982
vt 0.313287 0.823982
vt 0.594434 0.712980
vt 0.574469 0.693015
vt 0.574469 0.664781
vt 0.622668 0.644816
vt 0.642632 0.693015
vt 0.136118 0.794716
vt 0.134010 0.664194
vt 0.155588 0.642616
vt 0.186104 0.642616
vt 0.207682 0.664194
vt 0.207682 0.694710
vn 1.0000 0.0000 0.0000
vn 0.0000 0.0000 1.0000
vn -1.0000 0.0000 0.0000
vn 0.0000 0.0000 -1.0000
vn 0.0000 -1.0000 0.0000
vn 0.0000 1.0000 0.0000
vn 0.4699 -0.8827 0.0000
vn 0.7551 -0.6557 0.0000
vn 0.0045 -0.0152 0.9999
vn 0.0275 -0.0924 0.9953
vn -0.4699 -0.8827 0.0000
vn -0.7551 -0.6557 0.0000
vn -0.0045 -0.0152 -0.9999
vn -0.0275 -0.0924 -0.9953
vn -0.0624 -0.9981 0.0000
vn -0.1504 0.9886 0.0000
vn -0.1175 0.9931 0.0000
vn 0.1504 0.9886 0.0000
vn 0.1175 0.9931 0.0000
vn 0.0417 0.9991 0.0000
vn -0.0417 0.9991 0.0000
vn 0.0624 -0.9981 0.0000
vn 0.0140 -0.9999 0.0000
vn -0.0140 -0.9999 0.0000
vn 0.0275 -0.0924 -0.9953
vn 0.0045 -0.0152 -0.9999
vn -0.0275 -0.0924 0.9953
vn -0.0045 -0.0152 0.9999
vn 0.7071 0.0000 -0.7071
vn 0.7071 0.0000 0.7071
vn -0.7071 0.0000 0.7071
vn -0.7071 0.0000 -0.7071
vn -0.0000 0.0436 0.9990
vn -0.7064 0.0436 0.7064
vn -0.9990 0.0436 -0.0000
vn -0.7064 0.0436 -0.7064
vn -0.0000 0.0436 -0.9990
vn 0.7064 0.0436 -0.7064
vn 0.9990 0.0436 0.0000
vn 0.7064 0.0436 0.7064
vn 0.0328 -0.1102 0.9934
vn -0.0328 -0.1102 -0.9934
vn 0.0328 -0.1102 -0.9934
vn -0.0328 -0.1102 0.9934
s 1
f 2/1/1 3/2/1 1/3/1
f 4/4/2 7/5/2 3/6/2
f 8/7/3 5/8/3 7/9/3
f 6/10/4 1/11/4 5/12/4
f 7/13/5 1/14/5 3/15/5
f 4/16/6 6/17/6 8/18/6
f 10/19/1 11/20/1 9/21/1
f 12/22/2 15/23/2 11/24/2
f 16/25/3 13/26/3 15/27/3
f 14/28/4 9/29/4 13/30/4
f 15/31/5 9/32/5 11/33/5
f 12/34/6 14/35/6 16/36/6
f 18/37/1 19/38/1 17/39/1
f 20/40/2 23/41/2 19/42/2
f 24/43/3 21/44/3 23/45/3
f 22/46/4 17/47/4 21/48/4
f 23/49/5 17/50/5 19/51/5
f 20/52/6 22/53/6 24/54/6
f 25/55/7 28/56/8 27/57/7
f 40/58/9 31/59/10 33/60/2
f 31/61/11 30/62/12 29/63/11
f 48/64/13 25/65/14 41/66/4
f 31/67/11 44/68/15 33/69/15
f 28/70/16 48/71/17 37/72/17
f 32/73/18 45/74/19 30/75/18
f 39/76/20 45/74/19 40/77/19
f 38/78/21 46/79/20 39/76/20
f 37/72/17 47/80/21 38/78/21
f 36/81/22 25/82/7 27/83/7
f 35/84/23 41/85/22 36/81/22
f 34/86/24 42/87/23 35/84/23
f 33/69/15 43/88/24 34/86/24
f 29/89/25 45/90/26 44/91/4
f 44/91/4 46/92/4 43/93/4
f 46/92/4 42/94/4 43/93/4
f 47/95/4 41/66/4 42/94/4
f 27/96/27 37/97/28 36/98/2
f 36/98/2 38/99/2 35/100/2
f 38/99/2 34/101/2 35/100/2
f 39/102/2 33/60/2 34/101/2
f 50/103/4 51/104/29 49/105/4
f 52/106/29 53/107/1 51/108/29
f 54/109/1 55/110/30 53/107/1
f 56/111/30 57/112/2 55/113/30
f 58/114/2 59/115/31 57/112/2
f 60/116/31 61/117/3 59/118/31
f 56/119/6 54/120/6 62/121/6
f 62/122/3 63/123/32 61/117/3
f 64/124/32 49/105/4 63/125/32
f 55/126/5 59/127/5 63/128/5
f 66/129/2 67/130/31 65/131/2
f 68/132/31 69/133/3 67/134/31
f 70/135/3 71/136/32 69/133/3
f 72/137/32 73/138/4 71/139/32
f 74/140/4 75/141/29 73/138/4
f 76/142/29 77/143/1 75/144/29
f 72/145/6 70/146/6 78/147/6
f 78/148/1 79/149/30 77/143/1
f 80/150/30 65/131/2 79/151/30
f 77/152/5 79/153/5 71/154/5
f 81/155/33 84/156/34 83/157/34
f 83/158/34 86/159/35 85/160/35
f 86/159/35 87/161/36 85/160/35
f 88/162/36 89/163/37 87/164/36
f 89/163/37 92/165/38 91/166/38
f 92/167/38 93/168/39 91/169/38
f 94/170/6 90/171/6 86/172/6
f 94/173/39 95/174/40 93/168/39
f 96/175/40 81/155/33 95/176/40
f 95/177/5 83/178/5 87/179/5
f 97/180/33 100/181/34 99/182/34
f 100/183/34 101/184/35 99/185/34
f 102/186/35 103/187/36 101/184/35
f 103/188/36 106/189/37 105/190/37
f 106/189/37 107/191/38 105/190/37
f 108/192/38 109/193/39 107/194/38
f 110/195/6 106/196/6 102/197/6
f 110/198/39 111/199/40 109/193/39
f 112/200/40 97/180/33 111/201/40
f 107/202/5 109/203/5 111/204/5
f 2/1/1 4/205/1 3/2/1
f 4/4/2 8/206/2 7/5/2
f 8/7/3 6/207/3 5/8/3
f 6/10/4 2/208/4 1/11/4
f 7/13/5 5/209/5 1/14/5
f 4/16/6 2/210/6 6/17/6
f 10/19/1 12/211/1 11/20/1
f 12/22/2 16/212/2 15/23/2
f 16/25/3 14/213/3 13/26/3
f 14/28/4 10/214/4 9/29/4
f 15/31/5 13/215/5 9/32/5
f 12/34/6 10/216/6 14/35/6
f 18/37/1 20/217/1 19/38/1
f 20/40/2 24/218/2 23/41/2
f 24/43/3 22/219/3 21/44/3
f 22/46/4 18/220/4 17/47/4
f 23/49/5 21/221/5 17/50/5
f 20/52/6 18/222/6 22/53/6
f 25/55/7 26/223/8 28/56/8
f 40/58/9 32/224/41 31/59/10
f 31/61/11 32/225/12 30/62/12
f 48/64/13 26/226/42 25/65/14
f 31/67/11 29/227/11 44/68/15
f 28/70/16 26/228/16 48/71/17
f 32/73/18 40/77/19 45/74/19
f 39/76/20 46/79/20 45/74/19
f 38/78/21 47/80/21 46/79/20
f 37/72/17 48/71/17 47/80/21
f 36/81/22 41/85/22 25/82/7
f 35/84/23 42/87/23 41/85/22
f 34/86/24 43/88/24 42/87/23
f 33/69/15 44/68/15 43/88/24
f 29/89/25 30/229/43 45/90/26
f 44/91/4 45/90/26 46/92/4
f 46/92/4 47/95/4 42/94/4
f 47/95/4 48/64/13 41/66/4
f 27/96/27 28/230/44 37/97/28
f 36/98/2 37/97/28 38/99/2
f 38/99/2 39/102/2 34/101/2
f 39/102/2 40/58/9 33/60/2
f 50/103/4 52/231/29 51/104/29
f 52/106/29 54/109/1 53/107/1
f 54/109/1 56/232/30 55/110/30
f 56/111/30 58/114/2 57/112/2
f 58/114/2 60/233/31 59/115/31
f 60/116/31 62/122/3 61/117/3
f 54/120/6 52/234/6 50/235/6
f 50/235/6 64/236/6 54/120/6
f 64/236/6 62/121/6 54/120/6
f 62/121/6 60/237/6 58/238/6
f 58/238/6 56/119/6 62/121/6
f 62/122/3 64/239/32 63/123/32
f 64/124/32 50/103/4 49/105/4
f 63/128/5 49/240/5 51/241/5
f 51/241/5 53/242/5 55/126/5
f 55/126/5 57/243/5 59/127/5
f 59/127/5 61/244/5 63/128/5
f 63/128/5 51/241/5 55/126/5
f 66/129/2 68/245/31 67/130/31
f 68/132/31 70/135/3 69/133/3
f 70/135/3 72/246/32 71/136/32
f 72/137/32 74/140/4 73/138/4
f 74/140/4 76/247/29 75/141/29
f 76/142/29 78/148/1 77/143/1
f 70/146/6 68/248/6 66/249/6
f 66/249/6 80/250/6 70/146/6
f 80/250/6 78/147/6 70/146/6
f 78/147/6 76/251/6 74/252/6
f 74/252/6 72/145/6 78/147/6
f 78/148/1 80/253/30 79/149/30
f 80/150/30 66/129/2 65/131/2
f 79/153/5 65/254/5 67/255/5
f 67/255/5 69/256/5 79/153/5
f 69/256/5 71/154/5 79/153/5
f 71/154/5 73/257/5 75/258/5
f 75/258/5 77/152/5 71/154/5
f 81/155/33 82/259/33 84/156/34
f 83/158/34 84/260/34 86/159/35
f 86/159/35 88/261/36 87/161/36
f 88/162/36 90/262/37 89/163/37
f 89/163/37 90/262/37 92/165/38
f 92/167/38 94/173/39 93/168/39
f 86/172/6 84/263/6 82/264/6
f 82/264/6 96/265/6 94/170/6
f 94/170/6 92/266/6 90/171/6
f 90/171/6 88/267/6 86/172/6
f 86/172/6 82/264/6 94/170/6
f 94/173/39 96/268/40 95/174/40
f 96/175/40 82/259/33 81/155/33
f 95/177/5 81/269/5 83/178/5
f 83/178/5 85/270/5 87/179/5
f 87/179/5 89/271/5 91/272/5
f 91/272/5 93/273/5 87/179/5
f 93/273/5 95/177/5 87/179/5
f 97/180/33 98/274/33 100/181/34
f 100/183/34 102/186/35 101/184/35
f 102/186/35 104/275/36 103/187/36
f 103/188/36 104/276/36 106/189/37
f 106/189/37 108/277/38 107/191/38
f 108/192/38 110/198/39 109/193/39
f 102/197/6 100/278/6 98/279/6
f 98/279/6 112/280/6 102/197/6
f 112/280/6 110/195/6 102/197/6
f 110/195/6 108/281/6 106/196/6
f 106/196/6 104/282/6 102/197/6
f 110/198/39 112/283/40 111/199/40
f 112/200/40 98/274/33 97/180/33
f 111/204/5 97/284/5 99/285/5
f 99/285/5 101/286/5 111/204/5
f 101/286/5 103/287/5 111/204/5
f 103/287/5 105/288/5 111/204/5
f 105/288/5 107/202/5 111/204/5
