# Blender v3.4.1 OBJ File: 'umimura.blend'
# www.blender.org
o Vines_Vertical_Cube.030
v 0.337236 0.271827 -0.267432
v 0.337260 -0.267610 0.272128
v -0.337260 0.267610 -0.267610
v -0.337260 -0.267610 0.267610
v 0.337216 0.275007 -0.160758
v 0.337206 0.275345 -0.053297
v 0.337246 0.273149 0.053331
v 0.336438 0.264235 0.159670
v 0.337260 0.160566 0.267606
v 0.336152 0.051253 0.252683
v 0.337315 -0.053704 0.266984
v 0.337260 -0.160566 0.270539
v -0.202356 -0.267610 0.267610
v -0.067452 -0.267624 0.267894
v 0.067450 -0.267656 0.268501
v 0.202356 -0.267607 0.269903
v -0.336790 0.160330 0.265199
v -0.337260 0.053522 0.267610
v -0.337260 -0.053522 0.267610
v -0.337260 -0.160566 0.267610
v -0.336551 0.263359 0.158388
v -0.337235 0.267442 0.053438
v -0.337260 0.267610 -0.053522
v -0.337260 0.267610 -0.160566
v -0.202233 0.264126 -0.265830
v -0.067416 0.279044 -0.265310
v 0.067514 0.265626 -0.265772
v 0.202326 0.266373 -0.266873
v -0.202436 0.316569 0.174000
v -0.202359 0.287090 0.053601
v -0.202385 0.289913 -0.054371
v -0.202358 0.273873 -0.160742
v -0.067416 0.293883 0.162925
v -0.067470 0.277783 0.053324
v -0.067452 0.303204 -0.057701
v -0.067507 0.280980 -0.163338
v 0.069265 0.278742 0.158590
v 0.067083 0.291192 0.050660
v 0.068056 0.271382 -0.056734
v 0.067858 0.279132 -0.155473
v 0.202264 0.287432 0.140977
v 0.201555 0.255149 0.029015
v 0.202303 0.267128 -0.061409
v 0.202730 0.243299 -0.146082
v 0.201860 -0.161343 0.275234
v 0.067597 -0.163292 0.273802
v -0.067401 -0.160963 0.276720
v -0.202373 -0.161060 0.279088
v 0.200244 -0.057012 0.257010
v 0.068469 -0.063445 0.255446
v -0.070221 -0.048722 0.274079
v -0.202450 -0.056273 0.309487
v 0.201059 0.044494 0.250512
v 0.066788 0.038520 0.257555
v -0.065921 0.049277 0.279035
v -0.203359 0.048156 0.314422
v 0.200906 0.136508 0.266144
v 0.066574 0.132325 0.272654
v -0.065849 0.155845 0.264672
v -0.202973 0.170933 0.328541
v 0.336052 0.262377 0.175686
v 0.337260 0.176881 0.267610
v 0.336999 0.254557 0.222043
v 0.337260 0.222245 0.255454
v -0.336556 0.176476 0.263815
v -0.336477 0.262883 0.174963
v -0.336608 0.221146 0.253074
v -0.336180 0.248440 0.221060
v 0.202152 0.280980 0.187346
v 0.200037 0.176875 0.261547
v 0.200778 0.258422 0.226014
v 0.199543 0.219549 0.249145
v 0.070021 0.274502 0.175291
v 0.068972 0.177226 0.282532
v 0.072440 0.247907 0.224194
v 0.072604 0.211076 0.266366
v -0.067379 0.294388 0.180237
v -0.066461 0.174687 0.266684
v -0.067374 0.274796 0.225953
v -0.067365 0.229666 0.258491
v -0.202583 0.194082 0.331001
v -0.202475 0.320786 0.198279
v -0.202372 0.257071 0.318063
v -0.202486 0.308028 0.269124
v 0.341025 -0.371522 0.302081
v -0.333496 -0.371522 0.297563
v -0.198591 -0.371522 0.297563
v -0.063687 -0.371537 0.297847
v 0.071215 -0.371569 0.298454
v 0.206121 -0.371519 0.299856
v 0.336550 -0.478933 0.298679
v -0.337971 -0.478933 0.294160
v -0.203066 -0.478933 0.294160
v -0.068162 -0.478947 0.294445
v 0.066740 -0.478979 0.295051
v 0.201646 -0.478930 0.296453
v 0.340373 -0.584008 0.290964
v -0.334148 -0.584008 0.286446
v -0.199244 -0.584008 0.286446
v -0.064339 -0.584023 0.286730
v 0.070562 -0.584055 0.287337
v 0.205469 -0.584005 0.288739
v 0.356093 -0.712648 0.277096
v -0.318428 -0.712648 0.272578
v -0.183524 -0.712648 0.272578
v -0.048620 -0.712663 0.272862
v 0.086282 -0.712695 0.273469
v 0.221188 -0.712645 0.274871
v 0.350038 -0.824824 0.264274
v -0.324483 -0.824824 0.259756
v -0.189578 -0.824824 0.259756
v -0.054674 -0.824839 0.260040
v 0.080228 -0.824871 0.260647
v 0.215134 -0.824821 0.262049
v 0.344819 -0.959436 0.247923
v -0.329702 -0.959436 0.243405
v -0.194798 -0.959436 0.243405
v -0.059894 -0.959450 0.243689
v 0.075008 -0.959482 0.244295
v 0.209914 -0.959433 0.245697
vt 0.121140 0.134142
vt 0.224200 0.102203
vt 0.226106 0.137346
vt 0.625862 0.527042
vt 0.542907 0.421683
vt 0.637243 0.422142
vt 0.625979 0.000000
vt 0.543708 0.105543
vt 0.542324 0.000000
vt 0.623854 0.210723
vt 0.625860 0.105384
vt 0.543763 0.316334
vt 0.544157 0.210805
vt 0.629997 0.316519
vt 0.436617 0.106810
vt 0.541164 0.102807
vt 0.541347 0.115418
vt 0.875229 0.000582
vt 0.793404 0.105301
vt 0.793221 0.000022
vt 0.709633 0.000001
vt 0.878862 0.210714
vt 0.887575 0.105057
vt 0.793165 0.210772
vt 0.709032 0.105263
vt 0.706468 0.210627
vt 0.330078 0.104246
vt 0.329609 0.118982
vt 0.875436 0.317622
vt 0.791122 0.315838
vt 0.861697 0.421503
vt 0.774113 0.421151
vt 0.707141 0.316723
vt 0.014572 0.115361
vt 0.121822 0.102620
vt 0.793167 0.527078
vt 0.709843 0.527033
vt 0.703478 0.421660
vt 0.436364 0.449860
vt 0.541771 0.366178
vt 0.541791 0.449831
vt 0.436329 0.366530
vt 0.541750 0.282525
vt 0.436976 0.202836
vt 0.436297 0.284472
vt 0.541729 0.198872
vt 0.014643 0.449948
vt 0.120431 0.366857
vt 0.120076 0.449929
vt 0.225361 0.368360
vt 0.225509 0.449948
vt 0.330935 0.449898
vt 0.330855 0.366495
vt 0.014626 0.366304
vt 0.121717 0.285424
vt 0.224704 0.290433
vt 0.333043 0.278795
vt 0.014571 0.282812
vt 0.121075 0.206135
vt 0.225993 0.210736
vt 0.015494 0.200869
vt 0.329651 0.202184
vt 0.888181 0.000643
vt 0.897917 0.421457
vt 0.888476 0.318239
vt 0.892392 0.210740
vt 0.906561 0.105001
vt 0.924167 0.000966
vt 0.961892 0.105072
vt 0.949112 0.000801
vt 1.000000 0.105480
vt 0.541222 0.067958
vt 0.436302 0.088705
vt 0.436155 0.039552
vt 0.924964 0.527001
vt 0.888757 0.526212
vt 0.121312 0.039089
vt 0.014588 0.067226
vt 0.014866 0.042160
vt 0.014568 0.102611
vt 0.926623 0.320296
vt 0.928076 0.420524
vt 0.221614 0.047290
vt 0.122230 0.069340
vt 0.221393 0.075840
vt 0.928067 0.210866
vt 0.330794 0.061326
vt 0.436350 0.000000
vt 0.330869 0.026237
vt 0.876246 0.526502
vt 0.222515 0.530989
vt 0.117083 0.530971
vt 0.433371 0.530901
vt 0.327942 0.530939
vt 0.011650 0.530989
vt 0.538798 0.530873
vt 0.120609 0.614928
vt 0.331468 0.614896
vt 0.015176 0.614946
vt 0.226041 0.614946
vt 0.436897 0.614858
vt 0.223093 0.697104
vt 0.117660 0.697086
vt 0.433948 0.697016
vt 0.328519 0.697054
vt 0.012227 0.697104
vt 0.539375 0.696988
vt 0.210865 0.797714
vt 0.105433 0.797696
vt 0.421721 0.797626
vt 0.316292 0.797664
vt 0.000000 0.797714
vt 0.527148 0.797598
vt 0.110216 0.885429
vt 0.321075 0.885397
vt 0.004783 0.885447
vt 0.215649 0.885447
vt 0.426504 0.885359
vt 0.114360 0.990715
vt 0.325220 0.990683
vt 0.008927 0.990733
vt 0.219793 0.990733
vt 0.531931 0.885331
vt 0.430648 0.990645
vt 0.542487 0.527077
vt 0.542324 0.614830
vt 0.536075 0.990617
vn 0.0415 -0.0472 0.9980
vn -0.0011 0.1306 0.9914
vn 0.0245 -0.1518 0.9881
vn -0.1710 0.9846 0.0362
vn -0.0008 0.9972 0.0747
vn 0.0063 0.9999 0.0097
vn -0.0255 0.9995 -0.0195
vn -0.0462 0.9973 -0.0576
vn 0.0258 0.9997 0.0000
vn -0.0128 0.9914 -0.1302
vn -0.0741 0.9911 -0.1110
vn 0.0231 0.9947 -0.1007
vn -0.0055 0.9998 -0.0190
vn 0.1322 0.9911 -0.0174
vn -0.0113 -0.1058 0.9943
vn -0.4473 0.1354 0.8841
vn -0.4012 0.0225 0.9157
vn -0.3007 0.9532 -0.0314
vn -0.0615 0.9956 -0.0705
vn -0.1442 0.9893 0.0205
vn -0.1245 0.9919 -0.0256
vn 0.1195 0.9878 -0.0996
vn -0.1024 0.9756 -0.1943
vn -0.0064 0.9990 0.0450
vn -0.1071 0.9935 -0.0381
vn -0.0029 1.0000 -0.0018
vn 0.1842 0.0322 0.9824
vn 0.1431 -0.0201 0.9895
vn 0.0062 0.9896 0.1435
vn 0.0684 0.9973 -0.0262
vn 0.0579 0.9983 -0.0028
vn 0.0358 0.9945 -0.0989
vn 0.1968 0.9790 -0.0529
vn -0.0175 -0.0496 0.9986
vn 0.0496 0.2018 0.9782
vn -0.0291 0.9990 -0.0331
vn -0.1367 0.9905 -0.0170
vn -0.0136 0.9969 -0.0779
vn -0.0106 0.1006 0.9949
vn -0.0606 -0.0228 0.9979
vn 0.0000 0.1383 0.9904
vn -0.0298 -0.1306 0.9910
vn -0.2482 -0.0677 0.9663
vn -0.0247 -0.0379 0.9990
vn -0.0157 -0.1635 0.9864
vn -0.3296 0.0117 0.9441
vn -0.0016 0.1351 0.9908
vn 0.0029 0.0695 0.9976
vn -0.0133 0.1146 0.9933
vn 0.0018 0.0610 0.9981
vn -0.0074 0.1146 0.9934
vn 0.0004 0.1021 0.9948
vn 0.0346 -0.0151 0.9993
vn 0.0026 0.0535 0.9986
vn -0.0198 0.0940 0.9954
vn 0.0431 0.0669 0.9968
vn 0.1675 -0.0444 0.9849
vn -0.0585 0.0699 0.9958
vn 0.0107 -0.0433 0.9990
vn 0.0898 -0.0811 0.9927
vn -0.0083 -0.0109 0.9999
vn 0.1715 0.0101 0.9851
vn -0.3988 0.9070 0.1355
vn 0.0208 0.9487 0.3154
vn 0.0409 0.9334 0.3565
vn 0.1659 0.9698 0.1788
vn -0.0953 0.9948 0.0365
vn -0.4701 0.7864 0.4007
vn -0.0565 0.8676 0.4941
vn -0.4943 0.4437 0.7475
vn -0.0242 0.4641 0.8854
vn -0.0146 0.0567 0.9983
vn 0.0879 0.8724 0.4808
vn 0.1481 0.9792 0.1386
vn -0.0325 0.7226 0.6905
vn -0.0113 0.4847 0.8746
vn -0.0438 0.1298 0.9906
vn 0.0443 0.7987 0.6001
vn -0.0070 0.4229 0.9061
vn 0.0394 0.5673 0.8225
vn 0.2356 0.7773 0.5834
vn 0.2465 0.4003 0.8826
vn 0.1525 0.9828 0.1042
vn -0.0075 0.1242 0.9922
vn -0.0134 0.1243 0.9922
vn -0.0011 0.1242 0.9923
vn -0.0033 0.1242 0.9923
vn -0.0164 0.1244 0.9921
vn 0.0000 0.1238 0.9923
vn -0.0133 -0.0524 0.9985
vn -0.0033 -0.0524 0.9986
vn -0.0165 -0.0524 0.9985
vn -0.0074 -0.0524 0.9986
vn -0.0010 -0.0524 0.9986
vn -0.0073 -0.0908 0.9958
vn -0.0133 -0.0912 0.9957
vn -0.0010 -0.0903 0.9959
vn -0.0033 -0.0905 0.9959
vn -0.0164 -0.0923 0.9956
vn 0.0000 -0.0893 0.9960
vn -0.0076 -0.1106 0.9938
vn -0.0135 -0.1108 0.9937
vn -0.0011 -0.1104 0.9939
vn -0.0034 -0.1105 0.9939
vn -0.0164 -0.1110 0.9937
vn 0.0000 -0.1103 0.9939
vn -0.0133 -0.1165 0.9931
vn -0.0033 -0.1169 0.9931
vn -0.0164 -0.1162 0.9931
vn -0.0074 -0.1167 0.9931
vn -0.0010 -0.1170 0.9931
vn -0.0132 -0.1201 0.9927
vn -0.0033 -0.1205 0.9927
vn -0.0164 -0.1199 0.9926
vn -0.0073 -0.1203 0.9927
vn 0.0000 -0.1172 0.9931
vn -0.0010 -0.1205 0.9927
vn -0.0405 0.9987 -0.0298
vn 0.0000 -0.0525 0.9986
vn 0.0000 -0.1206 0.9927
s 1
f 57/1/1 74/2/2 58/3/3
f 5/4/4 28/5/5 44/6/6
f 24/7/7 25/8/8 3/9/9
f 36/10/10 25/8/8 32/11/11
f 36/10/10 27/12/12 26/13/13
f 40/14/14 28/5/5 27/12/12
f 60/15/15 65/16/16 17/17/17
f 21/18/18 30/19/19 22/20/20
f 30/19/19 23/21/21 22/20/20
f 23/21/21 32/11/11 24/7/7
f 33/22/22 30/19/19 29/23/23
f 34/24/24 31/25/25 30/19/19
f 35/26/26 32/11/11 31/25/25
f 78/27/27 60/15/15 59/28/28
f 37/29/29 34/24/24 33/22/22
f 38/30/30 35/26/26 34/24/24
f 35/26/26 40/14/14 36/10/10
f 74/2/2 59/28/28 58/3/3
f 41/31/31 38/30/30 37/29/29
f 42/32/32 39/33/33 38/30/30
f 39/33/33 44/6/6 40/14/14
f 9/34/34 70/35/35 57/1/1
f 41/31/31 7/36/36 42/32/32
f 42/32/32 6/37/37 43/38/38
f 6/37/37 44/6/6 43/38/38
f 13/39/39 20/40/40 4/41/41
f 48/42/42 19/43/43 20/40/40
f 56/44/44 19/43/43 52/45/45
f 56/44/44 17/17/17 18/46/46
f 2/47/47 45/48/48 16/49/49
f 16/49/49 46/50/50 15/51/51
f 46/50/50 14/52/52 15/51/51
f 47/53/53 13/39/39 14/52/52
f 12/54/54 49/55/55 45/48/48
f 45/48/48 50/56/56 46/50/50
f 50/56/56 47/53/53 46/50/50
f 51/57/57 48/42/42 47/53/53
f 11/58/58 53/59/59 49/55/55
f 49/55/55 54/60/60 50/56/56
f 54/60/60 51/57/57 50/56/56
f 51/57/57 56/44/44 52/45/45
f 10/61/61 57/1/1 53/59/59
f 53/59/59 58/3/3 54/60/60
f 58/3/3 55/62/62 54/60/60
f 59/28/28 56/44/44 55/62/62
f 66/63/63 29/23/23 21/18/18
f 69/64/64 37/29/29 73/65/65
f 77/66/66 37/29/29 33/22/22
f 77/66/66 29/23/23 82/67/67
f 82/67/67 68/68/68 84/69/69
f 84/69/69 67/70/70 83/71/71
f 67/72/70 81/73/72 83/74/71
f 69/64/64 63/75/73 61/76/74
f 71/77/75 64/78/76 63/79/73
f 64/78/76 70/35/35 62/80/77
f 69/64/64 75/81/78 71/82/75
f 75/83/78 72/84/79 71/77/75
f 76/85/80 70/35/35 72/84/79
f 73/65/65 79/86/81 75/81/78
f 75/83/78 80/87/82 76/85/80
f 76/85/80 78/27/27 74/2/2
f 82/67/67 79/86/81 77/66/66
f 84/88/69 80/87/82 79/89/81
f 80/87/82 81/73/72 78/27/27
f 69/64/64 8/90/83 41/31/31
f 16/49/49 89/91/84 90/92/85
f 14/52/52 87/93/86 88/94/87
f 15/51/51 88/94/87 89/91/84
f 2/47/47 90/92/85 85/95/88
f 13/39/39 86/96/89 87/93/86
f 89/91/84 96/97/90 90/92/85
f 87/93/86 94/98/91 88/94/87
f 90/92/85 91/99/92 85/95/88
f 88/94/87 95/100/93 89/91/84
f 86/96/89 93/101/94 87/93/86
f 96/97/90 101/102/95 102/103/96
f 94/98/91 99/104/97 100/105/98
f 91/99/92 102/103/96 97/106/99
f 95/100/93 100/105/98 101/102/95
f 93/101/94 98/107/100 99/104/97
f 102/103/96 107/108/101 108/109/102
f 100/105/98 105/110/103 106/111/104
f 97/106/99 108/109/102 103/112/105
f 101/102/95 106/111/104 107/108/101
f 99/104/97 104/113/106 105/110/103
f 107/108/101 114/114/107 108/109/102
f 105/110/103 112/115/108 106/111/104
f 108/109/102 109/116/109 103/112/105
f 106/111/104 113/117/110 107/108/101
f 104/113/106 111/118/111 105/110/103
f 113/117/110 120/119/112 114/114/107
f 111/118/111 118/120/113 112/115/108
f 114/114/107 115/121/114 109/116/109
f 112/115/108 119/122/115 113/117/110
f 110/123/116 117/124/117 111/118/111
f 57/1/1 70/35/35 74/2/2
f 5/4/4 1/125/118 28/5/5
f 24/7/7 32/11/11 25/8/8
f 36/10/10 26/13/13 25/8/8
f 36/10/10 40/14/14 27/12/12
f 40/14/14 44/6/6 28/5/5
f 60/15/15 81/73/72 65/16/16
f 21/18/18 29/23/23 30/19/19
f 30/19/19 31/25/25 23/21/21
f 23/21/21 31/25/25 32/11/11
f 33/22/22 34/24/24 30/19/19
f 34/24/24 35/26/26 31/25/25
f 35/26/26 36/10/10 32/11/11
f 78/27/27 81/73/72 60/15/15
f 37/29/29 38/30/30 34/24/24
f 38/30/30 39/33/33 35/26/26
f 35/26/26 39/33/33 40/14/14
f 74/2/2 78/27/27 59/28/28
f 41/31/31 42/32/32 38/30/30
f 42/32/32 43/38/38 39/33/33
f 39/33/33 43/38/38 44/6/6
f 9/34/34 62/80/77 70/35/35
f 41/31/31 8/90/83 7/36/36
f 42/32/32 7/36/36 6/37/37
f 6/37/37 5/4/4 44/6/6
f 13/39/39 48/42/42 20/40/40
f 48/42/42 52/45/45 19/43/43
f 56/44/44 18/46/46 19/43/43
f 56/44/44 60/15/15 17/17/17
f 2/47/47 12/54/54 45/48/48
f 16/49/49 45/48/48 46/50/50
f 46/50/50 47/53/53 14/52/52
f 47/53/53 48/42/42 13/39/39
f 12/54/54 11/58/58 49/55/55
f 45/48/48 49/55/55 50/56/56
f 50/56/56 51/57/57 47/53/53
f 51/57/57 52/45/45 48/42/42
f 11/58/58 10/61/61 53/59/59
f 49/55/55 53/59/59 54/60/60
f 54/60/60 55/62/62 51/57/57
f 51/57/57 55/62/62 56/44/44
f 10/61/61 9/34/34 57/1/1
f 53/59/59 57/1/1 58/3/3
f 58/3/3 59/28/28 55/62/62
f 59/28/28 60/15/15 56/44/44
f 66/63/63 82/67/67 29/23/23
f 69/64/64 41/31/31 37/29/29
f 77/66/66 73/65/65 37/29/29
f 77/66/66 33/22/22 29/23/23
f 82/67/67 66/63/63 68/68/68
f 84/69/69 68/68/68 67/70/70
f 67/72/70 65/16/16 81/73/72
f 69/64/64 71/82/75 63/75/73
f 71/77/75 72/84/79 64/78/76
f 64/78/76 72/84/79 70/35/35
f 69/64/64 73/65/65 75/81/78
f 75/83/78 76/85/80 72/84/79
f 76/85/80 74/2/2 70/35/35
f 73/65/65 77/66/66 79/86/81
f 75/83/78 79/89/81 80/87/82
f 76/85/80 80/87/82 78/27/27
f 82/67/67 84/69/69 79/86/81
f 84/88/69 83/74/71 80/87/82
f 80/87/82 83/74/71 81/73/72
f 69/64/64 61/76/74 8/90/83
f 16/49/49 15/51/51 89/91/84
f 14/52/52 13/39/39 87/93/86
f 15/51/51 14/52/52 88/94/87
f 2/47/47 16/49/49 90/92/85
f 13/39/39 4/41/41 86/96/89
f 89/91/84 95/100/93 96/97/90
f 87/93/86 93/101/94 94/98/91
f 90/92/85 96/97/90 91/99/92
f 88/94/87 94/98/91 95/100/93
f 86/96/89 92/126/119 93/101/94
f 96/97/90 95/100/93 101/102/95
f 94/98/91 93/101/94 99/104/97
f 91/99/92 96/97/90 102/103/96
f 95/100/93 94/98/91 100/105/98
f 93/101/94 92/126/119 98/107/100
f 102/103/96 101/102/95 107/108/101
f 100/105/98 99/104/97 105/110/103
f 97/106/99 102/103/96 108/109/102
f 101/102/95 100/105/98 106/111/104
f 99/104/97 98/107/100 104/113/106
f 107/108/101 113/117/110 114/114/107
f 105/110/103 111/118/111 112/115/108
f 108/109/102 114/114/107 109/116/109
f 106/111/104 112/115/108 113/117/110
f 104/113/106 110/123/116 111/118/111
f 113/117/110 119/122/115 120/119/112
f 111/118/111 117/124/117 118/120/113
f 114/114/107 120/119/112 115/121/114
f 112/115/108 118/120/113 119/122/115
f 110/123/116 116/127/120 117/124/117
