# Blender v3.4.1 OBJ File: 'umimura.blend'
# www.blender.org
o Wind_Turbine_Cube.001
v 0.006906 -0.819222 -0.001852
v 0.035411 -0.107861 -0.009305
v 0.006906 -0.819222 0.002039
v 0.035411 -0.107861 0.009492
v -0.007978 -0.819222 -0.001852
v -0.036483 -0.107861 -0.009305
v -0.007978 -0.819222 0.002039
v -0.036483 -0.107861 0.009492
v 0.025902 -0.004428 -0.006819
v 0.025902 -0.004428 0.007006
v -0.026975 -0.004428 0.007006
v -0.026975 -0.004428 -0.006819
v 0.012190 0.014109 -0.003234
v 0.012190 0.014109 0.003421
v -0.013262 0.014109 0.003421
v -0.013262 0.014109 -0.003234
v 0.702529 0.416973 -0.001852
v 0.072220 0.085978 -0.009305
v 0.702529 0.416973 0.002039
v 0.072220 0.085978 0.009492
v 0.709971 0.404083 -0.001852
v 0.108167 0.023716 -0.009305
v 0.709971 0.404083 0.002039
v 0.108167 0.023716 0.009492
v -0.012602 0.026027 -0.006819
v -0.012602 0.026027 0.007006
v 0.013837 -0.019766 0.007006
v 0.013837 -0.019766 -0.006819
v -0.021800 0.004883 -0.003234
v -0.021800 0.004883 0.003420
v -0.009074 -0.017159 0.003420
v -0.009074 -0.017159 -0.003234
v -0.708624 0.404083 -0.001852
v -0.106820 0.023716 -0.009305
v -0.708624 0.404083 0.002039
v -0.106820 0.023716 0.009492
v -0.701182 0.416973 -0.001852
v -0.070873 0.085978 -0.009305
v -0.701182 0.416973 0.002039
v -0.070873 0.085978 0.009492
v -0.012490 -0.019766 -0.006819
v -0.012490 -0.019766 0.007006
v 0.013949 0.026027 0.007006
v 0.013949 0.026027 -0.006819
v 0.010420 -0.017159 -0.003234
v 0.010420 -0.017159 0.003420
v 0.023146 0.004883 0.003420
v 0.023146 0.004883 -0.003234
vt 0.375000 0.000000
vt 0.625000 0.250000
vt 0.375000 0.250000
vt 0.375000 0.500000
vt 0.625000 0.500000
vt 0.375000 0.750000
vt 0.625000 0.750000
vt 0.375000 1.000000
vt 0.125000 0.750000
vt 0.125000 0.500000
vt 0.625000 0.750000
vt 0.625000 1.000000
vt 0.625000 1.000000
vt 0.625000 0.000000
vt 0.625000 0.250000
vt 0.625000 1.000000
vt 0.625000 0.500000
vt 0.875000 0.500000
vt 0.625000 0.750000
vt 0.625000 0.500000
vt 0.625000 0.000000
vt 0.625000 0.250000
vt 0.625000 0.000000
vt 0.375000 0.250000
vt 0.375000 0.000000
vt 0.625000 0.500000
vt 0.375000 0.500000
vt 0.375000 0.750000
vt 0.625000 0.750000
vt 0.375000 1.000000
vt 0.125000 0.750000
vt 0.125000 0.500000
vt 0.625000 0.750000
vt 0.625000 1.000000
vt 0.625000 0.750000
vt 0.625000 1.000000
vt 0.625000 0.250000
vt 0.625000 0.250000
vt 0.625000 1.000000
vt 0.625000 0.500000
vt 0.875000 0.500000
vt 0.625000 0.500000
vt 0.625000 0.000000
vt 0.625000 0.250000
vt 0.375000 0.000000
vt 0.625000 0.250000
vt 0.375000 0.250000
vt 0.375000 0.500000
vt 0.625000 0.500000
vt 0.375000 0.750000
vt 0.625000 1.000000
vt 0.375000 1.000000
vt 0.125000 0.750000
vt 0.125000 0.500000
vt 0.625000 0.750000
vt 0.625000 0.750000
vt 0.625000 1.000000
vt 0.625000 1.000000
vt 0.625000 0.000000
vt 0.625000 0.250000
vt 0.625000 0.500000
vt 0.875000 0.500000
vt 0.625000 0.750000
vt 0.625000 0.500000
vt 0.625000 0.250000
vt 0.625000 0.000000
vt 0.625000 0.000000
vt 0.875000 0.750000
vt 0.625000 0.000000
vt 0.875000 0.750000
vt 0.625000 0.000000
vt 0.875000 0.750000
vn 0.5651 -0.5905 -0.5761
vn 0.9997 0.0255 0.0000
vn 0.5651 -0.5905 0.5761
vn 0.0000 0.0065 1.0000
vn -0.5651 -0.5905 0.5761
vn -0.9997 0.0255 0.0000
vn -0.5651 -0.5905 -0.5761
vn 0.0000 0.0065 -1.0000
vn -0.6907 0.3058 -0.6554
vn 0.3503 0.7615 -0.5454
vn 0.6907 0.3058 -0.6554
vn 0.6907 0.3058 0.6554
vn -0.6907 0.3058 0.6554
vn 0.3503 0.7615 0.5454
vn -0.3503 0.7615 -0.5454
vn -0.3503 0.7615 0.5454
vn -0.5219 0.8530 0.0000
vn 0.2288 0.7847 0.5761
vn 0.2288 0.7847 -0.5761
vn -0.0056 -0.0032 1.0000
vn 0.7940 -0.1942 0.5761
vn 0.4777 -0.8785 0.0000
vn 0.7940 -0.1942 -0.5761
vn -0.0056 -0.0032 -1.0000
vn 0.0805 -0.7510 -0.6554
vn -0.6102 0.4452 -0.6554
vn -0.4843 -0.6841 -0.5454
vn -0.8346 -0.0773 -0.5454
vn -0.6102 0.4452 0.6554
vn 0.0805 -0.7510 0.6554
vn -0.8346 -0.0773 0.5454
vn -0.4843 -0.6841 0.5454
vn -0.7940 -0.1942 -0.5761
vn -0.4777 -0.8785 0.0000
vn -0.7940 -0.1942 0.5761
vn 0.0056 -0.0032 1.0000
vn -0.2288 0.7847 0.5761
vn 0.5219 0.8530 0.0000
vn -0.2288 0.7847 -0.5761
vn 0.0056 -0.0032 -1.0000
vn 0.6102 0.4452 -0.6554
vn 0.4843 -0.6841 -0.5454
vn -0.0805 -0.7510 -0.6554
vn -0.0805 -0.7510 0.6554
vn 0.6102 0.4452 0.6554
vn 0.4843 -0.6841 0.5454
vn 0.8346 -0.0773 -0.5454
vn 0.8346 -0.0773 0.5454
s 1
f 1/1/1 4/2/2 3/3/3
f 4/2/4 7/4/5 3/3/3
f 8/5/6 5/6/7 7/4/5
f 6/7/8 1/8/1 5/6/7
f 7/4/5 1/9/1 3/10/3
f 8/5/6 12/11/9 6/7/6
f 12/11/9 13/12/10 9/13/11
f 4/2/2 9/14/11 10/15/12
f 6/7/8 9/13/11 2/16/8
f 4/2/4 11/17/13 8/5/4
f 14/18/14 16/19/15 15/20/16
f 10/15/12 15/20/16 11/17/13
f 11/17/13 16/19/15 12/11/9
f 10/15/12 13/21/10 14/22/14
f 18/23/17 19/24/18 17/25/19
f 19/24/18 24/26/20 23/27/21
f 24/26/22 21/28/23 23/27/21
f 22/29/24 17/30/19 21/28/23
f 23/27/21 17/31/19 19/32/18
f 24/26/22 28/33/25 22/29/22
f 25/34/26 32/35/27 29/36/28
f 18/23/17 26/37/29 20/38/17
f 18/39/24 28/33/25 25/34/26
f 20/38/20 27/40/30 24/26/20
f 30/41/31 32/35/27 31/42/32
f 26/37/29 31/42/32 27/40/30
f 27/40/30 32/35/27 28/33/25
f 26/37/29 29/43/28 30/44/31
f 33/45/33 36/46/34 35/47/35
f 36/46/36 39/48/37 35/47/35
f 40/49/38 37/50/39 39/48/37
f 37/50/39 34/51/40 33/52/33
f 39/48/37 33/53/33 35/54/35
f 40/49/38 44/55/41 38/56/38
f 44/55/41 45/57/42 41/58/43
f 36/46/34 41/59/43 42/60/44
f 38/56/40 41/58/43 34/51/40
f 40/49/36 42/60/44 43/61/45
f 46/62/46 48/63/47 47/64/48
f 43/61/45 46/65/46 47/64/48
f 43/61/45 48/63/47 44/55/41
f 42/60/44 45/66/42 46/65/46
f 1/1/1 2/67/2 4/2/2
f 4/2/4 8/5/4 7/4/5
f 8/5/6 6/7/6 5/6/7
f 6/7/8 2/16/8 1/8/1
f 7/4/5 5/6/7 1/9/1
f 8/5/6 11/17/13 12/11/9
f 12/11/9 16/19/15 13/12/10
f 4/2/2 2/67/2 9/14/11
f 6/7/8 12/11/9 9/13/11
f 4/2/4 10/15/12 11/17/13
f 14/18/14 13/68/10 16/19/15
f 10/15/12 14/22/14 15/20/16
f 11/17/13 15/20/16 16/19/15
f 10/15/12 9/14/11 13/21/10
f 18/23/17 20/38/17 19/24/18
f 19/24/18 20/38/20 24/26/20
f 24/26/22 22/29/22 21/28/23
f 22/29/24 18/39/24 17/30/19
f 23/27/21 21/28/23 17/31/19
f 24/26/22 27/40/30 28/33/25
f 25/34/26 28/33/25 32/35/27
f 18/23/17 25/69/26 26/37/29
f 18/39/24 22/29/24 28/33/25
f 20/38/20 26/37/29 27/40/30
f 30/41/31 29/70/28 32/35/27
f 26/37/29 30/44/31 31/42/32
f 27/40/30 31/42/32 32/35/27
f 26/37/29 25/69/26 29/43/28
f 33/45/33 34/71/34 36/46/34
f 36/46/36 40/49/36 39/48/37
f 40/49/38 38/56/38 37/50/39
f 37/50/39 38/56/40 34/51/40
f 39/48/37 37/50/39 33/53/33
f 40/49/38 43/61/45 44/55/41
f 44/55/41 48/63/47 45/57/42
f 36/46/34 34/71/34 41/59/43
f 38/56/40 44/55/41 41/58/43
f 40/49/36 36/46/36 42/60/44
f 46/62/46 45/72/42 48/63/47
f 43/61/45 42/60/44 46/65/46
f 43/61/45 47/64/48 48/63/47
f 42/60/44 41/59/43 45/66/42
