# Blender v3.4.1 OBJ File: 'umimura.blend'
# www.blender.org
o Wind_Turbine_Cube.001
v 0.006906 -0.819222 -0.001852
v 0.042600 -0.107861 -0.011185
v 0.006906 -0.819222 0.002039
v 0.042600 -0.107861 0.011371
v -0.007978 -0.819222 -0.001852
v -0.043673 -0.107861 -0.011185
v -0.007978 -0.819222 0.002039
v -0.043673 -0.107861 0.011371
v 0.025902 -0.004428 -0.006819
v 0.025902 -0.004428 0.007006
v -0.026975 -0.004428 0.007006
v -0.026975 -0.004428 -0.006819
v 0.012190 0.014109 -0.003234
v 0.012190 0.014109 0.003421
v -0.013262 0.014109 0.003421
v -0.013262 0.014109 -0.003234
v 0.702529 0.416973 -0.001852
v 0.068625 0.092204 -0.011185
v 0.702529 0.416973 0.002039
v 0.068625 0.092204 0.011371
v 0.709971 0.404083 -0.001852
v 0.111761 0.017490 -0.011185
v 0.709971 0.404083 0.002039
v 0.111761 0.017490 0.011371
v -0.012602 0.026027 -0.006819
v -0.012602 0.026027 0.007006
v 0.013837 -0.019766 0.007006
v 0.013837 -0.019766 -0.006819
v -0.021800 0.004883 -0.003234
v -0.021800 0.004883 0.003420
v -0.009074 -0.017159 0.003420
v -0.009074 -0.017159 -0.003234
v -0.708624 0.404083 -0.001852
v -0.110415 0.017490 -0.011185
v -0.708624 0.404083 0.002039
v -0.110415 0.017490 0.011371
v -0.701182 0.416973 -0.001852
v -0.067278 0.092204 -0.011185
v -0.701182 0.416973 0.002039
v -0.067278 0.092204 0.011371
v -0.012490 -0.019766 -0.006819
v -0.012490 -0.019766 0.007006
v 0.013949 0.026027 0.007006
v 0.013949 0.026027 -0.006819
v 0.010420 -0.017159 -0.003234
v 0.010420 -0.017159 0.003420
v 0.023146 0.004883 0.003420
v 0.023146 0.004883 -0.003234
vt 0.625000 0.000000
vt 0.375000 0.250000
vt 0.375000 0.000000
vt 0.625000 0.250000
vt 0.375000 0.500000
vt 0.625000 0.500000
vt 0.375000 0.750000
vt 0.625000 0.750000
vt 0.375000 1.000000
vt 0.125000 0.750000
vt 0.125000 0.500000
vt 0.625000 0.750000
vt 0.625000 1.000000
vt 0.625000 1.000000
vt 0.625000 0.000000
vt 0.625000 0.250000
vt 0.625000 1.000000
vt 0.625000 0.500000
vt 0.875000 0.500000
vt 0.625000 0.750000
vt 0.625000 0.500000
vt 0.625000 0.000000
vt 0.625000 0.250000
vt 0.625000 0.000000
vt 0.375000 0.250000
vt 0.375000 0.000000
vt 0.625000 0.500000
vt 0.375000 0.500000
vt 0.375000 0.750000
vt 0.625000 0.750000
vt 0.375000 1.000000
vt 0.125000 0.750000
vt 0.125000 0.500000
vt 0.625000 0.750000
vt 0.625000 1.000000
vt 0.625000 0.750000
vt 0.625000 1.000000
vt 0.625000 0.250000
vt 0.625000 0.250000
vt 0.625000 1.000000
vt 0.625000 0.500000
vt 0.875000 0.500000
vt 0.625000 0.500000
vt 0.625000 0.000000
vt 0.625000 0.250000
vt 0.625000 0.000000
vt 0.375000 0.250000
vt 0.375000 0.000000
vt 0.625000 0.250000
vt 0.375000 0.500000
vt 0.625000 0.500000
vt 0.375000 0.750000
vt 0.625000 1.000000
vt 0.375000 1.000000
vt 0.125000 0.750000
vt 0.125000 0.500000
vt 0.625000 0.750000
vt 0.625000 0.750000
vt 0.625000 1.000000
vt 0.625000 1.000000
vt 0.625000 0.250000
vt 0.625000 0.500000
vt 0.875000 0.500000
vt 0.625000 0.750000
vt 0.625000 0.500000
vt 0.625000 0.250000
vt 0.625000 0.000000
vt 0.875000 0.750000
vt 0.625000 0.000000
vt 0.875000 0.750000
vt 0.625000 0.000000
vt 0.875000 0.750000
vn 0.7220 0.0483 -0.6902
vn 0.5620 -0.5938 0.5758
vn 0.5620 -0.5938 -0.5758
vn 0.7220 0.0483 0.6902
vn -0.5620 -0.5938 0.5758
vn -0.7220 0.0483 0.6902
vn -0.5620 -0.5938 -0.5758
vn -0.7220 0.0483 -0.6902
vn -0.6757 0.3344 -0.6569
vn 0.3503 0.7615 -0.5454
vn 0.6757 0.3344 -0.6569
vn 0.6757 0.3344 0.6569
vn -0.6757 0.3344 0.6569
vn 0.3503 0.7615 0.5454
vn -0.3503 0.7615 -0.5454
vn -0.3503 0.7615 0.5454
vn -0.4029 0.6011 -0.6902
vn 0.2332 0.7836 0.5758
vn 0.2332 0.7836 -0.5758
vn 0.3192 -0.6495 0.6902
vn 0.7952 -0.1898 0.5758
vn 0.7952 -0.1898 -0.5758
vn 0.3192 -0.6495 -0.6902
vn 0.0483 -0.7524 -0.6569
vn -0.6275 0.4180 -0.6569
vn -0.4843 -0.6841 -0.5454
vn -0.8346 -0.0773 -0.5454
vn -0.6275 0.4180 0.6569
vn -0.4029 0.6011 0.6902
vn 0.0483 -0.7524 0.6569
vn -0.8346 -0.0773 0.5454
vn -0.4843 -0.6841 0.5454
vn -0.3192 -0.6495 -0.6902
vn -0.7952 -0.1898 0.5758
vn -0.7952 -0.1898 -0.5758
vn -0.3192 -0.6495 0.6902
vn -0.2333 0.7836 0.5758
vn 0.4029 0.6011 0.6902
vn -0.2332 0.7836 -0.5758
vn 0.6275 0.4180 -0.6569
vn 0.4029 0.6011 -0.6902
vn 0.4843 -0.6841 -0.5454
vn -0.0483 -0.7524 -0.6569
vn -0.0483 -0.7524 0.6569
vn 0.6275 0.4180 0.6569
vn 0.4843 -0.6841 0.5454
vn 0.8346 -0.0773 -0.5454
vn 0.8346 -0.0773 0.5454
s 1
f 2/1/1 3/2/2 1/3/3
f 4/4/4 7/5/5 3/2/2
f 8/6/6 5/7/7 7/5/5
f 6/8/8 1/9/3 5/7/7
f 7/5/5 1/10/3 3/11/2
f 8/6/6 12/12/9 6/8/8
f 12/12/9 13/13/10 9/14/11
f 4/4/4 9/15/11 10/16/12
f 6/8/8 9/14/11 2/17/1
f 8/6/6 10/16/12 11/18/13
f 14/19/14 16/20/15 15/21/16
f 10/16/12 15/21/16 11/18/13
f 11/18/13 16/20/15 12/12/9
f 10/16/12 13/22/10 14/23/14
f 18/24/17 19/25/18 17/26/19
f 19/25/18 24/27/20 23/28/21
f 24/27/20 21/29/22 23/28/21
f 22/30/23 17/31/19 21/29/22
f 23/28/21 17/32/19 19/33/18
f 24/27/20 28/34/24 22/30/23
f 25/35/25 32/36/26 29/37/27
f 18/24/17 26/38/28 20/39/29
f 18/40/17 28/34/24 25/35/25
f 20/39/29 27/41/30 24/27/20
f 30/42/31 32/36/26 31/43/32
f 26/38/28 31/43/32 27/41/30
f 27/41/30 32/36/26 28/34/24
f 26/38/28 29/44/27 30/45/31
f 34/46/33 35/47/34 33/48/35
f 36/49/36 39/50/37 35/47/34
f 40/51/38 37/52/39 39/50/37
f 37/52/39 34/53/33 33/54/35
f 39/50/37 33/55/35 35/56/34
f 40/51/38 44/57/40 38/58/41
f 44/57/40 45/59/42 41/60/43
f 34/46/33 42/61/44 36/49/36
f 38/58/41 41/60/43 34/53/33
f 40/51/38 42/61/44 43/62/45
f 46/63/46 48/64/47 47/65/48
f 43/62/45 46/66/46 47/65/48
f 43/62/45 48/64/47 44/57/40
f 42/61/44 45/67/42 46/66/46
f 2/1/1 4/4/4 3/2/2
f 4/4/4 8/6/6 7/5/5
f 8/6/6 6/8/8 5/7/7
f 6/8/8 2/17/1 1/9/3
f 7/5/5 5/7/7 1/10/3
f 8/6/6 11/18/13 12/12/9
f 12/12/9 16/20/15 13/13/10
f 4/4/4 2/1/1 9/15/11
f 6/8/8 12/12/9 9/14/11
f 8/6/6 4/4/4 10/16/12
f 14/19/14 13/68/10 16/20/15
f 10/16/12 14/23/14 15/21/16
f 11/18/13 15/21/16 16/20/15
f 10/16/12 9/15/11 13/22/10
f 18/24/17 20/39/29 19/25/18
f 19/25/18 20/39/29 24/27/20
f 24/27/20 22/30/23 21/29/22
f 22/30/23 18/40/17 17/31/19
f 23/28/21 21/29/22 17/32/19
f 24/27/20 27/41/30 28/34/24
f 25/35/25 28/34/24 32/36/26
f 18/24/17 25/69/25 26/38/28
f 18/40/17 22/30/23 28/34/24
f 20/39/29 26/38/28 27/41/30
f 30/42/31 29/70/27 32/36/26
f 26/38/28 30/45/31 31/43/32
f 27/41/30 31/43/32 32/36/26
f 26/38/28 25/69/25 29/44/27
f 34/46/33 36/49/36 35/47/34
f 36/49/36 40/51/38 39/50/37
f 40/51/38 38/58/41 37/52/39
f 37/52/39 38/58/41 34/53/33
f 39/50/37 37/52/39 33/55/35
f 40/51/38 43/62/45 44/57/40
f 44/57/40 48/64/47 45/59/42
f 34/46/33 41/71/43 42/61/44
f 38/58/41 44/57/40 41/60/43
f 40/51/38 36/49/36 42/61/44
f 46/63/46 45/72/42 48/64/47
f 43/62/45 42/61/44 46/66/46
f 43/62/45 47/65/48 48/64/47
f 42/61/44 41/71/43 45/67/42
