# Blender v3.4.1 OBJ File: 'umimura.blend'
# www.blender.org
o Window_2_Plane.004
v 0.617711 -0.603915 0.000000
v -0.608888 -0.660628 0.000000
v 0.706263 0.596179 -0.000000
v -0.667020 0.622985 -0.000000
v 0.925645 0.000000 0.000000
v 0.000000 -0.925645 0.000000
v -0.925645 0.000000 0.000000
v 0.000000 0.925645 -0.000000
v 0.000000 0.000000 0.000000
v -0.894310 -0.083742 -0.079418
v 0.894310 -0.083742 -0.079418
v -0.894310 -0.083742 0.119825
v 0.894310 -0.083742 0.119825
v -0.894310 0.083742 -0.079418
v 0.894310 0.083742 -0.079418
v -0.894310 0.083742 0.119825
v 0.894310 0.083742 0.119825
v 0.000000 1.000000 0.126155
v 0.000000 1.000000 -0.126155
v -0.406737 0.913545 0.126155
v -0.406737 0.913545 -0.126155
v -0.743145 0.669131 0.126155
v -0.743145 0.669131 -0.126155
v -0.951057 0.309017 0.126155
v -0.951057 0.309017 -0.126155
v -0.994522 -0.104528 0.126155
v -0.994522 -0.104528 -0.126155
v -0.866025 -0.500000 0.126155
v -0.866025 -0.500000 -0.126155
v -0.587785 -0.809017 0.126155
v -0.587785 -0.809017 -0.126155
v -0.207912 -0.978148 0.126155
v -0.207912 -0.978148 -0.126155
v 0.207912 -0.978148 0.126155
v 0.207912 -0.978148 -0.126155
v 0.587785 -0.809017 0.126155
v 0.587785 -0.809017 -0.126155
v 0.866025 -0.500000 0.126155
v 0.866025 -0.500000 -0.126155
v 0.994522 -0.104528 0.126155
v 0.994522 -0.104528 -0.126155
v 0.951057 0.309017 0.126155
v 0.951057 0.309017 -0.126155
v 0.743145 0.669131 0.126155
v 0.743145 0.669131 -0.126155
v 0.406737 0.913545 0.126155
v 0.406737 0.913545 -0.126155
v 0.735215 0.238886 -0.126155
v 0.314428 0.706217 -0.126155
v 0.574489 0.517272 -0.126155
v 0.669482 -0.386525 -0.126155
v 0.160726 -0.756158 -0.126155
v 0.454388 -0.625411 -0.126155
v -0.454388 -0.625411 -0.126155
v -0.768816 -0.080806 -0.126155
v -0.669482 -0.386526 -0.126155
v -0.314428 0.706217 -0.126155
v -0.574489 0.517272 -0.126155
v 0.000000 0.773051 -0.126155
v 0.768816 -0.080806 -0.126155
v -0.735215 0.238886 -0.126155
v -0.160726 -0.756158 -0.126155
v -0.574489 0.517272 0.126155
v -0.768816 -0.080806 0.126155
v -0.735215 0.238886 0.126155
v 0.160726 -0.756158 0.126155
v -0.454388 -0.625411 0.126155
v -0.160726 -0.756158 0.126155
v 0.768816 -0.080806 0.126155
v 0.735215 0.238886 0.126155
v 0.669482 -0.386525 0.126155
v 0.000000 0.773051 0.126155
v 0.314428 0.706217 0.126155
v -0.314428 0.706217 0.126155
v 0.574489 0.517272 0.126155
v -0.669482 -0.386526 0.126155
v 0.454388 -0.625411 0.126155
v 0.087885 -0.894310 -0.099622
v 0.087885 0.894310 -0.099622
v 0.087885 -0.894310 0.099622
v 0.087885 0.894310 0.099622
v -0.087885 -0.894310 -0.099622
v -0.087885 0.894310 -0.099622
v -0.087885 -0.894310 0.099622
v -0.087885 0.894310 0.099622
vt 0.186038 0.618641
vt 0.245305 0.436630
vt 0.361970 0.536571
vt 0.361970 0.700017
vt 0.268109 0.794573
vt 0.126024 0.789591
vt 0.006491 0.561487
vt 0.010107 0.700712
vt 0.506751 0.436630
vt 0.548537 0.811751
vt 0.506751 0.811751
vt 0.891420 0.436630
vt 0.926546 0.811751
vt 0.891420 0.811751
vt 0.603306 0.811751
vt 0.561520 0.436630
vt 0.603306 0.436630
vt 0.897323 0.381612
vt 0.862197 0.006491
vt 0.897323 0.006491
vt 0.091368 0.807555
vt 0.056338 0.849342
vt 0.056338 0.807555
vt 0.104351 0.849342
vt 0.139381 0.807555
vt 0.139381 0.849342
vt 0.427869 0.592487
vt 0.374952 0.677790
vt 0.374952 0.592487
vt 0.427869 0.677790
vt 0.374952 0.748344
vt 0.725828 0.743387
vt 0.778744 0.664850
vt 0.778744 0.743387
vt 0.725828 0.577682
vt 0.778744 0.577682
vt 0.778744 0.496956
vt 0.725828 0.496956
vt 0.778744 0.436630
vt 0.910306 0.253040
vt 0.963222 0.173370
vt 0.963222 0.253040
vt 0.910306 0.173370
vt 0.963222 0.086161
vt 0.910306 0.086161
vt 0.963222 0.006491
vt 0.493768 0.436630
vt 0.440852 0.505568
vt 0.440852 0.436630
vt 0.493768 0.505568
vt 0.440852 0.590272
vt 0.493768 0.590272
vt 0.440852 0.676094
vt 0.493768 0.676094
vt 0.440852 0.748196
vt 0.297283 0.355477
vt 0.347383 0.310366
vt 0.385890 0.338343
vt 0.151409 0.015607
vt 0.233165 0.053828
vt 0.166117 0.060875
vt 0.427869 0.436629
vt 0.374952 0.507183
vt 0.374952 0.436629
vt 0.427869 0.507183
vt 0.813743 0.091795
vt 0.802657 0.181360
vt 0.775236 0.119772
vt 0.535585 0.335555
vt 0.593970 0.369263
vt 0.579262 0.414531
vt 0.992445 0.557115
vt 0.939529 0.491171
vt 0.992445 0.491171
vt 0.992445 0.436630
vt 0.939529 0.436630
vt 0.778744 0.756370
vt 0.725828 0.817083
vt 0.725828 0.756370
vt 0.778744 0.817083
vt 0.725828 0.884468
vt 0.725828 0.946873
vt 0.778744 0.884468
vt 0.778744 0.946873
vt 0.725828 0.993509
vt 0.778744 0.993509
vt 0.493768 0.890184
vt 0.440852 0.951773
vt 0.440852 0.890184
vt 0.493768 0.822767
vt 0.440852 0.822767
vt 0.493768 0.761178
vt 0.440852 0.761178
vt 0.992445 0.878147
vt 0.939529 0.931440
vt 0.939529 0.878147
vt 0.939529 0.812667
vt 0.992445 0.812667
vt 0.939529 0.746322
vt 0.992445 0.746322
vt 0.939529 0.690583
vt 0.992445 0.690583
vt 0.992445 0.677601
vt 0.939529 0.623059
vt 0.992445 0.623059
vt 0.939529 0.557115
vt 0.712845 0.810728
vt 0.671059 0.436630
vt 0.712845 0.436630
vt 0.828591 0.811751
vt 0.791727 0.436630
vt 0.828591 0.436630
vt 0.658076 0.810728
vt 0.616289 0.436630
vt 0.658076 0.436630
vt 0.878437 0.811751
vt 0.841574 0.436630
vt 0.878437 0.436630
vt 0.411816 0.761327
vt 0.374952 0.803113
vt 0.374952 0.761327
vt 0.043355 0.807555
vt 0.006491 0.849342
vt 0.006491 0.807555
vt 0.103968 0.442710
vt 0.548537 0.436630
vt 0.926546 0.436630
vt 0.561520 0.811751
vt 0.862197 0.381612
vt 0.091368 0.849342
vt 0.104351 0.807555
vt 0.427869 0.748344
vt 0.725828 0.664850
vt 0.725828 0.436630
vt 0.910306 0.006491
vt 0.493768 0.748196
vt 0.374804 0.248778
vt 0.421362 0.258674
vt 0.321081 0.396698
vt 0.238140 0.423647
vt 0.151409 0.414531
vt 0.166117 0.369263
vt 0.233165 0.376310
vt 0.107732 0.335555
vt 0.075884 0.370926
vt 0.024623 0.300373
vt 0.006491 0.215069
vt 0.068105 0.281013
vt 0.024623 0.129766
vt 0.054089 0.215069
vt 0.075884 0.059212
vt 0.107732 0.094584
vt 0.238140 0.006491
vt 0.321081 0.033441
vt 0.385890 0.091795
vt 0.347383 0.119772
vt 0.421362 0.171465
vt 0.374804 0.181360
vt 0.297283 0.074661
vt 0.068105 0.149125
vt 0.495958 0.149125
vt 0.481942 0.215069
vt 0.434344 0.215069
vt 0.452476 0.129766
vt 0.503736 0.059212
vt 0.579262 0.015607
vt 0.535585 0.094584
vt 0.665993 0.006491
vt 0.593970 0.060875
vt 0.748934 0.033441
vt 0.725136 0.074661
vt 0.849215 0.171464
vt 0.849215 0.258674
vt 0.813743 0.338343
vt 0.775236 0.310366
vt 0.748934 0.396698
vt 0.725136 0.355477
vt 0.665993 0.423647
vt 0.661018 0.376310
vt 0.802657 0.248778
vt 0.661018 0.053828
vt 0.503736 0.370926
vt 0.452476 0.300373
vt 0.495958 0.281013
vt 0.493768 0.951773
vt 0.992445 0.931440
vt 0.939529 0.677601
vt 0.671059 0.810728
vt 0.791727 0.811751
vt 0.616289 0.810728
vt 0.841574 0.811751
vt 0.411816 0.803113
vt 0.043355 0.849342
vn 0.0000 -0.0000 -1.0000
vn 0.0000 -1.0000 0.0000
vn 0.0000 0.0000 1.0000
vn -0.0000 1.0000 0.0000
vn -1.0000 0.0000 0.0000
vn 1.0000 0.0000 0.0000
vn -0.2079 0.9781 0.0000
vn -0.5878 0.8090 0.0000
vn -0.8660 0.5000 0.0000
vn -0.9945 0.1045 -0.0000
vn -0.9511 -0.3090 0.0000
vn -0.7431 -0.6691 0.0000
vn -0.4067 -0.9135 0.0000
vn 0.4067 -0.9135 0.0000
vn 0.7431 -0.6691 0.0000
vn 0.9511 -0.3090 0.0000
vn 0.9945 0.1045 0.0000
vn 0.8660 0.5000 0.0000
vn 0.5878 0.8090 0.0000
vn 0.2079 0.9781 0.0000
vn 0.2079 -0.9781 0.0000
vn 0.5878 -0.8090 0.0000
vn 0.8660 -0.5000 0.0000
vn 0.9945 -0.1045 0.0000
vn 0.9511 0.3090 0.0000
vn 0.7431 0.6691 0.0000
vn 0.4067 0.9135 0.0000
vn -0.4067 0.9135 0.0000
vn -0.7431 0.6691 0.0000
vn -0.9511 0.3090 0.0000
vn -0.9945 -0.1045 0.0000
vn -0.8660 -0.5000 0.0000
vn -0.5878 -0.8090 0.0000
vn -0.2079 -0.9781 0.0000
s off
f 9/1/1 4/2/1 8/3/1
f 9/1/1 3/4/1 5/5/1
f 1/6/1 9/1/1 5/5/1
f 2/7/1 9/1/1 6/8/1
f 11/9/2 12/10/2 10/11/2
f 13/12/3 16/13/3 12/14/3
f 17/15/4 14/16/4 16/17/4
f 15/18/1 10/19/1 14/20/1
f 16/21/5 10/22/5 12/23/5
f 13/24/6 15/25/6 17/26/6
f 19/27/7 20/28/7 18/29/7
f 21/30/8 22/31/8 20/28/8
f 23/32/9 24/33/9 22/34/9
f 24/33/10 27/35/10 26/36/10
f 27/35/11 28/37/11 26/36/11
f 29/38/12 30/39/12 28/37/12
f 31/40/13 32/41/13 30/42/13
f 33/43/2 34/44/2 32/41/2
f 35/45/14 36/46/14 34/44/14
f 37/47/15 38/48/15 36/49/15
f 39/50/16 40/51/16 38/48/16
f 41/52/17 42/53/17 40/51/17
f 43/54/18 44/55/18 42/53/18
f 60/56/1 48/57/1 43/58/1
f 25/59/1 58/60/1 61/61/1
f 45/62/19 46/63/19 44/64/19
f 47/65/20 18/29/20 46/63/20
f 26/66/3 76/67/3 64/68/3
f 69/69/3 71/70/3 38/71/3
f 59/72/21 74/73/21 57/74/21
f 58/75/22 74/73/22 63/76/22
f 63/77/23 61/78/23 58/79/23
f 65/80/24 55/81/24 61/78/24
f 56/82/25 64/83/25 76/84/25
f 54/85/26 76/84/26 67/86/26
f 62/87/27 67/88/27 68/89/27
f 52/90/4 68/89/4 66/91/4
f 53/92/28 66/91/28 77/93/28
f 51/94/29 77/95/29 71/96/29
f 51/94/30 69/97/30 60/98/30
f 60/98/31 70/99/31 48/100/31
f 48/100/32 75/101/32 50/102/32
f 50/103/33 73/104/33 49/105/33
f 49/105/34 72/106/34 59/72/34
f 79/107/6 80/108/6 78/109/6
f 81/110/3 84/111/3 80/112/3
f 85/113/5 82/114/5 84/115/5
f 83/116/1 78/117/1 82/118/1
f 84/119/2 78/120/2 80/121/2
f 81/122/4 83/123/4 85/124/4
f 9/1/1 7/125/1 4/2/1
f 9/1/1 8/3/1 3/4/1
f 1/6/1 6/8/1 9/1/1
f 2/7/1 7/125/1 9/1/1
f 11/9/2 13/126/2 12/10/2
f 13/12/3 17/127/3 16/13/3
f 17/15/4 15/128/4 14/16/4
f 15/18/1 11/129/1 10/19/1
f 16/21/5 14/130/5 10/22/5
f 13/24/6 11/131/6 15/25/6
f 19/27/7 21/30/7 20/28/7
f 21/30/8 23/132/8 22/31/8
f 23/32/9 25/133/9 24/33/9
f 24/33/10 25/133/10 27/35/10
f 27/35/11 29/38/11 28/37/11
f 29/38/12 31/134/12 30/39/12
f 31/40/13 33/43/13 32/41/13
f 33/43/2 35/45/2 34/44/2
f 35/45/14 37/135/14 36/46/14
f 37/47/15 39/50/15 38/48/15
f 39/50/16 41/52/16 40/51/16
f 41/52/17 43/54/17 42/53/17
f 43/54/18 45/136/18 44/55/18
f 50/137/1 45/138/1 43/58/1
f 43/58/1 41/139/1 60/56/1
f 41/139/1 39/140/1 60/56/1
f 39/140/1 37/141/1 53/142/1
f 39/140/1 53/142/1 51/143/1
f 48/57/1 50/137/1 43/58/1
f 39/140/1 51/143/1 60/56/1
f 52/144/1 53/142/1 37/141/1
f 37/141/1 35/145/1 52/144/1
f 35/145/1 33/146/1 52/144/1
f 33/146/1 31/147/1 62/148/1
f 31/147/1 29/149/1 54/150/1
f 62/148/1 31/147/1 54/150/1
f 29/149/1 27/151/1 55/152/1
f 27/151/1 25/59/1 61/61/1
f 25/59/1 23/153/1 58/60/1
f 23/153/1 21/154/1 58/60/1
f 21/154/1 19/155/1 59/156/1
f 19/155/1 47/157/1 49/158/1
f 47/157/1 45/138/1 49/158/1
f 45/138/1 50/137/1 49/158/1
f 62/148/1 52/144/1 33/146/1
f 19/155/1 49/158/1 59/156/1
f 21/154/1 59/156/1 57/159/1
f 21/154/1 57/159/1 58/60/1
f 56/160/1 54/150/1 29/149/1
f 55/152/1 56/160/1 29/149/1
f 61/61/1 55/152/1 27/151/1
f 45/62/19 47/65/19 46/63/19
f 47/65/20 19/27/20 18/29/20
f 73/161/3 75/162/3 44/163/3
f 44/163/3 46/164/3 73/161/3
f 46/164/3 18/165/3 73/161/3
f 18/165/3 20/166/3 72/167/3
f 20/166/3 22/168/3 74/169/3
f 72/167/3 20/166/3 74/169/3
f 22/168/3 24/170/3 65/171/3
f 24/170/3 26/66/3 64/68/3
f 26/66/3 28/172/3 76/67/3
f 28/172/3 30/173/3 76/67/3
f 30/173/3 32/174/3 68/175/3
f 32/174/3 34/176/3 66/177/3
f 34/176/3 36/178/3 66/177/3
f 36/178/3 77/179/3 66/177/3
f 72/167/3 73/161/3 18/165/3
f 32/174/3 66/177/3 68/175/3
f 30/173/3 68/175/3 67/180/3
f 30/173/3 67/180/3 76/67/3
f 63/181/3 74/169/3 22/168/3
f 65/171/3 63/181/3 22/168/3
f 64/68/3 65/171/3 24/170/3
f 71/70/3 77/179/3 36/178/3
f 36/178/3 38/71/3 71/70/3
f 38/71/3 40/182/3 69/69/3
f 40/182/3 42/183/3 69/69/3
f 42/183/3 44/163/3 70/184/3
f 69/69/3 42/183/3 70/184/3
f 44/163/3 75/162/3 70/184/3
f 59/72/21 72/106/21 74/73/21
f 58/75/22 57/74/22 74/73/22
f 63/77/23 65/80/23 61/78/23
f 65/80/24 64/83/24 55/81/24
f 56/82/25 55/81/25 64/83/25
f 54/85/26 56/82/26 76/84/26
f 62/87/27 54/185/27 67/88/27
f 52/90/4 62/87/4 68/89/4
f 53/92/28 52/90/28 66/91/28
f 51/94/29 53/186/29 77/95/29
f 51/94/30 71/96/30 69/97/30
f 60/98/31 69/97/31 70/99/31
f 48/100/32 70/99/32 75/101/32
f 50/103/33 75/187/33 73/104/33
f 49/105/34 73/104/34 72/106/34
f 79/107/6 81/188/6 80/108/6
f 81/110/3 85/189/3 84/111/3
f 85/113/5 83/190/5 82/114/5
f 83/116/1 79/191/1 78/117/1
f 84/119/2 82/192/2 78/120/2
f 81/122/4 79/193/4 83/123/4
