# Blender v3.4.1 OBJ File: 'wood-supports.blend'
# www.blender.org
o Cube
v 0.419369 1.695732 0.090479
v 0.419369 -1.695732 0.090479
v 0.419369 1.695732 -0.090479
v 0.419369 -1.695732 -0.090479
v 0.577507 1.695732 0.090479
v 0.577507 -1.695732 0.090479
v 0.577507 1.695732 -0.090479
v 0.577507 -1.695732 -0.090479
vt 0.840009 0.250055
vt 0.756658 0.333407
vt 0.756658 0.250055
vt 0.583462 0.814497
vt 0.500111 0.731145
vt 0.583462 0.731145
vt 0.500111 0.814497
vt 0.416759 0.731145
vt 0.416759 0.731145
vt 0.333407 0.814497
vt 0.333407 0.731145
vt 0.333407 0.814497
vt 0.250055 0.731145
vt 0.333407 0.731145
vt 0.166703 0.814497
vt 0.083352 0.731145
vt 0.166703 0.731145
vt 0.840009 0.333407
vt 0.416759 0.814497
vt 0.416759 0.814497
vt 0.250055 0.814497
vt 0.083352 0.814497
vn 0.0000 1.0000 0.0000
vn 0.0000 0.0000 -1.0000
vn 1.0000 0.0000 0.0000
vn 0.0000 -1.0000 0.0000
vn -1.0000 0.0000 0.0000
vn 0.0000 0.0000 1.0000
s off
f 5/1/1 3/2/1 1/3/1
f 3/4/2 8/5/2 4/6/2
f 7/7/3 6/8/3 8/5/3
f 2/9/4 8/10/4 6/11/4
f 1/12/5 4/13/5 2/14/5
f 5/15/6 2/16/6 6/17/6
f 5/1/1 7/18/1 3/2/1
f 3/4/2 7/7/2 8/5/2
f 7/7/3 5/19/3 6/8/3
f 2/9/4 4/20/4 8/10/4
f 1/12/5 3/21/5 4/13/5
f 5/15/6 1/22/6 2/16/6
o Cube.001
v -0.596956 1.695732 0.090479
v -0.596956 -1.695732 0.090479
v -0.596956 1.695732 -0.090479
v -0.596956 -1.695732 -0.090479
v -0.438818 1.695732 0.090479
v -0.438818 -1.695732 0.090479
v -0.438818 1.695732 -0.090479
v -0.438818 -1.695732 -0.090479
vt 0.083352 0.647793
vt 0.000000 0.731145
vt 0.000000 0.647793
vt 0.166703 0.731145
vt 0.083352 0.647793
vt 0.166703 0.647793
vt 0.250055 0.731145
vt 0.166704 0.647793
vt 0.250055 0.647793
vt 0.333407 0.647793
vt 0.250055 0.731145
vt 0.250055 0.647793
vt 0.416759 0.731145
vt 0.333407 0.647793
vt 0.416759 0.647793
vt 0.500111 0.731145
vt 0.500111 0.647793
vt 0.083352 0.731145
vt 0.166704 0.731145
vt 0.333407 0.731145
vt 0.333407 0.731145
vn 0.0000 1.0000 0.0000
vn 0.0000 0.0000 -1.0000
vn 1.0000 0.0000 0.0000
vn 0.0000 -1.0000 0.0000
vn -1.0000 0.0000 0.0000
vn 0.0000 0.0000 1.0000
s off
f 13/23/7 11/24/7 9/25/7
f 11/26/8 16/27/8 12/28/8
f 15/29/9 14/30/9 16/31/9
f 10/32/10 16/33/10 14/34/10
f 9/35/11 12/36/11 10/37/11
f 13/38/12 10/37/12 14/39/12
f 13/23/7 15/40/7 11/24/7
f 11/26/8 15/40/8 16/27/8
f 15/29/9 13/41/9 14/30/9
f 10/32/10 12/42/10 16/33/10
f 9/35/11 11/43/11 12/36/11
f 13/38/12 9/35/12 10/37/12
o Cube.002
v 0.490705 1.565321 0.056964
v -0.583773 0.869157 0.056964
v 0.490705 1.565321 -0.023844
v -0.583773 0.869157 -0.023844
v 0.576693 1.432605 0.056964
v -0.497785 0.736441 0.056964
v 0.576693 1.432605 -0.023844
v -0.497785 0.736441 -0.023844
v -0.586668 1.436468 0.023940
v 0.483144 0.733154 0.023940
v -0.586668 1.436468 -0.056868
v 0.483144 0.733154 -0.056868
v -0.499796 1.568608 0.023940
v 0.570015 0.865294 0.023940
v -0.499796 1.568608 -0.056868
v 0.570015 0.865294 -0.056868
vt 0.833297 0.901683
vt 0.750166 0.985035
vt 0.750166 0.901683
vt 0.666814 0.731145
vt 0.583462 0.647793
vt 0.666814 0.647793
vt 0.750166 0.734980
vt 0.666814 0.651628
vt 0.750166 0.651628
vt 0.666814 0.985035
vt 0.749945 0.901683
vt 0.749945 0.985035
vt 0.666814 0.818332
vt 0.750166 0.818332
vt 0.250055 0.814497
vt 0.166704 0.731145
vt 0.250055 0.731145
vt 0.666814 0.647793
vt 0.583463 0.613641
vt 0.666814 0.613641
vt 0.666814 0.032994
vt 0.678045 0.618634
vt 0.666814 0.651628
vt 0.250055 0.647793
vt 0.166704 0.034152
vt 0.250055 0.034152
vt 0.166704 0.000000
vt 0.583463 0.000000
vt 0.666814 0.000000
vt 0.722966 0.032994
vt 0.711736 0.618634
vt 0.711736 0.000000
vt 0.833297 0.985035
vt 0.583462 0.731145
vt 0.666814 0.734980
vt 0.666814 0.901683
vt 0.666814 0.901683
vt 0.166704 0.814497
vt 0.583463 0.647793
vt 0.678045 0.000000
vt 0.166704 0.647793
vt 0.250055 0.000000
vt 0.722966 0.651628
vn 0.8392 0.5438 0.0000
vn -0.0000 0.0000 -1.0000
vn 0.5438 -0.8392 0.0000
vn -0.8392 -0.5438 0.0000
vn -0.5438 0.8392 0.0000
vn 0.0000 0.0000 1.0000
vn -0.8356 0.5493 0.0000
vn 0.5493 0.8356 0.0000
vn 0.8356 -0.5493 0.0000
vn -0.5493 -0.8356 0.0000
s off
f 21/44/13 19/45/13 17/46/13
f 19/47/14 24/48/14 20/49/14
f 23/50/15 22/51/15 24/52/15
f 18/53/16 24/54/16 22/55/16
f 17/46/17 20/56/17 18/57/17
f 21/58/18 18/59/18 22/60/18
f 29/61/19 27/62/19 25/63/19
f 27/64/14 32/65/14 28/66/14
f 31/67/20 30/68/20 32/69/20
f 26/70/21 32/69/21 30/68/21
f 25/63/22 28/71/22 26/72/22
f 30/73/18 25/74/18 26/75/18
f 21/44/13 23/76/13 19/45/13
f 19/47/14 23/77/14 24/48/14
f 23/50/15 21/78/15 22/51/15
f 18/53/16 20/79/16 24/54/16
f 17/46/17 19/80/17 20/56/17
f 21/58/18 17/81/18 18/59/18
f 29/61/19 31/82/19 27/62/19
f 27/64/14 31/83/14 32/65/14
f 31/67/20 29/84/20 30/68/20
f 26/70/21 28/85/21 32/69/21
f 25/63/22 27/62/22 28/71/22
f 30/73/18 29/86/18 25/74/18
o Cube.003_Cube.004
v 0.490705 0.695447 0.056964
v -0.583773 -0.000717 0.056964
v 0.490705 0.695447 -0.023844
v -0.583773 -0.000717 -0.023844
v 0.576693 0.562731 0.056964
v -0.497785 -0.133433 0.056964
v 0.576693 0.562731 -0.023844
v -0.497785 -0.133433 -0.023844
v -0.586668 0.566594 0.023940
v 0.483144 -0.136720 0.023940
v -0.586668 0.566594 -0.056868
v 0.483144 -0.136720 -0.056868
v -0.499796 0.698734 0.023940
v 0.570015 -0.004580 0.023940
v -0.499796 0.698734 -0.056868
v 0.570015 -0.004580 -0.056868
vt 0.666593 0.897848
vt 0.583462 0.981200
vt 0.583462 0.897848
vt 0.750166 0.818332
vt 0.666814 0.734980
vt 0.750166 0.734980
vt 0.833518 0.734980
vt 0.750166 0.651628
vt 0.833518 0.651628
vt 0.499889 0.981200
vt 0.583020 0.897848
vt 0.583020 0.981200
vt 0.840009 0.083352
vt 0.756658 0.000000
vt 0.840009 0.000000
vt 0.840009 0.166703
vt 0.756658 0.083352
vt 0.840009 0.083352
vt 0.083352 0.647793
vt 0.000000 0.613641
vt 0.083352 0.613641
vt 0.678045 0.032994
vt 0.689275 0.618634
vt 0.678045 0.651628
vt 0.500111 0.647793
vt 0.416759 0.034152
vt 0.500111 0.034152
vt 0.416759 0.000000
vt 0.000000 0.000000
vt 0.083352 0.000000
vt 0.745427 0.032994
vt 0.734197 0.618634
vt 0.734197 0.000000
vt 0.666593 0.981200
vt 0.666814 0.818332
vt 0.750166 0.734980
vt 0.499889 0.897848
vt 0.756658 0.083352
vt 0.756658 0.166703
vt 0.000000 0.647793
vt 0.689275 0.000000
vt 0.416759 0.647793
vt 0.500111 0.000000
vt 0.745427 0.651628
vn 0.8392 0.5438 0.0000
vn -0.0000 0.0000 -1.0000
vn 0.5438 -0.8392 0.0000
vn -0.8392 -0.5438 0.0000
vn -0.5438 0.8392 0.0000
vn 0.0000 0.0000 1.0000
vn -0.8356 0.5493 0.0000
vn 0.5493 0.8356 0.0000
vn 0.8356 -0.5493 0.0000
vn -0.5493 -0.8356 0.0000
s off
f 37/87/23 35/88/23 33/89/23
f 35/90/24 40/91/24 36/92/24
f 39/93/25 38/94/25 40/95/25
f 34/96/26 40/97/26 38/98/26
f 33/99/27 36/100/27 34/101/27
f 37/102/28 34/103/28 38/104/28
f 45/105/29 43/106/29 41/107/29
f 43/108/24 48/109/24 44/110/24
f 47/111/30 46/112/30 48/113/30
f 42/114/31 48/113/31 46/112/31
f 41/107/32 44/115/32 42/116/32
f 46/117/28 41/118/28 42/119/28
f 37/87/23 39/120/23 35/88/23
f 35/90/24 39/121/24 40/91/24
f 39/93/25 37/122/25 38/94/25
f 34/96/26 36/123/26 40/97/26
f 33/99/27 35/124/27 36/100/27
f 37/102/28 33/125/28 34/103/28
f 45/105/29 47/126/29 43/106/29
f 43/108/24 47/127/24 48/109/24
f 47/111/30 45/128/30 46/112/30
f 42/114/31 44/129/31 48/113/31
f 41/107/32 43/106/32 44/115/32
f 46/117/28 45/130/28 41/118/28
o Cube.004_Cube.005
v 0.490705 -0.156548 0.056964
v -0.583773 -0.852711 0.056964
v 0.490705 -0.156548 -0.023844
v -0.583773 -0.852711 -0.023844
v 0.576693 -0.289264 0.056964
v -0.497785 -0.985428 0.056964
v 0.576693 -0.289264 -0.023844
v -0.497785 -0.985428 -0.023844
v -0.586668 -0.285401 0.023940
v 0.483144 -0.988715 0.023940
v -0.586668 -0.285401 -0.056868
v 0.483144 -0.988715 -0.056868
v -0.499796 -0.153261 0.023940
v 0.570015 -0.856575 0.023940
v -0.499796 -0.153261 -0.056868
v 0.570015 -0.856575 -0.056868
vt 0.499889 0.897848
vt 0.416759 0.981200
vt 0.416759 0.897848
vt 0.083352 0.897848
vt 0.000000 0.814497
vt 0.083352 0.814497
vt 0.166703 0.897848
vt 0.083352 0.814497
vt 0.166703 0.814497
vt 0.916869 0.734980
vt 1.000000 0.651628
vt 1.000000 0.734980
vt 0.333407 0.897848
vt 0.250055 0.814497
vt 0.333407 0.814497
vt 0.416759 0.897848
vt 0.416759 0.814497
vt 0.333407 0.647793
vt 0.250055 0.613641
vt 0.333407 0.613641
vt 0.689275 0.032994
vt 0.700506 0.618634
vt 0.689275 0.651628
vt 0.166704 0.647793
vt 0.083352 0.034152
vt 0.166704 0.034152
vt 0.083352 0.000000
vt 0.250056 0.000000
vt 0.333407 0.000000
vt 0.756658 0.032994
vt 0.745427 0.618634
vt 0.745427 0.000000
vt 0.499889 0.981200
vt 0.000000 0.897848
vt 0.083352 0.897848
vt 0.916869 0.651628
vt 0.250055 0.897848
vt 0.250055 0.647793
vt 0.700506 0.000000
vt 0.083352 0.647793
vt 0.166704 0.000000
vt 0.756658 0.651628
vn 0.8392 0.5438 0.0000
vn -0.0000 0.0000 -1.0000
vn 0.5438 -0.8392 0.0000
vn -0.8392 -0.5438 0.0000
vn -0.5438 0.8392 0.0000
vn 0.0000 0.0000 1.0000
vn -0.8356 0.5493 0.0000
vn 0.5493 0.8356 0.0000
vn 0.8356 -0.5493 0.0000
vn -0.5493 -0.8356 0.0000
s off
f 53/131/33 51/132/33 49/133/33
f 51/134/34 56/135/34 52/136/34
f 55/137/35 54/138/35 56/139/35
f 50/140/36 56/141/36 54/142/36
f 49/143/37 52/144/37 50/145/37
f 53/146/38 50/145/38 54/147/38
f 61/148/39 59/149/39 57/150/39
f 59/151/34 64/152/34 60/153/34
f 63/154/40 62/155/40 64/156/40
f 58/157/41 64/156/41 62/155/41
f 57/150/42 60/158/42 58/159/42
f 62/160/38 57/161/38 58/162/38
f 53/131/33 55/163/33 51/132/33
f 51/134/34 55/164/34 56/135/34
f 55/137/35 53/165/35 54/138/35
f 50/140/36 52/166/36 56/141/36
f 49/143/37 51/167/37 52/144/37
f 53/146/38 49/143/38 50/145/38
f 61/148/39 63/168/39 59/149/39
f 59/151/34 63/169/34 64/152/34
f 63/154/40 61/170/40 62/155/40
f 58/157/41 60/171/41 64/156/41
f 57/150/42 59/149/42 60/158/42
f 62/160/38 61/172/38 57/161/38
o Cube.005_Cube.006
v 0.578641 0.634891 -0.038578
v 0.578641 0.792590 -0.038578
v 0.578641 0.634891 0.038578
v 0.578641 0.792590 0.038578
v -0.578641 0.634891 -0.038578
v -0.578641 0.792590 -0.038578
v -0.578641 0.634891 0.038578
v -0.578641 0.792590 0.038578
vt 0.833518 0.901683
vt 0.750166 0.818332
vt 0.833518 0.818332
vt 0.916870 0.734980
vt 0.833518 0.651628
vt 0.916870 0.651628
vt 0.916870 0.818332
vt 0.833518 0.734980
vt 0.916870 0.734980
vt 0.916870 0.901683
vt 0.916870 0.818332
vt 0.923361 0.000000
vt 0.840009 0.083352
vt 0.840009 0.000000
vt 0.923361 0.083352
vt 0.840009 0.166703
vt 0.840009 0.083352
vt 0.750166 0.901683
vt 0.833518 0.734980
vt 0.833518 0.818332
vt 0.923361 0.083352
vt 0.923361 0.166703
vn 1.0000 0.0000 0.0000
vn 0.0000 0.0000 1.0000
vn -1.0000 0.0000 0.0000
vn 0.0000 0.0000 -1.0000
vn 0.0000 -1.0000 0.0000
vn 0.0000 1.0000 0.0000
s off
f 66/173/43 67/174/43 65/175/43
f 68/176/44 71/177/44 67/178/44
f 72/179/45 69/180/45 71/181/45
f 70/182/46 65/175/46 69/183/46
f 71/184/47 65/185/47 67/186/47
f 68/187/48 70/188/48 72/189/48
f 66/173/43 68/190/43 67/174/43
f 68/176/44 72/191/44 71/177/44
f 72/179/45 70/192/45 69/180/45
f 70/182/46 66/173/46 65/175/46
f 71/184/47 69/193/47 65/185/47
f 68/187/48 66/194/48 70/188/48
o Cube.006_Cube.007
v 0.578641 -0.233649 -0.038578
v 0.578641 -0.075950 -0.038578
v 0.578641 -0.233649 0.038578
v 0.578641 -0.075950 0.038578
v -0.578641 -0.233649 -0.038578
v -0.578641 -0.075950 -0.038578
v -0.578641 -0.233649 0.038578
v -0.578641 -0.075950 0.038578
vt 0.923361 0.250055
vt 0.840009 0.166703
vt 0.923361 0.166703
vt 0.923361 0.333407
vt 0.840009 0.250055
vt 0.923361 0.250055
vt 0.923361 0.416759
vt 0.840009 0.333407
vt 0.923361 0.333407
vt 0.923361 0.500110
vt 0.840009 0.416759
vt 0.923361 0.416759
vt 0.923361 0.500110
vt 0.840009 0.583462
vt 0.840009 0.500110
vt 0.083352 0.897848
vt 0.000000 0.981200
vt 0.000000 0.897848
vt 0.840009 0.250055
vt 0.840009 0.333407
vt 0.840009 0.416759
vt 0.840009 0.500110
vt 0.923361 0.583462
vt 0.083352 0.981200
vn 1.0000 0.0000 0.0000
vn 0.0000 0.0000 1.0000
vn -1.0000 0.0000 0.0000
vn 0.0000 0.0000 -1.0000
vn 0.0000 -1.0000 0.0000
vn 0.0000 1.0000 0.0000
s off
f 74/195/49 75/196/49 73/197/49
f 76/198/50 79/199/50 75/200/50
f 80/201/51 77/202/51 79/203/51
f 78/204/52 73/205/52 77/206/52
f 79/207/53 73/208/53 75/209/53
f 76/210/54 78/211/54 80/212/54
f 74/195/49 76/213/49 75/196/49
f 76/198/50 80/214/50 79/199/50
f 80/201/51 78/215/51 77/202/51
f 78/204/52 74/216/52 73/205/52
f 79/207/53 77/217/53 73/208/53
f 76/210/54 74/218/54 78/211/54
o Cube.007_Cube.008
v 0.578641 1.511996 -0.038578
v 0.578641 1.669695 -0.038578
v 0.578641 1.511996 0.038578
v 0.578641 1.669695 0.038578
v -0.578641 1.511996 -0.038578
v -0.578641 1.669695 -0.038578
v -0.578641 1.511996 0.038578
v -0.578641 1.669695 0.038578
vt 0.166703 0.981200
vt 0.083352 0.897848
vt 0.166703 0.897848
vt 0.250055 0.981200
vt 0.166703 0.897848
vt 0.250055 0.897848
vt 0.333407 0.981200
vt 0.250055 0.897848
vt 0.333407 0.897848
vt 0.416759 0.981200
vt 0.333407 0.897848
vt 0.416759 0.897848
vt 0.250055 0.814497
vt 0.166703 0.814497
vt 0.840009 0.500110
vt 0.756658 0.583462
vt 0.756658 0.500110
vt 0.083352 0.981200
vt 0.166703 0.981200
vt 0.250055 0.981200
vt 0.333407 0.981200
vt 0.840009 0.583462
vn 1.0000 0.0000 0.0000
vn 0.0000 0.0000 1.0000
vn -1.0000 0.0000 0.0000
vn 0.0000 0.0000 -1.0000
vn 0.0000 -1.0000 0.0000
vn 0.0000 1.0000 0.0000
s off
f 82/219/55 83/220/55 81/221/55
f 84/222/56 87/223/56 83/224/56
f 88/225/57 85/226/57 87/227/57
f 86/228/58 81/229/58 85/230/58
f 87/231/59 81/221/59 83/232/59
f 84/233/60 86/234/60 88/235/60
f 82/219/55 84/236/55 83/220/55
f 84/222/56 88/237/56 87/223/56
f 88/225/57 86/238/57 85/226/57
f 86/228/58 82/239/58 81/229/58
f 87/231/59 85/226/59 81/221/59
f 84/233/60 82/240/60 86/234/60
o Cube.008_Cube.009
v 0.578641 -1.054124 -0.038578
v 0.578641 -0.896425 -0.038578
v 0.578641 -1.054124 0.038578
v 0.578641 -0.896425 0.038578
v -0.578641 -1.054124 -0.038578
v -0.578641 -0.896425 -0.038578
v -0.578641 -1.054124 0.038578
v -0.578641 -0.896425 0.038578
vt 0.833518 0.818332
vt 0.750166 0.734980
vt 0.833518 0.734980
vt 0.666814 0.814497
vt 0.583462 0.731145
vt 0.666814 0.731145
vt 0.083352 0.814497
vt 0.000000 0.731145
vt 0.083352 0.731145
vt 0.583462 0.731145
vt 0.500111 0.647793
vt 0.583462 0.647793
vt 0.500111 0.814497
vt 0.416759 0.897848
vt 0.416759 0.814497
vt 0.840009 0.166703
vt 0.756658 0.250055
vt 0.756658 0.166703
vt 0.750166 0.818332
vt 0.583462 0.814497
vt 0.000000 0.814497
vt 0.500111 0.731145
vt 0.500111 0.897848
vt 0.840009 0.250055
vn 1.0000 0.0000 0.0000
vn 0.0000 0.0000 1.0000
vn -1.0000 0.0000 0.0000
vn 0.0000 0.0000 -1.0000
vn 0.0000 -1.0000 0.0000
vn 0.0000 1.0000 0.0000
s off
f 90/241/61 91/242/61 89/243/61
f 92/244/62 95/245/62 91/246/62
f 96/247/63 93/248/63 95/249/63
f 94/250/64 89/251/64 93/252/64
f 95/253/65 89/254/65 91/255/65
f 92/256/66 94/257/66 96/258/66
f 90/241/61 92/259/61 91/242/61
f 92/244/62 96/260/62 95/245/62
f 96/247/63 94/261/63 93/248/63
f 94/250/64 90/262/64 89/251/64
f 95/253/65 93/263/65 89/254/65
f 92/256/66 90/264/66 94/257/66
o Cube.009_Cube.010
v 0.490705 -0.954042 0.056964
v -0.583773 -1.650205 0.056964
v 0.490705 -0.954042 -0.023844
v -0.583773 -1.650205 -0.023844
v 0.576693 -1.086758 0.056964
v -0.497785 -1.782922 0.056964
v 0.576693 -1.086758 -0.023844
v -0.497785 -1.782922 -0.023844
v -0.586668 -1.082895 0.023940
v 0.483144 -1.786209 0.023940
v -0.586668 -1.082895 -0.056868
v 0.483144 -1.786209 -0.056868
v -0.499796 -0.950755 0.023940
v 0.570015 -1.654068 0.023940
v -0.499796 -0.950755 -0.056868
v 0.570015 -1.654068 -0.056868
vt 0.999779 0.901683
vt 0.916648 0.985035
vt 0.916648 0.901683
vt 0.666814 0.897848
vt 0.583462 0.814497
vt 0.666814 0.814497
vt 0.583462 0.897848
vt 0.500111 0.814497
vt 0.833518 0.985035
vt 0.916648 0.901683
vt 0.916648 0.985035
vt 0.840009 0.500110
vt 0.756658 0.416759
vt 0.840009 0.416759
vt 0.840009 0.416759
vt 0.756658 0.333407
vt 0.840009 0.333407
vt 0.583462 0.647793
vt 0.500111 0.613641
vt 0.583462 0.613641
vt 0.700506 0.032994
vt 0.711736 0.618634
vt 0.700506 0.651628
vt 0.416759 0.647793
vt 0.333407 0.034152
vt 0.416759 0.034152
vt 0.333407 0.000000
vt 0.500111 0.000000
vt 0.583462 0.000000
vt 0.734197 0.032994
vt 0.722966 0.618634
vt 0.722966 0.000000
vt 0.999779 0.985035
vt 0.500111 0.897848
vt 0.833518 0.901683
vt 0.756658 0.500110
vt 0.756658 0.416759
vt 0.500111 0.647793
vt 0.711736 0.000000
vt 0.333407 0.647793
vt 0.416759 0.000000
vt 0.734197 0.651628
vn 0.8392 0.5438 0.0000
vn -0.0000 0.0000 -1.0000
vn 0.5438 -0.8392 0.0000
vn -0.8392 -0.5438 0.0000
vn -0.5438 0.8392 0.0000
vn 0.0000 0.0000 1.0000
vn -0.8356 0.5493 0.0000
vn 0.5493 0.8356 0.0000
vn 0.8356 -0.5493 0.0000
vn -0.5493 -0.8356 0.0000
s off
f 101/265/67 99/266/67 97/267/67
f 99/268/68 104/269/68 100/270/68
f 103/271/69 102/272/69 104/269/69
f 98/273/70 104/274/70 102/275/70
f 97/276/71 100/277/71 98/278/71
f 101/279/72 98/280/72 102/281/72
f 109/282/73 107/283/73 105/284/73
f 107/285/68 112/286/68 108/287/68
f 111/288/74 110/289/74 112/290/74
f 106/291/75 112/290/75 110/289/75
f 105/284/76 108/292/76 106/293/76
f 110/294/72 105/295/72 106/296/72
f 101/265/67 103/297/67 99/266/67
f 99/268/68 103/271/68 104/269/68
f 103/271/69 101/298/69 102/272/69
f 98/273/70 100/299/70 104/274/70
f 97/276/71 99/300/71 100/277/71
f 101/279/72 97/301/72 98/280/72
f 109/282/73 111/302/73 107/283/73
f 107/285/68 111/303/68 112/286/68
f 111/288/74 109/304/74 110/289/74
f 106/291/75 108/305/75 112/290/75
f 105/284/76 107/283/76 108/292/76
f 110/294/72 109/306/72 105/295/72
