# Blender v3.4.1 OBJ File: 'wood-supports.blend'
# www.blender.org
o Cube
v 0.419369 1.695732 0.090479
v 0.419369 -1.695732 0.090479
v 0.419369 1.695732 -0.090479
v 0.419369 -1.695732 -0.090479
v 0.577507 1.695732 0.090479
v 0.577507 -1.695732 0.090479
v 0.577507 1.695732 -0.090479
v 0.577507 -1.695732 -0.090479
v -0.596956 1.695732 0.090479
v -0.596956 -1.695732 0.090479
v -0.596956 1.695732 -0.090479
v -0.596956 -1.695732 -0.090479
v -0.438818 1.695732 0.090479
v -0.438818 -1.695732 0.090479
v -0.438818 1.695732 -0.090479
v -0.438818 -1.695732 -0.090479
v 0.490705 1.565321 0.056964
v -0.583773 0.869157 0.056964
v 0.490705 1.565321 -0.023844
v -0.583773 0.869157 -0.023844
v 0.576693 1.432605 0.056964
v -0.497785 0.736441 0.056964
v 0.576693 1.432605 -0.023844
v -0.497785 0.736441 -0.023844
v -0.586668 1.436468 0.023940
v 0.483144 0.733154 0.023940
v -0.586668 1.436468 -0.056868
v 0.483144 0.733154 -0.056868
v -0.499796 1.568608 0.023940
v 0.570015 0.865294 0.023940
v -0.499796 1.568608 -0.056868
v 0.570015 0.865294 -0.056868
v 0.490705 0.695447 0.056964
v -0.583773 -0.000716 0.056964
v 0.490705 0.695447 -0.023844
v -0.583773 -0.000716 -0.023844
v 0.576693 0.562731 0.056964
v -0.497785 -0.133433 0.056964
v 0.576693 0.562731 -0.023844
v -0.497785 -0.133433 -0.023844
v -0.586668 0.566594 0.023940
v 0.483144 -0.136720 0.023940
v -0.586668 0.566594 -0.056868
v 0.483144 -0.136720 -0.056868
v -0.499796 0.698734 0.023940
v 0.570015 -0.004580 0.023940
v -0.499796 0.698734 -0.056868
v 0.570015 -0.004580 -0.056868
v 0.490705 -0.156548 0.056964
v -0.583773 -0.852711 0.056964
v 0.490705 -0.156548 -0.023844
v -0.583773 -0.852711 -0.023844
v 0.576693 -0.289264 0.056964
v -0.497785 -0.985428 0.056964
v 0.576693 -0.289264 -0.023844
v -0.497785 -0.985428 -0.023844
v -0.586668 -0.285401 0.023940
v 0.483144 -0.988715 0.023940
v -0.586668 -0.285401 -0.056868
v 0.483144 -0.988715 -0.056868
v -0.499796 -0.153261 0.023940
v 0.570015 -0.856575 0.023940
v -0.499796 -0.153261 -0.056868
v 0.570015 -0.856575 -0.056868
v 0.578641 0.634891 -0.038578
v 0.578641 0.792590 -0.038578
v 0.578641 0.634891 0.038578
v 0.578641 0.792590 0.038578
v -0.578641 0.634891 -0.038578
v -0.578641 0.792590 -0.038578
v -0.578641 0.634891 0.038578
v -0.578641 0.792590 0.038578
v 0.578641 -0.233649 -0.038578
v 0.578641 -0.075950 -0.038578
v 0.578641 -0.233649 0.038578
v 0.578641 -0.075950 0.038578
v -0.578641 -0.233649 -0.038578
v -0.578641 -0.075950 -0.038578
v -0.578641 -0.233649 0.038578
v -0.578641 -0.075950 0.038578
v 0.578641 1.511996 -0.038578
v 0.578641 1.669695 -0.038578
v 0.578641 1.511996 0.038578
v 0.578641 1.669695 0.038578
v -0.578641 1.511996 -0.038578
v -0.578641 1.669695 -0.038578
v -0.578641 1.511996 0.038578
v -0.578641 1.669695 0.038578
v 0.578641 -1.054124 -0.038578
v 0.578641 -0.896425 -0.038578
v 0.578641 -1.054124 0.038578
v 0.578641 -0.896425 0.038578
v -0.578641 -1.054124 -0.038578
v -0.578641 -0.896425 -0.038578
v -0.578641 -1.054124 0.038578
v -0.578641 -0.896425 0.038578
v 0.490705 -0.954042 0.056964
v -0.583773 -1.650205 0.056964
v 0.490705 -0.954042 -0.023844
v -0.583773 -1.650205 -0.023844
v 0.576693 -1.086758 0.056964
v -0.497785 -1.782922 0.056964
v 0.576693 -1.086758 -0.023844
v -0.497785 -1.782922 -0.023844
v -0.586668 -1.082895 0.023940
v 0.483144 -1.786209 0.023940
v -0.586668 -1.082895 -0.056868
v 0.483144 -1.786209 -0.056868
v -0.499796 -0.950755 0.023940
v 0.570015 -1.654069 0.023940
v -0.499796 -0.950755 -0.056868
v 0.570015 -1.654069 -0.056868
vt 0.578866 0.766754
vt 0.621946 0.716143
vt 0.621946 0.766754
vt 0.290898 0.948524
vt 0.246670 0.000000
vt 0.290898 0.000000
vt 0.050610 0.923892
vt 0.000000 0.000000
vt 0.050611 0.000000
vt 0.665025 0.716143
vt 0.621946 0.766754
vt 0.621946 0.716143
vt 0.101221 0.923892
vt 0.050611 0.000000
vt 0.101221 0.000000
vt 0.246670 0.948524
vt 0.202442 0.000000
vt 0.246670 0.000000
vt 0.578866 0.817364
vt 0.621946 0.766754
vt 0.621946 0.817364
vt 0.335126 0.948524
vt 0.290898 0.000000
vt 0.335126 0.000000
vt 0.202442 0.923892
vt 0.151832 0.000000
vt 0.202442 0.000000
vt 0.732029 0.716143
vt 0.688950 0.766754
vt 0.688950 0.716143
vt 0.151831 0.923892
vt 0.101221 0.000000
vt 0.151832 0.000000
vt 0.379354 0.948524
vt 0.335126 0.000000
vt 0.379354 0.000000
vt 0.578866 0.817364
vt 0.601467 0.858963
vt 0.578866 0.858963
vt 0.733178 0.358072
vt 0.688950 0.000000
vt 0.733178 0.000000
vt 0.954799 0.336789
vt 0.932199 0.000000
vt 0.954799 0.000000
vt 0.711550 0.849952
vt 0.688950 0.808353
vt 0.711550 0.808353
vt 0.977400 0.673578
vt 0.954799 0.336789
vt 0.977400 0.336789
vt 0.688950 0.716143
vt 0.733178 0.358072
vt 0.733178 0.716143
vt 0.711550 0.881985
vt 0.688950 0.849952
vt 0.711550 0.849952
vt 0.644722 0.000000
vt 0.688950 0.358072
vt 0.644722 0.358072
vt 0.578866 0.975482
vt 0.556266 0.716143
vt 0.578866 0.716143
vt 0.800979 0.323669
vt 0.823580 0.355701
vt 0.800979 0.355701
vt 0.537557 0.975482
vt 0.514957 0.716143
vt 0.537557 0.716143
vt 0.379354 0.358072
vt 0.423582 0.716144
vt 0.379354 0.716144
vt 0.621946 0.766754
vt 0.644546 0.808353
vt 0.621946 0.808353
vt 0.512038 0.358072
vt 0.467810 0.000000
vt 0.512038 0.000000
vt 0.954799 0.673578
vt 0.932199 0.336789
vt 0.954799 0.336789
vt 0.688950 0.840941
vt 0.666350 0.799342
vt 0.688950 0.799342
vt 0.932199 0.336789
vt 0.909598 0.000000
vt 0.932199 0.000000
vt 0.600494 0.716143
vt 0.644722 0.358072
vt 0.644722 0.716143
vt 0.644546 0.881985
vt 0.621946 0.849952
vt 0.644546 0.849952
vt 0.467810 0.358072
vt 0.423582 0.716143
vt 0.423582 0.358072
vt 0.492356 0.975482
vt 0.469756 0.716143
vt 0.492356 0.716143
vt 0.755778 0.323669
vt 0.778379 0.355701
vt 0.755778 0.355701
vt 0.424555 0.975482
vt 0.401955 0.716143
vt 0.424555 0.716143
vt 0.467810 0.716144
vt 0.512038 0.358072
vt 0.512038 0.716144
vt 0.688950 0.766754
vt 0.711550 0.808353
vt 0.688950 0.808353
vt 0.556266 0.000000
vt 0.512038 0.358072
vt 0.512038 0.000000
vt 0.888094 0.984126
vt 0.865493 0.647337
vt 0.888094 0.647337
vt 0.688950 0.757743
vt 0.666350 0.716143
vt 0.688950 0.716143
vt 0.932199 0.673578
vt 0.909598 0.336789
vt 0.932199 0.336789
vt 0.556266 0.358072
vt 0.600494 0.716143
vt 0.556266 0.716143
vt 0.688950 0.872974
vt 0.666350 0.840941
vt 0.688950 0.840941
vt 0.556266 0.000000
vt 0.600494 0.358072
vt 0.556266 0.358072
vt 0.469756 0.975482
vt 0.447155 0.716143
vt 0.469756 0.716143
vt 0.733178 0.323669
vt 0.755778 0.355701
vt 0.733178 0.355701
vt 0.447155 0.975482
vt 0.424555 0.716143
vt 0.447155 0.716143
vt 0.467810 0.358072
vt 0.423582 0.000000
vt 0.467810 0.000000
vt 0.666125 0.852673
vt 0.644546 0.809714
vt 0.666125 0.809714
vt 0.865493 0.647337
vt 0.909598 0.323669
vt 0.909598 0.647337
vt 0.733129 0.852673
vt 0.711550 0.809714
vt 0.733129 0.809714
vt 0.865493 0.323669
vt 0.909598 0.000000
vt 0.909598 0.323669
vt 0.909598 0.673578
vt 0.931177 0.988842
vt 0.909598 0.988842
vt 0.754757 0.997004
vt 0.733178 0.681740
vt 0.754757 0.681740
vt 0.666125 0.809714
vt 0.644546 0.766754
vt 0.666125 0.766754
vt 0.733178 0.681740
vt 0.777283 0.358072
vt 0.777283 0.681740
vt 0.733129 0.809714
vt 0.711550 0.766754
vt 0.733129 0.766754
vt 0.733178 0.323669
vt 0.777283 0.000000
vt 0.777283 0.323669
vt 0.754757 0.681740
vt 0.776335 0.997004
vt 0.754757 0.997004
vt 0.953778 0.988842
vt 0.932199 0.673578
vt 0.953778 0.673578
vt 0.864546 0.810620
vt 0.842967 0.767660
vt 0.864546 0.767660
vt 0.777283 0.681740
vt 0.821388 0.358072
vt 0.821388 0.681740
vt 0.864546 0.853579
vt 0.842967 0.810620
vt 0.864546 0.810620
vt 0.777283 0.323669
vt 0.821388 0.000000
vt 0.821388 0.323669
vt 0.776335 0.681740
vt 0.797914 0.997004
vt 0.776335 0.997004
vt 0.842967 0.997004
vt 0.821388 0.681740
vt 0.842967 0.681740
vt 0.864546 0.767660
vt 0.842967 0.724700
vt 0.864546 0.724700
vt 0.821388 0.681740
vt 0.865493 0.358072
vt 0.865493 0.681740
vt 0.864546 0.724700
vt 0.842967 0.681740
vt 0.864546 0.681740
vt 0.821388 0.323669
vt 0.865493 0.000000
vt 0.865493 0.323669
vt 0.954799 0.673578
vt 0.976378 0.988842
vt 0.954799 0.988842
vt 0.819493 0.997004
vt 0.797914 0.681740
vt 0.819493 0.681740
vt 0.621946 0.808353
vt 0.644546 0.849952
vt 0.621946 0.849952
vt 0.556266 0.716143
vt 0.512038 0.358072
vt 0.556266 0.358072
vt 1.000000 0.336789
vt 0.977400 0.000000
vt 1.000000 0.000000
vt 0.688950 0.799342
vt 0.666350 0.757743
vt 0.688950 0.757743
vt 0.977400 0.336789
vt 0.954799 0.000000
vt 0.977400 0.000000
vt 0.644722 0.716143
vt 0.688950 0.358072
vt 0.688950 0.716143
vt 0.846180 0.355701
vt 0.823580 0.323668
vt 0.846180 0.323668
vt 0.600494 0.000000
vt 0.644722 0.358072
vt 0.600494 0.358072
vt 0.514957 0.975482
vt 0.492356 0.716143
vt 0.514957 0.716143
vt 0.778379 0.323669
vt 0.800979 0.355701
vt 0.778379 0.355701
vt 0.401955 0.975482
vt 0.379354 0.716143
vt 0.401955 0.716143
vt 0.423582 0.000000
vt 0.379354 0.358072
vt 0.379354 0.000000
vt 0.578866 0.716143
vt 0.246670 0.948524
vt 0.000000 0.923892
vt 0.665025 0.766754
vt 0.050611 0.923892
vt 0.202442 0.948524
vt 0.578866 0.766754
vt 0.290898 0.948524
vt 0.151832 0.923892
vt 0.732029 0.766754
vt 0.101221 0.923892
vt 0.335126 0.948524
vt 0.601467 0.817364
vt 0.688950 0.358072
vt 0.932199 0.336789
vt 0.688950 0.849952
vt 0.954799 0.673578
vt 0.688950 0.358072
vt 0.688950 0.881985
vt 0.688950 0.000000
vt 0.556266 0.975482
vt 0.823580 0.323669
vt 0.514957 0.975482
vt 0.423582 0.358072
vt 0.644546 0.766754
vt 0.467810 0.358072
vt 0.932199 0.673578
vt 0.666350 0.840941
vt 0.909598 0.336789
vt 0.600494 0.358072
vt 0.621946 0.881985
vt 0.467810 0.716143
vt 0.469756 0.975482
vt 0.778379 0.323669
vt 0.401955 0.975482
vt 0.467810 0.358072
vt 0.711550 0.766754
vt 0.556266 0.358072
vt 0.865493 0.984126
vt 0.666350 0.757743
vt 0.909598 0.673578
vt 0.600494 0.358072
vt 0.666350 0.872974
vt 0.600494 0.000000
vt 0.447155 0.975482
vt 0.755778 0.323669
vt 0.424555 0.975482
vt 0.423582 0.358072
vt 0.644546 0.852673
vt 0.865493 0.323669
vt 0.711550 0.852673
vt 0.865493 0.000000
vt 0.931177 0.673578
vt 0.733178 0.997004
vt 0.644546 0.809714
vt 0.733178 0.358072
vt 0.711550 0.809714
vt 0.733178 0.000000
vt 0.776335 0.681740
vt 0.932199 0.988842
vt 0.842967 0.810620
vt 0.777283 0.358072
vt 0.842967 0.853579
vt 0.777283 0.000000
vt 0.797914 0.681740
vt 0.821388 0.997004
vt 0.842967 0.767660
vt 0.821388 0.358072
vt 0.842967 0.724700
vt 0.821388 0.000000
vt 0.976378 0.673578
vt 0.797914 0.997004
vt 0.644546 0.808353
vt 0.512038 0.716143
vt 0.977400 0.336789
vt 0.666350 0.799342
vt 0.954799 0.336789
vt 0.644722 0.358072
vt 0.823580 0.355701
vt 0.644722 0.000000
vt 0.492356 0.975482
vt 0.800979 0.323669
vt 0.379354 0.975482
vt 0.423582 0.358072
vn 0.0000 1.0000 0.0000
vn 0.0000 0.0000 -1.0000
vn 1.0000 0.0000 0.0000
vn 0.0000 -1.0000 0.0000
vn -1.0000 0.0000 0.0000
vn 0.0000 0.0000 1.0000
vn 0.8392 0.5438 0.0000
vn 0.5438 -0.8392 0.0000
vn -0.8392 -0.5438 0.0000
vn -0.5438 0.8392 0.0000
vn -0.8356 0.5493 0.0000
vn 0.5493 0.8356 0.0000
vn 0.8356 -0.5493 0.0000
vn -0.5493 -0.8356 0.0000
s off
f 5/1/1 3/2/1 1/3/1
f 3/4/2 8/5/2 4/6/2
f 7/7/3 6/8/3 8/9/3
f 2/10/4 8/11/4 6/12/4
f 1/13/5 4/14/5 2/15/5
f 5/16/6 2/17/6 6/18/6
f 13/19/1 11/20/1 9/21/1
f 11/22/2 16/23/2 12/24/2
f 15/25/3 14/26/3 16/27/3
f 10/28/4 16/29/4 14/30/4
f 9/31/5 12/32/5 10/33/5
f 13/34/6 10/35/6 14/36/6
f 21/37/7 19/38/7 17/39/7
f 19/40/2 24/41/2 20/42/2
f 23/43/8 22/44/8 24/45/8
f 18/46/9 24/47/9 22/48/9
f 17/49/10 20/50/10 18/51/10
f 22/52/6 17/53/6 18/54/6
f 29/55/11 27/56/11 25/57/11
f 27/58/2 32/59/2 28/60/2
f 31/61/12 30/62/12 32/63/12
f 26/64/13 32/65/13 30/66/13
f 25/67/14 28/68/14 26/69/14
f 29/70/6 26/71/6 30/72/6
f 37/73/7 35/74/7 33/75/7
f 35/76/2 40/77/2 36/78/2
f 39/79/8 38/80/8 40/81/8
f 34/82/9 40/83/9 38/84/9
f 33/85/10 36/86/10 34/87/10
f 38/88/6 33/89/6 34/90/6
f 45/91/11 43/92/11 41/93/11
f 44/94/2 47/95/2 48/96/2
f 47/97/12 46/98/12 48/99/12
f 42/100/13 48/101/13 46/102/13
f 41/103/14 44/104/14 42/105/14
f 46/106/6 41/107/6 42/108/6
f 53/109/7 51/110/7 49/111/7
f 52/112/2 55/113/2 56/114/2
f 55/115/8 54/116/8 56/117/8
f 50/118/9 56/119/9 54/120/9
f 49/121/10 52/122/10 50/123/10
f 53/124/6 50/125/6 54/126/6
f 61/127/11 59/128/11 57/129/11
f 59/130/2 64/131/2 60/132/2
f 63/133/12 62/134/12 64/135/12
f 58/136/13 64/137/13 62/138/13
f 57/139/14 60/140/14 58/141/14
f 61/142/6 58/143/6 62/144/6
f 66/145/3 67/146/3 65/147/3
f 68/148/6 71/149/6 67/150/6
f 72/151/5 69/152/5 71/153/5
f 70/154/2 65/155/2 69/156/2
f 71/157/4 65/158/4 67/159/4
f 68/160/1 70/161/1 72/162/1
f 74/163/3 75/164/3 73/165/3
f 76/166/6 79/167/6 75/168/6
f 80/169/5 77/170/5 79/171/5
f 78/172/2 73/173/2 77/174/2
f 79/175/4 73/176/4 75/177/4
f 76/178/1 78/179/1 80/180/1
f 82/181/3 83/182/3 81/183/3
f 84/184/6 87/185/6 83/186/6
f 88/187/5 85/188/5 87/189/5
f 86/190/2 81/191/2 85/192/2
f 87/193/4 81/194/4 83/195/4
f 84/196/1 86/197/1 88/198/1
f 90/199/3 91/200/3 89/201/3
f 92/202/6 95/203/6 91/204/6
f 96/205/5 93/206/5 95/207/5
f 94/208/2 89/209/2 93/210/2
f 95/211/4 89/212/4 91/213/4
f 92/214/1 94/215/1 96/216/1
f 101/217/7 99/218/7 97/219/7
f 99/220/2 104/221/2 100/222/2
f 103/223/8 102/224/8 104/225/8
f 98/226/9 104/227/9 102/228/9
f 97/229/10 100/230/10 98/231/10
f 102/232/6 97/233/6 98/234/6
f 109/235/11 107/236/11 105/237/11
f 107/238/2 112/239/2 108/240/2
f 111/241/12 110/242/12 112/243/12
f 106/244/13 112/245/13 110/246/13
f 105/247/14 108/248/14 106/249/14
f 110/250/6 105/251/6 106/252/6
f 5/1/1 7/253/1 3/2/1
f 3/4/2 7/254/2 8/5/2
f 7/7/3 5/255/3 6/8/3
f 2/10/4 4/256/4 8/11/4
f 1/13/5 3/257/5 4/14/5
f 5/16/6 1/258/6 2/17/6
f 13/19/1 15/259/1 11/20/1
f 11/22/2 15/260/2 16/23/2
f 15/25/3 13/261/3 14/26/3
f 10/28/4 12/262/4 16/29/4
f 9/31/5 11/263/5 12/32/5
f 13/34/6 9/264/6 10/35/6
f 21/37/7 23/265/7 19/38/7
f 19/40/2 23/266/2 24/41/2
f 23/43/8 21/267/8 22/44/8
f 18/46/9 20/268/9 24/47/9
f 17/49/10 19/269/10 20/50/10
f 22/52/6 21/270/6 17/53/6
f 29/55/11 31/271/11 27/56/11
f 27/58/2 31/272/2 32/59/2
f 31/61/12 29/273/12 30/62/12
f 26/64/13 28/274/13 32/65/13
f 25/67/14 27/275/14 28/68/14
f 29/70/6 25/276/6 26/71/6
f 37/73/7 39/277/7 35/74/7
f 35/76/2 39/278/2 40/77/2
f 39/79/8 37/279/8 38/80/8
f 34/82/9 36/280/9 40/83/9
f 33/85/10 35/281/10 36/86/10
f 38/88/6 37/282/6 33/89/6
f 45/91/11 47/283/11 43/92/11
f 44/94/2 43/284/2 47/95/2
f 47/97/12 45/285/12 46/98/12
f 42/100/13 44/286/13 48/101/13
f 41/103/14 43/287/14 44/104/14
f 46/106/6 45/288/6 41/107/6
f 53/109/7 55/289/7 51/110/7
f 52/112/2 51/290/2 55/113/2
f 55/115/8 53/291/8 54/116/8
f 50/118/9 52/292/9 56/119/9
f 49/121/10 51/293/10 52/122/10
f 53/124/6 49/294/6 50/125/6
f 61/127/11 63/295/11 59/128/11
f 59/130/2 63/296/2 64/131/2
f 63/133/12 61/297/12 62/134/12
f 58/136/13 60/298/13 64/137/13
f 57/139/14 59/299/14 60/140/14
f 61/142/6 57/300/6 58/143/6
f 66/145/3 68/301/3 67/146/3
f 68/148/6 72/302/6 71/149/6
f 72/151/5 70/303/5 69/152/5
f 70/154/2 66/304/2 65/155/2
f 71/157/4 69/305/4 65/158/4
f 68/160/1 66/306/1 70/161/1
f 74/163/3 76/307/3 75/164/3
f 76/166/6 80/308/6 79/167/6
f 80/169/5 78/309/5 77/170/5
f 78/172/2 74/310/2 73/173/2
f 79/175/4 77/311/4 73/176/4
f 76/178/1 74/312/1 78/179/1
f 82/181/3 84/313/3 83/182/3
f 84/184/6 88/314/6 87/185/6
f 88/187/5 86/315/5 85/188/5
f 86/190/2 82/316/2 81/191/2
f 87/193/4 85/317/4 81/194/4
f 84/196/1 82/318/1 86/197/1
f 90/199/3 92/319/3 91/200/3
f 92/202/6 96/320/6 95/203/6
f 96/205/5 94/321/5 93/206/5
f 94/208/2 90/322/2 89/209/2
f 95/211/4 93/323/4 89/212/4
f 92/214/1 90/324/1 94/215/1
f 101/217/7 103/325/7 99/218/7
f 99/220/2 103/326/2 104/221/2
f 103/223/8 101/327/8 102/224/8
f 98/226/9 100/328/9 104/227/9
f 97/229/10 99/329/10 100/230/10
f 102/232/6 101/330/6 97/233/6
f 109/235/11 111/331/11 107/236/11
f 107/238/2 111/332/2 112/239/2
f 111/241/12 109/333/12 110/242/12
f 106/244/13 108/334/13 112/245/13
f 105/247/14 107/335/14 108/248/14
f 110/250/6 109/336/6 105/251/6
