# Blender v3.4.1 OBJ File: ''
# www.blender.org
o Cube
v -1.000000 0.025000 0.100000
v -1.000000 -0.025000 0.100000
v -1.000000 0.025000 -0.100000
v -1.000000 -0.025000 -0.100000
v 1.000000 0.025000 0.100000
v 1.000000 -0.025000 0.100000
v 1.000000 0.025000 -0.100000
v 1.000000 -0.025000 -0.100000
vt 0.200000 1.000000
vt 0.100000 0.000000
vt 0.200000 0.000000
vt 0.225000 1.000000
vt 0.250000 0.000000
vt 0.250000 1.000000
vt 0.250000 0.200000
vt 0.275000 0.100000
vt 0.275000 0.200000
vt 0.100000 1.000000
vt 0.000000 0.000000
vt 0.100000 0.000000
vt 0.250000 0.100000
vt 0.275000 0.000000
vt 0.275000 0.100000
vt 0.225000 0.000000
vt 0.225000 1.000000
vt 0.100000 1.000000
vt 0.225000 0.000000
vt 0.250000 0.100000
vt 0.000000 1.000000
vt 0.250000 0.000000
vn 0.0000 1.0000 0.0000
vn 0.0000 0.0000 -1.0000
vn 1.0000 0.0000 0.0000
vn 0.0000 -1.0000 0.0000
vn -1.0000 0.0000 0.0000
vn 0.0000 0.0000 1.0000
s off
f 5/1/1 3/2/1 1/3/1
f 3/4/2 8/5/2 4/6/2
f 7/7/3 6/8/3 8/9/3
f 2/10/4 8/11/4 6/12/4
f 1/13/5 4/14/5 2/15/5
f 5/1/6 2/16/6 6/17/6
f 5/1/1 7/18/1 3/2/1
f 3/4/2 7/19/2 8/5/2
f 7/7/3 5/20/3 6/8/3
f 2/10/4 4/21/4 8/11/4
f 1/13/5 3/22/5 4/14/5
f 5/1/6 1/3/6 2/16/6
