# Blender v3.4.1 OBJ File: 'umimura.blend'
# www.blender.org
o Cube.001_Cube.002
v 0.213373 -0.020727 -1.000000
v 0.213373 0.020727 -1.000000
v 0.226973 -0.020727 0.500000
v 0.209203 -0.020727 0.000000
v 0.226973 -0.020727 -0.500000
v 0.226973 0.020727 -0.500000
v 0.209203 0.020727 0.000000
v 0.226973 0.020727 0.500000
v -0.226973 -0.020727 -0.500000
v -0.226973 -0.020727 0.000000
v -0.226973 -0.020727 0.500000
v -0.226973 0.020727 0.500000
v -0.226973 0.020727 0.000000
v -0.226973 0.020727 -0.500000
v -0.226973 -0.020727 -0.375000
v -0.210070 -0.020727 -0.200791
v -0.210070 -0.020727 -0.174209
v -0.210070 0.020727 -0.174209
v -0.210070 0.020727 -0.200791
v -0.226973 0.020727 -0.375000
v 0.019920 -0.020727 -0.991150
v 0.000000 -0.020727 -0.920453
v -0.019920 -0.020727 -0.973451
v -0.019920 0.020727 -0.973451
v 0.000000 0.020727 -0.920453
v 0.019920 0.020727 -0.991150
v 0.113486 0.020727 -0.500000
v 0.000000 0.020727 -0.500000
v -0.113486 0.020727 -0.500000
v -0.113486 -0.020727 -0.500000
v 0.000000 -0.020727 -0.500000
v 0.113486 -0.020727 -0.500000
v 0.138590 0.020727 -0.994100
v 0.157955 0.020727 -0.972739
v 0.151315 -0.020727 -0.500000
v 0.189144 -0.020727 -0.500000
v 0.157955 -0.020727 -0.972739
v 0.138590 -0.020727 -0.994100
v 0.189144 0.020727 -0.500000
v 0.151315 0.020727 -0.500000
v -0.064865 -0.020727 0.988368
v -0.045394 -0.020727 0.944506
v -0.025924 -0.020727 0.994184
v 0.136184 -0.020727 0.997092
v 0.136184 0.020727 0.997092
v -0.025924 0.020727 0.994184
v -0.045395 0.020727 0.944506
v -0.064865 0.020727 0.988368
v 0.136184 0.020727 0.500000
v 0.045394 0.020727 0.500000
v -0.045395 0.020727 0.500000
v -0.136184 0.020727 0.500000
v -0.136184 -0.020727 0.500000
v -0.045394 -0.020727 0.500000
v 0.045395 -0.020727 0.500000
v 0.136184 -0.020727 0.500000
v -0.226973 -0.020727 -0.939552
v -0.201946 -0.020727 -0.965672
v -0.201946 0.020727 -0.965672
v -0.226973 0.020727 -0.939552
v 0.206958 -0.020727 0.977100
v 0.183098 -0.020727 0.999046
v 0.183098 0.020727 0.999046
v 0.206958 0.020727 0.977100
v -0.187540 -0.020727 0.985918
v -0.211235 -0.020727 0.962554
v -0.211235 0.020727 0.962554
v -0.187540 0.020727 0.985918
vt 0.237093 0.989022
vt 0.227081 0.750358
vt 0.272497 0.750358
vt 0.408745 0.750358
vt 0.446289 0.981745
vt 0.373069 0.994659
vt 0.350586 0.013281
vt 0.441642 0.017172
vt 0.454162 0.030238
vt 0.495636 0.418318
vt 0.516373 0.388654
vt 0.516373 0.418318
vt 0.474899 0.219858
vt 0.495636 0.000000
vt 0.495636 0.219858
vt 0.227081 0.250119
vt 0.261606 0.013637
vt 0.246004 0.250119
vt 0.474899 0.951522
vt 0.495636 0.720045
vt 0.495636 0.951522
vt 0.235970 0.500239
vt 0.283851 0.250119
vt 0.445707 0.399795
vt 0.516373 0.221177
vt 0.495636 0.282554
vt 0.495636 0.221177
vt 0.000000 0.750358
vt 0.000000 0.500239
vt 0.045416 0.750358
vt 0.113540 0.250119
vt 0.170311 0.250119
vt 0.008455 0.399795
vt 0.007872 0.981745
vt 0.474899 0.720045
vt 0.495636 0.469952
vt 0.474899 0.282382
vt 0.495636 0.282382
vt 0.454162 0.988991
vt 0.474899 0.738969
vt 0.474899 0.988991
vt 0.454162 0.738969
vt 0.474899 0.488763
vt 0.454162 0.488763
vt 0.474899 0.238765
vt 0.474899 0.469952
vt 0.495636 0.382937
vt 0.474899 0.382937
vt 0.495636 0.369640
vt 0.474899 0.369640
vt 0.397391 0.250119
vt 0.340621 0.039793
vt 0.340621 0.250119
vt 0.182868 0.002951
vt 0.189234 0.250119
vt 0.113540 0.039793
vt 0.123505 0.004427
vt 0.056770 0.250119
vt 0.000000 0.030238
vt 0.012519 0.017172
vt 0.103576 0.013281
vt 0.495636 0.444712
vt 0.516373 0.418318
vt 0.516373 0.444712
vt 0.495636 0.388654
vt 0.516373 0.353436
vt 0.516373 0.388654
vt 0.227081 0.250119
vt 0.192556 0.013637
vt 0.220278 0.000000
vt 0.208157 0.250119
vt 0.271293 0.002951
vt 0.330656 0.004427
vt 0.264928 0.250119
vt 0.495636 0.353436
vt 0.516373 0.294713
vt 0.506207 0.512491
vt 0.495636 0.491754
vt 0.506207 0.491754
vt 0.454162 0.238765
vt 0.474899 0.000000
vt 0.181665 0.999023
vt 0.136248 0.750358
vt 0.181665 0.750358
vt 0.090832 0.972717
vt 0.100572 0.997568
vt 0.090832 0.750358
vt 0.363329 0.972717
vt 0.317913 0.750358
vt 0.363329 0.750358
vt 0.272497 0.999022
vt 0.353589 0.997568
vt 0.217069 0.989022
vt 0.495636 0.081102
vt 0.516373 0.000000
vt 0.516373 0.081102
vt 0.516373 0.444712
vt 0.495636 0.469700
vt 0.495636 0.444712
vt 0.495636 0.491754
vt 0.516373 0.469700
vt 0.516373 0.491754
vt 0.495636 0.130821
vt 0.516373 0.116229
vt 0.516373 0.130821
vt 0.495636 0.221177
vt 0.516373 0.104588
vt 0.495636 0.116229
vt 0.495636 0.104588
vt 0.495636 0.294713
vt 0.516373 0.282554
vt 0.516373 0.294713
vt 0.249029 1.000000
vt 0.454162 0.750358
vt 0.434436 0.993433
vt 0.454162 0.250119
vt 0.495636 0.388654
vt 0.474899 0.000000
vt 0.233884 0.000000
vt 0.454162 0.500239
vt 0.445707 0.413093
vt 0.454162 0.312649
vt 0.218192 0.500239
vt 0.227081 0.750358
vt 0.008455 0.413093
vt 0.000000 0.312649
vt 0.000000 0.250119
vt 0.081092 0.994659
vt 0.019725 0.993433
vt 0.495636 0.418318
vt 0.495636 0.294713
vt 0.495636 0.512491
vt 0.454162 0.000000
vt 0.205133 1.000000
vt 0.495636 0.000000
vt 0.516373 0.469700
vt 0.495636 0.469700
vt 0.495636 0.116229
vt 0.516373 0.221177
vt 0.516373 0.116229
vn 0.0000 1.0000 0.0000
vn -0.4414 0.0000 -0.8973
vn -1.0000 0.0000 0.0000
vn -0.9994 0.0000 0.0340
vn -0.0200 0.0000 0.9998
vn 0.0000 -1.0000 0.0000
vn 0.9996 0.0000 -0.0272
vn 0.9994 0.0000 0.0355
vn 0.9994 0.0000 -0.0355
vn -0.9953 0.0000 -0.0966
vn -0.9953 0.0000 0.0966
vn 0.9361 0.0000 -0.3518
vn -0.9625 0.0000 -0.2712
vn -0.0248 0.0000 -0.9997
vn 0.7409 0.0000 -0.6716
vn 0.9991 0.0000 0.0419
vn -0.0179 0.0000 0.9998
vn -0.9310 0.0000 0.3649
vn 0.9140 0.0000 0.4057
vn -0.7220 0.0000 -0.6918
vn -0.0427 0.0000 -0.9991
vn 0.6770 0.0000 0.7360
vn -0.7021 0.0000 0.7121
vn -0.0416 0.0000 0.9991
vn -0.0249 0.0000 -0.9997
s 1
f 64/1/1 8/2/1 49/3/1
f 52/4/1 67/5/1 48/6/1
f 24/7/1 59/8/1 60/9/1
f 34/10/2 1/11/2 37/12/2
f 14/13/3 57/14/3 9/15/3
f 6/16/1 34/17/1 39/18/1
f 67/19/4 11/20/4 66/21/4
f 8/2/1 7/22/1 49/3/1
f 27/23/1 19/24/1 7/22/1
f 48/25/5 65/26/5 41/27/5
f 11/28/6 10/29/6 53/30/6
f 31/31/6 32/32/6 16/33/6
f 66/34/6 11/28/6 53/30/6
f 12/35/3 10/36/3 11/20/3
f 20/37/3 9/15/3 15/38/3
f 2/39/7 5/40/7 1/41/7
f 6/42/8 4/43/8 5/40/8
f 7/44/9 3/45/9 4/43/9
f 13/46/10 17/47/10 10/36/10
f 18/48/3 16/49/3 17/47/3
f 19/50/11 15/38/11 16/49/11
f 29/51/1 25/52/1 24/7/1
f 27/23/1 25/52/1 28/53/1
f 32/32/6 38/54/6 35/55/6
f 32/32/6 22/56/6 21/57/6
f 30/58/6 22/56/6 31/31/6
f 57/59/6 58/60/6 23/61/6
f 24/62/12 22/63/12 23/64/12
f 25/65/13 21/66/13 22/67/13
f 5/68/6 37/69/6 1/70/6
f 35/55/6 37/69/6 36/71/6
f 27/23/1 33/72/1 26/73/1
f 40/74/1 34/17/1 33/72/1
f 26/75/14 38/76/14 21/66/14
f 33/77/15 37/78/15 38/79/15
f 8/80/16 61/81/16 3/45/16
f 44/82/6 55/83/6 56/84/6
f 42/85/6 55/83/6 43/86/6
f 42/85/6 53/30/6 54/87/6
f 47/88/1 52/4/1 48/6/1
f 47/88/1 50/89/1 51/90/1
f 45/91/1 50/89/1 46/92/1
f 56/84/6 61/93/6 44/82/6
f 45/94/17 43/95/17 44/96/17
f 46/97/18 42/98/18 43/99/18
f 47/100/19 41/101/19 42/102/19
f 58/103/20 60/104/20 59/105/20
f 59/105/21 23/106/21 58/103/21
f 62/107/22 64/108/22 63/109/22
f 66/110/23 68/111/23 67/112/23
f 63/109/24 44/96/24 62/107/24
f 49/3/1 45/91/1 64/1/1
f 45/91/1 63/113/1 64/1/1
f 12/114/1 67/5/1 52/4/1
f 67/5/1 68/115/1 48/6/1
f 60/9/1 14/116/1 29/51/1
f 29/51/1 24/7/1 60/9/1
f 34/10/2 2/117/2 1/11/2
f 14/13/3 60/118/3 57/14/3
f 6/16/1 2/119/1 34/17/1
f 67/19/4 12/35/4 11/20/4
f 13/120/1 12/114/1 52/4/1
f 51/90/1 50/89/1 7/22/1
f 50/89/1 49/3/1 7/22/1
f 51/90/1 7/22/1 13/120/1
f 13/120/1 52/4/1 51/90/1
f 18/121/1 13/120/1 7/22/1
f 7/22/1 6/16/1 39/18/1
f 40/74/1 27/23/1 7/22/1
f 27/23/1 28/53/1 19/24/1
f 7/22/1 39/18/1 40/74/1
f 19/24/1 18/121/1 7/22/1
f 14/116/1 20/122/1 29/51/1
f 20/122/1 19/24/1 28/53/1
f 29/51/1 20/122/1 28/53/1
f 48/25/5 68/111/5 65/26/5
f 4/123/6 3/124/6 56/84/6
f 55/83/6 54/87/6 4/123/6
f 54/87/6 53/30/6 10/29/6
f 4/123/6 54/87/6 10/29/6
f 4/123/6 56/84/6 55/83/6
f 5/68/6 4/123/6 36/71/6
f 4/123/6 10/29/6 17/125/6
f 4/123/6 17/125/6 16/33/6
f 36/71/6 4/123/6 35/55/6
f 32/32/6 35/55/6 4/123/6
f 32/32/6 4/123/6 16/33/6
f 16/33/6 15/126/6 31/31/6
f 15/126/6 9/127/6 30/58/6
f 30/58/6 31/31/6 15/126/6
f 53/30/6 41/128/6 66/34/6
f 41/128/6 65/129/6 66/34/6
f 12/35/3 13/46/3 10/36/3
f 20/37/3 14/13/3 9/15/3
f 2/39/7 6/42/7 5/40/7
f 6/42/8 7/44/8 4/43/8
f 7/44/9 8/80/9 3/45/9
f 13/46/10 18/48/10 17/47/10
f 18/48/3 19/50/3 16/49/3
f 19/50/11 20/37/11 15/38/11
f 29/51/1 28/53/1 25/52/1
f 27/23/1 26/73/1 25/52/1
f 32/32/6 21/57/6 38/54/6
f 32/32/6 31/31/6 22/56/6
f 30/58/6 23/61/6 22/56/6
f 23/61/6 30/58/6 57/59/6
f 30/58/6 9/127/6 57/59/6
f 24/62/12 25/130/12 22/63/12
f 25/65/13 26/75/13 21/66/13
f 5/68/6 36/71/6 37/69/6
f 35/55/6 38/54/6 37/69/6
f 27/23/1 40/74/1 33/72/1
f 40/74/1 39/18/1 34/17/1
f 26/75/14 33/131/25 38/76/14
f 33/77/15 34/132/15 37/78/15
f 8/80/16 64/133/16 61/81/16
f 44/82/6 43/86/6 55/83/6
f 42/85/6 54/87/6 55/83/6
f 42/85/6 41/128/6 53/30/6
f 47/88/1 51/90/1 52/4/1
f 47/88/1 46/92/1 50/89/1
f 45/91/1 49/3/1 50/89/1
f 3/124/6 61/93/6 56/84/6
f 61/93/6 62/134/6 44/82/6
f 45/94/17 46/135/17 43/95/17
f 46/97/18 47/136/18 42/98/18
f 47/100/19 48/137/19 41/101/19
f 58/103/20 57/138/20 60/104/20
f 59/105/21 24/139/21 23/106/21
f 62/107/22 61/140/22 64/108/22
f 66/110/23 65/26/23 68/111/23
f 63/109/24 45/94/24 44/96/24
