# Blender v3.4.1 OBJ File: 'yukimura.blend'
# www.blender.org
o Building_3_Cube.057
v 0.374094 -0.250417 -0.374094
v 0.374094 1.329283 -0.374094
v 0.374094 -0.250417 0.374094
v 0.374094 1.329283 0.374094
v -0.374094 -0.250417 -0.374094
v -0.374094 1.329283 -0.374094
v -0.374094 -0.250417 0.374094
v -0.374094 1.329283 0.374094
v 0.578347 -0.278542 0.578347
v 0.578347 -0.278542 -0.578347
v -0.578347 -0.278542 0.578347
v -0.578347 -0.278542 -0.578347
v 0.578347 -0.775245 0.578347
v 0.578347 -0.775245 -0.578347
v -0.578347 -0.775245 0.578347
v -0.578347 -0.775245 -0.578347
vt 0.625000 0.000000
vt 0.375000 0.250000
vt 0.375000 0.000000
vt 0.625000 0.250000
vt 0.375000 0.500000
vt 0.625000 0.500000
vt 0.375000 0.750000
vt 0.625000 0.750000
vt 0.375000 1.000000
vt 0.375000 0.750000
vt 0.375000 0.500000
vt 0.875000 0.500000
vt 0.375000 0.500000
vt 0.375000 1.000000
vt 0.375000 0.250000
vt 0.375000 0.000000
vt 0.125000 0.750000
vt 0.125000 0.500000
vt 0.375000 0.000000
vt 0.375000 0.750000
vt 0.375000 0.250000
vt 0.625000 1.000000
vt 0.875000 0.750000
vt 0.375000 1.000000
vn 1.0000 0.0000 0.0000
vn 0.0000 0.0000 1.0000
vn -1.0000 0.0000 0.0000
vn 0.0000 0.0000 -1.0000
vn -0.1364 0.9907 0.0000
vn 0.0000 1.0000 0.0000
vn 0.0000 0.9907 -0.1364
vn 0.0000 0.9907 0.1364
vn 0.1364 0.9907 0.0000
vn 0.0000 -1.0000 0.0000
s off
f 2/1/1 3/2/1 1/3/1
f 4/4/2 7/5/2 3/2/2
f 8/6/3 5/7/3 7/5/3
f 6/8/4 1/9/4 5/7/4
f 7/5/5 12/10/5 11/11/5
f 4/12/6 6/8/6 8/6/6
f 12/10/3 15/13/3 11/11/3
f 5/7/7 10/14/7 12/10/7
f 3/2/8 11/11/8 9/15/8
f 1/3/9 9/15/9 10/16/9
f 15/13/10 14/17/10 13/18/10
f 9/15/1 14/19/1 10/16/1
f 10/14/4 16/20/4 12/10/4
f 11/11/2 13/21/2 9/15/2
f 2/1/1 4/4/1 3/2/1
f 4/4/2 8/6/2 7/5/2
f 8/6/3 6/8/3 5/7/3
f 6/8/4 2/22/4 1/9/4
f 7/5/5 5/7/5 12/10/5
f 4/12/6 2/23/6 6/8/6
f 12/10/3 16/20/3 15/13/3
f 5/7/7 1/9/7 10/14/7
f 3/2/8 7/5/8 11/11/8
f 1/3/9 3/2/9 9/15/9
f 15/13/10 16/20/10 14/17/10
f 9/15/1 13/21/1 14/19/1
f 10/14/4 14/24/4 16/20/4
f 11/11/2 15/13/2 13/21/2
