# Blender v3.4.1 OBJ File: 'yukimura.blend'
# www.blender.org
o Cube.001_Cube.035
v 0.711326 0.089138 -0.711326
v 0.491351 0.230186 -0.491351
v 0.711326 0.089138 0.711326
v 0.491351 0.230186 0.491351
v -0.711326 0.089138 -0.711326
v -0.491351 0.230186 -0.491351
v -0.711326 0.089138 0.711326
v -0.491351 0.230186 0.491351
v 0.711326 0.854356 -0.711326
v 0.491351 0.995404 -0.491351
v 0.711326 0.854356 0.711326
v 0.491351 0.995404 0.491351
v -0.711326 0.854356 -0.711326
v -0.491351 0.995404 -0.491351
v -0.711326 0.854356 0.711326
v -0.491351 0.995404 0.491351
v 0.000000 1.399333 0.491351
v 0.000000 1.399333 -0.491351
v -0.460271 0.990646 0.454697
v -0.470431 1.020434 0.463905
v -0.438250 0.990646 0.478995
v -0.448410 1.020434 0.488203
v -0.709269 0.835958 0.680370
v -0.719429 0.865746 0.689578
v -0.687248 0.835958 0.704668
v -0.697408 0.865746 0.713876
v -0.749524 0.852598 0.723456
v -0.742395 0.831697 0.716995
v -0.726944 0.831697 0.734043
v -0.734073 0.852598 0.740504
v 0.437397 0.990646 0.480210
v 0.447637 1.020434 0.489329
v 0.459208 0.990646 0.455722
v 0.469447 1.020434 0.464842
v 0.688342 0.835958 0.703716
v 0.698581 0.865745 0.712836
v 0.710152 0.835958 0.679228
v 0.720391 0.865745 0.688348
v 0.735475 0.852597 0.739146
v 0.728291 0.831697 0.732747
v 0.743594 0.831697 0.715565
v 0.750778 0.852598 0.721964
v 0.460272 0.990646 -0.454697
v 0.470431 1.020434 -0.463905
v 0.438250 0.990646 -0.478995
v 0.448410 1.020434 -0.488203
v 0.709270 0.835958 -0.680370
v 0.719430 0.865745 -0.689578
v 0.687248 0.835958 -0.704668
v 0.697408 0.865745 -0.713876
v 0.749524 0.852598 -0.723456
v 0.742396 0.831697 -0.716995
v 0.726944 0.831697 -0.734043
v 0.734073 0.852598 -0.740504
v -0.438259 0.990646 -0.479108
v -0.448447 1.020434 -0.488285
v -0.460208 0.990646 -0.454744
v -0.470395 1.020434 -0.463922
v -0.687934 0.835958 -0.704032
v -0.698122 0.865745 -0.713209
v -0.709883 0.835958 -0.679668
v -0.720070 0.865746 -0.688845
v -0.734867 0.852598 -0.739727
v -0.727719 0.831697 -0.733288
v -0.743119 0.831697 -0.716193
v -0.750267 0.852598 -0.722632
v -0.460271 0.221410 0.454697
v -0.470431 0.251198 0.463905
v -0.438250 0.221410 0.478995
v -0.448410 0.251198 0.488203
v -0.709269 0.066721 0.680370
v -0.719429 0.096509 0.689578
v -0.687248 0.066721 0.704668
v -0.697408 0.096509 0.713876
v -0.749524 0.083361 0.723456
v -0.742395 0.062461 0.716995
v -0.726944 0.062461 0.734043
v -0.734073 0.083361 0.740504
v 0.437397 0.221410 0.480210
v 0.447637 0.251198 0.489329
v 0.459208 0.221410 0.455722
v 0.469447 0.251197 0.464842
v 0.688342 0.066721 0.703716
v 0.698581 0.096509 0.712836
v 0.710152 0.066721 0.679228
v 0.720391 0.096509 0.688348
v 0.735475 0.083361 0.739146
v 0.728291 0.062461 0.732747
v 0.743594 0.062461 0.715565
v 0.750778 0.083361 0.721964
v 0.460272 0.221410 -0.454697
v 0.470431 0.251197 -0.463905
v 0.438250 0.221410 -0.478995
v 0.448410 0.251198 -0.488203
v 0.709270 0.066721 -0.680370
v 0.719430 0.096509 -0.689578
v 0.687248 0.066721 -0.704668
v 0.697408 0.096509 -0.713876
v 0.749524 0.083361 -0.723456
v 0.742396 0.062461 -0.716995
v 0.726944 0.062461 -0.734043
v 0.734073 0.083361 -0.740504
v -0.438259 0.221410 -0.479108
v -0.448447 0.251197 -0.488285
v -0.460208 0.221410 -0.454744
v -0.470395 0.251198 -0.463922
v -0.687935 0.066721 -0.704032
v -0.698122 0.096509 -0.713209
v -0.709883 0.066721 -0.679668
v -0.720070 0.096509 -0.688845
v -0.734867 0.083361 -0.739727
v -0.727719 0.062461 -0.733288
v -0.743119 0.062461 -0.716193
v -0.750267 0.083361 -0.722632
v 0.545029 0.937587 -0.545029
v 0.545029 0.964166 -0.545029
v 0.545029 0.937587 0.545029
v 0.545029 0.964166 0.545029
v -0.545029 0.937587 -0.545029
v -0.545029 0.964166 -0.545029
v -0.545029 0.937587 0.545029
v -0.545029 0.964166 0.545029
v 0.000000 1.388900 0.545029
v 0.000000 1.415479 0.545029
v 0.000000 1.388900 -0.545029
v 0.000000 1.415479 -0.545029
vt 0.625000 0.000000
vt 0.375000 0.250000
vt 0.375000 0.000000
vt 0.625000 0.250000
vt 0.375000 0.500000
vt 0.625000 0.500000
vt 0.375000 0.750000
vt 0.625000 0.750000
vt 0.375000 1.000000
vt 0.125000 0.750000
vt 0.125000 0.500000
vt 0.875000 0.500000
vt 0.625000 0.000000
vt 0.375000 0.250000
vt 0.375000 0.000000
vt 0.625000 0.250000
vt 0.625000 0.500000
vt 0.375000 0.500000
vt 0.375000 0.750000
vt 0.625000 0.750000
vt 0.625000 1.000000
vt 0.375000 1.000000
vt 0.125000 0.750000
vt 0.125000 0.500000
vt 0.000000 0.000000
vt 0.000000 0.000000
vt 0.000000 0.000000
vt 0.000000 0.000000
vt 0.000000 0.000000
vt 0.625000 1.000000
vt 0.875000 0.750000
vt 0.625000 0.375000
vt 0.625000 0.875000
vt 0.000000 0.000000
vt 0.375000 0.000000
vt 0.625000 0.250000
vt 0.375000 0.250000
vt 0.625000 0.500000
vt 0.375000 0.500000
vt 0.375000 0.750000
vt 0.375000 0.500000
vt 0.375000 0.750000
vt 0.625000 0.750000
vt 0.375000 1.000000
vt 0.125000 0.750000
vt 0.125000 0.500000
vt 0.875000 0.500000
vt 0.625000 0.500000
vt 0.625000 0.750000
vt 0.000000 0.000000
vt 0.000000 0.000000
vt 0.000000 0.000000
vt 0.375000 0.000000
vt 0.625000 0.250000
vt 0.375000 0.250000
vt 0.375000 0.500000
vt 0.375000 0.750000
vt 0.375000 0.500000
vt 0.375000 0.750000
vt 0.625000 0.750000
vt 0.375000 1.000000
vt 0.125000 0.500000
vt 0.125000 0.750000
vt 0.875000 0.500000
vt 0.625000 0.500000
vt 0.625000 0.500000
vt 0.625000 0.750000
vt 0.000000 0.000000
vt 0.000000 0.000000
vt 0.000000 0.000000
vt 0.375000 0.000000
vt 0.625000 0.250000
vt 0.375000 0.250000
vt 0.375000 0.500000
vt 0.375000 0.750000
vt 0.375000 0.750000
vt 0.625000 0.750000
vt 0.375000 1.000000
vt 0.125000 0.500000
vt 0.125000 0.750000
vt 0.625000 0.500000
vt 0.875000 0.750000
vt 0.625000 0.500000
vt 0.375000 0.500000
vt 0.625000 0.750000
vt 0.000000 0.000000
vt 0.000000 0.000000
vt 0.000000 0.000000
vt 0.625000 0.000000
vt 0.375000 0.250000
vt 0.375000 0.000000
vt 0.625000 0.500000
vt 0.375000 0.500000
vt 0.375000 0.750000
vt 0.375000 0.750000
vt 0.625000 0.750000
vt 0.375000 1.000000
vt 0.125000 0.750000
vt 0.125000 0.500000
vt 0.875000 0.500000
vt 0.625000 0.750000
vt 0.625000 0.500000
vt 0.375000 0.500000
vt 0.000000 0.000000
vt 0.000000 0.000000
vt 0.000000 0.000000
vt 0.625000 0.000000
vt 0.375000 0.250000
vt 0.375000 0.000000
vt 0.625000 0.250000
vt 0.375000 0.500000
vt 0.375000 0.750000
vt 0.375000 0.500000
vt 0.375000 0.750000
vt 0.625000 1.000000
vt 0.375000 1.000000
vt 0.125000 0.750000
vt 0.125000 0.500000
vt 0.875000 0.500000
vt 0.625000 0.750000
vt 0.625000 0.500000
vt 0.625000 0.500000
vt 0.625000 0.750000
vt 0.000000 0.000000
vt 0.000000 0.000000
vt 0.000000 0.000000
vt 0.375000 0.000000
vt 0.625000 0.250000
vt 0.375000 0.250000
vt 0.625000 0.500000
vt 0.375000 0.500000
vt 0.375000 0.750000
vt 0.375000 0.750000
vt 0.625000 1.000000
vt 0.375000 1.000000
vt 0.125000 0.750000
vt 0.125000 0.500000
vt 0.875000 0.500000
vt 0.625000 0.750000
vt 0.625000 0.500000
vt 0.375000 0.500000
vt 0.625000 0.750000
vt 0.000000 0.000000
vt 0.000000 0.000000
vt 0.000000 0.000000
vt 0.375000 0.000000
vt 0.625000 0.250000
vt 0.375000 0.250000
vt 0.375000 0.500000
vt 0.375000 0.750000
vt 0.375000 0.750000
vt 0.625000 0.750000
vt 0.375000 1.000000
vt 0.125000 0.750000
vt 0.125000 0.500000
vt 0.625000 0.500000
vt 0.875000 0.750000
vt 0.625000 0.750000
vt 0.625000 0.500000
vt 0.375000 0.500000
vt 0.000000 0.000000
vt 0.000000 0.000000
vt 0.000000 0.000000
vt 0.625000 0.000000
vt 0.375000 0.250000
vt 0.375000 0.000000
vt 0.625000 0.250000
vt 0.375000 0.500000
vt 0.375000 0.750000
vt 0.375000 0.500000
vt 0.375000 0.750000
vt 0.625000 0.750000
vt 0.375000 1.000000
vt 0.125000 0.750000
vt 0.125000 0.500000
vt 0.875000 0.500000
vt 0.625000 0.500000
vt 0.625000 0.500000
vt 0.625000 0.750000
vt 0.000000 0.000000
vt 0.000000 0.000000
vt 0.000000 0.000000
vt 0.625000 0.000000
vt 0.375000 0.250000
vt 0.375000 0.000000
vt 0.375000 0.375000
vt 0.625000 0.500000
vt 0.375000 0.500000
vt 0.375000 0.750000
vt 0.375000 0.875000
vt 0.625000 1.000000
vt 0.375000 1.000000
vt 0.250000 0.750000
vt 0.250000 0.500000
vt 0.875000 0.500000
vt 0.750000 0.750000
vt 0.750000 0.500000
vt 0.625000 0.750000
vt 0.125000 0.750000
vt 0.125000 0.500000
vt 0.625000 0.250000
vt 0.625000 0.000000
vt 0.625000 1.000000
vt 0.875000 0.750000
vt 0.000000 0.000000
vt 0.625000 0.000000
vt 0.625000 1.000000
vt 0.875000 0.750000
vt 0.000000 0.000000
vt 0.625000 0.000000
vt 0.625000 1.000000
vt 0.875000 0.500000
vt 0.000000 0.000000
vt 0.625000 0.250000
vt 0.625000 1.000000
vt 0.875000 0.750000
vt 0.000000 0.000000
vt 0.875000 0.750000
vt 0.000000 0.000000
vt 0.625000 0.000000
vt 0.875000 0.750000
vt 0.000000 0.000000
vt 0.625000 0.000000
vt 0.625000 1.000000
vt 0.875000 0.500000
vt 0.000000 0.000000
vt 0.625000 1.000000
vt 0.875000 0.750000
vt 0.000000 0.000000
vt 0.625000 0.375000
vt 0.625000 0.875000
vt 0.875000 0.750000
vn 0.5398 0.8418 0.0000
vn 0.0000 0.8418 0.5398
vn -0.5398 0.8418 0.0000
vn 0.0000 0.8418 -0.5398
vn 0.0000 -1.0000 0.0000
vn 0.0000 1.0000 0.0000
vn -0.6350 0.7725 0.0000
vn 0.6350 0.7725 0.0000
vn 0.0000 0.0000 1.0000
vn 0.0000 0.0000 -1.0000
vn 0.6731 0.4181 -0.6100
vn 0.6715 0.0000 0.7410
vn 0.0640 -0.9963 -0.0580
vn -0.6715 -0.0000 -0.7410
vn 0.3098 -0.9084 -0.2808
vn -0.3098 0.9084 0.2808
vn -0.2076 0.9600 0.1881
vn 0.5973 -0.0438 0.8008
vn -0.7384 -0.0438 -0.6729
vn -0.6731 -0.4181 0.6100
vn -0.6783 0.4181 -0.6042
vn 0.6651 0.0000 -0.7468
vn -0.0645 -0.9963 -0.0575
vn -0.6651 0.0000 0.7468
vn -0.3123 -0.9084 -0.2781
vn 0.3122 0.9084 0.2781
vn 0.2092 0.9600 0.1863
vn 0.7325 -0.0438 -0.6793
vn -0.5904 -0.0438 0.8060
vn 0.6783 -0.4181 0.6042
vn -0.6731 0.4181 0.6100
vn -0.0640 -0.9963 0.0580
vn -0.3098 -0.9084 0.2808
vn 0.3098 0.9084 -0.2808
vn 0.2076 0.9600 -0.1881
vn -0.5973 -0.0438 -0.8008
vn 0.7384 -0.0438 0.6729
vn 0.6731 -0.4181 -0.6100
vn 0.6749 0.4181 0.6080
vn -0.6693 0.0000 0.7430
vn 0.0642 -0.9963 0.0578
vn 0.6693 0.0000 -0.7430
vn 0.3107 -0.9084 0.2799
vn -0.3107 0.9084 -0.2799
vn -0.2082 0.9600 -0.1875
vn -0.7364 -0.0438 0.6752
vn 0.5949 -0.0438 -0.8026
vn -0.6749 -0.4181 -0.6080
vn -0.0645 -0.9963 -0.0574
vn -0.3122 -0.9084 -0.2781
vn 0.3123 0.9084 0.2781
vn -0.5903 -0.0438 0.8060
vn 1.0000 0.0000 0.0000
vn -1.0000 0.0000 0.0000
vn 0.6378 -0.7702 0.0000
vn 0.6378 0.7702 0.0000
vn -0.6378 0.7702 0.0000
vn -0.6378 -0.7702 0.0000
vn 0.6716 0.0000 0.7410
s off
f 2/1/1 3/2/1 1/3/1
f 4/4/2 7/5/2 3/2/2
f 8/6/3 5/7/3 7/5/3
f 6/8/4 1/9/4 5/7/4
f 7/5/5 1/10/5 3/11/5
f 4/12/6 6/8/6 8/6/6
f 10/13/1 11/14/1 9/15/1
f 12/16/2 16/17/2 15/18/2
f 16/17/3 13/19/3 15/18/3
f 14/20/4 10/21/4 9/22/4
f 15/18/5 9/23/5 11/24/5
f 10/13/1 12/16/1 11/14/1
f 15/18/2 11/14/2 12/16/2
f 16/17/3 14/20/3 13/19/3
f 9/22/4 13/19/4 14/20/4
f 15/18/5 13/19/5 9/23/5
f 18/25/7 16/26/7 17/27/7
f 10/28/8 17/27/8 12/29/8
f 2/1/1 4/4/1 3/2/1
f 4/4/2 8/6/2 7/5/2
f 8/6/3 6/8/3 5/7/3
f 6/8/4 2/30/4 1/9/4
f 7/5/5 5/7/5 1/10/5
f 4/12/6 2/31/6 6/8/6
f 12/16/9 17/32/9 16/17/9
f 14/20/10 18/33/10 10/21/10
f 18/25/7 14/34/7 16/26/7
f 10/28/8 18/25/8 17/27/8
f 19/35/11 22/36/11 21/37/11
f 21/37/12 26/38/12 25/39/12
f 23/40/13 29/41/13 28/42/13
f 24/43/14 19/44/14 23/40/14
f 25/39/15 19/45/15 21/46/15
f 22/47/16 24/43/16 26/38/16
f 24/43/17 30/48/17 26/38/17
f 26/38/18 29/41/18 25/39/18
f 24/43/19 28/42/19 27/49/19
f 30/50/20 28/51/20 29/52/20
f 31/53/21 34/54/21 33/55/21
f 34/54/22 37/56/22 33/55/22
f 35/57/23 41/58/23 40/59/23
f 36/60/24 31/61/24 35/57/24
f 33/62/25 35/57/25 31/63/25
f 34/64/26 36/60/26 38/65/26
f 36/60/27 42/66/27 38/65/27
f 38/65/28 41/58/28 37/56/28
f 36/60/29 40/59/29 39/67/29
f 42/68/30 40/69/30 41/70/30
f 43/71/31 46/72/31 45/73/31
f 46/72/14 49/74/14 45/73/14
f 49/74/32 52/75/32 47/76/32
f 48/77/12 43/78/12 47/76/12
f 45/79/33 47/76/33 43/80/33
f 50/81/34 44/82/34 48/77/34
f 48/77/35 54/83/35 50/81/35
f 50/81/36 53/84/36 49/74/36
f 48/77/37 52/75/37 51/85/37
f 54/86/38 52/87/38 53/88/38
f 56/89/39 57/90/39 55/91/39
f 57/90/40 62/92/40 61/93/40
f 61/93/41 64/94/41 59/95/41
f 60/96/42 55/97/42 59/95/42
f 61/93/43 55/98/43 57/99/43
f 58/100/44 60/96/44 62/92/44
f 62/92/45 63/101/45 66/102/45
f 62/92/46 65/103/46 61/93/46
f 60/96/47 64/94/47 63/101/47
f 63/104/48 65/105/48 66/106/48
f 68/107/11 69/108/11 67/109/11
f 70/110/12 73/111/12 69/108/12
f 71/112/13 77/113/13 76/114/13
f 71/112/14 68/115/14 67/116/14
f 73/111/15 67/117/15 69/118/15
f 70/119/16 72/120/16 74/121/16
f 72/120/17 78/122/17 74/121/17
f 74/121/18 77/113/18 73/111/18
f 72/120/19 76/114/19 75/123/19
f 75/124/20 77/125/20 78/126/20
f 79/127/21 82/128/21 81/129/21
f 81/129/22 86/130/22 85/131/22
f 85/131/49 88/132/49 83/133/49
f 83/133/24 80/134/24 79/135/24
f 85/131/50 79/136/50 81/137/50
f 82/138/51 84/139/51 86/130/51
f 84/139/27 90/140/27 86/130/27
f 86/130/28 89/141/28 85/131/28
f 84/139/52 88/132/52 87/142/52
f 90/143/30 88/144/30 89/145/30
f 91/146/31 94/147/31 93/148/31
f 94/147/14 97/149/14 93/148/14
f 97/149/32 100/150/32 95/151/32
f 96/152/12 91/153/12 95/151/12
f 97/149/33 91/154/33 93/155/33
f 98/156/34 92/157/34 96/152/34
f 98/156/35 99/158/35 102/159/35
f 98/156/36 101/160/36 97/149/36
f 96/152/37 100/150/37 99/158/37
f 102/161/38 100/162/38 101/163/38
f 104/164/39 105/165/39 103/166/39
f 106/167/40 109/168/40 105/165/40
f 107/169/41 113/170/41 112/171/41
f 108/172/42 103/173/42 107/169/42
f 109/168/43 103/174/43 105/175/43
f 106/176/44 108/172/44 110/177/44
f 108/172/45 114/178/45 110/177/45
f 110/177/46 113/170/46 109/168/46
f 108/172/47 112/171/47 111/179/47
f 111/180/48 113/181/48 114/182/48
f 116/183/53 117/184/53 115/185/53
f 123/186/9 122/187/9 121/188/9
f 122/187/54 119/189/54 121/188/54
f 125/190/10 116/191/10 115/192/10
f 121/188/55 125/193/55 123/194/55
f 118/195/56 126/196/56 124/197/56
f 124/197/57 120/198/57 122/187/57
f 123/194/58 115/199/58 117/200/58
f 120/198/10 125/190/10 119/189/10
f 118/201/9 123/186/9 117/184/9
f 19/35/11 20/202/11 22/36/11
f 21/37/59 22/36/59 26/38/59
f 23/40/13 25/39/13 29/41/13
f 24/43/14 20/203/14 19/44/14
f 25/39/15 23/40/15 19/45/15
f 22/47/16 20/204/16 24/43/16
f 24/43/17 27/49/17 30/48/17
f 26/38/18 30/48/18 29/41/18
f 24/43/19 23/40/19 28/42/19
f 30/50/20 27/205/20 28/51/20
f 31/53/21 32/206/21 34/54/21
f 34/54/22 38/65/22 37/56/22
f 35/57/49 37/56/49 41/58/49
f 36/60/24 32/207/24 31/61/24
f 33/62/25 37/56/25 35/57/25
f 34/64/26 32/208/26 36/60/26
f 36/60/27 39/67/27 42/66/27
f 38/65/28 42/66/28 41/58/28
f 36/60/29 35/57/29 40/59/29
f 42/68/30 39/209/30 40/69/30
f 43/71/31 44/210/31 46/72/31
f 46/72/14 50/81/14 49/74/14
f 49/74/32 53/84/32 52/75/32
f 48/77/12 44/211/12 43/78/12
f 45/79/33 49/74/33 47/76/33
f 50/81/34 46/212/34 44/82/34
f 48/77/35 51/85/35 54/83/35
f 50/81/36 54/83/36 53/84/36
f 48/77/37 47/76/37 52/75/37
f 54/86/38 51/213/38 52/87/38
f 56/89/39 58/214/39 57/90/39
f 57/90/40 58/214/40 62/92/40
f 61/93/41 65/103/41 64/94/41
f 60/96/42 56/215/42 55/97/42
f 61/93/43 59/95/43 55/98/43
f 58/100/44 56/216/44 60/96/44
f 62/92/45 60/96/45 63/101/45
f 62/92/46 66/102/46 65/103/46
f 60/96/47 59/95/47 64/94/47
f 63/104/48 64/217/48 65/105/48
f 68/107/11 70/110/11 69/108/11
f 70/110/12 74/121/12 73/111/12
f 71/112/13 73/111/13 77/113/13
f 71/112/14 72/120/14 68/115/14
f 73/111/15 71/112/15 67/117/15
f 70/119/16 68/218/16 72/120/16
f 72/120/17 75/123/17 78/122/17
f 74/121/18 78/122/18 77/113/18
f 72/120/19 71/112/19 76/114/19
f 75/124/20 76/219/20 77/125/20
f 79/127/21 80/220/21 82/128/21
f 81/129/22 82/128/22 86/130/22
f 85/131/23 89/141/23 88/132/23
f 83/133/24 84/139/24 80/134/24
f 85/131/50 83/133/50 79/136/50
f 82/138/26 80/221/26 84/139/26
f 84/139/27 87/142/27 90/140/27
f 86/130/28 90/140/28 89/141/28
f 84/139/29 83/133/29 88/132/29
f 90/143/30 87/222/30 88/144/30
f 91/146/31 92/223/31 94/147/31
f 94/147/14 98/156/14 97/149/14
f 97/149/32 101/160/32 100/150/32
f 96/152/12 92/224/12 91/153/12
f 97/149/33 95/151/33 91/154/33
f 98/156/34 94/225/34 92/157/34
f 98/156/35 96/152/35 99/158/35
f 98/156/36 102/159/36 101/160/36
f 96/152/37 95/151/37 100/150/37
f 102/161/38 99/226/38 100/162/38
f 104/164/39 106/167/39 105/165/39
f 106/167/40 110/177/40 109/168/40
f 107/169/41 109/168/41 113/170/41
f 108/172/42 104/227/42 103/173/42
f 109/168/43 107/169/43 103/174/43
f 106/176/44 104/228/44 108/172/44
f 108/172/45 111/179/45 114/178/45
f 110/177/46 114/178/46 113/170/46
f 108/172/47 107/169/47 112/171/47
f 111/180/48 112/229/48 113/181/48
f 116/183/53 118/201/53 117/184/53
f 123/186/9 124/230/9 122/187/9
f 122/187/54 120/198/54 119/189/54
f 125/190/10 126/231/10 116/191/10
f 121/188/55 119/189/55 125/193/55
f 118/195/56 116/232/56 126/196/56
f 124/197/57 126/196/57 120/198/57
f 123/194/58 125/193/58 115/199/58
f 120/198/10 126/231/10 125/190/10
f 118/201/9 124/230/9 123/186/9
