# Blender v3.4.1 OBJ File: 'bush.blend'
# www.blender.org
o Big_Tree_Trunk_Cylinder.004
v 0.018506 0.969678 0.024987
v -0.392030 1.235426 0.336011
v 0.041072 0.913456 0.087492
v -0.378811 1.202492 0.372625
v 0.007794 0.834807 0.104344
v -0.398304 1.156422 0.382497
v -0.056269 0.792957 0.062855
v -0.435831 1.131907 0.358193
v -0.102877 0.819418 -0.005735
v -0.463133 1.147408 0.318015
v -0.096933 0.894266 -0.049775
v -0.459651 1.191252 0.292218
v -0.042912 0.961138 -0.036102
v -0.428007 1.230423 0.300227
v -0.691846 1.320028 0.630407
v -0.699841 1.339947 0.608262
v -0.703636 1.292163 0.636378
v -0.726333 1.277336 0.621678
v -0.742846 1.286711 0.597378
v -0.740740 1.313229 0.581775
v -0.721601 1.336921 0.586619
v -0.989781 1.379748 0.775978
v -0.994096 1.390498 0.764027
v -0.996144 1.364710 0.779200
v -1.008393 1.356708 0.771267
v -1.017305 1.361767 0.758153
v -1.016168 1.376079 0.749732
v -1.005839 1.388865 0.752346
v -0.193415 -0.858611 -0.000000
v -0.185914 -0.471781 -0.000000
v -0.120592 -0.858611 -0.151218
v -0.115915 -0.471781 -0.145353
v 0.043039 -0.858611 -0.188566
v 0.041370 -0.471781 -0.181252
v 0.174261 -0.858611 -0.083920
v 0.167502 -0.471781 -0.080665
v 0.174261 -0.858611 0.083920
v 0.167502 -0.471781 0.080665
v 0.043039 -0.858611 0.188566
v 0.041370 -0.471781 0.181252
v -0.120592 -0.858611 0.151218
v -0.115915 -0.471781 0.145353
v -0.218854 -1.133228 -0.000000
v -0.136453 -1.133227 -0.171107
v 0.048699 -1.133227 -0.213366
v 0.197180 -1.133228 -0.094957
v 0.197180 -1.133227 0.094957
v 0.048699 -1.133228 0.213366
v -0.136453 -1.133228 0.171107
v -0.109594 -0.125401 -0.162820
v -0.175775 -0.125401 -0.025393
v 0.039114 -0.125401 -0.196761
v 0.158368 -0.125401 -0.101659
v 0.158368 -0.125401 0.050873
v 0.039114 -0.125401 0.145975
v -0.109594 -0.125401 0.112033
v -0.086204 0.334098 -0.133490
v -0.138261 0.334098 -0.025393
v 0.030766 0.334098 -0.160187
v 0.124568 0.334098 -0.085382
v 0.124568 0.334098 0.034596
v 0.030766 0.334098 0.109401
v -0.086204 0.334098 0.082703
v -0.063735 1.286738 -0.076577
v -0.102223 1.286738 0.003345
v 0.022747 1.286738 -0.096315
v 0.092100 1.286738 -0.041008
v 0.092100 1.286738 0.047698
v 0.022747 1.286738 0.103005
v -0.063735 1.286738 0.083266
v -0.254056 -1.254603 -0.000000
v -0.158401 -1.254603 -0.198629
v 0.056533 -1.254603 -0.247686
v 0.228896 -1.254603 -0.110231
v 0.228896 -1.254603 0.110231
v 0.056533 -1.254603 0.247686
v -0.158401 -1.254603 0.198629
v -0.339563 -1.342732 0.000000
v -0.211714 -1.342732 -0.265481
v 0.075560 -1.342732 -0.331050
v 0.305936 -1.342732 -0.147331
v 0.305936 -1.342733 0.147331
v 0.075560 -1.342732 0.331050
v -0.211714 -1.342732 0.265481
v -0.049776 0.950929 -0.013806
v 0.420649 1.216677 -0.223510
v -0.057564 0.894707 -0.079802
v 0.416087 1.183744 -0.262169
v -0.021329 0.816058 -0.088659
v 0.437313 1.137673 -0.267357
v 0.031643 0.774208 -0.033709
v 0.468342 1.113158 -0.235169
v 0.061463 0.800670 0.043670
v 0.485810 1.128659 -0.189842
v 0.045676 0.875517 0.085210
v 0.476562 1.172503 -0.165509
v -0.003830 0.942389 0.059631
v 0.447563 1.211674 -0.180493
v 0.779470 1.301279 -0.442155
v 0.782229 1.321198 -0.418774
v 0.792308 1.273414 -0.445294
v 0.811075 1.258587 -0.425825
v 0.821640 1.267962 -0.398410
v 0.816047 1.294480 -0.383693
v 0.798507 1.318172 -0.392756
v 1.102673 1.360999 -0.516289
v 1.104162 1.371749 -0.503670
v 1.109602 1.345961 -0.517983
v 1.119730 1.337959 -0.507476
v 1.125432 1.343019 -0.492681
v 1.122413 1.357330 -0.484738
v 1.112947 1.370116 -0.489629
v -0.017279 1.104540 0.022980
v -0.205380 1.390689 -0.485492
v -0.083731 1.048318 0.023406
v -0.244306 1.357756 -0.485242
v -0.088519 0.969670 -0.013588
v -0.247111 1.311685 -0.506912
v -0.028037 0.927819 -0.060144
v -0.211682 1.287170 -0.534184
v 0.052171 0.954281 -0.081205
v -0.164698 1.302671 -0.546521
v 0.091706 1.029128 -0.060911
v -0.141540 1.346515 -0.534633
v 0.060798 1.096000 -0.014545
v -0.159645 1.385687 -0.507473
v -0.382914 1.475291 -0.866333
v -0.359371 1.495210 -0.866484
v -0.384610 1.447426 -0.879440
v -0.363182 1.432599 -0.895934
v -0.334765 1.441974 -0.903396
v -0.320758 1.468492 -0.896206
v -0.331709 1.492184 -0.879779
v -0.420773 1.535011 -1.195761
v -0.408068 1.545761 -1.195843
v -0.421689 1.519973 -1.202835
v -0.410124 1.511971 -1.211736
v -0.394789 1.517031 -1.215763
v -0.387229 1.531342 -1.211883
v -0.393139 1.544128 -1.203018
v -0.052155 1.062106 0.080683
v 0.418270 1.104906 0.416489
v -0.059942 1.147635 0.066501
v 0.413709 1.155007 0.408182
v -0.023707 1.195749 0.003660
v 0.434934 1.183191 0.371371
v 0.029265 1.170218 -0.060520
v 0.465964 1.168236 0.333776
v 0.059085 1.090266 -0.077711
v 0.483432 1.121402 0.323706
v 0.043297 1.016099 -0.034966
v 0.474184 1.077957 0.348745
v -0.006209 1.003567 0.035525
v 0.445184 1.070616 0.390037
v 0.777092 1.248704 0.601652
v 0.779851 1.218402 0.606676
v 0.789930 1.265751 0.579388
v 0.808697 1.256706 0.556649
v 0.819262 1.228379 0.550559
v 0.813669 1.202103 0.565703
v 0.796129 1.197662 0.590677
v 1.100295 1.281470 0.691031
v 1.101784 1.265116 0.693743
v 1.107223 1.290669 0.679016
v 1.117352 1.285788 0.666744
v 1.123054 1.270501 0.663458
v 1.120035 1.256320 0.671630
v 1.110569 1.253923 0.685109
vt 1.000000 0.500000
vt 0.857143 1.000000
vt 0.857143 0.500000
vt 0.714286 1.000000
vt 0.714286 0.500000
vt 0.571429 1.000000
vt 0.571429 0.500000
vt 0.428571 0.500000
vt 0.428571 1.000000
vt 0.285714 0.500000
vt 0.714286 1.000000
vt 0.571429 1.000000
vt 0.285714 1.000000
vt 0.142857 0.500000
vt 0.000000 1.000000
vt 0.000000 0.500000
vt 0.562360 0.399638
vt 0.937640 0.399638
vt 0.854132 0.033767
vt 0.285714 1.000000
vt 0.142857 1.000000
vt 0.142857 1.000000
vt 0.142857 1.000000
vt 0.428571 1.000000
vt 0.000000 1.000000
vt 0.857143 1.000000
vt 1.000000 1.000000
vt 0.016017 0.196595
vt 0.145868 0.033767
vt 0.354132 0.033767
vt 0.571429 1.000000
vt 0.428571 1.000000
vt 0.857143 1.000000
vt 0.714286 1.000000
vt 0.000000 1.000000
vt 0.285714 1.000000
vt 1.000000 1.000000
vt 0.857143 0.500000
vt 1.000000 0.500000
vt 0.857143 1.000000
vt 0.714286 0.500000
vt 0.571429 1.000000
vt 0.571429 0.500000
vt 0.428571 1.000000
vt 0.428571 0.500000
vt 0.285714 0.500000
vt 0.428571 1.000000
vt 0.285714 1.000000
vt 0.142857 0.500000
vt 0.142857 1.000000
vt 0.000000 0.500000
vt 1.000000 0.500000
vt 0.714286 0.500000
vt 0.857143 0.500000
vt 0.857143 0.500000
vt 0.285714 0.500000
vt 0.428571 0.500000
vt 0.571429 0.500000
vt 0.142857 0.500000
vt 0.285714 1.000000
vt 0.142857 1.000000
vt 0.142857 1.000000
vt 0.000000 1.000000
vt 0.000000 1.000000
vt 0.714286 1.000000
vt 0.857143 1.000000
vt 0.714286 1.000000
vt 1.000000 1.000000
vt 0.571429 1.000000
vt 0.000000 1.000000
vt 0.000000 1.000000
vt 0.571429 1.000000
vt 0.428571 1.000000
vt 0.714286 1.000000
vt 0.285714 1.000000
vt 0.857143 1.000000
vt 0.354132 0.033767
vt 0.483983 0.196595
vt 0.250000 0.490000
vt 0.428571 1.000000
vt 0.285714 1.000000
vt 0.714286 1.000000
vt 0.571429 1.000000
vt 1.000000 1.000000
vt 0.857143 1.000000
vt 0.142857 1.000000
vt 1.000000 0.500000
vt 1.000000 0.500000
vt 0.000000 0.500000
vt 0.142857 0.500000
vt 0.285714 0.500000
vt 0.428571 0.500000
vt 0.571429 0.500000
vt 0.714286 0.500000
vt 0.516017 0.196595
vt 0.562360 0.399638
vt 0.937640 0.399638
vt 0.142857 0.500000
vt 0.285714 0.500000
vt 0.571429 0.500000
vt 0.857143 0.500000
vt 0.428571 0.500000
vt 0.714286 0.500000
vt 1.000000 0.500000
vt 0.857143 1.000000
vt 0.857143 0.500000
vt 0.714286 1.000000
vt 0.714286 0.500000
vt 0.571429 1.000000
vt 0.571429 0.500000
vt 0.428571 0.500000
vt 0.428571 1.000000
vt 0.285714 0.500000
vt 0.714286 1.000000
vt 0.571429 1.000000
vt 0.285714 1.000000
vt 0.142857 0.500000
vt 0.000000 1.000000
vt 0.000000 0.500000
vt 0.516017 0.196595
vt 0.562360 0.399638
vt 0.937640 0.399638
vt 0.285714 1.000000
vt 0.142857 1.000000
vt 0.142857 1.000000
vt 0.142857 1.000000
vt 0.428571 1.000000
vt 0.000000 1.000000
vt 0.857143 1.000000
vt 1.000000 1.000000
vt 0.483983 0.196595
vt 0.250000 0.490000
vt 0.016017 0.196595
vt 0.571429 1.000000
vt 0.428571 1.000000
vt 0.857143 1.000000
vt 0.714286 1.000000
vt 0.000000 1.000000
vt 0.285714 1.000000
vt 1.000000 0.500000
vt 0.857143 1.000000
vt 0.857143 0.500000
vt 0.714286 1.000000
vt 0.714286 0.500000
vt 0.571429 1.000000
vt 0.571429 0.500000
vt 0.428571 0.500000
vt 0.428571 1.000000
vt 0.285714 0.500000
vt 0.714286 1.000000
vt 0.571429 1.000000
vt 0.285714 1.000000
vt 0.142857 0.500000
vt 0.000000 1.000000
vt 0.000000 0.500000
vt 0.562360 0.399638
vt 0.937640 0.399638
vt 0.854132 0.033767
vt 0.285714 1.000000
vt 0.142857 1.000000
vt 0.142857 1.000000
vt 0.142857 1.000000
vt 0.428571 1.000000
vt 0.000000 1.000000
vt 0.857143 1.000000
vt 1.000000 1.000000
vt 0.354132 0.033767
vt 0.483983 0.196595
vt 0.250000 0.490000
vt 0.571429 1.000000
vt 0.428571 1.000000
vt 0.857143 1.000000
vt 0.714286 1.000000
vt 0.000000 1.000000
vt 0.285714 1.000000
vt 1.000000 0.500000
vt 0.857143 1.000000
vt 0.857143 0.500000
vt 0.714286 1.000000
vt 0.714286 0.500000
vt 0.571429 1.000000
vt 0.571429 0.500000
vt 0.428571 0.500000
vt 0.428571 1.000000
vt 0.285714 0.500000
vt 0.714286 1.000000
vt 0.571429 1.000000
vt 0.285714 1.000000
vt 0.142857 0.500000
vt 0.000000 1.000000
vt 0.000000 0.500000
vt 0.645868 0.033767
vt 0.516017 0.196595
vt 0.937640 0.399638
vt 0.285714 1.000000
vt 0.142857 1.000000
vt 0.142857 1.000000
vt 0.142857 1.000000
vt 0.428571 1.000000
vt 0.000000 1.000000
vt 0.857143 1.000000
vt 1.000000 1.000000
vt 0.016017 0.196595
vt 0.145868 0.033767
vt 0.354132 0.033767
vt 0.571429 1.000000
vt 0.428571 1.000000
vt 0.857143 1.000000
vt 0.714286 1.000000
vt 0.000000 1.000000
vt 0.285714 1.000000
vt 1.000000 1.000000
vt 0.750000 0.490000
vt 0.983983 0.196595
vt 0.645868 0.033767
vt 0.516017 0.196595
vt 0.483983 0.196595
vt 0.437640 0.399638
vt 0.250000 0.490000
vt 0.062360 0.399638
vt 1.000000 1.000000
vt 0.000000 0.500000
vt 0.437640 0.399638
vt 0.062360 0.399638
vt 0.016017 0.196595
vt 0.145868 0.033767
vt 1.000000 1.000000
vt 0.750000 0.490000
vt 0.983983 0.196595
vt 0.854132 0.033767
vt 0.645868 0.033767
vt 0.000000 0.500000
vt 1.000000 1.000000
vt 0.750000 0.490000
vt 0.983983 0.196595
vt 0.854132 0.033767
vt 0.645868 0.033767
vt 0.437640 0.399638
vt 0.062360 0.399638
vt 0.145868 0.033767
vt 0.354132 0.033767
vt 1.000000 1.000000
vt 1.000000 1.000000
vt 0.750000 0.490000
vt 0.983983 0.196595
vt 0.645868 0.033767
vt 0.516017 0.196595
vt 0.437640 0.399638
vt 0.062360 0.399638
vt 0.016017 0.196595
vt 0.145868 0.033767
vt 1.000000 1.000000
vt 1.000000 1.000000
vt 0.562360 0.399638
vt 0.750000 0.490000
vt 0.983983 0.196595
vt 0.854132 0.033767
vt 0.483983 0.196595
vt 0.437640 0.399638
vt 0.250000 0.490000
vt 0.062360 0.399638
vt 1.000000 1.000000
vn 0.6789 0.6507 0.3402
vn 0.5385 -0.0476 0.8413
vn -0.0333 -0.6775 0.7348
vn -0.6113 -0.7832 0.1132
vn -0.7695 -0.2774 -0.5753
vn 0.1373 -0.7954 0.5904
vn -0.3742 0.4662 -0.8017
vn 0.2700 0.8785 -0.3942
vn 0.6699 -0.4153 -0.6154
vn -0.3792 0.4694 -0.7974
vn -0.4839 0.5328 -0.6942
vn -0.4655 -0.8847 -0.0250
vn 0.1101 0.9632 -0.2453
vn 0.6125 -0.0909 0.7852
vn -0.7448 -0.2935 -0.5993
vn 0.5956 0.6922 0.4076
vn -0.6699 0.4153 0.6154
vn -0.3334 -0.9333 -0.1335
vn 0.4400 0.0062 0.8980
vn 0.0624 0.9779 -0.1995
vn -0.5424 -0.3936 -0.7422
vn 0.1086 -0.7787 0.6179
vn 0.4066 0.7474 0.5255
vn -0.9008 0.0175 -0.4338
vn -0.2225 0.0175 -0.9748
vn 0.6234 0.0175 -0.7817
vn 0.9998 0.0175 0.0000
vn 0.6234 0.0175 0.7817
vn 0.9997 0.0264 0.0000
vn -0.2225 0.0175 0.9748
vn -0.9008 0.0175 0.4338
vn -0.8978 0.0832 -0.4324
vn -0.2153 0.2528 -0.9433
vn 0.6213 0.0832 -0.7791
vn -0.2217 0.0832 0.9716
vn 0.9965 0.0832 -0.0000
vn -0.8978 0.0832 0.4324
vn -0.2217 0.0832 -0.9716
vn 0.6213 0.0832 0.7791
vn -0.2219 0.0734 0.9723
vn -0.8994 0.0581 0.4332
vn -0.2223 -0.0451 -0.9739
vn 0.6213 0.0834 0.7791
vn -0.9010 -0.0054 -0.4339
vn 0.6232 -0.0309 -0.7815
vn -0.2215 0.0974 0.9703
vn -0.9008 0.0210 0.4338
vn 0.9973 0.0734 0.0000
vn -0.2219 0.0734 -0.9723
vn -0.8985 0.0734 0.4327
vn 0.6218 0.0734 0.7797
vn 0.6218 0.0734 -0.7797
vn -0.8985 0.0734 -0.4327
vn 0.0000 1.0000 0.0000
vn 0.6235 0.0105 0.7818
vn 0.6225 0.0576 -0.7805
vn -0.9000 0.0471 -0.4334
vn -0.2225 0.0047 0.9749
vn 0.9994 0.0341 -0.0000
vn -0.2221 0.0634 -0.9730
vn -0.6783 0.6581 -0.3267
vn -0.8717 0.2528 0.4198
vn 0.6032 0.2528 0.7564
vn 0.6032 0.2528 -0.7564
vn -0.8717 0.2528 -0.4198
vn -0.2153 0.2528 0.9433
vn 0.9675 0.2528 -0.0000
vn 0.0000 -1.0000 0.0000
vn -0.1675 0.6581 0.7340
vn 0.7529 0.6582 0.0000
vn -0.1675 0.6581 -0.7340
vn -0.6783 0.6581 0.3267
vn 0.4694 0.6581 0.5886
vn 0.4694 0.6581 -0.5886
vn -0.5840 0.6507 -0.4854
vn -0.3335 -0.0476 -0.9416
vn 0.1992 -0.6775 -0.7080
vn 0.6211 -0.7832 0.0285
vn 0.6188 -0.2774 0.7349
vn 0.0003 -0.7954 -0.6061
vn 0.1824 0.4662 0.8657
vn -0.3524 0.8785 0.3226
vn -0.7921 -0.4153 0.4473
vn 0.1882 0.4694 0.8627
vn 0.3137 0.5328 0.7859
vn 0.4477 -0.8847 0.1300
vn -0.1629 0.9632 0.2139
vn -0.4182 -0.0909 -0.9038
vn 0.5892 -0.2935 0.7528
vn -0.4875 0.6922 -0.5322
vn 0.7921 0.4153 -0.4473
vn 0.2944 -0.9333 0.2057
vn -0.2247 0.0062 -0.9744
vn -0.1061 0.9779 0.1801
vn 0.3598 -0.3936 0.8460
vn 0.0345 -0.7787 -0.6264
vn -0.2767 0.7474 -0.6041
vn -0.5348 0.6363 0.5559
vn -0.9623 -0.0656 0.2639
vn -0.6767 -0.6888 -0.2600
vn 0.0922 -0.7760 -0.6240
vn 0.7846 -0.2621 -0.5619
vn -0.6023 -0.7954 -0.0675
vn 0.8715 0.4782 -0.1087
vn 0.2828 0.8768 0.3888
vn 0.3567 -0.4153 0.8368
vn 0.8783 0.4694 -0.0915
vn 0.8159 0.5328 -0.2246
vn 0.1788 -0.8847 -0.4305
vn 0.1946 0.9632 0.1856
vn -0.9446 -0.0909 0.3155
vn 0.8134 -0.2935 -0.5022
vn -0.5829 0.6922 0.4255
vn -0.3568 0.4153 -0.8368
vn 0.2371 -0.9333 -0.2698
vn -0.9933 0.0062 0.1153
vn 0.1672 0.9779 0.1254
vn 0.8806 -0.3936 -0.2638
vn -0.6187 -0.7787 -0.1038
vn -0.6310 0.7474 0.2080
vn -0.5840 0.0808 0.8078
vn -0.3335 0.8315 0.4443
vn 0.1992 0.9559 -0.2158
vn 0.6211 0.3791 -0.6860
vn 0.6188 -0.4870 -0.6164
vn 0.0003 0.9293 -0.3694
vn 0.1824 -0.9821 -0.0465
vn -0.3524 -0.7291 0.5866
vn -0.7921 -0.1694 -0.5864
vn 0.1882 -0.9812 -0.0422
vn 0.3137 -0.9481 0.0517
vn 0.4477 0.3444 -0.8252
vn -0.1629 -0.6796 0.7153
vn -0.4182 0.8214 0.3878
vn 0.5892 -0.4939 -0.6394
vn -0.4875 0.0994 0.8675
vn 0.7921 0.1694 0.5864
vn 0.2944 0.3046 -0.9058
vn -0.2247 0.8319 0.5074
vn -0.1061 -0.6582 0.7453
vn 0.3598 -0.5222 -0.7732
vn 0.0346 0.9381 -0.3447
vn -0.2766 0.1326 0.9518
vn -0.2218 0.0832 0.9716
vn 0.7529 0.6581 0.0000
vn -0.6783 0.6582 0.3267
vn 0.4694 0.6582 -0.5886
vn -0.3524 0.8785 0.3227
vn 0.1883 0.4694 0.8627
vn -0.3567 0.4153 -0.8368
vn 0.7921 0.1693 0.5864
vn 0.0345 0.9381 -0.3447
vn -0.2767 0.1326 0.9518
s off
f 1/1/1 4/2/1 3/3/1
f 3/3/2 6/4/2 5/5/2
f 5/5/3 8/6/3 7/7/3
f 8/6/4 9/8/4 7/7/4
f 10/9/5 11/10/5 9/8/5
f 8/6/6 17/11/6 18/12/6
f 12/13/7 13/14/7 11/10/7
f 13/14/8 2/15/8 1/16/8
f 13/17/9 3/18/9 7/19/9
f 20/20/10 28/21/10 21/22/10
f 12/13/11 21/22/11 14/23/11
f 8/6/12 19/24/12 10/9/12
f 14/23/13 16/25/13 2/15/13
f 6/4/14 15/26/14 17/11/14
f 10/9/15 20/20/15 12/13/15
f 4/2/16 16/27/16 15/26/16
f 27/28/17 26/29/17 25/30/17
f 19/24/18 25/31/18 26/32/18
f 17/11/19 22/33/19 24/34/19
f 21/22/20 23/35/20 16/25/20
f 19/24/21 27/36/21 20/20/21
f 18/12/22 24/34/22 25/31/22
f 16/27/23 22/33/23 15/26/23
f 30/37/24 31/38/24 29/39/24
f 32/40/25 33/41/25 31/38/25
f 33/41/26 36/42/26 35/43/26
f 35/43/27 38/44/27 37/45/27
f 38/44/28 39/46/28 37/45/28
f 36/42/29 54/47/29 38/44/29
f 40/48/30 41/49/30 39/46/30
f 42/50/31 29/51/31 41/49/31
f 31/38/32 43/52/32 29/39/32
f 45/53/33 72/54/33 44/55/33
f 35/43/34 45/53/34 33/41/34
f 41/49/35 48/56/35 39/46/35
f 35/43/36 47/57/36 46/58/36
f 29/51/37 49/59/37 41/49/37
f 33/41/38 44/55/38 31/38/38
f 39/46/39 47/57/39 37/45/39
f 55/60/40 63/61/40 56/62/40
f 30/63/41 56/62/41 51/64/41
f 34/65/42 50/66/42 52/67/42
f 38/44/43 55/60/43 40/48/43
f 32/40/44 51/68/44 50/66/44
f 34/65/45 53/69/45 36/42/45
f 42/50/46 55/60/46 56/62/46
f 63/61/47 65/70/47 58/71/47
f 54/47/48 60/72/48 61/73/48
f 50/66/49 59/74/49 52/67/49
f 51/64/50 63/61/50 58/71/50
f 55/60/51 61/73/51 62/75/51
f 52/67/52 60/72/52 53/69/52
f 51/68/53 57/76/53 50/66/53
f 67/77/54 66/78/54 65/79/54
f 62/75/55 68/80/55 69/81/55
f 60/72/56 66/82/56 67/83/56
f 58/84/57 64/85/57 57/76/57
f 62/75/58 70/86/58 63/61/58
f 61/73/59 67/83/59 68/80/59
f 57/76/60 66/82/60 59/74/60
f 72/54/61 78/87/61 71/88/61
f 49/59/62 71/89/62 77/90/62
f 47/57/63 76/91/63 75/92/63
f 45/53/64 74/93/64 73/94/64
f 44/55/65 71/88/65 43/52/65
f 48/56/66 77/90/66 76/91/66
f 47/57/67 74/93/67 46/58/67
f 83/95/68 84/96/68 79/97/68
f 76/91/69 84/98/69 83/99/69
f 75/92/70 81/100/70 74/93/70
f 73/94/71 79/101/71 72/54/71
f 71/89/72 84/98/72 77/90/72
f 76/91/73 82/102/73 75/92/73
f 74/93/74 80/103/74 73/94/74
f 85/104/75 88/105/75 87/106/75
f 87/106/76 90/107/76 89/108/76
f 89/108/77 92/109/77 91/110/77
f 92/109/78 93/111/78 91/110/78
f 94/112/79 95/113/79 93/111/79
f 92/109/80 101/114/80 102/115/80
f 96/116/81 97/117/81 95/113/81
f 97/117/82 86/118/82 85/119/82
f 95/120/83 97/121/83 87/122/83
f 104/123/84 112/124/84 105/125/84
f 96/116/85 105/125/85 98/126/85
f 92/109/86 103/127/86 94/112/86
f 98/126/87 100/128/87 86/118/87
f 90/107/88 99/129/88 101/114/88
f 94/112/89 104/123/89 96/116/89
f 88/105/90 100/130/90 99/129/90
f 108/131/91 107/132/91 111/133/91
f 103/127/92 109/134/92 110/135/92
f 101/114/93 106/136/93 108/137/93
f 105/125/94 107/138/94 100/128/94
f 103/127/95 111/139/95 104/123/95
f 102/115/96 108/137/96 109/134/96
f 100/130/97 106/136/97 99/129/97
f 113/140/98 116/141/98 115/142/98
f 115/142/99 118/143/99 117/144/99
f 117/144/100 120/145/100 119/146/100
f 120/145/101 121/147/101 119/146/101
f 122/148/102 123/149/102 121/147/102
f 120/145/103 129/150/103 130/151/103
f 124/152/104 125/153/104 123/149/104
f 125/153/105 114/154/105 113/155/105
f 125/156/106 115/157/106 119/158/106
f 132/159/107 140/160/107 133/161/107
f 124/152/108 133/161/108 126/162/108
f 120/145/109 131/163/109 122/148/109
f 126/162/110 128/164/110 114/154/110
f 118/143/111 127/165/111 129/150/111
f 122/148/112 132/159/112 124/152/112
f 116/141/113 128/166/113 127/165/113
f 137/167/114 136/168/114 135/169/114
f 131/163/115 137/170/115 138/171/115
f 129/150/116 134/172/116 136/173/116
f 133/161/117 135/174/117 128/164/117
f 131/163/118 139/175/118 132/159/118
f 130/151/119 136/173/119 137/170/119
f 128/166/120 134/172/120 127/165/120
f 141/176/121 144/177/121 143/178/121
f 143/178/122 146/179/122 145/180/122
f 145/180/123 148/181/123 147/182/123
f 148/181/124 149/183/124 147/182/124
f 150/184/125 151/185/125 149/183/125
f 148/181/126 157/186/126 158/187/126
f 152/188/127 153/189/127 151/185/127
f 153/189/128 142/190/128 141/191/128
f 149/192/129 151/193/129 143/194/129
f 160/195/130 168/196/130 161/197/130
f 152/188/131 161/197/131 154/198/131
f 148/181/132 159/199/132 150/184/132
f 154/198/133 156/200/133 142/190/133
f 146/179/134 155/201/134 157/186/134
f 150/184/135 160/195/135 152/188/135
f 144/177/136 156/202/136 155/201/136
f 167/203/137 166/204/137 165/205/137
f 159/199/138 165/206/138 166/207/138
f 157/186/139 162/208/139 164/209/139
f 161/197/140 163/210/140 156/200/140
f 159/199/141 167/211/141 160/195/141
f 158/187/142 164/209/142 165/206/142
f 156/202/143 162/208/143 155/201/143
f 1/1/1 2/212/1 4/2/1
f 3/3/2 4/2/2 6/4/2
f 5/5/3 6/4/3 8/6/3
f 8/6/4 10/9/4 9/8/4
f 10/9/5 12/13/5 11/10/5
f 8/6/6 6/4/6 17/11/6
f 12/13/7 14/23/7 13/14/7
f 13/14/8 14/23/8 2/15/8
f 13/17/9 1/213/9 3/18/9
f 3/18/9 5/214/9 7/19/9
f 7/19/9 9/215/9 11/216/9
f 11/216/9 13/17/9 7/19/9
f 20/20/10 27/36/10 28/21/10
f 12/13/11 20/20/11 21/22/11
f 8/6/12 18/12/12 19/24/12
f 14/23/13 21/22/13 16/25/13
f 6/4/14 4/2/14 15/26/14
f 10/9/15 19/24/15 20/20/15
f 4/2/16 2/212/16 16/27/16
f 24/217/17 22/218/17 25/30/17
f 22/218/17 23/219/17 25/30/17
f 23/219/17 28/220/17 25/30/17
f 28/220/17 27/28/17 25/30/17
f 19/24/18 18/12/18 25/31/18
f 17/11/19 15/26/19 22/33/19
f 21/22/20 28/21/20 23/35/20
f 19/24/21 26/32/21 27/36/21
f 18/12/22 17/11/22 24/34/22
f 16/27/23 23/221/23 22/33/23
f 30/37/24 32/40/24 31/38/24
f 32/40/25 34/65/25 33/41/25
f 33/41/26 34/65/26 36/42/26
f 35/43/27 36/42/27 38/44/27
f 38/44/28 40/48/28 39/46/28
f 36/42/29 53/69/29 54/47/29
f 40/48/30 42/50/30 41/49/30
f 42/50/31 30/63/31 29/51/31
f 31/38/32 44/55/32 43/52/32
f 45/53/33 73/94/33 72/54/33
f 35/43/34 46/58/34 45/53/34
f 41/49/144 49/59/144 48/56/144
f 35/43/36 37/45/36 47/57/36
f 29/51/37 43/222/37 49/59/37
f 33/41/38 45/53/38 44/55/38
f 39/46/39 48/56/39 47/57/39
f 55/60/40 62/75/40 63/61/40
f 30/63/41 42/50/41 56/62/41
f 34/65/42 32/40/42 50/66/42
f 38/44/43 54/47/43 55/60/43
f 32/40/44 30/37/44 51/68/44
f 34/65/45 52/67/45 53/69/45
f 42/50/46 40/48/46 55/60/46
f 63/61/47 70/86/47 65/70/47
f 54/47/48 53/69/48 60/72/48
f 50/66/49 57/76/49 59/74/49
f 51/64/50 56/62/50 63/61/50
f 55/60/51 54/47/51 61/73/51
f 52/67/52 59/74/52 60/72/52
f 51/68/53 58/84/53 57/76/53
f 66/78/54 64/223/54 65/79/54
f 65/79/54 70/224/54 67/77/54
f 70/224/54 69/225/54 67/77/54
f 69/225/54 68/226/54 67/77/54
f 62/75/55 61/73/55 68/80/55
f 60/72/56 59/74/56 66/82/56
f 58/84/57 65/227/57 64/85/57
f 62/75/58 69/81/58 70/86/58
f 61/73/59 60/72/59 67/83/59
f 57/76/60 64/85/60 66/82/60
f 72/54/61 79/101/61 78/87/61
f 49/59/62 43/222/62 71/89/62
f 47/57/63 48/56/63 76/91/63
f 45/53/64 46/58/64 74/93/64
f 44/55/65 72/54/65 71/88/65
f 48/56/66 49/59/66 77/90/66
f 47/57/67 75/92/67 74/93/67
f 84/96/68 78/228/68 79/97/68
f 79/97/68 80/229/68 83/95/68
f 80/229/68 81/230/68 83/95/68
f 81/230/68 82/231/68 83/95/68
f 76/91/69 77/90/69 84/98/69
f 75/92/145 82/102/145 81/100/145
f 73/94/71 80/103/71 79/101/71
f 71/89/146 78/232/146 84/98/146
f 76/91/73 83/99/73 82/102/73
f 74/93/147 81/100/147 80/103/147
f 85/104/75 86/233/75 88/105/75
f 87/106/76 88/105/76 90/107/76
f 89/108/77 90/107/77 92/109/77
f 92/109/78 94/112/78 93/111/78
f 94/112/79 96/116/79 95/113/79
f 92/109/80 90/107/80 101/114/80
f 96/116/81 98/126/81 97/117/81
f 97/117/148 98/126/148 86/118/148
f 97/121/83 85/234/83 87/122/83
f 87/122/83 89/235/83 91/236/83
f 91/236/83 93/237/83 87/122/83
f 93/237/83 95/120/83 87/122/83
f 104/123/149 111/139/149 112/124/149
f 96/116/85 104/123/85 105/125/85
f 92/109/86 102/115/86 103/127/86
f 98/126/87 105/125/87 100/128/87
f 90/107/88 88/105/88 99/129/88
f 94/112/89 103/127/89 104/123/89
f 88/105/90 86/233/90 100/130/90
f 108/131/91 106/238/91 107/132/91
f 107/132/91 112/239/91 111/133/91
f 111/133/91 110/240/91 109/241/91
f 109/241/91 108/131/91 111/133/91
f 103/127/92 102/115/92 109/134/92
f 101/114/93 99/129/93 106/136/93
f 105/125/94 112/124/94 107/138/94
f 103/127/95 110/135/95 111/139/95
f 102/115/96 101/114/96 108/137/96
f 100/130/97 107/242/97 106/136/97
f 113/140/98 114/243/98 116/141/98
f 115/142/99 116/141/99 118/143/99
f 117/144/100 118/143/100 120/145/100
f 120/145/101 122/148/101 121/147/101
f 122/148/102 124/152/102 123/149/102
f 120/145/103 118/143/103 129/150/103
f 124/152/104 126/162/104 125/153/104
f 125/153/105 126/162/105 114/154/105
f 125/156/106 113/244/106 115/157/106
f 115/157/106 117/245/106 119/158/106
f 119/158/106 121/246/106 123/247/106
f 123/247/106 125/156/106 119/158/106
f 132/159/107 139/175/107 140/160/107
f 124/152/108 132/159/108 133/161/108
f 120/145/109 130/151/109 131/163/109
f 126/162/110 133/161/110 128/164/110
f 118/143/111 116/141/111 127/165/111
f 122/148/112 131/163/112 132/159/112
f 116/141/113 114/243/113 128/166/113
f 136/168/114 134/248/114 135/169/114
f 135/169/150 140/249/150 137/167/150
f 140/249/114 139/250/114 137/167/114
f 139/250/114 138/251/114 137/167/114
f 131/163/115 130/151/115 137/170/115
f 129/150/116 127/165/116 134/172/116
f 133/161/117 140/160/117 135/174/117
f 131/163/118 138/171/118 139/175/118
f 130/151/119 129/150/119 136/173/119
f 128/166/120 135/252/120 134/172/120
f 141/176/121 142/253/121 144/177/121
f 143/178/122 144/177/122 146/179/122
f 145/180/123 146/179/123 148/181/123
f 148/181/124 150/184/124 149/183/124
f 150/184/125 152/188/125 151/185/125
f 148/181/126 146/179/126 157/186/126
f 152/188/127 154/198/127 153/189/127
f 153/189/128 154/198/128 142/190/128
f 153/254/129 141/255/129 151/193/129
f 141/255/129 143/194/129 151/193/129
f 143/194/129 145/256/129 147/257/129
f 147/257/129 149/192/129 143/194/129
f 160/195/130 167/211/130 168/196/130
f 152/188/131 160/195/131 161/197/131
f 148/181/132 158/187/132 159/199/132
f 154/198/133 161/197/133 156/200/133
f 146/179/134 144/177/134 155/201/134
f 150/184/135 159/199/135 160/195/135
f 144/177/136 142/253/136 156/202/136
f 164/258/151 162/259/151 165/205/151
f 162/259/151 163/260/151 165/205/151
f 163/260/137 168/261/137 165/205/137
f 168/261/137 167/203/137 165/205/137
f 159/199/138 158/187/138 165/206/138
f 157/186/139 155/201/139 162/208/139
f 161/197/140 168/196/140 163/210/140
f 159/199/141 166/207/141 167/211/141
f 158/187/152 157/186/152 164/209/152
f 156/202/153 163/262/153 162/208/153
