# Blender v3.4.1 OBJ File: 'environment.blend'
# www.blender.org
o City_Tree_Trunk_Cylinder.002
v 0.000000 -0.220829 -0.227146
v 0.000000 0.220829 -0.220829
v 0.133513 -0.220829 -0.183765
v 0.129800 0.220829 -0.178654
v 0.216029 -0.220829 -0.070192
v 0.210020 0.220829 -0.068240
v 0.216029 -0.220829 0.070192
v 0.210020 0.220829 0.068240
v 0.133513 -0.220829 0.183765
v 0.129800 0.220829 0.178654
v 0.000000 -0.220829 0.227146
v 0.000000 0.220829 0.220829
v -0.133513 -0.220829 0.183765
v -0.129800 0.220829 0.178654
v -0.216029 -0.220829 0.070192
v -0.210020 0.220829 0.068240
v -0.216029 -0.220829 -0.070192
v -0.210020 0.220829 -0.068240
v -0.133513 -0.220829 -0.183765
v -0.129800 0.220829 -0.178654
v 0.013827 -0.613789 -0.227146
v 0.147340 -0.613789 -0.183765
v 0.229856 -0.613789 -0.070192
v 0.229856 -0.613789 0.070192
v 0.147340 -0.613789 0.183765
v 0.013827 -0.613789 0.227146
v -0.119686 -0.613789 0.183765
v -0.202202 -0.613789 0.070192
v -0.202202 -0.613789 -0.070192
v -0.119686 -0.613789 -0.183765
v 0.013827 -1.192578 -0.271706
v 0.157502 -1.192578 -0.225023
v 0.246298 -1.192578 -0.102806
v 0.246298 -1.192578 0.048263
v 0.157502 -1.192578 0.170481
v 0.013827 -1.192578 0.217164
v -0.129848 -1.192578 0.170481
v -0.218644 -1.192578 0.048263
v -0.218644 -1.192578 -0.102806
v -0.129848 -1.192578 -0.225023
v -0.016813 -2.027475 -0.274840
v 0.149163 -2.027475 -0.220911
v 0.251741 -2.027475 -0.079723
v 0.251741 -2.027475 0.094794
v 0.149163 -2.027475 0.235982
v -0.016813 -2.027475 0.289911
v -0.182789 -2.027475 0.235982
v -0.285368 -2.027475 0.094794
v -0.285368 -2.027475 -0.079723
v -0.182789 -2.027475 -0.220911
v 0.038803 0.939878 -0.147047
v -0.068033 0.939878 -0.181760
v 0.104831 0.939878 -0.056167
v 0.104831 0.939878 0.056167
v 0.038803 0.939878 0.147047
v -0.068033 0.939878 0.181760
v -0.174869 0.939878 0.147047
v -0.240897 0.939878 0.056167
v -0.240897 0.939878 -0.056167
v -0.174869 0.939878 -0.147047
v 0.029117 1.491267 -0.107312
v -0.068033 1.491267 -0.138878
v 0.089159 1.491267 -0.024671
v 0.089159 1.491267 0.077478
v 0.029117 1.491267 0.160119
v -0.068033 1.491267 0.191685
v -0.165183 1.491267 0.160119
v -0.225225 1.491267 0.077478
v -0.225225 1.491267 -0.024671
v -0.165183 1.491267 -0.107312
v 0.036556 2.018892 -0.086726
v -0.045637 2.018892 -0.113432
v 0.087354 2.018892 -0.016808
v 0.087354 2.018892 0.069615
v 0.036556 2.018892 0.139533
v -0.045637 2.018892 0.166239
v -0.127830 2.018892 0.139533
v -0.178628 2.018892 0.069615
v -0.178628 2.018892 -0.016808
v -0.127830 2.018892 -0.086726
v 0.086912 2.816905 -0.069298
v 0.029296 2.842423 -0.069938
v 0.135276 2.801134 -0.032104
v 0.155915 2.801134 0.027438
v 0.140944 2.816905 0.086585
v 0.096083 2.842423 0.122745
v 0.038467 2.867941 0.122106
v -0.009897 2.883713 0.084912
v -0.030535 2.883713 0.025369
v -0.015565 2.867941 -0.033778
v 0.305350 3.337632 -0.112900
v 0.268926 3.353764 -0.113304
v 0.335925 3.327662 -0.089387
v 0.348972 3.327662 -0.051745
v 0.339508 3.337632 -0.014354
v 0.311148 3.353764 0.008506
v 0.274724 3.369897 0.008102
v 0.244149 3.379867 -0.015412
v 0.231101 3.379867 -0.053053
v 0.240565 3.369897 -0.090445
v 0.538233 3.671139 -0.298325
v 0.509270 3.683967 -0.298647
v 0.562545 3.663211 -0.279628
v 0.572920 3.663211 -0.249697
v 0.565395 3.671139 -0.219965
v 0.542844 3.683967 -0.201788
v 0.513881 3.696795 -0.202109
v 0.489569 3.704722 -0.220806
v 0.479194 3.704722 -0.250737
v 0.486719 3.696795 -0.280470
v 0.849646 4.067512 -0.335147
v 0.841544 4.082128 -0.331965
v 0.861060 4.056487 -0.329020
v 0.871428 4.053264 -0.315923
v 0.876788 4.059075 -0.300860
v 0.875094 4.071699 -0.289584
v 0.866992 4.086315 -0.286402
v 0.855577 4.097341 -0.292529
v 0.845210 4.100563 -0.305626
v 0.839849 4.094753 -0.320689
v 1.168173 4.288919 -0.518268
v 1.164147 4.296184 -0.516687
v 1.173847 4.283440 -0.515223
v 1.179000 4.281838 -0.508713
v 1.181664 4.284726 -0.501227
v 1.180822 4.291000 -0.495622
v 1.176795 4.298265 -0.494040
v 1.171122 4.303745 -0.497086
v 1.165969 4.305347 -0.503596
v 1.163304 4.302459 -0.511082
vt 1.000000 1.000000
vt 0.900000 0.500000
vt 1.000000 0.500000
vt 0.900000 1.000000
vt 0.800000 0.500000
vt 0.800000 1.000000
vt 0.700000 0.500000
vt 0.700000 1.000000
vt 0.600000 0.500000
vt 0.600000 1.000000
vt 0.500000 0.500000
vt 0.500000 1.000000
vt 0.400000 0.500000
vt 0.400000 1.000000
vt 0.300000 0.500000
vt 0.300000 1.000000
vt 0.200000 0.500000
vt 0.200000 1.000000
vt 0.100000 1.000000
vt 0.100000 1.000000
vt 0.100000 0.500000
vt -0.000000 0.500000
vt 0.900000 0.500000
vt 0.800000 0.500000
vt 0.900000 0.500000
vt 0.100000 0.500000
vt 0.200000 0.500000
vt 0.300000 0.500000
vt 0.400000 0.500000
vt 0.500000 0.500000
vt 0.600000 0.500000
vt 0.700000 0.500000
vt 1.000000 0.500000
vt 0.800000 0.500000
vt 0.400000 0.500000
vt 0.500000 0.500000
vt 0.500000 0.500000
vt 0.200000 0.500000
vt 0.700000 0.500000
vt -0.000000 0.500000
vt 0.100000 0.500000
vt 0.600000 0.500000
vt 1.000000 0.500000
vt 0.300000 0.500000
vt 0.750000 0.010000
vt 0.521746 0.175836
vt 0.608932 0.444164
vt 0.800000 0.500000
vt -0.000000 0.500000
vt 0.100000 0.500000
vt 0.300000 0.500000
vt 0.400000 0.500000
vt 0.700000 0.500000
vt 0.900000 0.500000
vt 1.000000 0.500000
vt 0.200000 0.500000
vt 0.600000 0.500000
vt 0.500000 1.000000
vt 0.600000 1.000000
vt 0.500000 1.000000
vt 0.200000 1.000000
vt 0.400000 1.000000
vt 0.300000 1.000000
vt 0.600000 1.000000
vt 0.700000 1.000000
vt 0.900000 1.000000
vt 0.800000 1.000000
vt -0.000000 1.000000
vt -0.000000 1.000000
vt 0.900000 1.000000
vt 1.000000 1.000000
vt 0.900000 1.000000
vt 0.800000 1.000000
vt 0.100000 1.000000
vt 0.400000 1.000000
vt 0.700000 1.000000
vt -0.000000 1.000000
vt 0.300000 1.000000
vt 1.000000 1.000000
vt 0.200000 1.000000
vt 0.300000 1.000000
vt 0.200000 1.000000
vt 0.200000 1.000000
vt 0.500000 1.000000
vt 0.800000 1.000000
vt 0.100000 1.000000
vt 0.400000 1.000000
vt 0.700000 1.000000
vt -0.000000 1.000000
vt 0.600000 1.000000
vt 0.500000 1.000000
vt 0.600000 1.000000
vt 0.500000 1.000000
vt 0.600000 1.000000
vt 0.800000 1.000000
vt 0.100000 1.000000
vt 0.400000 1.000000
vt 0.700000 1.000000
vt -0.000000 1.000000
vt 0.300000 1.000000
vt 0.900000 1.000000
vt 0.400000 1.000000
vt 0.400000 1.000000
vt 0.900000 1.000000
vt 0.800000 1.000000
vt 0.200000 1.000000
vt 0.100000 1.000000
vt 0.700000 1.000000
vt -0.000000 1.000000
vt 0.300000 1.000000
vt 1.000000 1.000000
vt 0.500000 1.000000
vt 0.400000 1.000000
vt 0.700000 1.000000
vt 0.100000 1.000000
vt -0.000000 1.000000
vt 0.300000 1.000000
vt 0.600000 1.000000
vt 1.000000 1.000000
vt 0.900000 1.000000
vt 0.200000 1.000000
vt 0.500000 1.000000
vt 0.800000 1.000000
vt 0.800000 1.000000
vt 0.700000 1.000000
vt 0.700000 1.000000
vt -0.000000 1.000000
vt 0.300000 1.000000
vt 0.600000 1.000000
vt 0.900000 1.000000
vt 0.200000 1.000000
vt 0.100000 1.000000
vt 0.021746 0.324164
vt 0.108932 0.055836
vt 0.391068 0.055836
vt 0.100000 1.000000
vt -0.000000 1.000000
vt 0.400000 1.000000
vt 0.300000 1.000000
vt 0.600000 1.000000
vt 1.000000 1.000000
vt 0.900000 1.000000
vt 0.200000 1.000000
vt 0.500000 1.000000
vt 0.800000 1.000000
vt -0.000000 0.500000
vt 0.750000 0.490000
vt 0.978254 0.175836
vt 0.891068 0.444164
vt 0.978254 0.324164
vt 0.891068 0.055836
vt 0.608932 0.055836
vt 0.521746 0.324164
vt 1.000000 1.000000
vt 1.000000 1.000000
vt 0.478254 0.324164
vt 0.391068 0.444164
vt 0.250000 0.490000
vt 0.108932 0.444164
vt 0.021746 0.175836
vt 0.250000 0.010000
vt 0.478254 0.175836
vt 1.000000 1.000000
vn 0.0090 0.0350 -0.9993
vn 0.5854 0.0174 -0.8106
vn -0.0035 0.0070 -1.0000
vn 0.5924 0.0618 -0.8033
vn 0.9504 0.0239 -0.3100
vn 0.9490 0.0778 -0.3055
vn 0.9504 0.0239 0.3100
vn 0.9490 0.0778 0.3055
vn 0.5854 0.0174 0.8106
vn 0.5924 0.0618 0.8033
vn -0.0035 0.0070 1.0000
vn 0.0090 0.0350 0.9993
vn -0.5900 -0.0033 0.8074
vn -0.5817 0.0071 0.8134
vn -0.9513 -0.0095 0.3080
vn -0.9501 -0.0106 0.3118
vn -0.9513 -0.0095 -0.3080
vn -0.9501 -0.0106 -0.3118
vn -0.5914 0.0329 -0.8057
vn -0.5817 0.0071 -0.8134
vn -0.5900 -0.0033 -0.8074
vn 0.5917 0.0445 -0.8049
vn 0.9486 0.0210 -0.3157
vn 0.5858 0.0289 -0.8099
vn -0.5876 0.0238 -0.8088
vn -0.9521 0.0053 -0.3058
vn -0.9493 -0.0093 0.3142
vn -0.5832 -0.0145 0.8122
vn 0.0035 -0.0085 1.0000
vn 0.5878 0.0062 0.8090
vn 0.9497 0.0241 0.3122
vn 0.0034 0.0388 -0.9992
vn 0.9520 0.0388 -0.3035
vn -0.5889 0.0466 0.8069
vn -0.0070 0.0871 0.9962
vn 0.0037 0.0351 0.9994
vn -0.9466 0.0559 -0.3175
vn 0.9538 0.0193 0.3000
vn -0.5805 0.0502 -0.8127
vn 0.5942 0.0246 0.8040
vn 0.0036 0.0399 -0.9992
vn -0.9518 0.0546 0.3017
vn 0.0000 -1.0000 0.0000
vn 0.9528 -0.0022 -0.3037
vn -0.0072 0.0040 -1.0000
vn -0.5959 0.0338 -0.8023
vn -0.9453 0.0930 0.3128
vn -0.5856 0.1002 0.8044
vn 0.9477 0.0239 0.3184
vn 0.5869 -0.0099 -0.8096
vn -0.9518 0.0678 -0.2990
vn 0.5783 0.0581 0.8137
vn -0.0094 0.0174 0.9998
vn 0.5828 0.0072 0.8126
vn -0.0041 0.0152 0.9999
vn -0.9506 0.0046 -0.3105
vn -0.5961 -0.0056 0.8029
vn -0.9532 -0.0101 0.3020
vn 0.5830 0.0504 0.8109
vn 0.9484 0.0803 0.3067
vn 0.5770 0.0887 -0.8119
vn 0.9445 0.0949 -0.3146
vn -0.0095 0.0649 -0.9978
vn 0.5868 0.0461 -0.8084
vn -0.0076 0.0465 -0.9989
vn 0.5825 -0.0030 -0.8129
vn 0.9517 0.0262 -0.3058
vn -0.5912 0.0707 -0.8034
vn -0.5879 0.0319 0.8083
vn 0.9492 0.0113 0.3145
vn -0.0041 0.0632 -0.9980
vn -0.9488 0.0511 0.3118
vn -0.9508 0.0660 -0.3028
vn -0.9441 0.1261 0.3046
vn -0.9439 0.3299 0.0133
vn -0.9444 0.1252 -0.3041
vn -0.0081 0.0580 0.9983
vn 0.9495 -0.0350 -0.3117
vn -0.5901 0.0951 -0.8017
vn -0.5873 0.1011 0.8031
vn 0.9486 -0.0290 0.3151
vn 0.5825 0.0077 0.8128
vn 0.3060 0.0239 0.9517
vn 0.7807 -0.1621 0.6035
vn 0.3740 0.1692 0.9119
vn 0.7930 -0.1357 0.5939
vn 0.7807 -0.1897 -0.5954
vn -0.7898 0.2376 -0.5655
vn -0.2756 0.2005 0.9401
vn 0.9769 -0.2137 0.0042
vn -0.3249 0.0804 -0.9423
vn -0.7492 0.3191 0.5804
vn 0.2810 -0.0820 -0.9562
vn -0.1350 0.4880 0.8624
vn -0.1487 0.4443 0.8834
vn 0.1728 -0.3701 -0.9128
vn 0.6660 -0.5155 -0.5391
vn -0.8429 0.5381 -0.0033
vn -0.7676 0.2994 -0.5667
vn 0.9005 -0.4322 0.0477
vn -0.3803 -0.0544 -0.9232
vn -0.6047 0.5841 0.5414
vn 0.5480 -0.1917 0.8142
vn 0.1942 0.2766 0.9411
vn 0.8128 -0.5824 0.0076
vn -0.7024 0.3467 -0.6216
vn -0.3418 -0.0334 -0.9392
vn -0.5673 0.6714 0.4768
vn 0.7483 -0.3182 0.5820
vn 0.1504 -0.3884 -0.9091
vn -0.7838 0.6158 -0.0797
vn 0.3758 0.1092 0.9202
vn 0.5825 -0.5967 -0.5519
vn 0.2887 -0.5880 -0.7556
vn 0.4997 -0.8424 -0.2016
vn 0.6272 -0.7385 -0.2473
vn -0.5360 0.2811 -0.7961
vn -0.2201 0.6457 0.7312
vn 0.7245 -0.5863 0.3624
vn -0.1516 -0.1991 -0.9682
vn -0.5577 0.7864 0.2655
vn -0.6895 0.6537 -0.3120
vn 0.7328 0.5054 -0.4557
vn -0.6470 0.6640 -0.3747
vn -0.5855 0.2057 -0.7842
vn 0.3386 0.3577 0.8703
vn -0.0759 0.7580 0.6478
vn 0.6943 -0.6314 0.3453
vn -0.2913 -0.3251 -0.8997
vn -0.4524 0.8751 0.1722
vn 0.6328 -0.1730 0.7548
vn 0.1232 -0.7254 -0.6772
vn 0.7327 0.5054 -0.4557
vn 0.7327 0.5053 -0.4557
vn 0.7328 0.5053 -0.4557
s 1
f 2/1/1 3/2/2 1/3/3
f 4/4/4 5/5/5 3/2/2
f 6/6/6 7/7/7 5/5/5
f 8/8/8 9/9/9 7/7/7
f 10/10/10 11/11/11 9/9/9
f 12/12/12 13/13/13 11/11/11
f 14/14/14 15/15/15 13/13/13
f 16/16/16 17/17/17 15/15/15
f 18/18/18 60/19/19 20/20/20
f 18/18/18 19/21/21 17/17/17
f 20/20/20 1/22/3 19/21/21
f 5/5/5 22/23/22 3/2/2
f 22/23/22 33/24/23 32/25/24
f 1/22/3 30/26/25 19/21/21
f 19/21/21 29/27/26 17/17/17
f 17/17/17 28/28/27 15/15/15
f 13/13/13 28/28/27 27/29/28
f 11/11/11 27/29/28 26/30/29
f 9/9/9 26/30/29 25/31/30
f 7/7/7 25/31/30 24/32/31
f 3/2/2 21/33/32 1/3/3
f 7/7/7 23/34/33 5/5/5
f 37/35/34 46/36/35 36/37/36
f 30/26/25 39/38/37 29/27/26
f 27/29/28 36/37/36 26/30/29
f 23/34/33 34/39/38 33/24/23
f 21/40/32 40/41/39 30/26/25
f 28/28/27 37/35/34 27/29/28
f 24/32/31 35/42/40 34/39/38
f 21/33/32 32/25/24 31/43/41
f 29/27/26 38/44/42 28/28/27
f 25/31/30 36/37/36 35/42/40
f 46/45/43 48/46/43 50/47/43
f 34/39/38 43/48/44 33/24/23
f 40/41/39 41/49/45 50/50/46
f 37/35/34 48/51/47 47/52/48
f 35/42/40 44/53/49 34/39/38
f 31/43/41 42/54/50 41/55/45
f 38/44/42 49/56/51 48/51/47
f 36/37/36 45/57/52 35/42/40
f 33/24/23 42/54/50 32/25/24
f 39/38/37 50/50/46 49/56/51
f 56/58/53 65/59/54 66/60/55
f 16/16/16 59/61/56 18/18/18
f 16/16/16 57/62/57 58/63/58
f 14/14/14 56/58/53 57/62/57
f 12/12/12 55/64/59 56/58/53
f 10/10/10 54/65/60 55/64/59
f 2/1/1 51/66/61 4/4/4
f 6/6/6 54/65/60 8/8/8
f 4/4/4 53/67/62 6/6/6
f 20/20/20 52/68/63 2/69/1
f 61/70/64 72/71/65 71/72/66
f 53/67/62 61/70/64 63/73/67
f 59/61/56 70/74/68 60/19/19
f 56/58/53 67/75/69 57/62/57
f 54/65/60 63/73/67 64/76/70
f 60/19/19 62/77/71 52/68/63
f 57/62/57 68/78/72 58/63/58
f 55/64/59 64/76/70 65/59/54
f 51/66/61 62/79/71 61/70/64
f 58/63/58 69/80/73 59/61/56
f 78/81/74 89/82/75 79/83/76
f 68/78/72 79/83/76 69/80/73
f 65/59/54 76/84/77 66/60/55
f 63/73/67 71/72/66 73/85/78
f 70/74/68 79/83/76 80/86/79
f 66/60/55 77/87/80 67/75/69
f 63/73/67 74/88/81 64/76/70
f 62/77/71 80/86/79 72/89/65
f 67/75/69 78/81/74 68/78/72
f 64/76/70 75/90/82 65/59/54
f 86/91/83 95/92/84 96/93/85
f 76/84/77 85/94/86 86/91/83
f 71/72/66 83/95/87 73/85/78
f 79/83/76 90/96/88 80/86/79
f 77/87/80 86/91/83 87/97/89
f 73/85/78 84/98/90 74/88/81
f 80/86/79 82/99/91 72/89/65
f 77/87/80 88/100/92 78/81/74
f 75/90/82 84/98/90 85/94/86
f 72/71/65 81/101/93 71/72/66
f 96/93/85 107/102/94 97/103/95
f 83/95/87 91/104/96 93/105/97
f 90/96/88 99/106/98 100/107/99
f 87/97/89 96/93/85 97/103/95
f 83/95/87 94/108/100 84/98/90
f 82/99/91 100/107/99 92/109/101
f 87/97/89 98/110/102 88/100/92
f 85/94/86 94/108/100 95/92/84
f 82/111/91 91/104/96 81/101/93
f 88/100/92 99/106/98 89/82/75
f 107/102/94 116/112/103 117/113/104
f 93/105/97 104/114/105 94/108/100
f 92/109/101 110/115/106 102/116/107
f 98/110/102 107/102/94 108/117/108
f 94/108/100 105/118/109 95/92/84
f 91/104/96 102/119/107 101/120/110
f 99/106/98 108/117/108 109/121/111
f 95/92/84 106/122/112 96/93/85
f 91/104/96 103/123/113 93/105/97
f 100/107/99 109/121/111 110/115/106
f 113/124/114 124/125/115 114/126/116
f 104/114/105 113/124/114 114/126/116
f 110/115/106 112/127/117 102/116/107
f 107/102/94 118/128/118 108/117/108
f 105/118/109 114/126/116 115/129/119
f 102/119/107 111/130/120 101/120/110
f 108/117/108 119/131/121 109/121/111
f 106/122/112 115/129/119 116/112/103
f 103/123/113 111/130/120 113/124/114
f 109/121/111 120/132/122 110/115/106
f 129/133/123 127/134/123 125/135/123
f 112/127/117 130/136/124 122/137/125
f 118/128/118 127/138/126 128/139/127
f 115/129/119 124/125/115 125/140/128
f 112/141/117 121/142/129 111/130/120
f 118/128/118 129/143/130 119/131/121
f 116/112/103 125/140/128 126/144/131
f 111/130/120 123/145/132 113/124/114
f 119/131/121 130/136/124 120/132/122
f 116/112/103 127/138/126 117/113/104
f 2/1/1 4/4/4 3/2/2
f 4/4/4 6/6/6 5/5/5
f 6/6/6 8/8/8 7/7/7
f 8/8/8 10/10/10 9/9/9
f 10/10/10 12/12/12 11/11/11
f 12/12/12 14/14/14 13/13/13
f 14/14/14 16/16/16 15/15/15
f 16/16/16 18/18/18 17/17/17
f 18/18/18 59/61/56 60/19/19
f 18/18/18 20/20/20 19/21/21
f 20/20/20 2/69/1 1/22/3
f 5/5/5 23/34/33 22/23/22
f 22/23/22 23/34/33 33/24/23
f 1/22/3 21/40/32 30/26/25
f 19/21/21 30/26/25 29/27/26
f 17/17/17 29/27/26 28/28/27
f 13/13/13 15/15/15 28/28/27
f 11/11/11 13/13/13 27/29/28
f 9/9/9 11/11/11 26/30/29
f 7/7/7 9/9/9 25/31/30
f 3/2/2 22/23/22 21/33/32
f 7/7/7 24/32/31 23/34/33
f 37/35/34 47/52/48 46/36/35
f 30/26/25 40/41/39 39/38/37
f 27/29/28 37/35/34 36/37/36
f 23/34/33 24/32/31 34/39/38
f 21/40/32 31/146/41 40/41/39
f 28/28/27 38/44/42 37/35/34
f 24/32/31 25/31/30 35/42/40
f 21/33/32 22/23/22 32/25/24
f 29/27/26 39/38/37 38/44/42
f 25/31/30 26/30/29 36/37/36
f 50/47/43 41/147/43 44/148/43
f 41/147/43 42/149/43 44/148/43
f 42/149/43 43/150/43 44/148/43
f 44/148/43 45/151/43 46/45/43
f 46/45/43 47/152/43 48/46/43
f 48/46/43 49/153/43 50/47/43
f 44/148/43 46/45/43 50/47/43
f 34/39/38 44/53/49 43/48/44
f 40/41/39 31/146/41 41/49/45
f 37/35/34 38/44/42 48/51/47
f 35/42/40 45/57/52 44/53/49
f 31/43/41 32/25/24 42/54/50
f 38/44/42 39/38/37 49/56/51
f 36/37/36 46/36/35 45/57/52
f 33/24/23 43/48/44 42/54/50
f 39/38/37 40/41/39 50/50/46
f 56/58/53 55/64/59 65/59/54
f 16/16/16 58/63/58 59/61/56
f 16/16/16 14/14/14 57/62/57
f 14/14/14 12/12/12 56/58/53
f 12/12/12 10/10/10 55/64/59
f 10/10/10 8/8/8 54/65/60
f 2/1/1 52/154/63 51/66/61
f 6/6/6 53/67/62 54/65/60
f 4/4/4 51/66/61 53/67/62
f 20/20/20 60/19/19 52/68/63
f 61/70/64 62/79/71 72/71/65
f 53/67/62 51/66/61 61/70/64
f 59/61/56 69/80/73 70/74/68
f 56/58/53 66/60/55 67/75/69
f 54/65/60 53/67/62 63/73/67
f 60/19/19 70/74/68 62/77/71
f 57/62/57 67/75/69 68/78/72
f 55/64/59 54/65/60 64/76/70
f 51/66/61 52/154/63 62/79/71
f 58/63/58 68/78/72 69/80/73
f 78/81/74 88/100/92 89/82/75
f 68/78/72 78/81/74 79/83/76
f 65/59/54 75/90/82 76/84/77
f 63/73/67 61/70/64 71/72/66
f 70/74/68 69/80/73 79/83/76
f 66/60/55 76/84/77 77/87/80
f 63/73/67 73/85/78 74/88/81
f 62/77/71 70/74/68 80/86/79
f 67/75/69 77/87/80 78/81/74
f 64/76/70 74/88/81 75/90/82
f 86/91/83 85/94/86 95/92/84
f 76/84/77 75/90/82 85/94/86
f 71/72/66 81/101/93 83/95/87
f 79/83/76 89/82/75 90/96/88
f 77/87/80 76/84/77 86/91/83
f 73/85/78 83/95/87 84/98/90
f 80/86/79 90/96/88 82/99/91
f 77/87/80 87/97/89 88/100/92
f 75/90/82 74/88/81 84/98/90
f 72/71/65 82/111/91 81/101/93
f 96/93/85 106/122/112 107/102/94
f 83/95/87 81/101/93 91/104/96
f 90/96/88 89/82/75 99/106/98
f 87/97/89 86/91/83 96/93/85
f 83/95/87 93/105/97 94/108/100
f 82/99/91 90/96/88 100/107/99
f 87/97/89 97/103/95 98/110/102
f 85/94/86 84/98/90 94/108/100
f 82/111/91 92/155/101 91/104/96
f 88/100/92 98/110/102 99/106/98
f 107/102/94 106/122/112 116/112/103
f 93/105/97 103/123/113 104/114/105
f 92/109/101 100/107/99 110/115/106
f 98/110/102 97/103/95 107/102/94
f 94/108/100 104/114/105 105/118/109
f 91/104/96 92/155/101 102/119/107
f 99/106/98 98/110/102 108/117/108
f 95/92/84 105/118/109 106/122/112
f 91/104/96 101/120/110 103/123/113
f 100/107/99 99/106/98 109/121/111
f 113/124/114 123/145/132 124/125/115
f 104/114/105 103/123/113 113/124/114
f 110/115/106 120/132/122 112/127/117
f 107/102/94 117/113/104 118/128/118
f 105/118/109 104/114/105 114/126/116
f 102/119/107 112/141/117 111/130/120
f 108/117/108 118/128/118 119/131/121
f 106/122/112 105/118/109 115/129/119
f 103/123/113 101/120/110 111/130/120
f 109/121/111 119/131/121 120/132/122
f 123/156/133 121/157/133 129/133/123
f 121/157/133 122/158/123 129/133/123
f 122/158/123 130/159/133 129/133/123
f 129/133/123 128/160/134 127/134/123
f 127/134/123 126/161/135 125/135/123
f 125/135/123 124/162/123 129/133/123
f 124/162/123 123/156/133 129/133/123
f 112/127/117 120/132/122 130/136/124
f 118/128/118 117/113/104 127/138/126
f 115/129/119 114/126/116 124/125/115
f 112/141/117 122/163/125 121/142/129
f 118/128/118 128/139/127 129/143/130
f 116/112/103 115/129/119 125/140/128
f 111/130/120 121/142/129 123/145/132
f 119/131/121 129/143/130 130/136/124
f 116/112/103 126/144/131 127/138/126
