# Blender v3.4.1 OBJ File: 'environment.blend'
# www.blender.org
o Lower_Lake_Plane
v 0.892140 0.000000 -1.149304
v -1.045450 0.000000 -1.149304
v 0.457117 0.000000 -1.693251
v -0.457117 0.000000 -1.693251
v 0.962368 0.000000 -0.716001
v -1.115678 0.000000 -0.716001
v 0.813815 0.000000 -0.158213
v -0.967124 0.000000 -0.158213
v 0.195956 0.000000 0.577973
v -0.992501 0.000000 0.289110
v -0.349147 -0.065388 0.604013
v -0.744492 -0.065388 0.507922
v -0.439561 -0.134979 0.635916
v -0.755708 -0.134979 0.559074
v -0.491847 -0.361311 0.699666
v -0.772202 -0.361311 0.631524
v -0.507902 -0.926017 0.710648
v -0.756147 -0.926017 0.650310
v -0.452464 -1.294040 0.777711
v -0.811585 -1.294040 0.690425
v -0.527309 -1.294040 0.976402
v -0.989119 -1.294040 0.864156
v -0.260050 -1.294040 1.321935
v -1.498309 -1.294040 1.020968
v -0.343070 -1.294040 1.971178
v -1.829098 -1.294040 1.609989
v -0.795876 -1.294040 2.848381
v -2.040874 -1.294040 2.067292
v -1.445577 -1.294040 3.234900
v -2.033043 -1.294040 2.531543
v -2.108876 -1.294040 3.472139
v -2.323969 -1.294040 2.955360
v -2.694624 -1.294040 3.472479
v -2.776472 -1.294040 3.250910
v -2.771699 -1.336918 3.490974
v -2.847061 -1.336918 3.286963
v -2.796014 -1.460076 3.516500
v -2.882131 -1.460076 3.283375
v -2.851152 -2.016933 3.516095
v -2.923765 -2.016933 3.319528
vt 0.057129 0.959820
vt 0.139221 0.999947
vt 0.247655 0.948691
vt 0.286939 0.851192
vt 0.270976 0.795862
vt 0.024507 0.912365
vt 0.222085 0.738034
vt 0.200017 0.683556
vt 0.042864 0.715924
vt 0.157982 0.669799
vt 0.105705 0.680566
vt 0.155525 0.658640
vt 0.113720 0.667251
vt 0.149082 0.628060
vt 0.112010 0.635695
vt 0.131558 0.556006
vt 0.098732 0.562768
vt 0.127425 0.507072
vt 0.138742 0.476514
vt 0.077676 0.489092
vt 0.190344 0.429368
vt 0.026606 0.463093
vt 0.196555 0.340961
vt 0.000054 0.381434
vt 0.196035 0.274850
vt 0.004580 0.252007
vt 0.169079 0.220226
vt 0.059969 0.169739
vt 0.179824 0.153648
vt 0.216924 0.093225
vt 0.194794 0.071535
vt 0.224278 0.083969
vt 0.203902 0.063997
vt 0.237409 0.073481
vt 0.286939 0.019297
vt 0.267307 0.000053
vt 0.010855 0.837879
vt 0.079938 0.516853
vt 0.125340 0.104414
vt 0.214125 0.050658
vn 0.0000 1.0000 0.0000
vn -0.0214 0.9959 0.0880
vn -0.0123 0.9986 0.0507
vn -0.1324 0.8280 0.5449
vn -0.1168 0.8691 0.4807
vn -0.2093 0.4636 0.8610
vn -0.2049 0.4974 0.8430
vn -0.2326 0.1724 0.9572
vn -0.2324 0.1782 0.9562
vn -0.2353 0.0844 0.9682
vn -0.2353 0.0858 0.9681
vn -0.2339 0.1401 0.9621
vn -0.2081 0.9751 0.0769
vn -0.2002 0.9770 0.0740
vn -0.7413 0.6127 0.2738
vn -0.9246 0.1688 0.3415
vn -0.9340 0.0922 0.3450
s 1
f 1/1/1 3/2/1 4/3/1
f 1/1/1 2/4/1 6/5/1
f 5/6/1 6/5/1 8/7/1
f 8/7/1 10/8/2 9/9/3
f 10/8/2 12/10/4 11/11/5
f 12/10/4 14/12/6 13/13/7
f 14/12/6 16/14/8 15/15/9
f 15/15/9 16/14/8 18/16/10
f 17/17/11 18/16/10 20/18/12
f 20/18/1 22/19/1 21/20/1
f 22/19/1 24/21/1 23/22/1
f 24/21/1 26/23/1 25/24/1
f 26/23/1 28/25/1 27/26/1
f 27/26/1 28/25/1 30/27/1
f 29/28/1 30/27/1 32/29/1
f 32/29/1 34/30/13 33/31/14
f 33/31/14 34/30/13 36/32/15
f 35/33/15 36/32/15 38/34/16
f 38/34/16 40/35/17 39/36/17
f 1/1/1 4/3/1 2/4/1
f 1/1/1 6/5/1 5/6/1
f 5/6/1 8/7/1 7/37/1
f 8/7/1 9/9/3 7/37/1
f 10/8/2 11/11/5 9/9/3
f 12/10/4 13/13/7 11/11/5
f 14/12/6 15/15/9 13/13/7
f 15/15/9 18/16/10 17/17/11
f 17/17/11 20/18/12 19/38/12
f 20/18/1 21/20/1 19/38/1
f 22/19/1 23/22/1 21/20/1
f 24/21/1 25/24/1 23/22/1
f 26/23/1 27/26/1 25/24/1
f 27/26/1 30/27/1 29/28/1
f 29/28/1 32/29/1 31/39/1
f 32/29/1 33/31/14 31/39/1
f 33/31/14 36/32/15 35/33/15
f 35/33/15 38/34/16 37/40/16
f 38/34/16 39/36/17 37/40/16
