# Blender v3.4.1 OBJ File: 'flags.blend'
# www.blender.org
o Moon_Cylinder.002
v 0.000000 1.000000 -0.176788
v 0.000000 1.000000 0.176789
v 0.248690 0.968583 -0.176788
v 0.248690 0.968583 0.176789
v 0.481754 0.876307 -0.176788
v 0.481754 0.876307 0.176789
v 0.684547 0.728969 -0.176788
v 0.684547 0.728969 0.176789
v 0.844328 0.535827 -0.176788
v 0.844328 0.535827 0.176789
v 0.951056 0.309017 -0.176788
v 0.951056 0.309017 0.176788
v 0.998027 0.062791 -0.176788
v 0.998027 0.062791 0.176788
v 0.982287 -0.187381 -0.176788
v 0.982287 -0.187381 0.176788
v 0.904827 -0.425779 -0.176788
v 0.904827 -0.425779 0.176788
v 0.770513 -0.637424 -0.176789
v 0.770513 -0.637424 0.176788
v 0.587785 -0.809017 -0.176789
v 0.587785 -0.809017 0.176788
v 0.368125 -0.929776 -0.176789
v 0.368125 -0.929776 0.176788
v 0.125333 -0.992115 -0.176789
v 0.125333 -0.992115 0.176788
v -0.125333 -0.992115 -0.176789
v -0.125333 -0.992115 0.176788
v -0.368125 -0.929776 -0.176789
v -0.368125 -0.929776 0.176788
v -0.587785 -0.809017 -0.176789
v -0.587785 -0.809017 0.176788
v -0.481754 0.876307 -0.176788
v -0.481754 0.876307 0.176789
v -0.248690 0.968583 -0.176788
v -0.248690 0.968583 0.176789
v -0.653533 -0.747275 0.176788
v -0.653533 -0.747275 -0.176789
v -0.668148 0.740884 0.176789
v -0.668148 0.740884 -0.176788
v -0.602876 0.766726 0.176789
v -0.406014 0.791596 0.176789
v -0.505227 -0.785354 0.176788
v -0.209152 0.766726 0.176789
v -0.306801 -0.785354 0.176788
v 0.059274 -0.640415 0.176788
v -0.114608 -0.736007 0.176788
v -0.024660 0.693681 0.176789
v 0.203921 -0.504582 0.176788
v 0.135871 0.577049 0.176789
v 0.262353 0.424158 0.176788
v 0.384020 0.049705 0.176788
v 0.371561 -0.148330 0.176788
v 0.346838 0.244617 0.176788
v 0.310243 -0.337045 0.176788
v -0.602876 0.766726 -0.176788
v -0.505227 -0.785354 -0.176789
v -0.406014 0.791596 -0.176788
v -0.306801 -0.785354 -0.176789
v -0.114608 -0.736007 -0.176789
v 0.059274 -0.640415 -0.176789
v -0.024660 0.693681 -0.176788
v -0.209152 0.766726 -0.176788
v 0.262353 0.424158 -0.176788
v 0.135871 0.577049 -0.176788
v 0.346838 0.244617 -0.176788
v 0.384020 0.049705 -0.176788
v 0.371561 -0.148330 -0.176788
v 0.310243 -0.337045 -0.176788
v 0.203921 -0.504582 -0.176788
vt 1.000000 1.000000
vt 0.960000 0.500000
vt 1.000000 0.500000
vt 0.960000 1.000000
vt 0.920000 0.500000
vt 0.920000 1.000000
vt 0.880000 0.500000
vt 0.880000 1.000000
vt 0.840000 0.500000
vt 0.840000 1.000000
vt 0.800000 0.500000
vt 0.800000 1.000000
vt 0.760000 0.500000
vt 0.760000 1.000000
vt 0.720000 0.500000
vt 0.720000 1.000000
vt 0.680000 0.500000
vt 0.680000 1.000000
vt 0.640000 0.500000
vt 0.640000 1.000000
vt 0.600000 0.500000
vt 0.600000 1.000000
vt 0.560000 0.500000
vt 0.560000 1.000000
vt 0.520000 0.500000
vt 0.520000 1.000000
vt 0.480000 0.500000
vt 0.480000 1.000000
vt 0.440000 0.500000
vt 0.440000 1.000000
vt 0.400000 0.500000
vt 0.385607 1.000000
vt 0.385607 0.500000
vt 0.080000 1.000000
vt 0.116765 0.500000
vt 0.116765 1.000000
vt 0.342165 0.261929
vt 0.478254 0.324164
vt 0.333241 0.308708
vt 0.040000 0.500000
vt 0.080000 0.500000
vt 0.040000 1.000000
vt -0.000000 0.500000
vt 0.891068 0.055836
vt 0.798941 0.128900
vt 0.824458 0.169109
vt 0.960000 0.933230
vt 1.000000 0.566770
vt 0.960000 0.566770
vt 0.920000 0.933230
vt 0.920000 0.566770
vt 0.880000 0.933230
vt 0.880000 0.566770
vt 0.840000 0.566770
vt 0.840000 0.933230
vt 0.800000 0.566770
vt 0.800000 0.933230
vt 0.760000 0.566770
vt 0.760000 0.933230
vt 0.720000 0.566770
vt 0.720000 0.933230
vt 0.680000 0.566770
vt 0.680000 0.933230
vt 0.640000 0.566770
vt 0.640000 0.933230
vt 0.600000 0.566770
vt 0.600000 0.933230
vt 0.560000 0.566770
vt 0.560000 0.933230
vt 0.520000 0.566770
vt 0.520000 0.933230
vt 0.480000 0.566770
vt 0.480000 0.933230
vt 0.449134 0.566770
vt 0.449134 0.933230
vt 0.054151 0.566770
vt 0.040000 0.933230
vt 0.054151 0.933230
vt -0.000000 0.933230
vt 0.040000 0.566770
vt -0.000000 0.566770
vt 0.400000 1.000000
vt 0.128745 0.061515
vt 0.093152 0.070654
vt 0.108932 0.055836
vt 0.161650 0.026854
vt 0.219920 0.011892
vt 0.176368 0.061515
vt 0.280080 0.011892
vt 0.222494 0.073358
vt 0.338350 0.026854
vt 0.264226 0.096301
vt 0.391068 0.055836
vt 0.298941 0.128900
vt 0.434923 0.097018
vt 0.324458 0.169109
vt 0.467158 0.147813
vt 0.485749 0.205028
vt 0.339175 0.214401
vt 0.489526 0.265070
vt 0.452639 0.378598
vt 0.414291 0.424952
vt 0.312965 0.351798
vt 0.365621 0.460314
vt 0.309686 0.482460
vt 0.282609 0.388492
vt 0.250000 0.490000
vt 0.244082 0.416483
vt 0.190314 0.482460
vt 0.199803 0.434014
vt 0.134379 0.460314
vt 0.152557 0.439983
vt 0.089645 0.427812
vt 0.105310 0.434014
vt -0.000000 1.000000
vt 0.605310 0.434014
vt 0.589645 0.427812
vt 0.634379 0.460314
vt 0.690314 0.482460
vt 0.652557 0.439983
vt 0.750000 0.490000
vt 0.699803 0.434014
vt 0.809686 0.482460
vt 0.744082 0.416483
vt 0.865621 0.460314
vt 0.782609 0.388492
vt 0.914291 0.424952
vt 0.812965 0.351798
vt 0.952639 0.378598
vt 0.833241 0.308708
vt 0.978254 0.324164
vt 0.989526 0.265070
vt 0.842165 0.261929
vt 0.985749 0.205028
vt 0.967158 0.147813
vt 0.839175 0.214401
vt 0.934923 0.097018
vt 0.838350 0.026854
vt 0.780080 0.011892
vt 0.764226 0.096300
vt 0.719920 0.011892
vt 0.722494 0.073358
vt 0.661650 0.026854
vt 0.676368 0.061515
vt 0.608932 0.055836
vt 0.628745 0.061515
vt 0.593152 0.070654
vt 1.000000 0.933230
vn 0.0000 1.0000 0.0000
vn 0.2487 0.9686 0.0000
vn 0.4818 0.8763 0.0000
vn 0.6845 0.7290 0.0000
vn 0.8443 0.5358 0.0000
vn 0.9511 0.3090 0.0000
vn 0.9980 0.0628 -0.0000
vn 0.9823 -0.1874 -0.0000
vn 0.9048 -0.4258 0.0000
vn 0.7705 -0.6374 0.0000
vn 0.5878 -0.8090 0.0000
vn 0.3681 -0.9298 0.0000
vn 0.1253 -0.9921 0.0000
vn -0.1253 -0.9921 0.0000
vn -0.3681 -0.9298 0.0000
vn -0.5878 -0.8090 0.0000
vn -0.6845 -0.7290 0.0000
vn -0.4818 0.8763 0.0000
vn -0.5878 0.8090 0.0000
vn 0.0000 -0.0000 1.0000
vn -0.2487 0.9686 0.0000
vn 0.0000 0.0000 -1.0000
vn -0.2487 -0.9686 0.0000
vn -0.0000 -1.0000 0.0000
vn -0.4818 -0.8763 0.0000
vn -0.8443 -0.5358 0.0000
vn -0.9511 -0.3090 -0.0000
vn -0.9980 -0.0628 -0.0000
vn -0.9823 0.1874 0.0000
vn -0.9048 0.4258 0.0000
vn -0.7705 0.6374 0.0000
vn -0.3681 0.9298 0.0000
vn -0.1253 0.9921 0.0000
vn 0.1253 0.9921 0.0000
vn 0.2487 -0.9686 0.0000
s 1
f 2/1/1 3/2/2 1/3/1
f 4/4/2 5/5/3 3/2/2
f 6/6/3 7/7/4 5/5/3
f 8/8/4 9/9/5 7/7/4
f 10/10/5 11/11/6 9/9/5
f 12/12/6 13/13/7 11/11/6
f 14/14/7 15/15/8 13/13/7
f 16/16/8 17/17/9 15/15/8
f 18/18/9 19/19/10 17/17/9
f 20/20/10 21/21/11 19/19/10
f 22/22/11 23/23/12 21/21/11
f 24/24/12 25/25/13 23/23/12
f 26/26/13 27/27/14 25/25/13
f 28/28/14 29/29/15 27/27/14
f 30/30/15 31/31/16 29/29/15
f 31/31/16 37/32/17 38/33/17
f 34/34/18 40/35/19 39/36/19
f 52/37/20 12/38/20 54/39/20
f 34/34/18 35/40/21 33/41/18
f 36/42/21 1/43/1 35/40/21
f 21/44/22 70/45/22 69/46/22
f 44/47/23 58/48/24 63/49/23
f 48/50/25 63/49/23 62/51/25
f 50/52/17 62/51/25 65/53/17
f 50/52/17 64/54/26 51/55/26
f 51/55/26 66/56/27 54/57/27
f 54/57/27 67/58/28 52/59/28
f 52/59/28 68/60/29 53/61/29
f 53/61/29 69/62/30 55/63/30
f 55/63/30 70/64/31 49/65/31
f 49/65/31 61/66/19 46/67/19
f 46/67/19 60/68/32 47/69/32
f 47/69/32 59/70/33 45/71/33
f 45/71/33 57/72/34 43/73/34
f 43/73/34 38/74/2 37/75/2
f 40/76/12 41/77/35 39/78/12
f 42/79/24 56/80/35 58/81/24
f 2/1/1 4/4/2 3/2/2
f 4/4/2 6/6/3 5/5/3
f 6/6/3 8/8/4 7/7/4
f 8/8/4 10/10/5 9/9/5
f 10/10/5 12/12/6 11/11/6
f 12/12/6 14/14/7 13/13/7
f 14/14/7 16/16/8 15/15/8
f 16/16/8 18/18/9 17/17/9
f 18/18/9 20/20/10 19/19/10
f 20/20/10 22/22/11 21/21/11
f 22/22/11 24/24/12 23/23/12
f 24/24/12 26/26/13 25/25/13
f 26/26/13 28/28/14 27/27/14
f 28/28/14 30/30/15 29/29/15
f 30/30/15 32/82/16 31/31/16
f 31/31/16 32/82/16 37/32/17
f 34/34/18 33/41/18 40/35/19
f 43/83/20 37/84/20 32/85/20
f 32/85/20 30/86/20 43/83/20
f 30/86/20 28/87/20 45/88/20
f 28/87/20 26/89/20 47/90/20
f 26/89/20 24/91/20 46/92/20
f 47/90/20 26/89/20 46/92/20
f 24/91/20 22/93/20 49/94/20
f 22/93/20 20/95/20 55/96/20
f 20/95/20 18/97/20 55/96/20
f 18/97/20 16/98/20 53/99/20
f 55/96/20 18/97/20 53/99/20
f 16/98/20 14/100/20 52/37/20
f 14/100/20 12/38/20 52/37/20
f 16/98/20 52/37/20 53/99/20
f 12/38/20 10/101/20 54/39/20
f 10/101/20 8/102/20 51/103/20
f 54/39/20 10/101/20 51/103/20
f 8/102/20 6/104/20 51/103/20
f 6/104/20 4/105/20 50/106/20
f 4/105/20 2/107/20 48/108/20
f 2/107/20 36/109/20 44/110/20
f 36/109/20 34/111/20 42/112/20
f 34/111/20 39/113/20 41/114/20
f 34/111/20 41/114/20 42/112/20
f 6/104/20 50/106/20 51/103/20
f 2/107/20 44/110/20 48/108/20
f 22/93/20 55/96/20 49/94/20
f 30/86/20 45/88/20 43/83/20
f 45/88/20 28/87/20 47/90/20
f 36/109/20 42/112/20 44/110/20
f 4/105/20 48/108/20 50/106/20
f 49/94/20 46/92/20 24/91/20
f 34/34/18 36/42/21 35/40/21
f 36/42/21 2/115/1 1/43/1
f 56/116/22 40/117/22 33/118/22
f 33/118/22 35/119/22 58/120/22
f 35/119/22 1/121/22 63/122/22
f 1/121/22 3/123/22 62/124/22
f 3/123/22 5/125/22 65/126/22
f 62/124/22 3/123/22 65/126/22
f 5/125/22 7/127/22 64/128/22
f 7/127/22 9/129/22 64/128/22
f 64/128/22 9/129/22 66/130/22
f 9/129/22 11/131/22 66/130/22
f 11/131/22 13/132/22 67/133/22
f 13/132/22 15/134/22 67/133/22
f 15/134/22 17/135/22 68/136/22
f 17/135/22 19/137/22 69/46/22
f 19/137/22 21/44/22 69/46/22
f 17/135/22 69/46/22 68/136/22
f 21/44/22 23/138/22 70/45/22
f 23/138/22 25/139/22 61/140/22
f 25/139/22 27/141/22 60/142/22
f 27/141/22 29/143/22 59/144/22
f 29/143/22 31/145/22 57/146/22
f 31/145/22 38/147/22 57/146/22
f 23/138/22 61/140/22 70/45/22
f 27/141/22 59/144/22 60/142/22
f 15/134/22 68/136/22 67/133/22
f 11/131/22 67/133/22 66/130/22
f 35/119/22 63/122/22 58/120/22
f 63/122/22 1/121/22 62/124/22
f 58/120/22 56/116/22 33/118/22
f 29/143/22 57/146/22 59/144/22
f 25/139/22 60/142/22 61/140/22
f 64/128/22 65/126/22 5/125/22
f 44/47/23 42/148/24 58/48/24
f 48/50/25 44/47/23 63/49/23
f 50/52/17 48/50/25 62/51/25
f 50/52/17 65/53/17 64/54/26
f 51/55/26 64/54/26 66/56/27
f 54/57/27 66/56/27 67/58/28
f 52/59/28 67/58/28 68/60/29
f 53/61/29 68/60/29 69/62/30
f 55/63/30 69/62/30 70/64/31
f 49/65/31 70/64/31 61/66/19
f 46/67/19 61/66/19 60/68/32
f 47/69/32 60/68/32 59/70/33
f 45/71/33 59/70/33 57/72/34
f 43/73/34 57/72/34 38/74/2
f 40/76/12 56/80/35 41/77/35
f 42/79/24 41/77/35 56/80/35
