# Blender v3.4.1 OBJ File: 'buildings.blend'
# www.blender.org
o Don_Cesar_Trim_Cube.029
v -0.106357 0.909074 0.859849
v -0.106357 1.176826 0.859849
v -0.106357 0.909074 0.836728
v -0.106357 1.176826 0.836728
v -0.068639 0.909074 0.859849
v -0.068639 1.176826 0.859849
v -0.068639 0.909074 0.836728
v -0.068639 1.176826 0.836728
v -0.802488 1.137803 0.413274
v -0.802488 1.172530 0.413274
v -0.802488 1.137803 -0.500328
v -0.802488 1.172530 -0.500328
v -0.782216 1.137803 0.413274
v -0.782216 1.172530 0.413274
v -0.782216 1.137803 -0.500328
v -0.782216 1.172530 -0.500328
v -0.354510 1.137803 0.419421
v -0.354510 1.172530 0.419421
v -0.802659 1.137803 0.419421
v -0.802659 1.172530 0.419421
v -0.354510 1.137803 0.399149
v -0.354510 1.172530 0.399149
v -0.802659 1.137803 0.399149
v -0.802659 1.172530 0.399149
v -0.245026 1.137803 0.536540
v -0.245026 1.172530 0.536540
v -0.245026 1.172530 0.514824
v -0.245026 1.137803 0.514824
v -0.368543 1.137803 0.412620
v -0.368543 1.172530 0.412620
v -0.259059 1.137803 0.529739
v -0.259059 1.172530 0.529739
v -0.265236 1.137803 0.795233
v -0.265236 1.172530 0.795233
v -0.265236 1.137803 0.514887
v -0.265236 1.172530 0.514887
v -0.244964 1.137803 0.795233
v -0.244964 1.172530 0.795233
v -0.244964 1.137803 0.514887
v -0.244964 1.172530 0.514887
v -0.081218 1.137803 0.804839
v -0.081218 1.172530 0.804839
v -0.265257 1.137803 0.804839
v -0.265257 1.172530 0.804839
v -0.081218 1.137803 0.784567
v -0.081218 1.172530 0.784567
v -0.265257 1.137803 0.784567
v -0.265257 1.172530 0.784567
v -0.101467 1.137803 0.852759
v -0.101467 1.172530 0.852759
v -0.101467 1.137803 0.797068
v -0.101467 1.172530 0.797068
v -0.081195 1.137803 0.852759
v -0.081195 1.172530 0.852759
v -0.081195 1.137803 0.797068
v -0.081195 1.172530 0.797068
v 0.037758 1.137803 -0.483089
v 0.037758 1.172530 -0.483089
v -0.802435 1.137803 -0.483089
v -0.802435 1.172530 -0.483089
v 0.037758 1.137803 -0.503361
v 0.037758 1.172530 -0.503361
v -0.802435 1.137803 -0.503361
v -0.802435 1.172530 -0.503361
v 0.105974 0.909073 0.859849
v 0.105974 1.176826 0.859849
v 0.105974 0.909073 0.836728
v 0.105974 1.176826 0.836728
v 0.070502 0.909073 0.859849
v 0.070502 1.176826 0.859849
v 0.070502 0.909073 0.836728
v 0.070502 1.176826 0.836728
v 0.802104 1.137803 0.413274
v 0.802104 1.172530 0.413274
v 0.802104 1.137803 -0.500328
v 0.802104 1.172530 -0.500328
v 0.781832 1.137803 0.413274
v 0.781832 1.172530 0.413274
v 0.781832 1.137803 -0.500328
v 0.781832 1.172530 -0.500328
v 0.354126 1.137803 0.419421
v 0.354126 1.172530 0.419421
v 0.802275 1.137803 0.419421
v 0.802275 1.172530 0.419421
v 0.354126 1.137803 0.399149
v 0.354126 1.172530 0.399149
v 0.802275 1.137803 0.399149
v 0.802275 1.172530 0.399149
v 0.244642 1.137803 0.536540
v 0.244642 1.172530 0.536540
v 0.244642 1.172530 0.514824
v 0.244642 1.137803 0.514824
v 0.368159 1.137803 0.412620
v 0.368159 1.172530 0.412620
v 0.258675 1.137803 0.529739
v 0.258675 1.172530 0.529739
v 0.264852 1.137803 0.795233
v 0.264852 1.172530 0.795233
v 0.264852 1.137803 0.514887
v 0.264852 1.172530 0.514887
v 0.244580 1.137803 0.795233
v 0.244580 1.172530 0.795233
v 0.244580 1.137803 0.514887
v 0.244580 1.172530 0.514887
v 0.080834 1.137803 0.804839
v 0.080834 1.172530 0.804839
v 0.264874 1.137803 0.804839
v 0.264874 1.172530 0.804839
v 0.080834 1.137803 0.784567
v 0.080834 1.172530 0.784567
v 0.264874 1.137803 0.784567
v 0.264874 1.172530 0.784567
v 0.101083 1.137803 0.852759
v 0.101083 1.172530 0.852759
v 0.101083 1.137803 0.797068
v 0.101083 1.172530 0.797068
v 0.080811 1.137803 0.852759
v 0.080811 1.172530 0.852759
v 0.080811 1.137803 0.797068
v 0.080811 1.172530 0.797068
v -0.038142 1.137803 -0.483089
v -0.038142 1.172530 -0.483089
v 0.802051 1.137803 -0.483089
v 0.802051 1.172530 -0.483089
v -0.038142 1.137803 -0.503361
v -0.038142 1.172530 -0.503361
v 0.802051 1.137803 -0.503361
v 0.802051 1.172530 -0.503361
vt 0.625000 0.000000
vt 0.375000 0.250000
vt 0.375000 0.000000
vt 0.625000 0.250000
vt 0.375000 0.500000
vt 0.625000 0.500000
vt 0.375000 0.750000
vt 0.625000 0.750000
vt 0.375000 1.000000
vt 0.125000 0.750000
vt 0.125000 0.500000
vt 0.875000 0.500000
vt 0.625000 0.000000
vt 0.375000 0.250000
vt 0.375000 0.000000
vt 0.625000 0.250000
vt 0.375000 0.500000
vt 0.625000 0.500000
vt 0.375000 0.750000
vt 0.625000 0.750000
vt 0.375000 1.000000
vt 0.125000 0.750000
vt 0.125000 0.500000
vt 0.875000 0.500000
vt 0.625000 0.000000
vt 0.375000 0.250000
vt 0.375000 0.000000
vt 0.625000 0.250000
vt 0.375000 0.500000
vt 0.625000 0.500000
vt 0.375000 0.750000
vt 0.875000 0.750000
vt 0.875000 0.750000
vt 0.875000 0.750000
vt 0.125000 0.750000
vt 0.125000 0.500000
vt 0.875000 0.500000
vt 0.625000 0.750000
vt 0.625000 0.750000
vt 0.375000 1.000000
vt 0.375000 0.750000
vt 0.125000 0.750000
vt 0.375000 0.000000
vt 0.625000 0.000000
vt 0.625000 0.000000
vt 0.125000 0.750000
vt 0.125000 0.750000
vt 0.625000 1.000000
vt 0.375000 1.000000
vt 0.625000 0.000000
vt 0.375000 0.250000
vt 0.375000 0.000000
vt 0.625000 0.250000
vt 0.375000 0.500000
vt 0.625000 0.500000
vt 0.375000 0.750000
vt 0.625000 0.750000
vt 0.375000 1.000000
vt 0.125000 0.750000
vt 0.125000 0.500000
vt 0.875000 0.500000
vt 0.625000 0.000000
vt 0.375000 0.250000
vt 0.375000 0.000000
vt 0.625000 0.250000
vt 0.375000 0.500000
vt 0.625000 0.500000
vt 0.375000 0.750000
vt 0.625000 0.750000
vt 0.375000 1.000000
vt 0.125000 0.750000
vt 0.125000 0.500000
vt 0.875000 0.500000
vt 0.625000 0.000000
vt 0.375000 0.250000
vt 0.375000 0.000000
vt 0.625000 0.250000
vt 0.375000 0.500000
vt 0.625000 0.500000
vt 0.375000 0.750000
vt 0.625000 0.750000
vt 0.375000 1.000000
vt 0.125000 0.750000
vt 0.125000 0.500000
vt 0.875000 0.500000
vt 0.625000 0.000000
vt 0.375000 0.250000
vt 0.375000 0.000000
vt 0.625000 0.250000
vt 0.375000 0.500000
vt 0.625000 0.500000
vt 0.375000 0.750000
vt 0.625000 0.750000
vt 0.375000 1.000000
vt 0.125000 0.750000
vt 0.125000 0.500000
vt 0.875000 0.500000
vt 0.375000 0.250000
vt 0.625000 0.000000
vt 0.375000 0.000000
vt 0.375000 0.500000
vt 0.625000 0.250000
vt 0.375000 0.750000
vt 0.625000 0.500000
vt 0.375000 1.000000
vt 0.625000 0.750000
vt 0.125000 0.750000
vt 0.125000 0.500000
vt 0.875000 0.500000
vt 0.375000 0.250000
vt 0.625000 0.000000
vt 0.375000 0.000000
vt 0.375000 0.500000
vt 0.625000 0.250000
vt 0.375000 0.750000
vt 0.625000 0.500000
vt 0.375000 1.000000
vt 0.625000 0.750000
vt 0.125000 0.750000
vt 0.125000 0.500000
vt 0.875000 0.500000
vt 0.375000 0.250000
vt 0.625000 0.000000
vt 0.375000 0.000000
vt 0.375000 0.500000
vt 0.625000 0.250000
vt 0.375000 0.750000
vt 0.625000 0.500000
vt 0.875000 0.750000
vt 0.875000 0.750000
vt 0.875000 0.750000
vt 0.125000 0.750000
vt 0.125000 0.500000
vt 0.625000 0.750000
vt 0.875000 0.500000
vt 0.375000 1.000000
vt 0.625000 0.750000
vt 0.375000 0.750000
vt 0.625000 0.000000
vt 0.375000 0.000000
vt 0.625000 0.000000
vt 0.125000 0.750000
vt 0.125000 0.750000
vt 0.625000 1.000000
vt 0.625000 1.000000
vt 0.375000 0.250000
vt 0.625000 0.000000
vt 0.375000 0.000000
vt 0.375000 0.500000
vt 0.625000 0.250000
vt 0.375000 0.750000
vt 0.625000 0.500000
vt 0.375000 1.000000
vt 0.625000 0.750000
vt 0.125000 0.750000
vt 0.125000 0.500000
vt 0.875000 0.500000
vt 0.375000 0.250000
vt 0.625000 0.000000
vt 0.375000 0.000000
vt 0.375000 0.500000
vt 0.625000 0.250000
vt 0.375000 0.750000
vt 0.625000 0.500000
vt 0.375000 1.000000
vt 0.625000 0.750000
vt 0.125000 0.750000
vt 0.125000 0.500000
vt 0.875000 0.500000
vt 0.375000 0.250000
vt 0.625000 0.000000
vt 0.375000 0.000000
vt 0.375000 0.500000
vt 0.625000 0.250000
vt 0.375000 0.750000
vt 0.625000 0.500000
vt 0.375000 1.000000
vt 0.625000 0.750000
vt 0.125000 0.750000
vt 0.125000 0.500000
vt 0.875000 0.500000
vt 0.375000 0.250000
vt 0.625000 0.000000
vt 0.375000 0.000000
vt 0.375000 0.500000
vt 0.625000 0.250000
vt 0.375000 0.750000
vt 0.625000 0.500000
vt 0.375000 1.000000
vt 0.625000 0.750000
vt 0.125000 0.750000
vt 0.125000 0.500000
vt 0.875000 0.500000
vt 0.625000 1.000000
vt 0.875000 0.750000
vt 0.625000 1.000000
vt 0.875000 0.750000
vt 0.875000 0.750000
vt 0.625000 1.000000
vt 0.375000 0.000000
vt 0.625000 1.000000
vt 0.875000 0.750000
vt 0.625000 1.000000
vt 0.875000 0.750000
vt 0.625000 1.000000
vt 0.875000 0.750000
vt 0.625000 1.000000
vt 0.875000 0.750000
vt 0.625000 1.000000
vt 0.875000 0.750000
vt 0.625000 1.000000
vt 0.875000 0.750000
vt 0.875000 0.750000
vt 0.375000 0.000000
vt 0.125000 0.750000
vt 0.375000 1.000000
vt 0.625000 1.000000
vt 0.875000 0.750000
vt 0.625000 1.000000
vt 0.875000 0.750000
vt 0.625000 1.000000
vt 0.875000 0.750000
vt 0.625000 1.000000
vt 0.875000 0.750000
vn -1.0000 0.0000 0.0000
vn 0.0000 0.0000 -1.0000
vn 1.0000 0.0000 0.0000
vn 0.0000 0.0000 1.0000
vn 0.0000 -1.0000 0.0000
vn 0.0000 1.0000 0.0000
vn 0.7263 0.0000 -0.6874
vn -0.7305 0.0000 0.6829
vn 0.4361 0.0000 -0.8999
vn -0.4361 0.0000 0.8999
vn -0.7263 0.0000 -0.6874
vn 0.7305 0.0000 0.6829
vn -0.4361 0.0000 -0.8999
vn 0.4361 0.0000 0.8999
s off
f 2/1/1 3/2/1 1/3/1
f 4/4/2 7/5/2 3/2/2
f 8/6/3 5/7/3 7/5/3
f 6/8/4 1/9/4 5/7/4
f 7/5/5 1/10/5 3/11/5
f 4/12/6 6/8/6 8/6/6
f 10/13/1 11/14/1 9/15/1
f 12/16/2 15/17/2 11/14/2
f 16/18/3 13/19/3 15/17/3
f 14/20/4 9/21/4 13/19/4
f 15/17/5 9/22/5 11/23/5
f 12/24/6 14/20/6 16/18/6
f 18/25/4 19/26/4 17/27/4
f 20/28/1 23/29/1 19/26/1
f 24/30/2 21/31/2 23/29/2
f 18/32/6 32/33/6 26/34/6
f 23/29/5 17/35/5 19/36/5
f 20/37/6 22/38/6 24/30/6
f 27/39/3 25/40/3 28/41/3
f 17/35/5 28/41/5 25/42/5
f 18/32/6 27/39/6 22/38/6
f 22/38/7 28/41/7 21/31/7
f 29/43/8 32/44/8 30/45/8
f 17/35/5 31/46/5 29/47/5
f 17/27/9 30/45/9 18/25/9
f 25/40/10 32/48/10 31/49/10
f 34/50/1 35/51/1 33/52/1
f 36/53/2 39/54/2 35/51/2
f 40/55/3 37/56/3 39/54/3
f 38/57/4 33/58/4 37/56/4
f 39/54/5 33/59/5 35/60/5
f 36/61/6 38/57/6 40/55/6
f 42/62/4 43/63/4 41/64/4
f 44/65/1 47/66/1 43/63/1
f 48/67/2 45/68/2 47/66/2
f 46/69/3 41/70/3 45/68/3
f 47/66/5 41/71/5 43/72/5
f 44/73/6 46/69/6 48/67/6
f 50/74/1 51/75/1 49/76/1
f 52/77/2 55/78/2 51/75/2
f 56/79/3 53/80/3 55/78/3
f 54/81/4 49/82/4 53/80/4
f 55/78/5 49/83/5 51/84/5
f 52/85/6 54/81/6 56/79/6
f 58/86/4 59/87/4 57/88/4
f 60/89/1 63/90/1 59/87/1
f 64/91/2 61/92/2 63/90/2
f 62/93/3 57/94/3 61/92/3
f 63/90/5 57/95/5 59/96/5
f 60/97/6 62/93/6 64/91/6
f 67/98/3 66/99/3 65/100/3
f 71/101/2 68/102/2 67/98/2
f 69/103/1 72/104/1 71/101/1
f 65/105/4 70/106/4 69/103/4
f 65/107/5 71/101/5 67/108/5
f 70/106/6 68/109/6 72/104/6
f 75/110/3 74/111/3 73/112/3
f 79/113/2 76/114/2 75/110/2
f 77/115/1 80/116/1 79/113/1
f 73/117/4 78/118/4 77/115/4
f 73/119/5 79/113/5 75/120/5
f 78/118/6 76/121/6 80/116/6
f 83/122/4 82/123/4 81/124/4
f 87/125/3 84/126/3 83/122/3
f 85/127/2 88/128/2 87/125/2
f 96/129/6 82/130/6 90/131/6
f 81/132/5 87/125/5 83/133/5
f 86/134/6 84/135/6 88/128/6
f 89/136/1 91/137/1 92/138/1
f 81/132/5 92/138/5 85/127/5
f 91/137/6 82/130/6 86/134/6
f 92/138/11 86/134/11 85/127/11
f 96/139/12 93/140/12 94/141/12
f 81/132/5 95/142/5 89/143/5
f 94/141/13 81/124/13 82/123/13
f 89/136/14 96/144/14 90/145/14
f 99/146/3 98/147/3 97/148/3
f 103/149/2 100/150/2 99/146/2
f 101/151/1 104/152/1 103/149/1
f 97/153/4 102/154/4 101/151/4
f 97/155/5 103/149/5 99/156/5
f 102/154/6 100/157/6 104/152/6
f 107/158/4 106/159/4 105/160/4
f 111/161/3 108/162/3 107/158/3
f 109/163/2 112/164/2 111/161/2
f 105/165/1 110/166/1 109/163/1
f 105/167/5 111/161/5 107/168/5
f 110/166/6 108/169/6 112/164/6
f 115/170/3 114/171/3 113/172/3
f 119/173/2 116/174/2 115/170/2
f 117/175/1 120/176/1 119/173/1
f 113/177/4 118/178/4 117/175/4
f 113/179/5 119/173/5 115/180/5
f 118/178/6 116/181/6 120/176/6
f 123/182/4 122/183/4 121/184/4
f 127/185/3 124/186/3 123/182/3
f 125/187/2 128/188/2 127/185/2
f 121/189/1 126/190/1 125/187/1
f 121/191/5 127/185/5 123/192/5
f 126/190/6 124/193/6 128/188/6
f 2/1/1 4/4/1 3/2/1
f 4/4/2 8/6/2 7/5/2
f 8/6/3 6/8/3 5/7/3
f 6/8/4 2/194/4 1/9/4
f 7/5/5 5/7/5 1/10/5
f 4/12/6 2/195/6 6/8/6
f 10/13/1 12/16/1 11/14/1
f 12/16/2 16/18/2 15/17/2
f 16/18/3 14/20/3 13/19/3
f 14/20/4 10/196/4 9/21/4
f 15/17/5 13/19/5 9/22/5
f 12/24/6 10/197/6 14/20/6
f 18/25/4 20/28/4 19/26/4
f 20/28/1 24/30/1 23/29/1
f 24/30/2 22/38/2 21/31/2
f 18/32/6 30/198/6 32/33/6
f 23/29/5 21/31/5 17/35/5
f 20/37/6 18/32/6 22/38/6
f 27/39/3 26/199/3 25/40/3
f 17/35/5 21/31/5 28/41/5
f 18/32/6 26/34/6 27/39/6
f 22/38/7 27/39/7 28/41/7
f 29/43/8 31/200/8 32/44/8
f 17/35/5 25/42/5 31/46/5
f 17/27/9 29/43/9 30/45/9
f 25/40/10 26/199/10 32/48/10
f 34/50/1 36/53/1 35/51/1
f 36/53/2 40/55/2 39/54/2
f 40/55/3 38/57/3 37/56/3
f 38/57/4 34/201/4 33/58/4
f 39/54/5 37/56/5 33/59/5
f 36/61/6 34/202/6 38/57/6
f 42/62/4 44/65/4 43/63/4
f 44/65/1 48/67/1 47/66/1
f 48/67/2 46/69/2 45/68/2
f 46/69/3 42/203/3 41/70/3
f 47/66/5 45/68/5 41/71/5
f 44/73/6 42/204/6 46/69/6
f 50/74/1 52/77/1 51/75/1
f 52/77/2 56/79/2 55/78/2
f 56/79/3 54/81/3 53/80/3
f 54/81/4 50/205/4 49/82/4
f 55/78/5 53/80/5 49/83/5
f 52/85/6 50/206/6 54/81/6
f 58/86/4 60/89/4 59/87/4
f 60/89/1 64/91/1 63/90/1
f 64/91/2 62/93/2 61/92/2
f 62/93/3 58/207/3 57/94/3
f 63/90/5 61/92/5 57/95/5
f 60/97/6 58/208/6 62/93/6
f 67/98/3 68/102/3 66/99/3
f 71/101/2 72/104/2 68/102/2
f 69/103/1 70/106/1 72/104/1
f 65/105/4 66/209/4 70/106/4
f 65/107/5 69/103/5 71/101/5
f 70/106/6 66/210/6 68/109/6
f 75/110/3 76/114/3 74/111/3
f 79/113/2 80/116/2 76/114/2
f 77/115/1 78/118/1 80/116/1
f 73/117/4 74/211/4 78/118/4
f 73/119/5 77/115/5 79/113/5
f 78/118/6 74/212/6 76/121/6
f 83/122/4 84/126/4 82/123/4
f 87/125/3 88/128/3 84/126/3
f 85/127/2 86/134/2 88/128/2
f 96/129/6 94/213/6 82/130/6
f 81/132/5 85/127/5 87/125/5
f 86/134/6 82/130/6 84/135/6
f 89/136/1 90/145/1 91/137/1
f 81/132/5 89/143/5 92/138/5
f 91/137/6 90/131/6 82/130/6
f 92/138/11 91/137/11 86/134/11
f 96/139/12 95/214/12 93/140/12
f 81/132/5 93/215/5 95/142/5
f 94/141/13 93/140/13 81/124/13
f 89/136/14 95/216/14 96/144/14
f 99/146/3 100/150/3 98/147/3
f 103/149/2 104/152/2 100/150/2
f 101/151/1 102/154/1 104/152/1
f 97/153/4 98/217/4 102/154/4
f 97/155/5 101/151/5 103/149/5
f 102/154/6 98/218/6 100/157/6
f 107/158/4 108/162/4 106/159/4
f 111/161/3 112/164/3 108/162/3
f 109/163/2 110/166/2 112/164/2
f 105/165/1 106/219/1 110/166/1
f 105/167/5 109/163/5 111/161/5
f 110/166/6 106/220/6 108/169/6
f 115/170/3 116/174/3 114/171/3
f 119/173/2 120/176/2 116/174/2
f 117/175/1 118/178/1 120/176/1
f 113/177/4 114/221/4 118/178/4
f 113/179/5 117/175/5 119/173/5
f 118/178/6 114/222/6 116/181/6
f 123/182/4 124/186/4 122/183/4
f 127/185/3 128/188/3 124/186/3
f 125/187/2 126/190/2 128/188/2
f 121/189/1 122/223/1 126/190/1
f 121/191/5 125/187/5 127/185/5
f 126/190/6 122/224/6 124/193/6
