# Blender v3.4.1 OBJ File: 'buildings.blend'
# www.blender.org
o Don_Cesar_Base_Cube.002
v -0.357072 -0.261075 0.407275
v -0.257277 -0.261075 0.514447
v 0.256728 -0.261075 0.514447
v 0.355220 -0.261075 0.407275
v 0.355220 1.167671 0.407275
v 0.256728 1.167671 0.514447
v -0.257277 1.167671 0.514447
v -0.357072 1.167671 0.407275
v -0.304325 0.552007 0.304325
v -0.304325 1.554937 0.304325
v -0.304325 0.552007 -0.304325
v -0.304325 1.554937 -0.304325
v 0.304325 0.552007 0.304325
v 0.304325 1.554937 0.304325
v 0.304325 0.552007 -0.304325
v 0.304325 1.554937 -0.304325
v -0.094670 -0.261075 0.792769
v 0.067936 -0.261075 0.792769
v 0.084825 1.167671 0.792769
v -0.094670 1.167671 0.792769
v 0.084825 0.547876 0.792769
v -0.094670 0.547876 0.792769
v 0.084825 1.167671 0.848015
v -0.094670 1.167671 0.848015
v 0.084825 0.547876 0.848015
v -0.094670 0.547876 0.848015
v -0.761869 -0.261075 0.407275
v -0.796907 -0.261075 0.389368
v -0.772696 -0.261075 0.406399
v -0.782464 -0.261075 0.403855
v -0.790216 -0.261075 0.399894
v -0.795192 -0.261075 0.394902
v -0.796907 1.167671 0.389368
v -0.761869 1.167671 0.407275
v -0.795192 1.167671 0.394902
v -0.790216 1.167671 0.399894
v -0.782464 1.167671 0.403855
v -0.772696 1.167671 0.406399
v -0.796907 -0.261075 -0.477997
v -0.761869 -0.261075 -0.495905
v -0.795192 -0.261075 -0.483531
v -0.790216 -0.261075 -0.488523
v -0.782464 -0.261075 -0.492485
v -0.772696 -0.261075 -0.495028
v -0.761869 1.167671 -0.495905
v -0.796907 1.167671 -0.477997
v -0.772696 1.167671 -0.495028
v -0.782464 1.167671 -0.492485
v -0.790216 1.167671 -0.488523
v -0.795192 1.167671 -0.483531
v 0.796907 -0.261075 0.389368
v 0.761869 -0.261075 0.407275
v 0.795192 -0.261075 0.394902
v 0.790216 -0.261075 0.399894
v 0.782464 -0.261075 0.403855
v 0.772696 -0.261075 0.406399
v 0.761869 1.167671 0.407275
v 0.796907 1.167671 0.389368
v 0.772696 1.167671 0.406399
v 0.782464 1.167671 0.403855
v 0.790216 1.167671 0.399894
v 0.795192 1.167671 0.394902
v 0.761869 -0.261075 -0.495905
v 0.796907 -0.261075 -0.477997
v 0.772696 -0.261075 -0.495028
v 0.782464 -0.261075 -0.492485
v 0.790216 -0.261075 -0.488523
v 0.795192 -0.261075 -0.483531
v 0.796907 1.167671 -0.477997
v 0.761869 1.167671 -0.495905
v 0.795192 1.167671 -0.483531
v 0.790216 1.167671 -0.488523
v 0.782464 1.167671 -0.492485
v 0.772696 1.167671 -0.495028
v -0.222239 -0.261075 0.792769
v -0.257277 -0.261075 0.774862
v -0.233066 -0.261075 0.791893
v -0.242833 -0.261075 0.789349
v -0.250585 -0.261075 0.785387
v -0.255562 -0.261075 0.780396
v 0.256728 -0.261075 0.774862
v 0.221690 -0.261075 0.792769
v 0.255014 -0.261075 0.780396
v 0.250037 -0.261075 0.785387
v 0.242285 -0.261075 0.789349
v 0.232518 -0.261075 0.791893
v 0.221690 1.167671 0.792769
v 0.256728 1.167671 0.774862
v 0.232518 1.167671 0.791893
v 0.242285 1.167671 0.789349
v 0.250037 1.167671 0.785387
v 0.255014 1.167671 0.780396
v -0.257277 1.167671 0.774862
v -0.222239 1.167671 0.792769
v -0.255562 1.167671 0.780396
v -0.250585 1.167671 0.785387
v -0.242833 1.167671 0.789349
v -0.233066 1.167671 0.791893
v -0.799339 -1.199255 0.741098
v -0.850813 -1.199255 0.714791
v -0.815245 -1.199255 0.739810
v -0.829594 -1.199255 0.736074
v -0.840982 -1.199255 0.730254
v -0.848293 -1.199255 0.722920
v -0.850813 0.202457 0.714791
v -0.799339 0.202457 0.741098
v -0.848293 0.202457 0.722920
v -0.840982 0.202457 0.730254
v -0.829594 0.202457 0.736074
v -0.815245 0.202457 0.739810
v -0.850813 -1.199255 -0.633508
v -0.799339 -1.199255 -0.659815
v -0.848293 -1.199255 -0.641638
v -0.840982 -1.199255 -0.648971
v -0.829594 -1.199255 -0.654791
v -0.815245 -1.199255 -0.658528
v -0.799339 0.202457 -0.659815
v -0.850813 0.202457 -0.633508
v -0.815245 0.202457 -0.658528
v -0.829594 0.202457 -0.654791
v -0.840982 0.202457 -0.648971
v -0.848293 0.202457 -0.641638
v 0.850813 -1.199255 0.714791
v 0.799339 -1.199255 0.741098
v 0.848293 -1.199255 0.722920
v 0.840982 -1.199255 0.730254
v 0.829594 -1.199255 0.736074
v 0.815245 -1.199255 0.739810
v 0.799339 0.202457 0.741098
v 0.850813 0.202457 0.714791
v 0.815245 0.202457 0.739810
v 0.829594 0.202457 0.736074
v 0.840982 0.202457 0.730254
v 0.848293 0.202457 0.722920
v 0.799339 -1.199255 -0.659815
v 0.850813 -1.199255 -0.633508
v 0.815245 -1.199255 -0.658528
v 0.829594 -1.199255 -0.654791
v 0.840982 -1.199255 -0.648971
v 0.848293 -1.199255 -0.641638
v 0.850813 0.202457 -0.633508
v 0.799339 0.202457 -0.659815
v 0.848293 0.202457 -0.641638
v 0.840982 0.202457 -0.648971
v 0.829594 0.202457 -0.654791
v 0.815245 0.202457 -0.658528
vt 0.625000 0.950000
vt 0.375000 0.996017
vt 0.375000 0.950000
vt 0.625000 0.504957
vt 0.375000 0.745043
vt 0.375000 0.504957
vt 0.625000 0.753966
vt 0.375000 0.800000
vt 0.375000 0.753966
vt 0.625888 0.747955
vt 0.625000 0.745043
vt 0.627782 0.749757
vt 0.625000 0.004957
vt 0.375000 0.245043
vt 0.375000 0.004957
vt 0.625000 0.255496
vt 0.375000 0.494504
vt 0.375000 0.255496
vt 0.500000 0.883333
vt 0.625000 0.896409
vt 0.375000 0.896409
vt 0.625000 0.800000
vt 0.375000 0.850000
vt 0.228591 0.750000
vt 0.227477 0.750000
vt 0.226466 0.750000
vt 0.625000 0.900000
vt 0.375000 0.900000
vt 0.625000 0.900000
vt 0.625000 0.853397
vt 0.625000 0.866667
vt 0.500000 0.866667
vt 0.728397 0.750000
vt 0.727348 0.750000
vt 0.726401 0.750000
vt 0.625000 0.000000
vt 0.375000 0.250000
vt 0.375000 0.000000
vt 0.625000 0.250000
vt 0.375000 0.500000
vt 0.625000 0.500000
vt 0.375000 0.750000
vt 0.625000 0.750000
vt 0.375000 1.000000
vt 0.125000 0.750000
vt 0.125000 0.500000
vt 0.875000 0.500000
vt 0.625000 0.850000
vt 0.375000 0.850000
vt 0.625000 0.883333
vt 0.625000 0.883333
vt 0.375000 0.866667
vt 0.375000 0.883333
vt 0.625000 0.866667
vt 0.500000 0.883333
vt 0.500000 0.866667
vt 0.758333 0.750000
vt 0.741667 0.750000
vt 0.741667 0.750000
vt 0.625000 0.757563
vt 0.375000 0.992438
vt 0.375000 0.757563
vt 0.625000 0.504695
vt 0.375000 0.745305
vt 0.375000 0.504695
vt 0.875000 0.745305
vt 0.871883 0.749103
vt 0.867438 0.750000
vt 0.625000 0.004695
vt 0.375000 0.245305
vt 0.375000 0.004695
vt 0.625000 0.257562
vt 0.375000 0.492438
vt 0.375000 0.257562
vt 0.625000 0.996017
vt 0.375000 0.997248
vt 0.625000 0.997248
vt 0.375000 1.000000
vt 0.625000 0.000000
vt 0.375000 0.002043
vt 0.375000 0.000000
vt 0.625000 0.002043
vt 0.375000 0.003425
vt 0.625000 0.003425
vt 0.625000 0.253798
vt 0.375000 0.253798
vt 0.625000 0.252266
vt 0.375000 0.252266
vt 0.625000 0.247957
vt 0.375000 0.247957
vt 0.625000 0.246575
vt 0.375000 0.246575
vt 0.625000 0.245043
vt 0.625000 0.503425
vt 0.375000 0.503425
vt 0.625000 0.502043
vt 0.375000 0.502043
vt 0.625000 0.497734
vt 0.375000 0.497734
vt 0.625000 0.496202
vt 0.375000 0.496202
vt 0.625000 0.494504
vt 0.625000 0.752741
vt 0.375000 0.752741
vt 0.625000 0.751635
vt 0.375000 0.751635
vt 0.625000 0.747957
vt 0.375000 0.747957
vt 0.625000 0.746575
vt 0.375000 0.746575
vt 0.375000 0.853093
vt 0.625000 0.852347
vt 0.375000 0.852137
vt 0.625000 0.851400
vt 0.375000 0.851275
vt 0.625000 0.850000
vt 0.375000 0.850000
vt 0.625000 0.850000
vt 0.375000 0.850000
vt 0.625000 0.850000
vt 0.375000 0.900000
vt 0.625000 0.900000
vt 0.375000 0.900000
vt 0.625000 0.900000
vt 0.375000 0.900000
vt 0.625000 0.898520
vt 0.375000 0.898520
vt 0.625000 0.897518
vt 0.375000 0.897519
vt 0.125889 0.747955
vt 0.125000 0.745043
vt 0.127793 0.749757
vt 0.625000 0.992437
vt 0.375000 0.994774
vt 0.625000 0.994774
vt 0.375000 1.000000
vt 0.625000 0.000000
vt 0.375000 0.001935
vt 0.375000 0.000000
vt 0.625000 0.001935
vt 0.375000 0.003244
vt 0.625000 0.003244
vt 0.625000 0.255226
vt 0.375000 0.255226
vt 0.625000 0.253117
vt 0.375000 0.253117
vt 0.625000 0.248065
vt 0.375000 0.248065
vt 0.625000 0.246756
vt 0.375000 0.246756
vt 0.625000 0.245305
vt 0.625000 0.503244
vt 0.375000 0.503244
vt 0.625000 0.501935
vt 0.375000 0.501935
vt 0.625000 0.496883
vt 0.375000 0.496883
vt 0.625000 0.494774
vt 0.375000 0.494774
vt 0.625000 0.492438
vt 0.625000 0.755226
vt 0.375000 0.755226
vt 0.625000 0.753117
vt 0.375000 0.753117
vt 0.625000 0.748065
vt 0.375000 0.748065
vt 0.625000 0.746756
vt 0.375000 0.746756
vt 0.625000 0.745305
vt 0.371883 0.749103
vt 0.367438 0.750000
vt 0.675000 0.750000
vt 0.625269 0.503422
vt 0.627264 0.500937
vt 0.626048 0.502033
vt 0.628797 0.500239
vt 0.630496 0.500000
vt 0.869504 0.500000
vt 0.871203 0.500239
vt 0.875000 0.504957
vt 0.872736 0.500937
vt 0.873951 0.502033
vt 0.874731 0.503422
vt 0.875000 0.745043
vt 0.825000 0.750000
vt 0.874764 0.746574
vt 0.871017 0.750000
vt 0.874111 0.747955
vt 0.873231 0.749052
vt 0.872207 0.749757
vt 0.775000 0.750000
vt 0.725000 0.750000
vt 0.625236 0.746574
vt 0.626764 0.749053
vt 0.628966 0.750000
vt 0.225000 0.750000
vt 0.225000 0.750000
vt 0.241667 0.750000
vt 0.275000 0.750000
vt 0.258333 0.750000
vt 0.275000 0.750000
vt 0.274840 0.750000
vt 0.271907 0.750000
vt 0.274384 0.750000
vt 0.273700 0.750000
vt 0.272855 0.750000
vt 0.225171 0.750000
vt 0.225672 0.750000
vt 0.725000 0.750000
vt 0.775000 0.750000
vt 0.774829 0.750000
vt 0.771409 0.750000
vt 0.774329 0.750000
vt 0.773534 0.750000
vt 0.772523 0.750000
vt 0.725166 0.750000
vt 0.725649 0.750000
vt 0.625000 1.000000
vt 0.875000 0.750000
vt 0.758333 0.750000
vt 0.875000 0.504695
vt 0.625370 0.503244
vt 0.628117 0.500897
vt 0.632562 0.500000
vt 0.626444 0.501935
vt 0.630225 0.500230
vt 0.867438 0.500000
vt 0.869774 0.500230
vt 0.871883 0.500897
vt 0.873556 0.501935
vt 0.874630 0.503244
vt 0.874630 0.746756
vt 0.873556 0.748065
vt 0.869774 0.749770
vt 0.632562 0.750000
vt 0.630226 0.749770
vt 0.628117 0.749103
vt 0.626444 0.748065
vt 0.625370 0.746756
vt 0.625000 1.000000
vt 0.125000 0.504957
vt 0.175000 0.750000
vt 0.125269 0.503422
vt 0.127264 0.500936
vt 0.126049 0.502033
vt 0.128797 0.500239
vt 0.130496 0.500000
vt 0.369504 0.500000
vt 0.325000 0.750000
vt 0.371203 0.500239
vt 0.372736 0.500937
vt 0.373952 0.502033
vt 0.374731 0.503422
vt 0.374764 0.746574
vt 0.371034 0.750000
vt 0.374112 0.747955
vt 0.373236 0.749053
vt 0.372218 0.749757
vt 0.125236 0.746574
vt 0.126769 0.749053
vt 0.128983 0.750000
vt 0.625000 1.000000
vt 0.125000 0.745305
vt 0.125000 0.504695
vt 0.125370 0.503244
vt 0.128117 0.500897
vt 0.132562 0.500000
vt 0.126444 0.501935
vt 0.130226 0.500230
vt 0.367438 0.500000
vt 0.369774 0.500230
vt 0.371883 0.500897
vt 0.373556 0.501935
vt 0.374630 0.503244
vt 0.374630 0.746756
vt 0.373556 0.748065
vt 0.369774 0.749770
vt 0.132562 0.750000
vt 0.130226 0.749770
vt 0.128117 0.749103
vt 0.126444 0.748065
vt 0.125370 0.746756
vn 0.0000 0.0000 1.0000
vn -0.0404 0.0000 0.9992
vn 0.9887 0.0000 -0.1497
vn 0.9887 0.0000 0.1497
vn 0.0404 0.0000 0.9992
vn 0.0000 1.0000 0.0000
vn -0.9887 0.0000 0.1497
vn -0.9887 0.0000 -0.1497
vn -0.0404 0.0000 -0.9992
vn 0.0404 0.0000 -0.9992
vn 0.7363 0.0000 0.6767
vn 0.0000 -1.0000 0.0000
vn -0.7318 0.0000 0.6815
vn -1.0000 0.0000 0.0000
vn 0.0000 0.0000 -1.0000
vn 1.0000 0.0000 0.0000
vn -0.1670 0.0000 0.9860
vn -0.3556 0.0000 0.9346
vn -0.5889 0.0000 0.8082
vn -0.7082 0.0000 0.7060
vn -0.9552 0.0000 0.2960
vn -0.1670 0.0000 -0.9860
vn -0.3556 0.0000 -0.9346
vn -0.5889 0.0000 -0.8082
vn -0.7082 0.0000 -0.7060
vn -0.9552 0.0000 -0.2960
vn 0.9552 0.0000 -0.2960
vn 0.7082 0.0000 -0.7060
vn 0.5889 0.0000 -0.8082
vn 0.3556 0.0000 -0.9346
vn 0.1670 0.0000 -0.9860
vn 0.1670 0.0000 0.9860
vn 0.3556 0.0000 0.9346
vn 0.5889 0.0000 0.8082
vn 0.7082 0.0000 0.7060
vn 0.9552 0.0000 0.2960
vn 0.3557 0.0000 0.9346
vn -0.3557 0.0000 0.9346
vn 0.0000 1.0000 0.0001
vn 0.0000 1.0000 -0.0001
s 1
f 8/1/1 27/2/2 1/3/1
f 69/4/3 51/5/4 64/6/3
f 57/7/5 4/8/1 52/9/5
f 61/10/6 58/11/6 59/12/6
f 33/13/7 39/14/8 28/15/7
f 45/16/9 63/17/10 40/18/9
f 22/19/1 94/20/2 75/21/2
f 5/22/11 3/23/11 4/8/11
f 75/24/12 77/25/12 78/26/12
f 7/27/13 1/3/13 2/28/13
f 2/28/14 93/29/7 7/27/14
f 87/30/5 19/31/1 21/32/1
f 87/33/6 89/34/6 90/35/6
f 10/36/14 11/37/14 9/38/14
f 12/39/15 15/40/15 11/37/15
f 16/41/16 13/42/16 15/40/16
f 14/43/1 9/44/1 13/42/1
f 15/40/12 9/45/12 11/46/12
f 12/47/6 14/43/6 16/41/6
f 6/48/16 81/49/4 3/23/16
f 22/19/14 24/50/14 20/51/14
f 18/52/1 22/19/1 17/53/1
f 23/54/1 26/55/1 25/56/1
f 20/57/6 23/58/6 19/59/6
f 21/32/12 26/55/12 22/19/12
f 19/31/16 25/56/16 21/32/16
f 129/60/5 99/61/2 124/62/5
f 141/63/3 123/64/4 136/65/3
f 105/66/6 109/67/6 106/68/6
f 105/69/7 111/70/8 100/71/7
f 117/72/9 135/73/10 112/74/9
f 34/75/2 29/76/17 27/2/2
f 38/77/17 30/78/18 29/76/17
f 37/79/18 31/80/19 30/81/18
f 36/82/19 32/83/20 31/80/19
f 35/84/21 28/15/7 32/83/21
f 40/18/9 47/85/22 45/16/9
f 44/86/22 48/87/23 47/85/22
f 43/88/23 49/89/24 48/87/23
f 42/90/24 50/91/25 49/89/24
f 41/92/26 46/93/8 50/91/26
f 64/6/3 71/94/27 69/4/3
f 68/95/28 72/96/29 71/94/28
f 67/97/29 73/98/30 72/96/29
f 66/99/30 74/100/31 73/98/30
f 65/101/31 70/102/10 74/100/31
f 52/9/5 59/103/32 57/7/5
f 56/104/32 60/105/33 59/103/32
f 55/106/33 61/107/34 60/105/33
f 54/108/34 62/109/35 61/107/34
f 53/110/36 58/11/4 62/109/36
f 82/111/5 89/112/32 87/30/5
f 86/113/32 90/114/33 89/112/32
f 85/115/37 91/116/34 90/114/33
f 84/117/34 92/118/35 91/116/34
f 83/119/36 88/120/4 92/118/36
f 76/121/7 95/122/21 93/29/7
f 80/123/20 96/124/19 95/122/20
f 79/125/19 97/126/38 96/124/19
f 78/127/18 98/128/17 97/126/38
f 77/129/17 94/20/2 98/128/17
f 31/130/12 28/131/12 29/132/12
f 106/133/2 101/134/17 99/61/2
f 110/135/17 102/136/18 101/134/17
f 109/137/18 103/138/19 102/139/18
f 108/140/19 104/141/20 103/138/19
f 107/142/21 100/71/7 104/141/21
f 112/74/9 119/143/22 117/72/9
f 116/144/22 120/145/23 119/143/22
f 115/146/23 121/147/24 120/145/23
f 114/148/24 122/149/25 121/147/24
f 113/150/26 118/151/8 122/149/26
f 136/65/3 143/152/27 141/63/3
f 140/153/28 144/154/29 143/152/28
f 139/155/29 145/156/30 144/154/29
f 138/157/30 146/158/31 145/156/30
f 137/159/31 142/160/10 146/158/31
f 124/62/5 131/161/32 129/60/5
f 128/162/32 132/163/33 131/161/32
f 127/164/33 133/165/34 132/163/33
f 126/166/34 134/167/35 133/165/34
f 125/168/36 130/169/4 134/167/36
f 123/64/12 127/170/12 124/171/12
f 8/1/1 34/75/2 27/2/2
f 69/4/3 58/11/4 51/5/4
f 57/7/5 5/22/1 4/8/1
f 58/11/6 69/4/6 5/172/6
f 69/4/6 71/173/6 73/174/6
f 71/173/6 72/175/6 73/174/6
f 73/174/6 74/176/6 70/177/6
f 70/177/6 45/178/6 5/172/6
f 45/178/6 47/179/6 46/180/6
f 47/179/6 48/181/6 49/182/39
f 49/182/39 50/183/6 47/179/6
f 50/183/6 46/180/6 47/179/6
f 46/180/6 33/184/6 8/185/6
f 33/184/6 35/186/6 34/187/6
f 8/185/6 33/184/6 34/187/6
f 35/186/6 36/188/6 37/189/6
f 37/189/6 38/190/6 34/187/6
f 8/185/6 7/191/6 5/172/6
f 7/191/6 6/192/6 5/172/6
f 37/189/6 34/187/6 35/186/6
f 73/174/6 70/177/6 69/4/6
f 45/178/6 46/180/6 8/185/6
f 5/172/6 45/178/6 8/185/6
f 5/172/6 69/4/6 70/177/6
f 61/10/6 62/193/6 58/11/6
f 59/12/6 60/194/6 61/10/6
f 5/172/6 57/195/6 58/11/6
f 57/195/6 59/12/6 58/11/6
f 33/13/7 46/93/8 39/14/8
f 45/16/9 70/102/10 63/17/10
f 75/21/2 17/53/1 22/19/1
f 22/19/1 20/51/1 94/20/2
f 5/22/11 6/48/11 3/23/11
f 76/196/12 2/197/12 17/198/12
f 2/197/12 3/199/12 18/200/12
f 17/198/12 2/197/12 18/200/12
f 3/199/12 81/201/12 18/200/12
f 81/201/12 83/202/12 82/203/12
f 18/200/12 81/201/12 82/203/12
f 83/202/12 84/204/12 85/205/12
f 85/205/12 86/206/12 82/203/12
f 17/198/12 75/24/12 76/196/12
f 85/205/12 82/203/12 83/202/12
f 80/207/12 76/196/12 75/24/12
f 78/26/12 79/208/12 75/24/12
f 79/208/12 80/207/12 75/24/12
f 7/27/13 8/1/13 1/3/13
f 2/28/14 76/121/7 93/29/7
f 18/52/1 82/111/5 21/32/1
f 82/111/5 87/30/5 21/32/1
f 88/209/6 6/192/6 19/59/6
f 6/192/6 7/191/6 19/59/6
f 7/191/6 93/210/6 20/57/6
f 93/210/6 95/211/6 94/212/6
f 20/57/6 93/210/6 94/212/6
f 95/211/6 96/213/40 97/214/6
f 97/214/6 98/215/6 94/212/6
f 20/57/6 19/59/6 7/191/6
f 19/59/6 87/33/6 88/209/6
f 97/214/6 94/212/6 95/211/6
f 92/216/6 88/209/6 87/33/6
f 90/35/6 91/217/6 87/33/6
f 91/217/6 92/216/6 87/33/6
f 10/36/14 12/39/14 11/37/14
f 12/39/15 16/41/15 15/40/15
f 16/41/16 14/43/16 13/42/16
f 14/43/1 10/218/1 9/44/1
f 15/40/12 13/42/12 9/45/12
f 12/47/6 10/219/6 14/43/6
f 6/48/16 88/120/4 81/49/4
f 22/19/14 26/55/14 24/50/14
f 18/52/1 21/32/1 22/19/1
f 23/54/1 24/50/1 26/55/1
f 20/57/6 24/220/6 23/58/6
f 21/32/12 25/56/12 26/55/12
f 19/31/16 23/54/16 25/56/16
f 129/60/5 106/133/2 99/61/2
f 141/63/3 130/169/4 123/64/4
f 130/169/6 141/63/6 118/221/6
f 141/63/6 143/222/6 145/223/6
f 118/221/6 141/63/6 142/224/6
f 143/222/6 144/225/6 145/223/6
f 145/223/6 146/226/6 142/224/6
f 142/224/6 117/227/6 118/221/6
f 117/227/6 119/228/6 118/221/6
f 119/228/6 120/229/6 121/230/6
f 121/230/6 122/231/6 119/228/6
f 122/231/6 118/221/6 119/228/6
f 118/221/6 105/66/6 130/169/6
f 105/66/6 107/232/6 109/67/6
f 130/169/6 105/66/6 106/68/6
f 107/232/6 108/233/6 109/67/6
f 109/67/6 110/234/6 106/68/6
f 106/68/6 129/235/6 130/169/6
f 129/235/6 131/236/6 130/169/6
f 131/236/6 132/237/6 133/238/6
f 133/238/6 134/239/6 131/236/6
f 134/239/6 130/169/6 131/236/6
f 141/63/6 145/223/6 142/224/6
f 105/69/7 118/151/8 111/70/8
f 117/72/9 142/160/10 135/73/10
f 34/75/2 38/77/17 29/76/17
f 38/77/17 37/240/18 30/78/18
f 37/79/18 36/82/19 31/80/19
f 36/82/19 35/84/20 32/83/20
f 35/84/21 33/13/7 28/15/7
f 40/18/9 44/86/22 47/85/22
f 44/86/22 43/88/23 48/87/23
f 43/88/23 42/90/24 49/89/24
f 42/90/24 41/92/25 50/91/25
f 41/92/26 39/14/8 46/93/8
f 64/6/3 68/95/27 71/94/27
f 68/95/28 67/97/29 72/96/29
f 67/97/29 66/99/30 73/98/30
f 66/99/30 65/101/31 74/100/31
f 65/101/31 63/17/10 70/102/10
f 52/9/5 56/104/32 59/103/32
f 56/104/32 55/106/33 60/105/33
f 55/106/33 54/108/34 61/107/34
f 54/108/34 53/110/35 62/109/35
f 53/110/36 51/5/4 58/11/4
f 82/111/5 86/113/32 89/112/32
f 86/113/32 85/115/37 90/114/33
f 85/115/37 84/117/34 91/116/34
f 84/117/34 83/119/35 92/118/35
f 83/119/36 81/49/4 88/120/4
f 76/121/7 80/123/21 95/122/21
f 80/123/20 79/125/19 96/124/19
f 79/125/19 78/127/18 97/126/38
f 78/127/18 77/129/17 98/128/17
f 77/129/17 75/21/2 94/20/2
f 28/131/12 39/241/12 1/242/12
f 39/241/12 41/243/12 43/244/12
f 41/243/12 42/245/12 43/244/12
f 43/244/12 44/246/12 40/247/12
f 40/247/12 63/248/12 4/249/12
f 63/248/12 65/250/12 64/6/12
f 65/250/12 66/251/12 67/252/12
f 67/252/12 68/253/12 65/250/12
f 68/253/12 64/6/12 65/250/12
f 64/6/12 51/5/12 4/249/12
f 51/5/12 53/254/12 52/255/12
f 4/249/12 51/5/12 52/255/12
f 53/254/12 54/256/12 55/257/12
f 55/257/12 56/258/12 52/255/12
f 4/249/12 3/199/12 2/197/12
f 55/257/12 52/255/12 53/254/12
f 43/244/12 40/247/12 39/241/12
f 63/248/12 64/6/12 4/249/12
f 40/247/12 4/249/12 1/242/12
f 1/242/12 39/241/12 40/247/12
f 31/130/12 32/259/12 28/131/12
f 29/132/12 30/260/12 31/130/12
f 1/242/12 27/261/12 28/131/12
f 27/261/12 29/132/12 28/131/12
f 4/249/12 2/197/12 1/242/12
f 106/133/2 110/135/17 101/134/17
f 110/135/17 109/262/18 102/136/18
f 109/137/18 108/140/19 103/138/19
f 108/140/19 107/142/20 104/141/20
f 107/142/21 105/69/7 100/71/7
f 112/74/9 116/144/22 119/143/22
f 116/144/22 115/146/23 120/145/23
f 115/146/23 114/148/24 121/147/24
f 114/148/24 113/150/25 122/149/25
f 113/150/26 111/70/8 118/151/8
f 136/65/3 140/153/27 143/152/27
f 140/153/28 139/155/29 144/154/29
f 139/155/29 138/157/30 145/156/30
f 138/157/30 137/159/31 146/158/31
f 137/159/31 135/73/10 142/160/10
f 124/62/5 128/162/32 131/161/32
f 128/162/32 127/164/33 132/163/33
f 127/164/33 126/166/34 133/165/34
f 126/166/34 125/168/35 134/167/35
f 125/168/36 123/64/4 130/169/4
f 100/263/12 111/264/12 136/65/12
f 111/264/12 113/265/12 115/266/12
f 136/65/12 111/264/12 112/267/12
f 113/265/12 114/268/12 115/266/12
f 115/266/12 116/269/12 112/267/12
f 112/267/12 135/270/12 136/65/12
f 135/270/12 137/271/12 136/65/12
f 137/271/12 138/272/12 139/273/12
f 139/273/12 140/274/12 137/271/12
f 140/274/12 136/65/12 137/271/12
f 136/65/12 123/64/12 100/263/12
f 123/64/12 125/275/12 127/170/12
f 100/263/12 123/64/12 124/171/12
f 125/275/12 126/276/12 127/170/12
f 127/170/12 128/277/12 124/171/12
f 124/171/12 99/278/12 100/263/12
f 99/278/12 101/279/12 100/263/12
f 101/279/12 102/280/12 103/281/12
f 103/281/12 104/282/12 101/279/12
f 104/282/12 100/263/12 101/279/12
f 111/264/12 115/266/12 112/267/12
