# Blender v3.4.1 OBJ File: 'collectibles.blend'
# www.blender.org
o Flower_Leaves_Plane.011
v 0.082914 -0.093520 -0.357644
v 0.321654 -0.093520 -0.253890
v 0.423990 -0.105957 -0.969170
v 0.536030 -0.105957 -0.920479
v 0.212382 -0.059901 -0.761066
v 0.094915 -0.059901 -0.553375
v 0.162494 -0.071241 -0.323059
v 0.242074 -0.071241 -0.288475
v 0.456564 -0.059901 -0.396207
v 0.528261 -0.059901 -0.623788
v 0.498684 -0.085150 -0.936709
v 0.461337 -0.085150 -0.952940
v 0.215465 -0.028528 -0.500986
v 0.317675 -0.028528 -0.715307
v 0.336014 -0.028528 -0.448596
v 0.422968 -0.028528 -0.669547
v 0.060598 -0.092721 0.310439
v -0.195247 -0.092721 0.142455
v -0.456948 -0.107344 0.950706
v -0.577015 -0.107344 0.871872
v -0.170134 -0.053192 0.751939
v 0.007525 -0.053192 0.534813
v -0.024684 -0.066526 0.254444
v -0.109965 -0.066526 0.198449
v -0.380034 -0.053192 0.280348
v -0.508644 -0.053192 0.529679
v -0.536993 -0.082880 0.898150
v -0.496971 -0.082880 0.924428
v -0.121661 -0.016306 0.449991
v -0.282970 -0.016306 0.677852
v -0.250847 -0.016306 0.365170
v -0.395807 -0.016306 0.603765
v -0.220733 -0.093520 -0.251682
v -0.005414 -0.093520 -0.397968
v -0.555175 -0.105957 -0.866861
v -0.454127 -0.105957 -0.935513
v -0.492441 -0.059901 -0.576775
v -0.379726 -0.059901 -0.366468
v -0.148960 -0.071241 -0.300444
v -0.077187 -0.071241 -0.349206
v -0.053557 -0.059901 -0.588066
v -0.207552 -0.059901 -0.770328
v -0.487810 -0.085150 -0.912629
v -0.521493 -0.085150 -0.889745
v -0.271003 -0.028528 -0.440334
v -0.397478 -0.028528 -0.641293
v -0.162280 -0.028528 -0.514200
v -0.302515 -0.028528 -0.705810
v 0.331924 -0.092721 0.124353
v 0.053181 -0.092721 0.250755
v 0.596310 -0.107344 0.904031
v 0.465496 -0.107344 0.963351
v 0.581674 -0.053192 0.555381
v 0.493165 -0.053192 0.289162
v 0.239010 -0.066526 0.166487
v 0.146095 -0.066526 0.208621
v 0.070920 -0.053192 0.480638
v 0.212867 -0.053192 0.722624
v 0.509101 -0.082880 0.943577
v 0.552705 -0.082880 0.923804
v 0.352417 -0.016306 0.352987
v 0.458738 -0.016306 0.611129
v 0.211668 -0.016306 0.416812
v 0.335803 -0.016306 0.666876
vt 0.666667 0.666667
vt 1.000000 1.000000
vt 0.666667 1.000000
vt 0.333333 0.666667
vt 0.000000 1.000000
vt 0.000000 0.666667
vt 0.333333 1.000000
vt 0.000000 0.000000
vt 0.333333 0.333333
vt 0.000000 0.333333
vt 0.666667 0.000000
vt 0.333333 0.000000
vt 0.666667 0.333333
vt 1.000000 0.000000
vt 1.000000 0.666667
vt 0.666667 0.666667
vt 1.000000 1.000000
vt 0.666667 1.000000
vt 0.333333 0.666667
vt 0.000000 1.000000
vt 0.000000 0.666667
vt 0.333333 1.000000
vt 0.000000 0.000000
vt 0.333333 0.333333
vt 0.000000 0.333333
vt 0.666667 0.000000
vt 0.333333 0.000000
vt 0.666667 0.333333
vt 1.000000 0.000000
vt 1.000000 0.333333
vt 0.666667 0.666667
vt 1.000000 1.000000
vt 0.666667 1.000000
vt 0.000000 0.666667
vt 0.333333 1.000000
vt 0.000000 1.000000
vt 0.333333 0.666667
vt 0.000000 0.000000
vt 0.333333 0.333333
vt 0.000000 0.333333
vt 0.333333 0.000000
vt 0.666667 0.333333
vt 0.666667 0.000000
vt 1.000000 0.333333
vt 1.000000 0.666667
vt 0.666667 0.666667
vt 1.000000 1.000000
vt 0.666667 1.000000
vt 0.000000 0.666667
vt 0.333333 1.000000
vt 0.000000 1.000000
vt 0.333333 0.666667
vt 0.000000 0.000000
vt 0.333333 0.333333
vt 0.000000 0.333333
vt 0.333333 0.000000
vt 0.666667 0.333333
vt 0.666667 0.000000
vt 1.000000 0.333333
vt 1.000000 0.666667
vt 1.000000 0.333333
vt 1.000000 0.666667
vt 1.000000 0.000000
vt 1.000000 0.000000
vn 0.1753 0.9831 -0.0533
vn 0.4656 0.8828 -0.0626
vn 0.2877 0.9502 -0.1199
vn -0.0806 0.9831 -0.1645
vn -0.2719 0.8828 -0.3831
vn -0.1870 0.9593 -0.2117
vn -0.1086 0.9502 -0.2921
vn -0.3148 0.9395 0.1348
vn -0.1598 0.9855 0.0562
vn -0.2539 0.9672 0.0051
vn 0.0106 0.9646 0.2635
vn -0.1999 0.9646 0.1720
vn 0.0679 0.9855 0.1552
vn 0.1162 0.9395 0.3222
vn 0.2824 0.9593 -0.0077
vn -0.1811 0.9831 0.0266
vn -0.4695 0.8828 -0.0176
vn -0.3039 0.9502 0.0691
vn 0.0515 0.9831 0.1758
vn 0.2027 0.8828 0.4238
vn 0.1482 0.9593 0.2404
vn 0.0574 0.9502 0.3063
vn 0.3332 0.9395 -0.0793
vn 0.1670 0.9855 -0.0282
vn 0.2511 0.9672 0.0382
vn 0.0344 0.9646 -0.2615
vn 0.2263 0.9646 -0.1355
vn -0.0368 0.9855 -0.1656
vn -0.0597 0.9395 -0.3373
vn -0.1360 0.9654 -0.2225
vn 0.0487 0.9831 -0.1766
vn 0.1960 0.8828 -0.4270
vn 0.0525 0.9502 -0.3072
vn -0.2905 0.9553 0.0542
vn -0.2984 0.9490 -0.1015
vn -0.5345 0.8449 -0.0185
vn -0.1731 0.9847 -0.0197
vn -0.0544 0.9395 0.3382
vn -0.0342 0.9855 0.1662
vn -0.1325 0.9654 0.2247
vn 0.0385 0.9646 0.2609
vn 0.1657 0.9859 0.0249
vn 0.2274 0.9642 0.1362
vn 0.2512 0.9669 -0.0450
vn 0.1444 0.9593 -0.2427
vn -0.0780 0.9831 0.1657
vn -0.2658 0.8828 0.3874
vn -0.1040 0.9502 0.2938
vn 0.2955 0.9553 -0.0040
vn 0.2768 0.9490 0.1508
vn 0.5236 0.8449 0.1093
vn 0.1672 0.9847 0.0489
vn 0.1111 0.9395 -0.3240
vn 0.0620 0.9855 -0.1580
vn 0.1688 0.9654 -0.1988
vn 0.0064 0.9646 -0.2637
vn -0.1590 0.9859 -0.0527
vn -0.2009 0.9642 -0.1729
vn -0.2552 0.9669 0.0016
vn -0.1836 0.9593 0.2146
vn 0.1695 0.9672 0.1891
vn -0.2884 0.9568 -0.0370
vn 0.3438 0.9358 0.0784
vn -0.3254 0.9358 -0.1358
s 1
f 16/1/1 4/2/2 11/3/3
f 14/4/4 3/5/5 5/6/6
f 14/4/4 11/3/3 12/7/7
f 1/8/8 13/9/9 6/10/10
f 13/9/9 5/6/6 6/10/10
f 8/11/11 13/9/9 7/12/12
f 15/13/13 14/4/4 13/9/9
f 2/14/14 15/13/13 8/11/11
f 15/13/13 10/15/15 16/1/1
f 32/16/16 20/17/17 27/18/18
f 30/19/19 19/20/20 21/21/21
f 32/16/16 28/22/22 30/19/19
f 17/23/23 29/24/24 22/25/25
f 29/24/24 21/21/21 22/25/25
f 24/26/26 29/24/24 23/27/27
f 31/28/28 30/19/19 29/24/24
f 18/29/29 31/28/28 24/26/26
f 25/30/30 32/16/16 31/28/28
f 48/31/31 36/32/32 43/33/33
f 37/34/34 44/35/35 35/36/36
f 46/37/37 43/33/33 44/35/35
f 33/38/38 45/39/39 38/40/40
f 38/40/40 46/37/37 37/34/34
f 39/41/41 47/42/42 45/39/39
f 45/39/39 48/31/31 46/37/37
f 40/43/43 41/44/44 47/42/42
f 47/42/42 42/45/45 48/31/31
f 64/46/46 52/47/47 59/48/48
f 53/49/49 60/50/50 51/51/51
f 62/52/52 59/48/48 60/50/50
f 49/53/53 61/54/54 54/55/55
f 54/55/55 62/52/52 53/49/49
f 55/56/56 63/57/57 61/54/54
f 61/54/54 64/46/46 62/52/52
f 56/58/58 57/59/59 63/57/57
f 63/57/57 58/60/60 64/46/46
f 16/1/1 10/15/15 4/2/2
f 14/4/4 12/7/7 3/5/5
f 14/4/4 16/1/1 11/3/3
f 1/8/8 7/12/12 13/9/9
f 13/9/9 14/4/4 5/6/6
f 8/11/11 15/13/13 13/9/9
f 15/13/13 16/1/1 14/4/4
f 2/14/14 9/61/61 15/13/13
f 15/13/13 9/61/61 10/15/15
f 32/16/16 26/62/62 20/17/17
f 30/19/19 28/22/22 19/20/20
f 32/16/16 27/18/18 28/22/22
f 17/23/23 23/27/27 29/24/24
f 29/24/24 30/19/19 21/21/21
f 24/26/26 31/28/28 29/24/24
f 31/28/28 32/16/16 30/19/19
f 18/29/29 25/30/30 31/28/28
f 25/30/30 26/62/62 32/16/16
f 48/31/31 42/45/45 36/32/32
f 37/34/34 46/37/37 44/35/35
f 46/37/37 48/31/31 43/33/33
f 33/38/38 39/41/41 45/39/39
f 38/40/40 45/39/39 46/37/37
f 39/41/41 40/43/43 47/42/42
f 45/39/39 47/42/42 48/31/31
f 40/43/43 34/63/63 41/44/44
f 47/42/42 41/44/44 42/45/45
f 64/46/46 58/60/60 52/47/47
f 53/49/49 62/52/52 60/50/50
f 62/52/52 64/46/46 59/48/48
f 49/53/53 55/56/56 61/54/54
f 54/55/55 61/54/54 62/52/52
f 55/56/56 56/58/58 63/57/57
f 61/54/54 63/57/57 64/46/46
f 56/58/58 50/64/64 57/59/59
f 63/57/57 57/59/59 58/60/60
