# Blender v3.4.1 OBJ File: 'collectibles.blend'
# www.blender.org
o Flower_Center_Plane.008
v 0.162332 -0.057221 0.117939
v -0.062004 -0.057221 0.190832
v -0.200652 -0.057220 -0.000000
v -0.062004 -0.057221 -0.190832
v 0.162332 -0.057221 -0.117939
v 0.090468 0.146386 0.278438
v -0.236854 0.146385 0.172082
v -0.236854 0.146385 -0.172082
v 0.090468 0.146386 -0.278438
v 0.292767 0.146384 0.000000
v 0.000000 0.327324 0.000000
v 0.058971 -0.074835 0.181491
v 0.190832 -0.074835 0.000000
v -0.154386 -0.074835 0.112168
v -0.154386 -0.074835 -0.112168
v 0.058971 -0.074835 -0.181491
v 0.311304 0.000000 0.101147
v 0.311304 0.000000 -0.101147
v 0.000000 0.000000 0.327323
v 0.192396 0.000000 0.264810
v -0.311304 0.000000 0.101147
v -0.192396 0.000000 0.264810
v -0.192396 0.000000 -0.264810
v -0.311304 0.000000 -0.101147
v 0.192396 0.000000 -0.264810
v 0.000000 0.000000 -0.327323
v 0.225261 0.172086 0.163661
v -0.086043 0.172086 0.264809
v -0.278437 0.172086 -0.000000
v -0.086043 0.172086 -0.264809
v 0.225261 0.172086 -0.163661
v 0.053176 0.278439 0.163660
v 0.172084 0.278438 0.000000
v -0.139218 0.278439 0.101147
v -0.139218 0.278439 -0.101147
v 0.053176 0.278439 -0.163660
vt 0.949790 0.175502
vt 0.934020 0.117367
vt 0.987173 0.124646
vt 0.901373 0.269424
vt 0.934020 0.232346
vt 0.945650 0.308880
vt 0.823033 0.225778
vt 0.859514 0.261898
vt 0.811278 0.298095
vt 0.823034 0.104881
vt 0.813468 0.165182
vt 0.769755 0.107198
vt 0.901374 0.073810
vt 0.859515 0.075857
vt 0.878465 0.000000
vt 0.987173 0.228330
vt 0.878464 0.335528
vt 0.769755 0.210882
vt 0.811279 0.026648
vt 0.945651 0.037433
vt 0.920202 0.520508
vt 0.912694 0.595964
vt 0.844591 0.560459
vt 0.464812 0.832056
vt 0.458040 0.890446
vt 0.385627 0.865040
vt 0.459785 0.668521
vt 0.479212 0.582569
vt 0.537050 0.665128
vt 0.827212 0.418442
vt 0.881772 0.457527
vt 0.812542 0.499355
vt 0.920203 0.686331
vt 0.889807 0.750795
vt 0.844592 0.657926
vt 0.114990 0.634229
vt 0.056329 0.684147
vt 0.057241 0.597488
vt 0.114990 0.719822
vt 0.769755 0.423956
vt 0.000000 0.613050
vt 0.548908 0.745997
vt 0.479212 0.750763
vt 0.023847 0.519192
vt 0.548908 0.577805
vt 0.479959 0.519956
vt 0.094914 0.532280
vt 0.385627 0.937316
vt 0.464812 0.955022
vt 0.985855 0.746229
vt 0.962967 0.803593
vt 0.812542 0.335528
vt 0.881772 0.356276
vt 0.397485 0.802000
vt 0.385627 0.721130
vt 0.385627 0.617179
vt 0.397485 0.529855
vt 0.547774 0.851486
vt 0.547774 0.923764
vt 1.000000 0.553070
vt 1.000000 0.650539
vt 0.530819 0.802000
vt 0.530819 0.991225
vn 0.3322 -0.9118 0.2413
vn 0.2873 -0.9578 -0.0000
vn 0.4335 -0.8870 0.1592
vn -0.1269 -0.9118 0.3905
vn 0.0888 -0.9578 0.2732
vn -0.0174 -0.8870 0.4615
vn -0.4106 -0.9118 0.0000
vn -0.2324 -0.9578 0.1689
vn -0.4443 -0.8870 0.1260
vn -0.1269 -0.9118 -0.3905
vn -0.2324 -0.9578 -0.1689
vn -0.2572 -0.8870 -0.3836
vn 0.3322 -0.9118 -0.2413
vn 0.0888 -0.9578 -0.2732
vn 0.2853 -0.8870 -0.3631
vn 0.2853 -0.8870 0.3631
vn -0.2572 -0.8870 0.3836
vn -0.4443 -0.8870 -0.1260
vn -0.0174 -0.8870 -0.4615
vn 0.4335 -0.8870 -0.1592
vn 0.2764 0.4472 0.8506
vn 0.6882 0.5257 0.5000
vn 0.1625 0.8507 0.5000
vn -0.7236 0.4472 0.5257
vn -0.2629 0.5257 0.8090
vn -0.4253 0.8507 0.3090
vn -0.7236 0.4472 -0.5257
vn -0.8506 0.5257 0.0000
vn -0.4253 0.8507 -0.3090
vn 0.2764 0.4472 -0.8506
vn -0.2629 0.5257 -0.8090
vn 0.1625 0.8507 -0.5000
vn 0.8944 0.4472 0.0000
vn 0.6882 0.5257 -0.5000
vn 0.5257 0.8507 0.0000
vn 0.0000 1.0000 0.0000
vn 0.9225 0.2217 -0.3160
vn 0.5856 0.2217 -0.7797
vn -0.0155 0.2217 -0.9750
vn -0.5606 0.2217 -0.7979
vn -0.9320 0.2217 -0.2866
vn -0.9320 0.2217 0.2866
vn -0.5606 0.2217 0.7979
vn -0.0155 0.2217 0.9750
vn 0.5856 0.2217 0.7797
vn 0.9225 0.2217 0.3160
s 1
f 1/1/1 13/2/2 17/3/3
f 2/4/4 12/5/5 19/6/6
f 3/7/7 14/8/8 21/9/9
f 4/10/10 15/11/11 23/12/12
f 5/13/13 16/14/14 25/15/15
f 1/1/1 17/3/3 20/16/16
f 2/4/4 19/6/6 22/17/17
f 3/7/7 21/9/9 24/18/18
f 4/10/10 23/12/12 26/19/19
f 5/13/13 25/15/15 18/20/20
f 6/21/21 27/22/22 32/23/23
f 7/24/24 28/25/25 34/26/26
f 8/27/27 29/28/28 35/29/29
f 9/30/30 30/31/31 36/32/32
f 10/33/33 31/34/34 33/35/35
f 33/36/35 36/37/32 11/38/36
f 33/36/35 31/39/34 36/37/32
f 31/40/34 9/30/30 36/32/32
f 36/37/32 35/41/29 11/38/36
f 36/42/32 30/43/31 35/29/29
f 30/43/31 8/27/27 35/29/29
f 35/41/29 34/44/26 11/38/36
f 35/29/29 29/28/28 34/45/26
f 29/28/28 7/46/24 34/45/26
f 34/44/26 32/47/23 11/38/36
f 34/26/26 28/25/25 32/48/23
f 28/25/25 6/49/21 32/48/23
f 32/47/23 33/36/35 11/38/36
f 32/23/23 27/22/22 33/35/35
f 27/22/22 10/33/33 33/35/35
f 18/50/37 31/34/34 10/33/33
f 18/50/37 25/51/38 31/34/34
f 25/52/38 9/30/30 31/40/34
f 26/53/39 30/31/31 9/30/30
f 26/54/39 23/55/40 30/43/31
f 23/55/40 8/27/27 30/43/31
f 24/56/41 29/28/28 8/27/27
f 24/56/41 21/57/42 29/28/28
f 21/57/42 7/46/24 29/28/28
f 22/58/43 28/25/25 7/24/24
f 22/58/43 19/59/44 28/25/25
f 19/59/44 6/49/21 28/25/25
f 20/60/45 27/22/22 6/21/21
f 20/60/45 17/61/46 27/22/22
f 17/61/46 10/33/33 27/22/22
f 25/52/38 26/53/39 9/30/30
f 25/15/15 16/14/14 26/19/19
f 16/14/14 4/10/10 26/19/19
f 23/55/40 24/56/41 8/27/27
f 23/12/12 15/11/11 24/18/18
f 15/11/11 3/7/7 24/18/18
f 21/62/42 22/58/43 7/24/24
f 21/9/9 14/8/8 22/17/17
f 14/8/8 2/4/4 22/17/17
f 19/59/44 20/63/45 6/49/21
f 19/6/6 12/5/5 20/16/16
f 12/5/5 1/1/1 20/16/16
f 17/61/46 18/50/37 10/33/33
f 17/3/3 13/2/2 18/20/20
f 13/2/2 5/13/13 18/20/20
f 14/8/8 15/11/11 16/14/14
f 13/2/2 1/1/1 12/5/5
f 12/5/5 2/4/4 14/8/8
f 14/8/8 3/7/7 15/11/11
f 15/11/11 4/10/10 16/14/14
f 16/14/14 5/13/13 13/2/2
f 13/2/2 12/5/5 16/14/14
f 12/5/5 14/8/8 16/14/14
