# Blender v3.4.1 OBJ File: ''
# www.blender.org
o Cube.001
v -0.994858 -1.000000 0.979711
v 0.994857 1.000000 0.979712
v -0.994858 1.000000 0.979711
v 0.994858 -1.000000 -0.979711
v 0.994858 1.000000 -0.979711
v 0.994857 -1.000000 0.979712
v -0.994857 -1.000000 -0.979712
v -0.994857 1.000000 -0.979712
vt 0.200000 1.000000
vt 0.100000 0.000000
vt 0.200000 0.000000
vt 0.225000 1.000000
vt 0.250000 0.000000
vt 0.250000 1.000000
vt 0.250000 0.200000
vt 0.275000 0.100000
vt 0.275000 0.200000
vt 0.100000 1.000000
vt 0.000000 0.000000
vt 0.100000 0.000000
vt 0.250000 0.100000
vt 0.275000 0.000000
vt 0.275000 0.100000
vt 0.225000 0.000000
vt 0.225000 1.000000
vt 0.100000 1.000000
vt 0.225000 0.000000
vt 0.250000 0.100000
vt 0.000000 1.000000
vt 0.250000 0.000000
vn -0.0000 -0.0000 1.0000
vn 1.0000 0.0000 0.0000
vn 0.0000 -1.0000 0.0000
vn 0.0000 0.0000 -1.0000
vn -0.0000 1.0000 -0.0000
vn -1.0000 -0.0000 -0.0000
s 1
f 1/1/1 2/2/1 3/3/1
f 2/4/2 4/5/2 5/6/2
f 6/7/3 7/8/3 4/9/3
f 8/10/4 4/11/4 7/12/4
f 3/13/5 5/14/5 8/15/5
f 1/1/6 8/16/6 7/17/6
f 1/1/1 6/18/1 2/2/1
f 2/4/2 6/19/2 4/5/2
f 6/7/3 1/20/3 7/8/3
f 8/10/4 5/21/4 4/11/4
f 3/13/5 2/22/5 5/14/5
f 1/1/6 3/3/6 8/16/6
