# Blender v3.4.1 OBJ File: ''
# www.blender.org
o Cube.002
v -1.000000 0.408744 -0.031274
v 0.906188 0.370399 0.031274
v 1.000000 0.408744 -0.031274
v -0.906188 -0.370399 0.031274
v 0.906188 -0.370399 0.031274
v -0.906188 0.370399 0.031274
v -1.000000 -0.408744 -0.031274
v 1.000000 -0.408744 -0.031274
vt 0.408744 0.000000
vt 0.427917 0.953094
vt 0.408744 1.000000
vt 0.798316 0.046906
vt 0.798316 0.953094
vt 0.427917 0.046906
vt 0.817488 0.000000
vt 0.817488 1.000000
vt 0.000000 1.000000
vt 0.408744 0.000000
vt 0.408744 1.000000
vt 0.000000 0.000000
vn 0.0000 0.8525 0.5227
vn 0.0000 0.0000 1.0000
vn -0.5547 0.0000 0.8320
vn 0.0000 -0.8525 0.5227
vn 0.5547 0.0000 0.8320
vn -0.0000 -0.0000 -1.0000
s 1
f 1/1/1 2/2/1 3/3/1
f 2/2/2 4/4/2 5/5/2
f 6/6/3 7/7/3 4/4/3
f 8/8/4 4/4/4 7/7/4
f 3/3/5 5/5/5 8/8/5
f 1/9/6 8/10/6 7/11/6
f 1/1/1 6/6/1 2/2/1
f 2/2/2 6/6/2 4/4/2
f 6/6/3 1/1/3 7/7/3
f 8/8/4 5/5/4 4/4/4
f 3/3/5 2/2/5 5/5/5
f 1/9/6 3/12/6 8/10/6
