# Blender v3.4.1 OBJ File: 'characters.blend'
# www.blender.org
o F_Hair_Cylinder.016
v 0.006822 1.079904 -0.252240
v 0.201580 1.107140 -0.180058
v 0.272001 1.170942 -0.024198
v 0.181622 1.222025 0.181176
v 0.006822 1.348642 0.211210
v -0.091042 1.281229 0.218218
v -0.181105 1.013027 0.093703
v -0.179432 1.107140 -0.180058
v 0.201980 1.172189 -0.214120
v 0.006822 1.143650 -0.289753
v 0.282818 1.241087 -0.031528
v 0.201980 1.292899 0.152632
v 0.006822 1.374505 0.207316
v -0.159379 1.274773 0.198227
v -0.274007 1.241087 0.038236
v -0.208032 1.172189 -0.214120
v 0.187453 1.250998 -0.228331
v 0.006822 1.224584 -0.298333
v 0.262273 1.314768 -0.059330
v 0.187453 1.378537 0.109670
v 0.006822 1.422601 0.164016
v -0.198991 1.256667 0.181259
v -0.277365 1.283799 0.070978
v -0.197057 1.287993 -0.213473
v 0.153206 1.338495 -0.224742
v 0.006822 1.317089 -0.281472
v 0.213840 1.390173 -0.087783
v 0.153206 1.441852 0.049175
v 0.006822 1.463258 0.105906
v -0.139562 1.441852 0.049175
v -0.200197 1.390173 -0.087783
v -0.139562 1.338495 -0.224742
v 0.100307 1.396555 -0.190110
v 0.006822 1.382884 -0.226339
v 0.139029 1.429558 -0.102644
v 0.100307 1.462561 -0.015179
v 0.006822 1.476232 0.021050
v -0.086663 1.462561 -0.015179
v -0.125386 1.429558 -0.102644
v -0.086663 1.396555 -0.190110
v 0.030214 1.450063 -0.135383
v 0.006822 1.446642 -0.144449
v 0.039903 1.458321 -0.113497
v 0.030214 1.466579 -0.091611
v 0.006822 1.470000 -0.082546
v -0.016570 1.466579 -0.091611
v -0.026260 1.458321 -0.113497
v -0.016570 1.450063 -0.135383
v -0.103969 0.874923 -0.117737
v 0.117612 0.874923 -0.117737
v 0.006822 0.919708 -0.160673
v 0.152255 0.883826 -0.117439
v 0.233371 0.973035 -0.049933
v -0.225212 0.991552 -0.053087
v -0.143555 0.883826 -0.117439
v 0.003647 1.316526 0.236650
v -0.030742 1.359467 0.188038
v 0.002698 1.309186 0.229675
v -0.033341 1.355561 0.174255
v 0.013129 1.318340 0.233451
v -0.006536 1.375125 0.182269
v 0.012180 1.311000 0.226476
v -0.009135 1.360193 0.166089
v -0.054787 1.356826 0.170900
v -0.052951 1.362950 0.141456
v -0.016074 1.370007 0.129015
v -0.012208 1.394748 0.154517
v 0.016287 1.286396 0.250780
v 0.016869 1.290899 0.255058
v 0.022103 1.287509 0.248818
v 0.022685 1.292012 0.253096
v 0.027814 1.260091 0.266551
v 0.028192 1.263015 0.269329
v 0.031591 1.260813 0.265277
v 0.031969 1.263738 0.268055
v 0.036501 1.237288 0.276740
v 0.036725 1.239019 0.278385
v 0.038737 1.237716 0.275986
v 0.038961 1.239447 0.277631
v 0.225923 1.207714 0.086002
v 0.255553 1.082311 0.047387
v 0.242372 1.092830 0.078911
v 0.252333 0.980109 0.110121
v 0.245592 0.985489 0.126244
v 0.250655 0.901550 0.114135
v 0.247270 0.904252 0.122231
v 0.006822 1.079904 -0.252240
v 0.201580 1.107140 -0.180058
v 0.272001 1.170942 -0.024198
v -0.181105 1.013027 0.093600
v -0.179432 1.107140 -0.180058
v 0.006822 1.374505 0.207316
v -0.159379 1.274773 0.198227
v -0.274007 1.241087 0.038236
v -0.208032 1.172189 -0.214120
v 0.006822 1.422601 0.164016
v -0.198991 1.256667 0.181259
v -0.277365 1.283799 0.070978
v -0.197057 1.287993 -0.213473
v 0.006822 1.463258 0.105906
v -0.139562 1.441852 0.049175
v -0.200197 1.390173 -0.087783
v -0.139562 1.338495 -0.224742
v -0.103969 0.874923 -0.117737
v 0.117612 0.874923 -0.117737
v 0.006822 0.919708 -0.160673
v 0.152255 0.883826 -0.117439
v 0.233371 0.973035 -0.049933
v -0.225212 0.991552 -0.053087
v -0.143555 0.883826 -0.117439
v 0.225923 1.207714 0.086002
v 0.255553 1.082311 0.047387
v 0.242372 1.092830 0.078911
v 0.252333 0.980109 0.110121
v 0.245592 0.985489 0.126244
v 0.250655 0.901550 0.114135
v 0.247270 0.904252 0.122231
vt 0.750000 1.000000
vt 0.875000 1.000000
vt 0.750000 1.000000
vt 0.500000 1.000000
vt 0.375000 1.000000
vt 0.375000 1.000000
vt 0.125000 1.000000
vt 0.000000 1.000000
vt 0.000000 1.000000
vt 1.000000 1.000000
vt 0.875000 1.000000
vt 0.687500 1.000000
vt 0.625000 1.000000
vt 0.500000 1.000000
vt 1.000000 1.000000
vt 0.875000 1.000000
vt 0.875000 1.000000
vt 0.625000 1.000000
vt 0.500000 1.000000
vt 0.750000 1.000000
vt 0.250000 1.000000
vt 0.125000 1.000000
vt 0.125000 1.000000
vt 0.375000 1.000000
vt 0.000000 1.000000
vt 0.250000 1.000000
vt 0.125000 1.000000
vt 0.125000 1.000000
vt 0.000000 1.000000
vt 0.250000 1.000000
vt 0.375000 1.000000
vt 0.625000 1.000000
vt 0.500000 1.000000
vt 0.750000 1.000000
vt 0.000000 1.000000
vt 0.000000 1.000000
vt 0.375000 1.000000
vt 0.750000 1.000000
vt 0.625000 1.000000
vt 1.000000 1.000000
vt 0.875000 1.000000
vt 0.250000 1.000000
vt 0.500000 1.000000
vt 0.010000 0.250000
vt 0.250000 0.010000
vt 0.490000 0.250000
vt 0.250000 1.000000
vt 0.500000 1.000000
vt 0.750000 1.000000
vt 0.125000 1.000000
vt 0.375000 1.000000
vt 0.625000 1.000000
vt 0.875000 1.000000
vt 1.000000 1.000000
vt 0.000000 1.000000
vt 0.125000 1.000000
vt 0.750000 1.000000
vt 0.875000 1.000000
vt 0.625000 0.000000
vt 0.375000 0.250000
vt 0.375000 0.000000
vt 0.625000 0.250000
vt 0.375000 0.500000
vt 0.625000 0.500000
vt 0.375000 0.750000
vt 0.625000 1.000000
vt 0.375000 1.000000
vt 0.375000 0.500000
vt 0.375000 0.250000
vt 0.625000 0.000000
vt 0.625000 0.250000
vt 0.875000 0.500000
vt 0.625000 0.750000
vt 0.625000 0.500000
vt 0.625000 0.750000
vt 0.625000 1.000000
vt 0.375000 0.750000
vt 0.375000 0.500000
vt 0.375000 0.000000
vt 0.375000 0.750000
vt 0.375000 0.250000
vt 0.375000 0.000000
vt 0.375000 0.000000
vt 0.375000 1.000000
vt 0.375000 0.500000
vt 0.125000 0.750000
vt 0.125000 0.500000
vt 0.375000 1.000000
vt 0.375000 0.750000
vt 0.375000 0.250000
vt 0.000000 0.000000
vt 0.000000 0.000000
vt 0.000000 0.000000
vt 0.000000 0.000000
vt 0.000000 0.000000
vt 0.000000 0.000000
vt 0.750000 1.000000
vt 0.687500 1.000000
vt 0.750000 1.000000
vt 0.687500 1.000000
vt 0.750000 1.000000
vt 0.125000 1.000000
vt 0.250000 1.000000
vt 0.125000 1.000000
vt 0.375000 1.000000
vt 0.500000 1.000000
vt 0.500000 1.000000
vt 0.250000 1.000000
vt 0.375000 1.000000
vt 0.375000 1.000000
vt 0.250000 1.000000
vt 1.000000 1.000000
vt 0.875000 1.000000
vt 1.000000 1.000000
vt 0.125000 1.000000
vt 0.000000 1.000000
vt 0.000000 1.000000
vt 0.750000 1.000000
vt 0.750000 1.000000
vt 0.000000 0.000000
vt 0.000000 0.000000
vt 0.000000 0.000000
vt 0.000000 0.000000
vt 0.000000 0.000000
vt 0.000000 0.000000
vt 0.750000 1.000000
vt 0.687500 1.000000
vt 0.750000 1.000000
vt 0.687500 1.000000
vt 0.687500 1.000000
vt 0.687500 1.000000
vt 1.000000 1.000000
vt 0.625000 1.000000
vt 1.000000 1.000000
vt 0.419706 0.419706
vt 0.250000 0.490000
vt 0.080294 0.419706
vt 0.080294 0.080294
vt 0.419706 0.080294
vt 1.000000 1.000000
vt 0.875000 1.000000
vt 0.875000 0.750000
vt 0.375000 1.000000
vt 0.687500 1.000000
vt 0.125000 1.000000
vt 0.500000 1.000000
vt 0.875000 1.000000
vt 0.125000 1.000000
vt 0.875000 1.000000
vt 0.750000 1.000000
vn 0.9956 -0.0941 -0.0022
vn 0.6954 -0.1811 -0.6954
vn 0.9986 0.0512 0.0090
vn 0.0853 0.1791 0.9801
vn -0.4854 0.6663 0.5661
vn -0.2863 0.5005 0.8170
vn -0.4474 -0.5012 -0.7407
vn 0.0095 -0.3199 -0.9474
vn -0.0044 -0.4997 -0.8662
vn 0.7045 -0.3197 -0.6337
vn 0.9145 -0.0297 0.4036
vn 0.7204 0.2316 0.6538
vn 0.0190 0.4678 0.8836
vn 0.0060 0.0297 -0.9995
vn 0.5139 0.4613 -0.7233
vn 0.6553 0.1203 -0.7458
vn 0.6667 0.5561 0.4962
vn -0.0247 0.7358 0.6767
vn 0.9267 0.3516 -0.1327
vn -0.9841 0.0080 -0.1775
vn -0.7142 0.2549 -0.6518
vn -0.7124 -0.1894 -0.6757
vn -0.5275 0.6226 0.5780
vn -0.7298 0.6391 -0.2429
vn -0.2950 0.7461 -0.5969
vn -0.4265 0.5015 -0.7527
vn 0.0000 0.3862 -0.9224
vn -0.8566 0.4959 0.1423
vn -0.5021 0.8166 0.2849
vn 0.5163 0.8243 0.2322
vn -0.0000 0.9130 0.4080
vn 0.7267 0.6427 -0.2425
vn 0.0000 0.8537 -0.5208
vn 0.0000 0.7030 -0.7112
vn -0.2950 0.9544 -0.0448
vn 0.4172 0.8503 -0.3208
vn 0.2950 0.9544 -0.0448
vn 0.2950 0.7461 -0.5969
vn -0.4172 0.8503 -0.3208
vn -0.0000 0.9976 0.0695
vn -0.1859 0.9193 -0.3469
vn -0.0000 0.9849 -0.1729
vn 0.1859 0.9193 -0.3469
vn -0.1315 0.8729 -0.4699
vn -0.1315 0.9657 -0.2239
vn 0.1315 0.9657 -0.2239
vn 0.1315 0.8729 -0.4699
vn -0.0036 -0.4005 -0.9163
vn -0.2268 -0.3205 -0.9197
vn 0.8473 -0.2526 -0.4673
vn 0.7890 -0.3211 -0.5237
vn -0.6973 0.2758 0.6616
vn -0.6933 -0.6939 -0.1946
vn -0.5306 0.3577 0.7684
vn -0.1663 -0.9778 -0.1273
vn 0.6295 -0.4322 -0.6457
vn 0.7228 -0.5383 -0.4333
vn 0.7271 0.5943 0.3435
vn 0.5989 -0.3318 -0.7288
vn -0.7594 -0.5917 -0.2706
vn -0.0437 -0.9944 -0.0960
vn 0.0572 -0.9661 -0.2519
vn -0.5821 0.8017 -0.1359
vn -0.5166 0.8522 0.0826
vn -0.3450 0.6992 -0.6261
vn -0.3337 0.6904 0.6419
vn -0.5376 0.7767 0.3282
vn 0.6230 -0.7190 -0.3081
vn 0.9733 0.0696 -0.2188
vn 0.9833 0.0309 -0.1791
vn 0.7973 0.4373 0.4160
vn 0.5539 -0.2449 -0.7958
vn -0.5085 0.2667 0.8187
vn 0.7670 0.5107 0.3884
vn -0.7942 -0.5029 -0.3410
vn -0.2719 -0.2355 0.9330
vn -0.4903 0.1909 0.8504
vn 0.6222 -0.7149 -0.3191
vn -0.4088 -0.9122 0.0287
vn 0.8264 -0.0254 0.5625
vn -0.7939 -0.2790 -0.5403
vn -0.9320 -0.2737 -0.2377
vn -0.9035 -0.2916 0.3141
vn 0.9293 0.1368 0.3429
vn 0.9293 0.1396 0.3420
vn 0.9291 0.0866 0.3596
vn 0.9226 0.0000 0.3858
vn 0.8681 -0.3316 0.3693
vn 0.9841 -0.0080 0.1775
vn 0.9328 0.1009 0.3459
vn 0.5159 -0.6957 -0.4998
vn 0.3964 -0.6709 -0.6267
vn 0.4044 -0.6119 -0.6797
vn 0.8566 -0.4959 -0.1423
vn 0.5800 -0.6726 -0.4596
vn 0.5275 -0.6226 -0.5780
vn 0.8590 -0.4780 0.1833
vn 0.0036 0.4005 0.9163
vn -0.3108 0.4116 0.8567
vn 0.0074 0.4962 0.8682
vn 0.3214 0.4077 0.8547
vn -0.8838 0.2006 0.4227
vn -0.8473 0.2526 0.4673
vn -0.9225 0.1329 0.3624
vn 0.5507 0.5088 0.6617
vn 0.9320 0.2737 0.2377
vn 0.7939 0.2790 0.5403
vn 0.9034 0.2917 -0.3143
vn -0.9293 -0.1368 -0.3429
vn -0.9295 -0.1114 -0.3515
vn -0.9291 -0.0866 -0.3596
vn -0.9293 -0.1396 -0.3420
vn -0.9226 -0.0000 -0.3858
vn -0.9293 -0.0959 -0.3566
vn 0.6737 0.1013 0.7321
vn 0.2235 -0.3272 -0.9181
vn 0.9293 0.0959 0.3566
vn 0.6242 -0.5985 0.5022
vn 0.3236 -0.7753 -0.5424
vn -0.2235 0.3272 0.9181
vn 0.2268 0.3205 0.9197
vn -0.7890 0.3211 0.5237
s 1
f 3/1/1 9/2/2 11/3/3
f 5/4/4 14/5/5 6/6/6
f 8/7/7 10/8/8 1/9/9
f 1/10/9 9/2/2 2/11/10
f 80/12/11 11/3/3 12/13/12
f 5/4/4 12/13/12 13/14/13
f 18/15/14 25/16/15 17/17/16
f 13/14/13 20/18/17 21/19/18
f 9/2/2 19/20/19 11/3/3
f 15/21/20 24/22/21 16/23/22
f 14/5/5 21/19/18 22/24/23
f 11/3/3 20/18/17 12/13/12
f 9/2/2 18/15/14 17/17/16
f 16/23/22 18/25/14 10/8/8
f 31/26/24 40/27/25 32/28/26
f 18/25/14 32/28/26 26/29/27
f 23/30/28 30/31/29 31/26/24
f 21/19/18 28/32/30 29/33/31
f 17/17/16 27/34/32 19/20/19
f 24/22/21 31/26/24 32/28/26
f 21/19/18 30/31/29 22/24/23
f 19/20/19 28/32/30 20/18/17
f 40/27/25 42/35/33 34/36/34
f 29/33/31 38/37/35 30/31/29
f 28/32/30 35/38/36 36/39/37
f 25/16/15 34/40/34 33/41/38
f 32/28/26 34/36/34 26/29/27
f 30/31/29 39/42/39 31/26/24
f 28/32/30 37/43/40 29/33/31
f 25/16/15 35/38/36 27/34/32
f 47/44/41 45/45/42 43/46/43
f 38/37/35 47/47/41 39/42/39
f 36/39/37 45/48/42 37/43/40
f 33/41/38 43/49/43 35/38/36
f 39/42/39 48/50/44 40/27/25
f 38/37/35 45/48/42 46/51/45
f 35/38/36 44/52/46 36/39/37
f 34/40/34 41/53/47 33/41/38
f 2/11/10 51/54/48 1/10/9
f 8/7/7 51/55/48 49/56/49
f 2/11/10 53/57/50 52/58/51
f 57/59/52 58/60/53 56/61/54
f 59/62/55 62/63/56 58/60/53
f 63/64/57 60/65/58 62/63/56
f 60/65/58 57/66/52 56/67/54
f 58/60/53 70/68/59 68/69/60
f 59/62/55 64/70/61 65/71/62
f 65/72/63 67/73/64 66/74/65
f 61/75/66 64/76/67 57/66/52
f 63/64/57 65/71/62 66/74/68
f 61/75/69 66/74/68 67/73/70
f 70/68/59 75/77/71 74/78/72
f 58/60/53 69/79/73 56/61/54
f 62/63/56 71/80/74 70/68/59
f 56/67/54 71/80/74 60/65/58
f 72/81/75 77/82/76 73/83/77
f 68/69/60 73/83/77 69/79/73
f 69/84/73 75/77/71 71/80/74
f 68/69/60 74/78/72 72/81/75
f 78/85/78 77/86/76 76/87/79
f 73/88/77 79/89/80 75/77/71
f 72/81/75 78/85/78 76/90/79
f 74/78/72 79/89/80 78/85/78
f 8/91/7 55/92/81 54/93/82
f 54/93/82 7/94/83 15/95/20
f 15/95/20 16/96/22 54/93/82
f 16/96/22 8/91/7 54/93/82
f 80/12/11 81/97/84 3/1/1
f 82/98/85 83/99/86 81/97/84
f 83/99/86 86/100/87 85/101/87
f 99/102/88 94/103/89 95/104/90
f 93/105/91 96/106/92 92/107/93
f 98/108/94 101/109/95 97/110/96
f 99/102/88 102/111/97 98/108/94
f 101/109/95 96/106/92 97/110/96
f 106/112/98 88/113/99 87/114/100
f 91/115/101 106/116/98 87/117/100
f 88/113/102 108/118/103 89/119/104
f 91/120/105 109/121/106 110/122/107
f 109/121/106 94/123/89 90/124/108
f 94/123/89 109/121/106 95/125/90
f 95/125/90 109/121/106 91/120/105
f 112/126/109 111/127/110 89/119/110
f 114/128/111 113/129/112 112/126/109
f 114/128/111 117/130/113 115/131/114
f 3/1/1 2/11/10 9/2/2
f 5/4/4 13/14/13 14/5/5
f 8/7/7 16/23/22 10/8/8
f 1/10/9 10/132/8 9/2/2
f 12/13/12 4/133/115 80/12/11
f 80/12/11 3/1/1 11/3/3
f 5/4/4 4/133/115 12/13/12
f 18/15/14 26/134/27 25/16/15
f 13/14/13 12/13/12 20/18/17
f 9/2/2 17/17/16 19/20/19
f 15/21/20 23/30/28 24/22/21
f 14/5/5 13/14/13 21/19/18
f 11/3/3 19/20/19 20/18/17
f 9/2/2 10/132/8 18/15/14
f 16/23/22 24/22/21 18/25/14
f 31/26/24 39/42/39 40/27/25
f 18/25/14 24/22/21 32/28/26
f 23/30/28 22/24/23 30/31/29
f 21/19/18 20/18/17 28/32/30
f 17/17/16 25/16/15 27/34/32
f 24/22/21 23/30/28 31/26/24
f 21/19/18 29/33/31 30/31/29
f 19/20/19 27/34/32 28/32/30
f 40/27/25 48/50/44 42/35/33
f 29/33/31 37/43/40 38/37/35
f 28/32/30 27/34/32 35/38/36
f 25/16/15 26/134/27 34/40/34
f 32/28/26 40/27/25 34/36/34
f 30/31/29 38/37/35 39/42/39
f 28/32/30 36/39/37 37/43/40
f 25/16/15 33/41/38 35/38/36
f 43/46/43 41/135/47 42/136/33
f 42/136/33 48/137/44 43/46/43
f 48/137/44 47/44/41 43/46/43
f 47/44/41 46/138/45 45/45/42
f 45/45/42 44/139/46 43/46/43
f 38/37/35 46/51/45 47/47/41
f 36/39/37 44/52/46 45/48/42
f 33/41/38 41/53/47 43/49/43
f 39/42/39 47/47/41 48/50/44
f 38/37/35 37/43/40 45/48/42
f 35/38/36 43/49/43 44/52/46
f 34/40/34 42/140/33 41/53/47
f 2/11/10 50/141/116 51/54/48
f 8/7/7 1/9/9 51/55/48
f 2/11/10 3/1/1 53/57/50
f 57/59/52 59/62/55 58/60/53
f 59/62/55 63/64/57 62/63/56
f 63/64/57 61/75/69 60/65/58
f 60/65/58 61/75/66 57/66/52
f 58/60/53 62/63/56 70/68/59
f 59/62/55 57/59/52 64/70/61
f 65/72/63 64/142/67 67/73/64
f 61/75/66 67/73/64 64/76/67
f 63/64/57 59/62/55 65/71/62
f 61/75/69 63/64/57 66/74/68
f 70/68/59 71/80/74 75/77/71
f 58/60/53 68/69/60 69/79/73
f 62/63/56 60/65/58 71/80/74
f 56/67/54 69/84/73 71/80/74
f 72/81/75 76/90/79 77/82/76
f 68/69/60 72/81/75 73/83/77
f 69/84/73 73/88/77 75/77/71
f 68/69/60 70/68/59 74/78/72
f 78/85/78 79/89/80 77/86/76
f 73/88/77 77/143/76 79/89/80
f 72/81/75 74/78/72 78/85/78
f 74/78/72 75/77/71 79/89/80
f 80/12/11 82/98/85 81/97/84
f 82/98/85 84/144/117 83/99/86
f 83/99/86 84/144/117 86/100/87
f 99/102/88 98/108/94 94/103/89
f 93/105/91 97/110/96 96/106/92
f 98/108/94 102/111/97 101/109/95
f 99/102/88 103/145/118 102/111/97
f 101/109/95 100/146/119 96/106/92
f 106/112/98 105/147/120 88/113/99
f 91/115/101 104/148/121 106/116/98
f 88/113/102 107/149/122 108/118/103
f 112/126/109 113/129/112 111/127/110
f 114/128/111 115/131/114 113/129/112
f 114/128/111 116/150/113 117/130/113
