# Blender v3.4.1 OBJ File: 'characters.blend'
# www.blender.org
o F_Shorts_Cylinder.015
v 0.115706 -0.175015 -0.111443
v 0.110229 0.111122 -0.155858
v 0.048463 -0.176473 -0.085526
v 0.024579 0.109265 -0.117339
v 0.003785 -0.177249 -0.019901
v -0.031533 0.108277 -0.033750
v 0.016211 -0.176979 0.054725
v -0.015705 0.108620 0.061303
v 0.079927 -0.175791 0.103433
v 0.064656 0.110134 0.123345
v 0.151486 -0.174239 0.103433
v 0.155802 0.112110 0.123345
v 0.206303 -0.173051 0.054725
v 0.220639 0.115430 0.061303
v 0.218729 -0.172781 -0.019901
v 0.236466 0.115773 -0.033750
v 0.182949 -0.173557 -0.085526
v 0.195878 0.112979 -0.135706
v -0.122692 -0.175142 -0.111443
v -0.120480 0.110753 -0.149148
v -0.034431 -0.176600 -0.098333
v -0.015141 0.108895 -0.135706
v 0.022114 -0.177375 -0.019901
v 0.059096 0.107907 -0.033750
v 0.013325 -0.177106 0.054725
v 0.047575 0.108314 0.061303
v -0.065696 -0.175917 0.103433
v -0.050911 0.109828 0.123345
v -0.138153 -0.174366 0.103433
v -0.142932 0.111804 0.123345
v -0.192970 -0.173177 0.054725
v -0.200939 0.105856 0.061303
v -0.205396 -0.172908 -0.019901
v -0.216766 0.106199 -0.033750
v -0.173951 -0.173684 -0.088321
v -0.183008 0.117535 -0.117339
vt 1.000000 0.500000
vt 0.888889 0.500000
vt 0.888889 1.000000
vt 0.777778 0.500000
vt 0.777778 1.000000
vt 0.666667 0.500000
vt 0.666667 1.000000
vt 0.555556 0.500000
vt 0.555556 1.000000
vt 0.444444 0.500000
vt 0.444444 1.000000
vt 0.333333 0.500000
vt 0.333333 1.000000
vt 0.222222 0.500000
vt 0.404269 0.433851
vt 0.332085 0.024474
vt 0.042154 0.130000
vt 0.222222 1.000000
vt 0.111111 0.500000
vt 0.111111 1.000000
vt 0.000000 0.500000
vt 0.888889 0.500000
vt 1.000000 0.500000
vt 1.000000 1.000000
vt 0.888889 1.000000
vt 0.777778 1.000000
vt 0.777778 0.500000
vt 0.666667 1.000000
vt 0.666667 0.500000
vt 0.555556 1.000000
vt 0.444444 0.500000
vt 0.555556 0.500000
vt 0.444444 1.000000
vt 0.333333 1.000000
vt 0.222222 0.500000
vt 0.333333 0.500000
vt 0.250000 0.490000
vt 0.013646 0.291676
vt 0.332085 0.024474
vt 0.111111 0.500000
vt 0.222222 1.000000
vt 0.111111 1.000000
vt 0.000000 1.000000
vt 1.000000 1.000000
vt 0.486354 0.291676
vt 0.457846 0.130000
vt 0.013646 0.291676
vt 0.250000 0.490000
vt 0.095731 0.433851
vt 0.167915 0.024474
vt 0.000000 1.000000
vt 0.404269 0.433851
vt 0.486354 0.291676
vt 0.457846 0.130000
vt 0.042154 0.130000
vt 0.167915 0.024474
vt 0.095731 0.433851
vt 0.000000 0.500000
vn -0.0161 -0.1637 -0.9864
vn -0.6173 -0.1369 -0.7747
vn -0.6306 -0.1437 -0.7627
vn -0.9696 -0.1300 -0.2075
vn -0.9676 -0.1310 -0.2160
vn -0.8482 -0.1075 0.5186
vn -0.8558 -0.1073 0.5060
vn -0.3162 -0.0827 0.9451
vn -0.3215 -0.0823 0.9433
vn 0.3537 -0.0702 0.9327
vn 0.3750 -0.0655 0.9247
vn 0.8744 -0.0596 0.4816
vn 0.8856 -0.0545 0.4613
vn 0.9850 -0.0682 -0.1587
vn -0.0264 0.9996 -0.0032
vn -0.0270 0.9996 0.0056
vn -0.0302 0.9995 0.0050
vn 0.9895 -0.0805 -0.1197
vn 0.6766 -0.1372 -0.7235
vn 0.6455 -0.1440 -0.7501
vn 0.5155 -0.1431 -0.8448
vn -0.1400 -0.1284 -0.9818
vn -0.1766 -0.1251 -0.9763
vn 0.4975 -0.1456 -0.8552
vn 0.9580 -0.1358 -0.2526
vn 0.9600 -0.1358 -0.2448
vn 0.8437 -0.1138 0.5246
vn 0.8321 -0.1141 0.5427
vn 0.2763 -0.0797 0.9578
vn -0.3612 -0.0593 0.9306
vn 0.2682 -0.0808 0.9600
vn -0.3867 -0.0704 0.9195
vn -0.8882 -0.0465 0.4570
vn -0.9911 -0.0466 -0.1246
vn -0.8746 -0.0364 0.4835
vn 0.0315 0.9987 0.0397
vn -0.0017 0.9993 0.0366
vn -0.0006 0.9999 -0.0147
vn -0.7133 -0.0920 -0.6948
vn -0.9895 -0.0518 -0.1349
vn -0.7240 -0.0907 -0.6838
vn -0.0879 -0.1544 -0.9841
vn -0.0184 0.9998 -0.0005
vn -0.0274 0.9996 -0.0060
vn -0.0244 0.9996 -0.0129
vn -0.0168 0.9996 -0.0207
vn -0.0217 0.9993 0.0308
vn 0.0170 0.9999 -0.0013
vn 0.0150 0.9999 -0.0017
vn 0.0137 0.9999 -0.0026
vn -0.0214 0.9997 -0.0122
vn 0.0213 0.9931 -0.1152
vn 0.2129 0.9531 0.2152
s 1
f 1/1/1 3/2/2 4/3/3
f 3/2/2 5/4/4 6/5/5
f 5/4/4 7/6/6 8/7/7
f 7/6/6 9/8/8 10/9/9
f 10/9/9 9/8/8 11/10/10
f 12/11/11 11/10/10 13/12/12
f 14/13/13 13/12/12 15/14/14
f 4/15/15 10/16/16 14/17/17
f 16/18/18 15/14/14 17/19/19
f 18/20/20 17/19/19 1/21/1
f 21/22/21 19/23/22 20/24/23
f 21/22/21 22/25/24 24/26/25
f 23/27/26 24/26/25 26/28/27
f 25/29/28 26/28/27 28/30/29
f 29/31/30 27/32/31 28/30/29
f 29/31/30 30/33/32 32/34/33
f 33/35/34 31/36/35 32/34/33
f 20/37/36 34/38/37 28/39/38
f 35/40/39 33/35/34 34/41/40
f 35/40/39 36/42/41 20/43/23
f 1/1/1 4/3/3 2/44/42
f 3/2/2 6/5/5 4/3/3
f 5/4/4 8/7/7 6/5/5
f 7/6/6 10/9/9 8/7/7
f 10/9/9 11/10/10 12/11/11
f 12/11/11 13/12/12 14/13/13
f 14/13/13 15/14/14 16/18/18
f 6/45/43 8/46/43 4/15/15
f 4/15/15 16/47/44 2/48/45
f 8/46/43 10/16/16 4/15/15
f 2/48/45 16/47/44 18/49/46
f 16/47/44 4/15/15 14/17/17
f 14/17/17 10/16/16 12/50/47
f 16/18/18 17/19/19 18/20/20
f 18/20/20 1/21/1 2/51/42
f 21/22/21 20/24/23 22/25/24
f 21/22/21 24/26/25 23/27/26
f 23/27/26 26/28/27 25/29/28
f 25/29/28 28/30/29 27/32/31
f 29/31/30 28/30/29 30/33/32
f 29/31/30 32/34/33 31/36/35
f 33/35/34 32/34/33 34/41/40
f 20/37/36 28/39/38 22/52/48
f 22/52/48 28/39/38 24/53/49
f 24/53/49 28/39/38 26/54/50
f 28/39/38 32/55/51 30/56/52
f 32/55/51 28/39/38 34/38/37
f 34/38/37 20/37/36 36/57/53
f 35/40/39 34/41/40 36/42/41
f 35/40/39 20/43/23 19/58/22
