# Blender v3.4.1 OBJ File: 'characters.blend'
# www.blender.org
o Hair_Cylinder.016
v 0.006822 1.079904 -0.252240
v 0.201580 1.107140 -0.180058
v 0.272001 1.170942 -0.024198
v 0.181622 1.222025 0.181176
v 0.006822 1.348642 0.211210
v -0.091042 1.281229 0.218218
v -0.224686 1.104668 0.089093
v -0.179432 1.107140 -0.180058
v 0.201980 1.172189 -0.214120
v 0.006822 1.143650 -0.289753
v 0.282818 1.241087 -0.031528
v 0.201980 1.292899 0.152632
v 0.006822 1.374505 0.207316
v -0.159379 1.274773 0.179934
v -0.274007 1.241087 0.038236
v -0.208032 1.172189 -0.214120
v 0.187453 1.250998 -0.228331
v 0.006822 1.224584 -0.298333
v 0.262273 1.314768 -0.059330
v 0.187453 1.378537 0.109670
v 0.006822 1.422601 0.164016
v -0.198991 1.291393 0.164227
v -0.263685 1.283799 0.011043
v -0.197057 1.287993 -0.213473
v 0.153206 1.338495 -0.224742
v 0.006822 1.317089 -0.281472
v 0.213840 1.390173 -0.087783
v 0.153206 1.441852 0.049175
v 0.006822 1.463258 0.105906
v -0.139562 1.441852 0.049175
v -0.200197 1.390173 -0.087783
v -0.139562 1.338495 -0.224742
v 0.100307 1.396555 -0.190110
v 0.006822 1.382884 -0.226339
v 0.139029 1.429558 -0.102644
v 0.100307 1.462561 -0.015179
v 0.006822 1.476232 0.021050
v -0.086663 1.462561 -0.015179
v -0.125386 1.429558 -0.102644
v -0.086663 1.396555 -0.190110
v 0.030214 1.450063 -0.135383
v 0.006822 1.446642 -0.144449
v 0.039903 1.458321 -0.113497
v 0.030214 1.466579 -0.091611
v 0.006822 1.470000 -0.082546
v -0.016570 1.466579 -0.091611
v -0.026260 1.458321 -0.113497
v -0.016570 1.450063 -0.135383
v -0.103969 1.015680 -0.117737
v 0.117612 1.015680 -0.117737
v 0.006822 0.999479 -0.160673
v 0.152255 1.024583 -0.117439
v 0.233371 1.113792 -0.049933
v -0.225212 1.132309 -0.053087
v -0.143555 1.024583 -0.117439
v 0.003647 1.316526 0.236650
v -0.030742 1.359467 0.188038
v 0.002698 1.309186 0.229675
v -0.033341 1.355561 0.174255
v 0.013129 1.318340 0.233451
v -0.006536 1.375125 0.182269
v 0.012180 1.311000 0.226476
v -0.009135 1.360193 0.166089
v -0.054787 1.356826 0.170900
v -0.052951 1.362950 0.141456
v -0.016074 1.370007 0.129015
v -0.012208 1.394748 0.154517
v 0.016287 1.286396 0.250780
v 0.016869 1.290899 0.255058
v 0.022103 1.287509 0.248818
v 0.022685 1.292012 0.253096
v 0.027814 1.260091 0.266551
v 0.028192 1.263015 0.269329
v 0.031591 1.260813 0.265277
v 0.031969 1.263738 0.268055
v 0.036501 1.237288 0.276740
v 0.036725 1.239019 0.278385
v 0.038737 1.237716 0.275986
v 0.038961 1.239447 0.277631
v 0.225923 1.207714 0.086002
v 0.255553 1.082311 0.047387
v 0.242372 1.092830 0.078911
vt 0.750000 1.000000
vt 0.875000 1.000000
vt 0.750000 1.000000
vt 0.500000 1.000000
vt 0.375000 1.000000
vt 0.375000 1.000000
vt 0.125000 1.000000
vt 0.000000 1.000000
vt 0.000000 1.000000
vt 1.000000 1.000000
vt 0.875000 1.000000
vt 0.687500 1.000000
vt 0.625000 1.000000
vt 0.500000 1.000000
vt 1.000000 1.000000
vt 0.875000 1.000000
vt 0.875000 1.000000
vt 0.625000 1.000000
vt 0.500000 1.000000
vt 0.750000 1.000000
vt 0.125000 1.000000
vt 0.250000 1.000000
vt 0.125000 1.000000
vt 0.375000 1.000000
vt 0.000000 1.000000
vt 0.250000 1.000000
vt 0.125000 1.000000
vt 0.125000 1.000000
vt 0.000000 1.000000
vt 0.375000 1.000000
vt 0.625000 1.000000
vt 0.500000 1.000000
vt 0.750000 1.000000
vt 0.000000 1.000000
vt 0.000000 1.000000
vt 0.375000 1.000000
vt 0.750000 1.000000
vt 0.625000 1.000000
vt 1.000000 1.000000
vt 0.875000 1.000000
vt 0.250000 1.000000
vt 0.500000 1.000000
vt 0.010000 0.250000
vt 0.250000 0.010000
vt 0.490000 0.250000
vt 0.250000 1.000000
vt 0.500000 1.000000
vt 0.750000 1.000000
vt 0.125000 1.000000
vt 0.375000 1.000000
vt 0.625000 1.000000
vt 0.875000 1.000000
vt 0.875000 1.000000
vt 1.000000 1.000000
vt 0.125000 1.000000
vt 0.750000 1.000000
vt 0.875000 1.000000
vt 0.625000 0.000000
vt 0.375000 0.250000
vt 0.375000 0.000000
vt 0.625000 0.250000
vt 0.375000 0.500000
vt 0.625000 0.500000
vt 0.375000 0.750000
vt 0.625000 1.000000
vt 0.375000 1.000000
vt 0.375000 0.500000
vt 0.375000 0.250000
vt 0.625000 0.000000
vt 0.625000 0.250000
vt 0.875000 0.500000
vt 0.625000 0.750000
vt 0.625000 0.500000
vt 0.625000 0.750000
vt 0.625000 1.000000
vt 0.375000 0.750000
vt 0.375000 0.500000
vt 0.375000 0.000000
vt 0.375000 0.750000
vt 0.375000 0.250000
vt 0.375000 0.000000
vt 0.375000 0.000000
vt 0.375000 1.000000
vt 0.375000 0.500000
vt 0.125000 0.750000
vt 0.125000 0.500000
vt 0.375000 1.000000
vt 0.375000 0.750000
vt 0.375000 0.250000
vt 0.000000 0.000000
vt 0.000000 0.000000
vt 0.000000 0.000000
vt 0.000000 0.000000
vt 0.000000 0.000000
vt 0.000000 0.000000
vt 0.750000 1.000000
vt 1.000000 1.000000
vt 0.625000 1.000000
vt 1.000000 1.000000
vt 0.250000 1.000000
vt 0.419706 0.419706
vt 0.250000 0.490000
vt 0.080294 0.419706
vt 0.080294 0.080294
vt 0.419706 0.080294
vt 1.000000 1.000000
vt 0.000000 1.000000
vt 0.875000 0.750000
vt 0.375000 1.000000
vt 0.687500 1.000000
vn 0.9885 -0.1431 0.0488
vn 0.6954 -0.1811 -0.6954
vn 0.9986 0.0512 0.0090
vn 0.0254 0.1992 0.9796
vn -0.3083 0.2895 0.9062
vn -0.4124 0.6636 0.6242
vn -0.6399 -0.5887 -0.4938
vn 0.0095 -0.3199 -0.9474
vn -0.0024 -0.6276 -0.7785
vn 0.6966 -0.4948 -0.5196
vn 0.9145 -0.0297 0.4036
vn 0.7204 0.2316 0.6538
vn 0.0094 0.4536 0.8912
vn 0.0060 0.0297 -0.9995
vn 0.5139 0.4613 -0.7233
vn 0.6553 0.1203 -0.7458
vn 0.6667 0.5561 0.4962
vn -0.0153 0.7380 0.6746
vn 0.9267 0.3516 -0.1327
vn -0.7335 -0.2385 -0.6365
vn -0.9432 0.3237 -0.0748
vn -0.7119 0.2553 -0.6542
vn -0.5611 0.5339 0.6325
vn -0.7345 0.6411 -0.2226
vn -0.2950 0.7461 -0.5969
vn -0.4265 0.5015 -0.7527
vn 0.0000 0.3862 -0.9224
vn -0.5256 0.8063 0.2713
vn 0.5163 0.8243 0.2322
vn -0.0000 0.9130 0.4080
vn 0.7267 0.6427 -0.2425
vn 0.0000 0.8537 -0.5208
vn 0.0000 0.7030 -0.7112
vn -0.2950 0.9544 -0.0448
vn 0.4172 0.8503 -0.3208
vn 0.2950 0.9544 -0.0448
vn 0.2950 0.7461 -0.5969
vn -0.4172 0.8503 -0.3208
vn -0.0000 0.9976 0.0695
vn -0.1859 0.9193 -0.3469
vn -0.0000 0.9849 -0.1729
vn 0.1859 0.9193 -0.3469
vn -0.1315 0.8729 -0.4699
vn -0.1315 0.9657 -0.2239
vn 0.1315 0.9657 -0.2239
vn 0.1315 0.8729 -0.4699
vn 0.3331 -0.7144 -0.6154
vn 0.0000 -0.7513 -0.6599
vn -0.3434 -0.7057 -0.6198
vn 0.8336 -0.5232 -0.1769
vn 0.7881 -0.5938 -0.1622
vn -0.8899 -0.3602 0.2798
vn -0.8972 -0.2447 0.3677
vn -0.8963 -0.2392 0.3735
vn -0.0250 -0.9828 -0.1828
vn -0.0786 -0.7490 -0.6579
vn 0.9766 0.0554 -0.2077
vn 0.9571 0.1242 -0.2618
vn 0.9569 0.1253 -0.2619
vn 0.0684 0.6902 0.7204
vn -0.3230 0.7396 0.5904
vn 0.1016 0.7056 0.7013
vn -0.1333 -0.6389 -0.7576
vn -0.0437 -0.9944 -0.0960
vn 0.0572 -0.9661 -0.2519
vn -0.5821 0.8017 -0.1359
vn -0.5166 0.8522 0.0826
vn -0.3450 0.6992 -0.6261
vn -0.3337 0.6904 0.6419
vn -0.5376 0.7767 0.3282
vn 0.0237 -0.8981 -0.4391
vn 0.0920 -0.9582 -0.2709
vn 0.9733 0.0696 -0.2188
vn 0.9835 0.0279 -0.1788
vn 0.9833 0.0309 -0.1791
vn 0.9472 0.1480 -0.2845
vn 0.9436 0.1557 -0.2922
vn 0.9435 0.1559 -0.2923
vn -0.9146 -0.2101 0.3455
vn 0.9480 0.1463 -0.2828
vn 0.1632 0.5687 0.8062
vn -0.9201 -0.2007 0.3364
vn -0.9203 -0.2004 0.3361
vn -0.9200 -0.2009 0.3365
vn -0.9156 -0.2085 0.3439
vn 0.2032 0.4609 0.8639
vn -0.1846 -0.5131 -0.8382
vn 0.3494 -0.6687 0.6563
vn 0.3493 -0.6687 0.6563
vn 0.2196 0.4119 0.8844
vn -0.2026 -0.4628 -0.8630
vn 0.9434 0.1562 -0.2926
vn -0.8346 -0.5137 -0.1991
vn -0.9172 -0.3671 -0.1551
vn -0.9301 -0.3612 -0.0668
vn -0.9699 -0.1628 -0.1810
vn 0.9295 0.1114 0.3515
vn 0.6737 0.1013 0.7321
vn -0.8898 -0.3668 0.2717
vn -0.1013 -0.9520 0.2889
vn 0.3494 -0.6688 0.6563
s 1
f 3/1/1 9/2/2 11/3/3
f 5/4/4 14/5/5 6/6/6
f 8/7/7 10/8/8 1/9/9
f 1/10/9 9/2/2 2/11/10
f 80/12/11 11/3/3 12/13/12
f 5/4/4 12/13/12 13/14/13
f 18/15/14 25/16/15 17/17/16
f 13/14/13 20/18/17 21/19/18
f 9/2/2 19/20/19 11/3/3
f 16/21/20 23/22/21 24/23/22
f 13/14/13 22/24/23 14/5/5
f 11/3/3 20/18/17 12/13/12
f 9/2/2 18/15/14 17/17/16
f 16/21/20 18/25/14 10/8/8
f 31/26/24 40/27/25 32/28/26
f 18/25/14 32/28/26 26/29/27
f 23/22/21 30/30/28 31/26/24
f 21/19/18 28/31/29 29/32/30
f 17/17/16 27/33/31 19/20/19
f 24/23/22 31/26/24 32/28/26
f 21/19/18 30/30/28 22/24/23
f 19/20/19 28/31/29 20/18/17
f 40/27/25 42/34/32 34/35/33
f 29/32/30 38/36/34 30/30/28
f 28/31/29 35/37/35 36/38/36
f 25/16/15 34/39/33 33/40/37
f 32/28/26 34/35/33 26/29/27
f 30/30/28 39/41/38 31/26/24
f 28/31/29 37/42/39 29/32/30
f 25/16/15 35/37/35 27/33/31
f 47/43/40 45/44/41 43/45/42
f 38/36/34 47/46/40 39/41/38
f 36/38/36 45/47/41 37/42/39
f 33/40/37 43/48/42 35/37/35
f 39/41/38 48/49/43 40/27/25
f 38/36/34 45/47/41 46/50/44
f 35/37/35 44/51/45 36/38/36
f 34/39/33 41/52/46 33/40/37
f 1/10/9 50/53/47 51/54/48
f 1/9/9 49/55/49 8/7/7
f 2/11/10 53/56/50 52/57/51
f 57/58/52 58/59/53 56/60/54
f 59/61/55 62/62/56 58/59/56
f 63/63/57 60/64/58 62/62/59
f 60/64/60 57/65/61 56/66/62
f 58/59/56 70/67/63 68/68/63
f 59/61/55 64/69/64 65/70/65
f 65/71/66 67/72/67 66/73/68
f 61/74/69 64/75/70 57/65/61
f 63/63/71 65/70/65 66/73/72
f 61/74/73 66/73/74 67/72/75
f 70/67/76 75/76/77 74/77/78
f 58/59/53 69/78/79 56/60/54
f 62/62/59 71/79/80 70/67/76
f 56/66/62 71/79/81 60/64/60
f 72/80/82 77/81/83 73/82/84
f 68/68/85 73/82/84 69/78/79
f 69/83/81 75/76/86 71/79/81
f 68/68/63 74/77/87 72/80/87
f 78/84/88 77/85/88 76/86/89
f 73/87/86 79/88/90 75/76/86
f 72/80/87 78/84/91 76/89/91
f 74/77/78 79/88/92 78/84/92
f 8/90/7 55/91/93 54/92/94
f 54/92/94 7/93/95 15/94/96
f 15/94/96 16/95/20 54/92/94
f 16/95/20 8/90/7 54/92/94
f 80/12/11 81/96/97 3/1/1
f 3/1/1 2/11/10 9/2/2
f 5/4/4 13/14/13 14/5/5
f 8/7/7 16/21/20 10/8/8
f 1/10/9 10/97/8 9/2/2
f 12/13/12 4/98/98 80/12/11
f 80/12/11 3/1/1 11/3/3
f 5/4/4 4/98/98 12/13/12
f 18/15/14 26/99/27 25/16/15
f 13/14/13 12/13/12 20/18/17
f 9/2/2 17/17/16 19/20/19
f 16/21/20 15/100/96 23/22/21
f 13/14/13 21/19/18 22/24/23
f 11/3/3 19/20/19 20/18/17
f 9/2/2 10/97/8 18/15/14
f 16/21/20 24/23/22 18/25/14
f 31/26/24 39/41/38 40/27/25
f 18/25/14 24/23/22 32/28/26
f 23/22/21 22/24/23 30/30/28
f 21/19/18 20/18/17 28/31/29
f 17/17/16 25/16/15 27/33/31
f 24/23/22 23/22/21 31/26/24
f 21/19/18 29/32/30 30/30/28
f 19/20/19 27/33/31 28/31/29
f 40/27/25 48/49/43 42/34/32
f 29/32/30 37/42/39 38/36/34
f 28/31/29 27/33/31 35/37/35
f 25/16/15 26/99/27 34/39/33
f 32/28/26 40/27/25 34/35/33
f 30/30/28 38/36/34 39/41/38
f 28/31/29 36/38/36 37/42/39
f 25/16/15 33/40/37 35/37/35
f 43/45/42 41/101/46 42/102/32
f 42/102/32 48/103/43 43/45/42
f 48/103/43 47/43/40 43/45/42
f 47/43/40 46/104/44 45/44/41
f 45/44/41 44/105/45 43/45/42
f 38/36/34 46/50/44 47/46/40
f 36/38/36 44/51/45 45/47/41
f 33/40/37 41/52/46 43/48/42
f 39/41/38 47/46/40 48/49/43
f 38/36/34 37/42/39 45/47/41
f 35/37/35 43/48/42 44/51/45
f 34/39/33 42/106/32 41/52/46
f 1/10/9 2/11/10 50/53/47
f 1/9/9 51/107/48 49/55/49
f 2/11/10 3/1/1 53/56/50
f 57/58/52 59/61/99 58/59/53
f 59/61/55 63/63/71 62/62/56
f 63/63/57 61/74/73 60/64/58
f 60/64/60 61/74/69 57/65/61
f 58/59/56 62/62/56 70/67/63
f 59/61/55 57/58/100 64/69/64
f 65/71/66 64/108/70 67/72/67
f 61/74/69 67/72/67 64/75/70
f 63/63/71 59/61/55 65/70/65
f 61/74/73 63/63/57 66/73/74
f 70/67/76 71/79/80 75/76/77
f 58/59/53 68/68/85 69/78/79
f 62/62/59 60/64/58 71/79/80
f 56/66/62 69/83/81 71/79/81
f 72/80/82 76/89/83 77/81/83
f 68/68/85 72/80/82 73/82/84
f 69/83/81 73/87/86 75/76/86
f 68/68/63 70/67/63 74/77/87
f 78/84/88 79/88/101 77/85/88
f 73/87/86 77/109/90 79/88/90
f 72/80/87 74/77/87 78/84/91
f 74/77/78 75/76/77 79/88/92
f 80/12/11 82/110/97 81/96/97
