# Blender v3.4.1 OBJ File: 'characters.blend'
# www.blender.org
o Pants_Cylinder.015
v 0.123306 -0.275379 -0.097985
v 0.114016 0.153106 -0.137579
v 0.055255 -0.276855 -0.073210
v 0.031345 0.151313 -0.107482
v 0.019045 -0.277640 -0.010478
v -0.012643 0.150360 -0.031275
v 0.031620 -0.277367 0.060857
v 0.002634 0.150691 0.055385
v 0.087097 -0.276164 0.107418
v 0.070028 0.152152 0.111949
v 0.159516 -0.274594 0.107418
v 0.158004 0.154060 0.111949
v 0.214992 -0.273391 0.060857
v 0.220585 0.073351 0.055385
v 0.227567 -0.273118 -0.010478
v 0.235862 0.073683 -0.031275
v 0.191358 -0.273904 -0.073210
v 0.196686 0.154898 -0.107482
v 0.124394 -0.321326 -0.097900
v 0.056342 -0.323790 -0.073204
v 0.020133 -0.327081 -0.010554
v 0.032708 -0.329658 0.060736
v 0.088185 -0.330316 0.107307
v 0.160604 -0.328747 0.107370
v 0.216080 -0.325685 0.060894
v 0.228655 -0.322563 -0.010373
v 0.192446 -0.320842 -0.073086
v 0.134725 -0.798973 -0.089553
v 0.085902 -0.800741 -0.071835
v 0.059924 -0.803102 -0.026888
v 0.068946 -0.804951 0.024258
v 0.108747 -0.805423 0.057670
v 0.160702 -0.804297 0.057715
v 0.200503 -0.802101 0.024372
v 0.209525 -0.799861 -0.026758
v 0.183547 -0.798626 -0.071751
v -0.117959 -0.280428 -0.097985
v -0.108669 0.148056 -0.137579
v -0.041481 -0.281904 -0.073210
v -0.017572 0.146264 -0.107482
v -0.005272 -0.282689 -0.010478
v 0.026416 0.145310 -0.031275
v -0.017847 -0.282416 0.060857
v 0.011139 0.145642 0.055385
v -0.073323 -0.281214 0.107418
v -0.056255 0.147103 0.111949
v -0.154169 -0.279643 0.107418
v -0.152657 0.149010 0.111949
v -0.209645 -0.278441 0.060857
v -0.208646 0.067881 0.055385
v -0.222220 -0.278168 -0.010478
v -0.223923 0.068213 -0.031275
v -0.186011 -0.278953 -0.073210
v -0.191339 0.149849 -0.107482
v -0.119047 -0.326376 -0.097900
v -0.042569 -0.328840 -0.073204
v -0.006360 -0.332130 -0.010554
v -0.018935 -0.334707 0.060736
v -0.074411 -0.335365 0.107307
v -0.155256 -0.333797 0.107370
v -0.210733 -0.330735 0.060894
v -0.223308 -0.327613 -0.010373
v -0.187099 -0.325891 -0.073086
v -0.129377 -0.804023 -0.089553
v -0.072129 -0.805790 -0.071835
v -0.046151 -0.808151 -0.026888
v -0.055173 -0.810000 0.024258
v -0.094973 -0.810472 0.057670
v -0.155355 -0.809347 0.057715
v -0.195156 -0.807150 0.024372
v -0.204178 -0.804910 -0.026758
v -0.178200 -0.803675 -0.071751
vt 1.000000 0.500000
vt 0.888889 0.500000
vt 0.888889 1.000000
vt 0.777778 0.500000
vt 0.777778 1.000000
vt 0.666667 0.500000
vt 0.666667 1.000000
vt 0.555556 0.500000
vt 0.555556 1.000000
vt 0.444444 0.500000
vt 0.333333 0.500000
vt 0.333333 1.000000
vt 0.222222 0.500000
vt 0.167915 0.024474
vt 0.095731 0.433851
vt 0.486354 0.291676
vt 0.222222 1.000000
vt 0.111111 0.500000
vt 0.111111 1.000000
vt 0.000000 0.500000
vt 0.444444 0.500000
vt 0.333333 0.500000
vt 0.222222 0.500000
vt 0.333333 0.500000
vt 0.555556 0.500000
vt 0.666667 0.500000
vt 1.000000 0.500000
vt 0.777778 0.500000
vt 0.888889 0.500000
vt 0.111111 0.500000
vt 0.000000 0.500000
vt 0.957846 0.130000
vt 0.513646 0.291676
vt 0.667915 0.024474
vt 0.666667 0.500000
vt 0.555556 0.500000
vt 1.000000 0.500000
vt 0.888889 0.500000
vt 0.222222 0.500000
vt 0.444444 0.500000
vt 0.777778 0.500000
vt 0.111111 0.500000
vt 1.000000 0.500000
vt 1.000000 1.000000
vt 0.888889 1.000000
vt 0.888889 0.500000
vt 0.777778 1.000000
vt 0.777778 0.500000
vt 0.666667 1.000000
vt 0.666667 0.500000
vt 0.555556 1.000000
vt 0.555556 0.500000
vt 0.444444 1.000000
vt 0.444444 0.500000
vt 0.333333 1.000000
vt 0.222222 0.500000
vt 0.333333 0.500000
vt 0.095731 0.433851
vt 0.167915 0.024474
vt 0.250000 0.490000
vt 0.111111 0.500000
vt 0.222222 1.000000
vt 0.000000 0.500000
vt 0.111111 1.000000
vt 0.333333 0.500000
vt 0.333333 0.500000
vt 0.222222 0.500000
vt 0.555556 0.500000
vt 0.666667 0.500000
vt 1.000000 0.500000
vt 0.777778 0.500000
vt 0.888889 0.500000
vt 0.000000 0.500000
vt 0.111111 0.500000
vt 0.986354 0.291676
vt 0.832085 0.024474
vt 0.904269 0.433851
vt 0.555556 0.500000
vt 0.888889 0.500000
vt 0.222222 0.500000
vt 0.444444 0.500000
vt 0.777778 0.500000
vt 0.111111 0.500000
vt 0.444444 0.500000
vt 0.666667 0.500000
vt 1.000000 1.000000
vt 0.444444 1.000000
vt 0.404269 0.433851
vt 0.250000 0.490000
vt 0.013646 0.291676
vt 0.042154 0.130000
vt 0.457846 0.130000
vt 0.332085 0.024474
vt 0.000000 1.000000
vt 0.595731 0.433851
vt 0.904269 0.433851
vt 0.750000 0.490000
vt 0.986354 0.291676
vt 0.832085 0.024474
vt 0.542154 0.130000
vt 0.000000 0.500000
vt 0.486354 0.291676
vt 0.404269 0.433851
vt 0.457846 0.130000
vt 0.332085 0.024474
vt 0.013646 0.291676
vt 0.042154 0.130000
vt 0.000000 1.000000
vt 0.750000 0.490000
vt 0.667915 0.024474
vt 0.595731 0.433851
vt 0.542154 0.130000
vt 0.513646 0.291676
vt 0.957846 0.130000
vt 1.000000 0.500000
vt 0.000000 0.500000
vn 0.0008 -0.0474 -0.9989
vn -0.6433 -0.0565 -0.7636
vn -0.6345 -0.0968 -0.7668
vn -0.9842 -0.0515 -0.1693
vn -0.9800 -0.0814 -0.1814
vn -0.8634 -0.0357 0.5033
vn -0.8682 -0.0525 0.4934
vn -0.3403 -0.0161 0.9402
vn -0.3443 -0.0236 0.9386
vn 0.3418 0.0005 0.9398
vn 0.8642 0.0063 0.5031
vn 0.8844 0.2054 0.4192
vn 0.9857 -0.0061 -0.1681
vn -0.0217 0.9998 0.0000
vn 0.9757 0.1899 -0.1089
vn 0.6450 -0.0283 -0.7637
vn 0.7510 0.1337 -0.6466
vn 0.3407 -0.0458 0.9391
vn 0.8640 -0.0241 0.5029
vn 0.9856 -0.0060 -0.1690
vn 0.8659 -0.0663 0.4958
vn -0.3402 -0.0604 0.9384
vn -0.8631 -0.0612 0.5013
vn 0.0010 -0.0095 -1.0000
vn -0.9841 -0.0484 -0.1709
vn -0.6435 -0.0282 -0.7649
vn 0.6456 -0.0005 -0.7637
vn 0.0217 -0.9990 -0.0399
vn -0.8631 -0.1037 0.4943
vn -0.3401 -0.1123 0.9337
vn 0.0012 -0.0174 -0.9998
vn -0.6397 -0.0418 -0.7675
vn 0.9838 -0.0334 -0.1759
vn 0.3430 -0.0975 0.9343
vn -0.9812 -0.0759 -0.1776
vn 0.6422 -0.0141 -0.7664
vn -0.0186 -0.0467 -0.9987
vn -0.0164 -0.0916 -0.9957
vn 0.6229 -0.0974 -0.7762
vn 0.6295 -0.0564 -0.7750
vn 0.9800 -0.0814 -0.1814
vn 0.9842 -0.0515 -0.1693
vn 0.8682 -0.0525 0.4934
vn 0.8634 -0.0357 0.5033
vn 0.3445 -0.0237 0.9385
vn 0.3402 -0.0162 0.9402
vn -0.5133 0.1678 0.8417
vn -0.3434 0.0032 0.9392
vn -0.8961 0.1868 0.4027
vn -0.9858 0.0034 -0.1678
vn -0.8646 0.0146 0.5022
vn 0.0217 0.9998 0.0000
vn 0.0206 0.9998 -0.0006
vn 0.0208 0.9998 0.0001
vn -0.6470 -0.0242 -0.7621
vn -0.9816 0.1731 -0.0805
vn -0.7667 0.1136 -0.6319
vn -0.8640 -0.0241 0.5029
vn -0.8659 -0.0663 0.4958
vn -0.9856 -0.0060 -0.1690
vn 0.3401 -0.0603 0.9384
vn 0.8631 -0.0612 0.5013
vn -0.0191 -0.0087 -0.9998
vn 0.9841 -0.0484 -0.1709
vn 0.6299 -0.0276 -0.7761
vn -0.6456 -0.0005 -0.7637
vn -0.0217 -0.9990 -0.0399
vn -0.0195 -0.9990 -0.0396
vn 0.3398 -0.1123 0.9338
vn 0.6211 -0.0417 -0.7827
vn -0.9838 -0.0334 -0.1759
vn -0.3405 -0.0457 0.9391
vn 0.9812 -0.0759 -0.1776
vn -0.6422 -0.0141 -0.7664
vn -0.3432 -0.0975 0.9342
vn 0.8631 -0.1037 0.4943
vn 0.0020 -0.0920 -0.9958
vn 0.4945 0.1855 0.8491
vn 0.0203 0.9998 0.0000
vn 0.0192 0.9998 0.0014
vn 0.0204 0.9998 -0.0005
vn 0.0198 0.9998 -0.0023
vn -0.0199 -0.9990 -0.0396
vn -0.0258 -0.0169 -0.9995
s 1
f 1/1/1 3/2/2 4/3/3
f 3/2/2 5/4/4 6/5/5
f 5/4/4 7/6/6 8/7/7
f 7/6/6 9/8/8 10/9/9
f 10/9/9 9/8/8 11/10/10
f 11/10/10 13/11/11 14/12/12
f 14/12/12 13/11/11 15/13/13
f 12/14/14 18/15/14 6/16/14
f 16/17/15 15/13/13 17/18/16
f 18/19/17 17/18/16 1/20/1
f 11/10/10 24/21/18 25/22/19
f 26/23/20 25/22/19 34/24/21
f 9/8/8 23/25/22 24/21/18
f 9/8/8 7/6/6 22/26/23
f 3/2/2 1/1/1 19/27/24
f 7/6/6 5/4/4 21/28/25
f 5/4/4 3/2/2 20/29/26
f 17/18/16 27/30/27 19/31/24
f 15/13/13 26/23/20 27/30/27
f 13/11/11 25/22/19 26/23/20
f 31/32/28 35/33/28 33/34/28
f 22/26/23 31/35/29 32/36/30
f 19/27/24 28/37/31 29/38/32
f 27/30/27 26/23/20 35/39/33
f 23/25/22 32/36/30 33/40/34
f 20/29/26 29/38/32 30/41/35
f 19/31/24 27/30/27 36/42/36
f 25/22/19 24/21/18 33/40/34
f 21/28/25 30/41/35 31/35/29
f 37/43/37 38/44/38 40/45/39
f 39/46/40 40/45/39 42/47/41
f 41/48/42 42/47/41 44/49/43
f 43/50/44 44/49/43 46/51/45
f 45/52/46 46/51/45 48/53/47
f 47/54/48 48/53/47 50/55/49
f 51/56/50 49/57/51 50/55/49
f 54/58/52 48/59/53 38/60/54
f 53/61/55 51/56/50 52/62/56
f 37/63/37 53/61/55 54/64/57
f 47/54/48 49/57/51 61/65/58
f 70/66/59 61/65/58 62/67/60
f 59/68/61 45/52/46 47/54/48
f 58/69/62 43/50/44 45/52/46
f 55/70/63 37/43/37 39/46/40
f 57/71/64 41/48/42 43/50/44
f 56/72/65 39/46/40 41/48/42
f 53/61/55 37/63/37 55/73/63
f 51/56/50 53/61/55 63/74/66
f 49/57/51 51/56/50 62/67/60
f 66/75/67 68/76/68 65/77/68
f 58/69/62 59/68/61 68/78/69
f 55/70/63 56/72/65 65/79/70
f 71/80/71 62/67/60 63/74/66
f 68/78/69 59/68/61 60/81/72
f 56/72/65 57/71/64 66/82/73
f 72/83/74 63/74/66 55/73/63
f 69/84/75 60/81/72 61/65/58
f 57/71/64 58/69/62 67/85/76
f 1/1/1 4/3/3 2/86/77
f 3/2/2 6/5/5 4/3/3
f 5/4/4 8/7/7 6/5/5
f 7/6/6 10/9/9 8/7/7
f 10/9/9 11/10/10 12/87/78
f 11/10/10 14/12/12 12/87/78
f 14/12/12 15/13/13 16/17/15
f 6/16/14 18/15/14 4/88/14
f 4/88/14 18/15/14 2/89/14
f 18/15/17 12/14/78 16/90/15
f 16/90/15 12/14/78 14/91/12
f 12/14/14 8/92/14 10/93/14
f 8/92/14 12/14/14 6/16/14
f 16/17/15 17/18/16 18/19/17
f 18/19/17 1/20/1 2/94/77
f 11/10/10 25/22/19 13/11/11
f 26/23/20 34/24/21 35/39/33
f 9/8/8 24/21/18 11/10/10
f 9/8/8 22/26/23 23/25/22
f 3/2/2 19/27/24 20/29/26
f 7/6/6 21/28/25 22/26/23
f 5/4/4 20/29/26 21/28/25
f 17/18/16 19/31/24 1/20/1
f 15/13/13 27/30/27 17/18/16
f 13/11/11 26/23/20 15/13/13
f 36/95/28 29/96/28 28/97/28
f 29/96/28 31/32/28 30/98/28
f 31/32/28 33/34/28 32/99/28
f 33/34/28 35/33/28 34/100/28
f 35/33/28 29/96/28 36/95/28
f 29/96/28 35/33/28 31/32/28
f 22/26/23 32/36/30 23/25/22
f 19/27/24 29/38/32 20/29/26
f 27/30/27 35/39/33 36/42/36
f 23/25/22 33/40/34 24/21/18
f 20/29/26 30/41/35 21/28/25
f 19/31/24 36/42/36 28/101/31
f 25/22/19 33/40/34 34/24/21
f 21/28/25 31/35/29 22/26/23
f 37/43/37 40/45/39 39/46/40
f 39/46/40 42/47/41 41/48/42
f 41/48/42 44/49/43 43/50/44
f 43/50/44 46/51/45 45/52/46
f 45/52/46 48/53/47 47/54/48
f 47/54/48 50/55/49 49/57/51
f 51/56/50 50/55/49 52/62/56
f 38/60/54 42/102/79 40/103/80
f 42/102/79 48/59/53 44/104/81
f 44/104/81 48/59/53 46/105/82
f 48/59/47 52/106/56 50/107/49
f 42/102/79 38/60/54 48/59/53
f 52/106/56 48/59/47 54/58/57
f 53/61/55 52/62/56 54/64/57
f 37/63/37 54/64/57 38/108/38
f 47/54/48 61/65/58 60/81/72
f 70/66/59 62/67/60 71/80/71
f 59/68/61 47/54/48 60/81/72
f 58/69/62 45/52/46 59/68/61
f 55/70/63 39/46/40 56/72/65
f 57/71/64 43/50/44 58/69/62
f 56/72/65 41/48/42 57/71/64
f 53/61/55 55/73/63 63/74/66
f 51/56/50 63/74/66 62/67/60
f 49/57/51 62/67/60 61/65/58
f 65/77/68 68/76/68 64/109/83
f 64/109/83 69/110/83 72/111/67
f 68/76/68 69/110/83 64/109/83
f 72/111/67 70/112/67 71/113/67
f 70/112/67 72/111/67 69/110/83
f 68/76/68 66/75/67 67/114/67
f 58/69/62 68/78/69 67/85/76
f 55/70/63 65/79/70 64/115/84
f 71/80/71 63/74/66 72/83/74
f 68/78/69 60/81/72 69/84/75
f 56/72/65 66/82/73 65/79/70
f 72/83/74 55/73/63 64/116/84
f 69/84/75 61/65/58 70/66/59
f 57/71/64 67/85/76 66/82/73
