# Blender v3.4.1 OBJ File: 'characters.blend'
# www.blender.org
o Tank_Top_Cylinder.004
v 0.006923 0.627331 -0.203952
v 0.153340 0.627331 -0.163766
v 0.231248 0.679773 -0.062013
v 0.204191 0.670776 0.092395
v 0.084830 0.670776 0.167920
v -0.085322 0.670776 0.167920
v -0.190346 0.670776 0.092395
v -0.217402 0.679773 -0.062013
v -0.139495 0.627331 -0.163766
v 0.006923 0.479196 -0.216845
v 0.164331 0.479196 -0.173643
v 0.248086 0.479196 -0.064252
v 0.218998 0.479196 0.087705
v 0.090678 0.479196 0.168898
v -0.076833 0.479196 0.168898
v -0.205153 0.479196 0.087705
v -0.234241 0.479196 -0.064252
v -0.150486 0.479196 -0.173643
v 0.006923 0.124329 -0.191471
v 0.161182 0.124329 -0.149133
v 0.243262 0.124329 -0.041930
v 0.214756 0.124329 0.079977
v 0.089002 0.124329 0.159546
v -0.075157 0.124329 0.159546
v -0.200911 0.124329 0.079977
v -0.229417 0.124329 -0.041930
v -0.147337 0.124329 -0.149133
v 0.144510 0.670776 0.130157
v -0.109477 0.670776 0.145578
v 0.114816 0.772337 0.106318
v -0.090856 0.772337 0.105823
v 0.138112 0.772337 0.105823
v -0.114151 0.772337 0.106318
v -0.090856 0.847053 0.055193
v -0.114151 0.847053 0.055688
v -0.090856 0.871113 0.014817
v -0.114151 0.871113 0.015312
v -0.094457 0.883475 -0.026158
v -0.117753 0.883475 -0.025663
v -0.097987 0.893780 -0.081491
v -0.121283 0.893780 -0.080996
v -0.102241 0.890919 -0.112818
v -0.125537 0.890919 -0.112324
v -0.102241 0.837402 -0.139115
v -0.125537 0.837402 -0.138620
v -0.102241 0.685019 -0.164961
v -0.125537 0.685019 -0.164466
v -0.102241 0.607045 -0.163401
v -0.125537 0.607045 -0.162907
v 0.138112 0.847053 0.055193
v 0.114816 0.847053 0.055688
v 0.138112 0.871113 0.014817
v 0.114816 0.871113 0.015312
v 0.134510 0.883475 -0.026158
v 0.111214 0.883475 -0.025663
v 0.130980 0.893780 -0.081491
v 0.107684 0.893780 -0.080996
v 0.126726 0.890919 -0.112818
v 0.103430 0.890919 -0.112324
v 0.126726 0.837402 -0.139115
v 0.103430 0.837402 -0.138620
v 0.126726 0.685019 -0.164961
v 0.103430 0.685019 -0.164466
v 0.126726 0.607045 -0.163401
v 0.103430 0.607045 -0.162907
v 0.116331 0.655110 0.139175
v 0.136597 0.655110 0.127677
vt 0.388889 0.500000
vt 0.333333 0.500000
vt 0.444444 0.500000
vt 0.222222 0.500000
vt 0.333333 0.500000
vt 0.555556 0.500000
vt 0.555556 0.500000
vt 0.611111 0.500000
vt 0.666667 0.500000
vt 0.888889 0.500000
vt 1.000000 0.500000
vt 1.000000 0.500000
vt 0.777778 0.500000
vt 0.777778 0.500000
vt 0.888889 0.500000
vt 0.111111 0.500000
vt 0.000000 0.500000
vt 0.111111 0.500000
vt 0.222222 0.500000
vt 0.222222 0.500000
vt 0.333333 0.500000
vt 0.904269 0.433851
vt 0.957846 0.130000
vt 0.667915 0.024474
vt 0.555556 0.500000
vt 0.666667 0.500000
vt 1.000000 0.500000
vt 0.111111 0.500000
vt 0.888889 0.500000
vt 0.000000 0.500000
vt 0.444444 0.500000
vt 0.777778 0.500000
vt 0.444444 0.500000
vt 0.388889 0.500000
vt 0.444444 0.500000
vt 0.388889 0.500000
vt 0.388889 0.500000
vt 0.388889 0.500000
vt 0.444444 0.500000
vt 0.388889 0.500000
vt 0.444444 0.500000
vt 0.388889 0.500000
vt 0.444444 0.500000
vt 0.388889 0.500000
vt 0.444444 0.500000
vt 0.388889 0.500000
vt 0.388889 0.500000
vt 0.444444 0.500000
vt 0.388889 0.500000
vt 0.444444 0.500000
vt 0.388889 0.500000
vt 0.444444 0.500000
vt 0.388889 0.500000
vt 0.444444 0.500000
vt 0.388889 0.500000
vt 0.444444 0.500000
vt 0.388889 0.500000
vt 0.444444 0.500000
vt 0.388889 0.500000
vt 0.388889 0.500000
vt 0.444444 0.500000
vt 0.388889 0.500000
vt 0.444444 0.500000
vt 0.388889 0.500000
vt 0.444444 0.500000
vt 0.444444 0.500000
vt 0.666667 0.500000
vt 0.000000 0.500000
vt 0.595731 0.433851
vt 0.750000 0.490000
vt 0.986354 0.291676
vt 0.832085 0.024474
vt 0.542154 0.130000
vt 0.513646 0.291676
vt 0.444444 0.500000
vt 0.444444 0.500000
vt 0.444444 0.500000
vt 0.444444 0.500000
vt 0.388889 0.500000
vn -0.6027 0.1463 0.7844
vn -0.8302 0.0173 0.5573
vn -0.2790 -0.0100 0.9602
vn -0.9793 -0.0334 -0.1997
vn -0.8163 -0.0223 0.5773
vn 0.2736 0.0133 0.9618
vn 0.2805 -0.0065 0.9598
vn 0.5346 0.0206 0.8449
vn 0.8294 0.0188 0.5583
vn 0.5743 0.0871 -0.8140
vn 0.0000 0.0076 -1.0000
vn 0.0000 0.0867 -0.9962
vn 0.9772 0.0811 -0.1960
vn 0.9704 0.0310 -0.2394
vn 0.5578 0.0168 -0.8298
vn -0.5743 0.0871 -0.8140
vn -0.5578 0.0168 -0.8298
vn -0.9704 0.0310 -0.2394
vn -0.9772 0.0811 -0.1960
vn -0.8290 0.0504 0.5569
vn 0.0000 -1.0000 0.0000
vn 0.2787 -0.0266 0.9600
vn 0.8163 -0.0223 0.5773
vn 0.0000 -0.0713 -0.9975
vn -0.5628 -0.0619 -0.8243
vn 0.5628 -0.0619 -0.8243
vn -0.2787 -0.0266 0.9600
vn 0.9793 -0.0334 -0.1997
vn -0.0375 0.4714 0.8811
vn 0.0188 0.4648 0.8852
vn 0.0196 0.3817 0.9241
vn 0.0146 0.7258 0.6877
vn 0.0485 0.3842 0.9220
vn 0.0145 0.7288 0.6846
vn 0.0085 0.9158 0.4015
vn 0.0050 0.9713 0.2377
vn 0.0050 0.9722 0.2342
vn 0.0011 0.9986 0.0535
vn 0.0008 0.9992 0.0399
vn -0.0019 0.9959 -0.0907
vn -0.0190 0.4409 -0.8973
vn -0.0202 0.3078 -0.9512
vn -0.0202 0.3067 -0.9516
vn -0.0212 0.0740 -0.9970
vn -0.0212 -0.0200 -0.9996
vn 0.4315 0.2387 0.8699
vn -0.4601 0.1038 0.8818
vn 0.8240 0.0499 0.5644
vn 0.0086 0.9144 0.4048
vn -0.0212 0.0738 -0.9970
vn 0.4787 0.2427 0.8438
s 1
f 29/1/1 16/2/2 15/3/3
f 16/2/2 26/4/4 25/5/5
f 5/6/6 15/3/3 14/7/7
f 28/8/8 14/7/7 13/9/9
f 2/10/10 10/11/11 1/12/12
f 3/13/13 13/9/9 12/14/14
f 2/10/10 12/14/14 11/15/15
f 9/16/16 10/17/11 18/18/17
f 9/16/16 17/19/18 8/20/19
f 8/20/19 16/2/2 7/21/20
f 20/22/21 22/23/21 24/24/21
f 13/9/9 23/25/22 22/26/23
f 11/15/15 19/27/24 10/11/11
f 17/19/18 27/28/25 26/4/4
f 15/3/3 23/25/22 14/7/7
f 12/14/14 20/29/26 11/15/15
f 18/18/17 19/30/24 27/28/25
f 16/2/2 24/31/27 15/3/3
f 13/9/9 21/32/28 12/14/14
f 29/1/1 31/33/29 33/34/30
f 32/35/31 51/36/32 30/37/33
f 31/33/29 35/38/32 33/34/30
f 34/39/34 37/40/35 35/38/32
f 37/40/35 38/41/36 39/42/37
f 39/42/37 40/43/38 41/44/39
f 41/44/39 42/45/40 43/46/40
f 42/45/41 45/47/42 43/46/41
f 44/48/43 47/49/44 45/47/42
f 47/49/44 48/50/45 49/51/45
f 50/52/34 53/53/35 51/36/32
f 53/53/35 54/54/36 55/55/37
f 55/55/37 56/56/38 57/57/39
f 57/57/39 58/58/40 59/59/40
f 58/58/41 61/60/42 59/59/41
f 60/61/43 63/62/44 61/60/42
f 63/62/44 64/63/45 65/64/45
f 30/37/33 67/65/46 32/35/31
f 15/3/3 6/66/47 29/1/1
f 29/1/1 7/21/20 16/2/2
f 16/2/2 17/19/18 26/4/4
f 5/6/6 6/66/47 15/3/3
f 13/9/9 4/67/48 28/8/8
f 28/8/8 5/6/6 14/7/7
f 2/10/10 11/15/15 10/11/11
f 3/13/13 4/67/48 13/9/9
f 2/10/10 3/13/13 12/14/14
f 9/16/16 1/68/12 10/17/11
f 9/16/16 18/18/17 17/19/18
f 8/20/19 17/19/18 16/2/2
f 27/69/21 19/70/21 20/22/21
f 20/22/21 21/71/21 22/23/21
f 22/23/21 23/72/21 24/24/21
f 24/24/21 25/73/21 26/74/21
f 26/74/21 27/69/21 24/24/21
f 27/69/21 20/22/21 24/24/21
f 13/9/9 14/7/7 23/25/22
f 11/15/15 20/29/26 19/27/24
f 17/19/18 18/18/17 27/28/25
f 15/3/3 24/31/27 23/25/22
f 12/14/14 21/32/28 20/29/26
f 18/18/17 10/17/11 19/30/24
f 16/2/2 25/5/5 24/31/27
f 13/9/9 22/26/23 21/32/28
f 29/1/1 6/66/47 31/33/29
f 32/35/31 50/52/34 51/36/32
f 31/33/29 34/39/34 35/38/32
f 34/39/34 36/75/49 37/40/35
f 37/40/35 36/75/49 38/41/36
f 39/42/37 38/41/36 40/43/38
f 41/44/39 40/43/38 42/45/40
f 42/45/41 44/48/43 45/47/42
f 44/48/43 46/76/50 47/49/44
f 47/49/44 46/76/50 48/50/45
f 50/52/34 52/77/49 53/53/35
f 53/53/35 52/77/49 54/54/36
f 55/55/37 54/54/36 56/56/38
f 57/57/39 56/56/38 58/58/40
f 58/58/41 60/61/43 61/60/42
f 60/61/43 62/78/50 63/62/44
f 63/62/44 62/78/50 64/63/45
f 30/37/33 66/79/51 67/65/46
