# Blender v3.4.1 OBJ File: 'environment.blend'
# www.blender.org
o Plane_Plane.005
v -0.949125 -0.544204 0.457210
v 0.139284 -0.544204 0.457210
v -0.949125 0.544204 0.457210
v 0.139284 0.544204 0.457210
v -0.398053 0.479083 0.030698
v -0.190186 0.431639 0.030698
v -0.023491 0.298703 0.030698
v 0.069019 0.106606 0.030698
v 0.069019 -0.106606 0.030698
v -0.023491 -0.298703 0.030698
v -0.190186 -0.431639 0.030698
v -0.398053 -0.479083 0.030698
v -0.605919 -0.431639 0.030698
v -0.772615 -0.298703 0.030698
v -0.865124 -0.106606 0.030698
v -0.865124 0.106606 0.030698
v -0.772615 0.298703 0.030698
v -0.605919 0.431639 0.030698
v -1.000000 -0.506808 0.480347
v -0.901184 -0.605624 0.480347
v -0.971057 -0.576681 0.480347
v -0.901184 0.605624 0.480347
v -1.000000 0.506808 0.480347
v -0.971057 0.576681 0.480347
v -0.901184 -0.605624 -0.480346
v -1.000000 -0.506808 -0.480346
v -0.971057 -0.576681 -0.480346
v -1.000000 0.506808 -0.480347
v -0.901184 0.605624 -0.480347
v -0.971057 0.576681 -0.480347
v 0.901184 -0.605624 0.480347
v 1.000000 -0.506808 0.480347
v 0.971057 -0.576681 0.480347
v 1.000000 0.506808 0.480347
v 0.901184 0.605624 0.480347
v 0.971057 0.576681 0.480347
v 1.000000 -0.506808 -0.480346
v 0.901184 -0.605624 -0.480346
v 0.971057 -0.576681 -0.480346
v 0.901184 0.605624 -0.480347
v 1.000000 0.506808 -0.480347
v 0.971057 0.576681 -0.480347
v 0.854476 -0.486140 0.311381
v 0.854476 0.021416 0.311381
v 0.854476 -0.486140 -0.311381
v 0.854476 0.021416 -0.311381
v 1.132119 -0.486140 0.311381
v 1.190567 -0.397874 0.311381
v 1.173448 -0.460287 0.311381
v 1.190567 -0.066850 0.311381
v 1.132119 0.021416 0.311381
v 1.173448 -0.004436 0.311381
v 1.190567 -0.397874 -0.311381
v 1.132119 -0.486140 -0.311381
v 1.173448 -0.460287 -0.311381
v 1.132119 0.021416 -0.311381
v 1.190567 -0.066850 -0.311381
v 1.173448 -0.004436 -0.311381
v -0.767816 -0.494222 0.437832
v -0.767816 -0.719454 -0.437831
v -0.767816 -0.494222 -0.437831
v -0.541340 -0.494222 0.437832
v -0.541340 -0.719454 -0.437831
v -0.541340 -0.494222 -0.437831
v -0.767816 -0.719454 0.372726
v -0.767816 -0.654348 0.437832
v -0.767816 -0.700385 0.418762
v -0.541340 -0.654348 0.437832
v -0.541340 -0.719454 0.372726
v -0.541340 -0.700385 0.418762
v 0.532996 -0.494222 0.437832
v 0.532996 -0.719454 -0.437831
v 0.532996 -0.494222 -0.437831
v 0.759473 -0.494222 0.437832
v 0.759473 -0.719454 -0.437831
v 0.759473 -0.494222 -0.437831
v 0.532996 -0.719454 0.372726
v 0.532996 -0.654348 0.437832
v 0.532996 -0.700385 0.418762
v 0.759473 -0.654348 0.437832
v 0.759473 -0.719454 0.372726
v 0.759473 -0.700385 0.418762
v -0.190186 -0.431639 0.480347
v -0.023491 -0.298703 0.480347
v -0.605919 -0.431639 0.480347
v -0.398053 -0.479083 0.480347
v -0.772615 0.298703 0.480347
v -0.865124 -0.106606 0.480347
v -0.865124 0.106606 0.480347
v -0.772615 -0.298703 0.480347
v -0.023491 0.298703 0.480347
v -0.190186 0.431639 0.480347
v 0.069019 0.106606 0.480347
v 0.069019 -0.106606 0.480347
v -0.398053 0.479083 0.480347
v -0.605919 0.431639 0.480347
vt 0.237767 0.677194
vt 0.000000 0.438539
vt 0.237767 0.438539
vt 0.839835 0.129371
vt 0.740745 0.084012
vt 0.839078 0.084373
vt 0.841955 0.164413
vt 0.741502 0.129010
vt 0.740842 0.788055
vt 0.839436 0.830176
vt 0.740842 0.830176
vt 0.740842 0.741304
vt 0.839436 0.788055
vt 0.740842 0.699183
vt 0.839436 0.741304
vt 0.740745 0.294717
vt 0.839339 0.327456
vt 0.740745 0.327456
vt 0.740745 0.250739
vt 0.839339 0.294717
vt 0.740745 0.204235
vt 0.839339 0.250739
vt 0.740745 0.164413
vt 0.839339 0.204235
vt 0.937934 0.202527
vt 0.839339 0.164413
vt 0.937934 0.164413
vt 0.937934 0.248613
vt 0.839339 0.202527
vt 0.937934 0.293543
vt 0.839339 0.248613
vt 0.839835 0.038330
vt 0.743623 0.000000
vt 0.841955 0.000361
vt 0.741502 0.037968
vt 0.258037 0.731108
vt 0.422181 0.730629
vt 0.385656 0.890394
vt 0.293233 0.306550
vt 0.303597 0.352129
vt 0.265590 0.416872
vt 0.000000 0.910325
vt 0.210651 0.691231
vt 0.210651 0.910325
vt 0.530191 0.440515
vt 0.740842 0.832792
vt 0.530191 0.832792
vt 0.237767 0.453860
vt 0.448417 0.676115
vt 0.237767 0.676115
vt 0.000000 0.021667
vt 0.243922 0.000000
vt 0.265590 0.021667
vt 0.530653 0.014983
vt 0.740284 0.000771
vt 0.740745 0.015755
vt 0.237767 0.691436
vt 0.448417 0.691436
vt 0.740842 0.426078
vt 0.740842 0.440515
vt 0.237767 0.438539
vt 0.448418 0.453860
vt 0.740745 0.410458
vt 0.530191 0.425306
vt 0.530653 0.409686
vt 0.000000 0.926495
vt 0.210651 0.926495
vt 0.740842 0.848770
vt 0.530191 0.848770
vt 0.210651 0.677194
vt 0.000000 0.691231
vt 0.000000 0.677194
vt 0.852133 0.426078
vt 0.740842 0.562630
vt 0.740842 0.426078
vt 0.841955 0.110878
vt 0.841955 0.000000
vt 0.915650 0.091596
vt 0.518529 0.575109
vt 0.458101 0.711661
vt 0.458101 0.575109
vt 0.754963 0.562631
vt 0.826515 0.699183
vt 0.754963 0.699183
vt 0.839339 0.312897
vt 0.843093 0.299212
vt 0.852155 0.293543
vt 0.457754 0.575109
vt 0.448418 0.438539
vt 0.457754 0.438917
vt 0.740842 0.562631
vt 0.740842 0.699183
vt 0.448418 0.575109
vt 0.839375 0.699183
vt 0.826515 0.562631
vt 0.839375 0.562631
vt 0.518555 0.438694
vt 0.518555 0.574885
vt 0.790228 0.879836
vt 0.825209 0.830176
vt 0.825209 0.879836
vt 0.740842 0.879836
vt 0.790228 0.830176
vt 0.790228 0.879836
vt 0.952187 0.891189
vt 0.942236 0.887008
vt 0.938114 0.876914
vt 0.839436 0.891189
vt 0.839436 0.699183
vt 0.888822 0.876914
vt 0.497709 0.711661
vt 0.448418 0.903667
vt 0.448418 0.711661
vt 0.951116 0.603338
vt 0.901719 0.613836
vt 0.901520 0.603465
vt 0.835626 0.879836
vt 0.835626 0.830176
vt 0.951316 0.426078
vt 0.901719 0.426204
vt 0.790132 0.377116
vt 0.825112 0.327456
vt 0.825112 0.377116
vt 0.740745 0.377116
vt 0.790132 0.327456
vt 0.790132 0.377116
vt 0.965388 0.618084
vt 0.955437 0.613903
vt 0.951316 0.603808
vt 0.852133 0.618084
vt 0.852133 0.426078
vt 0.901520 0.603808
vt 0.938114 0.699183
vt 0.888822 0.891189
vt 0.888822 0.699183
vt 0.987530 0.341673
vt 0.938133 0.352171
vt 0.937934 0.341800
vt 0.835529 0.377116
vt 0.835529 0.327456
vt 0.987729 0.164413
vt 0.938133 0.164539
vt 0.492183 0.260971
vt 0.463143 0.224420
vt 0.530191 0.021667
vt 0.000000 0.677194
vt 0.743623 0.164052
vt 0.839436 0.699183
vt 0.839339 0.293543
vt 0.294563 0.701940
vt 0.340109 0.691436
vt 0.385656 0.701675
vt 0.442452 0.772564
vt 0.442452 0.819174
vt 0.422181 0.861227
vt 0.340109 0.900898
vt 0.237767 0.819770
vt 0.294563 0.890659
vt 0.258037 0.861705
vt 0.237767 0.773160
vt 0.265590 0.021667
vt 0.271912 0.006346
vt 0.287176 0.000000
vt 0.303597 0.260971
vt 0.508604 0.000000
vt 0.374602 0.204136
vt 0.421179 0.204136
vt 0.332638 0.224420
vt 0.271912 0.432193
vt 0.287176 0.438539
vt 0.374602 0.408965
vt 0.332638 0.388680
vt 0.000000 0.416872
vt 0.006346 0.006346
vt 0.021667 0.000000
vt 0.259243 0.006346
vt 0.265590 0.416872
vt 0.259243 0.432193
vt 0.243922 0.438539
vt 0.021667 0.438539
vt 0.006346 0.432193
vt 0.530191 0.000000
vt 0.530191 0.426078
vt 0.448418 0.438539
vt 0.740284 0.426078
vt 0.852133 0.562631
vt 0.902834 0.000000
vt 0.915650 0.019282
vt 0.911896 0.005648
vt 0.911896 0.105230
vt 0.902834 0.110878
vt 0.518529 0.711661
vt 0.913034 0.293543
vt 0.913034 0.404835
vt 0.852155 0.404835
vt 0.839339 0.385481
vt 0.843093 0.399166
vt 0.448418 0.574731
vt 0.448418 0.711661
vt 0.790228 0.830176
vt 0.740842 0.830176
vt 0.938114 0.699183
vt 0.986798 0.699183
vt 0.986798 0.891189
vt 0.888822 0.699183
vt 0.884641 0.887008
vt 0.874547 0.891189
vt 0.497709 0.903667
vt 0.951316 0.613710
vt 0.790132 0.327456
vt 0.740745 0.327456
vt 0.951316 0.426078
vt 1.000000 0.426078
vt 1.000000 0.618084
vt 0.901520 0.426078
vt 0.897339 0.613903
vt 0.887244 0.618084
vt 0.938114 0.891189
vt 0.987729 0.352045
vt 0.508604 0.438539
vt 0.421179 0.408965
vt 0.530191 0.416872
vt 0.523868 0.432193
vt 0.523868 0.006346
vt 0.502548 0.306550
vt 0.463143 0.388680
vt 0.492183 0.352129
vn 0.0000 -0.0000 1.0000
vn -0.4339 -0.9010 0.0000
vn -0.0000 -1.0000 -0.0000
vn -0.7818 -0.6235 -0.0000
vn -0.9749 -0.2225 -0.0000
vn -0.9749 0.2225 0.0000
vn -0.7818 0.6235 0.0000
vn -0.4339 0.9010 0.0000
vn -0.0000 1.0000 0.0000
vn 0.4339 0.9010 0.0000
vn 0.7818 0.6235 0.0000
vn 0.9749 0.2225 0.0000
vn 0.9749 -0.2225 0.0000
vn 0.7818 -0.6235 -0.0000
vn 0.4339 -0.9010 -0.0000
vn 0.9808 -0.1951 0.0000
vn 0.9808 0.1951 0.0000
vn -0.1951 0.9808 0.0000
vn 0.1951 0.9808 0.0000
vn -0.9808 0.1951 0.0000
vn -0.9808 -0.1951 -0.0000
vn -0.0000 -0.0000 -1.0000
vn -0.1951 -0.9808 -0.0000
vn -0.3827 -0.9239 -0.0000
vn -0.9239 -0.3827 -0.0000
vn -0.3827 0.9239 0.0000
vn -0.9239 0.3827 0.0000
vn 0.1951 -0.9808 -0.0000
vn 0.3827 -0.9239 -0.0000
vn 0.9239 -0.3827 -0.0000
vn 0.3827 0.9239 0.0000
vn 0.9239 0.3827 0.0000
vn -1.0000 -0.0000 0.0000
vn 0.2759 0.9612 0.0000
vn 0.9911 -0.1335 -0.0000
vn 0.9911 0.1335 0.0000
vn 0.9911 -0.1334 -0.0000
vn 0.2759 -0.9612 -0.0000
vn 0.5303 -0.8478 -0.0000
vn 0.9644 -0.2645 -0.0000
vn 0.5303 0.8478 0.0000
vn 0.9644 0.2645 0.0000
vn 0.0000 -0.1951 0.9808
vn 1.0000 -0.0000 0.0000
vn 0.0000 -0.9808 0.1951
vn 0.0000 -0.9239 0.3827
vn 0.0000 -0.3827 0.9239
s 1
f 2/1/1 3/2/1 1/3/1
f 6/4/2 95/5/3 5/6/3
f 7/7/4 92/8/2 6/4/2
f 8/9/5 91/10/4 7/11/4
f 9/12/6 93/13/5 8/9/5
f 10/14/7 94/15/6 9/12/6
f 11/16/8 84/17/7 10/18/7
f 12/19/9 83/20/8 11/16/8
f 13/21/10 86/22/9 12/19/9
f 14/23/11 85/24/10 13/21/10
f 15/25/12 90/26/11 14/27/11
f 16/28/13 88/29/12 15/25/12
f 17/30/14 89/31/13 16/28/13
f 18/32/15 87/33/14 17/34/14
f 5/6/3 96/35/15 18/32/15
f 6/36/1 16/37/1 12/38/1
f 86/39/1 85/40/1 20/41/1
f 37/42/16 34/43/17 32/44/16
f 29/45/18 35/46/19 40/47/19
f 23/48/20 26/49/21 19/50/21
f 25/51/22 28/52/22 29/53/22
f 20/54/23 27/55/24 25/56/23
f 21/57/25 26/49/21 27/58/25
f 29/45/18 24/59/26 22/60/18
f 24/61/27 28/62/20 23/48/20
f 38/63/28 33/64/29 31/65/28
f 39/66/30 32/44/16 33/67/30
f 40/47/19 36/68/31 42/69/31
f 36/70/32 41/71/17 42/72/32
f 38/63/28 20/54/23 25/56/23
f 44/73/33 45/74/33 43/75/33
f 44/76/1 43/77/1 50/78/1
f 46/79/9 51/80/34 56/81/34
f 53/82/35 50/83/36 48/84/37
f 53/85/22 55/86/22 54/87/22
f 54/88/38 49/89/39 47/90/38
f 55/91/40 48/84/37 49/92/40
f 51/80/34 58/93/41 56/81/34
f 52/94/42 57/95/36 58/96/42
f 54/88/38 43/97/3 45/98/3
f 62/99/1 66/100/43 68/101/43
f 61/102/22 63/103/22 60/104/22
f 68/105/44 70/106/44 69/107/44
f 59/108/33 61/109/33 65/110/33
f 61/111/9 62/112/9 64/113/9
f 69/114/45 67/115/46 65/116/45
f 70/117/47 66/100/43 67/118/47
f 63/119/3 65/116/45 60/120/3
f 74/121/1 78/122/43 80/123/43
f 73/124/22 75/125/22 72/126/22
f 80/127/44 82/128/44 81/129/44
f 71/130/33 73/131/33 77/132/33
f 73/133/9 74/134/9 76/135/9
f 81/136/45 79/137/46 77/138/45
f 82/139/47 78/122/43 79/140/47
f 75/141/3 77/138/45 72/142/3
f 92/143/1 91/144/1 35/145/1
f 2/1/1 4/146/1 3/2/1
f 6/4/2 92/8/2 95/5/3
f 7/7/4 91/147/4 92/8/2
f 8/9/5 93/13/5 91/10/4
f 9/12/6 94/15/6 93/13/5
f 10/14/7 84/148/7 94/15/6
f 11/16/8 83/20/8 84/17/7
f 12/19/9 86/22/9 83/20/8
f 13/21/10 85/24/10 86/22/9
f 14/23/11 90/26/11 85/24/10
f 15/25/12 88/29/12 90/26/11
f 16/28/13 89/31/13 88/29/12
f 17/30/14 87/149/14 89/31/13
f 18/32/15 96/35/15 87/33/14
f 5/6/3 95/5/3 96/35/15
f 6/36/1 5/150/1 18/151/1
f 18/151/1 17/152/1 16/37/1
f 16/37/1 15/153/1 14/154/1
f 14/154/1 13/155/1 16/37/1
f 13/155/1 12/38/1 16/37/1
f 12/38/1 11/156/1 8/157/1
f 11/156/1 10/158/1 8/157/1
f 10/158/1 9/159/1 8/157/1
f 8/157/1 7/160/1 6/36/1
f 6/36/1 18/151/1 16/37/1
f 8/157/1 6/36/1 12/38/1
f 20/41/1 31/161/1 86/39/1
f 31/161/1 33/162/1 32/163/1
f 86/39/1 31/161/1 83/164/1
f 32/163/1 34/165/1 94/166/1
f 34/165/1 93/167/1 94/166/1
f 94/166/1 84/168/1 31/161/1
f 21/169/1 20/41/1 19/170/1
f 88/171/1 19/170/1 90/172/1
f 90/172/1 19/170/1 20/41/1
f 32/163/1 94/166/1 31/161/1
f 84/168/1 83/164/1 31/161/1
f 85/40/1 90/172/1 20/41/1
f 37/42/16 41/71/17 34/43/17
f 29/45/18 22/60/18 35/46/19
f 23/48/20 28/62/20 26/49/21
f 38/173/22 25/51/22 29/53/22
f 25/51/22 27/174/22 26/175/22
f 28/52/22 25/51/22 26/175/22
f 28/52/22 30/176/22 29/53/22
f 29/53/22 40/177/22 38/173/22
f 40/177/22 42/178/22 41/179/22
f 38/173/22 40/177/22 37/180/22
f 41/179/22 37/180/22 40/177/22
f 37/180/22 39/181/22 38/173/22
f 20/54/23 21/182/24 27/55/24
f 21/57/25 19/50/21 26/49/21
f 29/45/18 30/183/26 24/59/26
f 24/61/27 30/184/27 28/62/20
f 38/63/28 39/185/29 33/64/29
f 39/66/30 37/42/16 32/44/16
f 40/47/19 35/46/19 36/68/31
f 36/70/32 34/43/17 41/71/17
f 38/63/28 31/65/28 20/54/23
f 44/73/33 46/186/33 45/74/33
f 43/77/1 47/187/1 48/188/1
f 47/187/1 49/189/1 48/188/1
f 48/188/1 50/78/1 43/77/1
f 50/78/1 52/190/1 51/191/1
f 51/191/1 44/76/1 50/78/1
f 46/79/9 44/192/9 51/80/34
f 53/82/35 57/95/36 50/83/36
f 54/87/22 45/193/22 53/85/22
f 45/193/22 46/194/22 53/85/22
f 46/194/22 56/195/22 57/196/22
f 56/195/22 58/197/22 57/196/22
f 57/196/22 53/85/22 46/194/22
f 54/88/38 55/198/39 49/89/39
f 55/91/40 53/82/35 48/84/37
f 51/80/34 52/199/41 58/93/41
f 52/94/42 50/83/36 57/95/36
f 54/88/38 47/90/38 43/97/3
f 62/99/1 59/200/1 66/100/43
f 61/102/22 64/201/22 63/103/22
f 69/107/44 63/202/44 64/203/44
f 64/203/44 62/204/44 69/107/44
f 62/204/44 68/105/44 69/107/44
f 60/205/33 65/110/33 61/109/33
f 65/110/33 67/206/33 66/207/33
f 59/108/33 65/110/33 66/207/33
f 61/111/9 59/208/9 62/112/9
f 69/114/45 70/209/46 67/115/46
f 70/117/47 68/101/43 66/100/43
f 63/119/3 69/114/45 65/116/45
f 74/121/1 71/210/1 78/122/43
f 73/124/22 76/211/22 75/125/22
f 81/129/44 75/212/44 76/213/44
f 76/213/44 74/214/44 81/129/44
f 74/214/44 80/127/44 81/129/44
f 72/215/33 77/132/33 73/131/33
f 77/132/33 79/216/33 78/217/33
f 71/130/33 77/132/33 78/217/33
f 73/133/9 71/218/9 74/134/9
f 81/136/45 82/219/46 79/137/46
f 82/139/47 80/123/43 78/122/43
f 75/141/3 81/136/45 77/138/45
f 23/220/1 19/170/1 88/171/1
f 23/220/1 88/171/1 89/221/1
f 22/222/1 24/223/1 23/220/1
f 36/224/1 35/145/1 34/165/1
f 35/145/1 22/222/1 95/225/1
f 93/167/1 34/165/1 35/145/1
f 91/144/1 93/167/1 35/145/1
f 35/145/1 95/225/1 92/143/1
f 22/222/1 23/220/1 87/226/1
f 95/225/1 22/222/1 96/227/1
f 23/220/1 89/221/1 87/226/1
f 87/226/1 96/227/1 22/222/1
