# Blender v3.4.1 OBJ File: 'flags.blend'
# www.blender.org
o Balloon_Windmill_Blades_Cube.001
v 0.116086 -0.438256 0.636370
v 0.078496 -0.470948 0.951037
v 0.344198 -0.118588 0.708409
v 0.367345 -0.202781 1.014796
v 0.158098 -0.467245 0.631976
v 0.113824 -0.507538 0.944888
v 0.386211 -0.147577 0.704015
v 0.402673 -0.239371 1.008646
v 0.322562 -0.046904 0.418760
v 0.153239 -0.400237 0.341960
v 0.368928 -0.068523 0.415996
v 0.199604 -0.421855 0.339196
v 0.305223 0.015948 0.139721
v 0.187103 -0.357167 0.060692
v 0.354132 0.000758 0.138337
v 0.236012 -0.372357 0.059307
v 0.279574 0.074467 -0.136181
v 0.229647 -0.313563 -0.215883
v 0.330375 0.067848 -0.135779
v 0.280448 -0.320182 -0.215480
v 0.256783 0.126230 -0.407038
v 0.270439 -0.265066 -0.485226
v 0.307957 0.127611 -0.405014
v 0.321613 -0.263685 -0.483203
v 0.234479 0.173020 -0.679407
v 0.312100 -0.211450 -0.754041
v 0.284705 0.182459 -0.675796
v 0.362325 -0.202011 -0.750430
v 0.208207 0.213628 -0.962801
v 0.360300 -0.149262 -1.030557
v 0.255545 0.232460 -0.957401
v 0.407638 -0.130430 -1.025156
v 0.321498 0.319661 0.636370
v 0.368605 0.303454 0.951037
v -0.069399 0.357378 0.708409
v -0.008059 0.419520 1.014796
v 0.325597 0.370540 0.631976
v 0.382629 0.352344 0.944888
v -0.065300 0.408257 0.704015
v 0.005965 0.468410 1.008646
v -0.120661 0.302799 0.418760
v 0.269995 0.332827 0.341960
v -0.125122 0.353762 0.415996
v 0.265535 0.383790 0.339196
v -0.166423 0.256357 0.139721
v 0.215764 0.340619 0.060692
v -0.177722 0.306308 0.138337
v 0.204465 0.390570 0.059307
v -0.204278 0.204885 -0.136181
v 0.156730 0.355661 -0.215882
v -0.223946 0.252189 -0.135779
v 0.137062 0.402966 -0.215480
v -0.237710 0.159266 -0.407038
v 0.094334 0.366740 -0.485226
v -0.264493 0.202893 -0.405014
v 0.067551 0.410367 -0.483203
v -0.267080 0.116555 -0.679407
v 0.027071 0.376011 -0.754041
v -0.300367 0.155332 -0.675796
v -0.006216 0.414788 -0.750430
v -0.289111 0.073499 -0.962801
v -0.050885 0.386660 -1.030557
v -0.329089 0.105079 -0.957401
v -0.090863 0.418241 -1.025156
v -0.437584 0.118594 0.636370
v -0.447101 0.167494 0.951037
v -0.274799 -0.238791 0.708409
v -0.359285 -0.216740 1.014796
v -0.483695 0.096706 0.631976
v -0.496453 0.155195 0.944888
v -0.320911 -0.260679 0.704015
v -0.408637 -0.229039 1.008646
v -0.201901 -0.255895 0.418760
v -0.423235 0.067409 0.341960
v -0.243806 -0.285239 0.415996
v -0.465139 0.038065 0.339196
v -0.138801 -0.272305 0.139721
v -0.402867 0.016547 0.060692
v -0.176410 -0.307066 0.138337
v -0.440476 -0.018214 0.059307
v -0.075297 -0.279352 -0.136181
v -0.386377 -0.042099 -0.215883
v -0.106429 -0.320037 -0.135779
v -0.417510 -0.082784 -0.215480
v -0.019074 -0.285496 -0.407038
v -0.364774 -0.101674 -0.485226
v -0.043464 -0.330504 -0.405014
v -0.389164 -0.146682 -0.483203
v 0.032600 -0.289575 -0.679407
v -0.339171 -0.164562 -0.754041
v 0.015662 -0.337791 -0.675796
v -0.356109 -0.212777 -0.750430
v 0.080904 -0.287126 -0.962801
v -0.309415 -0.237398 -1.030557
v 0.073543 -0.337538 -0.957401
v -0.316775 -0.287810 -1.025156
vt 0.625000 0.000000
vt 0.375000 0.250000
vt 0.375000 0.000000
vt 0.625000 0.250000
vt 0.375000 0.500000
vt 0.625000 0.500000
vt 0.375000 0.750000
vt 0.625000 0.750000
vt 0.375000 1.000000
vt 0.375000 0.750000
vt 0.375000 0.500000
vt 0.875000 0.750000
vt 0.375000 0.750000
vt 0.375000 0.500000
vt 0.375000 1.000000
vt 0.375000 0.250000
vt 0.375000 0.000000
vt 0.375000 0.000000
vt 0.375000 0.250000
vt 0.375000 0.000000
vt 0.375000 0.250000
vt 0.375000 1.000000
vt 0.375000 0.750000
vt 0.375000 1.000000
vt 0.375000 0.750000
vt 0.375000 1.000000
vt 0.375000 0.500000
vt 0.375000 0.500000
vt 0.375000 0.750000
vt 0.375000 0.500000
vt 0.375000 0.250000
vt 0.375000 0.000000
vt 0.375000 0.750000
vt 0.375000 0.500000
vt 0.375000 0.250000
vt 0.375000 0.000000
vt 0.375000 1.000000
vt 0.125000 0.500000
vt 0.125000 0.750000
vt 0.375000 0.250000
vt 0.375000 0.000000
vt 0.375000 1.000000
vt 0.625000 0.000000
vt 0.375000 0.250000
vt 0.375000 0.000000
vt 0.625000 0.250000
vt 0.375000 0.500000
vt 0.625000 0.500000
vt 0.375000 0.750000
vt 0.625000 0.750000
vt 0.375000 1.000000
vt 0.375000 0.750000
vt 0.375000 0.500000
vt 0.875000 0.750000
vt 0.375000 0.750000
vt 0.375000 0.500000
vt 0.375000 1.000000
vt 0.375000 0.250000
vt 0.375000 0.000000
vt 0.375000 0.000000
vt 0.375000 0.250000
vt 0.375000 0.000000
vt 0.375000 0.250000
vt 0.375000 1.000000
vt 0.375000 0.750000
vt 0.375000 1.000000
vt 0.375000 0.750000
vt 0.375000 1.000000
vt 0.375000 0.500000
vt 0.375000 0.500000
vt 0.375000 0.750000
vt 0.375000 0.500000
vt 0.375000 0.250000
vt 0.375000 0.000000
vt 0.375000 0.750000
vt 0.375000 0.500000
vt 0.375000 0.250000
vt 0.375000 0.000000
vt 0.375000 1.000000
vt 0.125000 0.500000
vt 0.125000 0.750000
vt 0.375000 0.250000
vt 0.375000 0.000000
vt 0.375000 1.000000
vt 0.625000 0.000000
vt 0.375000 0.250000
vt 0.375000 0.000000
vt 0.625000 0.250000
vt 0.375000 0.500000
vt 0.625000 0.500000
vt 0.375000 0.750000
vt 0.625000 0.750000
vt 0.375000 1.000000
vt 0.375000 0.750000
vt 0.375000 0.500000
vt 0.875000 0.500000
vt 0.375000 0.750000
vt 0.375000 0.500000
vt 0.375000 1.000000
vt 0.375000 0.250000
vt 0.375000 0.000000
vt 0.375000 0.000000
vt 0.375000 0.250000
vt 0.375000 0.000000
vt 0.375000 0.250000
vt 0.375000 1.000000
vt 0.375000 0.750000
vt 0.375000 1.000000
vt 0.375000 0.750000
vt 0.375000 1.000000
vt 0.375000 0.500000
vt 0.375000 0.500000
vt 0.375000 0.750000
vt 0.375000 0.500000
vt 0.375000 0.250000
vt 0.375000 0.000000
vt 0.375000 0.750000
vt 0.375000 0.500000
vt 0.375000 0.250000
vt 0.375000 0.000000
vt 0.375000 1.000000
vt 0.125000 0.750000
vt 0.125000 0.500000
vt 0.375000 0.250000
vt 0.375000 0.000000
vt 0.375000 1.000000
vt 0.625000 1.000000
vt 0.875000 0.500000
vt 0.625000 1.000000
vt 0.875000 0.500000
vt 0.625000 1.000000
vt 0.875000 0.750000
vn -0.7673 0.6359 0.0833
vn -0.7859 0.5975 0.1592
vn -0.8436 0.5369 0.0061
vn 0.7101 0.6845 0.1647
vn 0.5797 0.7947 0.1803
vn 0.5637 0.8058 0.1817
vn 0.7685 -0.6288 -0.1186
vn 0.7816 -0.6229 -0.0326
vn 0.8484 -0.5087 -0.1464
vn -0.7103 -0.6857 -0.1592
vn -0.5797 -0.7950 -0.1788
vn -0.5637 -0.8060 -0.1807
vn 0.8789 -0.4770 -0.0072
vn 0.9223 -0.3705 -0.1099
vn -0.0334 -0.1970 0.9798
vn 0.9366 -0.3487 0.0336
vn 0.9694 -0.2334 -0.0756
vn -0.4324 -0.8811 -0.1913
vn -0.4169 -0.8883 -0.1927
vn 0.4324 0.8809 0.1924
vn 0.4169 0.8882 0.1929
vn -0.8827 0.4544 0.1199
vn -0.9179 0.3964 -0.0185
vn -0.9654 0.2572 -0.0430
vn -0.9833 0.1673 0.0713
vn -0.9914 0.0949 -0.0898
vn -0.9413 0.3210 0.1041
vn -0.3034 -0.9321 -0.1978
vn -0.2863 -0.9373 -0.1987
vn 0.3034 0.9321 0.1977
vn 0.2863 0.9375 0.1977
vn -0.1157 -0.9730 -0.1995
vn 0.0248 -0.9803 -0.1960
vn 0.0437 -0.9797 -0.1957
vn -0.1350 -0.9706 -0.1992
vn 0.1350 0.9704 0.2001
vn 0.1157 0.9730 0.1996
vn 0.9787 -0.1948 0.0654
vn 0.9963 -0.0659 -0.0543
vn 0.9958 0.0898 -0.0191
vn 0.9831 0.1193 0.1385
vn 0.9669 0.2549 0.0117
vn -0.0248 0.9802 0.1964
vn -0.0437 0.9798 0.1952
vn 0.9945 -0.0356 0.0984
vn -0.9992 0.0080 0.0392
vn -0.9911 -0.0623 -0.1175
vn 0.9611 0.2524 0.1121
vn 0.9202 0.3905 -0.0259
vn -0.9884 -0.1506 0.0170
vn -0.9622 -0.2269 -0.1509
vn 0.1850 -0.9646 -0.1880
vn 0.2052 -0.9607 -0.1869
vn -0.1850 0.9647 0.1872
vn -0.2052 0.9610 0.1854
vn 0.0334 0.1970 -0.9798
vn -0.9630 -0.2635 -0.0572
vn -0.9113 -0.3381 -0.2349
vn 0.3621 -0.9155 -0.1750
vn 0.3811 -0.9081 -0.1737
vn -0.3619 0.9168 0.1686
vn -0.3808 0.9097 0.1657
vn -0.1671 -0.9824 0.0833
vn -0.1245 -0.9794 0.1592
vn -0.0432 -0.9990 0.0061
vn -0.9479 0.2727 0.1647
vn -0.9780 0.1047 0.1803
vn -0.9797 0.0852 0.1817
vn 0.1603 0.9799 -0.1185
vn 0.1487 0.9883 -0.0326
vn 0.0163 0.9891 -0.1464
vn 0.9489 -0.2723 -0.1592
vn 0.9783 -0.1046 -0.1788
vn 0.9798 -0.0852 -0.1807
vn -0.0263 0.9996 -0.0072
vn -0.1403 0.9840 -0.1099
vn 0.1873 0.0695 0.9798
vn -0.1663 0.9855 0.0336
vn -0.2826 0.9563 -0.0756
vn 0.9793 0.0661 -0.1913
vn 0.9777 0.0830 -0.1927
vn -0.9791 -0.0660 0.1924
vn -0.9777 -0.0830 0.1929
vn 0.0479 -0.9916 0.1199
vn 0.1157 -0.9931 -0.0185
vn 0.2599 -0.9647 -0.0430
vn 0.3468 -0.9352 0.0713
vn 0.4136 -0.9060 -0.0898
vn 0.1926 -0.9757 0.1041
vn 0.9589 0.2033 -0.1978
vn 0.9549 0.2207 -0.1987
vn -0.9590 -0.2033 0.1977
vn -0.9551 -0.2208 0.1977
vn 0.9005 0.3863 -0.1995
vn 0.8366 0.5116 -0.1960
vn 0.8266 0.5277 -0.1957
vn 0.9081 0.3684 -0.1992
vn -0.9079 -0.3683 0.2001
vn -0.9005 -0.3863 0.1996
vn -0.3207 0.9449 0.0654
vn -0.4411 0.8958 -0.0543
vn -0.5757 0.8175 -0.0191
vn -0.5949 0.7918 0.1385
vn -0.7042 0.7099 0.0117
vn -0.8365 -0.5116 0.1964
vn -0.8267 -0.5277 0.1952
vn -0.4664 0.8791 0.0984
vn 0.4927 -0.8693 0.0392
vn 0.5495 -0.8272 -0.1175
vn -0.6992 0.7061 0.1121
vn -0.7983 0.6017 -0.0259
vn 0.6246 -0.7807 0.0170
vn 0.6776 -0.7198 -0.1509
vn 0.7428 0.6425 -0.1880
vn 0.7294 0.6581 -0.1869
vn -0.7430 -0.6426 0.1872
vn -0.7297 -0.6582 0.1854
vn -0.1873 -0.0695 -0.9798
vn 0.7097 -0.7022 -0.0572
vn 0.7485 -0.6202 -0.2349
vn 0.6118 0.7714 -0.1750
vn 0.5959 0.7841 -0.1737
vn -0.6130 -0.7718 0.1686
vn -0.5974 -0.7846 0.1657
vn 0.9343 0.3465 0.0833
vn 0.9104 0.3819 0.1592
vn 0.8868 0.4621 0.0061
vn 0.2378 -0.9573 0.1647
vn 0.3984 -0.8993 0.1803
vn 0.4160 -0.8910 0.1817
vn -0.9288 -0.3511 -0.1185
vn -0.9303 -0.3654 -0.0326
vn -0.8648 -0.4804 -0.1464
vn -0.2386 0.9580 -0.1592
vn -0.3986 0.8995 -0.1788
vn -0.4161 0.8912 -0.1807
vn -0.8525 -0.5226 -0.0072
vn -0.7820 -0.6135 -0.1099
vn -0.1539 0.1274 0.9798
vn -0.7703 -0.6368 0.0336
vn -0.6868 -0.7229 -0.0756
vn -0.5469 0.8151 -0.1913
vn -0.5608 0.8052 -0.1927
vn 0.5467 -0.8149 0.1924
vn 0.5608 -0.8052 0.1929
vn 0.8349 0.5373 0.1199
vn 0.8022 0.5968 -0.0185
vn 0.7055 0.7074 -0.0430
vn 0.6365 0.7679 0.0713
vn 0.5779 0.8112 -0.0898
vn 0.7487 0.6547 0.1041
vn -0.6556 0.7288 -0.1978
vn -0.6686 0.7166 -0.1987
vn 0.6556 -0.7288 0.1977
vn 0.6688 -0.7167 0.1977
vn -0.7848 0.5867 -0.1995
vn -0.8614 0.4687 -0.1960
vn -0.8703 0.4520 -0.1957
vn -0.7731 0.6022 -0.1992
vn 0.7729 -0.6021 0.2001
vn 0.7848 -0.5867 0.1996
vn -0.6580 -0.7502 0.0654
vn -0.5552 -0.8299 -0.0543
vn -0.4201 -0.9073 -0.0191
vn -0.3882 -0.9111 0.1385
vn -0.2627 -0.9648 0.0117
vn 0.8613 -0.4686 0.1964
vn 0.8704 -0.4521 0.1952
vn -0.5281 -0.8435 0.0984
vn 0.5065 0.8613 0.0392
vn 0.4416 0.8895 -0.1175
vn -0.2619 -0.9586 0.1121
vn -0.1219 -0.9922 -0.0259
vn 0.3638 0.9313 0.0170
vn 0.2846 0.9467 -0.1509
vn -0.9279 0.3220 -0.1880
vn -0.9346 0.3026 -0.1869
vn 0.9280 -0.3221 0.1872
vn 0.9348 -0.3028 0.1854
vn 0.1539 -0.1274 -0.9798
vn 0.2533 0.9657 -0.0572
vn 0.1629 0.9583 -0.2349
vn -0.9740 0.1442 -0.1750
vn -0.9769 0.1240 -0.1737
vn 0.9750 -0.1450 0.1686
vn 0.9782 -0.1251 0.1657
vn -0.6884 0.6844 0.2401
vn 0.7233 0.6710 0.1631
vn 0.6802 -0.7331 0.0018
vn -0.7236 -0.6723 -0.1563
vn -0.2485 -0.9384 0.2401
vn -0.9427 0.2909 0.1631
vn 0.2948 0.9556 0.0018
vn 0.9440 -0.2905 -0.1563
vn 0.9369 0.2540 0.2401
vn 0.2194 -0.9619 0.1631
vn -0.9749 -0.2225 0.0018
vn -0.2205 0.9628 -0.1563
s 1
f 2/1/1 3/2/2 1/3/3
f 4/4/4 7/5/5 3/2/6
f 8/6/7 5/7/8 7/5/9
f 6/8/10 1/9/11 5/7/12
f 7/5/9 12/10/13 11/11/14
f 8/6/15 2/12/15 6/8/15
f 11/11/14 16/13/16 15/14/17
f 5/7/12 10/15/18 12/10/19
f 3/2/6 11/11/20 9/16/21
f 1/3/3 9/16/22 10/17/23
f 14/18/24 17/19/25 18/20/26
f 10/17/23 13/21/27 14/18/24
f 12/10/19 14/22/28 16/13/29
f 9/16/21 15/14/30 13/21/31
f 20/23/32 22/24/33 24/25/34
f 16/13/29 18/26/35 20/23/32
f 13/21/31 19/27/36 17/19/37
f 15/14/17 20/23/38 19/27/39
f 23/28/40 28/29/41 27/30/42
f 17/19/37 23/28/43 21/31/44
f 19/27/39 24/25/45 23/28/40
f 18/20/26 21/31/46 22/32/47
f 27/30/42 32/33/48 31/34/49
f 22/32/47 25/35/50 26/36/51
f 24/25/34 26/37/52 28/29/53
f 21/31/44 27/30/54 25/35/55
f 29/38/56 32/33/56 30/39/56
f 26/36/51 29/40/57 30/41/58
f 28/29/53 30/42/59 32/33/60
f 25/35/55 31/34/61 29/40/62
f 34/43/63 35/44/64 33/45/65
f 36/46/66 39/47/67 35/44/68
f 40/48/69 37/49/70 39/47/71
f 38/50/72 33/51/73 37/49/74
f 39/47/71 44/52/75 43/53/76
f 40/48/77 34/54/77 38/50/77
f 43/53/76 48/55/78 47/56/79
f 37/49/74 42/57/80 44/52/81
f 35/44/68 43/53/82 41/58/83
f 33/45/65 41/58/84 42/59/85
f 46/60/86 49/61/87 50/62/88
f 42/59/85 45/63/89 46/60/86
f 44/52/81 46/64/90 48/55/91
f 41/58/83 47/56/92 45/63/93
f 52/65/94 54/66/95 56/67/96
f 48/55/91 50/68/97 52/65/94
f 45/63/93 51/69/98 49/61/99
f 47/56/79 52/65/100 51/69/101
f 55/70/102 60/71/103 59/72/104
f 49/61/99 55/70/105 53/73/106
f 51/69/101 56/67/107 55/70/102
f 50/62/88 53/73/108 54/74/109
f 59/72/104 64/75/110 63/76/111
f 54/74/109 57/77/112 58/78/113
f 56/67/96 58/79/114 60/71/115
f 53/73/106 59/72/116 57/77/117
f 61/80/118 64/75/118 62/81/118
f 58/78/113 61/82/119 62/83/120
f 60/71/115 62/84/121 64/75/122
f 57/77/117 63/76/123 61/82/124
f 66/85/125 67/86/126 65/87/127
f 68/88/128 71/89/129 67/86/130
f 72/90/131 69/91/132 71/89/133
f 70/92/134 65/93/135 69/91/136
f 71/89/133 76/94/137 75/95/138
f 68/96/139 70/92/139 72/90/139
f 75/95/138 80/97/140 79/98/141
f 69/91/136 74/99/142 76/94/143
f 67/86/130 75/95/144 73/100/145
f 65/87/127 73/100/146 74/101/147
f 78/102/148 81/103/149 82/104/150
f 74/101/147 77/105/151 78/102/148
f 76/94/143 78/106/152 80/97/153
f 73/100/145 79/98/154 77/105/155
f 84/107/156 86/108/157 88/109/158
f 80/97/153 82/110/159 84/107/156
f 77/105/155 83/111/160 81/103/161
f 79/98/141 84/107/162 83/111/163
f 87/112/164 92/113/165 91/114/166
f 81/103/161 87/112/167 85/115/168
f 83/111/163 88/109/169 87/112/164
f 82/104/150 85/115/170 86/116/171
f 91/114/166 96/117/172 95/118/173
f 86/116/171 89/119/174 90/120/175
f 88/109/158 90/121/176 92/113/177
f 85/115/168 91/114/178 89/119/179
f 95/118/180 94/122/180 93/123/180
f 90/120/175 93/124/181 94/125/182
f 92/113/177 94/126/183 96/117/184
f 89/119/179 95/118/185 93/124/186
f 2/1/1 4/4/187 3/2/2
f 4/4/4 8/6/188 7/5/5
f 8/6/7 6/8/189 5/7/8
f 6/8/10 2/127/190 1/9/11
f 7/5/9 5/7/8 12/10/13
f 8/6/15 4/128/15 2/12/15
f 11/11/14 12/10/13 16/13/16
f 5/7/12 1/9/11 10/15/18
f 3/2/6 7/5/5 11/11/20
f 1/3/3 3/2/2 9/16/22
f 14/18/24 13/21/27 17/19/25
f 10/17/23 9/16/22 13/21/27
f 12/10/19 10/15/18 14/22/28
f 9/16/21 11/11/20 15/14/30
f 20/23/32 18/26/35 22/24/33
f 16/13/29 14/22/28 18/26/35
f 13/21/31 15/14/30 19/27/36
f 15/14/17 16/13/16 20/23/38
f 23/28/40 24/25/45 28/29/41
f 17/19/37 19/27/36 23/28/43
f 19/27/39 20/23/38 24/25/45
f 18/20/26 17/19/25 21/31/46
f 27/30/42 28/29/41 32/33/48
f 22/32/47 21/31/46 25/35/50
f 24/25/34 22/24/33 26/37/52
f 21/31/44 23/28/43 27/30/54
f 29/38/56 31/34/56 32/33/56
f 26/36/51 25/35/50 29/40/57
f 28/29/53 26/37/52 30/42/59
f 25/35/55 27/30/54 31/34/61
f 34/43/63 36/46/191 35/44/64
f 36/46/66 40/48/192 39/47/67
f 40/48/69 38/50/193 37/49/70
f 38/50/72 34/129/194 33/51/73
f 39/47/71 37/49/70 44/52/75
f 40/48/77 36/130/77 34/54/77
f 43/53/76 44/52/75 48/55/78
f 37/49/74 33/51/73 42/57/80
f 35/44/68 39/47/67 43/53/82
f 33/45/65 35/44/64 41/58/84
f 46/60/86 45/63/89 49/61/87
f 42/59/85 41/58/84 45/63/89
f 44/52/81 42/57/80 46/64/90
f 41/58/83 43/53/82 47/56/92
f 52/65/94 50/68/97 54/66/95
f 48/55/91 46/64/90 50/68/97
f 45/63/93 47/56/92 51/69/98
f 47/56/79 48/55/78 52/65/100
f 55/70/102 56/67/107 60/71/103
f 49/61/99 51/69/98 55/70/105
f 51/69/101 52/65/100 56/67/107
f 50/62/88 49/61/87 53/73/108
f 59/72/104 60/71/103 64/75/110
f 54/74/109 53/73/108 57/77/112
f 56/67/96 54/66/95 58/79/114
f 53/73/106 55/70/105 59/72/116
f 61/80/118 63/76/118 64/75/118
f 58/78/113 57/77/112 61/82/119
f 60/71/115 58/79/114 62/84/121
f 57/77/117 59/72/116 63/76/123
f 66/85/125 68/88/195 67/86/126
f 68/88/128 72/90/196 71/89/129
f 72/90/131 70/92/197 69/91/132
f 70/92/134 66/131/198 65/93/135
f 71/89/133 69/91/132 76/94/137
f 68/96/139 66/132/139 70/92/139
f 75/95/138 76/94/137 80/97/140
f 69/91/136 65/93/135 74/99/142
f 67/86/130 71/89/129 75/95/144
f 65/87/127 67/86/126 73/100/146
f 78/102/148 77/105/151 81/103/149
f 74/101/147 73/100/146 77/105/151
f 76/94/143 74/99/142 78/106/152
f 73/100/145 75/95/144 79/98/154
f 84/107/156 82/110/159 86/108/157
f 80/97/153 78/106/152 82/110/159
f 77/105/155 79/98/154 83/111/160
f 79/98/141 80/97/140 84/107/162
f 87/112/164 88/109/169 92/113/165
f 81/103/161 83/111/160 87/112/167
f 83/111/163 84/107/162 88/109/169
f 82/104/150 81/103/149 85/115/170
f 91/114/166 92/113/165 96/117/172
f 86/116/171 85/115/170 89/119/174
f 88/109/158 86/108/157 90/121/176
f 85/115/168 87/112/167 91/114/178
f 95/118/180 96/117/180 94/122/180
f 90/120/175 89/119/174 93/124/181
f 92/113/177 90/121/176 94/126/183
f 89/119/179 91/114/178 95/118/185
