# Blender v3.4.1 OBJ File: 'environment.blend'
# www.blender.org
o Plane_Plane.001
v -0.714676 -0.022354 1.000000
v 0.714676 -0.022354 1.000000
v -0.714676 -0.022354 -1.000000
v 0.714676 -0.022354 -1.000000
v -0.049795 0.038677 1.053273
v -0.049795 0.112573 1.053273
v -0.049795 0.038677 -1.053273
v -0.049795 0.112573 -1.053273
v 0.049795 0.038677 1.053273
v 0.049795 0.112573 1.053273
v 0.049795 0.038677 -1.053273
v 0.049795 0.112573 -1.053273
v -0.744418 -0.210750 1.000000
v -0.744418 0.067598 1.000000
v -0.744418 -0.210750 -1.000000
v -0.744418 0.067598 -1.000000
v 0.744418 -0.210750 1.000000
v 0.744418 0.067598 1.000000
v 0.744418 -0.210750 -1.000000
v 0.744418 0.067598 -1.000000
v -0.648584 -0.210750 -0.909908
v 0.648584 -0.210750 -0.909908
v -0.648584 -0.210750 0.909908
v 0.648584 -0.210750 0.909908
v 0.648584 0.067598 -0.909908
v -0.648584 0.067598 -0.909908
v -0.648584 0.067598 0.909908
v 0.648584 0.067598 0.909908
v 0.781304 0.018591 -0.603780
v 0.781304 0.092487 -0.603780
v -0.781304 0.018591 -0.603780
v -0.781304 0.092487 -0.603780
v 0.781304 0.018591 -0.703370
v 0.781304 0.092487 -0.703370
v -0.781304 0.018591 -0.703370
v -0.781304 0.092487 -0.703370
v 0.781304 0.018591 0.726623
v 0.781304 0.092487 0.726623
v -0.781304 0.018591 0.726623
v -0.781304 0.092487 0.726623
v 0.781304 0.018591 0.627033
v 0.781304 0.092487 0.627033
v -0.781304 0.018591 0.627033
v -0.781304 0.092487 0.627033
vt 0.000000 0.974055
vt 0.348067 0.487027
vt 0.348067 0.974055
vt 0.619193 1.000000
vt 0.637187 0.487027
vt 0.637187 1.000000
vt 0.519619 0.802906
vt 0.501624 0.827157
vt 0.501624 0.802906
vt 0.976951 0.512973
vt 0.994946 0.000000
vt 0.994946 0.512973
vt 0.501624 0.802906
vt 0.483630 0.827157
vt 0.483630 0.802906
vt 0.952699 0.000000
vt 0.928448 0.512973
vt 0.928448 0.000000
vt 0.976951 0.000000
vt 0.952700 0.512973
vt 0.952700 0.000000
vt 0.792885 0.487027
vt 0.860666 0.000000
vt 0.860666 0.487027
vt 0.348067 0.849579
vt 0.415848 0.487027
vt 0.415848 0.849579
vt 0.725104 0.487027
vt 0.792885 0.000000
vt 0.792885 0.487027
vt 0.415848 0.849579
vt 0.483630 0.487027
vt 0.483630 0.849579
vt 0.000000 0.000000
vt 0.362552 0.000000
vt 0.023337 0.021939
vt 0.000000 0.487027
vt 0.339215 0.465089
vt 0.362552 0.487027
vt 0.725104 0.487027
vt 0.385889 0.465089
vt 0.701767 0.465089
vt 0.362552 0.000000
vt 0.725104 0.000000
vt 0.385889 0.021939
vt 0.928448 0.443150
vt 0.860667 0.886300
vt 0.860667 0.443150
vt 0.619193 0.487027
vt 0.551411 0.802906
vt 0.551411 0.487027
vt 0.928448 0.443150
vt 0.860667 0.000000
vt 0.928448 0.000000
vt 0.551411 0.802906
vt 0.483630 0.487027
vt 0.551411 0.487027
vt 0.770183 0.867544
vt 0.788177 0.487027
vt 0.788177 0.867544
vt 0.537614 0.827157
vt 0.555608 0.802906
vt 0.555608 0.827157
vt 0.734194 0.867544
vt 0.752188 0.487027
vt 0.752188 0.867544
vt 0.573603 0.827157
vt 0.591597 0.802906
vt 0.591597 0.827157
vt 0.685690 0.867544
vt 0.709942 0.487027
vt 0.709942 0.867544
vt 0.637187 0.867544
vt 0.661439 0.487027
vt 0.661439 0.867544
vt 0.792885 0.867543
vt 0.810880 0.487027
vt 0.810880 0.867543
vt 0.555608 0.827157
vt 0.573603 0.802906
vt 0.573603 0.827157
vt 0.752188 0.867544
vt 0.770183 0.487027
vt 0.770183 0.867544
vt 0.519619 0.827157
vt 0.537614 0.802906
vt 0.537614 0.827157
vt 0.661439 0.867544
vt 0.685690 0.487027
vt 0.685690 0.867544
vt 0.709942 0.867544
vt 0.734194 0.487027
vt 0.734194 0.867544
vt 0.000000 0.487027
vt 0.619193 0.487027
vt 0.519619 0.827157
vt 0.976951 0.000000
vt 0.501624 0.827157
vt 0.952699 0.512973
vt 0.976951 0.512973
vt 0.792885 0.000000
vt 0.348067 0.487027
vt 0.725104 0.000000
vt 0.415848 0.487027
vt 0.023337 0.465089
vt 0.339215 0.021939
vt 0.362552 0.487027
vt 0.701767 0.021939
vt 0.928448 0.886300
vt 0.619193 0.802906
vt 0.860667 0.443150
vt 0.483630 0.802906
vt 0.770183 0.487027
vt 0.537614 0.802906
vt 0.734194 0.487027
vt 0.573603 0.802906
vt 0.685690 0.487027
vt 0.637187 0.487027
vt 0.792885 0.487027
vt 0.555608 0.802906
vt 0.752188 0.487027
vt 0.519619 0.802906
vt 0.661439 0.487027
vt 0.709942 0.487027
vn 0.0000 1.0000 0.0000
vn -1.0000 0.0000 0.0000
vn 0.0000 0.0000 -1.0000
vn 1.0000 0.0000 0.0000
vn 0.0000 0.0000 1.0000
vn 0.0000 -1.0000 0.0000
s off
f 2/1/1 3/2/1 1/3/1
f 6/4/2 7/5/2 5/6/2
f 8/7/3 11/8/3 7/9/3
f 12/10/4 9/11/4 11/12/4
f 10/13/5 5/14/5 9/15/5
f 11/16/6 5/17/6 7/18/6
f 8/19/1 10/20/1 12/21/1
f 14/22/2 15/23/2 13/24/2
f 16/25/3 19/26/3 15/27/3
f 20/28/4 17/29/4 19/30/4
f 18/31/5 13/32/5 17/33/5
f 15/34/6 19/35/6 21/36/6
f 13/37/6 24/38/6 17/39/6
f 14/40/1 28/41/1 27/42/1
f 20/43/1 16/44/1 25/45/1
f 23/46/4 26/47/4 27/48/4
f 21/49/5 25/50/5 26/51/5
f 24/52/2 25/53/2 22/54/2
f 23/55/3 28/56/3 24/57/3
f 30/58/5 31/59/5 29/60/5
f 32/61/2 35/62/2 31/63/2
f 36/64/3 33/65/3 35/66/3
f 34/67/4 29/68/4 33/69/4
f 35/70/6 29/71/6 31/72/6
f 32/73/1 34/74/1 36/75/1
f 38/76/5 39/77/5 37/78/5
f 40/79/2 43/80/2 39/81/2
f 44/82/3 41/83/3 43/84/3
f 42/85/4 37/86/4 41/87/4
f 43/88/6 37/89/6 39/90/6
f 40/91/1 42/92/1 44/93/1
f 2/1/1 4/94/1 3/2/1
f 6/4/2 8/95/2 7/5/2
f 8/7/3 12/96/3 11/8/3
f 12/10/4 10/97/4 9/11/4
f 10/13/5 6/98/5 5/14/5
f 11/16/6 9/99/6 5/17/6
f 8/19/1 6/100/1 10/20/1
f 14/22/2 16/101/2 15/23/2
f 16/25/3 20/102/3 19/26/3
f 20/28/4 18/103/4 17/29/4
f 18/31/5 14/104/5 13/32/5
f 21/36/6 23/105/6 13/37/6
f 19/35/6 17/39/6 24/38/6
f 19/35/6 24/38/6 22/106/6
f 21/36/6 13/37/6 15/34/6
f 19/35/6 22/106/6 21/36/6
f 13/37/6 23/105/6 24/38/6
f 14/40/1 18/107/1 28/41/1
f 25/45/1 28/41/1 18/107/1
f 16/44/1 14/40/1 27/42/1
f 16/44/1 27/42/1 26/108/1
f 25/45/1 18/107/1 20/43/1
f 16/44/1 26/108/1 25/45/1
f 23/46/4 21/109/4 26/47/4
f 21/49/5 22/110/5 25/50/5
f 24/52/2 28/111/2 25/53/2
f 23/55/3 27/112/3 28/56/3
f 30/58/5 32/113/5 31/59/5
f 32/61/2 36/114/2 35/62/2
f 36/64/3 34/115/3 33/65/3
f 34/67/4 30/116/4 29/68/4
f 35/70/6 33/117/6 29/71/6
f 32/73/1 30/118/1 34/74/1
f 38/76/5 40/119/5 39/77/5
f 40/79/2 44/120/2 43/80/2
f 44/82/3 42/121/3 41/83/3
f 42/85/4 38/122/4 37/86/4
f 43/88/6 41/123/6 37/89/6
f 40/91/1 38/124/1 42/92/1
