# Blender v3.4.1 OBJ File: 'environment.blend'
# www.blender.org
o Cube_Cube.013
v -0.137675 -1.000000 -0.003928
v -0.137675 1.000000 -0.003928
v -0.137675 -1.000000 -0.231992
v -0.137675 1.000000 -0.231992
v 0.137675 -1.000000 -0.003928
v 0.137675 1.000000 -0.003928
v 0.137675 -1.000000 -0.231992
v 0.137675 1.000000 -0.231992
v -0.068471 0.062275 0.112494
v -0.068471 0.151125 0.143746
v -0.068471 0.101466 0.006057
v -0.068471 0.212643 0.048455
v 0.068471 0.062275 0.112494
v 0.068471 0.151125 0.143746
v 0.068471 0.101466 0.006057
v 0.068471 0.212643 0.048455
v -0.068471 -0.028038 -0.017926
v -0.068471 -0.040871 0.094769
v 0.068471 -0.028038 -0.017926
v 0.068471 -0.040871 0.094769
v -0.068471 -0.150743 -0.014597
v -0.068471 -0.135066 0.097738
v 0.068471 -0.150743 -0.014597
v 0.068471 -0.135066 0.097738
v -0.068471 -0.263690 0.016925
v -0.068471 -0.223622 0.123035
v 0.068471 -0.263690 0.016925
v 0.068471 -0.223622 0.123035
v -0.068471 -0.357628 0.057589
v -0.068471 -0.334119 0.168550
v 0.068471 -0.357628 0.057589
v 0.068471 -0.334119 0.168550
v -0.068471 -0.438354 0.083909
v -0.068471 -0.437076 0.197325
v 0.068471 -0.438354 0.083909
v 0.068471 -0.437076 0.197325
v -0.068471 -0.529086 0.085515
v -0.068471 -0.544054 0.197946
v 0.068471 -0.529086 0.085515
v 0.068471 -0.544054 0.197946
v -0.068471 -0.617030 0.064489
v -0.068471 -0.659395 0.169703
v 0.068471 -0.617030 0.064489
v 0.068471 -0.659395 0.169703
v -0.068471 -0.700713 0.012134
v -0.068471 -0.767341 0.103925
v 0.068471 -0.700713 0.012134
v 0.068471 -0.767341 0.103925
v -0.068471 -0.773720 -0.054683
v -0.068471 -0.865456 0.012020
v 0.068471 -0.773720 -0.054683
v 0.068471 -0.865456 0.012020
v -0.068471 -0.830900 -0.160232
v -0.068471 -0.922637 -0.093529
v 0.068471 -0.830900 -0.160232
v 0.068471 -0.922637 -0.093529
v -0.068471 0.220336 0.194588
v -0.068471 0.309649 0.124674
v 0.068471 0.309649 0.124674
v 0.068471 0.220336 0.194588
v -0.068471 0.289356 0.271603
v -0.068471 0.379501 0.233816
v 0.068471 0.379501 0.233816
v 0.068471 0.289356 0.271603
v -0.068471 0.332078 0.384602
v -0.068471 0.401564 0.352946
v 0.068471 0.401564 0.352946
v 0.068471 0.332078 0.384602
v -0.068471 0.321230 0.477247
v -0.068471 0.364801 0.488953
v 0.068471 0.364801 0.488953
v 0.068471 0.321230 0.477247
v -0.068471 0.267223 0.560235
v -0.068471 0.279370 0.579795
v 0.068471 0.279370 0.579795
v 0.068471 0.267223 0.560235
v 0.068471 0.308926 0.123376
v 0.068471 0.221910 0.196129
v -0.068471 0.221910 0.196129
v -0.068471 0.308926 0.123376
v 0.068471 0.369839 0.206952
v 0.068471 0.314068 0.287224
v -0.068471 0.314068 0.287224
v -0.068471 0.369839 0.206952
v 0.068471 0.471431 0.272318
v 0.068471 0.425969 0.333667
v -0.068471 0.425969 0.333667
v -0.068471 0.471431 0.272318
v 0.068471 0.564299 0.281047
v 0.068471 0.566653 0.326102
v -0.068471 0.566653 0.326102
v -0.068471 0.564299 0.281047
v 0.068471 0.656732 0.245552
v 0.068471 0.673327 0.261515
v -0.068471 0.673327 0.261515
v -0.068471 0.656732 0.245552
vt 0.625000 0.000000
vt 0.375000 0.250000
vt 0.375000 0.000000
vt 0.625000 0.250000
vt 0.375000 0.500000
vt 0.625000 0.500000
vt 0.375000 0.750000
vt 0.625000 0.750000
vt 0.375000 1.000000
vt 0.125000 0.750000
vt 0.125000 0.500000
vt 0.875000 0.500000
vt 0.375000 0.000000
vt 0.625000 0.250000
vt 0.375000 0.250000
vt 0.375000 0.500000
vt 0.625000 0.500000
vt 0.375000 0.750000
vt 0.625000 0.750000
vt 0.375000 1.000000
vt 0.375000 0.000000
vt 0.625000 1.000000
vt 0.625000 1.000000
vt 0.375000 0.750000
vt 0.375000 0.500000
vt 0.375000 0.500000
vt 0.375000 0.250000
vt 0.375000 0.750000
vt 0.375000 0.500000
vt 0.375000 0.250000
vt 0.375000 0.000000
vt 0.375000 1.000000
vt 0.375000 1.000000
vt 0.375000 0.750000
vt 0.375000 0.750000
vt 0.375000 0.250000
vt 0.375000 0.000000
vt 0.375000 1.000000
vt 0.375000 0.500000
vt 0.375000 0.500000
vt 0.375000 0.250000
vt 0.375000 0.000000
vt 0.375000 0.000000
vt 0.375000 0.250000
vt 0.375000 0.000000
vt 0.375000 0.250000
vt 0.375000 1.000000
vt 0.375000 0.750000
vt 0.375000 1.000000
vt 0.375000 0.750000
vt 0.375000 0.750000
vt 0.375000 1.000000
vt 0.375000 0.500000
vt 0.375000 0.500000
vt 0.375000 0.750000
vt 0.375000 0.500000
vt 0.375000 0.250000
vt 0.375000 0.000000
vt 0.375000 1.000000
vt 0.375000 0.750000
vt 0.375000 0.000000
vt 0.375000 1.000000
vt 0.375000 0.250000
vt 0.375000 0.500000
vt 0.375000 0.250000
vt 0.375000 0.250000
vt 0.375000 0.000000
vt 0.375000 0.500000
vt 0.125000 0.750000
vt 0.125000 0.500000
vt 0.375000 0.750000
vt 0.375000 0.000000
vt 0.375000 1.000000
vt 0.625000 0.750000
vt 0.625000 1.000000
vt 0.625000 0.500000
vt 0.625000 0.000000
vt 0.625000 0.250000
vt 0.625000 0.250000
vt 0.625000 0.500000
vt 0.625000 0.500000
vt 0.625000 0.750000
vt 0.625000 0.000000
vt 0.625000 0.750000
vt 0.625000 0.500000
vt 0.625000 0.750000
vt 0.625000 0.000000
vt 0.625000 0.250000
vt 0.625000 1.000000
vt 0.625000 0.750000
vt 0.625000 0.000000
vt 0.625000 0.250000
vt 0.625000 1.000000
vt 0.875000 0.500000
vt 0.625000 0.500000
vt 0.625000 0.000000
vt 0.625000 0.250000
vt 0.625000 1.000000
vt 0.625000 0.750000
vt 0.625000 1.000000
vt 0.625000 1.000000
vt 0.625000 0.250000
vt 0.625000 0.500000
vt 0.625000 0.500000
vt 0.625000 0.500000
vt 0.625000 0.750000
vt 0.625000 0.250000
vt 0.625000 0.000000
vt 0.625000 0.750000
vt 0.625000 0.750000
vt 0.625000 0.000000
vt 0.625000 0.250000
vt 0.625000 1.000000
vt 0.625000 0.500000
vt 0.625000 0.750000
vt 0.625000 0.000000
vt 0.625000 0.250000
vt 0.625000 1.000000
vt 0.625000 0.500000
vt 0.875000 0.500000
vt 0.625000 0.250000
vt 0.625000 1.000000
vt 0.625000 1.000000
vt 0.875000 0.750000
vt 0.375000 1.000000
vt 0.625000 0.000000
vt 0.875000 0.750000
vt 0.625000 0.000000
vt 0.875000 0.750000
vt 0.625000 0.000000
vn -1.0000 0.0000 0.0000
vn 0.0000 0.0000 -1.0000
vn 1.0000 0.0000 0.0000
vn 0.0000 0.0000 1.0000
vn 0.0000 -1.0000 0.0000
vn 0.0000 1.0000 0.0000
vn 0.0000 0.4927 -0.8702
vn 0.0000 0.2703 -0.9628
vn 0.0000 -0.4670 0.8843
vn 0.0000 -0.2515 0.9679
vn 0.0000 -0.6719 0.7406
vn 0.0000 -0.0693 0.9976
vn 0.0000 0.0779 -0.9970
vn 0.0000 0.1543 0.9880
vn 0.0000 -0.1491 -0.9888
vn 0.0000 0.3283 0.9446
vn 0.0000 0.3256 0.9455
vn 0.0000 -0.3338 -0.9426
vn 0.0000 -0.3540 -0.9352
vn 0.0000 0.1387 0.9903
vn 0.0000 -0.1657 -0.9862
vn 0.0000 -0.1169 0.9931
vn 0.0000 -0.3836 0.9235
vn 0.0000 0.1083 -0.9941
vn 0.0000 0.3865 -0.9223
vn 0.0000 -0.6052 0.7961
vn 0.0000 -0.7917 0.6110
vn 0.0000 0.6053 -0.7960
vn 0.0000 0.7881 -0.6155
vn 0.0000 0.8793 -0.4763
vn 0.0000 -0.5881 -0.8088
vn 0.0000 -0.8793 0.4763
vn 0.0000 -0.8546 0.5193
vn 0.0000 0.7404 -0.6721
vn 0.0000 0.9301 -0.3674
vn 0.0000 0.9992 0.0404
vn 0.0000 -0.9925 0.1221
vn 0.0000 -0.9405 -0.3398
vn 0.0000 0.8731 0.4876
vn 0.0000 -0.8495 0.5275
vn 0.0000 -0.9999 -0.0106
vn 0.0000 0.7285 0.6851
vn 0.0000 0.8081 -0.5890
vn 0.0000 0.6863 -0.7273
vn 0.0000 -0.5534 0.8329
vn -0.0000 -0.1690 0.9856
vn 0.0000 -0.7030 0.7112
vn -0.0000 0.3266 -0.9452
vn 0.0000 -0.1360 -0.9907
vn -0.0000 0.2946 0.9556
vn 0.0000 0.6932 -0.7207
vn 0.0000 0.1983 -0.9801
vn 0.0000 0.5179 0.8554
s 1
f 2/1/1 3/2/1 1/3/1
f 4/4/2 7/5/2 3/2/2
f 8/6/3 5/7/3 7/5/3
f 6/8/4 1/9/4 5/7/4
f 7/5/5 1/10/5 3/11/5
f 4/12/6 6/8/6 8/6/6
f 9/13/1 12/14/1 11/15/1
f 12/14/7 15/16/8 11/15/8
f 16/17/3 13/18/3 15/16/3
f 14/19/9 9/20/10 13/18/10
f 11/15/1 18/21/1 9/13/1
f 14/19/9 57/22/11 10/23/9
f 20/24/3 23/25/3 19/26/3
f 15/16/3 20/24/3 19/26/3
f 9/20/10 20/24/12 13/18/10
f 15/16/8 17/27/13 11/15/8
f 24/28/3 27/29/3 23/25/3
f 18/21/1 21/30/1 22/31/1
f 18/32/12 24/28/14 20/24/12
f 19/26/13 21/30/15 17/27/13
f 26/33/16 32/34/17 28/35/16
f 22/31/1 25/36/1 26/37/1
f 22/38/14 28/35/16 24/28/14
f 23/25/15 25/36/18 21/30/15
f 32/34/3 35/39/3 31/40/3
f 27/29/18 29/41/19 25/36/18
f 28/35/3 31/40/3 27/29/3
f 26/37/1 29/41/1 30/42/1
f 34/43/1 37/44/1 38/45/1
f 30/42/1 33/46/1 34/43/1
f 30/47/17 36/48/20 32/34/17
f 31/40/19 33/46/21 29/41/19
f 38/49/22 44/50/23 40/51/22
f 34/52/20 40/51/22 36/48/20
f 35/39/21 37/44/24 33/46/21
f 36/48/3 39/53/3 35/39/3
f 43/54/3 48/55/3 47/56/3
f 39/53/24 41/57/25 37/44/24
f 39/53/3 44/50/3 43/54/3
f 37/44/1 42/58/1 38/45/1
f 46/59/26 52/60/27 48/55/26
f 41/57/1 46/61/1 42/58/1
f 42/62/23 48/55/26 44/50/23
f 43/54/25 45/63/28 41/57/25
f 51/64/29 53/65/30 49/66/29
f 47/56/28 49/66/29 45/63/28
f 47/56/3 52/60/3 51/64/3
f 45/63/1 50/67/1 46/61/1
f 55/68/31 54/69/31 53/70/31
f 51/64/3 56/71/3 55/68/3
f 49/66/1 54/72/1 50/67/1
f 50/73/27 56/71/32 52/60/27
f 60/74/11 61/75/33 57/22/11
f 12/14/7 59/76/34 16/17/7
f 14/19/3 59/76/3 60/74/3
f 10/77/1 58/78/1 12/14/1
f 62/79/35 67/80/36 63/81/35
f 58/78/34 63/81/35 59/76/34
f 60/74/3 63/81/3 64/82/3
f 57/83/1 62/79/1 58/78/1
f 68/84/3 71/85/3 72/86/3
f 64/82/3 67/80/3 68/84/3
f 61/87/1 66/88/1 62/79/1
f 64/82/33 65/89/37 61/75/33
f 71/85/3 76/90/3 72/86/3
f 65/91/1 70/92/1 66/88/1
f 68/84/37 69/93/38 65/89/37
f 66/88/36 71/85/39 67/80/36
f 74/94/40 76/90/41 75/95/40
f 70/92/1 73/96/1 74/97/1
f 72/86/38 73/98/41 69/93/38
f 70/92/39 75/95/42 71/85/39
f 80/99/43 81/100/44 77/101/43
f 82/102/45 87/103/46 83/104/45
f 79/105/47 82/102/45 83/104/45
f 79/105/1 84/106/1 80/99/1
f 78/107/3 81/108/3 82/102/3
f 87/103/1 92/109/1 88/110/1
f 83/104/1 88/110/1 84/106/1
f 82/102/3 85/111/3 86/112/3
f 84/106/44 85/113/48 81/100/44
f 92/109/1 95/114/1 96/115/1
f 86/112/3 89/116/3 90/117/3
f 88/110/48 89/118/49 85/113/48
f 87/103/46 90/117/50 91/119/50
f 94/120/51 96/115/52 95/114/51
f 89/116/3 94/121/3 90/117/3
f 92/109/49 93/122/52 89/118/49
f 91/119/50 94/121/53 95/114/53
f 2/1/1 4/4/1 3/2/1
f 4/4/2 8/6/2 7/5/2
f 8/6/3 6/8/3 5/7/3
f 6/8/4 2/123/4 1/9/4
f 7/5/5 5/7/5 1/10/5
f 4/12/6 2/124/6 6/8/6
f 9/13/1 10/77/1 12/14/1
f 12/14/7 16/17/7 15/16/8
f 16/17/3 14/19/3 13/18/3
f 14/19/9 10/23/9 9/20/10
f 11/15/1 17/27/1 18/21/1
f 14/19/9 60/74/11 57/22/11
f 20/24/3 24/28/3 23/25/3
f 15/16/3 13/18/3 20/24/3
f 9/20/10 18/32/12 20/24/12
f 15/16/8 19/26/13 17/27/13
f 24/28/3 28/35/3 27/29/3
f 18/21/1 17/27/1 21/30/1
f 18/32/12 22/38/14 24/28/14
f 19/26/13 23/25/15 21/30/15
f 26/33/16 30/47/17 32/34/17
f 22/31/1 21/30/1 25/36/1
f 22/38/14 26/33/16 28/35/16
f 23/25/15 27/29/18 25/36/18
f 32/34/3 36/48/3 35/39/3
f 27/29/18 31/40/19 29/41/19
f 28/35/3 32/34/3 31/40/3
f 26/37/1 25/36/1 29/41/1
f 34/43/1 33/46/1 37/44/1
f 30/42/1 29/41/1 33/46/1
f 30/47/17 34/52/20 36/48/20
f 31/40/19 35/39/21 33/46/21
f 38/49/22 42/62/23 44/50/23
f 34/52/20 38/49/22 40/51/22
f 35/39/21 39/53/24 37/44/24
f 36/48/3 40/51/3 39/53/3
f 43/54/3 44/50/3 48/55/3
f 39/53/24 43/54/25 41/57/25
f 39/53/3 40/51/3 44/50/3
f 37/44/1 41/57/1 42/58/1
f 46/59/26 50/73/27 52/60/27
f 41/57/1 45/63/1 46/61/1
f 42/62/23 46/59/26 48/55/26
f 43/54/25 47/56/28 45/63/28
f 51/64/29 55/68/30 53/65/30
f 47/56/28 51/64/29 49/66/29
f 47/56/3 48/55/3 52/60/3
f 45/63/1 49/66/1 50/67/1
f 55/68/31 56/71/31 54/69/31
f 51/64/3 52/60/3 56/71/3
f 49/66/1 53/65/1 54/72/1
f 50/73/27 54/125/32 56/71/32
f 60/74/11 64/82/33 61/75/33
f 12/14/7 58/78/34 59/76/34
f 14/19/3 16/17/3 59/76/3
f 10/77/1 57/83/1 58/78/1
f 62/79/35 66/88/36 67/80/36
f 58/78/34 62/79/35 63/81/35
f 60/74/3 59/76/3 63/81/3
f 57/83/1 61/87/1 62/79/1
f 68/84/3 67/80/3 71/85/3
f 64/82/3 63/81/3 67/80/3
f 61/87/1 65/91/1 66/88/1
f 64/82/33 68/84/37 65/89/37
f 71/85/3 75/95/3 76/90/3
f 65/91/1 69/126/1 70/92/1
f 68/84/37 72/86/38 69/93/38
f 66/88/36 70/92/39 71/85/39
f 74/94/40 73/127/41 76/90/41
f 70/92/1 69/126/1 73/96/1
f 72/86/38 76/90/41 73/98/41
f 70/92/39 74/97/42 75/95/42
f 80/99/43 84/106/44 81/100/44
f 82/102/45 86/112/46 87/103/46
f 79/105/47 78/107/47 82/102/45
f 79/105/1 83/104/1 84/106/1
f 78/107/3 77/128/3 81/108/3
f 87/103/1 91/119/1 92/109/1
f 83/104/1 87/103/1 88/110/1
f 82/102/3 81/108/3 85/111/3
f 84/106/44 88/110/48 85/113/48
f 92/109/1 91/119/1 95/114/1
f 86/112/3 85/111/3 89/116/3
f 88/110/48 92/109/49 89/118/49
f 87/103/46 86/112/46 90/117/50
f 94/120/51 93/129/52 96/115/52
f 89/116/3 93/130/3 94/121/3
f 92/109/49 96/115/52 93/122/52
f 91/119/50 90/117/50 94/121/53
