# Blender v3.4.1 OBJ File: 'windmill.blend'
# www.blender.org
o Big_Fan_Cube.006
v 0.066425 0.123122 0.136652
v 0.060192 0.069195 0.125857
v -0.078899 0.190306 -0.115056
v -0.085132 0.136378 -0.125851
v -0.653162 0.126657 0.497441
v -0.551408 0.119130 0.480736
v -0.633139 0.122694 0.506272
v -0.595894 0.119939 0.500157
v -0.556210 0.077579 0.472418
v -0.657769 0.086794 0.489461
v -0.600599 0.079232 0.492008
v -0.637772 0.082605 0.498247
v -0.665249 0.170833 0.288079
v -0.725665 0.160175 0.371861
v -0.701848 0.168459 0.318902
v -0.723962 0.164558 0.349568
v -0.730272 0.120313 0.363881
v -0.670047 0.129321 0.279769
v -0.728594 0.124474 0.341544
v -0.706550 0.127771 0.310757
v -0.151556 0.123122 -0.010801
v -0.139091 0.069195 -0.010801
v 0.139091 0.190306 -0.010801
v 0.151556 0.136378 -0.010801
v -0.104216 0.126657 -0.814375
v -0.140625 0.119130 -0.717901
v -0.121875 0.122694 -0.801450
v -0.135201 0.119939 -0.766138
v -0.131021 0.077579 -0.717901
v -0.095002 0.086794 -0.814375
v -0.125792 0.079232 -0.766138
v -0.112608 0.082605 -0.801450
v 0.083141 0.170833 -0.720162
v 0.040792 0.160175 -0.814375
v 0.074747 0.168458 -0.767269
v 0.059246 0.164558 -0.801753
v 0.050006 0.120313 -0.814375
v 0.092736 0.129321 -0.720162
v 0.068512 0.124474 -0.801753
v 0.084152 0.127771 -0.767269
v -0.085132 0.123122 0.125852
v -0.078899 0.069195 0.115056
v 0.060192 0.190306 -0.125857
v 0.066425 0.136378 -0.136652
v -0.757377 0.126657 -0.316934
v -0.692033 0.119130 -0.237165
v -0.755013 0.122694 -0.295178
v -0.731096 0.119939 -0.265981
v -0.687231 0.077579 -0.245483
v -0.752770 0.086794 -0.324914
v -0.726391 0.079232 -0.274130
v -0.750380 0.082605 -0.303203
v -0.582108 0.170833 -0.432083
v -0.684874 0.160175 -0.442514
v -0.627101 0.168458 -0.448367
v -0.664715 0.164558 -0.452185
v -0.680266 0.120313 -0.450494
v -0.577311 0.129321 -0.440393
v -0.660083 0.124474 -0.460209
v -0.622398 0.127771 -0.456512
v 0.151556 0.123122 0.010801
v 0.139091 0.069195 0.010801
v -0.139091 0.190306 0.010801
v -0.151556 0.136378 0.010801
v 0.104216 0.126657 0.814375
v 0.140626 0.119130 0.717901
v 0.121875 0.122694 0.801450
v 0.135202 0.119939 0.766138
v 0.131021 0.077579 0.717901
v 0.095002 0.086794 0.814375
v 0.125792 0.079232 0.766138
v 0.112608 0.082605 0.801450
v -0.083140 0.170833 0.720162
v -0.040791 0.160175 0.814375
v -0.074747 0.168458 0.767269
v -0.059246 0.164558 0.801753
v -0.050006 0.120313 0.814375
v -0.092736 0.129321 0.720162
v -0.068511 0.124474 0.801753
v -0.084152 0.127771 0.767269
v 0.085132 0.123122 -0.125852
v 0.078899 0.069195 -0.115056
v -0.060192 0.190306 0.125857
v -0.066425 0.136378 0.136652
v 0.757378 0.126657 0.316934
v 0.692033 0.119130 0.237165
v 0.755013 0.122694 0.295178
v 0.731096 0.119939 0.265981
v 0.687231 0.077579 0.245483
v 0.752770 0.086794 0.324913
v 0.726391 0.079232 0.274129
v 0.750380 0.082605 0.303203
v 0.582109 0.170833 0.432083
v 0.684874 0.160175 0.442514
v 0.627101 0.168458 0.448367
v 0.664716 0.164558 0.452185
v 0.680267 0.120313 0.450494
v 0.577311 0.129321 0.440393
v 0.660083 0.124474 0.460209
v 0.622398 0.127771 0.456512
v -0.066425 0.123122 -0.136652
v -0.060192 0.069195 -0.125857
v 0.078899 0.190306 0.115056
v 0.085132 0.136378 0.125851
v 0.653161 0.126657 -0.497442
v 0.551408 0.119130 -0.480736
v 0.633138 0.122694 -0.506272
v 0.595894 0.119939 -0.500157
v 0.556210 0.077579 -0.472418
v 0.657768 0.086794 -0.489462
v 0.600599 0.079232 -0.492009
v 0.637772 0.082605 -0.498247
v 0.665249 0.170833 -0.288080
v 0.725665 0.160175 -0.371862
v 0.701847 0.168458 -0.318902
v 0.723961 0.164558 -0.349568
v 0.730272 0.120313 -0.363882
v 0.670047 0.129321 -0.279770
v 0.728594 0.124474 -0.341544
v 0.706550 0.127771 -0.310757
vt 0.834368 0.500000
vt 0.665632 0.750000
vt 0.665632 0.500000
vt 0.595689 0.500000
vt 0.375000 0.750000
vt 0.375000 0.500000
vt 0.594986 0.000000
vt 0.375000 0.250000
vt 0.375000 0.000000
vt 0.125000 0.750000
vt 0.125000 0.500000
vt 0.594986 0.250000
vt 0.625000 0.459368
vt 0.875000 0.750000
vt 0.834368 0.750000
vt 0.625000 0.250000
vt 0.610142 -0.000024
vt 0.625000 0.000000
vt 0.610142 0.250024
vt 0.644128 0.499307
vt 0.644128 0.750693
vt 0.611202 0.499863
vt 0.611202 0.750137
vt 0.594986 1.000000
vt 0.595689 0.750000
vt 0.625000 0.790632
vt 0.665632 0.500000
vt 0.834368 0.750000
vt 0.665632 0.750000
vt 0.375000 0.500000
vt 0.595689 0.750000
vt 0.375000 0.750000
vt 0.594986 0.000000
vt 0.375000 0.250000
vt 0.375000 0.000000
vt 0.125000 0.750000
vt 0.125000 0.500000
vt 0.621073 0.480189
vt 0.610345 0.495064
vt 0.594986 0.250000
vt 0.834368 0.500000
vt 0.875000 0.750000
vt 0.625000 0.000000
vt 0.610142 0.250024
vt 0.610142 -0.000024
vt 0.644128 0.499307
vt 0.644128 0.750693
vt 0.611202 0.499863
vt 0.611202 0.750137
vt 0.595689 0.500000
vt 0.594986 1.000000
vt 0.375000 1.000000
vt 0.665632 0.500000
vt 0.834368 0.750000
vt 0.665632 0.750000
vt 0.375000 0.500000
vt 0.595689 0.750000
vt 0.375000 0.750000
vt 0.594986 0.000000
vt 0.375000 0.250000
vt 0.375000 0.000000
vt 0.125000 0.750000
vt 0.125000 0.500000
vt 0.610345 0.495064
vt 0.595689 0.500000
vt 0.594986 0.250000
vt 0.875000 0.500000
vt 0.875000 0.750000
vt 0.625000 0.000000
vt 0.610142 0.250024
vt 0.610142 -0.000024
vt 0.644128 0.499307
vt 0.644128 0.750693
vt 0.611202 0.499863
vt 0.611202 0.750137
vt 0.594986 1.000000
vt 0.375000 1.000000
vt 0.665632 0.500000
vt 0.834368 0.750000
vt 0.665632 0.750000
vt 0.595689 0.500000
vt 0.375000 0.750000
vt 0.375000 0.500000
vt 0.375000 0.000000
vt 0.594986 0.250000
vt 0.375000 0.250000
vt 0.125000 0.750000
vt 0.125000 0.500000
vt 0.834368 0.500000
vt 0.875000 0.750000
vt 0.625000 0.250000
vt 0.610142 -0.000024
vt 0.625000 0.000000
vt 0.610142 0.250024
vt 0.594986 0.000000
vt 0.644128 0.750693
vt 0.644128 0.499307
vt 0.611202 0.750137
vt 0.611202 0.499863
vt 0.595689 0.750000
vt 0.609993 0.994972
vt 0.594986 1.000000
vt 0.665632 0.500000
vt 0.834368 0.750000
vt 0.665632 0.750000
vt 0.595689 0.500000
vt 0.375000 0.750000
vt 0.375000 0.500000
vt 0.375000 0.000000
vt 0.594986 0.250000
vt 0.375000 0.250000
vt 0.125000 0.750000
vt 0.125000 0.500000
vt 0.834368 0.500000
vt 0.875000 0.750000
vt 0.625000 0.250000
vt 0.610142 -0.000024
vt 0.625000 0.000000
vt 0.610142 0.250024
vt 0.594986 0.000000
vt 0.644128 0.499307
vt 0.611202 0.750137
vt 0.611202 0.499863
vt 0.595689 0.750000
vt 0.609993 0.994972
vt 0.625000 0.959368
vt 0.665632 0.500000
vt 0.834368 0.750000
vt 0.665632 0.750000
vt 0.375000 0.500000
vt 0.595689 0.750000
vt 0.375000 0.750000
vt 0.375000 0.000000
vt 0.594986 0.250000
vt 0.375000 0.250000
vt 0.125000 0.750000
vt 0.125000 0.500000
vt 0.595689 0.500000
vt 0.625000 0.459368
vt 0.834368 0.500000
vt 0.875000 0.750000
vt 0.625000 0.250000
vt 0.610142 -0.000024
vt 0.625000 0.000000
vt 0.610142 0.250024
vt 0.594986 0.000000
vt 0.644128 0.499307
vt 0.644128 0.750693
vt 0.611202 0.499863
vt 0.611202 0.750137
vt 0.594986 1.000000
vt 0.375000 1.000000
vt 0.625000 0.959368
vt 0.609993 0.255029
vt 0.625000 0.290632
vt 0.620979 0.269903
vt 0.621073 0.480189
vt 0.610345 0.495064
vt 0.875000 0.500000
vt 0.375000 1.000000
vt 0.610345 0.754936
vt 0.621073 0.769812
vt 0.625000 0.959368
vt 0.620979 0.980097
vt 0.609993 0.994972
vt 0.609993 0.255029
vt 0.625000 0.290632
vt 0.620979 0.269903
vt 0.625000 0.459368
vt 0.875000 0.500000
vt 0.625000 0.250000
vt 0.610345 0.754936
vt 0.621073 0.769812
vt 0.625000 0.790632
vt 0.625000 0.959368
vt 0.620979 0.980097
vt 0.609993 0.994972
vt 0.834368 0.500000
vt 0.609993 0.255029
vt 0.620979 0.269903
vt 0.625000 0.290632
vt 0.621073 0.480189
vt 0.625000 0.459368
vt 0.625000 0.250000
vt 0.610345 0.754936
vt 0.621073 0.769812
vt 0.609993 0.994972
vt 0.625000 0.790632
vt 0.625000 0.959368
vt 0.620979 0.980097
vt 0.609993 0.255029
vt 0.620979 0.269903
vt 0.610345 0.495064
vt 0.625000 0.290632
vt 0.625000 0.459368
vt 0.621073 0.480189
vt 0.875000 0.500000
vt 0.375000 1.000000
vt 0.610345 0.754936
vt 0.621073 0.769812
vt 0.625000 0.790632
vt 0.625000 0.959368
vt 0.620979 0.980097
vt 0.609993 0.255029
vt 0.620979 0.269903
vt 0.625000 0.290632
vt 0.625000 0.459368
vt 0.621073 0.480189
vt 0.610345 0.495064
vt 0.875000 0.500000
vt 0.644128 0.750693
vt 0.375000 1.000000
vt 0.594986 1.000000
vt 0.610345 0.754936
vt 0.625000 0.790632
vt 0.621073 0.769812
vt 0.620979 0.980097
vt 0.625000 0.290632
vt 0.620979 0.269903
vt 0.609993 0.255029
vt 0.621073 0.480189
vt 0.610345 0.495064
vt 0.875000 0.500000
vt 0.625000 0.790632
vt 0.610345 0.754936
vt 0.621073 0.769812
vt 0.620979 0.980097
vt 0.609993 0.994972
vn -0.8660 0.0000 0.5000
vn -0.5974 0.2232 -0.7703
vn -0.5571 0.2244 -0.7995
vn 0.4316 -0.2248 0.8736
vn 0.4752 -0.2252 0.8506
vn 0.8660 0.0000 -0.5000
vn -0.1204 -0.9743 -0.1905
vn -0.4216 -0.1309 0.8973
vn 0.1432 -0.2102 0.9671
vn 0.2677 -0.2188 0.9383
vn -0.9909 0.1248 -0.0512
vn -0.8061 0.2043 -0.5553
vn -0.7266 0.2146 -0.6527
vn 0.1048 0.9743 0.1995
vn 0.0000 0.0000 -1.0000
vn 0.9710 0.2244 -0.0827
vn 0.9658 0.2232 -0.1322
vn -0.9724 -0.2248 -0.0630
vn -0.9742 -0.2252 -0.0138
vn -0.0000 -0.0000 1.0000
vn 0.2252 -0.9743 -0.0090
vn -0.5663 -0.1309 -0.8138
vn -0.9092 -0.2102 -0.3595
vn -0.9465 -0.2188 -0.2373
vn 0.5398 0.1248 -0.8325
vn 0.8840 0.2043 -0.4205
vn 0.9285 0.2146 -0.3029
vn -0.2252 0.9743 -0.0090
vn -0.8660 0.0000 -0.5000
vn 0.4138 0.2244 -0.8823
vn 0.3684 0.2232 -0.9025
vn -0.5407 -0.2248 0.8106
vn -0.4991 -0.2252 0.8368
vn 0.8660 0.0000 0.5000
vn 0.1048 -0.9743 -0.1995
vn -0.9879 -0.1309 0.0835
vn -0.7659 -0.2102 0.6076
vn -0.6788 -0.2188 0.7010
vn -0.4511 0.1248 -0.8837
vn 0.0779 0.2043 -0.9758
vn 0.2019 0.2146 -0.9556
vn -0.1204 0.9743 0.1905
vn -0.9658 0.2232 0.1322
vn -0.9710 0.2244 0.0827
vn 0.9742 -0.2252 0.0138
vn 0.9724 -0.2248 0.0630
vn -0.2252 -0.9743 0.0090
vn 0.5663 -0.1309 0.8138
vn 0.9092 -0.2102 0.3595
vn 0.9465 -0.2188 0.2373
vn -0.5398 0.1248 0.8325
vn -0.8840 0.2043 0.4205
vn -0.9285 0.2146 0.3029
vn 0.2252 0.9743 0.0090
vn -0.3684 0.2232 0.9025
vn -0.4138 0.2244 0.8823
vn 0.4990 -0.2252 -0.8368
vn 0.5407 -0.2248 -0.8106
vn -0.1048 -0.9743 0.1995
vn 0.9879 -0.1309 -0.0835
vn 0.7659 -0.2102 -0.6076
vn 0.6788 -0.2188 -0.7010
vn 0.4511 0.1248 0.8837
vn -0.0779 0.2043 0.9758
vn -0.2019 0.2146 0.9556
vn 0.1204 0.9743 -0.1905
vn 0.5571 0.2244 0.7995
vn 0.5974 0.2232 0.7703
vn -0.4752 -0.2252 -0.8506
vn -0.4316 -0.2248 -0.8736
vn 0.1204 -0.9743 0.1905
vn 0.4216 -0.1309 -0.8973
vn -0.1432 -0.2102 -0.9671
vn -0.2677 -0.2188 -0.9383
vn 0.9909 0.1248 0.0512
vn 0.8061 0.2043 0.5553
vn 0.7266 0.2146 0.6527
vn -0.1048 0.9743 -0.1995
s 1
f 10/1/1 14/2/1 17/3/1
f 18/4/2 3/5/3 4/6/3
f 6/7/4 2/8/5 1/9/5
f 4/6/6 1/10/6 2/11/6
f 9/12/7 17/13/7 18/4/7
f 10/1/8 7/14/8 5/15/8
f 12/16/9 8/17/10 7/18/9
f 11/19/10 6/7/4 8/17/10
f 14/2/11 19/20/11 17/3/11
f 16/21/12 20/22/13 19/20/12
f 15/23/13 18/4/2 20/22/13
f 6/24/14 13/25/14 14/26/14
f 37/27/15 25/28/15 34/29/15
f 24/30/16 33/31/17 23/32/16
f 26/33/18 22/34/19 21/35/19
f 24/30/20 21/36/20 22/37/20
f 39/38/21 40/39/21 29/40/21
f 30/41/22 27/42/22 25/28/22
f 27/43/23 31/44/24 28/45/24
f 28/45/24 29/40/18 26/33/18
f 34/29/25 39/46/25 37/27/25
f 36/47/26 40/48/27 39/46/26
f 35/49/27 38/50/17 40/48/27
f 26/51/28 21/52/28 33/31/28
f 57/53/29 45/54/29 54/55/29
f 44/56/30 53/57/31 43/58/30
f 46/59/32 42/60/33 41/61/33
f 44/56/34 41/62/34 42/63/34
f 60/64/35 58/65/35 49/66/35
f 45/54/36 52/67/36 47/68/36
f 47/69/37 51/70/38 48/71/38
f 48/71/38 49/66/32 46/59/32
f 54/55/39 59/72/39 57/53/39
f 56/73/40 60/74/41 59/72/40
f 55/75/41 58/65/31 60/74/41
f 46/76/42 41/77/42 53/57/42
f 77/78/20 65/79/20 74/80/20
f 78/81/43 63/82/44 64/83/44
f 61/84/45 69/85/46 62/86/45
f 64/83/15 61/87/15 62/88/15
f 78/81/47 64/83/47 69/85/47
f 70/89/48 67/90/48 65/79/48
f 72/91/49 68/92/50 67/93/49
f 71/94/50 66/95/46 68/92/50
f 77/78/51 76/96/51 79/97/51
f 79/97/52 75/98/53 80/99/53
f 80/99/53 73/100/43 78/81/43
f 68/101/54 66/102/54 73/100/54
f 97/103/34 85/104/34 94/105/34
f 98/106/55 83/107/56 84/108/56
f 81/109/57 89/110/58 82/111/57
f 84/108/29 81/112/29 82/113/29
f 98/106/59 84/108/59 89/110/59
f 90/114/60 87/115/60 85/104/60
f 92/116/61 88/117/62 87/118/61
f 91/119/62 86/120/58 88/117/62
f 94/105/63 99/121/63 97/103/63
f 99/121/64 95/122/65 100/123/65
f 100/123/65 93/124/55 98/106/55
f 88/125/66 93/124/66 85/126/66
f 117/127/6 105/128/6 114/129/6
f 104/130/67 113/131/68 103/132/67
f 101/133/69 109/134/70 102/135/69
f 104/130/1 101/136/1 102/137/1
f 118/138/71 104/130/71 117/139/71
f 110/140/72 107/141/72 105/128/72
f 112/142/73 108/143/74 107/144/73
f 111/145/74 106/146/70 108/143/74
f 114/129/75 119/147/75 117/127/75
f 116/148/76 120/149/77 119/147/76
f 115/150/77 118/138/68 120/149/77
f 106/151/78 101/152/78 105/153/78
f 10/1/1 5/15/1 14/2/1
f 18/4/2 13/25/2 3/5/3
f 6/7/4 9/12/4 2/8/5
f 4/6/6 3/5/6 1/10/6
f 4/6/7 2/8/7 18/4/7
f 2/8/7 9/12/7 18/4/7
f 9/12/7 11/154/7 10/155/7
f 11/154/7 12/156/7 10/155/7
f 10/155/7 17/13/7 9/12/7
f 17/13/7 19/157/7 20/158/7
f 20/158/7 18/4/7 17/13/7
f 10/1/8 12/159/8 7/14/8
f 12/16/9 11/19/10 8/17/10
f 11/19/10 9/12/4 6/7/4
f 14/2/11 16/21/11 19/20/11
f 16/21/12 15/23/13 20/22/13
f 15/23/13 13/25/2 18/4/2
f 1/160/14 3/5/14 13/25/14
f 13/25/14 15/161/14 14/26/14
f 15/161/14 16/162/14 14/26/14
f 14/26/14 5/163/14 6/24/14
f 5/163/14 7/164/14 8/165/14
f 8/165/14 6/24/14 5/163/14
f 6/24/14 1/160/14 13/25/14
f 37/27/15 30/41/15 25/28/15
f 24/30/16 38/50/17 33/31/17
f 26/33/18 29/40/18 22/34/19
f 24/30/20 23/32/20 21/36/20
f 24/30/21 22/34/21 38/50/21
f 22/34/21 29/40/21 38/50/21
f 38/50/21 29/40/21 40/39/21
f 29/40/21 31/166/21 30/167/21
f 31/166/21 32/168/21 30/167/21
f 30/167/21 37/169/21 29/40/21
f 37/169/21 39/38/21 29/40/21
f 30/41/22 32/170/22 27/42/22
f 27/43/23 32/171/23 31/44/24
f 28/45/24 31/44/24 29/40/18
f 34/29/25 36/47/25 39/46/25
f 36/47/26 35/49/27 40/48/27
f 35/49/27 33/31/17 38/50/17
f 21/52/28 23/32/28 33/31/28
f 33/31/28 35/172/28 26/51/28
f 35/172/28 36/173/28 26/51/28
f 36/173/28 34/174/28 26/51/28
f 34/174/28 25/175/28 26/51/28
f 25/175/28 27/176/28 28/177/28
f 28/177/28 26/51/28 25/175/28
f 57/53/29 50/178/29 45/54/29
f 44/56/30 58/65/31 53/57/31
f 46/59/32 49/66/32 42/60/33
f 44/56/34 43/58/34 41/62/34
f 44/56/35 42/60/35 58/65/35
f 42/60/35 49/66/35 58/65/35
f 49/66/35 51/179/35 60/64/35
f 51/179/35 52/180/35 50/181/35
f 60/64/35 51/179/35 59/182/35
f 50/181/35 57/183/35 51/179/35
f 57/183/35 59/182/35 51/179/35
f 45/54/36 50/178/36 52/67/36
f 47/69/37 52/184/37 51/70/38
f 48/71/38 51/70/38 49/66/32
f 54/55/39 56/73/39 59/72/39
f 56/73/40 55/75/41 60/74/41
f 55/75/41 53/57/31 58/65/31
f 41/77/42 43/58/42 53/57/42
f 53/57/42 55/185/42 46/76/42
f 55/185/42 56/186/42 48/187/42
f 56/186/42 54/188/42 48/187/42
f 54/188/42 45/189/42 48/187/42
f 45/189/42 47/190/42 48/187/42
f 48/187/42 46/76/42 55/185/42
f 77/78/20 70/89/20 65/79/20
f 78/81/43 73/100/43 63/82/44
f 61/84/45 66/95/46 69/85/46
f 64/83/15 63/82/15 61/87/15
f 64/83/47 62/86/47 69/85/47
f 69/85/47 71/191/47 78/81/47
f 71/191/47 72/192/47 80/193/47
f 72/192/47 70/194/47 80/193/47
f 70/194/47 77/195/47 80/193/47
f 77/195/47 79/196/47 80/193/47
f 80/193/47 78/81/47 71/191/47
f 70/89/48 72/197/48 67/90/48
f 72/91/49 71/94/50 68/92/50
f 71/94/50 69/85/46 66/95/46
f 77/78/51 74/80/51 76/96/51
f 79/97/52 76/96/52 75/98/53
f 80/99/53 75/98/53 73/100/43
f 61/198/54 63/82/54 66/102/54
f 63/82/54 73/100/54 66/102/54
f 73/100/54 75/199/54 68/101/54
f 75/199/54 76/200/54 74/201/54
f 68/101/54 75/199/54 65/202/54
f 74/201/54 65/202/54 75/199/54
f 65/202/54 67/203/54 68/101/54
f 97/103/34 90/114/34 85/104/34
f 98/106/55 93/124/55 83/107/56
f 81/109/57 86/120/58 89/110/58
f 84/108/29 83/107/29 81/112/29
f 84/108/59 82/111/59 89/110/59
f 89/110/59 91/204/59 98/106/59
f 91/204/59 92/205/59 98/106/59
f 92/205/59 90/206/59 98/106/59
f 90/206/59 97/207/59 98/106/59
f 97/207/59 99/208/59 100/209/59
f 100/209/59 98/106/59 97/207/59
f 90/114/60 92/210/60 87/115/60
f 92/116/61 91/119/62 88/117/62
f 91/119/62 89/110/58 86/120/58
f 94/105/63 96/211/63 99/121/63
f 99/121/64 96/211/64 95/122/65
f 100/123/65 95/122/65 93/124/55
f 81/212/66 83/107/66 86/213/66
f 83/107/66 93/124/66 86/213/66
f 86/213/66 93/124/66 88/125/66
f 93/124/66 95/214/66 94/215/66
f 95/214/66 96/216/66 94/215/66
f 94/215/66 85/126/66 93/124/66
f 85/126/66 87/217/66 88/125/66
f 117/127/6 110/140/6 105/128/6
f 104/130/67 118/138/68 113/131/68
f 101/133/69 106/146/70 109/134/70
f 104/130/1 103/132/1 101/136/1
f 104/130/71 102/135/71 117/139/71
f 102/135/71 109/134/71 110/218/71
f 110/218/71 109/134/71 112/219/71
f 109/134/71 111/220/71 112/219/71
f 110/218/71 117/139/71 102/135/71
f 117/139/71 119/221/71 118/138/71
f 119/221/71 120/222/71 118/138/71
f 110/140/72 112/223/72 107/141/72
f 112/142/73 111/145/74 108/143/74
f 111/145/74 109/134/70 106/146/70
f 114/129/75 116/148/75 119/147/75
f 116/148/76 115/150/77 120/149/77
f 115/150/77 113/131/68 118/138/68
f 101/152/78 103/132/78 114/224/78
f 103/132/78 113/131/78 114/224/78
f 113/131/78 115/225/78 116/226/78
f 116/226/78 114/224/78 113/131/78
f 114/224/78 105/153/78 101/152/78
f 105/153/78 107/227/78 106/151/78
f 107/227/78 108/228/78 106/151/78
