# Blender v3.4.1 OBJ File: 'flags.blend'
# www.blender.org
o Canopy_Plane.006
v -1.000000 -0.158299 1.000000
v 1.000000 -0.158299 1.000000
v -1.000000 -0.158299 -1.000000
v 1.000000 -0.158299 -1.000000
v -1.000000 -0.059973 -0.666667
v -1.000000 -0.022780 -0.333333
v -1.000000 -0.010075 0.000000
v -1.000000 -0.022780 0.333333
v -1.000000 -0.059973 0.666667
v -0.666667 -0.059973 1.000000
v -0.333333 -0.018984 0.984495
v 0.000000 0.002601 0.984495
v 0.333333 -0.018984 0.984495
v 0.666667 -0.059973 1.000000
v 1.000000 -0.059973 0.666667
v 1.000000 -0.020600 0.333333
v 1.000000 -0.008795 -0.000000
v 1.000000 -0.020600 -0.333333
v 1.000000 -0.059973 -0.666667
v 0.666667 -0.059973 -1.000000
v 0.333333 -0.016581 -1.000000
v -0.000000 0.006277 -1.000000
v -0.333333 -0.016581 -1.000000
v -0.666667 -0.059973 -1.000000
v -0.666667 0.060943 0.666667
v -0.666667 0.140130 0.333333
v -0.666667 0.140130 -0.000000
v -0.666667 0.140130 -0.333333
v -0.666667 0.060943 -0.666667
v -0.333333 0.140130 0.666667
v -0.333333 0.222770 0.333333
v -0.333333 0.262015 -0.000000
v -0.333333 0.222770 -0.333333
v -0.333333 0.140130 -0.666667
v 0.000000 0.140130 0.666667
v 0.000000 0.262015 0.333333
v -0.000000 0.303201 -0.000000
v -0.000000 0.262015 -0.333333
v -0.000000 0.140130 -0.666667
v 0.333333 0.140130 0.666667
v 0.333333 0.222770 0.333333
v 0.333333 0.262015 -0.000000
v 0.333333 0.222770 -0.333333
v 0.333333 0.140130 -0.666667
v 0.666667 0.060943 0.666667
v 0.666667 0.140130 0.333333
v 0.666667 0.140130 -0.000000
v 0.666667 0.140130 -0.333333
v 0.666667 0.060943 -0.666667
v -1.000000 -0.158299 1.000000
v 1.000000 -0.158299 1.000000
v -1.000000 -0.158299 -1.000000
v 1.000000 -0.158299 -1.000000
v -1.000000 -0.059973 -0.666667
v -1.000000 -0.022780 -0.333333
v -1.000000 -0.010075 0.000000
v -1.000000 -0.022780 0.333333
v -1.000000 -0.059973 0.666667
v -0.666667 -0.059973 1.000000
v -0.333333 -0.018984 0.984495
v 0.000000 0.002601 0.984495
v 0.333333 -0.018984 0.984495
v 0.666667 -0.059973 1.000000
v 1.000000 -0.059973 0.666667
v 1.000000 -0.020600 0.333333
v 1.000000 -0.008795 -0.000000
v 1.000000 -0.020600 -0.333333
v 1.000000 -0.059973 -0.666667
v 0.666667 -0.059973 -1.000000
v 0.333333 -0.016581 -1.000000
v -0.000000 0.006277 -1.000000
v -0.333333 -0.016581 -1.000000
v -0.666667 -0.059973 -1.000000
v -0.666667 0.060943 0.666667
v -0.666667 0.140130 0.333333
v -0.666667 0.140130 -0.000000
v -0.666667 0.140130 -0.333333
v -0.666667 0.060943 -0.666667
v -0.333333 0.140130 0.666667
v -0.333333 0.222770 0.333333
v -0.333333 0.262015 -0.000000
v -0.333333 0.222770 -0.333333
v -0.333333 0.140130 -0.666667
v 0.000000 0.140130 0.666667
v 0.000000 0.262015 0.333333
v -0.000000 0.303201 -0.000000
v -0.000000 0.262015 -0.333333
v -0.000000 0.140130 -0.666667
v 0.333333 0.140130 0.666667
v 0.333333 0.222770 0.333333
v 0.333333 0.262015 -0.000000
v 0.333333 0.222770 -0.333333
v 0.333333 0.140130 -0.666667
v 0.666667 0.060943 0.666667
v 0.666667 0.140130 0.333333
v 0.666667 0.140130 -0.000000
v 0.666667 0.140130 -0.333333
v 0.666667 0.060943 -0.666667
vt 0.833333 1.000000
vt 1.000000 0.833333
vt 0.833333 0.833333
vt 0.000000 0.833333
vt 0.166667 1.000000
vt 0.166667 0.833333
vt 0.333333 1.000000
vt 0.333333 0.833333
vt 0.500000 1.000000
vt 0.500000 0.833333
vt 0.666667 0.833333
vt 0.666667 1.000000
vt 0.000000 0.166667
vt 0.166667 0.000000
vt 0.000000 0.000000
vt 0.000000 0.333333
vt 0.166667 0.166667
vt 0.000000 0.500000
vt 0.166667 0.333333
vt 0.166667 0.666667
vt 0.166667 0.500000
vt 0.000000 0.666667
vt 0.333333 0.000000
vt 0.333333 0.166667
vt 0.333333 0.333333
vt 0.333333 0.666667
vt 0.333333 0.500000
vt 0.500000 0.000000
vt 0.500000 0.166667
vt 0.500000 0.333333
vt 0.500000 0.666667
vt 0.500000 0.500000
vt 0.666667 0.166667
vt 0.666667 0.000000
vt 0.666667 0.333333
vt 0.666667 0.500000
vt 0.666667 0.666667
vt 0.833333 0.166667
vt 0.833333 0.000000
vt 0.833333 0.333333
vt 0.833333 0.500000
vt 0.833333 0.666667
vt 1.000000 0.166667
vt 1.000000 0.000000
vt 1.000000 0.333333
vt 1.000000 0.500000
vt 1.000000 0.666667
vt 1.000000 0.833333
vt 0.833333 1.000000
vt 0.833333 0.833333
vt 0.000000 0.833333
vt 0.166667 1.000000
vt 0.000000 1.000000
vt 0.166667 0.833333
vt 0.333333 1.000000
vt 0.333333 0.833333
vt 0.500000 1.000000
vt 0.666667 0.833333
vt 0.500000 0.833333
vt 0.666667 1.000000
vt 0.166667 0.000000
vt 0.000000 0.166667
vt 0.000000 0.000000
vt 0.166667 0.166667
vt 0.000000 0.333333
vt 0.166667 0.333333
vt 0.000000 0.500000
vt 0.166667 0.666667
vt 0.000000 0.666667
vt 0.333333 0.000000
vt 0.333333 0.166667
vt 0.333333 0.333333
vt 0.166667 0.500000
vt 0.333333 0.666667
vt 0.500000 0.000000
vt 0.500000 0.166667
vt 0.500000 0.333333
vt 0.333333 0.500000
vt 0.500000 0.666667
vt 0.666667 0.166667
vt 0.666667 0.333333
vt 0.666667 0.500000
vt 0.500000 0.500000
vt 0.666667 0.666667
vt 0.666667 0.000000
vt 0.833333 0.166667
vt 0.833333 0.333333
vt 0.833333 0.500000
vt 0.833333 0.666667
vt 0.833333 0.000000
vt 1.000000 0.166667
vt 1.000000 0.333333
vt 1.000000 0.500000
vt 1.000000 0.666667
vt 1.000000 1.000000
vt 0.000000 1.000000
vt 1.000000 1.000000
vt 1.000000 0.000000
vn -0.2145 -0.9233 0.3187
vn -0.3191 -0.9244 0.2092
vn -0.2772 -0.9208 0.2744
vn 0.3193 -0.9249 0.2063
vn 0.2145 -0.9233 0.3187
vn 0.2780 -0.9208 0.2736
vn 0.1151 -0.9089 0.4008
vn 0.1180 -0.9394 0.3218
vn 0.0000 -0.9161 0.4009
vn -0.0000 -0.9431 0.3324
vn -0.1180 -0.9394 0.3218
vn -0.1151 -0.9089 0.4008
vn 0.3193 -0.9249 -0.2063
vn 0.2054 -0.9252 -0.3191
vn 0.2722 -0.9229 -0.2722
vn 0.4119 -0.9061 -0.0964
vn 0.2748 -0.9208 -0.2769
vn 0.4260 -0.9047 -0.0000
vn 0.3321 -0.9363 -0.1143
vn 0.3321 -0.9363 0.1143
vn 0.3519 -0.9360 -0.0000
vn 0.4119 -0.9061 0.0964
vn 0.1073 -0.9024 -0.4173
vn 0.1172 -0.9355 -0.3334
vn 0.1765 -0.9683 -0.1765
vn 0.1765 -0.9683 0.1765
vn 0.2312 -0.9729 -0.0000
vn 0.0000 -0.9059 -0.4236
vn 0.0000 -0.9386 -0.3449
vn 0.0000 -0.9729 -0.2312
vn -0.0000 -0.9729 0.2312
vn -0.0000 -1.0000 -0.0000
vn -0.1172 -0.9355 -0.3334
vn -0.1073 -0.9024 -0.4173
vn -0.1765 -0.9683 -0.1765
vn -0.2312 -0.9729 -0.0000
vn -0.1765 -0.9683 0.1765
vn -0.2740 -0.9208 -0.2776
vn -0.2054 -0.9252 -0.3191
vn -0.3299 -0.9371 -0.1142
vn -0.3504 -0.9366 -0.0000
vn -0.3299 -0.9371 0.1142
vn -0.3191 -0.9244 -0.2092
vn -0.2722 -0.9229 -0.2722
vn -0.4083 -0.9077 -0.0970
vn -0.4220 -0.9066 0.0000
vn -0.4083 -0.9077 0.0970
vn 0.3191 0.9244 -0.2092
vn 0.2145 0.9233 -0.3187
vn 0.2772 0.9208 -0.2744
vn -0.3193 0.9249 -0.2063
vn -0.2145 0.9233 -0.3187
vn -0.2722 0.9229 -0.2722
vn -0.2780 0.9208 -0.2736
vn -0.1151 0.9089 -0.4008
vn -0.1180 0.9394 -0.3218
vn 0.0000 0.9161 -0.4009
vn 0.1180 0.9394 -0.3218
vn 0.0000 0.9431 -0.3324
vn 0.1151 0.9089 -0.4008
vn -0.2054 0.9252 0.3191
vn -0.3193 0.9249 0.2063
vn -0.2722 0.9229 0.2722
vn -0.2748 0.9208 0.2769
vn -0.4119 0.9061 0.0964
vn -0.3321 0.9363 0.1143
vn -0.4260 0.9047 0.0000
vn -0.3321 0.9363 -0.1143
vn -0.4119 0.9061 -0.0964
vn -0.1073 0.9024 0.4173
vn -0.1172 0.9355 0.3334
vn -0.1765 0.9683 0.1765
vn -0.3519 0.9360 0.0000
vn -0.1765 0.9683 -0.1765
vn -0.0000 0.9059 0.4236
vn -0.0000 0.9386 0.3449
vn 0.0000 0.9729 0.2312
vn -0.2312 0.9729 0.0000
vn 0.0000 0.9729 -0.2312
vn 0.1172 0.9355 0.3334
vn 0.1765 0.9683 0.1765
vn 0.2312 0.9729 -0.0000
vn 0.0000 1.0000 0.0000
vn 0.1765 0.9683 -0.1765
vn 0.1073 0.9024 0.4173
vn 0.2740 0.9208 0.2776
vn 0.3299 0.9371 0.1142
vn 0.3504 0.9366 0.0000
vn 0.3299 0.9371 -0.1142
vn 0.2054 0.9252 0.3191
vn 0.3191 0.9244 0.2092
vn 0.4083 0.9077 0.0970
vn 0.4220 0.9066 -0.0000
vn 0.4083 0.9077 -0.0970
vn -0.2722 -0.9229 0.2722
vn 0.2722 -0.9229 0.2722
vn 0.2722 0.9229 -0.2722
vn 0.2722 0.9229 0.2722
s 1
f 20/1/1 19/2/2 49/3/3
f 5/4/4 24/5/5 29/6/6
f 29/6/6 23/7/7 34/8/8
f 34/8/8 22/9/9 39/10/10
f 22/9/9 44/11/11 39/10/10
f 21/12/12 49/3/3 44/11/11
f 9/13/13 10/14/14 1/15/15
f 8/16/16 25/17/17 9/13/13
f 7/18/18 26/19/19 8/16/16
f 7/18/18 28/20/20 27/21/21
f 6/22/22 29/6/6 28/20/20
f 25/17/17 11/23/23 10/14/14
f 26/19/19 30/24/24 25/17/17
f 27/21/21 31/25/25 26/19/19
f 27/21/21 33/26/26 32/27/27
f 28/20/20 34/8/8 33/26/26
f 30/24/24 12/28/28 11/23/23
f 31/25/25 35/29/29 30/24/24
f 32/27/27 36/30/30 31/25/25
f 32/27/27 38/31/31 37/32/32
f 33/26/26 39/10/10 38/31/31
f 12/28/28 40/33/33 13/34/34
f 35/29/29 41/35/35 40/33/33
f 36/30/30 42/36/36 41/35/35
f 38/31/31 42/36/36 37/32/32
f 39/10/10 43/37/37 38/31/31
f 13/34/34 45/38/38 14/39/39
f 40/33/33 46/40/40 45/38/38
f 41/35/35 47/41/41 46/40/40
f 43/37/37 47/41/41 42/36/36
f 44/11/11 48/42/42 43/37/37
f 14/39/39 15/43/43 2/44/44
f 45/38/38 16/45/45 15/43/43
f 46/40/40 17/46/46 16/45/45
f 48/42/42 17/46/46 47/41/41
f 49/3/3 18/47/47 48/42/42
f 68/48/48 69/49/49 98/50/50
f 54/51/51 73/52/52 52/53/53
f 78/54/54 72/55/55 73/52/52
f 83/56/56 71/57/57 72/55/55
f 93/58/58 71/57/57 88/59/59
f 98/50/50 70/60/60 93/58/58
f 59/61/61 58/62/62 50/63/63
f 74/64/64 57/65/65 58/62/62
f 75/66/66 56/67/67 57/65/65
f 56/67/67 77/68/68 55/69/69
f 55/69/69 78/54/54 54/51/51
f 60/70/70 74/64/64 59/61/61
f 79/71/71 75/66/66 74/64/64
f 80/72/72 76/73/73 75/66/66
f 76/73/73 82/74/74 77/68/68
f 77/68/68 83/56/56 78/54/54
f 61/75/75 79/71/71 60/70/70
f 84/76/76 80/72/72 79/71/71
f 85/77/77 81/78/78 80/72/72
f 81/78/78 87/79/79 82/74/74
f 82/74/74 88/59/59 83/56/56
f 61/75/75 89/80/80 84/76/76
f 84/76/76 90/81/81 85/77/77
f 85/77/77 91/82/82 86/83/83
f 91/82/82 87/79/79 86/83/83
f 92/84/84 88/59/59 87/79/79
f 62/85/85 94/86/86 89/80/80
f 89/80/80 95/87/87 90/81/81
f 90/81/81 96/88/88 91/82/82
f 96/88/88 92/84/84 91/82/82
f 97/89/89 93/58/58 92/84/84
f 63/90/90 64/91/91 94/86/86
f 94/86/86 65/92/92 95/87/87
f 95/87/87 66/93/93 96/88/88
f 66/93/93 97/89/89 96/88/88
f 67/94/94 98/50/50 97/89/89
f 20/1/1 4/95/95 19/2/2
f 5/4/4 3/96/96 24/5/5
f 29/6/6 24/5/5 23/7/7
f 34/8/8 23/7/7 22/9/9
f 22/9/9 21/12/12 44/11/11
f 21/12/12 20/1/1 49/3/3
f 9/13/13 25/17/17 10/14/14
f 8/16/16 26/19/19 25/17/17
f 7/18/18 27/21/21 26/19/19
f 7/18/18 6/22/22 28/20/20
f 6/22/22 5/4/4 29/6/6
f 25/17/17 30/24/24 11/23/23
f 26/19/19 31/25/25 30/24/24
f 27/21/21 32/27/27 31/25/25
f 27/21/21 28/20/20 33/26/26
f 28/20/20 29/6/6 34/8/8
f 30/24/24 35/29/29 12/28/28
f 31/25/25 36/30/30 35/29/29
f 32/27/27 37/32/32 36/30/30
f 32/27/27 33/26/26 38/31/31
f 33/26/26 34/8/8 39/10/10
f 12/28/28 35/29/29 40/33/33
f 35/29/29 36/30/30 41/35/35
f 36/30/30 37/32/32 42/36/36
f 38/31/31 43/37/37 42/36/36
f 39/10/10 44/11/11 43/37/37
f 13/34/34 40/33/33 45/38/38
f 40/33/33 41/35/35 46/40/40
f 41/35/35 42/36/36 47/41/41
f 43/37/37 48/42/42 47/41/41
f 44/11/11 49/3/3 48/42/42
f 14/39/39 45/38/38 15/43/43
f 45/38/38 46/40/40 16/45/45
f 46/40/40 47/41/41 17/46/46
f 48/42/42 18/47/47 17/46/46
f 49/3/3 19/2/2 18/47/47
f 68/48/48 53/97/97 69/49/49
f 54/51/51 78/54/54 73/52/52
f 78/54/54 83/56/56 72/55/55
f 83/56/56 88/59/59 71/57/57
f 93/58/58 70/60/60 71/57/57
f 98/50/50 69/49/49 70/60/60
f 59/61/61 74/64/64 58/62/62
f 74/64/64 75/66/66 57/65/65
f 75/66/66 76/73/73 56/67/67
f 56/67/67 76/73/73 77/68/68
f 55/69/69 77/68/68 78/54/54
f 60/70/70 79/71/71 74/64/64
f 79/71/71 80/72/72 75/66/66
f 80/72/72 81/78/78 76/73/73
f 76/73/73 81/78/78 82/74/74
f 77/68/68 82/74/74 83/56/56
f 61/75/75 84/76/76 79/71/71
f 84/76/76 85/77/77 80/72/72
f 85/77/77 86/83/83 81/78/78
f 81/78/78 86/83/83 87/79/79
f 82/74/74 87/79/79 88/59/59
f 61/75/75 62/85/85 89/80/80
f 84/76/76 89/80/80 90/81/81
f 85/77/77 90/81/81 91/82/82
f 91/82/82 92/84/84 87/79/79
f 92/84/84 93/58/58 88/59/59
f 62/85/85 63/90/90 94/86/86
f 89/80/80 94/86/86 95/87/87
f 90/81/81 95/87/87 96/88/88
f 96/88/88 97/89/89 92/84/84
f 97/89/89 98/50/50 93/58/58
f 63/90/90 51/98/98 64/91/91
f 94/86/86 64/91/91 65/92/92
f 95/87/87 65/92/92 66/93/93
f 66/93/93 67/94/94 97/89/89
f 67/94/94 68/48/48 98/50/50
