# Blender v3.4.1 OBJ File: 'flags.blend'
# www.blender.org
o Fish_Kite_Plane.003
v -0.927240 -0.191939 0.032289
v 0.942439 -0.250290 0.173196
v -0.927240 -0.191939 -0.032289
v 0.942439 -0.250290 -0.173196
v -1.087376 -0.083371 -0.047805
v -1.195154 -0.010937 -0.013242
v -1.195154 -0.010937 0.013242
v -1.087376 -0.083371 0.047805
v -0.631249 -0.250290 0.200542
v -0.221594 -0.344584 0.324027
v 0.223026 -0.316203 0.421271
v 0.647116 -0.250290 0.279814
v 1.258827 -0.060312 0.136124
v 1.194378 0.000000 0.041862
v 1.194378 0.000000 -0.041862
v 1.258827 -0.060312 -0.136124
v 0.647116 -0.250290 -0.279814
v 0.223026 -0.316203 -0.421271
v -0.221594 -0.344584 -0.324027
v -0.631249 -0.250290 -0.200542
v -0.728224 -0.060312 0.193898
v -0.728224 0.021225 0.064633
v -0.728224 0.021225 -0.064633
v -0.728224 -0.060312 -0.193898
v -0.256172 -0.060312 0.291263
v -0.256172 0.086554 0.097088
v -0.256172 0.086554 -0.097088
v -0.256172 -0.060312 -0.291263
v 0.256172 -0.060312 0.291263
v 0.256172 0.086554 0.097088
v 0.256172 0.086554 -0.097088
v 0.256172 -0.060312 -0.291263
v 0.744857 -0.060312 0.193460
v 0.744857 0.023644 0.064487
v 0.744857 0.023644 -0.064487
v 0.744857 -0.060312 -0.193460
v -0.927240 -0.191939 0.032289
v 0.942439 -0.250290 0.173196
v -0.927240 -0.191939 -0.032289
v 0.942439 -0.250290 -0.173196
v -1.087376 -0.083371 -0.047805
v -1.195154 -0.010937 -0.013242
v -1.195154 -0.010937 0.013242
v -1.087376 -0.083371 0.047805
v -0.631249 -0.250290 0.200542
v -0.221594 -0.344584 0.324027
v 0.223026 -0.316203 0.421271
v 0.647116 -0.250290 0.279814
v 1.258827 -0.060312 0.136124
v 1.194378 0.000000 0.041862
v 1.194378 0.000000 -0.041862
v 1.258827 -0.060312 -0.136124
v 0.647116 -0.250290 -0.279814
v 0.223026 -0.316203 -0.421271
v -0.221594 -0.344584 -0.324027
v -0.631249 -0.250290 -0.200542
v -0.728223 -0.060312 0.193898
v -0.728223 0.021225 0.064633
v -0.728223 0.021225 -0.064633
v -0.728223 -0.060312 -0.193898
v -0.256172 -0.060312 0.291263
v -0.256172 0.086554 0.097088
v -0.256172 0.086554 -0.097088
v -0.256172 -0.060312 -0.291263
v 0.256172 -0.060312 0.291263
v 0.256172 0.086554 0.097088
v 0.256172 0.086554 -0.097088
v 0.256172 -0.060312 -0.291263
v 0.744857 -0.060312 0.193460
v 0.744857 0.023644 0.064487
v 0.744857 0.023644 -0.064487
v 0.744857 -0.060312 -0.193460
vt 0.800000 0.800000
vt 1.000000 1.000000
vt 0.800000 1.000000
vt 0.200000 0.800000
vt 0.000000 1.000000
vt 0.000000 0.800000
vt 0.400000 0.800000
vt 0.200000 1.000000
vt 0.600000 0.800000
vt 0.400000 1.000000
vt 0.600000 1.000000
vt 0.000000 0.000000
vt 0.200000 0.200000
vt 0.000000 0.200000
vt 0.200000 0.400000
vt 0.000000 0.400000
vt 0.000000 0.600000
vt 0.200000 0.600000
vt 0.200000 0.000000
vt 0.400000 0.200000
vt 0.400000 0.400000
vt 0.400000 0.600000
vt 0.400000 0.000000
vt 0.600000 0.200000
vt 0.600000 0.400000
vt 0.600000 0.600000
vt 0.800000 0.000000
vt 0.600000 0.000000
vt 0.800000 0.200000
vt 0.800000 0.400000
vt 1.000000 0.000000
vt 1.000000 0.400000
vt 0.800000 0.600000
vt 1.000000 0.600000
vt 0.800000 0.800000
vt 1.000000 1.000000
vt 1.000000 0.800000
vt 0.000000 1.000000
vt 0.200000 0.800000
vt 0.000000 0.800000
vt 0.200000 1.000000
vt 0.400000 0.800000
vt 0.400000 1.000000
vt 0.600000 0.800000
vt 0.800000 1.000000
vt 0.000000 0.000000
vt 0.200000 0.200000
vt 0.200000 0.000000
vt 0.000000 0.200000
vt 0.200000 0.400000
vt 0.000000 0.600000
vt 0.000000 0.400000
vt 0.200000 0.600000
vt 0.400000 0.200000
vt 0.400000 0.000000
vt 0.400000 0.400000
vt 0.400000 0.600000
vt 0.600000 0.200000
vt 0.600000 0.000000
vt 0.600000 0.400000
vt 0.600000 0.600000
vt 0.800000 0.000000
vt 0.800000 0.200000
vt 0.800000 0.400000
vt 0.800000 0.600000
vt 1.000000 0.000000
vt 1.000000 0.400000
vt 1.000000 0.200000
vt 1.000000 0.600000
vt 1.000000 0.800000
vt 1.000000 0.200000
vt 0.600000 1.000000
vn 0.1801 0.5687 -0.8026
vn 0.1787 0.0813 -0.9805
vn 0.2397 0.3206 -0.9164
vn -0.3457 0.3582 -0.8673
vn -0.3529 -0.4640 -0.8125
vn -0.1982 0.1653 -0.9661
vn -0.1092 0.4669 -0.8776
vn -0.3169 -0.0899 -0.9442
vn 0.0583 0.6015 -0.7968
vn -0.1567 0.1681 -0.9732
vn -0.0314 0.4560 -0.8894
vn -0.3529 -0.4640 0.8125
vn -0.3457 0.3582 0.8673
vn -0.1982 0.1653 0.9661
vn -0.1621 0.9403 0.2993
vn -0.1003 0.9414 0.3220
vn -0.1003 0.9414 -0.3220
vn -0.1621 0.9403 -0.2993
vn -0.3169 -0.0899 0.9442
vn -0.1092 0.4669 0.8776
vn -0.0692 0.9464 0.3155
vn -0.0692 0.9464 -0.3155
vn -0.1567 0.1681 0.9732
vn 0.0583 0.6015 0.7968
vn 0.0655 0.9464 0.3164
vn 0.0655 0.9464 -0.3164
vn 0.2397 0.3206 0.9164
vn -0.0314 0.4560 0.8894
vn 0.1801 0.5687 0.8026
vn 0.1036 0.9534 0.2833
vn 0.1787 0.0813 0.9805
vn 0.0584 0.9520 0.3004
vn 0.1036 0.9534 -0.2833
vn 0.0584 0.9520 -0.3004
vn -0.1801 -0.5687 0.8026
vn -0.1787 -0.0813 0.9805
vn -0.0834 -0.6592 0.7473
vn 0.3529 0.4640 0.8125
vn 0.3457 -0.3582 0.8673
vn 0.1982 -0.1653 0.9661
vn 0.3169 0.0899 0.9442
vn 0.1092 -0.4669 0.8776
vn 0.1567 -0.1681 0.9732
vn -0.0583 -0.6015 0.7968
vn -0.2397 -0.3206 0.9164
vn 0.3529 0.4640 -0.8125
vn 0.3457 -0.3582 -0.8673
vn 0.3169 0.0899 -0.9442
vn 0.1982 -0.1653 -0.9661
vn 0.1621 -0.9403 -0.2993
vn 0.1003 -0.9414 0.3220
vn 0.1003 -0.9414 -0.3220
vn 0.1621 -0.9403 0.2993
vn 0.1092 -0.4669 -0.8776
vn 0.1567 -0.1681 -0.9732
vn 0.0692 -0.9464 -0.3155
vn 0.0692 -0.9464 0.3155
vn -0.0583 -0.6015 -0.7968
vn 0.0314 -0.4560 -0.8894
vn -0.0655 -0.9464 -0.3164
vn -0.0655 -0.9464 0.3164
vn -0.2397 -0.3206 -0.9164
vn -0.1801 -0.5687 -0.8026
vn -0.1036 -0.9534 -0.2833
vn -0.1036 -0.9534 0.2833
vn -0.1787 -0.0813 -0.9805
vn -0.0584 -0.9520 -0.3004
vn -0.0834 -0.6592 -0.7473
vn -0.0584 -0.9520 0.3004
vn 0.0834 0.6592 -0.7473
vn 0.0834 0.6592 0.7473
vn 0.0314 -0.4560 0.8894
s 1
f 36/1/1 4/2/2 17/3/3
f 24/4/4 3/5/5 5/6/6
f 28/7/7 20/8/8 24/4/4
f 32/9/9 19/10/10 28/7/7
f 32/9/9 17/3/3 18/11/11
f 1/12/12 21/13/13 8/14/14
f 8/14/14 22/15/15 7/16/16
f 22/15/15 6/17/17 7/16/16
f 23/18/18 5/6/6 6/17/17
f 9/19/19 25/20/20 21/13/13
f 21/13/13 26/21/21 22/15/15
f 26/21/21 23/18/18 22/15/15
f 27/22/22 24/4/4 23/18/18
f 10/23/23 29/24/24 25/20/20
f 29/24/24 26/21/21 25/20/20
f 30/25/25 27/22/22 26/21/21
f 31/26/26 28/7/7 27/22/22
f 12/27/27 29/24/24 11/28/28
f 33/29/29 30/25/25 29/24/24
f 34/30/30 31/26/26 30/25/25
f 31/26/26 36/1/1 32/9/9
f 2/31/31 33/29/29 12/27/27
f 33/29/29 14/32/32 34/30/30
f 14/32/32 35/33/33 34/30/30
f 15/34/34 36/1/1 35/33/33
f 72/35/35 40/36/36 52/37/37
f 39/38/38 60/39/39 41/40/40
f 56/41/41 64/42/42 60/39/39
f 55/43/43 68/44/44 64/42/42
f 68/44/44 53/45/45 72/35/35
f 37/46/46 57/47/47 45/48/48
f 44/49/49 58/50/50 57/47/47
f 42/51/51 58/50/50 43/52/52
f 41/40/40 59/53/53 42/51/51
f 45/48/48 61/54/54 46/55/55
f 57/47/47 62/56/56 61/54/54
f 59/53/53 62/56/56 58/50/50
f 60/39/39 63/57/57 59/53/53
f 46/55/55 65/58/58 47/59/59
f 62/56/56 65/58/58 61/54/54
f 63/57/57 66/60/60 62/56/56
f 64/42/42 67/61/61 63/57/57
f 65/58/58 48/62/62 47/59/59
f 66/60/60 69/63/63 65/58/58
f 67/61/61 70/64/64 66/60/60
f 67/61/61 72/35/35 71/65/65
f 69/63/63 38/66/66 48/62/62
f 69/63/63 50/67/67 49/68/68
f 71/65/65 50/67/67 70/64/64
f 72/35/35 51/69/69 71/65/65
f 36/1/1 16/70/70 4/2/2
f 24/4/4 20/8/8 3/5/5
f 28/7/7 19/10/10 20/8/8
f 32/9/9 18/11/11 19/10/10
f 32/9/9 36/1/1 17/3/3
f 1/12/12 9/19/19 21/13/13
f 8/14/14 21/13/13 22/15/15
f 22/15/15 23/18/18 6/17/17
f 23/18/18 24/4/4 5/6/6
f 9/19/19 10/23/23 25/20/20
f 21/13/13 25/20/20 26/21/21
f 26/21/21 27/22/22 23/18/18
f 27/22/22 28/7/7 24/4/4
f 10/23/23 11/28/28 29/24/24
f 29/24/24 30/25/25 26/21/21
f 30/25/25 31/26/26 27/22/22
f 31/26/26 32/9/9 28/7/7
f 12/27/27 33/29/29 29/24/24
f 33/29/29 34/30/30 30/25/25
f 34/30/30 35/33/33 31/26/26
f 31/26/26 35/33/33 36/1/1
f 2/31/31 13/71/71 33/29/29
f 33/29/29 13/71/71 14/32/32
f 14/32/32 15/34/34 35/33/33
f 15/34/34 16/70/70 36/1/1
f 72/35/35 53/45/45 40/36/36
f 39/38/38 56/41/41 60/39/39
f 56/41/41 55/43/43 64/42/42
f 55/43/43 54/72/72 68/44/44
f 68/44/44 54/72/72 53/45/45
f 37/46/46 44/49/49 57/47/47
f 44/49/49 43/52/52 58/50/50
f 42/51/51 59/53/53 58/50/50
f 41/40/40 60/39/39 59/53/53
f 45/48/48 57/47/47 61/54/54
f 57/47/47 58/50/50 62/56/56
f 59/53/53 63/57/57 62/56/56
f 60/39/39 64/42/42 63/57/57
f 46/55/55 61/54/54 65/58/58
f 62/56/56 66/60/60 65/58/58
f 63/57/57 67/61/61 66/60/60
f 64/42/42 68/44/44 67/61/61
f 65/58/58 69/63/63 48/62/62
f 66/60/60 70/64/64 69/63/63
f 67/61/61 71/65/65 70/64/64
f 67/61/61 68/44/44 72/35/35
f 69/63/63 49/68/68 38/66/66
f 69/63/63 70/64/64 50/67/67
f 71/65/65 51/69/69 50/67/67
f 72/35/35 52/37/37 51/69/69
