# Blender v3.4.1 OBJ File: 'environment.blend'
# www.blender.org
o Hanging_Sign_Cube.001
v -1.000000 -1.549442 0.037567
v -1.000000 -0.059660 0.037567
v -1.000000 -1.549442 -0.037567
v -1.000000 -0.059660 -0.037567
v 1.000000 -1.549442 0.037567
v 1.000000 -0.059660 0.037567
v 1.000000 -1.549442 -0.037567
v 1.000000 -0.059660 -0.037567
v 0.455543 -0.082958 -0.015536
v 0.455543 0.638983 -0.015536
v 0.468998 -0.082958 0.007768
v 0.468998 0.638983 0.007768
v 0.442088 -0.082958 0.007768
v 0.442088 0.638983 0.007768
v -0.453152 -0.082957 -0.015536
v -0.453152 0.638983 -0.015536
v -0.439698 -0.082957 0.007768
v -0.439698 0.638983 0.007768
v -0.466607 -0.082957 0.007768
v -0.466607 0.638983 0.007768
vt 1.000000 0.931001
vt 0.977954 0.465500
vt 1.000000 0.465500
vt 0.000000 0.624924
vt 0.465500 0.000000
vt 0.465500 0.624924
vt 1.000000 0.465500
vt 0.977954 0.000000
vt 1.000000 0.000000
vt 0.465500 0.624924
vt 0.931001 0.000000
vt 0.931001 0.624924
vt 0.954477 0.624924
vt 0.954477 0.000000
vt 0.977954 0.624924
vt 0.954477 0.000000
vt 0.977954 0.000000
vt 0.025099 0.850503
vt 0.016816 0.624924
vt 0.025099 0.624924
vt 0.008408 0.850503
vt 0.000000 0.624924
vt 0.008408 0.624924
vt 0.064512 0.633332
vt 0.057230 0.629128
vt 0.064512 0.624924
vt 0.033382 0.850503
vt 0.033382 0.624924
vt 0.049948 0.629128
vt 0.057230 0.624924
vt 0.057230 0.633332
vt 0.041665 0.850503
vt 0.033382 0.624924
vt 0.041665 0.624924
vt 0.016816 0.850503
vt 0.008408 0.624924
vt 0.016816 0.624924
vt 0.079075 0.633332
vt 0.071793 0.629128
vt 0.079075 0.624924
vt 0.049948 0.850503
vt 0.049948 0.624924
vt 0.064512 0.629128
vt 0.071793 0.624924
vt 0.071793 0.633332
vt 0.977954 0.931001
vt 0.000000 0.000000
vt 0.977954 0.465500
vt 0.465500 0.000000
vt 0.954477 0.624924
vt 0.016816 0.850503
vt 0.000000 0.850503
vt 0.033382 0.850503
vt 0.008408 0.850503
vn -1.0000 0.0000 0.0000
vn 0.0000 0.0000 -1.0000
vn 1.0000 0.0000 0.0000
vn 0.0000 0.0000 1.0000
vn 0.0000 -1.0000 0.0000
vn 0.0000 1.0000 0.0000
vn 0.8660 0.0000 -0.5000
vn -0.8660 0.0000 -0.5000
s off
f 2/1/1 3/2/1 1/3/1
f 4/4/2 7/5/2 3/6/2
f 8/7/3 5/8/3 7/9/3
f 6/10/4 1/11/4 5/12/4
f 7/13/5 1/11/5 3/14/5
f 4/15/6 6/16/6 8/17/6
f 10/18/7 11/19/7 9/20/7
f 12/21/4 13/22/4 11/23/4
f 12/24/6 10/25/6 14/26/6
f 14/27/8 9/20/8 13/28/8
f 9/29/5 11/30/5 13/31/5
f 16/32/7 17/33/7 15/34/7
f 18/35/4 19/36/4 17/37/4
f 18/38/6 16/39/6 20/40/6
f 20/41/8 15/34/8 19/42/8
f 15/43/5 17/44/5 19/45/5
f 2/1/1 4/46/1 3/2/1
f 4/4/2 8/47/2 7/5/2
f 8/7/3 6/48/3 5/8/3
f 6/10/4 2/49/4 1/11/4
f 7/13/5 5/12/5 1/11/5
f 4/15/6 2/50/6 6/16/6
f 10/18/7 12/51/7 11/19/7
f 12/21/4 14/52/4 13/22/4
f 14/27/8 10/18/8 9/20/8
f 16/32/7 18/53/7 17/33/7
f 18/35/4 20/54/4 19/36/4
f 20/41/8 16/32/8 15/34/8
