# Blender v3.4.1 OBJ File: 'flags.blend'
# www.blender.org
o Large_Kite_String_Cube
v -0.012810 0.281275 0.001774
v -0.097036 0.380526 0.002328
v -0.012810 0.281275 -0.001774
v -0.097036 0.380526 -0.002328
v -0.005849 0.286785 0.005425
v -0.094429 0.390915 0.004991
v -0.005849 0.286785 -0.005425
v -0.094429 0.390915 -0.004991
v 0.050518 0.175166 -0.001946
v 0.050518 0.175166 0.001946
v 0.061909 0.173196 -0.005283
v 0.061909 0.173196 0.005283
v 0.101873 0.049029 -0.002206
v 0.101873 0.049029 0.002206
v 0.115338 0.041032 -0.004997
v 0.115338 0.041032 0.004997
v 0.141080 -0.098484 -0.004719
v 0.141080 -0.098484 0.004719
v 0.154449 -0.106237 -0.002583
v 0.154449 -0.106237 0.002583
v 0.197124 -0.248073 -0.006189
v 0.197124 -0.248073 0.006189
v 0.205870 -0.244992 -0.000876
v 0.205870 -0.244992 0.000876
v 0.294049 -0.389782 -0.006202
v 0.294049 -0.389782 0.006202
v 0.298314 -0.381009 -0.000892
v 0.298314 -0.381009 0.000892
v -0.198454 0.475186 0.005077
v -0.198454 0.475186 -0.005077
v -0.189461 0.478136 -0.002207
v -0.189461 0.478136 0.002207
v -0.292410 0.589511 0.005877
v -0.292410 0.589511 -0.005877
v -0.279507 0.584829 -0.001094
v -0.279507 0.584829 0.001094
v -0.353149 0.706994 0.005552
v -0.353149 0.706994 -0.005552
v -0.341901 0.705381 -0.001596
v -0.341901 0.705381 0.001596
v -0.401126 0.862476 0.002635
v -0.401126 0.862476 -0.002635
v -0.387855 0.855203 -0.004668
v -0.387855 0.855203 0.004668
v -0.462722 1.012387 0.000803
v -0.462722 1.012387 -0.000803
v -0.453672 1.014896 -0.006306
v -0.453672 1.014896 0.006306
v -0.565823 1.151542 0.001311
v -0.565823 1.151542 -0.001311
v -0.565973 1.164559 -0.005772
v -0.565973 1.164559 0.005772
v -0.687601 1.259112 0.003566
v -0.687601 1.259112 -0.003566
v -0.683555 1.272768 -0.004320
v -0.683555 1.272768 0.004320
v 0.420876 -0.503154 -0.003008
v 0.420876 -0.503154 0.003008
v 0.414658 -0.486030 -0.004086
v 0.414658 -0.486030 0.004086
v 0.529254 -0.597947 0.007013
v 0.529254 -0.597947 -0.007013
v 0.520017 -0.602884 0.000106
v 0.520017 -0.602884 -0.000106
v 0.588277 -0.734934 -0.000465
v 0.598701 -0.733419 -0.006527
v 0.598701 -0.733419 0.006527
v 0.588277 -0.734934 0.000465
v 0.628322 -0.878882 0.002143
v 0.628322 -0.878882 -0.002143
v 0.618322 -0.881552 0.005136
v 0.618322 -0.881552 -0.005136
v 0.674473 -1.041382 0.006402
v 0.681888 -1.033517 0.000610
v 0.681888 -1.033517 -0.000610
v 0.674473 -1.041382 -0.006402
v 0.765002 -1.173656 0.005324
v 0.771611 -1.165480 0.001851
v 0.771611 -1.165480 -0.001851
v 0.765002 -1.173656 -0.005324
v 0.860941 -1.277537 0.007197
v 0.870786 -1.268211 0.007197
v 0.870786 -1.268211 -0.007197
v 0.860941 -1.277537 -0.007197
vt 0.625000 0.000000
vt 0.375000 0.250000
vt 0.375000 0.000000
vt 0.625000 0.250000
vt 0.375000 0.500000
vt 0.625000 0.500000
vt 0.375000 0.750000
vt 0.625000 1.000000
vt 0.375000 1.000000
vt 0.375000 0.500000
vt 0.625000 0.750000
vt 0.625000 0.750000
vt 0.375000 0.750000
vt 0.375000 0.500000
vt 0.375000 1.000000
vt 0.375000 0.250000
vt 0.375000 0.000000
vt 0.375000 0.750000
vt 0.375000 1.000000
vt 0.375000 0.750000
vt 0.375000 0.250000
vt 0.375000 0.000000
vt 0.375000 1.000000
vt 0.375000 0.500000
vt 0.375000 0.250000
vt 0.375000 0.250000
vt 0.375000 0.000000
vt 0.375000 0.750000
vt 0.375000 0.500000
vt 0.375000 0.500000
vt 0.375000 0.000000
vt 0.375000 1.000000
vt 0.375000 0.250000
vt 0.375000 0.500000
vt 0.375000 0.250000
vt 0.375000 0.000000
vt 0.375000 0.750000
vt 0.625000 0.500000
vt 0.625000 0.750000
vt 0.625000 0.250000
vt 0.625000 1.000000
vt 0.625000 1.000000
vt 0.625000 0.750000
vt 0.625000 1.000000
vt 0.625000 0.000000
vt 0.625000 0.250000
vt 0.625000 0.500000
vt 0.625000 0.750000
vt 0.625000 1.000000
vt 0.625000 0.500000
vt 0.625000 0.250000
vt 0.625000 0.500000
vt 0.625000 0.750000
vt 0.625000 0.000000
vt 0.625000 0.250000
vt 0.625000 0.500000
vt 0.625000 0.750000
vt 0.625000 0.000000
vt 0.625000 0.250000
vt 0.625000 1.000000
vt 0.625000 1.000000
vt 0.625000 1.000000
vt 0.625000 0.000000
vt 0.625000 0.250000
vt 0.625000 0.500000
vt 0.875000 0.500000
vt 0.625000 0.750000
vt 0.625000 0.500000
vt 0.625000 0.250000
vt 0.625000 0.000000
vt 0.375000 1.000000
vt 0.375000 0.750000
vt 0.375000 0.750000
vt 0.375000 0.000000
vt 0.375000 1.000000
vt 0.375000 0.500000
vt 0.375000 0.250000
vt 0.375000 1.000000
vt 0.375000 0.750000
vt 0.375000 0.750000
vt 0.375000 0.250000
vt 0.375000 0.500000
vt 0.375000 0.250000
vt 0.375000 0.000000
vt 0.375000 0.000000
vt 0.375000 0.000000
vt 0.375000 0.500000
vt 0.375000 0.250000
vt 0.375000 0.500000
vt 0.375000 1.000000
vt 0.375000 0.750000
vt 0.375000 0.750000
vt 0.375000 1.000000
vt 0.375000 0.000000
vt 0.375000 0.000000
vt 0.375000 0.250000
vt 0.375000 0.000000
vt 0.375000 0.500000
vt 0.375000 0.250000
vt 0.375000 0.750000
vt 0.375000 0.500000
vt 0.375000 1.000000
vt 0.625000 0.000000
vt 0.875000 0.750000
vt 0.625000 0.000000
vt 0.375000 1.000000
vt 0.375000 1.000000
vn -0.7625 -0.6470 0.0000
vn -0.2877 -0.2493 -0.9247
vn 0.7617 0.6479 0.0000
vn -0.2877 -0.2493 0.9247
vn 0.8588 0.5123 0.0000
vn 0.6762 0.7367 0.0000
vn 0.9271 0.3748 0.0000
vn -0.3054 -0.1834 0.9344
vn -0.3298 -0.1953 -0.9236
vn -0.8587 -0.5125 0.0000
vn 0.1748 0.0303 0.9841
vn -0.9262 -0.3771 0.0000
vn -0.2631 -0.1084 0.9587
vn -0.2981 -0.1194 -0.9470
vn 0.2061 0.0868 -0.9747
vn -0.2277 -0.0440 -0.9727
vn 0.9665 0.2567 0.0000
vn -0.9664 -0.2569 0.0000
vn 0.8271 0.5621 0.0000
vn 0.9377 0.3475 0.0000
vn -0.9364 -0.3508 0.0000
vn 0.4695 0.1633 0.8677
vn -0.0458 -0.0793 -0.9958
vn -0.8254 -0.5646 0.0000
vn 0.4216 0.2867 0.8603
vn 0.4382 0.2998 -0.8474
vn 0.7642 0.6450 0.0000
vn -0.6823 -0.7310 0.0000
vn 0.2305 0.2195 0.9480
vn -0.2063 -0.1941 -0.9591
vn 0.3495 0.1832 0.9188
vn -0.7726 -0.6349 0.0000
vn 0.4349 0.3516 0.8290
vn 0.2348 0.2080 -0.9495
vn -0.1694 -0.0338 0.9850
vn 0.4049 0.2059 -0.8909
vn 0.8881 0.4597 0.0000
vn -0.8883 -0.4593 0.0000
vn 0.9246 0.3811 0.0000
vn 0.3415 0.0856 -0.9360
vn 0.9560 0.2932 0.0000
vn -0.9555 -0.2949 0.0000
vn 0.7999 0.6002 0.0000
vn -0.9250 -0.3801 0.0000
vn -0.4730 -0.1838 0.8617
vn -0.2001 -0.0925 -0.9754
vn -0.2619 -0.3156 0.9120
vn -0.8035 -0.5953 0.0000
vn -0.4263 -0.3189 0.8465
vn -0.4048 -0.3007 -0.8636
vn -0.9588 0.2841 0.0000
vn -0.0495 -0.0404 -0.9980
vn 0.6772 0.7358 0.0000
vn -0.6620 -0.7495 0.0000
vn -0.1328 -0.1102 0.9850
vn 0.6701 0.7423 0.0000
vn -0.6664 -0.7456 0.0000
vn 0.3145 0.3749 0.8721
vn 0.6987 0.7154 0.0000
vn -0.3926 -0.4142 -0.8211
vn -0.4852 -0.1249 0.8654
vn 0.2648 0.0849 -0.9606
vn -0.7092 -0.7050 0.0000
vn -0.8883 -0.4592 0.0000
vn -0.4618 -0.2398 0.8540
vn -0.4900 -0.2511 -0.8348
vn -0.9796 -0.2008 0.0000
vn 0.4828 0.1764 -0.8577
vn 0.8899 0.4562 0.0000
vn 0.9799 0.1995 0.0000
vn 0.3930 0.2755 0.8773
vn 0.2655 0.0824 0.9606
vn -0.9435 -0.3315 0.0000
vn 0.9449 0.3273 0.0000
vn -0.7346 -0.6785 0.0000
vn -0.8252 -0.5648 0.0000
vn 0.8270 0.5623 0.0000
vn 0.2740 0.1798 -0.9448
vn 0.6877 -0.7260 0.0000
vn 0.7194 0.6945 0.0000
vn -0.0091 0.0096 -0.9999
vn 0.1995 0.2421 0.9495
vn -0.2260 -0.1883 -0.9557
vn -0.2260 -0.1883 0.9557
vn -0.3298 -0.1953 0.9236
vn -0.3054 -0.1834 -0.9344
vn -0.2277 -0.0440 0.9727
vn -0.2981 -0.1194 0.9470
vn -0.2631 -0.1084 -0.9587
vn 0.4695 0.1633 -0.8677
vn 0.1748 0.0303 -0.9841
vn 0.2061 0.0868 0.9747
vn 0.3145 0.3749 -0.8721
vn 0.4382 0.2998 0.8474
vn 0.4216 0.2867 -0.8603
vn -0.2063 -0.1941 0.9591
vn 0.2305 0.2195 -0.9480
vn 0.4049 0.2059 0.8909
vn 0.2348 0.2080 0.9495
vn 0.4349 0.3516 -0.8290
vn 0.3415 0.0856 0.9360
vn 0.3495 0.1832 -0.9188
vn -0.1694 -0.0338 -0.9850
vn -0.2001 -0.0925 0.9754
vn -0.4730 -0.1838 -0.8617
vn -0.0495 -0.0404 0.9980
vn -0.4048 -0.3007 0.8636
vn -0.4263 -0.3189 -0.8465
vn -0.2619 -0.3156 -0.9120
vn -0.3926 -0.4142 0.8211
vn -0.0458 -0.0793 0.9958
vn -0.1328 -0.1102 -0.9850
vn 0.2648 0.0849 0.9606
vn -0.4852 -0.1249 -0.8654
vn -0.4900 -0.2511 0.8348
vn -0.4618 -0.2398 -0.8540
vn 0.2655 0.0824 -0.9606
vn 0.2740 0.1798 0.9448
vn 0.4828 0.1764 0.8577
vn 0.3930 0.2755 -0.8773
vn 0.1995 0.2421 -0.9495
vn -0.0091 0.0096 0.9999
s off
f 2/1/1 3/2/1 1/3/1
f 4/4/2 7/5/2 3/2/2
f 8/6/3 5/7/3 7/5/3
f 5/7/4 2/8/4 1/9/4
f 5/7/5 11/10/5 7/5/5
f 8/6/6 32/11/6 6/12/6
f 12/13/7 15/14/7 11/10/7
f 5/7/8 10/15/8 12/13/8
f 7/5/9 9/16/9 3/2/9
f 3/2/10 10/17/10 1/3/10
f 16/18/11 18/19/11 20/20/11
f 10/17/12 13/21/12 14/22/12
f 12/13/13 14/23/13 16/18/13
f 11/10/14 13/21/14 9/16/14
f 19/24/15 21/25/15 17/26/15
f 15/14/16 17/26/16 13/21/16
f 16/18/17 19/24/17 15/14/17
f 13/21/18 18/27/18 14/22/18
f 24/28/19 27/29/19 23/30/19
f 20/20/20 23/30/20 19/24/20
f 17/26/21 22/31/21 18/27/21
f 20/20/22 22/32/22 24/28/22
f 25/33/23 59/34/23 57/35/23
f 21/25/24 26/36/24 22/31/24
f 22/32/25 28/37/25 24/28/25
f 21/25/26 27/29/26 25/33/26
f 31/38/27 36/39/27 32/11/27
f 2/1/28 30/40/28 4/4/28
f 2/8/29 32/11/29 29/41/29
f 4/4/30 31/38/30 8/6/30
f 33/42/31 40/43/31 37/44/31
f 30/40/32 33/45/32 34/46/32
f 29/41/33 36/39/33 33/42/33
f 30/40/34 35/47/34 31/38/34
f 37/44/35 44/48/35 41/49/35
f 34/46/36 39/50/36 35/47/36
f 35/47/37 40/43/37 36/39/37
f 33/45/38 38/51/38 34/46/38
f 43/52/39 48/53/39 44/48/39
f 38/51/40 43/52/40 39/50/40
f 39/50/41 44/48/41 40/43/41
f 37/54/42 42/55/42 38/51/42
f 47/56/43 52/57/43 48/53/43
f 41/58/44 46/59/44 42/55/44
f 41/49/45 48/53/45 45/60/45
f 42/55/46 47/56/46 43/52/46
f 52/57/47 53/61/47 49/62/47
f 45/63/48 50/64/48 46/59/48
f 48/53/49 49/62/49 45/60/49
f 47/56/50 50/64/50 51/65/50
f 54/66/51 56/67/51 55/68/51
f 51/65/52 54/69/52 55/68/52
f 51/65/53 56/67/53 52/57/53
f 49/70/54 54/69/54 50/64/54
f 58/71/55 61/72/55 60/73/55
f 28/37/56 59/34/56 27/29/56
f 25/33/57 58/74/57 26/36/57
f 26/75/58 60/73/58 28/37/58
f 60/73/59 62/76/59 59/34/59
f 57/35/60 62/76/60 64/77/60
f 68/78/61 69/79/61 67/80/61
f 65/81/62 70/82/62 72/83/62
f 57/35/63 63/84/63 58/74/63
f 64/77/64 68/85/64 63/84/64
f 61/72/65 68/78/65 67/80/65
f 62/76/66 65/81/66 64/77/66
f 65/81/67 71/86/67 68/85/67
f 72/83/68 75/87/68 76/88/68
f 61/72/69 66/89/69 62/76/69
f 67/80/70 70/82/70 66/89/70
f 73/90/71 78/91/71 74/92/71
f 71/93/72 74/92/72 69/79/72
f 72/83/73 73/94/73 71/86/73
f 69/79/74 75/87/74 70/82/74
f 77/95/75 84/96/75 81/97/75
f 76/88/76 77/95/76 73/94/76
f 74/92/77 79/98/77 75/87/77
f 76/88/78 79/98/78 80/99/78
f 82/100/79 84/96/79 83/101/79
f 78/91/80 83/101/80 79/98/80
f 80/99/81 83/101/81 84/96/81
f 77/102/82 82/100/82 78/91/82
f 2/1/1 4/4/1 3/2/1
f 4/4/83 8/6/83 7/5/83
f 8/6/3 6/12/3 5/7/3
f 5/7/84 6/12/84 2/8/84
f 5/7/5 12/13/5 11/10/5
f 8/6/6 31/38/6 32/11/6
f 12/13/7 16/18/7 15/14/7
f 5/7/85 1/9/85 10/15/85
f 7/5/86 11/10/86 9/16/86
f 3/2/10 9/16/10 10/17/10
f 16/18/87 14/23/87 18/19/87
f 10/17/12 9/16/12 13/21/12
f 12/13/88 10/15/88 14/23/88
f 11/10/89 15/14/89 13/21/89
f 19/24/90 23/30/90 21/25/90
f 15/14/91 19/24/91 17/26/91
f 16/18/17 20/20/17 19/24/17
f 13/21/18 17/26/18 18/27/18
f 24/28/19 28/37/19 27/29/19
f 20/20/20 24/28/20 23/30/20
f 17/26/21 21/25/21 22/31/21
f 20/20/92 18/19/92 22/32/92
f 25/33/93 27/29/93 59/34/93
f 21/25/24 25/33/24 26/36/24
f 22/32/94 26/75/94 28/37/94
f 21/25/95 23/30/95 27/29/95
f 31/38/27 35/47/27 36/39/27
f 2/1/28 29/103/28 30/40/28
f 2/8/96 6/12/96 32/11/96
f 4/4/97 30/40/97 31/38/97
f 33/42/98 36/39/98 40/43/98
f 30/40/32 29/103/32 33/45/32
f 29/41/99 32/11/99 36/39/99
f 30/40/100 34/46/100 35/47/100
f 37/44/101 40/43/101 44/48/101
f 34/46/102 38/51/102 39/50/102
f 35/47/37 39/50/37 40/43/37
f 33/45/38 37/54/38 38/51/38
f 43/52/39 47/56/39 48/53/39
f 38/51/103 42/55/103 43/52/103
f 39/50/41 43/52/41 44/48/41
f 37/54/42 41/58/42 42/55/42
f 47/56/43 51/65/43 52/57/43
f 41/58/44 45/63/44 46/59/44
f 41/49/104 44/48/104 48/53/104
f 42/55/105 46/59/105 47/56/105
f 52/57/106 56/67/106 53/61/106
f 45/63/48 49/70/48 50/64/48
f 48/53/107 52/57/107 49/62/107
f 47/56/108 46/59/108 50/64/108
f 54/66/51 53/104/51 56/67/51
f 51/65/109 50/64/109 54/69/109
f 51/65/53 55/68/53 56/67/53
f 49/70/54 53/105/54 54/69/54
f 58/71/110 63/106/110 61/72/110
f 28/37/56 60/73/56 59/34/56
f 25/33/57 57/35/57 58/74/57
f 26/75/111 58/71/111 60/73/111
f 60/73/59 61/72/59 62/76/59
f 57/35/112 59/34/112 62/76/112
f 68/78/113 71/93/113 69/79/113
f 65/81/114 66/89/114 70/82/114
f 57/35/63 64/77/63 63/84/63
f 64/77/64 65/81/64 68/85/64
f 61/72/115 63/106/115 68/78/115
f 62/76/116 66/89/116 65/81/116
f 65/81/67 72/83/67 71/86/67
f 72/83/117 70/82/117 75/87/117
f 61/72/69 67/80/69 66/89/69
f 67/80/70 69/79/70 70/82/70
f 73/90/118 77/102/118 78/91/118
f 71/93/119 73/90/119 74/92/119
f 72/83/73 76/88/73 73/94/73
f 69/79/74 74/92/74 75/87/74
f 77/95/75 80/99/75 84/96/75
f 76/88/76 80/99/76 77/95/76
f 74/92/77 78/91/77 79/98/77
f 76/88/120 75/87/120 79/98/120
f 82/100/79 81/97/79 84/96/79
f 78/91/80 82/100/80 83/101/80
f 80/99/121 79/98/121 83/101/121
f 77/102/122 81/107/122 82/100/122
o Large_Kite_Plane.008
v -1.913579 2.694388 0.409870
v -0.784885 1.190944 0.177736
v -1.913579 2.694388 -0.409870
v -0.784885 1.190944 -0.177736
v -1.889994 2.797188 -0.221312
v -1.848816 2.822668 0.000000
v -1.889994 2.797188 0.221312
v -1.533616 2.385029 0.409870
v -1.252102 2.014753 0.409870
v -1.023927 1.561303 0.334335
v -0.671100 1.173598 0.095970
v -0.629922 1.199077 0.000000
v -0.671100 1.173598 -0.095970
v -1.023927 1.561303 -0.334335
v -1.252102 2.014753 -0.409870
v -1.533616 2.385029 -0.409870
v -1.479666 2.463107 0.221312
v -1.438488 2.488586 0.000000
v -1.479666 2.463107 -0.221312
v -1.175655 2.063240 0.221312
v -1.134477 2.088720 0.000000
v -1.175655 2.063240 -0.221312
v -0.929246 1.573554 0.180527
v -0.888068 1.599033 0.000000
v -0.929246 1.573554 -0.180527
vt 0.750000 0.750000
vt 1.000000 1.000000
vt 0.750000 1.000000
vt 0.250000 0.750000
vt 0.000000 1.000000
vt 0.000000 0.750000
vt 0.500000 0.750000
vt 0.250000 1.000000
vt 0.500000 1.000000
vt 0.000000 0.000000
vt 0.250000 0.250000
vt 0.000000 0.250000
vt 0.000000 0.500000
vt 0.250000 0.000000
vt 0.500000 0.250000
vt 0.250000 0.500000
vt 0.750000 0.000000
vt 0.500000 0.000000
vt 0.750000 0.250000
vt 0.500000 0.500000
vt 1.000000 0.000000
vt 1.000000 0.250000
vt 0.750000 0.500000
vt 1.000000 0.750000
vt 1.000000 0.500000
vn 0.8268 0.3881 -0.4072
vn 0.6313 0.2328 -0.7398
vn 0.7981 0.3328 -0.5023
vn 0.6764 0.6606 -0.3256
vn 0.5643 0.6931 -0.4485
vn 0.5978 0.7342 -0.3218
vn 0.8103 0.4841 -0.3303
vn 0.6491 0.6191 -0.4421
vn 0.7788 0.4543 -0.4326
vn 0.5643 0.6931 0.4485
vn 0.6764 0.6606 0.3256
vn 0.5978 0.7342 0.3218
vn 0.6314 0.7755 -0.0000
vn 0.6491 0.6191 0.4421
vn 0.8103 0.4841 0.3303
vn 0.7211 0.6928 -0.0000
vn 0.7981 0.3328 0.5023
vn 0.7788 0.4543 0.4326
vn 0.8268 0.3881 0.4072
vn 0.8516 0.5242 -0.0000
vn 0.6313 0.2328 0.7398
vn 0.7721 0.4861 0.4094
vn 0.8782 0.4783 0.0000
vn 0.7721 0.4861 -0.4094
vn 0.5912 0.2174 -0.7766
vn 0.5912 0.2174 0.7766
vn 0.7501 0.4842 0.4504
vn 0.7501 0.4842 -0.4504
s 1
f 109/108/123 88/109/124 98/110/125
f 103/111/126 87/112/127 89/113/128
f 106/114/129 100/115/130 103/111/126
f 106/114/129 98/110/125 99/116/131
f 85/117/132 101/118/133 91/119/134
f 101/118/133 90/120/135 91/119/134
f 90/120/135 103/111/126 89/113/128
f 92/121/136 104/122/137 101/118/133
f 104/122/137 102/123/138 101/118/133
f 102/123/138 106/114/129 103/111/126
f 94/124/139 104/122/137 93/125/140
f 107/126/141 105/127/142 104/122/137
f 105/127/142 109/108/123 106/114/129
f 86/128/143 107/126/141 94/124/139
f 95/129/144 108/130/145 107/126/141
f 108/130/145 97/131/146 109/108/123
f 109/108/123 97/131/147 88/109/124
f 103/111/126 100/115/130 87/112/127
f 106/114/129 99/116/131 100/115/130
f 106/114/129 109/108/123 98/110/125
f 85/117/132 92/121/136 101/118/133
f 101/118/133 102/123/138 90/120/135
f 90/120/135 102/123/138 103/111/126
f 92/121/136 93/125/140 104/122/137
f 104/122/137 105/127/142 102/123/138
f 102/123/138 105/127/142 106/114/129
f 94/124/139 107/126/141 104/122/137
f 107/126/141 108/130/145 105/127/142
f 105/127/142 108/130/145 109/108/123
f 86/128/143 95/129/148 107/126/141
f 95/129/144 96/132/149 108/130/145
f 108/130/145 96/132/150 97/131/146
o Large_Kite_Flags_Plane.011
v -0.045470 -0.409761 -0.000000
v 0.256539 -0.337549 -0.000000
v -0.058466 -0.383702 -0.000000
v 0.180925 -0.185924 -0.000000
v -0.055217 -0.390217 -0.000000
v -0.051968 -0.396731 -0.000000
v -0.048719 -0.403246 -0.000000
v 0.030032 -0.391708 -0.000000
v 0.105534 -0.373655 -0.000000
v 0.181036 -0.355602 -0.000000
v 0.237635 -0.299643 -0.000000
v 0.218732 -0.261737 -0.000000
v 0.199828 -0.223830 -0.000000
v 0.121077 -0.235368 -0.000000
v 0.061230 -0.284813 -0.000000
v 0.001382 -0.334257 -0.000000
v 0.022870 -0.377345 -0.000000
v 0.015707 -0.362983 -0.000000
v 0.008545 -0.348620 -0.000000
v 0.094458 -0.351445 -0.000000
v 0.083382 -0.329234 -0.000000
v 0.072306 -0.307023 -0.000000
v 0.166047 -0.325544 -0.000000
v 0.151057 -0.295485 -0.000000
v 0.136067 -0.265427 -0.000000
v -0.511606 0.399813 0.000000
v -0.224815 0.518871 0.000000
v -0.528558 0.423490 0.000000
v -0.323453 0.656632 0.000000
v -0.524320 0.417571 0.000000
v -0.520082 0.411652 0.000000
v -0.515844 0.405732 0.000000
v -0.439908 0.429578 0.000000
v -0.368210 0.459342 0.000000
v -0.296513 0.489107 0.000000
v -0.249474 0.553311 0.000000
v -0.274134 0.587752 0.000000
v -0.298793 0.622192 0.000000
v -0.374729 0.598347 0.000000
v -0.426006 0.540061 0.000000
v -0.477282 0.481775 0.000000
v -0.449252 0.442627 0.000000
v -0.458595 0.455677 0.000000
v -0.467939 0.468726 0.000000
v -0.382659 0.479522 0.000000
v -0.397108 0.499702 0.000000
v -0.411557 0.519881 0.000000
v -0.316067 0.516417 0.000000
v -0.335621 0.543727 0.000000
v -0.355175 0.571037 0.000000
v -0.221046 0.167005 0.000000
v 0.000921 0.272987 -0.000000
v -0.235431 0.185037 0.000000
v -0.082776 0.377904 0.000000
v -0.231835 0.180529 0.000000
v -0.228239 0.176021 0.000000
v -0.224643 0.171513 0.000000
v -0.165555 0.193500 0.000000
v -0.110063 0.219996 -0.000000
v -0.054571 0.246492 -0.000000
v -0.020003 0.299216 -0.000000
v -0.040928 0.325446 0.000000
v -0.061852 0.351675 0.000000
v -0.120939 0.329687 0.000000
v -0.159103 0.281471 0.000000
v -0.197267 0.233254 0.000000
v -0.173483 0.203439 0.000000
v -0.181411 0.213377 0.000000
v -0.189339 0.223315 0.000000
v -0.122323 0.235365 0.000000
v -0.134583 0.250733 0.000000
v -0.146843 0.266102 0.000000
v -0.071163 0.267291 -0.000000
v -0.087755 0.288089 0.000000
v -0.104347 0.308888 0.000000
vt 1.000000 0.750000
vt 0.750000 1.000000
vt 0.750000 0.750000
vt 0.250000 0.750000
vt 0.000000 1.000000
vt 0.000000 0.750000
vt 0.500000 0.750000
vt 0.250000 1.000000
vt 0.500000 1.000000
vt 0.000000 0.000000
vt 0.250000 0.250000
vt 0.000000 0.250000
vt 0.250000 0.500000
vt 0.000000 0.500000
vt 0.250000 0.000000
vt 0.500000 0.250000
vt 0.500000 0.500000
vt 0.500000 0.000000
vt 0.750000 0.250000
vt 0.750000 0.500000
vt 0.750000 0.000000
vt 1.000000 0.250000
vt 1.000000 0.500000
vt 1.000000 0.750000
vt 0.750000 1.000000
vt 0.750000 0.750000
vt 0.250000 0.750000
vt 0.000000 1.000000
vt 0.000000 0.750000
vt 0.500000 0.750000
vt 0.250000 1.000000
vt 0.500000 1.000000
vt 0.000000 0.000000
vt 0.250000 0.250000
vt 0.000000 0.250000
vt 0.250000 0.500000
vt 0.000000 0.500000
vt 0.250000 0.000000
vt 0.500000 0.250000
vt 0.500000 0.500000
vt 0.500000 0.000000
vt 0.750000 0.250000
vt 0.750000 0.500000
vt 0.750000 0.000000
vt 1.000000 0.250000
vt 1.000000 0.500000
vt 1.000000 0.750000
vt 0.750000 1.000000
vt 0.750000 0.750000
vt 0.250000 0.750000
vt 0.000000 1.000000
vt 0.000000 0.750000
vt 0.500000 0.750000
vt 0.250000 1.000000
vt 0.500000 1.000000
vt 0.000000 0.000000
vt 0.250000 0.250000
vt 0.000000 0.250000
vt 0.250000 0.500000
vt 0.000000 0.500000
vt 0.250000 0.000000
vt 0.500000 0.250000
vt 0.500000 0.500000
vt 0.500000 0.000000
vt 0.750000 0.250000
vt 0.750000 0.500000
vt 0.750000 0.000000
vt 1.000000 0.250000
vt 1.000000 0.500000
vt 1.000000 1.000000
vt 1.000000 0.000000
vt 1.000000 1.000000
vt 1.000000 0.000000
vt 1.000000 1.000000
vt 1.000000 0.000000
vn 0.0000 -0.0000 1.0000
s off
f 122/133/151 123/134/151 134/135/151
f 128/136/151 112/137/151 114/138/151
f 131/139/151 125/140/151 128/136/151
f 134/135/151 124/141/151 131/139/151
f 110/142/151 126/143/151 116/144/151
f 116/144/151 127/145/151 115/146/151
f 127/145/151 114/138/151 115/146/151
f 117/147/151 129/148/151 126/143/151
f 126/143/151 130/149/151 127/145/151
f 130/149/151 128/136/151 127/145/151
f 118/150/151 132/151/151 129/148/151
f 129/148/151 133/152/151 130/149/151
f 133/152/151 131/139/151 130/149/151
f 119/153/151 120/154/151 132/151/151
f 132/151/151 121/155/151 133/152/151
f 121/155/151 134/135/151 133/152/151
f 147/156/151 148/157/151 159/158/151
f 153/159/151 137/160/151 139/161/151
f 156/162/151 150/163/151 153/159/151
f 159/158/151 149/164/151 156/162/151
f 135/165/151 151/166/151 141/167/151
f 141/167/151 152/168/151 140/169/151
f 152/168/151 139/161/151 140/169/151
f 142/170/151 154/171/151 151/166/151
f 151/166/151 155/172/151 152/168/151
f 155/172/151 153/159/151 152/168/151
f 143/173/151 157/174/151 154/171/151
f 154/171/151 158/175/151 155/172/151
f 158/175/151 156/162/151 155/172/151
f 144/176/151 145/177/151 157/174/151
f 157/174/151 146/178/151 158/175/151
f 146/178/151 159/158/151 158/175/151
f 172/179/151 173/180/151 184/181/151
f 178/182/151 162/183/151 164/184/151
f 181/185/151 175/186/151 178/182/151
f 184/181/151 174/187/151 181/185/151
f 160/188/151 176/189/151 166/190/151
f 166/190/151 177/191/151 165/192/151
f 177/191/151 164/184/151 165/192/151
f 167/193/151 179/194/151 176/189/151
f 176/189/151 180/195/151 177/191/151
f 180/195/151 178/182/151 177/191/151
f 168/196/151 182/197/151 179/194/151
f 179/194/151 183/198/151 180/195/151
f 183/198/151 181/185/151 180/195/151
f 169/199/151 170/200/151 182/197/151
f 182/197/151 171/201/151 183/198/151
f 171/201/151 184/181/151 183/198/151
f 122/133/151 113/202/151 123/134/151
f 128/136/151 125/140/151 112/137/151
f 131/139/151 124/141/151 125/140/151
f 134/135/151 123/134/151 124/141/151
f 110/142/151 117/147/151 126/143/151
f 116/144/151 126/143/151 127/145/151
f 127/145/151 128/136/151 114/138/151
f 117/147/151 118/150/151 129/148/151
f 126/143/151 129/148/151 130/149/151
f 130/149/151 131/139/151 128/136/151
f 118/150/151 119/153/151 132/151/151
f 129/148/151 132/151/151 133/152/151
f 133/152/151 134/135/151 131/139/151
f 119/153/151 111/203/151 120/154/151
f 132/151/151 120/154/151 121/155/151
f 121/155/151 122/133/151 134/135/151
f 147/156/151 138/204/151 148/157/151
f 153/159/151 150/163/151 137/160/151
f 156/162/151 149/164/151 150/163/151
f 159/158/151 148/157/151 149/164/151
f 135/165/151 142/170/151 151/166/151
f 141/167/151 151/166/151 152/168/151
f 152/168/151 153/159/151 139/161/151
f 142/170/151 143/173/151 154/171/151
f 151/166/151 154/171/151 155/172/151
f 155/172/151 156/162/151 153/159/151
f 143/173/151 144/176/151 157/174/151
f 154/171/151 157/174/151 158/175/151
f 158/175/151 159/158/151 156/162/151
f 144/176/151 136/205/151 145/177/151
f 157/174/151 145/177/151 146/178/151
f 146/178/151 147/156/151 159/158/151
f 172/179/151 163/206/151 173/180/151
f 178/182/151 175/186/151 162/183/151
f 181/185/151 174/187/151 175/186/151
f 184/181/151 173/180/151 174/187/151
f 160/188/151 167/193/151 176/189/151
f 166/190/151 176/189/151 177/191/151
f 177/191/151 178/182/151 164/184/151
f 167/193/151 168/196/151 179/194/151
f 176/189/151 179/194/151 180/195/151
f 180/195/151 181/185/151 178/182/151
f 168/196/151 169/199/151 182/197/151
f 179/194/151 182/197/151 183/198/151
f 183/198/151 184/181/151 181/185/151
f 169/199/151 161/207/151 170/200/151
f 182/197/151 170/200/151 171/201/151
f 171/201/151 172/179/151 184/181/151
