# Blender v3.4.1 OBJ File: 'flags.blend'
# www.blender.org
o Mini_Flag_Plane
v -0.990750 1.000000 -0.000000
v -0.990749 -1.000000 -0.000000
v 1.009250 1.000000 0.000000
v 1.009251 -1.000000 0.000000
v 0.509250 1.000000 0.000000
v 0.009250 1.000000 0.000000
v -0.490750 1.000000 -0.000000
v -0.990750 0.500000 -0.000000
v -0.990750 -0.000000 -0.000000
v -0.990749 -0.500000 -0.000000
v -0.490749 -1.000000 -0.000000
v 0.009251 -1.000000 0.000000
v 0.509251 -1.000000 0.000000
v 1.009251 -0.500000 0.000000
v 1.009251 0.000000 0.000000
v 1.009250 0.500000 0.000000
v -0.490750 0.500000 -0.000000
v 0.009250 0.500000 0.000000
v 0.509250 0.500000 0.000000
v -0.490750 -0.000000 -0.000000
v 0.009250 0.000000 0.000000
v 0.509250 0.000000 0.000000
v -0.490750 -0.500000 -0.000000
v 0.009251 -0.500000 0.000000
v 0.509251 -0.500000 0.000000
v -0.990750 1.000000 -0.008041
v -0.990749 -1.000000 -0.008041
v 1.009250 1.000000 -0.008041
v 1.009251 -1.000000 -0.008041
v 0.509250 1.000000 -0.008041
v 0.009250 1.000000 -0.008041
v -0.490750 1.000000 -0.008041
v -0.990750 0.500000 -0.008041
v -0.990750 -0.000000 -0.008041
v -0.990749 -0.500000 -0.008041
v -0.490749 -1.000000 -0.008041
v 0.009251 -1.000000 -0.008041
v 0.509251 -1.000000 -0.008041
v 1.009251 -0.500000 -0.008041
v 1.009251 0.000000 -0.008041
v 1.009250 0.500000 -0.008041
v -0.490750 0.500000 -0.008041
v 0.009250 0.500000 -0.008041
v 0.509250 0.500000 -0.008041
v -0.490750 -0.000000 -0.008041
v 0.009250 0.000000 -0.008041
v 0.509250 0.000000 -0.008041
v -0.490750 -0.500000 -0.008041
v 0.009251 -0.500000 -0.008041
v 0.509251 -0.500000 -0.008041
vt 1.000000 0.750000
vt 0.750000 1.000000
vt 0.750000 0.750000
vt 0.250000 0.750000
vt 0.000000 1.000000
vt 0.000000 0.750000
vt 0.500000 0.750000
vt 0.250000 1.000000
vt 0.500000 1.000000
vt 0.250000 0.000000
vt 0.000000 0.250000
vt 0.000000 0.000000
vt 0.250000 0.250000
vt 0.000000 0.500000
vt 0.250000 0.500000
vt 0.500000 0.000000
vt 0.500000 0.250000
vt 0.500000 0.500000
vt 0.750000 0.000000
vt 0.750000 0.250000
vt 0.750000 0.500000
vt 1.000000 0.000000
vt 1.000000 0.250000
vt 1.000000 0.500000
vt 0.750000 1.000000
vt 1.000000 0.750000
vt 0.750000 0.750000
vt 0.000000 1.000000
vt 0.250000 0.750000
vt 0.000000 0.750000
vt 0.250000 1.000000
vt 0.500000 0.750000
vt 0.500000 1.000000
vt 0.000000 0.250000
vt 0.250000 0.000000
vt 0.000000 0.000000
vt 0.000000 0.500000
vt 0.250000 0.250000
vt 0.250000 0.500000
vt 0.500000 0.000000
vt 0.500000 0.250000
vt 0.500000 0.500000
vt 0.750000 0.000000
vt 0.750000 0.250000
vt 0.750000 0.500000
vt 1.000000 0.000000
vt 1.000000 0.250000
vt 1.000000 0.500000
vt 1.000000 1.000000
vt 1.000000 1.000000
vn -0.0000 0.0000 1.0000
vn 0.0000 0.0000 -1.0000
s off
f 13/1/1 14/2/1 25/3/1
f 19/4/1 3/5/1 5/6/1
f 22/7/1 16/8/1 19/4/1
f 25/3/1 15/9/1 22/7/1
f 8/10/1 7/11/1 1/12/1
f 17/13/1 6/14/1 7/11/1
f 18/15/1 5/6/1 6/14/1
f 9/16/1 17/13/1 8/10/1
f 20/17/1 18/15/1 17/13/1
f 21/18/1 19/4/1 18/15/1
f 10/19/1 20/17/1 9/16/1
f 23/20/1 21/18/1 20/17/1
f 24/21/1 22/7/1 21/18/1
f 2/22/1 23/20/1 10/19/1
f 11/23/1 24/21/1 23/20/1
f 12/24/1 25/3/1 24/21/1
f 39/25/2 38/26/2 50/27/2
f 28/28/2 44/29/2 30/30/2
f 41/31/2 47/32/2 44/29/2
f 40/33/2 50/27/2 47/32/2
f 32/34/2 33/35/2 26/36/2
f 31/37/2 42/38/2 32/34/2
f 30/30/2 43/39/2 31/37/2
f 42/38/2 34/40/2 33/35/2
f 43/39/2 45/41/2 42/38/2
f 44/29/2 46/42/2 43/39/2
f 45/41/2 35/43/2 34/40/2
f 46/42/2 48/44/2 45/41/2
f 47/32/2 49/45/2 46/42/2
f 48/44/2 27/46/2 35/43/2
f 49/45/2 36/47/2 48/44/2
f 50/27/2 37/48/2 49/45/2
f 13/1/1 4/49/1 14/2/1
f 19/4/1 16/8/1 3/5/1
f 22/7/1 15/9/1 16/8/1
f 25/3/1 14/2/1 15/9/1
f 8/10/1 17/13/1 7/11/1
f 17/13/1 18/15/1 6/14/1
f 18/15/1 19/4/1 5/6/1
f 9/16/1 20/17/1 17/13/1
f 20/17/1 21/18/1 18/15/1
f 21/18/1 22/7/1 19/4/1
f 10/19/1 23/20/1 20/17/1
f 23/20/1 24/21/1 21/18/1
f 24/21/1 25/3/1 22/7/1
f 2/22/1 11/23/1 23/20/1
f 11/23/1 12/24/1 24/21/1
f 12/24/1 13/1/1 25/3/1
f 39/25/2 29/50/2 38/26/2
f 28/28/2 41/31/2 44/29/2
f 41/31/2 40/33/2 47/32/2
f 40/33/2 39/25/2 50/27/2
f 32/34/2 42/38/2 33/35/2
f 31/37/2 43/39/2 42/38/2
f 30/30/2 44/29/2 43/39/2
f 42/38/2 45/41/2 34/40/2
f 43/39/2 46/42/2 45/41/2
f 44/29/2 47/32/2 46/42/2
f 45/41/2 48/44/2 35/43/2
f 46/42/2 49/45/2 48/44/2
f 47/32/2 50/27/2 49/45/2
f 48/44/2 36/47/2 27/46/2
f 49/45/2 37/48/2 36/47/2
f 50/27/2 38/26/2 37/48/2
