# Blender v3.4.1 OBJ File: 'environment.blend'
# www.blender.org
o Orange_Lantern_Cylinder.009
v 0.000000 -1.201353 -0.226359
v 0.000000 -1.081768 -0.226359
v 0.133050 -1.201353 -0.183128
v 0.133050 -1.081768 -0.183128
v 0.215280 -1.201353 -0.069949
v 0.215280 -1.081768 -0.069949
v 0.215280 -1.201353 0.069949
v 0.215280 -1.081768 0.069949
v 0.133050 -1.201353 0.183128
v 0.133050 -1.081768 0.183128
v 0.000000 -1.201353 0.226359
v 0.000000 -1.081768 0.226359
v -0.133050 -1.201353 0.183128
v -0.133050 -1.081768 0.183128
v -0.215280 -1.201353 0.069949
v -0.215280 -1.081768 0.069949
v -0.215280 -1.201353 -0.069949
v -0.215280 -1.081768 -0.069949
v -0.133050 -1.201353 -0.183128
v -0.133050 -1.081768 -0.183128
v 0.000000 -0.223380 -0.596481
v 0.000000 0.223379 -0.596481
v 0.421776 -0.223380 -0.421776
v 0.421776 0.223379 -0.421776
v 0.596481 -0.223380 0.000000
v 0.596481 0.223379 0.000000
v 0.421776 -0.223380 0.421776
v 0.421776 0.223379 0.421776
v 0.000000 -0.223380 0.596481
v 0.000000 0.223379 0.596481
v -0.421776 -0.223380 0.421776
v -0.421776 0.223379 0.421776
v -0.596481 -0.223380 0.000000
v -0.596481 0.223379 0.000000
v -0.421776 -0.223380 -0.421776
v -0.421776 0.223379 -0.421776
v 0.374626 0.686785 -0.374626
v -0.000000 0.686785 -0.529802
v 0.529802 0.686785 0.000000
v 0.374626 0.686785 0.374626
v -0.000000 0.686785 0.529802
v -0.374626 0.686785 0.374626
v -0.529802 0.686785 0.000000
v -0.374626 0.686785 -0.374626
v 0.287721 0.945790 -0.287721
v 0.000000 0.945790 -0.406899
v 0.406899 0.945790 0.000000
v 0.287721 0.945790 0.287721
v 0.000000 0.945790 0.406899
v -0.287721 0.945790 0.287721
v -0.406899 0.945790 0.000000
v -0.287721 0.945790 -0.287721
v 0.136195 1.095831 -0.136195
v 0.000000 1.095831 -0.192608
v 0.192608 1.095831 0.000000
v 0.136195 1.095831 0.136195
v 0.000000 1.095831 0.192608
v -0.136195 1.095831 0.136195
v -0.192608 1.095831 0.000000
v -0.136195 1.095831 -0.136195
v -0.000000 -0.663121 -0.537775
v 0.380264 -0.663121 -0.380264
v 0.537775 -0.663121 0.000000
v 0.380264 -0.663121 0.380264
v -0.000000 -0.663121 0.537775
v -0.380264 -0.663121 0.380264
v -0.537775 -0.663121 0.000000
v -0.380264 -0.663121 -0.380264
v 0.000000 -0.936649 -0.438256
v 0.309893 -0.936649 -0.309893
v 0.438256 -0.936649 0.000000
v 0.309893 -0.936649 0.309893
v 0.000000 -0.936649 0.438256
v -0.309893 -0.936649 0.309893
v -0.438256 -0.936649 0.000000
v -0.309893 -0.936649 -0.309893
v 0.000000 -1.110453 -0.250989
v 0.177476 -1.110453 -0.177476
v 0.250989 -1.110453 0.000000
v 0.177476 -1.110453 0.177476
v 0.000000 -1.110453 0.250989
v -0.177476 -1.110453 0.177476
v -0.250989 -1.110453 0.000000
v -0.177476 -1.110453 -0.177476
v 0.000000 1.069502 -0.243297
v 0.000000 1.198036 -0.243297
v 0.143007 1.069502 -0.196832
v 0.143007 1.198036 -0.196832
v 0.231389 1.069502 -0.075183
v 0.231389 1.198036 -0.075183
v 0.231389 1.069502 0.075183
v 0.231389 1.198036 0.075183
v 0.143007 1.069502 0.196832
v 0.143007 1.198036 0.196832
v 0.000000 1.069502 0.243297
v 0.000000 1.198036 0.243297
v -0.143007 1.069502 0.196832
v -0.143007 1.198036 0.196832
v -0.231389 1.069502 0.075183
v -0.231389 1.198036 0.075183
v -0.231389 1.069502 -0.075183
v -0.231389 1.198036 -0.075183
v -0.143007 1.069502 -0.196832
v -0.143007 1.198036 -0.196832
v -0.018587 1.098574 0.018587
v -0.018587 1.812168 0.018587
v -0.018587 1.098574 -0.018587
v -0.018587 1.812168 -0.018587
v 0.018587 1.098574 0.018587
v 0.018587 1.812168 0.018587
v 0.018587 1.098574 -0.018587
v 0.018587 1.812168 -0.018587
vt 0.907811 0.589069
vt 0.918832 0.812001
vt 0.907811 0.812036
vt 0.918832 0.589077
vt 0.929846 0.811996
vt 0.736991 0.585501
vt 0.748011 0.808432
vt 0.736991 0.808468
vt 0.932306 0.591538
vt 0.940859 0.811996
vt 0.929846 0.812039
vt 0.780835 0.752696
vt 0.769219 0.764312
vt 0.769219 0.752696
vt 0.780835 0.741080
vt 0.769219 0.752696
vt 0.769219 0.741080
vt 0.918832 0.589033
vt 0.929846 0.589034
vt 0.748011 0.585465
vt 0.943320 0.591494
vt 0.780835 0.764312
vt 0.780835 0.752696
vt 0.867206 0.668349
vt 0.830146 0.703473
vt 0.829842 0.668345
vt 0.905006 0.767779
vt 0.867510 0.809450
vt 0.867640 0.767776
vt 0.904876 0.809452
vt 0.867640 0.850922
vt 0.867511 0.712045
vt 0.829842 0.747640
vt 0.830146 0.712041
vt 0.867206 0.747644
vt 0.829842 0.791352
vt 0.867206 0.791356
vt 0.830146 0.826481
vt 0.290531 0.823818
vt 0.253036 0.865489
vt 0.253166 0.823815
vt 0.290401 0.865491
vt 0.253166 0.906961
vt 0.634681 0.789954
vt 0.769219 0.789954
vt 0.743525 0.869033
vt 0.867511 0.589038
vt 0.829842 0.624633
vt 0.830146 0.589033
vt 0.867206 0.624637
vt 0.525838 0.754588
vt 0.634682 0.833668
vt 0.567413 0.882541
vt 0.892380 0.227139
vt 1.000000 0.365619
vt 0.892380 0.366729
vt 0.250072 0.226778
vt 0.392363 0.366469
vt 0.250072 0.366371
vt 0.392363 0.226876
vt 0.500144 0.365570
vt 0.500144 0.227022
vt 0.642452 0.366729
vt 0.500144 0.366611
vt 0.642452 0.227139
vt 0.750072 0.365619
vt 0.000000 0.226778
vt 0.142291 0.366469
vt 0.000000 0.366371
vt 0.635833 0.082114
vt 0.142291 0.226876
vt 0.250072 0.365570
vt 0.750072 0.227022
vt 0.750072 0.366611
vt 0.008206 0.503614
vt 0.385777 0.081892
vt 0.447163 0.000000
vt 0.481510 0.081093
vt 0.231438 0.081093
vt 0.250072 0.225977
vt 0.731422 0.081129
vt 0.750072 0.226029
vt 0.885761 0.082114
vt 0.981350 0.081129
vt 1.000000 0.226029
vt 0.500144 0.225977
vt 0.135705 0.081892
vt 0.321846 0.588883
vt 0.314899 0.683317
vt 0.253036 0.657693
vt 0.946974 0.000000
vt 0.759361 0.082010
vt 0.873559 0.000757
vt 0.009321 0.081805
vt 0.123567 0.000613
vt 0.509433 0.082010
vt 0.623631 0.000757
vt 0.259393 0.081805
vt 0.373639 0.000613
vt 0.197091 0.000000
vt 0.697046 0.000000
vt 0.393534 0.761952
vt 0.347470 0.761952
vt 0.393534 0.650746
vt 0.487968 0.657693
vt 0.419158 0.588883
vt 0.419158 0.823815
vt 0.426105 0.729381
vt 0.487968 0.755005
vt 0.253036 0.755005
vt 0.321846 0.823815
vt 0.347470 0.650746
vt 0.426105 0.683318
vt 0.314899 0.729381
vt 0.233666 0.502891
vt 0.126664 0.588883
vt 0.136493 0.503701
vt 0.508322 0.503814
vt 0.258278 0.503614
vt 0.636624 0.503919
vt 0.758250 0.503814
vt 0.886552 0.503919
vt 0.386565 0.503701
vt 0.074113 0.841919
vt 0.156531 0.787858
vt 0.178924 0.841919
vt 0.705816 0.588218
vt 0.626744 0.589033
vt 0.483738 0.502891
vt 0.376736 0.588883
vt 0.983580 0.502919
vt 0.879133 0.591494
vt 0.774574 0.591408
vt 0.022117 0.588812
vt 0.522185 0.588947
vt 0.272189 0.588812
vt 0.198975 0.685389
vt 0.054061 0.745414
vt 0.253036 0.767807
vt 0.253036 0.662996
vt 0.178924 0.588883
vt 0.096505 0.642944
vt 0.074113 0.588883
vt 0.000000 0.767807
vt 0.096505 0.787858
vt 0.198975 0.745414
vt 0.156531 0.642944
vt 0.054061 0.685389
vt 0.000000 0.662996
vt 0.792142 0.629251
vt 0.831975 0.591499
vt 0.832302 0.629256
vt 0.907811 0.678407
vt 0.867510 0.723197
vt 0.867650 0.678405
vt 0.907672 0.723200
vt 0.867650 0.767773
vt 0.789354 0.835044
vt 0.829842 0.796786
vt 0.829514 0.835049
vt 0.789681 0.796781
vt 0.829842 0.749803
vt 0.789681 0.749798
vt 0.829514 0.712045
vt 0.910272 0.591497
vt 0.869971 0.636286
vt 0.870111 0.591494
vt 0.907672 0.633829
vt 0.867650 0.678402
vt 0.867510 0.633826
vt 0.500144 0.641564
vt 0.644749 0.641564
vt 0.617132 0.726561
vt 0.789354 0.712037
vt 0.829842 0.673778
vt 0.829514 0.712041
vt 0.789681 0.673774
vt 0.829842 0.626795
vt 0.672366 0.603553
vt 0.789354 0.688549
vt 0.717052 0.741080
vt 0.867511 0.703477
vt 0.905006 0.850925
vt 0.867511 0.826485
vt 0.290531 0.906964
vt 0.701950 0.882541
vt 0.660376 0.869033
vt 0.634681 0.833668
vt 0.660376 0.754588
vt 0.701950 0.741080
vt 0.743525 0.754588
vt 0.769219 0.833668
vt 0.525838 0.869033
vt 0.500144 0.833668
vt 0.500144 0.789954
vt 0.567413 0.741080
vt 0.608987 0.754588
vt 0.634682 0.789954
vt 0.608987 0.869033
vt 0.776481 0.000677
vt 0.026501 0.000547
vt 0.526553 0.000677
vt 0.276573 0.000547
vt 0.205854 0.588223
vt 0.733652 0.502919
vt 0.455926 0.588223
vt 0.958205 0.590679
vt 0.791815 0.591494
vt 0.907811 0.767776
vt 0.789354 0.712041
vt 0.910132 0.636289
vt 0.907811 0.678405
vt 0.572446 0.741080
vt 0.527761 0.726561
vt 0.500144 0.688549
vt 0.527761 0.603553
vt 0.572446 0.589033
vt 0.617132 0.603553
vt 0.644749 0.688549
vt 0.789681 0.626791
vt 0.672366 0.726561
vt 0.644749 0.688549
vt 0.644749 0.641564
vt 0.717052 0.589033
vt 0.761737 0.603553
vt 0.789354 0.641564
vt 0.761737 0.726561
vn -1.0000 0.0000 0.0000
vn 0.0000 0.0000 -1.0000
vn 1.0000 0.0000 0.0000
vn 0.0000 0.0000 1.0000
vn 0.0000 -1.0000 0.0000
vn 0.0000 1.0000 0.0000
vn 0.5878 0.0000 -0.8090
vn 0.9511 0.0000 -0.3090
vn 0.9511 0.0000 0.3090
vn 0.5878 0.0000 0.8090
vn -0.5878 0.0000 0.8090
vn -0.9511 0.0000 0.3090
vn -0.9511 0.0000 -0.3090
vn -0.5878 0.0000 -0.8090
vn 0.0000 0.0702 -0.9975
vn 0.7056 -0.0653 -0.7056
vn -0.0000 -0.0653 -0.9979
vn 0.7054 0.0702 -0.7054
vn 0.9979 -0.0653 0.0000
vn 0.9975 0.0702 0.0000
vn 0.7056 -0.0653 0.7056
vn 0.7054 0.0702 0.7054
vn 0.0000 -0.0653 0.9979
vn -0.0000 0.0702 0.9975
vn -0.7056 -0.0653 0.7056
vn -0.7054 0.0702 0.7054
vn -0.9979 -0.0653 -0.0000
vn -0.0000 0.2792 0.9602
vn -0.9975 0.0702 -0.0000
vn -0.7056 -0.0653 -0.7056
vn -0.7054 0.0702 -0.7054
vn -0.6877 -0.2326 0.6877
vn 0.9602 0.2792 0.0000
vn 0.5570 0.6160 0.5570
vn 0.6790 0.2792 0.6790
vn -0.6790 0.2792 -0.6790
vn -0.6790 0.2792 0.6790
vn 0.0000 0.2792 -0.9602
vn 0.6790 0.2792 -0.6790
vn -0.9602 0.2792 0.0000
vn -0.5570 0.6160 -0.5570
vn 0.0000 0.9308 -0.3657
vn -0.0000 0.6160 -0.7878
vn 0.5570 0.6160 -0.5570
vn -0.7878 0.6160 -0.0000
vn 0.0000 0.6160 0.7878
vn 0.7878 0.6160 0.0000
vn -0.5570 0.6160 0.5570
vn 0.2586 0.9308 0.2586
vn 0.3657 0.9308 0.0000
vn -0.3657 0.9308 -0.0000
vn -0.0000 0.9308 0.3657
vn -0.2586 0.9308 -0.2586
vn -0.2586 0.9308 0.2586
vn 0.2586 0.9308 -0.2586
vn -0.6877 -0.2326 -0.6877
vn -0.8493 -0.5279 -0.0000
vn -0.9726 -0.2326 0.0000
vn 0.6877 -0.2326 0.6877
vn 0.6877 -0.2326 -0.6877
vn -0.0000 -0.2326 0.9726
vn 0.0000 -0.2326 -0.9726
vn 0.9726 -0.2326 -0.0000
vn -0.3103 -0.8985 0.3103
vn -0.6006 -0.5279 0.6006
vn 0.0000 -0.5279 0.8493
vn 0.8493 -0.5279 0.0000
vn -0.0000 -0.5279 -0.8493
vn -0.6006 -0.5279 -0.6006
vn 0.6006 -0.5279 0.6006
vn 0.6006 -0.5279 -0.6006
vn 0.3103 -0.8985 0.3103
vn -0.3103 -0.8985 -0.3103
vn 0.3103 -0.8985 -0.3103
vn -0.4389 -0.8985 -0.0000
vn 0.0000 -0.8985 0.4389
vn 0.4389 -0.8985 0.0000
vn -0.0000 -0.8985 -0.4389
s off
f 106/1/1 107/2/1 105/3/1
f 108/4/2 111/5/2 107/2/2
f 112/6/3 109/7/3 111/8/3
f 110/9/4 105/10/4 109/11/4
f 111/12/5 105/13/5 107/14/5
f 108/15/6 110/16/6 112/17/6
f 106/1/1 108/18/1 107/2/1
f 108/4/2 112/19/2 111/5/2
f 112/6/3 110/20/3 109/7/3
f 110/9/4 106/21/4 105/10/4
f 111/12/5 109/22/5 105/13/5
f 108/15/6 106/23/6 110/16/6
s 1
f 2/24/2 3/25/7 1/26/2
f 4/27/7 5/28/8 3/29/7
f 6/30/8 7/31/9 5/28/8
f 8/32/9 9/33/10 7/34/9
f 10/35/10 11/36/4 9/33/10
f 12/37/4 13/38/11 11/36/4
f 14/39/11 15/40/12 13/41/11
f 16/42/12 17/43/13 15/40/12
f 18/44/6 10/45/6 6/46/6
f 18/47/13 19/48/14 17/49/13
f 20/50/14 1/26/2 19/48/14
f 7/51/5 15/52/5 19/53/5
f 22/54/15 23/55/16 21/56/17
f 24/57/18 25/58/19 23/59/16
f 26/60/20 27/61/21 25/58/19
f 28/62/22 29/63/23 27/64/21
f 30/65/24 31/66/25 29/63/23
f 32/67/26 33/68/27 31/69/25
f 28/62/22 41/70/28 30/65/24
f 34/71/29 35/72/30 33/68/27
f 36/73/31 21/56/17 35/74/30
f 33/68/27 66/75/32 31/69/25
f 39/76/33 48/77/34 40/78/35
f 34/71/29 44/79/36 36/80/31
f 24/57/18 39/76/33 26/60/20
f 30/65/24 42/81/37 32/82/26
f 36/73/31 38/83/38 22/54/15
f 22/54/15 37/84/39 24/85/18
f 26/60/20 40/78/35 28/86/22
f 32/67/26 43/87/40 34/71/29
f 52/88/41 54/89/42 46/90/43
f 38/83/38 45/91/44 37/84/39
f 44/92/36 46/93/43 38/83/38
f 42/94/37 51/95/45 43/87/40
f 40/96/35 49/97/46 41/70/28
f 37/98/39 47/99/47 39/76/33
f 43/87/40 52/100/41 44/79/36
f 41/70/28 50/101/48 42/81/37
f 56/102/49 55/103/50 59/104/51
f 50/105/48 59/104/51 51/106/45
f 48/107/34 57/108/52 49/109/46
f 45/110/44 55/103/50 47/111/47
f 51/106/45 60/112/53 52/88/41
f 49/109/46 58/113/54 50/105/48
f 47/111/47 56/102/49 48/107/34
f 46/90/43 53/114/55 45/110/44
f 68/115/56 75/116/57 67/117/58
f 29/63/23 64/118/59 27/64/21
f 35/72/30 67/117/58 33/68/27
f 25/58/19 62/119/60 23/59/16
f 31/66/25 65/120/61 29/63/23
f 21/56/17 68/121/56 35/74/30
f 23/55/16 61/122/62 21/56/17
f 27/61/21 63/123/63 25/58/19
f 75/124/57 82/125/64 74/126/65
f 65/120/61 74/127/65 73/128/66
f 64/129/59 71/130/67 63/123/63
f 62/131/60 69/132/68 61/122/62
f 61/122/62 76/133/69 68/121/56
f 67/117/58 74/134/65 66/75/32
f 65/120/61 72/135/70 64/118/59
f 63/123/63 70/136/71 62/119/60
f 80/137/72 82/125/64 84/138/73
f 73/139/66 80/137/72 72/140/70
f 71/141/67 78/142/74 70/143/71
f 76/144/69 83/145/75 75/124/57
f 74/126/65 81/146/76 73/139/66
f 72/140/70 79/147/77 71/141/67
f 70/143/71 77/148/78 69/149/68
f 69/149/68 84/138/73 76/144/69
f 86/150/2 87/151/7 85/152/2
f 88/153/7 89/154/8 87/155/7
f 90/156/8 91/157/9 89/154/8
f 92/158/9 93/159/10 91/160/9
f 94/161/10 95/162/4 93/159/10
f 96/163/4 97/164/11 95/162/4
f 98/165/11 99/166/12 97/167/11
f 100/168/12 101/169/13 99/170/12
f 102/171/6 94/172/6 90/173/6
f 102/174/13 103/175/14 101/176/13
f 104/177/14 85/178/2 103/175/14
f 91/179/5 99/180/5 103/181/5
f 2/24/2 4/182/7 3/25/7
f 4/27/7 6/30/8 5/28/8
f 6/30/8 8/183/9 7/31/9
f 8/32/9 10/35/10 9/33/10
f 10/35/10 12/37/4 11/36/4
f 12/37/4 14/184/11 13/38/11
f 14/39/11 16/42/12 15/40/12
f 16/42/12 18/185/13 17/43/13
f 6/46/6 4/186/6 18/44/6
f 4/186/6 2/187/6 18/44/6
f 2/187/6 20/188/6 18/44/6
f 18/44/6 16/189/6 10/45/6
f 16/189/6 14/190/6 10/45/6
f 14/190/6 12/191/6 10/45/6
f 10/45/6 8/192/6 6/46/6
f 18/47/13 20/50/14 19/48/14
f 20/50/14 2/24/2 1/26/2
f 19/53/5 1/193/5 3/194/5
f 3/194/5 5/195/5 19/53/5
f 5/195/5 7/51/5 19/53/5
f 7/51/5 9/196/5 15/52/5
f 9/196/5 11/197/5 15/52/5
f 11/197/5 13/198/5 15/52/5
f 15/52/5 17/199/5 19/53/5
f 22/54/15 24/85/18 23/55/16
f 24/57/18 26/60/20 25/58/19
f 26/60/20 28/86/22 27/61/21
f 28/62/22 30/65/24 29/63/23
f 30/65/24 32/82/26 31/66/25
f 32/67/26 34/71/29 33/68/27
f 28/62/22 40/96/35 41/70/28
f 34/71/29 36/80/31 35/72/30
f 36/73/31 22/54/15 21/56/17
f 33/68/27 67/117/58 66/75/32
f 39/76/33 47/99/47 48/77/34
f 34/71/29 43/87/40 44/79/36
f 24/57/18 37/98/39 39/76/33
f 30/65/24 41/70/28 42/81/37
f 36/73/31 44/92/36 38/83/38
f 22/54/15 38/83/38 37/84/39
f 26/60/20 39/76/33 40/78/35
f 32/67/26 42/94/37 43/87/40
f 52/88/41 60/112/53 54/89/42
f 38/83/38 46/93/43 45/91/44
f 44/92/36 52/200/41 46/93/43
f 42/94/37 50/201/48 51/95/45
f 40/96/35 48/202/34 49/97/46
f 37/98/39 45/203/44 47/99/47
f 43/87/40 51/95/45 52/100/41
f 41/70/28 49/97/46 50/101/48
f 55/103/50 53/114/55 54/89/42
f 54/89/42 60/112/53 55/103/50
f 60/112/53 59/104/51 55/103/50
f 59/104/51 58/113/54 57/108/52
f 57/108/52 56/102/49 59/104/51
f 50/105/48 58/113/54 59/104/51
f 48/107/34 56/102/49 57/108/52
f 45/110/44 53/114/55 55/103/50
f 51/106/45 59/104/51 60/112/53
f 49/109/46 57/108/52 58/113/54
f 47/111/47 55/103/50 56/102/49
f 46/90/43 54/89/42 53/114/55
f 68/115/56 76/204/69 75/116/57
f 29/63/23 65/120/61 64/118/59
f 35/72/30 68/115/56 67/117/58
f 25/58/19 63/123/63 62/119/60
f 31/66/25 66/205/32 65/120/61
f 21/56/17 61/122/62 68/121/56
f 23/55/16 62/131/60 61/122/62
f 27/61/21 64/129/59 63/123/63
f 75/124/57 83/145/75 82/125/64
f 65/120/61 66/205/32 74/127/65
f 64/129/59 72/206/70 71/130/67
f 62/131/60 70/207/71 69/132/68
f 61/122/62 69/132/68 76/133/69
f 67/117/58 75/116/57 74/134/65
f 65/120/61 73/128/66 72/135/70
f 63/123/63 71/130/67 70/136/71
f 84/138/73 77/148/78 78/142/74
f 78/142/74 79/147/77 80/137/72
f 80/137/72 81/146/76 82/125/64
f 82/125/64 83/145/75 84/138/73
f 84/138/73 78/142/74 80/137/72
f 73/139/66 81/146/76 80/137/72
f 71/141/67 79/147/77 78/142/74
f 76/144/69 84/138/73 83/145/75
f 74/126/65 82/125/64 81/146/76
f 72/140/70 80/137/72 79/147/77
f 70/143/71 78/142/74 77/148/78
f 69/149/68 77/148/78 84/138/73
f 86/150/2 88/208/7 87/151/7
f 88/153/7 90/156/8 89/154/8
f 90/156/8 92/209/9 91/157/9
f 92/158/9 94/161/10 93/159/10
f 94/161/10 96/163/4 95/162/4
f 96/163/4 98/210/11 97/164/11
f 98/165/11 100/211/12 99/166/12
f 100/168/12 102/212/13 101/169/13
f 90/173/6 88/213/6 86/214/6
f 86/214/6 104/215/6 90/173/6
f 104/215/6 102/171/6 90/173/6
f 102/171/6 100/216/6 98/217/6
f 98/217/6 96/218/6 94/172/6
f 94/172/6 92/219/6 90/173/6
f 102/171/6 98/217/6 94/172/6
f 102/174/13 104/177/14 103/175/14
f 104/177/14 86/220/2 85/178/2
f 103/181/5 85/221/5 87/222/5
f 87/222/5 89/223/5 91/179/5
f 91/179/5 93/224/5 95/225/5
f 95/225/5 97/226/5 91/179/5
f 97/226/5 99/180/5 91/179/5
f 99/180/5 101/227/5 103/181/5
f 103/181/5 87/222/5 91/179/5
