# Blender v3.4.1 OBJ File: 'environment.blend'
# www.blender.org
o Pinwheel_Plane.020
v 0.022021 0.101182 0.412232
v -1.977979 -0.054276 0.421037
v -1.977979 -0.054276 0.421037
v -1.263693 -0.054276 0.421037
v -0.692264 -0.054276 0.421037
v 0.022021 -0.054276 0.421037
v 0.022021 -0.054276 -0.150391
v 0.022021 -0.028740 -0.436105
v 0.022021 0.031953 -0.408512
v 0.022021 0.070254 -0.110695
v 0.022021 0.088834 0.160608
v -1.406550 -0.054276 -0.150391
v -1.093546 -0.028740 -0.341559
v -0.549407 0.070254 -0.110695
v -0.263693 0.088834 0.160608
v -0.263693 -0.054276 0.135323
v -0.692264 -0.054276 0.135323
v -0.692264 -0.054276 -0.150391
v -0.835121 -0.028740 -0.436105
v -1.120836 -0.054276 -0.150391
v -0.835121 0.031953 -0.408512
v -0.412232 0.101182 0.022021
v -0.421037 -0.054276 -1.977979
v -0.421037 -0.054276 -1.977979
v -0.421037 -0.054276 -1.263693
v -0.421037 -0.054276 -0.692264
v -0.421037 -0.054276 0.022021
v 0.150391 -0.054276 0.022021
v 0.436105 -0.028740 0.022021
v 0.408512 0.031953 0.022021
v 0.110695 0.070254 0.022021
v -0.160608 0.088834 0.022021
v 0.341559 -0.028740 -1.093546
v 0.110695 0.070254 -0.549407
v -0.160608 0.088834 -0.263693
v -0.135323 -0.054276 -0.406550
v 0.150391 -0.054276 -0.692264
v 0.150391 -0.054276 -1.120836
v 0.436105 -0.028740 -0.835121
v 0.408512 0.031953 -0.835121
v 0.150391 -0.054276 -1.406550
v 0.412232 0.101182 -0.022022
v 0.421038 -0.054276 1.977978
v 0.421038 -0.054276 1.263693
v 0.421038 -0.054276 0.692264
v 0.421037 -0.054276 -0.022022
v -0.150391 -0.054276 -0.022021
v -0.436105 -0.028740 -0.022021
v -0.408512 0.031953 -0.022021
v -0.110695 0.070254 -0.022021
v 0.160608 0.088834 -0.022022
v 0.135324 -0.054276 1.692264
v -0.150391 -0.054276 1.406550
v -0.341559 -0.028740 1.093546
v -0.110695 0.070254 0.549407
v 0.160608 0.088834 0.263693
v 0.135323 -0.054276 0.263693
v 0.135323 -0.054276 0.692264
v -0.150391 -0.054276 0.692264
v -0.436105 -0.028740 0.835121
v -0.150391 -0.054276 1.120836
v -0.408512 0.031953 0.835121
v -0.022022 -0.054276 -0.421037
v -0.022022 0.101182 -0.412232
v 1.977978 -0.054276 -0.421038
v 1.406550 -0.054276 -0.421038
v 0.977978 -0.054276 -0.421038
v 0.406550 -0.054276 -0.421038
v -0.022021 -0.054276 0.150391
v -0.022021 -0.028740 0.436105
v -0.022021 0.031953 0.408512
v -0.022021 0.070254 0.110695
v -0.022022 0.088834 -0.160608
v 1.692264 -0.054276 -0.135324
v 1.406550 -0.054276 0.150390
v 1.093546 -0.028740 0.341559
v 0.549407 0.070254 0.110695
v 0.263693 0.088834 -0.160608
v 0.406550 -0.054276 -0.135323
v 0.406550 -0.054276 0.150391
v 0.406550 -0.028740 0.436105
v 0.977978 -0.054276 -0.135324
v 1.120836 -0.054276 0.150391
v 0.835122 0.031953 0.408512
v 0.835122 -0.028740 0.436105
v 1.406550 -0.054276 -0.135324
v 0.022021 0.101182 0.412232
v -1.977979 -0.054276 0.421037
v -1.977979 -0.054276 0.421037
v -1.263693 -0.054276 0.421037
v -0.692264 -0.054276 0.421037
v 0.022021 -0.054276 0.421037
v 0.022021 -0.054276 -0.150391
v 0.022021 -0.028740 -0.436105
v 0.022021 0.031953 -0.408512
v 0.022021 0.070254 -0.110695
v 0.022021 0.088834 0.160608
v -1.406550 -0.054276 -0.150391
v -1.093546 -0.028740 -0.341559
v -0.549407 0.070254 -0.110695
v -0.263693 0.088834 0.160608
v -0.263693 -0.054276 0.135323
v -0.692264 -0.054276 0.135323
v -0.692264 -0.054276 -0.150391
v -0.835121 -0.028740 -0.436105
v -1.120836 -0.054276 -0.150391
v -0.835121 0.031953 -0.408512
v -0.412232 0.101182 0.022021
v -0.421037 -0.054276 -1.977979
v -0.421037 -0.054276 -1.977979
v -0.421037 -0.054276 -1.263693
v -0.421037 -0.054276 -0.692264
v -0.421037 -0.054276 0.022021
v 0.150391 -0.054276 0.022021
v 0.436105 -0.028740 0.022021
v 0.408512 0.031953 0.022021
v 0.110695 0.070254 0.022021
v -0.160608 0.088834 0.022021
v 0.341559 -0.028740 -1.093546
v 0.110695 0.070254 -0.549407
v -0.160608 0.088834 -0.263693
v -0.135323 -0.054276 -0.406550
v 0.150391 -0.054276 -0.692264
v 0.150391 -0.054276 -1.120836
v 0.436105 -0.028740 -0.835121
v 0.408512 0.031953 -0.835121
v 0.150391 -0.054276 -1.406550
v 0.412232 0.101182 -0.022022
v 0.421038 -0.054276 1.977978
v 0.421038 -0.054276 1.263693
v 0.421038 -0.054276 0.692264
v 0.421037 -0.054276 -0.022022
v -0.150391 -0.054276 -0.022021
v -0.436105 -0.028740 -0.022021
v -0.408512 0.031953 -0.022021
v -0.110695 0.070254 -0.022021
v 0.160608 0.088834 -0.022022
v 0.135324 -0.054276 1.692264
v -0.150391 -0.054276 1.406550
v -0.341559 -0.028740 1.093546
v -0.110695 0.070254 0.549407
v 0.160608 0.088834 0.263693
v 0.135323 -0.054276 0.263693
v 0.135323 -0.054276 0.692264
v -0.150391 -0.054276 0.692264
v -0.436105 -0.028740 0.835121
v -0.150391 -0.054276 1.120836
v -0.408512 0.031953 0.835121
v -0.022022 -0.054276 -0.421037
v -0.022022 0.101182 -0.412232
v 1.977978 -0.054276 -0.421038
v 1.406550 -0.054276 -0.421038
v 0.977978 -0.054276 -0.421038
v 0.406550 -0.054276 -0.421038
v -0.022021 -0.054276 0.150391
v -0.022021 -0.028740 0.436105
v -0.022021 0.031953 0.408512
v -0.022021 0.070254 0.110695
v -0.022022 0.088834 -0.160608
v 1.692264 -0.054276 -0.135324
v 1.406550 -0.054276 0.150390
v 1.093546 -0.028740 0.341559
v 0.549407 0.070254 0.110695
v 0.263693 0.088834 -0.160608
v 0.406550 -0.054276 -0.135323
v 0.406550 -0.054276 0.150391
v 0.406550 -0.028740 0.436105
v 0.977978 -0.054276 -0.135324
v 1.120836 -0.054276 0.150391
v 0.835122 0.031953 0.408512
v 0.835122 -0.028740 0.436105
v 1.406550 -0.054276 -0.135324
vt 0.457740 0.779449
vt 0.526385 0.779449
vt 0.526385 0.701504
vt 0.077945 0.545615
vt 0.233835 0.545615
vt 0.155890 0.467670
vt 0.233835 0.350752
vt 0.155890 0.350752
vt 0.000000 0.545615
vt 0.077945 0.350752
vt 0.233835 0.194862
vt 0.937880 0.545615
vt 0.905550 0.545615
vt 0.905550 0.779177
vt 0.000000 0.311780
vt 0.077945 0.233835
vt 0.600398 0.779449
vt 0.681645 0.779449
vt 0.681645 0.545615
vt 0.937880 0.779177
vt 0.233835 0.077945
vt 0.600398 0.623559
vt 0.911555 0.850805
vt 0.025793 0.241280
vt 0.077945 0.155890
vt 0.000000 0.779449
vt 0.068645 0.779449
vt 0.068645 0.701504
vt 0.779450 0.545615
vt 0.935339 0.545615
vt 0.857395 0.428697
vt 0.935339 0.350752
vt 0.701505 0.545615
vt 0.779450 0.350752
vt 0.779450 0.233835
vt 0.935340 0.194862
vt 0.967670 0.305191
vt 1.000000 0.305191
vt 1.000000 0.071628
vt 0.701505 0.311780
vt 0.142658 0.779449
vt 0.223905 0.779449
vt 0.223905 0.545615
vt 0.967670 0.071628
vt 0.779450 0.155890
vt 0.935340 0.077945
vt 0.142658 0.623560
vt 0.993995 0.000000
vt 0.727298 0.241280
vt 0.233835 0.779449
vt 0.302480 0.779449
vt 0.302480 0.701504
vt 0.545615 0.545615
vt 0.701505 0.545615
vt 0.623560 0.467670
vt 0.701505 0.350752
vt 0.623560 0.350752
vt 0.467670 0.545615
vt 0.545615 0.350752
vt 0.701505 0.194862
vt 0.935340 0.305191
vt 0.967670 0.305191
vt 0.967670 0.071628
vt 0.467670 0.311780
vt 0.545615 0.233835
vt 0.376493 0.779449
vt 0.457740 0.779449
vt 0.457740 0.545615
vt 0.935340 0.071628
vt 0.701505 0.000000
vt 0.376493 0.623559
vt 0.961664 0.000000
vt 0.493463 0.241280
vt 0.545615 0.155890
vt 0.623560 0.077945
vt 0.681645 0.779449
vt 0.750289 0.779449
vt 0.750289 0.701504
vt 0.311780 0.545614
vt 0.467670 0.545615
vt 0.389725 0.428697
vt 0.233835 0.545614
vt 0.311780 0.428697
vt 0.970210 0.545615
vt 0.937880 0.545615
vt 0.937880 0.662396
vt 0.467670 0.428697
vt 0.467670 0.272807
vt 0.233835 0.428697
vt 0.389725 0.272807
vt 0.311780 0.233835
vt 0.467670 0.155890
vt 0.824303 0.779449
vt 0.905550 0.779449
vt 0.905550 0.545615
vt 0.970210 0.779177
vt 0.937880 0.779177
vt 0.233835 0.311780
vt 0.389725 0.155890
vt 0.467670 0.000000
vt 0.824303 0.623560
vt 0.943885 0.850805
vt 0.259628 0.241280
vt 0.311780 0.155890
vt 0.389725 0.077945
vt 0.457740 0.779449
vt 0.526385 0.701504
vt 0.526385 0.779449
vt 0.077945 0.545615
vt 0.155890 0.467670
vt 0.233835 0.545615
vt 0.233835 0.350752
vt 0.155890 0.350752
vt 0.000000 0.545615
vt 0.077945 0.350752
vt 0.233835 0.194862
vt 0.937880 0.545615
vt 0.905550 0.779177
vt 0.905550 0.545615
vt 0.000000 0.311780
vt 0.077945 0.233835
vt 0.600398 0.779449
vt 0.681645 0.545615
vt 0.681645 0.779449
vt 0.937880 0.779177
vt 0.233835 0.077945
vt 0.600398 0.623559
vt 0.911555 0.850805
vt 0.025793 0.241280
vt 0.077945 0.155890
vt 0.000000 0.779449
vt 0.068645 0.701504
vt 0.068645 0.779449
vt 0.779450 0.545615
vt 0.857395 0.428697
vt 0.935339 0.545615
vt 0.935339 0.350752
vt 0.701505 0.545615
vt 0.779450 0.350752
vt 0.779450 0.233835
vt 0.935340 0.194862
vt 0.967670 0.305191
vt 1.000000 0.071628
vt 1.000000 0.305191
vt 0.701505 0.311780
vt 0.142658 0.779449
vt 0.223905 0.545615
vt 0.223905 0.779449
vt 0.967670 0.071628
vt 0.779450 0.155890
vt 0.935340 0.077945
vt 0.142658 0.623560
vt 0.993995 0.000000
vt 0.727298 0.241280
vt 0.233835 0.779449
vt 0.302480 0.701504
vt 0.302480 0.779449
vt 0.545615 0.545615
vt 0.623560 0.467670
vt 0.701505 0.545615
vt 0.701505 0.350752
vt 0.623560 0.350752
vt 0.467670 0.545615
vt 0.545615 0.350752
vt 0.701505 0.194862
vt 0.935340 0.305191
vt 0.967670 0.071628
vt 0.967670 0.305191
vt 0.467670 0.311780
vt 0.545615 0.233835
vt 0.376493 0.779449
vt 0.457740 0.545615
vt 0.457740 0.779449
vt 0.935340 0.071628
vt 0.701505 0.000000
vt 0.376493 0.623559
vt 0.961664 0.000000
vt 0.493463 0.241280
vt 0.545615 0.155890
vt 0.623560 0.077945
vt 0.681645 0.779449
vt 0.750289 0.701504
vt 0.750289 0.779449
vt 0.311780 0.545614
vt 0.389725 0.428697
vt 0.467670 0.545615
vt 0.233835 0.545614
vt 0.311780 0.428697
vt 0.970210 0.545615
vt 0.937880 0.662396
vt 0.937880 0.545615
vt 0.467670 0.428697
vt 0.467670 0.272807
vt 0.233835 0.428697
vt 0.389725 0.272807
vt 0.311780 0.233835
vt 0.467670 0.155890
vt 0.824303 0.779449
vt 0.905550 0.545615
vt 0.905550 0.779449
vt 0.970210 0.779177
vt 0.937880 0.779177
vt 0.233835 0.311780
vt 0.389725 0.155890
vt 0.467670 0.000000
vt 0.824303 0.623560
vt 0.943885 0.850805
vt 0.259628 0.241280
vt 0.311780 0.155890
vt 0.389725 0.077945
vn 0.0000 0.9988 -0.0490
vn -0.0000 0.9983 -0.0587
vn -0.0000 0.9980 -0.0638
vn -0.0000 -0.9990 -0.0446
vn 0.0000 -1.0000 0.0000
vn -0.0000 -0.9960 -0.0890
vn 0.0000 0.8045 -0.5940
vn 0.0000 0.4139 -0.9103
vn -0.1409 -0.4666 -0.8732
vn -0.0052 -0.9981 -0.0616
vn -0.0000 0.9952 -0.0980
vn -0.1330 0.5815 -0.8026
vn -0.0000 0.9936 -0.1130
vn -0.0631 -0.9751 -0.2128
vn -0.0000 -0.9997 -0.0252
vn 0.0490 0.9988 0.0000
vn 0.0587 0.9983 0.0000
vn 0.0638 0.9980 -0.0000
vn 0.0446 -0.9990 -0.0000
vn 0.0890 -0.9960 -0.0000
vn 0.0616 -0.9981 -0.0052
vn 0.5940 0.8045 0.0000
vn 0.9103 0.4139 0.0000
vn 0.8732 -0.4666 -0.1409
vn 0.0980 0.9952 -0.0000
vn 0.8026 0.5815 -0.1330
vn 0.0252 -0.9997 0.0000
vn 0.1130 0.9936 -0.0000
vn 0.2128 -0.9751 -0.0631
vn -0.0490 0.9988 -0.0000
vn -0.0587 0.9983 -0.0000
vn -0.0638 0.9980 0.0000
vn -0.0446 -0.9990 0.0000
vn -0.0890 -0.9960 0.0000
vn -0.5940 0.8045 0.0000
vn -0.9103 0.4139 0.0000
vn -0.8732 -0.4666 0.1409
vn -0.0616 -0.9981 0.0052
vn -0.0980 0.9952 0.0000
vn -0.8026 0.5815 0.1330
vn -0.1130 0.9936 0.0000
vn -0.2128 -0.9751 0.0631
vn -0.0252 -0.9997 -0.0000
vn 0.0000 0.9988 0.0490
vn 0.0000 0.9983 0.0587
vn 0.0000 0.9980 0.0638
vn 0.0000 -0.9990 0.0446
vn 0.0000 -0.9960 0.0890
vn 0.0000 0.8045 0.5940
vn 0.0000 0.4139 0.9103
vn 0.0052 -0.9981 0.0616
vn 0.0000 0.9952 0.0980
vn 0.1330 0.5815 0.8026
vn 0.1409 -0.4666 0.8732
vn 0.0000 0.9936 0.1130
vn 0.0631 -0.9751 0.2128
vn 0.0000 -0.9997 0.0252
vn 0.0000 -0.9988 0.0490
vn 0.0000 -0.9980 0.0638
vn 0.0000 -0.9983 0.0587
vn 0.0000 0.9990 0.0446
vn 0.0000 1.0000 -0.0000
vn 0.0000 0.9960 0.0890
vn -0.0000 -0.8045 0.5940
vn 0.1409 0.4666 0.8732
vn -0.0000 -0.4139 0.9103
vn 0.0052 0.9981 0.0616
vn 0.0000 -0.9952 0.0980
vn 0.1330 -0.5815 0.8026
vn 0.0000 -0.9936 0.1130
vn 0.0631 0.9751 0.2128
vn 0.0000 0.9997 0.0252
vn -0.0490 -0.9988 0.0000
vn -0.0638 -0.9980 0.0000
vn -0.0587 -0.9983 0.0000
vn -0.0446 0.9990 0.0000
vn -0.0890 0.9960 0.0000
vn -0.0616 0.9981 0.0052
vn -0.5940 -0.8045 -0.0000
vn -0.8732 0.4666 0.1409
vn -0.9103 -0.4139 -0.0000
vn -0.0980 -0.9952 0.0000
vn -0.8026 -0.5815 0.1330
vn -0.0252 0.9997 -0.0000
vn -0.1130 -0.9936 0.0000
vn -0.2128 0.9751 0.0631
vn 0.0490 -0.9988 0.0000
vn 0.0638 -0.9980 -0.0000
vn 0.0587 -0.9983 0.0000
vn 0.0446 0.9990 -0.0000
vn 0.0890 0.9960 -0.0000
vn 0.5940 -0.8045 -0.0000
vn 0.8732 0.4666 -0.1409
vn 0.9103 -0.4139 -0.0000
vn 0.0616 0.9981 -0.0052
vn 0.0980 -0.9952 -0.0000
vn 0.8026 -0.5815 -0.1330
vn 0.1130 -0.9936 -0.0000
vn 0.2128 0.9751 -0.0631
vn 0.0252 0.9997 0.0000
vn -0.0000 -0.9988 -0.0490
vn -0.0000 -0.9980 -0.0638
vn -0.0000 -0.9983 -0.0587
vn -0.0000 0.9990 -0.0446
vn -0.0000 0.9960 -0.0890
vn -0.0000 -0.8045 -0.5940
vn -0.0000 -0.4139 -0.9103
vn -0.0052 0.9981 -0.0616
vn -0.0000 -0.9952 -0.0980
vn -0.1330 -0.5815 -0.8026
vn -0.1409 0.4666 -0.8732
vn -0.0000 -0.9936 -0.1130
vn -0.0631 0.9751 -0.2128
vn -0.0000 0.9997 -0.0252
s 1
f 1/1/1 11/2/2 15/3/3
f 7/4/4 6/5/5 16/6/5
f 16/6/5 6/5/5 5/7/5
f 7/4/4 16/6/5 17/8/5
f 16/6/5 5/7/5 17/8/5
f 8/9/6 7/4/4 18/10/4
f 7/4/4 17/8/5 18/10/4
f 17/8/5 5/7/5 4/11/5
f 9/12/7 8/13/8 19/14/9
f 8/9/6 18/10/4 19/15/9
f 18/10/4 17/8/5 20/16/10
f 17/8/5 4/11/5 20/16/10
f 10/17/11 9/18/7 21/19/12
f 9/12/7 19/14/9 21/20/12
f 19/15/9 18/10/4 20/16/10
f 20/16/10 4/11/5 3/21/5
f 11/2/2 10/17/11 15/3/3
f 15/3/3 10/17/11 14/22/13
f 10/17/11 21/19/12 14/22/13
f 21/20/12 19/14/9 13/23/14
f 19/15/9 20/16/10 13/24/14
f 13/24/14 20/16/10 12/25/15
f 12/25/15 20/16/10 3/21/5
f 22/26/16 32/27/17 35/28/18
f 28/29/19 27/30/5 36/31/5
f 36/31/5 27/30/5 26/32/5
f 29/33/20 28/29/19 37/34/19
f 28/29/19 36/31/5 37/34/19
f 37/34/19 36/31/5 38/35/21
f 36/31/5 26/32/5 38/35/21
f 38/35/21 26/32/5 25/36/5
f 30/37/22 29/38/23 39/39/24
f 29/33/20 37/34/19 39/40/24
f 31/41/25 30/42/22 40/43/26
f 30/37/22 39/39/24 40/44/26
f 39/40/24 37/34/19 38/35/21
f 38/35/21 25/36/5 41/45/27
f 41/45/27 25/36/5 24/46/5
f 32/27/17 31/41/25 35/28/18
f 35/28/18 31/41/25 34/47/28
f 31/41/25 40/43/26 34/47/28
f 40/44/26 39/39/24 33/48/29
f 39/40/24 38/35/21 33/49/29
f 33/49/29 38/35/21 41/45/27
f 42/50/30 51/51/31 56/52/32
f 47/53/33 46/54/5 57/55/5
f 57/55/5 46/54/5 45/56/5
f 47/53/33 57/55/5 58/57/5
f 57/55/5 45/56/5 58/57/5
f 48/58/34 47/53/33 59/59/33
f 47/53/33 58/57/5 59/59/33
f 58/57/5 45/56/5 44/60/5
f 49/61/35 48/62/36 60/63/37
f 48/58/34 59/59/33 60/64/37
f 59/59/33 58/57/5 61/65/38
f 58/57/5 44/60/5 61/65/38
f 50/66/39 49/67/35 62/68/40
f 49/61/35 60/63/37 62/69/40
f 60/64/37 59/59/33 61/65/38
f 61/65/38 44/60/5 43/70/5
f 51/51/31 50/66/39 56/52/32
f 56/52/32 50/66/39 55/71/41
f 50/66/39 62/68/40 55/71/41
f 62/69/40 60/63/37 54/72/42
f 60/64/37 61/65/38 54/73/42
f 54/73/42 61/65/38 53/74/43
f 53/74/43 61/65/38 52/75/5
f 61/65/38 43/70/5 52/75/5
f 64/76/44 73/77/45 78/78/46
f 69/79/47 63/80/5 79/81/5
f 70/82/48 69/79/47 80/83/47
f 71/84/49 70/85/50 81/86/50
f 63/80/5 68/87/5 79/81/5
f 69/79/47 79/81/5 80/83/47
f 79/81/5 68/87/5 67/88/5
f 70/82/48 80/83/47 81/89/48
f 80/83/47 79/81/5 82/90/5
f 79/81/5 67/88/5 82/90/5
f 81/89/48 80/83/47 83/91/51
f 80/83/47 82/90/5 83/91/51
f 82/90/5 67/88/5 66/92/5
f 72/93/52 71/94/49 84/95/53
f 71/84/49 81/86/50 84/96/53
f 84/96/53 81/86/50 85/97/54
f 81/89/48 83/91/51 85/98/54
f 83/91/51 82/90/5 86/99/5
f 82/90/5 66/92/5 86/99/5
f 86/99/5 66/92/5 65/100/5
f 73/77/45 72/93/52 78/78/46
f 78/78/46 72/93/52 77/101/55
f 72/93/52 84/95/53 77/101/55
f 84/96/53 85/97/54 76/102/56
f 85/98/54 83/91/51 76/103/56
f 76/103/56 83/91/51 75/104/57
f 83/91/51 86/99/5 75/104/57
f 75/104/57 86/99/5 74/105/5
f 86/99/5 65/100/5 74/105/5
f 87/106/58 101/107/59 97/108/60
f 93/109/61 102/110/62 92/111/62
f 102/110/62 91/112/62 92/111/62
f 93/109/61 103/113/62 102/110/62
f 102/110/62 103/113/62 91/112/62
f 94/114/63 104/115/61 93/109/61
f 93/109/61 104/115/61 103/113/62
f 103/113/62 90/116/62 91/112/62
f 95/117/64 105/118/65 94/119/66
f 94/114/63 105/120/65 104/115/61
f 104/115/61 106/121/67 103/113/62
f 103/113/62 106/121/67 90/116/62
f 96/122/68 107/123/69 95/124/64
f 95/117/64 107/125/69 105/118/65
f 105/120/65 106/121/67 104/115/61
f 106/121/67 89/126/62 90/116/62
f 97/108/60 101/107/59 96/122/68
f 101/107/59 100/127/70 96/122/68
f 96/122/68 100/127/70 107/123/69
f 107/125/69 99/128/71 105/118/65
f 105/120/65 99/129/71 106/121/67
f 99/129/71 98/130/72 106/121/67
f 98/130/72 89/126/62 106/121/67
f 108/131/73 121/132/74 118/133/75
f 114/134/76 122/135/62 113/136/62
f 122/135/62 112/137/62 113/136/62
f 115/138/77 123/139/76 114/134/76
f 114/134/76 123/139/76 122/135/62
f 123/139/76 124/140/78 122/135/62
f 122/135/62 124/140/78 112/137/62
f 124/140/78 111/141/62 112/137/62
f 116/142/79 125/143/80 115/144/81
f 115/138/77 125/145/80 123/139/76
f 117/146/82 126/147/83 116/148/79
f 116/142/79 126/149/83 125/143/80
f 125/145/80 124/140/78 123/139/76
f 124/140/78 127/150/84 111/141/62
f 127/150/84 110/151/62 111/141/62
f 118/133/75 121/132/74 117/146/82
f 121/132/74 120/152/85 117/146/82
f 117/146/82 120/152/85 126/147/83
f 126/149/83 119/153/86 125/143/80
f 125/145/80 119/154/86 124/140/78
f 119/154/86 127/150/84 124/140/78
f 128/155/87 142/156/88 137/157/89
f 133/158/90 143/159/62 132/160/62
f 143/159/62 131/161/62 132/160/62
f 133/158/90 144/162/62 143/159/62
f 143/159/62 144/162/62 131/161/62
f 134/163/91 145/164/90 133/158/90
f 133/158/90 145/164/90 144/162/62
f 144/162/62 130/165/62 131/161/62
f 135/166/92 146/167/93 134/168/94
f 134/163/91 146/169/93 145/164/90
f 145/164/90 147/170/95 144/162/62
f 144/162/62 147/170/95 130/165/62
f 136/171/96 148/172/97 135/173/92
f 135/166/92 148/174/97 146/167/93
f 146/169/93 147/170/95 145/164/90
f 147/170/95 129/175/62 130/165/62
f 137/157/89 142/156/88 136/171/96
f 142/156/88 141/176/98 136/171/96
f 136/171/96 141/176/98 148/172/97
f 148/174/97 140/177/99 146/167/93
f 146/169/93 140/178/99 147/170/95
f 140/178/99 139/179/100 147/170/95
f 139/179/100 138/180/62 147/170/95
f 147/170/95 138/180/62 129/175/62
f 150/181/101 164/182/102 159/183/103
f 155/184/104 165/185/62 149/186/62
f 156/187/105 166/188/104 155/184/104
f 157/189/106 167/190/107 156/191/107
f 149/186/62 165/185/62 154/192/62
f 155/184/104 166/188/104 165/185/62
f 165/185/62 153/193/62 154/192/62
f 156/187/105 167/194/105 166/188/104
f 166/188/104 168/195/62 165/185/62
f 165/185/62 168/195/62 153/193/62
f 167/194/105 169/196/108 166/188/104
f 166/188/104 169/196/108 168/195/62
f 168/195/62 152/197/62 153/193/62
f 158/198/109 170/199/110 157/200/106
f 157/189/106 170/201/110 167/190/107
f 170/201/110 171/202/111 167/190/107
f 167/194/105 171/203/111 169/196/108
f 169/196/108 172/204/62 168/195/62
f 168/195/62 172/204/62 152/197/62
f 172/204/62 151/205/62 152/197/62
f 159/183/103 164/182/102 158/198/109
f 164/182/102 163/206/112 158/198/109
f 158/198/109 163/206/112 170/199/110
f 170/201/110 162/207/113 171/202/111
f 171/203/111 162/208/113 169/196/108
f 162/208/113 161/209/114 169/196/108
f 169/196/108 161/209/114 172/204/62
f 161/209/114 160/210/62 172/204/62
f 172/204/62 160/210/62 151/205/62
l 2 3
l 23 24
l 88 89
l 109 110
