# Blender v3.4.1 OBJ File: 'environment.blend'
# www.blender.org
o Plant_Pot_Cylinder.016
v 0.000000 -0.462056 -1.000000
v -0.000000 0.462056 -0.924564
v 0.587785 -0.462056 -0.809017
v 0.543445 0.462056 -0.747988
v 0.951057 -0.462056 -0.309017
v 0.879312 0.462056 -0.285706
v 0.951057 -0.462056 0.309017
v 0.879312 0.462056 0.285706
v 0.587785 -0.462056 0.809017
v 0.543445 0.462056 0.747988
v 0.000000 -0.462056 1.000000
v -0.000000 0.462056 0.924564
v -0.587785 -0.462056 0.809017
v -0.543445 0.462056 0.747988
v -0.951057 -0.462056 0.309017
v -0.879312 0.462056 0.285706
v -0.951057 -0.462056 -0.309017
v -0.879312 0.462056 -0.285706
v -0.587785 -0.462056 -0.809017
v -0.543445 0.462056 -0.747988
v 0.000000 -0.804214 -0.899377
v 0.528641 -0.804214 -0.727612
v 0.855359 -0.804214 -0.277923
v 0.855359 -0.804214 0.277923
v 0.528641 -0.804214 0.727612
v 0.000000 -0.804214 0.899377
v -0.528641 -0.804214 0.727612
v -0.855359 -0.804214 0.277923
v -0.855359 -0.804214 -0.277923
v -0.528641 -0.804214 -0.727612
v -0.000000 -1.033874 -0.564590
v 0.331858 -1.033874 -0.456763
v 0.536957 -1.033874 -0.174468
v 0.536957 -1.033874 0.174468
v 0.331858 -1.033874 0.456763
v -0.000000 -1.033874 0.564590
v -0.331858 -1.033874 0.456763
v -0.536957 -1.033874 0.174468
v -0.536957 -1.033874 -0.174468
v -0.331858 -1.033874 -0.456763
v 0.569977 0.838005 -0.784506
v 0.000000 0.838005 -0.969703
v 0.922242 0.838005 -0.299655
v 0.922242 0.838005 0.299655
v 0.569977 0.838005 0.784506
v 0.000000 0.838005 0.969703
v -0.569977 0.838005 0.784506
v -0.922242 0.838005 0.299655
v -0.922242 0.838005 -0.299655
v -0.569977 0.838005 -0.784506
v 0.614676 0.949823 -0.846029
v 0.000000 0.949823 -1.045749
v 0.994567 0.949823 -0.323154
v 0.994567 0.949823 0.323154
v 0.614676 0.949823 0.846029
v 0.000000 0.949823 1.045749
v -0.614676 0.949823 0.846029
v -0.994567 0.949823 0.323154
v -0.994567 0.949823 -0.323154
v -0.614676 0.949823 -0.846029
v 0.443883 0.949823 -0.610953
v 0.000000 0.949823 -0.755179
v 0.718218 0.949823 -0.233363
v 0.718218 0.949823 0.233363
v 0.443883 0.949823 0.610953
v 0.000000 0.949823 0.755179
v -0.443883 0.949823 0.610953
v -0.718218 0.949823 0.233363
v -0.718218 0.949823 -0.233363
v -0.443883 0.949823 -0.610953
v 0.299950 0.597581 -0.412846
v 0.000000 0.597581 -0.510305
v 0.485329 0.597581 -0.157693
v 0.485329 0.597581 0.157693
v 0.299950 0.597581 0.412846
v 0.000000 0.597581 0.510305
v -0.299950 0.597581 0.412846
v -0.485329 0.597581 0.157693
v -0.485329 0.597581 -0.157693
v -0.299950 0.597581 -0.412846
v 0.000000 -0.462056 -1.000000
v -0.000000 0.462056 -0.924564
v 0.587785 -0.462056 -0.809017
v 0.543445 0.462056 -0.747988
v 0.951057 -0.462056 -0.309017
v 0.879312 0.462056 -0.285706
v 0.951057 -0.462056 0.309017
v 0.879312 0.462056 0.285706
v 0.587785 -0.462056 0.809017
v 0.543445 0.462056 0.747988
v 0.000000 -0.462056 1.000000
v -0.000000 0.462056 0.924564
v -0.587785 -0.462056 0.809017
v -0.543445 0.462056 0.747988
v -0.951057 -0.462056 0.309017
v -0.879312 0.462056 0.285706
v -0.951057 -0.462056 -0.309017
v -0.879312 0.462056 -0.285706
v -0.587785 -0.462056 -0.809017
v -0.543445 0.462056 -0.747988
v 0.000000 -0.804214 -0.899377
v 0.528641 -0.804214 -0.727612
v 0.855359 -0.804214 -0.277923
v 0.855359 -0.804214 0.277923
v 0.528641 -0.804214 0.727612
v 0.000000 -0.804214 0.899377
v -0.528641 -0.804214 0.727612
v -0.855359 -0.804214 0.277923
v -0.855359 -0.804214 -0.277923
v -0.528641 -0.804214 -0.727612
v -0.000000 -1.033874 -0.564590
v 0.331858 -1.033874 -0.456763
v 0.536957 -1.033874 -0.174468
v 0.536957 -1.033874 0.174468
v 0.331858 -1.033874 0.456763
v -0.000000 -1.033874 0.564590
v -0.331858 -1.033874 0.456763
v -0.536957 -1.033874 0.174468
v -0.536957 -1.033874 -0.174468
v -0.331858 -1.033874 -0.456763
vt 1.000000 1.000000
vt 0.900000 0.500000
vt 1.000000 0.500000
vt 0.900000 1.000000
vt 0.800000 0.500000
vt 0.700000 1.000000
vt 0.700000 0.500000
vt 0.600000 0.500000
vt 0.600000 1.000000
vt 0.500000 0.500000
vt 0.500000 1.000000
vt 0.400000 0.500000
vt 0.400000 1.000000
vt 0.300000 0.500000
vt 0.200000 1.000000
vt 0.200000 0.500000
vt 0.300000 1.000000
vt 0.300000 1.000000
vt 0.100000 0.500000
vt 0.100000 1.000000
vt -0.000000 0.500000
vt 0.700000 0.500000
vt 0.500000 0.500000
vt 0.600000 0.500000
vt 0.600000 0.500000
vt 1.000000 0.500000
vt 0.800000 0.500000
vt 0.900000 0.500000
vt 0.100000 0.500000
vt 0.200000 0.500000
vt 0.300000 0.500000
vt 0.400000 0.500000
vt 0.750000 0.010000
vt 0.521746 0.175836
vt 0.608932 0.444164
vt 0.900000 0.500000
vt 0.200000 0.500000
vt 0.500000 0.500000
vt 0.700000 0.500000
vt 0.800000 0.500000
vt -0.000000 0.500000
vt 0.100000 0.500000
vt 0.400000 0.500000
vt 1.000000 0.500000
vt 0.300000 0.500000
vt 0.900000 1.000000
vt 0.800000 1.000000
vt 0.800000 1.000000
vt 0.400000 1.000000
vt 0.500000 1.000000
vt 0.600000 1.000000
vt 0.800000 1.000000
vt 0.700000 1.000000
vt -0.000000 1.000000
vt -0.000000 1.000000
vt 0.100000 1.000000
vt 0.200000 1.000000
vt 0.500000 1.000000
vt 0.400000 1.000000
vt 0.400000 1.000000
vt 0.100000 1.000000
vt 0.700000 1.000000
vt -0.000000 1.000000
vt 0.300000 1.000000
vt 0.600000 1.000000
vt 1.000000 1.000000
vt 0.900000 1.000000
vt 0.200000 1.000000
vt 0.700000 1.000000
vt -0.000000 1.000000
vt 0.300000 1.000000
vt 0.600000 1.000000
vt 0.900000 1.000000
vt 0.200000 1.000000
vt 0.500000 1.000000
vt 0.800000 1.000000
vt 0.100000 1.000000
vt 0.700000 1.000000
vt -0.000000 1.000000
vt 0.300000 1.000000
vt 0.600000 1.000000
vt 1.000000 1.000000
vt 0.900000 1.000000
vt 0.200000 1.000000
vt 0.500000 1.000000
vt 0.800000 1.000000
vt 0.100000 1.000000
vt 0.400000 1.000000
vt 0.900000 0.500000
vt 1.000000 1.000000
vt 1.000000 0.500000
vt 0.800000 0.500000
vt 0.900000 1.000000
vt 0.700000 0.500000
vt 0.800000 1.000000
vt 0.600000 0.500000
vt 0.700000 1.000000
vt 0.500000 1.000000
vt 0.600000 1.000000
vt 0.400000 0.500000
vt 0.500000 0.500000
vt 0.300000 0.500000
vt 0.400000 1.000000
vt 0.200000 0.500000
vt 0.300000 1.000000
vt 0.100000 0.500000
vt 0.200000 1.000000
vt -0.000000 1.000000
vt 0.100000 1.000000
vt 0.700000 0.500000
vt 0.600000 0.500000
vt 0.500000 0.500000
vt 0.600000 0.500000
vt 1.000000 0.500000
vt 0.800000 0.500000
vt 0.900000 0.500000
vt 0.100000 0.500000
vt -0.000000 0.500000
vt 0.200000 0.500000
vt 0.300000 0.500000
vt 0.400000 0.500000
vt 0.750000 0.010000
vt 0.978254 0.175836
vt 0.891068 0.444164
vt 0.900000 0.500000
vt 0.100000 0.500000
vt 0.500000 0.500000
vt 0.800000 0.500000
vt -0.000000 0.500000
vt 0.400000 0.500000
vt 1.000000 0.500000
vt 0.300000 0.500000
vt 0.750000 0.490000
vt 0.891068 0.444164
vt 0.978254 0.324164
vt 0.978254 0.175836
vt 0.891068 0.055836
vt 0.608932 0.055836
vt 0.521746 0.324164
vt -0.000000 0.500000
vt 1.000000 1.000000
vt 1.000000 1.000000
vt 0.750000 0.490000
vt 0.608932 0.444164
vt 0.521746 0.324164
vt 0.521746 0.175836
vt 0.608932 0.055836
vt 0.891068 0.055836
vt 0.978254 0.324164
vt 0.200000 0.500000
vt 0.700000 0.500000
vt -0.000000 0.500000
vn -0.0000 -0.0194 -0.9998
vn 0.5849 -0.0986 -0.8051
vn 0.0000 -0.0986 -0.9951
vn 0.5877 -0.0194 -0.8089
vn 0.9464 -0.0986 -0.3075
vn 0.9509 -0.0194 0.3090
vn 0.9464 -0.0986 0.3075
vn 0.5849 -0.0986 0.8051
vn 0.5877 -0.0194 0.8089
vn -0.0000 -0.0986 0.9951
vn 0.0000 -0.0194 0.9998
vn -0.5849 -0.0986 0.8051
vn -0.5877 -0.0194 0.8089
vn -0.9464 -0.0986 0.3075
vn -0.9509 -0.0194 -0.3090
vn -0.9464 -0.0986 -0.3075
vn -0.8847 -0.3671 0.2874
vn -0.9509 -0.0194 0.3090
vn -0.5849 -0.0986 -0.8051
vn -0.5877 -0.0194 -0.8089
vn 0.7894 -0.5578 0.2565
vn -0.0000 -0.5578 0.8300
vn 0.2046 -0.9375 0.2816
vn 0.4878 -0.5578 0.6715
vn 0.0000 -0.5578 -0.8300
vn 0.7894 -0.5578 -0.2565
vn 0.4878 -0.5578 -0.6715
vn -0.4878 -0.5578 -0.6715
vn -0.7894 -0.5578 -0.2565
vn -0.7894 -0.5578 0.2565
vn -0.4878 -0.5578 0.6715
vn 0.0000 -0.9375 0.3481
vn -0.3311 -0.9375 0.1076
vn -0.2046 -0.9375 -0.2816
vn 0.2046 -0.9375 -0.2816
vn -0.3311 -0.9375 -0.1076
vn 0.3311 -0.9375 0.1076
vn 0.3311 -0.9375 -0.1076
vn -0.2046 -0.9375 0.2816
vn -0.0000 -0.9375 -0.3481
vn 0.5468 -0.3671 -0.7525
vn 0.7864 -0.5624 -0.2555
vn 0.8847 -0.3671 -0.2874
vn -0.5468 -0.3671 0.7525
vn -0.0000 -0.3671 0.9302
vn 0.5468 -0.3671 0.7525
vn 0.9509 -0.0194 -0.3090
vn 0.8847 -0.3671 0.2874
vn 0.0000 -0.3671 -0.9302
vn -0.5468 -0.3671 -0.7525
vn -0.8847 -0.3671 -0.2874
vn 0.0000 1.0000 0.0000
vn -0.4860 -0.5624 -0.6690
vn 0.0000 -0.5624 0.8269
vn -0.4860 -0.5624 0.6690
vn 0.7864 -0.5624 0.2555
vn 0.0000 -0.5624 -0.8269
vn -0.7864 -0.5624 0.2555
vn 0.4860 -0.5624 0.6690
vn 0.4860 -0.5624 -0.6690
vn -0.7864 -0.5624 -0.2555
vn -0.7809 0.5708 0.2537
vn -0.7809 0.5708 -0.2537
vn 0.4826 0.5708 0.6643
vn -0.0000 0.5708 0.8211
vn 0.4826 0.5708 -0.6643
vn 0.7809 0.5708 -0.2537
vn -0.4826 0.5708 -0.6643
vn -0.4826 0.5708 0.6643
vn 0.7809 0.5708 0.2537
vn 0.0000 0.5708 -0.8211
vn -0.5849 0.0986 0.8051
vn 0.0000 -0.0814 0.9967
vn -0.0000 0.0986 0.9951
vn -0.9464 0.0986 0.3075
vn -0.5858 -0.0814 0.8063
vn -0.9464 0.0986 -0.3075
vn -0.9479 -0.0814 0.3080
vn -0.5849 0.0986 -0.8051
vn -0.9479 -0.0814 -0.3080
vn 0.0000 -0.0814 -0.9967
vn -0.5858 -0.0814 -0.8063
vn 0.5849 0.0986 -0.8051
vn 0.0000 0.0986 -0.9951
vn 0.9464 0.0986 -0.3075
vn 0.5858 -0.0814 -0.8063
vn 0.9464 0.0986 0.3075
vn 0.9479 -0.0814 -0.3080
vn 0.5849 0.0986 0.8051
vn 0.9479 -0.0814 0.3080
vn 0.5858 -0.0814 0.8063
vn -0.7894 0.5578 -0.2565
vn -0.2046 0.9375 -0.2816
vn 0.0000 0.5578 -0.8300
vn -0.4878 0.5578 -0.6715
vn -0.0000 0.5578 0.8300
vn -0.7894 0.5578 0.2565
vn -0.4878 0.5578 0.6715
vn 0.4878 0.5578 0.6715
vn 0.7894 0.5578 0.2565
vn 0.7894 0.5578 -0.2565
vn 0.4878 0.5578 -0.6715
vn -0.0000 0.9375 -0.3481
vn -0.3311 0.9375 -0.1076
vn -0.2046 0.9375 0.2816
vn 0.2046 0.9375 0.2816
vn -0.3311 0.9375 0.1076
vn 0.2046 0.9375 -0.2816
vn 0.0000 0.9375 0.3481
vn 0.3311 0.9375 -0.1076
vn 0.3311 0.9375 0.1076
s 1
f 2/1/1 3/2/2 1/3/3
f 4/4/4 5/5/5 3/2/2
f 5/5/5 8/6/6 7/7/7
f 8/6/6 9/8/8 7/7/7
f 10/9/9 11/10/10 9/8/8
f 12/11/11 13/12/12 11/10/10
f 14/13/13 15/14/14 13/12/12
f 15/14/14 18/15/15 17/16/16
f 14/13/13 48/17/17 16/18/18
f 18/15/15 19/19/19 17/16/16
f 20/20/20 1/21/3 19/19/19
f 9/8/8 24/22/21 7/7/7
f 26/23/22 35/24/23 25/25/24
f 3/2/2 21/26/25 1/3/3
f 7/7/7 23/27/26 5/5/5
f 5/5/5 22/28/27 3/2/2
f 1/21/3 30/29/28 19/19/19
f 19/19/19 29/30/29 17/16/16
f 17/16/16 28/31/30 15/14/14
f 15/14/14 27/32/31 13/12/12
f 13/12/12 26/23/22 11/10/10
f 11/10/10 25/25/24 9/8/8
f 36/33/32 38/34/33 40/35/34
f 23/27/26 32/36/35 22/28/27
f 30/29/28 39/37/36 29/30/29
f 27/32/31 36/38/32 26/23/22
f 23/27/26 34/39/37 33/40/38
f 21/41/25 40/42/34 30/29/28
f 28/31/30 37/43/39 27/32/31
f 25/25/24 34/39/37 24/22/21
f 22/28/27 31/44/40 21/26/25
f 28/31/30 39/37/36 38/45/33
f 41/46/41 53/47/42 43/48/43
f 12/11/11 47/49/44 14/13/13
f 10/9/9 46/50/45 12/11/11
f 8/6/6 45/51/46 10/9/9
f 2/1/1 41/46/41 4/4/4
f 6/52/47 44/53/48 8/6/6
f 4/4/4 43/48/43 6/52/47
f 20/20/20 42/54/49 2/55/1
f 18/15/15 50/56/50 20/20/20
f 16/18/18 49/57/51 18/15/15
f 56/58/52 67/59/52 57/60/52
f 49/57/51 60/61/53 50/56/50
f 47/49/44 56/58/54 57/60/55
f 43/48/43 54/62/56 44/53/48
f 50/56/50 52/63/57 42/54/49
f 47/49/44 58/64/58 48/17/17
f 44/53/48 55/65/59 45/51/46
f 41/46/41 52/66/57 51/67/60
f 48/17/17 59/68/61 49/57/51
f 45/51/46 56/58/54 46/50/45
f 53/47/52 64/69/52 54/62/52
f 60/61/52 62/70/52 52/63/52
f 57/60/52 68/71/52 58/64/52
f 54/62/52 65/72/52 55/65/52
f 52/66/52 61/73/52 51/67/52
f 58/64/52 69/74/52 59/68/52
f 56/58/52 65/72/52 66/75/52
f 51/67/52 63/76/52 53/47/52
f 60/61/52 69/74/52 70/77/52
f 63/76/62 74/78/63 64/69/63
f 70/77/64 72/79/65 62/70/65
f 67/59/66 78/80/67 68/71/67
f 64/69/63 75/81/68 65/72/68
f 62/82/65 71/83/69 61/73/69
f 68/71/67 79/84/70 69/74/70
f 65/72/68 76/85/71 66/75/71
f 61/73/69 73/86/62 63/76/62
f 70/77/64 79/84/70 80/87/64
f 67/59/66 76/85/71 77/88/66
f 83/89/72 82/90/73 81/91/74
f 85/92/75 84/93/76 83/89/72
f 87/94/77 86/95/78 85/92/75
f 89/96/79 88/97/80 87/94/77
f 89/96/79 92/98/81 90/99/82
f 93/100/83 92/98/81 91/101/84
f 95/102/85 94/103/86 93/100/83
f 97/104/87 96/105/88 95/102/85
f 99/106/89 98/107/90 97/104/87
f 99/106/89 82/108/73 100/109/91
f 104/110/92 89/96/79 87/94/77
f 115/111/93 106/112/94 105/113/95
f 101/114/96 83/89/72 81/91/74
f 103/115/97 87/94/77 85/92/75
f 102/116/98 85/92/75 83/89/72
f 110/117/99 81/118/74 99/106/89
f 109/119/100 99/106/89 97/104/87
f 108/120/101 97/104/87 95/102/85
f 107/121/102 95/102/85 93/100/83
f 106/112/94 93/100/83 91/101/84
f 105/113/95 91/101/84 89/96/79
f 116/122/103 114/123/104 112/124/105
f 112/125/105 103/115/97 102/116/98
f 109/119/100 120/126/106 110/117/99
f 116/127/103 107/121/102 106/112/94
f 113/128/107 104/110/92 103/115/97
f 120/126/106 101/129/96 110/117/99
f 117/130/108 108/120/101 107/121/102
f 104/110/92 115/111/93 105/113/95
f 111/131/109 102/116/98 101/114/96
f 118/132/110 109/119/100 108/120/101
f 2/1/1 4/4/4 3/2/2
f 4/4/4 6/52/47 5/5/5
f 5/5/5 6/52/47 8/6/6
f 8/6/6 10/9/9 9/8/8
f 10/9/9 12/11/11 11/10/10
f 12/11/11 14/13/13 13/12/12
f 14/13/13 16/18/18 15/14/14
f 15/14/14 16/18/18 18/15/15
f 14/13/13 47/49/44 48/17/17
f 18/15/15 20/20/20 19/19/19
f 20/20/20 2/55/1 1/21/3
f 9/8/8 25/25/24 24/22/21
f 26/23/22 36/38/32 35/24/23
f 3/2/2 22/28/27 21/26/25
f 7/7/7 24/22/21 23/27/26
f 5/5/5 23/27/26 22/28/27
f 1/21/3 21/41/25 30/29/28
f 19/19/19 30/29/28 29/30/29
f 17/16/16 29/30/29 28/31/30
f 15/14/14 28/31/30 27/32/31
f 13/12/12 27/32/31 26/23/22
f 11/10/10 26/23/22 25/25/24
f 40/35/34 31/133/40 32/134/35
f 32/134/35 33/135/38 34/136/37
f 34/136/37 35/137/23 36/33/32
f 36/33/32 37/138/39 38/34/33
f 38/34/33 39/139/36 40/35/34
f 40/35/34 32/134/35 34/136/37
f 34/136/37 36/33/32 40/35/34
f 23/27/26 33/40/38 32/36/35
f 30/29/28 40/42/34 39/37/36
f 27/32/31 37/43/39 36/38/32
f 23/27/26 24/22/21 34/39/37
f 21/41/25 31/140/40 40/42/34
f 28/31/30 38/45/33 37/43/39
f 25/25/24 35/24/23 34/39/37
f 22/28/27 32/36/35 31/44/40
f 28/31/30 29/30/29 39/37/36
f 41/46/41 51/67/60 53/47/42
f 12/11/11 46/50/45 47/49/44
f 10/9/9 45/51/46 46/50/45
f 8/6/6 44/53/48 45/51/46
f 2/1/1 42/141/49 41/46/41
f 6/52/47 43/48/43 44/53/48
f 4/4/4 41/46/41 43/48/43
f 20/20/20 50/56/50 42/54/49
f 18/15/15 49/57/51 50/56/50
f 16/18/18 48/17/17 49/57/51
f 56/58/52 66/75/52 67/59/52
f 49/57/51 59/68/61 60/61/53
f 47/49/44 46/50/45 56/58/54
f 43/48/43 53/47/42 54/62/56
f 50/56/50 60/61/53 52/63/57
f 47/49/44 57/60/55 58/64/58
f 44/53/48 54/62/56 55/65/59
f 41/46/41 42/141/49 52/66/57
f 48/17/17 58/64/58 59/68/61
f 45/51/46 55/65/59 56/58/54
f 53/47/52 63/76/52 64/69/52
f 60/61/52 70/77/52 62/70/52
f 57/60/52 67/59/52 68/71/52
f 54/62/52 64/69/52 65/72/52
f 52/66/52 62/82/52 61/73/52
f 58/64/52 68/71/52 69/74/52
f 56/58/52 55/65/52 65/72/52
f 51/67/52 61/73/52 63/76/52
f 60/61/52 59/68/52 69/74/52
f 63/76/62 73/86/62 74/78/63
f 70/77/64 80/87/64 72/79/65
f 67/59/66 77/88/66 78/80/67
f 64/69/63 74/78/63 75/81/68
f 62/82/65 72/142/65 71/83/69
f 68/71/67 78/80/67 79/84/70
f 65/72/68 75/81/68 76/85/71
f 61/73/69 71/83/69 73/86/62
f 70/77/64 69/74/70 79/84/70
f 67/59/66 66/75/71 76/85/71
f 83/89/72 84/93/76 82/90/73
f 85/92/75 86/95/78 84/93/76
f 87/94/77 88/97/80 86/95/78
f 89/96/79 90/99/82 88/97/80
f 89/96/79 91/101/84 92/98/81
f 93/100/83 94/103/86 92/98/81
f 95/102/85 96/105/88 94/103/86
f 97/104/87 98/107/90 96/105/88
f 99/106/89 100/109/91 98/107/90
f 99/106/89 81/118/74 82/108/73
f 104/110/92 105/113/95 89/96/79
f 115/111/93 116/127/103 106/112/94
f 101/114/96 102/116/98 83/89/72
f 103/115/97 104/110/92 87/94/77
f 102/116/98 103/115/97 85/92/75
f 110/117/99 101/129/96 81/118/74
f 109/119/100 110/117/99 99/106/89
f 108/120/101 109/119/100 97/104/87
f 107/121/102 108/120/101 95/102/85
f 106/112/94 107/121/102 93/100/83
f 105/113/95 106/112/94 91/101/84
f 112/124/105 111/143/109 120/144/106
f 120/144/106 119/145/111 118/146/110
f 118/146/110 117/147/108 116/122/103
f 116/122/103 115/148/93 114/123/104
f 114/123/104 113/149/107 112/124/105
f 112/124/105 120/144/106 118/146/110
f 118/146/110 116/122/103 112/124/105
f 112/125/105 113/128/107 103/115/97
f 109/119/100 119/150/111 120/126/106
f 116/127/103 117/130/108 107/121/102
f 113/128/107 114/151/104 104/110/92
f 120/126/106 111/152/109 101/129/96
f 117/130/108 118/132/110 108/120/101
f 104/110/92 114/151/104 115/111/93
f 111/131/109 112/125/105 102/116/98
f 118/132/110 119/150/111 109/119/100
