# Blender v3.4.1 OBJ File: 'buildings.blend'
# www.blender.org
o Runway_Platform_Cube.010
v -0.167943 0.027437 1.074478
v -0.167943 0.086049 1.074478
v -0.416905 -0.064452 -0.573834
v -0.416905 0.086049 -0.573834
v 0.167943 0.027437 1.074478
v 0.167943 0.086049 1.074478
v 0.416905 -0.064452 -0.573834
v 0.416905 0.086049 -0.573834
v -0.541942 0.087671 -0.873564
v -0.541942 -0.093002 -0.873564
v 0.541942 -0.093002 -0.873564
v 0.541942 0.087671 -0.873564
v 0.605366 0.081456 -0.994658
v 0.605366 -0.120815 -0.994658
v -0.605366 -0.120815 -0.994658
v -0.605366 0.081456 -0.994658
v -0.154928 0.031185 1.127507
v -0.154928 0.085889 1.127507
v 0.154928 0.085889 1.127507
v 0.154928 0.031185 1.127507
v -0.139712 0.034111 1.154578
v -0.139712 0.085889 1.154578
v 0.139712 0.085889 1.154578
v 0.139712 0.034111 1.154578
v -0.108571 0.037675 1.172418
v -0.108571 0.085889 1.172418
v 0.108571 0.085889 1.172418
v 0.108571 0.037675 1.172418
vt 0.375000 0.000000
vt 0.625000 0.250000
vt 0.375000 0.250000
vt 0.375000 0.500000
vt 0.625000 0.500000
vt 0.625000 0.500000
vt 0.375000 0.750000
vt 0.875000 0.750000
vt 0.625000 0.750000
vt 0.625000 0.750000
vt 0.125000 0.750000
vt 0.125000 0.500000
vt 0.875000 0.500000
vt 0.375000 0.250000
vt 0.625000 0.250000
vt 0.375000 0.250000
vt 0.375000 0.500000
vt 0.875000 0.500000
vt 0.625000 0.250000
vt 0.125000 0.500000
vt 0.375000 0.500000
vt 0.625000 0.500000
vt 0.875000 0.500000
vt 0.375000 0.750000
vt 0.125000 0.750000
vt 0.125000 0.750000
vt 0.625000 0.000000
vt 0.375000 0.000000
vt 0.625000 0.000000
vt 0.375000 0.750000
vt 0.125000 0.750000
vt 0.375000 0.000000
vt 0.625000 0.000000
vt 0.875000 0.750000
vt 0.625000 0.750000
vt 0.625000 0.750000
vt 0.375000 1.000000
vt 0.375000 0.750000
vt 0.375000 0.000000
vt 0.625000 0.000000
vt 0.875000 0.750000
vt 0.125000 0.500000
vt 0.625000 1.000000
vt 0.875000 0.750000
vn -0.9813 0.0000 0.1923
vn -0.9630 0.0000 0.2694
vn -0.9616 0.0000 0.2745
vn 0.9616 0.0000 0.2745
vn 0.9055 0.0000 0.4244
vn 0.9630 0.0000 0.2694
vn 0.9813 0.0000 0.1923
vn 0.0000 1.0000 0.0013
vn 0.0000 1.0000 0.0019
vn 0.0000 -0.9969 0.0784
vn 0.0000 -0.9981 0.0621
vn 0.0000 1.0000 0.0031
vn -0.9036 0.0000 0.4284
vn -0.8859 0.0000 0.4640
vn 0.0000 -0.9842 0.1770
vn 0.0000 0.9995 -0.0306
vn -0.9055 0.0000 0.4244
vn 0.0000 -0.9746 0.2238
vn 0.9036 0.0000 0.4284
vn 0.8859 0.0000 0.4640
vn 0.0000 0.0000 -1.0000
vn 0.0000 0.9987 -0.0513
vn 0.0000 -0.9965 0.0842
vn 0.0000 -0.9921 0.1255
vn 0.9810 0.0000 0.1940
vn 0.9326 0.0000 0.3609
vn -0.9810 0.0000 0.1940
vn -0.9326 0.0000 0.3609
vn -0.9300 0.0000 0.3674
vn 0.0000 -0.9806 0.1959
vn -0.8717 0.0000 0.4900
vn 0.0000 1.0000 0.0000
vn 0.9300 0.0000 0.3674
vn 0.8717 0.0000 0.4900
vn 0.2572 0.0000 0.9664
vn -0.2650 0.0000 0.9642
vn 0.2650 0.0000 0.9642
vn -0.4971 0.0000 0.8677
vn -0.2572 0.0000 0.9664
vn 0.4971 0.0000 0.8677
s 1
f 1/1/1 4/2/2 3/3/3
f 7/4/4 12/5/5 8/6/6
f 8/6/6 5/7/7 7/4/4
f 2/8/8 19/9/9 6/10/8
f 7/4/10 1/11/11 3/12/10
f 4/13/12 6/10/8 8/6/12
f 10/14/13 16/15/14 15/16/14
f 3/12/10 11/17/15 7/4/10
f 8/6/12 9/18/16 4/13/12
f 3/3/3 9/19/17 10/14/13
f 10/20/15 14/21/18 11/17/15
f 11/17/19 13/22/20 12/5/5
f 15/16/21 13/22/21 14/21/21
f 12/5/16 16/23/22 9/18/16
f 20/24/23 21/25/24 17/26/23
f 6/10/25 20/24/26 5/7/7
f 2/27/27 17/28/28 18/29/29
f 5/7/11 17/26/23 1/11/11
f 24/30/24 25/31/30 21/25/24
f 18/29/29 21/32/31 22/33/31
f 19/9/9 22/34/32 23/35/32
f 19/9/33 24/30/34 20/24/26
f 27/36/35 25/37/36 28/38/37
f 22/33/38 25/39/36 26/40/39
f 22/34/32 27/36/32 23/35/32
f 23/35/40 28/38/37 24/30/40
f 1/1/1 2/27/27 4/2/2
f 7/4/4 11/17/19 12/5/5
f 8/6/6 6/10/25 5/7/7
f 2/8/8 18/41/9 19/9/9
f 7/4/10 5/7/11 1/11/11
f 4/13/12 2/8/8 6/10/8
f 10/14/13 9/19/17 16/15/14
f 3/12/10 10/20/15 11/17/15
f 8/6/12 12/5/16 9/18/16
f 3/3/3 4/2/2 9/19/17
f 10/20/15 15/42/18 14/21/18
f 11/17/19 14/21/20 13/22/20
f 15/16/21 16/23/21 13/22/21
f 12/5/16 13/22/22 16/23/22
f 20/24/23 24/30/24 21/25/24
f 6/10/25 19/9/33 20/24/26
f 2/27/27 1/1/1 17/28/28
f 5/7/11 20/24/23 17/26/23
f 24/30/24 28/38/30 25/31/30
f 18/29/29 17/28/28 21/32/31
f 19/9/9 18/41/9 22/34/32
f 19/9/33 23/35/34 24/30/34
f 27/36/35 26/43/39 25/37/36
f 22/33/38 21/32/38 25/39/36
f 22/34/32 26/44/32 27/36/32
f 23/35/40 27/36/35 28/38/37
o Runway_Base_Cube.023
v -0.048139 -0.094263 1.101065
v -0.048139 -0.015221 1.101065
v -0.139685 -0.135722 0.237486
v -0.139685 -0.010850 0.237486
v 0.048139 -0.094263 1.101065
v 0.048139 -0.015221 1.101065
v 0.139685 -0.135722 0.237486
v 0.139685 -0.010850 0.237486
v 0.105178 -0.202547 0.237486
v -0.105178 -0.202547 0.237486
v 0.056922 -0.264989 0.237486
v -0.000000 -0.286915 0.237486
v -0.056922 -0.264989 0.237486
v -0.036247 -0.117293 1.101065
v 0.036247 -0.117293 1.101065
v -0.019617 -0.138812 1.101065
v -0.000000 -0.146368 1.101065
v 0.019617 -0.138812 1.101065
v -0.197786 -0.010291 -0.163104
v -0.197786 -0.138774 -0.163104
v 0.197786 -0.010291 -0.163104
v 0.197786 -0.138774 -0.163104
v 0.080598 -0.321809 -0.163104
v 0.148926 -0.233395 -0.163104
v -0.000000 -0.352856 -0.163104
v -0.080598 -0.321809 -0.163104
v -0.148926 -0.233395 -0.163104
v -0.164401 -0.251431 -0.756173
v -0.088973 -0.349032 -0.756173
v -0.000000 -0.383306 -0.756173
v 0.164401 -0.251431 -0.756173
v 0.088973 -0.349032 -0.756173
v 0.218338 -0.146978 -0.756173
v 0.218338 -0.005144 -0.756173
v -0.218338 -0.146978 -0.756173
v -0.218338 -0.005144 -0.756173
v -0.218338 -0.005144 -0.979088
v 0.218338 -0.005144 -0.979088
v 0.088973 -0.349032 -0.979088
v -0.000000 -0.383306 -0.979088
v -0.088973 -0.349032 -0.979088
v -0.164401 -0.251431 -0.979088
v -0.218338 -0.146978 -0.979088
v 0.164401 -0.251431 -0.979088
v 0.218338 -0.146978 -0.979088
vt 0.375000 0.000000
vt 0.625000 0.250000
vt 0.375000 0.250000
vt 0.375000 0.500000
vt 0.344121 0.750000
vt 0.344121 0.500000
vt 0.625000 0.500000
vt 0.375000 0.750000
vt 0.378606 0.824062
vt 0.375000 0.780879
vt 0.378606 0.925938
vt 0.875000 0.500000
vt 0.625000 0.750000
vt 0.186916 0.500000
vt 0.155879 0.500000
vt 0.186916 0.500000
vt 0.313084 0.750000
vt 0.313084 0.500000
vt 0.250000 0.750000
vt 0.250000 0.500000
vt 0.186916 0.750000
vt 0.155879 0.500000
vt 0.125000 0.500000
vt 0.155879 0.750000
vt 0.125000 0.750000
vt 0.313084 0.500000
vt 0.344121 0.500000
vt 0.344121 0.500000
vt 0.625000 0.250000
vt 0.375000 0.250000
vt 0.250000 0.500000
vt 0.875000 0.500000
vt 0.375000 0.500000
vt 0.625000 0.500000
vt 0.375000 0.500000
vt 0.625000 0.500000
vt 0.625000 0.500000
vt 0.313084 0.500000
vt 0.155879 0.500000
vt 0.186916 0.500000
vt 0.125000 0.500000
vt 0.250000 0.500000
vt 0.313084 0.500000
vt 0.875000 0.500000
vt 0.875000 0.500000
vt 0.155879 0.500000
vt 0.250000 0.500000
vt 0.344121 0.500000
vt 0.186916 0.500000
vt 0.625000 0.250000
vt 0.375000 0.250000
vt 0.625000 0.250000
vt 0.375000 0.250000
vt 0.375000 0.500000
vt 0.625000 0.000000
vt 0.375000 1.000000
vt 0.625000 1.000000
vt 0.375000 0.969121
vt 0.382083 0.875000
vt 0.875000 0.750000
vt 0.125000 0.500000
vt 0.125000 0.500000
vn -0.9662 -0.2314 0.1135
vn -0.9922 0.0000 0.1245
vn -0.9629 -0.2377 0.1277
vn 0.9629 -0.2377 0.1277
vn 0.8386 -0.5316 0.1194
vn 0.8361 -0.5339 0.1260
vn 0.9922 0.0000 0.1245
vn 0.9662 -0.2314 0.1135
vn 0.0000 0.0000 1.0000
vn 0.0000 1.0000 0.0031
vn 0.0000 1.0000 0.0051
vn -0.5905 -0.7940 0.1446
vn -0.8404 -0.5353 0.0852
vn -0.5934 -0.7992 0.0957
vn 0.5988 -0.7884 0.1411
vn 0.5905 -0.7940 0.1446
vn 0.3554 -0.9226 0.1501
vn 0.3553 -0.9225 0.1510
vn -0.3554 -0.9226 0.1502
vn -0.3553 -0.9225 0.1510
vn -0.5988 -0.7884 0.1411
vn -0.8361 -0.5339 0.1260
vn -0.8386 -0.5316 0.1194
vn 0.5934 -0.7992 0.0957
vn 0.8430 -0.5375 0.0191
vn 0.8404 -0.5353 0.0852
vn -0.9960 0.0000 0.0890
vn -0.9685 -0.2329 0.0886
vn -0.3577 -0.9286 0.0987
vn 0.0000 1.0000 0.0053
vn 0.9685 -0.2329 0.0886
vn 0.9960 0.0000 0.0890
vn 0.9715 -0.2364 0.0184
vn 1.0000 0.0000 0.0000
vn 0.9999 0.0000 0.0173
vn 0.3577 -0.9286 0.0987
vn 0.5962 -0.8025 0.0225
vn -0.8430 -0.5375 0.0191
vn -0.5962 -0.8025 0.0225
vn -0.9715 -0.2364 0.0184
vn -0.3594 -0.9329 0.0238
vn 0.3594 -0.9329 0.0238
vn 0.5974 -0.8019 0.0000
vn 0.0000 1.0000 0.0043
vn 0.0000 1.0000 -0.0000
vn -0.8434 -0.5374 0.0000
vn -0.3595 -0.9332 0.0000
vn 0.8434 -0.5374 0.0000
vn 0.0000 0.0000 -1.0000
vn -0.5974 -0.8019 0.0000
vn -0.9999 0.0000 0.0173
vn -1.0000 0.0000 0.0000
vn -0.9717 -0.2361 0.0000
vn 0.9717 -0.2361 0.0000
vn -0.9944 0.0000 0.1054
vn 0.9944 0.0000 0.1054
vn 0.3595 -0.9332 0.0000
s 1
f 29/45/41 32/46/42 31/47/43
f 35/48/44 43/49/45 37/50/46
f 36/51/47 33/52/48 35/48/44
f 46/53/49 43/54/49 44/55/49
f 32/56/50 34/57/51 36/51/50
f 41/58/52 55/59/53 54/60/54
f 37/50/46 46/61/55 39/62/56
f 39/62/56 45/63/57 40/64/58
f 45/63/59 41/58/52 40/64/60
f 44/65/61 38/66/62 41/58/52
f 31/67/43 42/68/63 29/69/41
f 51/70/64 59/71/65 52/72/66
f 31/47/43 47/73/67 48/74/68
f 39/62/56 52/72/66 37/50/46
f 40/64/60 54/60/54 53/75/69
f 40/64/58 51/70/64 39/62/56
f 36/51/50 47/76/70 32/56/50
f 35/48/44 52/72/66 50/77/71
f 35/48/44 49/78/72 36/51/47
f 31/67/43 55/59/53 38/66/62
f 61/79/73 66/80/74 62/81/75
f 50/77/71 62/81/75 49/78/72
f 53/75/76 60/82/77 51/70/64
f 54/60/54 56/83/78 57/84/79
f 52/72/66 61/79/73 50/77/71
f 55/59/53 63/85/80 56/83/78
f 53/75/69 57/84/79 58/86/81
f 58/86/82 67/87/83 60/82/77
f 49/78/70 64/88/84 47/76/70
f 62/81/84 65/89/85 64/88/84
f 63/85/80 70/90/86 56/83/78
f 57/84/79 68/91/87 58/86/81
f 59/71/65 67/87/83 72/92/88
f 69/93/89 70/90/89 67/87/89
f 56/83/78 69/93/90 57/84/79
f 48/74/68 64/94/91 63/95/80
f 63/95/80 65/96/92 71/97/93
f 59/71/65 73/98/94 61/79/73
f 29/45/41 30/99/95 32/46/42
f 35/48/44 33/52/48 43/49/45
f 36/51/47 34/57/96 33/52/48
f 43/54/49 33/52/49 29/100/49
f 33/52/49 34/57/49 29/100/49
f 34/57/49 30/101/49 29/100/49
f 29/100/49 42/102/49 43/54/49
f 42/102/49 44/55/49 43/54/49
f 44/55/49 45/103/49 46/53/49
f 32/56/50 30/104/51 34/57/51
f 41/58/52 38/66/62 55/59/53
f 37/50/46 43/49/45 46/61/55
f 39/62/56 46/61/55 45/63/57
f 45/63/59 44/65/61 41/58/52
f 44/65/61 42/68/63 38/66/62
f 31/67/43 38/66/62 42/68/63
f 51/70/64 60/82/77 59/71/65
f 31/47/43 32/46/42 47/73/67
f 39/62/56 51/70/64 52/72/66
f 40/64/60 41/58/52 54/60/54
f 40/64/58 53/75/76 51/70/64
f 36/51/50 49/78/70 47/76/70
f 35/48/44 37/50/46 52/72/66
f 35/48/44 50/77/71 49/78/72
f 31/67/43 48/105/68 55/59/53
f 61/79/73 73/98/94 66/80/74
f 50/77/71 61/79/73 62/81/75
f 53/75/76 58/86/82 60/82/77
f 54/60/54 55/59/53 56/83/78
f 52/72/66 59/71/65 61/79/73
f 55/59/53 48/105/68 63/85/80
f 53/75/69 54/60/54 57/84/79
f 58/86/82 68/91/97 67/87/83
f 49/78/70 62/81/84 64/88/84
f 62/81/84 66/80/85 65/89/85
f 63/85/80 71/106/93 70/90/86
f 57/84/79 69/93/90 68/91/87
f 59/71/65 60/82/77 67/87/83
f 70/90/89 71/97/89 73/98/89
f 71/97/89 65/89/89 73/98/89
f 65/89/89 66/80/89 73/98/89
f 73/98/89 72/92/89 70/90/89
f 72/92/89 67/87/89 70/90/89
f 67/87/89 68/91/89 69/93/89
f 56/83/78 70/90/86 69/93/90
f 48/74/68 47/73/67 64/94/91
f 63/95/80 64/94/91 65/96/92
f 59/71/65 72/92/88 73/98/94
