# Blender v3.4.1 OBJ File: 'environment.blend'
# www.blender.org
o Small_Boat_Cylinder.041
v 0.297180 0.142887 -0.074499
v 0.297180 0.142887 0.282867
v 0.183667 -0.013350 -0.074499
v 0.183667 -0.013350 0.282867
v -0.000000 -0.073027 -0.074499
v 0.000000 -0.073027 0.282867
v -0.183667 -0.013350 -0.074499
v -0.183667 -0.013350 0.282867
v -0.297180 0.142887 -0.074499
v -0.297180 0.142887 0.282867
v 0.266774 0.152766 0.484357
v 0.164875 0.012515 0.484357
v -0.000000 -0.041056 0.484357
v -0.164875 0.012515 0.484357
v -0.266774 0.152766 0.484357
v 0.216628 0.169059 0.650699
v 0.133884 0.055171 0.650699
v -0.000000 0.011670 0.650699
v -0.133884 0.055171 0.650699
v -0.216628 0.169059 0.650699
v 0.075415 0.135647 0.812323
v -0.000000 0.111143 0.812323
v -0.075415 0.135647 0.812323
v -0.297180 0.142887 -0.431864
v -0.183667 -0.013350 -0.431864
v -0.000000 -0.073027 -0.431864
v 0.183667 -0.013350 -0.431864
v 0.297179 0.142887 -0.431864
v -0.266774 0.152766 -0.633355
v -0.164875 0.012515 -0.633355
v -0.000000 -0.041056 -0.633355
v 0.164875 0.012515 -0.633355
v 0.266774 0.152766 -0.633355
v -0.216628 0.169060 -0.799696
v -0.133884 0.055171 -0.799697
v -0.000000 0.011670 -0.799697
v 0.133883 0.055171 -0.799697
v 0.216628 0.169060 -0.799697
v -0.178849 0.166478 -0.823881
v -0.110535 0.072452 -0.823881
v -0.000000 0.036537 -0.823881
v 0.110534 0.072452 -0.823881
v 0.178848 0.166478 -0.823881
v 0.353792 0.208211 -0.099356
v 0.353792 0.208211 0.288185
v 0.353792 -0.021697 -0.099356
v 0.353792 -0.021697 0.288185
v 0.218655 -0.207696 -0.099356
v 0.218655 -0.207696 0.288185
v -0.000000 -0.278742 -0.099356
v 0.000000 -0.278742 0.288185
v -0.218655 -0.207696 -0.099356
v -0.218655 -0.207696 0.288185
v -0.353792 -0.021697 -0.099356
v -0.353792 -0.021697 0.288185
v -0.353792 0.208211 -0.099356
v -0.353792 0.208211 0.288185
v 0.317594 0.196450 0.506690
v 0.317594 -0.009935 0.506690
v 0.196284 -0.176904 0.506690
v -0.000000 -0.240681 0.506690
v -0.196284 -0.176904 0.506690
v -0.317594 -0.009935 0.506690
v -0.317594 0.196450 0.506690
v 0.257896 0.177053 0.687077
v 0.257896 0.009462 0.687077
v 0.159388 -0.126122 0.687077
v -0.000000 -0.177910 0.687077
v -0.159388 -0.126122 0.687077
v -0.257896 0.009462 0.687077
v -0.257896 0.177053 0.687077
v 0.145269 0.140458 0.862348
v 0.145269 0.046056 0.862348
v 0.089781 -0.030316 0.862348
v -0.000000 -0.059488 0.862348
v -0.089781 -0.030316 0.862348
v -0.145269 0.046056 0.862348
v -0.145269 0.140458 0.862348
v 0.041122 0.106619 0.951717
v 0.041122 0.079896 0.951717
v 0.025415 0.058277 0.951717
v 0.000000 0.050019 0.951717
v -0.025415 0.058277 0.951717
v -0.041122 0.079896 0.951717
v -0.041122 0.106619 0.951717
v -0.353792 0.208211 -0.486897
v -0.353792 -0.021697 -0.486897
v -0.218656 -0.207696 -0.486897
v -0.000000 -0.278742 -0.486897
v 0.218655 -0.207696 -0.486897
v 0.353792 -0.021697 -0.486897
v 0.353792 0.208211 -0.486897
v -0.317594 0.196450 -0.705401
v -0.317594 -0.009935 -0.705401
v -0.196284 -0.176904 -0.705401
v -0.000000 -0.240681 -0.705401
v 0.196284 -0.176904 -0.705401
v 0.317594 -0.009935 -0.705401
v 0.317594 0.196450 -0.705401
v -0.257896 0.177053 -0.885788
v -0.257896 0.009462 -0.885788
v -0.159388 -0.126122 -0.885788
v -0.000000 -0.177910 -0.885788
v 0.159388 -0.126122 -0.885788
v 0.257896 0.009462 -0.885788
v 0.257896 0.177053 -0.885788
v -0.212919 0.006389 -0.912015
v -0.212919 0.144752 -0.912015
v -0.131591 -0.105550 -0.912015
v -0.000000 -0.148306 -0.912015
v 0.131591 -0.105550 -0.912015
v 0.212919 0.006389 -0.912015
v 0.212919 0.144752 -0.912015
v 0.086499 0.150903 0.812323
v 0.066412 0.148038 0.826045
v 0.000000 0.144637 0.842331
v -0.066412 0.148038 0.826045
v -0.086499 0.150903 0.812323
v 0.193758 0.176490 0.689770
v -0.193758 0.176490 0.689770
v -0.216628 0.180964 0.650699
v 0.216628 0.180964 0.650699
v 0.266774 0.197652 0.484357
v -0.266774 0.197652 0.484357
v -0.297180 0.208211 0.282867
v 0.297180 0.208211 0.282867
v 0.297180 0.208211 -0.074499
v -0.297180 0.208211 -0.074499
v -0.183667 -0.013350 -0.099356
v -0.000000 -0.073027 -0.099356
v -0.297180 0.142887 -0.099356
v -0.297180 0.208211 -0.099356
v 0.297180 0.142887 -0.099356
v 0.183667 -0.013350 -0.099356
v 0.297180 0.208211 -0.099356
v -0.297180 0.208211 -0.431864
v 0.297180 0.208211 -0.431865
v -0.266774 0.200328 -0.633355
v -0.288875 0.208211 -0.486897
v 0.288875 0.208211 -0.486897
v 0.266774 0.200328 -0.633355
v -0.216628 0.186310 -0.799696
v 0.216628 0.186310 -0.799697
v 0.245054 0.196450 -0.705401
v -0.178849 0.183710 -0.823881
v -0.245055 0.196450 -0.705401
v 0.178848 0.183710 -0.823881
v -0.297426 0.096447 0.542953
v 0.297426 0.096447 0.542953
v -0.297426 0.096447 -0.542953
v 0.297426 0.096447 -0.542953
v -0.193677 0.096447 0.729681
v 0.193677 0.096447 0.729681
v -0.077221 0.096447 0.845227
v 0.077221 0.096447 0.845227
v -0.250594 0.096447 -0.860819
v 0.250594 0.096447 -0.860819
vt 1.000000 0.000000
vt 0.000000 1.000000
vt 0.000000 0.000000
vt 1.000000 0.000000
vt 0.000000 0.000000
vt 1.000000 0.000000
vt 1.000000 1.000000
vt 0.000000 1.000000
vt 0.000000 0.000000
vt 1.000000 1.000000
vt 0.600000 0.500000
vt 0.700000 1.000000
vt 0.700000 0.500000
vt 0.500000 1.000000
vt 0.600000 1.000000
vt 0.400000 0.500000
vt 0.500000 0.500000
vt 0.300000 0.500000
vt 0.400000 1.000000
vt 0.266174 0.500000
vt 0.300000 1.000000
vt 0.300000 1.000000
vt 0.400000 1.000000
vt 0.500000 1.000000
vt 0.600000 1.000000
vt 0.725892 1.000000
vt 0.733826 1.000000
vt 0.600000 1.000000
vt 0.400000 1.000000
vt 0.700000 1.000000
vt 0.708457 1.000000
vt 0.300000 1.000000
vt 0.700000 1.000000
vt 0.500000 1.000000
vt 0.600000 1.000000
vt 0.600000 1.000000
vt 0.500000 1.000000
vt 0.400000 1.000000
vt 0.700000 1.000000
vt 0.376219 1.000000
vt 0.623781 1.000000
vt 0.400000 1.000000
vt 0.600000 0.500000
vt 0.700000 0.534778
vt 0.700000 0.500000
vt 0.600000 0.534778
vt 0.400000 0.500000
vt 0.500000 0.534778
vt 0.300000 0.500000
vt 0.400000 0.534778
vt 0.266174 0.534778
vt 0.300000 0.534778
vt 0.300000 1.000000
vt 0.400000 1.000000
vt 0.300000 1.000000
vt 0.400000 1.000000
vt 0.500000 1.000000
vt 0.500000 1.000000
vt 0.600000 1.000000
vt 0.600000 1.000000
vt 0.700000 1.000000
vt 0.700000 1.000000
vt 0.727435 1.000000
vt 0.733431 1.000000
vt 0.500000 1.000000
vt 0.400000 1.000000
vt 0.700000 1.000000
vt 0.712254 1.000000
vt 0.723029 1.000000
vt 0.300000 1.000000
vt 0.285174 1.000000
vt 0.714826 1.000000
vt 0.500000 1.000000
vt 0.600000 1.000000
vt 0.600000 1.000000
vt 0.400000 1.000000
vt 0.700000 1.000000
vt 0.300000 1.000000
vt 0.800000 1.000000
vt 0.700000 0.500000
vt 0.800000 0.500000
vt 0.600000 1.000000
vt 0.600000 0.500000
vt 0.500000 0.500000
vt 0.500000 1.000000
vt 0.400000 0.500000
vt 0.300000 1.000000
vt 0.300000 0.500000
vt 0.200000 0.500000
vt 0.200000 1.000000
vt 0.200000 1.000000
vt 0.400000 1.000000
vt 0.300000 1.000000
vt 0.400000 1.000000
vt 0.500000 1.000000
vt 0.700000 1.000000
vt 0.600000 1.000000
vt 0.700000 1.000000
vt 0.300000 1.000000
vt 0.200000 1.000000
vt 0.200000 1.000000
vt 0.500000 1.000000
vt 0.400000 1.000000
vt 0.800000 1.000000
vt 0.700000 1.000000
vt 0.600000 1.000000
vt 0.500000 1.000000
vt 0.600000 1.000000
vt 0.500000 1.000000
vt 0.400000 1.000000
vt 0.800000 1.000000
vt 0.700000 1.000000
vt 0.300000 1.000000
vt 0.600000 1.000000
vt 0.478254 0.175836
vt 0.478254 0.324164
vt 0.021746 0.175836
vt 0.400000 1.000000
vt 0.800000 1.000000
vt 0.700000 1.000000
vt 0.300000 1.000000
vt 0.200000 1.000000
vt 0.349875 0.987000
vt 0.500000 0.986467
vt 0.267431 0.500000
vt 0.385944 0.500000
vt 0.800000 0.500000
vt 0.700000 1.000000
vt 0.700000 0.500000
vt 0.600000 0.500000
vt 0.500000 1.000000
vt 0.400000 0.500000
vt 0.300000 1.000000
vt 0.300000 0.500000
vt 0.200000 0.500000
vt 0.200000 1.000000
vt 0.300000 1.000000
vt 0.200000 1.000000
vt 0.400000 1.000000
vt 0.400000 1.000000
vt 0.600000 1.000000
vt 0.500000 1.000000
vt 0.700000 1.000000
vt 0.600000 1.000000
vt 0.800000 1.000000
vt 0.000000 0.000000
vt 0.000000 0.000000
vt 0.000000 0.000000
vt 0.300000 1.000000
vt 0.200000 1.000000
vt 0.500000 1.000000
vt 0.400000 1.000000
vt 0.800000 1.000000
vt 0.700000 1.000000
vt 0.600000 1.000000
vt 0.305452 1.000000
vt 0.800000 1.000000
vt 0.198723 0.711219
vt 0.073396 0.091745
vt 0.000000 0.000000
vt 0.800000 1.000000
vt 0.300000 1.000000
vt 0.500000 1.000000
vt 0.600000 1.000000
vt 0.700000 1.000000
vt 0.200000 1.000000
vt 0.400000 1.000000
vt 0.733826 0.534778
vt 0.733826 0.500000
vt 0.274108 1.000000
vt 0.266174 1.000000
vt 0.000000 0.000000
vt 0.000000 0.000000
vt 0.300000 1.000000
vt 0.291543 1.000000
vt 0.287746 1.000000
vt 0.735332 0.959057
vt 0.266174 1.000000
vt 0.733826 0.500000
vt 0.272565 1.000000
vt 0.276970 1.000000
vt 0.266569 1.000000
vt 0.500000 1.000000
vt 0.266174 0.500000
vt 0.733826 1.000000
vt 0.021746 0.324164
vt 0.108932 0.055836
vt 0.250000 0.010000
vt 0.391068 0.055836
vt 0.800000 1.000000
vt 0.751789 0.526087
vt 0.751995 0.500000
vt 0.753862 0.937487
vt 0.748461 0.986121
vt 0.751845 0.977816
vt 0.650125 0.987000
vt 0.741745 0.986538
vt 0.324116 0.986985
vt 0.251539 0.986121
vt 0.258255 0.986538
vt 0.248211 0.526087
vt 0.248155 0.977816
vt 0.246138 0.937487
vt 0.248005 0.500000
vt 0.675883 0.986985
vt 0.732569 0.500000
vt 0.614056 0.500000
vt 0.500000 0.500000
vt 0.000000 0.000000
vt 0.000000 0.000000
vt 0.268521 1.000000
vt 0.271759 1.000000
vt 0.728241 1.000000
vt 0.731479 1.000000
vt 0.694548 1.000000
vt 0.000000 0.000000
vt 0.000000 0.000000
vt 0.726604 0.908255
vn 0.0000 1.0000 0.0000
vn -0.8090 0.5878 0.0000
vn -0.8068 0.5862 -0.0736
vn -0.3090 0.9511 0.0000
vn -0.3082 0.9485 -0.0736
vn 0.3090 0.9511 0.0000
vn 0.3082 0.9485 -0.0736
vn 0.8090 0.5878 0.0000
vn 0.8068 0.5862 -0.0736
vn 1.0000 0.0000 -0.0000
vn 0.9973 0.0000 -0.0736
vn 0.7899 0.5739 -0.2163
vn 0.3017 0.9285 -0.2163
vn -0.3017 0.9285 -0.2163
vn -0.7899 0.5739 -0.2163
vn -0.9973 0.0000 -0.0736
vn -0.9764 0.0000 -0.2162
vn -0.2845 0.8755 -0.3906
vn 0.2845 0.8755 -0.3906
vn -0.9763 0.0000 -0.2163
vn -0.9196 0.0000 -0.3929
vn 0.7448 0.5411 -0.3906
vn -0.7448 0.5411 -0.3906
vn 0.0000 0.7786 -0.6275
vn -0.3143 0.5928 -0.7415
vn -0.4577 0.6299 -0.6275
vn 0.4577 0.6299 -0.6275
vn -0.9206 0.0000 -0.3906
vn -0.8630 0.0000 -0.5052
vn 0.6591 0.4789 -0.5798
vn -0.6982 0.5073 -0.5052
vn -0.6591 0.4789 -0.5798
vn 0.3143 0.5928 -0.7415
vn -1.0000 0.0000 0.0000
vn -0.7899 0.5739 0.2163
vn -0.8068 0.5862 0.0736
vn -0.3017 0.9285 0.2163
vn -0.3082 0.9485 0.0736
vn 0.3017 0.9285 0.2163
vn 0.3082 0.9485 0.0736
vn 0.7899 0.5739 0.2163
vn 0.8068 0.5862 0.0736
vn 0.9763 0.0000 0.2163
vn 0.9761 0.0000 0.2172
vn 0.9888 0.0000 0.1492
vn -0.0000 0.8632 0.5049
vn -0.3797 0.7014 0.6032
vn 0.9574 0.0000 0.2886
vn -0.7746 0.5628 0.2886
vn 0.7746 0.5628 0.2886
vn 0.0000 -0.0000 1.0000
vn 0.3588 0.5601 0.7467
vn 0.3797 0.7014 0.6032
vn 0.5404 0.1456 0.8287
vn 0.5391 0.0000 0.8422
vn -0.3588 0.5601 0.7467
vn 0.5362 0.2244 0.8137
vn -0.5362 0.2244 0.8137
vn -0.5404 0.1456 0.8287
vn 0.9967 0.0000 0.0806
vn 0.8090 -0.5878 -0.0000
vn 0.8064 -0.5859 0.0806
vn 0.3080 -0.9480 0.0806
vn 0.3090 -0.9511 -0.0000
vn -0.3080 -0.9480 0.0806
vn -0.3090 -0.9511 -0.0000
vn -0.8090 -0.5878 -0.0000
vn -0.8064 -0.5859 0.0806
vn -0.9967 0.0000 0.0806
vn -0.9718 0.0000 0.2357
vn -0.7862 -0.5712 0.2357
vn -0.3003 -0.9243 0.2357
vn 0.3003 -0.9243 0.2357
vn 0.7862 -0.5712 0.2357
vn 0.9718 0.0000 0.2357
vn -0.9073 0.0000 0.4205
vn -0.7670 0.0000 0.6416
vn 0.2804 -0.8629 0.4205
vn -0.2804 -0.8629 0.4205
vn 0.9073 0.0000 0.4205
vn -0.7340 -0.5333 0.4205
vn 0.7340 -0.5333 0.4205
vn -0.0000 -0.7509 0.6604
vn 0.3716 -0.5115 0.7747
vn 0.0000 -0.6323 0.7747
vn -0.4414 -0.6075 0.6604
vn 0.7141 -0.2320 0.6604
vn -0.7141 -0.2320 0.6604
vn 0.4414 -0.6075 0.6604
vn -0.3716 -0.5115 0.7747
vn 0.7670 0.0000 0.6416
vn 0.6013 -0.1954 0.7747
vn -0.6013 -0.1954 0.7747
vn -0.6512 0.0000 0.7589
vn 0.0087 0.9602 0.2793
vn 0.0064 0.9475 0.3197
vn -0.0000 0.9473 0.3202
vn -0.0000 -0.0000 -1.0000
vn -0.9967 -0.0000 -0.0806
vn -0.8064 -0.5859 -0.0806
vn -0.3080 -0.9480 -0.0806
vn 0.3080 -0.9480 -0.0806
vn 0.8064 -0.5859 -0.0806
vn 0.9967 -0.0000 -0.0806
vn 0.9718 -0.0000 -0.2357
vn 0.7862 -0.5712 -0.2357
vn 0.3003 -0.9243 -0.2357
vn -0.3003 -0.9243 -0.2357
vn -0.7862 -0.5712 -0.2357
vn -0.9718 0.0000 -0.2357
vn 0.9494 -0.0000 -0.3142
vn -0.0000 -0.8450 -0.5347
vn 0.3656 -0.6827 -0.6327
vn -0.9494 -0.0000 -0.3142
vn 0.7680 -0.5580 -0.3142
vn -0.7680 -0.5580 -0.3142
vn 0.0000 0.9943 -0.1069
vn -0.0000 0.9986 -0.0537
vn 0.0000 0.9996 -0.0294
vn 0.0000 0.9997 -0.0254
vn 0.0000 0.6303 -0.7763
vn -0.3386 -0.5319 -0.7761
vn -0.0000 -0.6631 -0.7485
vn -0.5060 -0.1357 -0.8518
vn -0.5037 -0.0000 -0.8639
vn -0.5030 -0.2123 -0.8378
vn 0.5060 -0.1357 -0.8518
vn 0.5037 -0.0000 -0.8639
vn 0.3386 -0.5319 -0.7761
vn -0.3656 -0.6827 -0.6327
vn 0.5030 -0.2123 -0.8378
vn 0.9973 -0.0000 0.0736
vn 0.9764 0.0000 -0.2162
vn 0.8630 0.0000 -0.5052
vn 0.9206 0.0000 -0.3906
vn 0.9196 0.0000 -0.3929
vn -0.5391 0.0000 0.8422
vn -0.0000 0.9971 -0.0761
vn -0.9973 0.0000 0.0736
vn -0.9972 0.0000 0.0748
vn 0.9763 0.0000 -0.2163
vn -0.9763 0.0000 0.2163
vn -0.9761 0.0000 0.2172
vn -0.9574 -0.0000 0.2886
vn -0.9888 0.0000 0.1492
vn 0.0000 0.6673 -0.7448
vn 0.6982 0.5073 -0.5052
vn 0.9972 0.0000 0.0748
vn -0.0000 0.6972 0.7169
vn 0.6512 0.0000 0.7589
vn -0.0020 0.9997 0.0262
vn -0.0024 0.9997 0.0255
vn -0.0011 0.9900 0.1408
vn -0.0083 0.9969 0.0777
vn -0.0033 0.9942 0.1076
vn -0.0083 0.9974 0.0715
vn -0.0064 0.9475 0.3197
vn -0.0199 0.9692 0.2456
vn -0.0087 0.9602 0.2793
vn -0.0012 0.9843 0.1765
vn 0.0199 0.9692 0.2456
vn 0.0000 0.9789 0.2044
vn 0.0083 0.9969 0.0777
vn 0.0011 0.9900 0.1408
vn 0.0033 0.9942 0.1076
vn 0.0012 0.9843 0.1765
vn 0.0020 0.9997 0.0262
vn 0.0083 0.9974 0.0715
vn 0.0024 0.9997 0.0255
vn -0.0000 0.9964 -0.0853
s off
f 149/1/1 150/2/1 148/3/1
f 148/3/1 153/4/1 149/1/1
f 152/5/1 155/6/1 153/4/1
f 151/7/1 156/8/1 150/2/1
f 149/1/1 151/7/1 150/2/1
f 148/3/1 152/5/1 153/4/1
f 152/5/1 154/9/1 155/6/1
f 151/7/1 157/10/1 156/8/1
s 1
f 3/11/2 2/12/3 1/13/2
f 3/11/4 6/14/5 4/15/5
f 7/16/6 6/14/7 5/17/6
f 9/18/8 8/19/9 7/16/8
f 128/20/10 10/21/11 9/18/10
f 15/22/12 8/19/9 10/21/9
f 14/23/13 6/14/7 8/19/7
f 13/24/14 4/15/5 6/14/5
f 12/25/15 2/12/3 4/15/3
f 2/12/16 123/26/17 126/27/16
f 13/24/14 17/28/18 12/25/14
f 19/29/19 13/24/13 14/23/13
f 11/30/20 122/31/21 123/26/17
f 20/32/22 14/23/12 15/22/12
f 12/25/15 16/33/23 11/30/15
f 22/34/24 115/35/25 21/36/26
f 18/37/18 21/36/26 17/28/18
f 23/38/27 18/37/19 19/29/19
f 16/33/28 119/39/29 122/31/21
f 118/40/30 23/38/27 19/29/22
f 119/39/31 17/28/23 114/41/32
f 117/42/33 22/34/24 23/38/27
f 21/36/26 115/35/25 114/41/32
f 7/43/8 131/44/8 9/45/8
f 5/17/6 129/46/6 7/43/6
f 3/47/4 130/48/4 5/17/4
f 1/49/2 134/50/2 3/47/2
f 1/49/34 135/51/34 133/52/34
f 33/53/35 27/54/36 28/55/36
f 32/56/37 26/57/38 27/54/38
f 31/58/39 25/59/40 26/57/40
f 30/60/41 24/61/42 25/59/42
f 29/62/43 138/63/44 139/64/45
f 36/65/46 30/60/39 31/58/39
f 37/66/47 31/58/37 32/56/37
f 34/67/48 142/68/48 146/69/48
f 38/70/49 32/56/35 33/53/35
f 30/60/41 34/67/50 29/62/41
f 147/71/51 145/72/51 41/73/51
f 36/65/46 40/74/52 35/75/53
f 34/67/54 145/72/55 142/68/55
f 42/76/56 36/65/46 37/66/47
f 35/75/53 39/77/57 34/67/54
f 43/78/58 37/66/47 38/70/59
f 45/79/60 46/80/10 44/81/10
f 46/80/61 49/82/62 48/83/61
f 49/82/63 50/84/64 48/83/64
f 51/85/65 52/86/66 50/84/66
f 52/86/67 55/87/68 54/88/67
f 55/87/69 56/89/34 54/88/34
f 55/87/69 64/90/70 57/91/69
f 55/87/68 62/92/71 63/93/71
f 51/85/65 62/92/72 53/94/65
f 49/82/63 61/95/73 51/85/63
f 47/96/62 60/97/74 49/82/62
f 45/79/60 59/98/75 47/96/60
f 70/99/76 78/100/77 71/101/76
f 63/93/70 71/101/76 64/90/70
f 60/97/73 68/102/78 61/95/73
f 61/95/72 69/103/79 62/92/72
f 58/104/75 66/105/80 59/98/75
f 62/92/71 70/99/81 63/93/71
f 59/98/74 67/106/82 60/97/74
f 75/107/83 81/108/84 82/109/85
f 67/106/78 75/107/83 68/102/78
f 68/102/79 76/110/86 69/103/79
f 65/111/80 73/112/87 66/105/80
f 69/103/81 77/113/88 70/99/81
f 66/105/82 74/114/89 67/106/82
f 80/115/51 79/116/51 84/117/51
f 75/107/83 83/118/90 76/110/86
f 72/119/91 80/120/92 73/112/87
f 77/113/88 83/118/90 84/121/93
f 73/112/87 81/108/84 74/114/89
f 77/113/88 85/122/94 78/100/77
f 117/123/95 85/122/96 116/124/97
f 54/88/98 131/125/98 129/126/98
f 56/127/34 87/128/99 54/129/34
f 87/128/100 52/130/67 54/129/67
f 52/130/66 89/131/101 50/84/66
f 89/131/102 48/132/64 50/84/64
f 48/132/61 91/133/103 46/134/61
f 91/133/104 44/135/10 46/134/10
f 92/136/104 98/137/105 99/138/105
f 90/139/103 98/137/106 91/133/103
f 89/131/102 97/140/107 90/139/102
f 88/141/101 96/142/108 89/131/101
f 88/141/100 94/143/109 95/144/109
f 86/145/99 94/143/110 87/128/99
f 56/146/1 132/147/1 136/148/1
f 99/138/105 105/149/111 106/150/111
f 95/144/108 103/151/112 96/142/108
f 96/142/107 104/152/113 97/140/107
f 93/153/110 101/154/114 94/143/110
f 97/140/106 105/149/115 98/137/106
f 94/143/109 102/155/116 95/144/109
f 147/156/117 106/150/117 100/157/117
f 141/158/118 140/159/119 92/160/120
f 106/150/121 108/161/121 100/157/121
f 108/161/98 112/162/98 110/163/98
f 103/151/112 109/164/122 110/163/123
f 101/154/124 108/161/125 107/165/126
f 105/149/127 113/166/128 106/150/128
f 103/151/112 111/167/129 104/152/113
f 102/155/130 107/165/126 109/164/122
f 104/152/113 112/162/131 105/149/127
f 25/59/42 131/44/8 129/46/8
f 9/45/10 132/168/10 128/169/10
f 24/61/132 132/168/10 131/44/10
f 124/170/133 10/21/11 125/171/11
f 137/172/1 44/173/1 92/160/120
f 120/174/134 20/32/135 121/175/136
f 117/42/33 23/38/27 118/40/30
f 147/71/137 38/70/59 143/176/137
f 138/177/118 93/153/138 86/145/120
f 26/57/40 129/46/6 130/48/6
f 28/55/139 135/51/34 137/178/140
f 121/175/136 15/22/141 124/170/133
f 1/13/34 126/27/16 127/179/34
f 28/55/36 134/50/2 133/52/2
f 33/53/142 141/180/143 144/181/144
f 28/55/139 137/178/140 140/182/145
f 27/54/38 130/48/4 134/50/4
f 3/11/2 4/15/3 2/12/3
f 3/11/4 5/17/4 6/14/5
f 7/16/6 8/19/7 6/14/7
f 9/18/8 10/21/9 8/19/9
f 128/20/10 125/171/11 10/21/11
f 15/22/12 14/23/12 8/19/9
f 14/23/13 13/24/13 6/14/7
f 13/24/14 12/25/14 4/15/5
f 12/25/15 11/30/15 2/12/3
f 2/12/16 11/30/20 123/26/17
f 13/24/14 18/37/18 17/28/18
f 19/29/19 18/37/19 13/24/13
f 11/30/20 16/33/28 122/31/21
f 20/32/22 19/29/22 14/23/12
f 12/25/15 17/28/23 16/33/23
f 22/34/24 116/183/146 115/35/25
f 18/37/18 22/34/24 21/36/26
f 23/38/27 22/34/24 18/37/19
f 19/29/22 20/32/22 120/174/147
f 120/174/147 118/40/30 19/29/22
f 16/33/23 17/28/23 119/39/31
f 17/28/23 21/36/26 114/41/32
f 117/42/33 116/183/146 22/34/24
f 7/43/8 129/46/8 131/44/8
f 5/17/6 130/48/6 129/46/6
f 3/47/4 134/50/4 130/48/4
f 1/49/2 133/52/2 134/50/2
f 1/49/34 127/184/34 135/51/34
f 33/53/35 32/56/35 27/54/36
f 32/56/37 31/58/37 26/57/38
f 31/58/39 30/60/39 25/59/40
f 30/60/41 29/62/41 24/61/42
f 136/185/148 24/61/132 139/64/45
f 24/61/132 29/62/43 139/64/45
f 36/65/46 35/75/53 30/60/39
f 37/66/47 36/65/46 31/58/37
f 138/63/44 29/62/43 146/69/48
f 29/62/43 34/67/48 146/69/48
f 38/70/49 37/66/49 32/56/35
f 30/60/41 35/75/50 34/67/50
f 145/72/51 39/77/51 40/74/51
f 40/74/51 41/73/51 145/72/51
f 41/73/51 42/76/51 147/71/51
f 42/76/51 43/78/51 147/71/51
f 36/65/46 41/73/149 40/74/52
f 34/67/54 39/77/57 145/72/55
f 42/76/56 41/73/149 36/65/46
f 35/75/53 40/74/52 39/77/57
f 43/78/58 42/76/56 37/66/47
f 45/79/60 47/96/60 46/80/10
f 46/80/61 47/96/62 49/82/62
f 49/82/63 51/85/63 50/84/64
f 51/85/65 53/94/65 52/86/66
f 52/86/67 53/94/68 55/87/68
f 55/87/69 57/91/69 56/89/34
f 55/87/69 63/93/70 64/90/70
f 55/87/68 53/94/68 62/92/71
f 51/85/65 61/95/72 62/92/72
f 49/82/63 60/97/73 61/95/73
f 47/96/62 59/98/74 60/97/74
f 45/79/60 58/104/75 59/98/75
f 70/99/76 77/113/88 78/100/77
f 63/93/70 70/99/76 71/101/76
f 60/97/73 67/106/78 68/102/78
f 61/95/72 68/102/79 69/103/79
f 58/104/75 65/111/80 66/105/80
f 62/92/71 69/103/81 70/99/81
f 59/98/74 66/105/82 67/106/82
f 75/107/83 74/114/89 81/108/84
f 67/106/78 74/114/89 75/107/83
f 68/102/79 75/107/83 76/110/86
f 65/111/80 72/119/91 73/112/87
f 69/103/81 76/110/86 77/113/88
f 66/105/82 73/112/87 74/114/89
f 79/116/51 85/186/51 84/117/51
f 84/117/51 83/187/51 80/115/51
f 83/187/51 82/188/51 80/115/51
f 82/188/51 81/189/51 80/115/51
f 75/107/83 82/109/85 83/118/90
f 72/119/91 79/190/150 80/120/92
f 77/113/88 76/110/86 83/118/90
f 73/112/87 80/120/92 81/108/84
f 77/113/88 84/121/93 85/122/94
f 45/79/151 44/81/1 127/191/1
f 44/81/1 135/192/1 127/191/1
f 127/191/1 126/193/152 45/79/151
f 65/111/153 58/104/154 122/194/155
f 58/104/154 45/79/151 123/195/156
f 79/190/157 72/119/158 115/196/159
f 72/119/158 65/111/153 119/197/160
f 78/100/161 85/122/96 117/123/95
f 85/122/96 79/190/157 116/124/97
f 78/100/161 117/123/95 118/198/162
f 64/90/163 71/101/164 121/199/165
f 71/101/164 78/100/161 120/200/166
f 56/89/1 57/91/167 128/201/1
f 57/91/167 64/90/163 124/202/168
f 125/203/169 57/91/167 124/202/168
f 128/201/1 132/204/1 56/89/1
f 125/203/169 128/201/1 57/91/167
f 58/104/154 123/195/156 122/194/155
f 45/79/151 126/193/152 123/195/156
f 65/111/153 122/194/155 119/197/160
f 121/199/165 124/202/168 64/90/163
f 120/200/166 121/199/165 71/101/164
f 72/119/158 119/197/160 114/205/162
f 72/119/158 114/205/162 115/196/159
f 118/198/162 120/200/166 78/100/161
f 79/190/157 115/196/159 116/124/97
f 135/192/98 44/81/98 133/206/98
f 44/81/98 46/80/98 133/206/98
f 46/80/98 48/83/98 134/207/98
f 48/83/98 50/84/98 130/208/98
f 134/207/98 48/83/98 130/208/98
f 50/84/98 52/86/98 130/208/98
f 52/86/98 54/88/98 129/126/98
f 54/88/98 56/89/98 131/125/98
f 56/89/98 132/204/98 131/125/98
f 134/207/98 133/206/98 46/80/98
f 52/86/98 129/126/98 130/208/98
f 56/127/34 86/145/99 87/128/99
f 87/128/100 88/141/100 52/130/67
f 52/130/66 88/141/101 89/131/101
f 89/131/102 90/139/102 48/132/64
f 48/132/61 90/139/103 91/133/103
f 91/133/104 92/136/104 44/135/10
f 92/136/104 91/133/104 98/137/105
f 90/139/103 97/140/106 98/137/106
f 89/131/102 96/142/107 97/140/107
f 88/141/101 95/144/108 96/142/108
f 88/141/100 87/128/100 94/143/109
f 86/145/99 93/153/110 94/143/110
f 139/209/119 86/210/120 136/148/1
f 86/210/120 56/146/1 136/148/1
f 99/138/105 98/137/105 105/149/111
f 95/144/108 102/155/130 103/151/112
f 96/142/107 103/151/112 104/152/113
f 93/153/110 100/157/114 101/154/114
f 97/140/106 104/152/115 105/149/115
f 94/143/109 101/154/116 102/155/116
f 144/211/170 99/138/138 143/212/117
f 99/138/138 106/150/117 143/212/117
f 100/157/117 93/153/138 142/213/117
f 93/153/138 146/214/170 142/213/117
f 147/156/117 143/212/117 106/150/117
f 100/157/117 142/213/117 145/215/117
f 145/215/117 147/156/117 100/157/117
f 92/160/120 99/138/138 141/158/118
f 99/138/138 144/211/170 141/158/118
f 106/150/121 113/166/121 108/161/121
f 109/164/98 107/165/98 110/163/98
f 107/165/98 108/161/98 110/163/98
f 108/161/98 113/166/98 112/162/98
f 112/162/98 111/167/98 110/163/98
f 103/151/112 102/155/130 109/164/122
f 101/154/124 100/157/125 108/161/125
f 105/149/127 112/162/131 113/166/128
f 103/151/112 110/163/123 111/167/129
f 102/155/130 101/154/124 107/165/126
f 104/152/113 111/167/129 112/162/131
f 25/59/42 24/61/42 131/44/8
f 9/45/10 131/44/10 132/168/10
f 24/61/132 136/185/148 132/168/10
f 124/170/133 15/22/141 10/21/11
f 92/160/120 140/216/119 137/172/1
f 137/172/1 135/217/1 44/173/1
f 147/71/137 43/78/58 38/70/59
f 86/145/120 139/218/119 138/177/118
f 138/177/118 146/214/170 93/153/138
f 26/57/40 25/59/40 129/46/6
f 28/55/139 133/52/34 135/51/34
f 121/175/136 20/32/135 15/22/141
f 1/13/34 2/12/16 126/27/16
f 28/55/36 27/54/36 134/50/2
f 144/181/144 143/176/144 38/70/144
f 38/70/144 33/53/142 144/181/144
f 140/182/145 141/180/143 33/53/142
f 33/53/142 28/55/139 140/182/145
f 27/54/38 26/57/38 130/48/4
