# Blender v3.4.1 OBJ File: 'environment.blend'
# www.blender.org
o Spinner_1_Cylinder.015
v 0.550735 -0.050423 -0.011001
v 0.550735 0.050423 -0.011001
v 0.596406 -0.050423 -0.151561
v 0.596406 0.050423 -0.151561
v 0.715973 -0.050423 -0.238431
v 0.715973 0.050423 -0.238431
v 0.863766 -0.050423 -0.238431
v 0.863766 0.050423 -0.238431
v 0.983333 -0.050423 -0.151561
v 0.983333 0.050423 -0.151561
v 1.029004 -0.050423 -0.011001
v 1.029004 0.050423 -0.011001
v 0.983333 -0.050423 0.129558
v 0.983333 0.050423 0.129558
v 0.863766 -0.050423 0.216429
v 0.863766 0.050423 0.216429
v 0.715973 -0.050423 0.216429
v 0.715973 0.050423 0.216429
v 0.596406 -0.050423 0.129558
v 0.596406 0.050423 0.129558
v -0.129608 -0.018921 0.129608
v -0.129608 0.018921 0.129608
v -0.129608 -0.018921 -0.129608
v -0.129608 0.018921 -0.129608
v 0.129607 -0.018921 0.129608
v 0.129607 0.018921 0.129608
v 0.129607 -0.018921 -0.129608
v 0.129607 0.018921 -0.129608
v -0.210333 0.018921 -0.732841
v -0.210333 -0.018921 -0.732841
v 0.210333 -0.018921 -0.732841
v 0.210333 0.018921 -0.732841
v -0.210964 -0.018921 0.696560
v -0.210964 0.018921 0.696560
v 0.210964 0.018921 0.696560
v 0.210964 -0.018921 0.696560
v -0.000000 -0.050423 -1.042875
v -0.000000 0.050423 -1.042875
v 0.140560 -0.050423 -0.997204
v 0.140560 0.050423 -0.997204
v 0.227430 -0.050423 -0.877637
v 0.227430 0.050423 -0.877637
v 0.227430 -0.050423 -0.729844
v 0.227430 0.050423 -0.729844
v 0.140560 -0.050423 -0.610277
v 0.140560 0.050423 -0.610277
v -0.000000 -0.050423 -0.564606
v -0.000000 0.050423 -0.564606
v -0.140560 -0.050423 -0.610277
v -0.140560 0.050423 -0.610277
v -0.227430 -0.050423 -0.729844
v -0.227430 0.050423 -0.729844
v -0.227430 -0.050423 -0.877637
v -0.227430 0.050423 -0.877637
v -0.140560 -0.050423 -0.997204
v -0.140560 0.050423 -0.997204
v -0.000000 -0.050423 0.544623
v -0.000000 0.050423 0.544623
v 0.140560 -0.050423 0.590294
v 0.140560 0.050423 0.590294
v 0.227430 -0.050423 0.709861
v 0.227430 0.050423 0.709861
v 0.227430 -0.050423 0.857654
v 0.227430 0.050423 0.857654
v 0.140560 -0.050423 0.977221
v 0.140560 0.050423 0.977221
v -0.000000 -0.050423 1.022892
v -0.000000 0.050423 1.022892
v -0.140560 -0.050423 0.977221
v -0.140560 0.050423 0.977221
v -0.227430 -0.050423 0.857654
v -0.227430 0.050423 0.857654
v -0.227430 -0.050423 0.709861
v -0.227430 0.050423 0.709861
v -0.140560 -0.050423 0.590294
v -0.140560 0.050423 0.590294
v 0.135720 -0.018921 0.118606
v 0.135720 0.027348 0.118606
v -0.123495 -0.018921 0.118606
v -0.123495 0.027348 0.118606
v 0.135720 -0.018921 -0.140609
v 0.135720 0.027348 -0.140609
v -0.123495 -0.018921 -0.140609
v -0.123495 0.027348 -0.140609
v -0.726729 0.018920 0.199332
v -0.726729 -0.018921 0.199332
v -0.726729 -0.018921 -0.221334
v -0.726729 0.018920 -0.221334
v 0.702672 -0.018921 0.199963
v 0.702672 0.018920 0.199963
v 0.702672 0.018920 -0.221965
v 0.702672 -0.018921 -0.221965
v -1.036763 -0.050423 -0.011001
v -1.036763 0.050423 -0.011001
v -0.991092 -0.050423 -0.151561
v -0.991092 0.050423 -0.151561
v -0.871525 -0.050423 -0.238431
v -0.871525 0.050423 -0.238431
v -0.723732 -0.050423 -0.238431
v -0.723732 0.050423 -0.238431
v -0.604165 -0.050423 -0.151561
v -0.604165 0.050423 -0.151561
v -0.558494 -0.050423 -0.011001
v -0.558494 0.050423 -0.011001
v -0.604165 -0.050423 0.129559
v -0.604165 0.050423 0.129559
v -0.723732 -0.050423 0.216429
v -0.723732 0.050423 0.216429
v -0.871525 -0.050423 0.216429
v -0.871525 0.050423 0.216429
v -0.991092 -0.050423 0.129559
v -0.991092 0.050423 0.129559
vt 0.763877 0.297227
vt 0.825459 0.208741
vt 0.825459 0.297227
vt 0.172700 0.206996
vt 0.289348 0.000000
vt 0.261648 0.206996
vt 0.702295 0.283522
vt 0.763877 0.194573
vt 0.763877 0.283522
vt 0.702295 0.194573
vt 0.763877 0.000000
vt 0.551213 0.206996
vt 0.462265 0.295945
vt 0.462265 0.206996
vt 0.172700 0.295945
vt 0.913187 0.634841
vt 0.974769 0.490492
vt 0.974769 0.634841
vt 0.763877 0.208741
vt 0.825459 0.000000
vt 0.702295 0.490492
vt 0.434565 0.000000
vt 0.578914 0.000000
vt 0.887041 0.328231
vt 0.825459 0.473013
vt 0.825459 0.328231
vt 0.763877 0.487925
vt 0.551213 0.295945
vt 0.434348 0.490492
vt 0.261648 0.295945
vt 0.144783 0.490492
vt 0.640712 0.295918
vt 0.702295 0.206970
vt 0.702295 0.295918
vt 0.317482 0.206996
vt 0.434131 0.000000
vt 0.406431 0.206996
vt 0.579130 0.283522
vt 0.640713 0.194573
vt 0.640713 0.283522
vt 0.579130 0.000000
vt 0.640713 0.000000
vt 0.116866 0.206996
vt 0.027917 0.295945
vt 0.027917 0.206996
vt 0.317482 0.295945
vt 0.938418 0.962323
vt 1.000000 0.818722
vt 1.000000 0.962323
vt 0.640712 0.000000
vt 0.702295 0.000000
vt 0.579130 0.490492
vt 0.144566 0.000000
vt 0.887041 0.473013
vt 0.948623 0.328231
vt 0.948623 0.473013
vt 0.640712 0.490491
vt 0.116865 0.295945
vt 0.000000 0.490491
vt 0.406431 0.295945
vt 0.289565 0.490491
vt 0.144999 0.000000
vt 0.702295 0.000000
vt 0.913187 0.490492
vt 0.763877 0.000000
vt 0.763877 0.490492
vt 0.887041 0.473013
vt 0.825459 0.487925
vt 0.579130 0.490492
vt 0.289565 0.490492
vt 0.640712 0.206970
vt 0.289782 0.000000
vt 0.579130 0.194573
vt 0.938418 0.818722
vt 0.640713 0.490492
vt 0.000217 0.000000
vt 0.887041 0.328231
vt 0.702295 0.490491
vt 0.144783 0.490491
vt 0.434348 0.490491
vt 0.888841 0.982838
vt 0.842454 0.818722
vt 0.888841 0.818722
vt 0.733793 0.818722
vt 0.692736 0.654607
vt 0.733793 0.654607
vt 0.692736 0.818722
vt 0.642021 0.654607
vt 0.642021 0.818722
vt 0.601021 0.654607
vt 0.746490 0.982838
vt 0.698242 0.818722
vt 0.746490 0.818722
vt 0.698242 0.982838
vt 0.650025 0.818722
vt 0.601021 0.818722
vt 0.560021 0.654607
vt 0.601021 0.654607
vt 0.560021 0.818722
vt 0.509307 0.654607
vt 0.156083 0.711308
vt 0.126274 0.803051
vt 0.029809 0.803051
vt 0.509307 0.818722
vt 0.468249 0.654607
vt 0.938418 0.982838
vt 0.938418 0.818722
vt 0.750606 0.506163
vt 0.702374 0.654607
vt 0.624332 0.597907
vt 0.312384 0.982838
vt 0.264167 0.818722
vt 0.312384 0.818722
vt 0.913187 0.654607
vt 0.872130 0.490492
vt 0.913187 0.490492
vt 0.872130 0.654607
vt 0.821415 0.490492
vt 0.821415 0.654607
vt 0.780415 0.490492
vt 0.553560 0.982838
vt 0.505343 0.818722
vt 0.553560 0.818722
vt 0.505343 0.982838
vt 0.457096 0.818722
vt 0.264167 0.982838
vt 0.220318 0.818722
vt 0.264167 0.818722
vt 0.220318 0.982838
vt 0.169867 0.818722
vt 0.078042 0.654607
vt 0.000000 0.597907
vt 0.126274 0.506163
vt 0.169867 0.982838
vt 0.132083 0.818722
vt 0.360631 0.982838
vt 0.360631 0.818722
vt 0.234125 0.654607
vt 0.156083 0.597906
vt 0.185893 0.506163
vt 0.914783 0.818722
vt 0.866565 0.654607
vt 0.914783 0.654607
vt 0.866565 0.818722
vt 0.825508 0.654607
vt 0.825508 0.818722
vt 0.774794 0.654607
vt 0.774794 0.818722
vt 0.733793 0.654607
vt 0.650025 0.982838
vt 0.601808 0.818722
vt 0.650025 0.818722
vt 0.601808 0.982838
vt 0.553560 0.818722
vt 0.132083 0.982838
vt 0.088235 0.818722
vt 0.132083 0.818722
vt 0.088235 0.982838
vt 0.037783 0.818722
vt 0.312166 0.711308
vt 0.282357 0.803051
vt 0.156083 0.711308
vt 0.037783 0.982838
vt 0.000000 0.818722
vt 0.963030 0.818722
vt 0.963030 0.654607
vt 0.468249 0.762022
vt 0.390208 0.818722
vt 0.312166 0.762022
vt 0.792877 0.982838
vt 0.746490 0.818722
vt 0.792877 0.818722
vt 0.958231 0.164115
vt 0.917174 0.000000
vt 0.958231 0.000000
vt 0.917174 0.164115
vt 0.866459 0.000000
vt 0.866459 0.164115
vt 0.825459 0.000000
vt 0.457096 0.982838
vt 0.408848 0.818722
vt 0.457096 0.818722
vt 0.408848 0.982838
vt 0.360631 0.818722
vt 0.958230 0.328231
vt 0.917231 0.164115
vt 0.958230 0.164115
vt 0.917231 0.328231
vt 0.866516 0.164115
vt 0.468249 0.547192
vt 0.438440 0.638935
vt 0.341975 0.638935
vt 0.866516 0.328231
vt 0.825459 0.164115
vt 0.842454 0.982838
vt 0.842454 0.818722
vt 0.594523 0.506163
vt 0.624332 0.597907
vt 0.546291 0.654607
vt 0.842454 0.982838
vt 0.601021 0.818722
vt 0.650025 0.982838
vt 0.000000 0.762022
vt 0.078041 0.654607
vt 0.000000 0.711308
vt 0.029809 0.670279
vt 0.126274 0.670279
vt 0.156083 0.762022
vt 0.078041 0.818722
vt 0.468249 0.818722
vt 0.624332 0.547192
vt 0.654141 0.506163
vt 0.702374 0.490492
vt 0.780415 0.547192
vt 0.780415 0.597907
vt 0.750606 0.638935
vt 0.654141 0.638935
vt 0.264167 0.982838
vt 0.780415 0.654607
vt 0.457096 0.982838
vt 0.156083 0.597907
vt 0.126274 0.638935
vt 0.029809 0.638935
vt 0.000000 0.547192
vt 0.029809 0.506163
vt 0.078042 0.490492
vt 0.156083 0.547192
vt 0.132083 0.982838
vt 0.234125 0.490491
vt 0.282357 0.506163
vt 0.312166 0.547192
vt 0.312166 0.597906
vt 0.282357 0.638935
vt 0.185892 0.638935
vt 0.156083 0.547192
vt 0.733793 0.818722
vt 0.553560 0.982838
vt 0.234125 0.654607
vt 0.282357 0.670279
vt 0.312166 0.762022
vt 0.234125 0.818722
vt 0.185892 0.803051
vt 0.156083 0.762022
vt 0.185892 0.670279
vt 0.000000 0.982838
vt 0.312166 0.711308
vt 0.341975 0.670279
vt 0.390207 0.654607
vt 0.438440 0.670279
vt 0.468249 0.711308
vt 0.438440 0.803051
vt 0.341975 0.803051
vt 0.746490 0.982838
vt 0.825459 0.164115
vt 0.360631 0.982838
vt 0.312166 0.597907
vt 0.312166 0.547192
vt 0.341975 0.506163
vt 0.390208 0.490492
vt 0.438440 0.506163
vt 0.468249 0.597907
vt 0.390208 0.654607
vt 0.825459 0.328231
vt 0.468249 0.597907
vt 0.468249 0.547192
vt 0.498058 0.506163
vt 0.546291 0.490492
vt 0.624332 0.547192
vt 0.594523 0.638935
vt 0.498058 0.638935
vn -1.0000 0.0000 0.0000
vn 0.0000 1.0000 -0.0000
vn 1.0000 0.0000 0.0000
vn 0.9899 0.0000 -0.1420
vn 0.0000 -1.0000 0.0000
vn 0.0000 0.0000 -1.0000
vn -0.9912 0.0000 0.1326
vn 0.9912 0.0000 0.1326
vn 0.0000 0.0000 1.0000
vn -0.9899 0.0000 -0.1420
vn -0.0140 0.9999 0.0000
vn -0.1420 0.0000 -0.9899
vn 0.1326 0.0000 0.9912
vn 0.1326 0.0000 -0.9912
vn -0.1420 0.0000 0.9899
vn 0.0149 0.9999 0.0000
vn -0.8090 0.0000 -0.5878
vn -0.3090 0.0000 -0.9511
vn 0.3090 0.0000 -0.9511
vn 0.8090 0.0000 -0.5878
vn 0.8090 0.0000 0.5878
vn 0.3090 0.0000 0.9511
vn -0.3090 0.0000 0.9511
vn -0.8090 0.0000 0.5878
vn 0.5878 0.0000 -0.8090
vn 0.9511 0.0000 -0.3090
vn 0.9511 0.0000 0.3090
vn 0.5878 0.0000 0.8090
vn -0.5878 0.0000 0.8090
vn -0.9511 0.0000 0.3090
vn -0.9511 0.0000 -0.3090
vn -0.5878 0.0000 -0.8090
s off
f 22/1/1 23/2/1 21/3/1
f 28/4/2 29/5/2 24/6/2
f 28/7/3 25/8/3 27/9/3
f 26/10/4 36/11/4 25/8/4
f 27/12/5 21/13/5 23/14/5
f 24/6/2 26/15/2 28/4/2
f 29/16/6 31/17/6 30/18/6
f 24/19/7 30/20/7 23/2/7
f 27/9/8 32/21/8 28/7/8
f 27/12/5 30/22/5 31/23/5
f 35/24/9 33/25/9 36/26/9
f 21/3/10 34/27/10 22/1/10
f 25/28/5 33/29/5 21/13/5
f 22/30/2 35/31/2 26/15/2
f 78/32/9 79/33/9 77/34/9
f 84/35/11 85/36/11 80/37/11
f 84/38/6 81/39/6 83/40/6
f 81/39/12 91/41/12 92/42/12
f 83/43/5 77/44/5 79/45/5
f 80/37/2 82/46/2 84/35/2
f 85/47/1 87/48/1 86/49/1
f 79/33/13 85/50/13 86/51/13
f 83/40/14 88/52/14 84/38/14
f 79/45/5 87/53/5 83/43/5
f 91/54/3 89/55/3 92/56/3
f 77/34/15 90/57/15 78/32/15
f 81/58/5 89/59/5 77/44/5
f 78/60/16 91/61/16 82/46/16
f 22/1/1 24/19/1 23/2/1
f 28/4/2 32/62/2 29/5/2
f 28/7/3 26/10/3 25/8/3
f 26/10/4 35/63/4 36/11/4
f 27/12/5 25/28/5 21/13/5
f 24/6/2 22/30/2 26/15/2
f 29/16/6 32/64/6 31/17/6
f 24/19/7 29/65/7 30/20/7
f 27/9/8 31/66/8 32/21/8
f 27/12/5 23/14/5 30/22/5
f 35/24/9 34/67/9 33/25/9
f 21/3/10 33/68/10 34/27/10
f 25/28/5 36/69/5 33/29/5
f 22/30/2 34/70/2 35/31/2
f 78/32/9 80/71/9 79/33/9
f 84/35/11 88/72/11 85/36/11
f 84/38/6 82/73/6 81/39/6
f 81/39/12 82/73/12 91/41/12
f 83/43/5 81/58/5 77/44/5
f 80/37/2 78/60/2 82/46/2
f 85/47/1 88/74/1 87/48/1
f 79/33/13 80/71/13 85/50/13
f 83/40/14 87/75/14 88/52/14
f 79/45/5 86/76/5 87/53/5
f 91/54/3 90/77/3 89/55/3
f 77/34/15 89/78/15 90/57/15
f 81/58/5 92/79/5 89/59/5
f 78/60/16 90/80/16 91/61/16
s 1
f 2/81/1 3/82/17 1/83/1
f 4/84/17 5/85/18 3/86/17
f 6/87/18 7/88/19 5/85/18
f 8/89/19 9/90/20 7/88/19
f 10/91/20 11/92/3 9/93/20
f 12/94/3 13/95/21 11/92/3
f 14/96/21 15/97/22 13/98/21
f 16/99/22 17/100/23 15/97/22
f 14/101/2 10/102/2 6/103/2
f 18/104/23 19/105/24 17/100/23
f 20/106/24 1/83/1 19/107/24
f 7/108/5 15/109/5 19/110/5
f 38/111/6 39/112/25 37/113/6
f 40/114/25 41/115/26 39/116/25
f 42/117/26 43/118/27 41/115/26
f 44/119/27 45/120/28 43/118/27
f 46/121/28 47/122/9 45/123/28
f 48/124/9 49/125/29 47/122/9
f 50/126/29 51/127/30 49/128/29
f 52/129/30 53/130/31 51/127/30
f 38/131/2 54/132/2 46/133/2
f 54/134/31 55/135/32 53/130/31
f 56/136/32 37/113/6 55/137/32
f 47/138/5 51/139/5 55/140/5
f 58/141/6 59/142/25 57/143/6
f 60/144/25 61/145/26 59/142/25
f 62/146/26 63/147/27 61/145/26
f 64/148/27 65/149/28 63/147/27
f 66/150/28 67/151/9 65/152/28
f 68/153/9 69/154/29 67/151/9
f 70/155/29 71/156/30 69/157/29
f 72/158/30 73/159/31 71/156/30
f 58/160/2 74/161/2 66/162/2
f 74/163/31 75/164/32 73/159/31
f 76/165/32 57/143/6 75/166/32
f 67/167/5 71/168/5 75/169/5
f 94/170/1 95/171/17 93/172/1
f 96/173/17 97/174/18 95/175/17
f 98/176/18 99/177/19 97/174/18
f 100/178/19 101/179/20 99/177/19
f 102/180/20 103/181/3 101/182/20
f 104/183/3 105/184/21 103/181/3
f 106/185/21 107/186/22 105/187/21
f 108/188/22 109/189/23 107/186/22
f 106/190/2 102/191/2 98/192/2
f 110/193/23 111/194/24 109/189/23
f 112/195/24 93/172/1 111/196/24
f 99/197/5 103/198/5 107/199/5
f 2/81/1 4/200/17 3/82/17
f 4/84/17 6/87/18 5/85/18
f 6/87/18 8/89/19 7/88/19
f 8/89/19 10/201/20 9/90/20
f 10/91/20 12/94/3 11/92/3
f 12/94/3 14/202/21 13/95/21
f 14/96/21 16/99/22 15/97/22
f 16/99/22 18/104/23 17/100/23
f 6/103/2 4/203/2 18/204/2
f 4/203/2 2/205/2 18/204/2
f 2/205/2 20/206/2 18/204/2
f 18/204/2 16/207/2 14/101/2
f 14/101/2 12/208/2 10/102/2
f 10/102/2 8/209/2 6/103/2
f 18/204/2 14/101/2 6/103/2
f 18/104/23 20/210/24 19/105/24
f 20/106/24 2/81/1 1/83/1
f 19/110/5 1/211/5 3/212/5
f 3/212/5 5/213/5 7/108/5
f 7/108/5 9/214/5 11/215/5
f 11/215/5 13/216/5 15/109/5
f 15/109/5 17/217/5 19/110/5
f 19/110/5 3/212/5 7/108/5
f 7/108/5 11/215/5 15/109/5
f 38/111/6 40/218/25 39/112/25
f 40/114/25 42/117/26 41/115/26
f 42/117/26 44/119/27 43/118/27
f 44/119/27 46/219/28 45/120/28
f 46/121/28 48/124/9 47/122/9
f 48/124/9 50/220/29 49/125/29
f 50/126/29 52/129/30 51/127/30
f 52/129/30 54/134/31 53/130/31
f 42/221/2 40/222/2 38/131/2
f 38/131/2 56/223/2 54/132/2
f 54/132/2 52/224/2 50/225/2
f 50/225/2 48/226/2 54/132/2
f 48/226/2 46/133/2 54/132/2
f 46/133/2 44/227/2 42/221/2
f 42/221/2 38/131/2 46/133/2
f 54/134/31 56/228/32 55/135/32
f 56/136/32 38/111/6 37/113/6
f 55/140/5 37/229/5 39/230/5
f 39/230/5 41/231/5 55/140/5
f 41/231/5 43/232/5 55/140/5
f 43/232/5 45/233/5 47/138/5
f 47/138/5 49/234/5 51/139/5
f 51/139/5 53/235/5 55/140/5
f 43/232/5 47/138/5 55/140/5
f 58/141/6 60/144/25 59/142/25
f 60/144/25 62/146/26 61/145/26
f 62/146/26 64/148/27 63/147/27
f 64/148/27 66/236/28 65/149/28
f 66/150/28 68/153/9 67/151/9
f 68/153/9 70/237/29 69/154/29
f 70/155/29 72/158/30 71/156/30
f 72/158/30 74/163/31 73/159/31
f 62/238/2 60/239/2 58/160/2
f 58/160/2 76/240/2 74/161/2
f 74/161/2 72/241/2 70/242/2
f 70/242/2 68/243/2 74/161/2
f 68/243/2 66/162/2 74/161/2
f 66/162/2 64/244/2 62/238/2
f 62/238/2 58/160/2 66/162/2
f 74/163/31 76/245/32 75/164/32
f 76/165/32 58/141/6 57/143/6
f 75/169/5 57/246/5 59/247/5
f 59/247/5 61/248/5 75/169/5
f 61/248/5 63/249/5 75/169/5
f 63/249/5 65/250/5 67/167/5
f 67/167/5 69/251/5 71/168/5
f 71/168/5 73/252/5 75/169/5
f 63/249/5 67/167/5 75/169/5
f 94/170/1 96/253/17 95/171/17
f 96/173/17 98/176/18 97/174/18
f 98/176/18 100/178/19 99/177/19
f 100/178/19 102/254/20 101/179/20
f 102/180/20 104/183/3 103/181/3
f 104/183/3 106/255/21 105/184/21
f 106/185/21 108/188/22 107/186/22
f 108/188/22 110/193/23 109/189/23
f 98/192/2 96/256/2 94/257/2
f 94/257/2 112/258/2 110/259/2
f 110/259/2 108/260/2 106/190/2
f 106/190/2 104/261/2 102/191/2
f 102/191/2 100/262/2 98/192/2
f 98/192/2 94/257/2 110/259/2
f 110/259/2 106/190/2 98/192/2
f 110/193/23 112/263/24 111/194/24
f 112/195/24 94/170/1 93/172/1
f 111/264/5 93/265/5 99/197/5
f 93/265/5 95/266/5 99/197/5
f 95/266/5 97/267/5 99/197/5
f 99/197/5 101/268/5 103/198/5
f 103/198/5 105/269/5 107/199/5
f 107/199/5 109/270/5 99/197/5
f 109/270/5 111/264/5 99/197/5
