# Blender v3.4.1 OBJ File: 'town.blend'
# www.blender.org
o Table_Legs_Cylinder.003
v 0.000000 -0.502838 -0.081797
v 0.000000 0.825412 -0.081797
v 0.070839 -0.502838 -0.040899
v 0.070839 0.825412 -0.040899
v 0.070839 -0.502838 0.040899
v 0.070839 0.825412 0.040899
v 0.000000 -0.502838 0.081797
v 0.000000 0.825412 0.081797
v -0.070839 -0.502838 0.040899
v -0.070839 0.825412 0.040899
v -0.070839 -0.502838 -0.040899
v -0.070839 0.825412 -0.040899
v -0.031188 -0.806476 0.289633
v -0.039341 -0.494250 -0.033811
v 0.029407 -0.807571 0.288094
v 0.032990 -0.495556 -0.035648
v 0.061328 -0.772571 0.325930
v 0.071091 -0.453779 0.009515
v 0.032652 -0.736478 0.365305
v 0.036863 -0.410696 0.056514
v -0.027943 -0.735384 0.366844
v -0.035467 -0.409390 0.058352
v -0.059864 -0.770383 0.329008
v -0.073569 -0.451167 0.013189
v -0.022286 -0.911330 0.518044
v 0.024880 -0.912157 0.517157
v 0.049273 -0.872064 0.522023
v 0.026500 -0.831145 0.527777
v -0.020666 -0.830318 0.528665
v -0.045059 -0.870411 0.523798
v -0.010483 -0.917320 0.679983
v 0.018973 -0.917836 0.679429
v 0.034207 -0.892798 0.682468
v 0.019984 -0.867243 0.686062
v -0.009472 -0.866727 0.686616
v -0.024706 -0.891765 0.683577
v 0.266424 -0.806476 -0.117807
v -0.009611 -0.494250 0.050975
v 0.234793 -0.807571 -0.169515
v -0.047367 -0.495556 -0.010746
v 0.251600 -0.772571 -0.216076
v -0.027306 -0.453779 -0.066324
v 0.300037 -0.736478 -0.210930
v 0.030512 -0.410696 -0.060181
v 0.331668 -0.735384 -0.159222
v 0.068268 -0.409390 0.001540
v 0.314861 -0.770383 -0.112661
v 0.048207 -0.451167 0.057118
v 0.459782 -0.911330 -0.239722
v 0.435431 -0.912157 -0.280125
v 0.427449 -0.872064 -0.303683
v 0.443819 -0.831145 -0.286839
v 0.468170 -0.830318 -0.246435
v 0.476152 -0.870411 -0.222877
v 0.594124 -0.917320 -0.330913
v 0.578917 -0.917836 -0.356145
v 0.573932 -0.892798 -0.370858
v 0.584155 -0.867243 -0.360338
v 0.599363 -0.866727 -0.335105
v 0.604348 -0.891765 -0.320393
v -0.235236 -0.806476 -0.171826
v 0.048951 -0.494250 -0.017164
v -0.264201 -0.807571 -0.118579
v 0.014377 -0.495556 0.046394
v -0.312928 -0.772571 -0.109853
v -0.043786 -0.453779 0.056810
v -0.332690 -0.736478 -0.154374
v -0.067374 -0.410696 0.003667
v -0.303725 -0.735384 -0.207621
v -0.032800 -0.409390 -0.059891
v -0.254998 -0.770383 -0.216347
v 0.025363 -0.451167 -0.070307
v -0.437497 -0.911330 -0.278322
v -0.460311 -0.912157 -0.237031
v -0.476722 -0.872064 -0.218340
v -0.470319 -0.831145 -0.240939
v -0.447504 -0.830318 -0.282229
v -0.431093 -0.870411 -0.300921
v -0.583641 -0.917320 -0.349070
v -0.597889 -0.917836 -0.323283
v -0.608138 -0.892798 -0.311610
v -0.604140 -0.867243 -0.325724
v -0.589891 -0.866727 -0.351510
v -0.579642 -0.891765 -0.363184
vt 1.000000 1.000000
vt 0.833333 0.500000
vt 1.000000 0.500000
vt 0.833333 1.000000
vt 0.666667 0.500000
vt 0.666667 1.000000
vt 0.500000 0.500000
vt 0.500000 1.000000
vt 0.333333 0.500000
vt 0.250000 0.490000
vt 0.042154 0.130000
vt 0.457846 0.130000
vt 0.333333 1.000000
vt 0.166667 0.500000
vt 0.166667 1.000000
vt -0.000000 0.500000
vt 0.957846 0.370000
vt 0.750000 0.010000
vt 0.542154 0.370000
vt 1.000000 1.000000
vt 0.833333 0.500000
vt 1.000000 0.500000
vt 0.666667 1.000000
vt 0.666667 0.500000
vt 0.500000 1.000000
vt 0.500000 0.500000
vt 0.333333 1.000000
vt 0.333333 0.500000
vt 0.042154 0.130000
vt 0.250000 0.010000
vt 0.457846 0.370000
vt 0.166667 0.500000
vt 0.166667 1.000000
vt -0.000000 0.500000
vt 0.833333 0.500000
vt 0.333333 0.500000
vt 0.500000 0.500000
vt 0.500000 0.500000
vt 0.166667 0.500000
vt 1.000000 0.500000
vt 0.666667 0.500000
vt -0.000000 0.500000
vt 0.750000 0.010000
vt 0.542154 0.130000
vt 0.957846 0.370000
vt 0.833333 0.500000
vt 0.166667 0.500000
vt 0.333333 0.500000
vt 0.666667 0.500000
vt 1.000000 0.500000
vt -0.000000 0.500000
vt 1.000000 1.000000
vt 0.833333 0.500000
vt 1.000000 0.500000
vt 0.666667 1.000000
vt 0.666667 0.500000
vt 0.500000 1.000000
vt 0.500000 0.500000
vt 0.333333 1.000000
vt 0.333333 0.500000
vt 0.042154 0.130000
vt 0.250000 0.010000
vt 0.457846 0.370000
vt 0.166667 0.500000
vt 0.166667 1.000000
vt -0.000000 0.500000
vt 0.833333 0.500000
vt 0.333333 0.500000
vt 0.500000 0.500000
vt 0.500000 0.500000
vt 0.166667 0.500000
vt 1.000000 0.500000
vt 0.666667 0.500000
vt -0.000000 0.500000
vt 0.750000 0.010000
vt 0.542154 0.130000
vt 0.957846 0.370000
vt 0.833333 0.500000
vt 0.166667 0.500000
vt 0.333333 0.500000
vt 0.666667 0.500000
vt 1.000000 0.500000
vt -0.000000 0.500000
vt 1.000000 1.000000
vt 0.833333 0.500000
vt 1.000000 0.500000
vt 0.666667 1.000000
vt 0.666667 0.500000
vt 0.500000 1.000000
vt 0.500000 0.500000
vt 0.333333 1.000000
vt 0.333333 0.500000
vt 0.042154 0.130000
vt 0.250000 0.010000
vt 0.457846 0.370000
vt 0.166667 0.500000
vt 0.166667 1.000000
vt -0.000000 0.500000
vt 0.833333 0.500000
vt 0.333333 0.500000
vt 0.500000 0.500000
vt 0.500000 0.500000
vt 0.166667 0.500000
vt 1.000000 0.500000
vt 0.666667 0.500000
vt -0.000000 0.500000
vt 0.750000 0.010000
vt 0.542154 0.130000
vt 0.957846 0.370000
vt 0.833333 0.500000
vt 0.166667 0.500000
vt 0.333333 0.500000
vt 0.666667 0.500000
vt 1.000000 0.500000
vt -0.000000 0.500000
vt 0.457846 0.370000
vt 0.042154 0.370000
vt 0.250000 0.010000
vt -0.000000 1.000000
vt 0.750000 0.490000
vt 0.957846 0.130000
vt 0.542154 0.130000
vt 0.833333 1.000000
vt 0.457846 0.130000
vt 0.250000 0.490000
vt 0.042154 0.370000
vt -0.000000 1.000000
vt 0.542154 0.370000
vt 0.750000 0.490000
vt 0.957846 0.130000
vt 0.833333 1.000000
vt 0.457846 0.130000
vt 0.250000 0.490000
vt 0.042154 0.370000
vt -0.000000 1.000000
vt 0.542154 0.370000
vt 0.750000 0.490000
vt 0.957846 0.130000
vt 0.833333 1.000000
vt 0.457846 0.130000
vt 0.250000 0.490000
vt 0.042154 0.370000
vt -0.000000 1.000000
vt 0.542154 0.370000
vt 0.750000 0.490000
vt 0.957846 0.130000
vn 0.0000 0.0000 -1.0000
vn 0.8660 0.0000 -0.5000
vn 0.8660 0.0000 0.5000
vn 0.0000 0.0000 1.0000
vn -0.8660 0.0000 0.5000
vn 0.0000 1.0000 0.0000
vn -0.8660 0.0000 -0.5000
vn 0.0000 -1.0000 0.0000
vn -0.5204 -0.6209 -0.5862
vn 0.4490 -0.7380 -0.5037
vn -0.4994 -0.7197 -0.4824
vn 0.8496 -0.3845 -0.3611
vn 0.8426 -0.4571 -0.2845
vn 0.8798 0.3589 0.3117
vn 0.8811 0.3193 0.3489
vn 0.5469 0.6522 0.5249
vn 0.0308 0.6874 0.7256
vn -0.4935 0.6753 0.5481
vn -0.0039 0.7357 -0.6773
vn -0.8501 0.3514 0.3921
vn -0.8490 0.3951 0.3508
vn -0.8802 -0.3524 -0.3180
vn -0.8726 -0.4217 -0.2465
vn 0.4584 -0.8683 -0.1897
vn -0.4930 0.7948 0.3538
vn 0.5157 0.8305 0.2106
vn 0.5321 0.7767 0.3370
vn -0.9959 -0.0485 0.0768
vn -0.4960 -0.8510 -0.1727
vn 0.9955 -0.0843 0.0425
vn 0.0164 -0.1303 0.9913
vn 0.4816 -0.8763 -0.0131
vn -0.9919 0.0032 0.1268
vn -0.4780 0.8479 0.2293
vn 0.9955 -0.0316 0.0894
vn -0.5121 -0.8589 0.0056
vn -0.2475 -0.6209 0.7438
vn -0.6607 -0.7380 -0.1370
vn -0.1680 -0.7197 0.6737
vn -0.7375 -0.3845 -0.5552
vn -0.6677 -0.4571 -0.5875
vn -0.1699 0.3589 -0.9178
vn -0.1384 0.3193 -0.9375
vn 0.1811 0.6522 -0.7361
vn 0.6130 0.6874 -0.3895
vn 0.7214 0.6753 0.1534
vn -0.5846 0.7357 0.3420
vn 0.7647 0.3514 0.5402
vn 0.7283 0.3951 0.5599
vn 0.1647 -0.3524 0.9212
vn 0.2228 -0.4218 0.8789
vn -0.3935 -0.8683 -0.3021
vn 0.5529 0.7948 0.2500
vn -0.0754 0.8305 -0.5519
vn 0.0258 0.7767 -0.6293
vn 0.5644 -0.0485 0.8241
vn 0.0984 -0.8510 0.5159
vn -0.4610 -0.0843 -0.8834
vn 0.8503 -0.1303 -0.5098
vn -0.2522 -0.8763 -0.4105
vn 0.6058 0.0032 0.7956
vn 0.4376 0.8479 0.2993
vn -0.4203 -0.0316 -0.9068
vn 0.2609 -0.8589 0.4407
vn 0.7679 -0.6209 -0.1576
vn 0.2117 -0.7380 0.6407
vn 0.6674 -0.7197 -0.1913
vn -0.1120 -0.3845 0.9163
vn -0.1749 -0.4571 0.8720
vn -0.7099 0.3589 0.6061
vn -0.7427 0.3193 0.5886
vn -0.7280 0.6522 0.2112
vn -0.6438 0.6874 -0.3361
vn -0.2279 0.6753 -0.7015
vn 0.5885 0.7357 0.3352
vn 0.0855 0.3514 -0.9323
vn 0.1207 0.3951 -0.9107
vn 0.7155 -0.3524 -0.6033
vn 0.6498 -0.4217 -0.6324
vn -0.0649 -0.8683 0.4918
vn -0.0599 0.7948 -0.6039
vn -0.4403 0.8305 0.3413
vn -0.5579 0.7767 0.2923
vn 0.4315 -0.0485 -0.9008
vn 0.3976 -0.8510 -0.3432
vn -0.5346 -0.0843 0.8409
vn -0.8667 -0.1303 -0.4815
vn -0.2294 -0.8763 0.4236
vn 0.3862 0.0032 -0.9224
vn 0.0404 0.8479 -0.5286
vn -0.5752 -0.0316 0.8174
vn 0.2513 -0.8589 -0.4463
vn 0.4676 -0.6391 -0.6107
vn -0.7627 -0.6391 -0.0996
vn 0.8503 -0.1303 -0.5099
vn 0.2951 -0.6391 0.7103
s 1
f 2/1/1 3/2/2 1/3/1
f 4/4/2 5/5/3 3/2/2
f 6/6/3 7/7/4 5/5/3
f 8/8/4 9/9/5 7/7/4
f 2/10/6 10/11/6 6/12/6
f 10/13/5 11/14/7 9/9/5
f 12/15/7 1/16/1 11/14/7
f 3/17/8 7/18/8 11/19/8
f 14/20/9 15/21/10 13/22/11
f 15/21/10 18/23/12 17/24/13
f 17/24/14 20/25/15 19/26/16
f 19/26/16 22/27/17 21/28/18
f 22/29/19 20/30/19 16/31/19
f 22/27/20 23/32/21 21/28/18
f 24/33/22 13/34/11 23/32/23
f 17/24/13 26/35/24 15/21/10
f 29/36/25 34/37/26 28/38/27
f 21/28/18 30/39/28 29/36/25
f 13/22/11 26/35/24 25/40/29
f 19/26/16 27/41/30 17/24/14
f 23/32/23 25/42/29 30/39/28
f 21/28/18 28/38/27 19/26/16
f 34/43/31 35/44/31 32/45/31
f 27/41/30 32/46/32 26/35/24
f 29/36/25 36/47/33 35/48/34
f 28/38/27 33/49/35 27/41/30
f 25/40/29 32/46/32 31/50/36
f 30/39/28 31/51/36 36/47/33
f 38/52/37 39/53/38 37/54/39
f 39/53/38 42/55/40 41/56/41
f 41/56/42 44/57/43 43/58/44
f 43/58/44 46/59/45 45/60/46
f 46/61/47 44/62/47 40/63/47
f 46/59/48 47/64/49 45/60/46
f 48/65/50 37/66/39 47/64/51
f 41/56/41 50/67/52 39/53/38
f 53/68/53 58/69/54 52/70/55
f 45/60/46 54/71/56 53/68/53
f 37/54/39 50/67/52 49/72/57
f 43/58/44 51/73/58 41/56/42
f 47/64/51 49/74/57 54/71/56
f 45/60/46 52/70/55 43/58/44
f 58/75/59 59/76/59 56/77/59
f 51/73/58 56/78/60 50/67/52
f 53/68/53 60/79/61 59/80/62
f 52/70/55 57/81/63 51/73/58
f 49/72/57 56/78/60 55/82/64
f 54/71/56 55/83/64 60/79/61
f 62/84/65 63/85/66 61/86/67
f 63/85/66 66/87/68 65/88/69
f 65/88/70 68/89/71 67/90/72
f 67/90/72 70/91/73 69/92/74
f 70/93/75 68/94/75 64/95/75
f 70/91/76 71/96/77 69/92/74
f 72/97/78 61/98/67 71/96/79
f 65/88/69 74/99/80 63/85/66
f 77/100/81 82/101/82 76/102/83
f 69/92/74 78/103/84 77/100/81
f 61/86/67 74/99/80 73/104/85
f 67/90/72 75/105/86 65/88/70
f 71/96/79 73/106/85 78/103/84
f 69/92/74 76/102/83 67/90/72
f 82/107/87 83/108/87 80/109/87
f 75/105/86 80/110/88 74/99/80
f 77/100/81 84/111/89 83/112/90
f 76/102/83 81/113/91 75/105/86
f 73/104/85 80/110/88 79/114/92
f 78/103/84 79/115/92 84/111/89
f 2/1/1 4/4/2 3/2/2
f 4/4/2 6/6/3 5/5/3
f 6/6/3 8/8/4 7/7/4
f 8/8/4 10/13/5 9/9/5
f 6/12/6 4/116/6 2/10/6
f 2/10/6 12/117/6 10/11/6
f 10/11/6 8/118/6 6/12/6
f 10/13/5 12/15/7 11/14/7
f 12/15/7 2/119/1 1/16/1
f 11/19/8 1/120/8 3/17/8
f 3/17/8 5/121/8 7/18/8
f 7/18/8 9/122/8 11/19/8
f 14/20/9 16/123/93 15/21/10
f 15/21/10 16/123/93 18/23/12
f 17/24/14 18/23/15 20/25/15
f 19/26/16 20/25/17 22/27/17
f 18/124/19 16/31/19 20/30/19
f 16/31/19 14/125/19 22/29/19
f 14/125/19 24/126/19 22/29/19
f 22/27/20 24/33/20 23/32/21
f 24/33/22 14/127/9 13/34/11
f 17/24/13 27/41/30 26/35/24
f 29/36/25 35/48/34 34/37/26
f 21/28/18 23/32/21 30/39/28
f 13/22/11 15/21/10 26/35/24
f 19/26/16 28/38/27 27/41/30
f 23/32/23 13/34/11 25/42/29
f 21/28/18 29/36/25 28/38/27
f 36/128/31 31/129/31 35/44/31
f 31/129/31 32/45/31 35/44/31
f 32/45/31 33/130/31 34/43/31
f 27/41/30 33/49/35 32/46/32
f 29/36/25 30/39/28 36/47/33
f 28/38/27 34/37/26 33/49/35
f 25/40/29 26/35/24 32/46/32
f 30/39/28 25/42/29 31/51/36
f 38/52/37 40/131/94 39/53/38
f 39/53/38 40/131/94 42/55/40
f 41/56/42 42/55/43 44/57/43
f 43/58/44 44/57/45 46/59/45
f 42/132/47 40/63/47 44/62/47
f 40/63/47 38/133/47 46/61/47
f 38/133/47 48/134/47 46/61/47
f 46/59/48 48/65/48 47/64/49
f 48/65/50 38/135/37 37/66/39
f 41/56/41 51/73/58 50/67/52
f 53/68/53 59/80/62 58/69/54
f 45/60/46 47/64/49 54/71/56
f 37/54/39 39/53/38 50/67/52
f 43/58/44 52/70/55 51/73/58
f 47/64/51 37/66/39 49/74/57
f 45/60/46 53/68/53 52/70/55
f 60/136/95 55/137/59 59/76/59
f 55/137/59 56/77/59 59/76/59
f 56/77/59 57/138/95 58/75/59
f 51/73/58 57/81/63 56/78/60
f 53/68/53 54/71/56 60/79/61
f 52/70/55 58/69/54 57/81/63
f 49/72/57 50/67/52 56/78/60
f 54/71/56 49/74/57 55/83/64
f 62/84/65 64/139/96 63/85/66
f 63/85/66 64/139/96 66/87/68
f 65/88/70 66/87/71 68/89/71
f 67/90/72 68/89/73 70/91/73
f 66/140/75 64/95/75 68/94/75
f 64/95/75 62/141/75 70/93/75
f 62/141/75 72/142/75 70/93/75
f 70/91/76 72/97/76 71/96/77
f 72/97/78 62/143/65 61/98/67
f 65/88/69 75/105/86 74/99/80
f 77/100/81 83/112/90 82/101/82
f 69/92/74 71/96/77 78/103/84
f 61/86/67 63/85/66 74/99/80
f 67/90/72 76/102/83 75/105/86
f 71/96/79 61/98/67 73/106/85
f 69/92/74 77/100/81 76/102/83
f 84/144/87 79/145/87 83/108/87
f 79/145/87 80/109/87 83/108/87
f 80/109/87 81/146/87 82/107/87
f 75/105/86 81/113/91 80/110/88
f 77/100/81 78/103/84 84/111/89
f 76/102/83 82/101/82 81/113/91
f 73/104/85 74/99/80 80/110/88
f 78/103/84 73/106/85 79/115/92
