# Blender v3.4.1 OBJ File: 'town.blend'
# www.blender.org
o Sign_Post_Cylinder
v 0.059084 -1.312348 -0.000000
v 0.059084 1.312348 -0.000000
v 0.041779 -1.312348 0.041779
v 0.041779 1.312348 0.041779
v -0.000000 -1.312348 0.059084
v -0.000000 1.312348 0.059084
v -0.041779 -1.312348 0.041779
v -0.041779 1.312348 0.041779
v -0.059084 -1.312348 -0.000000
v -0.059084 1.312348 -0.000000
v -0.041779 -1.312348 -0.041779
v -0.041779 1.312348 -0.041779
v -0.000000 -1.312348 -0.059084
v -0.000000 1.312348 -0.059084
v 0.041779 -1.312348 -0.041779
v 0.041779 1.312348 -0.041779
v -0.121049 -0.358822 0.060190
v -0.150053 -0.329818 0.060190
v -0.132148 -0.356615 0.060190
v -0.141558 -0.350327 0.060190
v -0.147845 -0.340918 0.060190
v -0.150053 0.137804 0.060190
v -0.121049 0.166808 0.060190
v -0.147845 0.148903 0.060190
v -0.141558 0.158313 0.060190
v -0.132148 0.164600 0.060190
v 0.150053 -0.329818 0.060190
v 0.121049 -0.358822 0.060190
v 0.147845 -0.340918 0.060190
v 0.141558 -0.350327 0.060190
v 0.132148 -0.356615 0.060190
v 0.121049 0.166808 0.060190
v 0.150053 0.137804 0.060190
v 0.132148 0.164600 0.060190
v 0.141558 0.158313 0.060190
v 0.147845 0.148903 0.060190
v -0.150053 -0.329818 0.127259
v -0.121049 -0.358822 0.127259
v -0.147845 -0.340918 0.127259
v -0.141558 -0.350327 0.127259
v -0.132148 -0.356615 0.127259
v -0.121049 0.166808 0.127259
v -0.150053 0.137804 0.127259
v -0.132148 0.164600 0.127259
v -0.141558 0.158313 0.127259
v -0.147845 0.148903 0.127259
v 0.121049 -0.358822 0.127259
v 0.150053 -0.329818 0.127259
v 0.132148 -0.356615 0.127259
v 0.141558 -0.350327 0.127259
v 0.147845 -0.340918 0.127259
v 0.150053 0.137804 0.127259
v 0.121049 0.166808 0.127259
v 0.147845 0.148903 0.127259
v 0.141558 0.158313 0.127259
v 0.132148 0.164600 0.127259
vt 1.000000 1.000000
vt 0.875000 0.500000
vt 1.000000 0.500000
vt 0.875000 1.000000
vt 0.750000 0.500000
vt 0.750000 1.000000
vt 0.625000 0.500000
vt 0.625000 1.000000
vt 0.500000 0.500000
vt 0.500000 1.000000
vt 0.375000 0.500000
vt 0.375000 1.000000
vt 0.250000 0.500000
vt 0.419706 0.080294
vt 0.490000 0.250000
vt 0.010000 0.250000
vt 0.250000 1.000000
vt 0.125000 0.500000
vt 0.125000 1.000000
vt 0.000000 0.500000
vt 0.919706 0.080294
vt 0.580294 0.080294
vt 0.580294 0.419706
vt 0.611205 0.750000
vt 0.388795 1.000000
vt 0.388795 0.750000
vt 0.611205 0.500000
vt 0.625000 0.524162
vt 0.875000 0.524162
vt 0.625000 0.725838
vt 0.611205 0.000000
vt 0.625000 0.024162
vt 0.611205 0.250000
vt 0.388795 0.500000
vt 0.388795 0.250000
vt 0.125000 0.524162
vt 0.375000 0.514915
vt 0.375000 0.524162
vt 0.125000 0.514915
vt 0.375000 0.500000
vt 0.375000 0.250000
vt 0.383516 0.500000
vt 0.383516 0.250000
vt 0.875000 0.514915
vt 0.625000 0.514915
vt 0.875000 0.500000
vt 0.625000 0.500000
vt 0.616484 0.250000
vt 0.625000 0.250000
vt 0.616484 0.500000
vt 0.375000 0.725838
vt 0.125000 0.735085
vt 0.125000 0.725838
vt 0.375000 0.735085
vt 0.125000 0.750000
vt 0.375000 0.750000
vt 0.383516 1.000000
vt 0.375000 1.000000
vt 0.383516 0.750000
vt 0.875000 0.725838
vt 0.625000 0.735085
vt 0.875000 0.735085
vt 0.625000 0.750000
vt 0.625000 1.000000
vt 0.616484 0.750000
vt 0.616484 1.000000
vt 0.419706 0.419706
vt 0.250000 0.490000
vt 0.080294 0.419706
vt 0.080294 0.080294
vt 0.250000 0.010000
vt 0.000000 1.000000
vt 0.750000 0.490000
vt 0.919706 0.419706
vt 0.990000 0.250000
vt 0.750000 0.010000
vt 0.510000 0.250000
vt 0.611205 1.000000
vt 0.376050 0.514915
vt 0.383516 0.501839
vt 0.379040 0.507077
vt 0.616484 0.501839
vt 0.620960 0.507077
vt 0.623950 0.514915
vt 0.623950 0.735085
vt 0.620960 0.742923
vt 0.616484 0.748161
vt 0.383516 0.748161
vt 0.379040 0.742923
vt 0.376050 0.735085
vt 0.375000 0.225838
vt 0.375000 0.024162
vt 0.388795 0.000000
vt 0.376050 0.014915
vt 0.383516 0.001839
vt 0.379040 0.007077
vt 0.616484 0.001839
vt 0.620960 0.007077
vt 0.623950 0.014915
vt 0.625000 0.225838
vt 0.623950 0.235085
vt 0.620960 0.242923
vt 0.616484 0.248161
vt 0.383516 0.248161
vt 0.379040 0.242923
vt 0.376050 0.235085
vt 0.125000 0.500000
vt 0.875000 0.750000
vn 1.0000 0.0000 -0.0000
vn 0.7071 0.0000 0.7071
vn -0.0000 0.0000 1.0000
vn -0.7071 0.0000 0.7071
vn -1.0000 0.0000 -0.0000
vn -0.7071 0.0000 -0.7071
vn 0.0000 0.0000 -1.0000
vn 0.0000 1.0000 0.0000
vn 0.7071 0.0000 -0.7071
vn 0.0000 -1.0000 0.0000
vn -0.9952 0.0980 0.0000
vn -0.9952 -0.0980 0.0000
vn 0.0980 0.9952 0.0000
vn -0.0980 0.9952 -0.0000
vn 0.9952 0.0980 0.0000
vn 0.9952 -0.0980 0.0000
vn 0.0980 -0.9952 0.0000
vn 0.3827 -0.9239 0.0000
vn 0.7071 -0.7071 0.0000
vn 0.9239 -0.3827 0.0000
vn 0.3827 0.9239 0.0000
vn 0.7071 0.7071 0.0000
vn 0.9239 0.3827 0.0000
vn -0.0980 -0.9952 0.0000
vn -0.3827 -0.9239 -0.0000
vn -0.7071 -0.7071 0.0000
vn -0.9239 -0.3827 0.0000
vn -0.3827 0.9239 -0.0000
vn -0.7071 0.7071 0.0000
vn -0.9239 0.3827 0.0000
s 1
f 2/1/1 3/2/2 1/3/1
f 4/4/2 5/5/3 3/2/2
f 6/6/3 7/7/4 5/5/3
f 8/8/4 9/9/5 7/7/4
f 10/10/5 11/11/6 9/9/5
f 12/12/6 13/13/7 11/11/6
f 8/14/8 6/15/8 14/16/8
f 14/17/7 15/18/9 13/13/7
f 16/19/9 1/20/1 15/18/9
f 7/21/10 11/22/10 15/23/10
f 43/24/11 18/25/12 37/26/12
f 52/27/3 53/28/3 43/24/3
f 32/29/13 42/30/14 53/28/13
f 22/31/7 23/32/7 33/33/7
f 33/33/15 48/34/16 27/35/16
f 28/36/17 49/37/18 47/38/17
f 31/39/18 50/40/19 49/37/18
f 30/41/19 51/42/20 50/40/19
f 29/43/20 48/34/16 51/42/20
f 53/28/13 34/44/21 32/29/13
f 56/45/21 35/46/22 34/44/21
f 55/47/22 36/48/23 35/49/22
f 54/50/23 33/33/15 36/48/23
f 38/51/24 19/52/25 17/53/24
f 41/54/25 20/55/26 19/52/25
f 40/56/26 21/57/27 20/58/26
f 39/59/27 18/25/12 21/57/27
f 23/60/14 44/61/28 42/30/14
f 26/62/28 45/63/29 44/61/28
f 25/64/29 46/65/30 45/63/29
f 24/66/30 43/24/11 46/65/30
f 47/38/17 17/53/24 28/36/17
f 2/1/1 4/4/2 3/2/2
f 4/4/2 6/6/3 5/5/3
f 6/6/3 8/8/4 7/7/4
f 8/8/4 10/10/5 9/9/5
f 10/10/5 12/12/6 11/11/6
f 12/12/6 14/17/7 13/13/7
f 6/15/8 4/67/8 2/68/8
f 2/68/8 16/69/8 6/15/8
f 16/69/8 14/16/8 6/15/8
f 14/16/8 12/70/8 10/71/8
f 10/71/8 8/14/8 14/16/8
f 14/17/7 16/19/9 15/18/9
f 16/19/9 2/72/1 1/20/1
f 15/23/10 1/73/10 3/74/10
f 3/74/10 5/75/10 7/21/10
f 7/21/10 9/76/10 11/22/10
f 11/22/10 13/77/10 15/23/10
f 15/23/10 3/74/10 7/21/10
f 43/24/11 22/78/11 18/25/12
f 38/51/3 47/38/3 48/34/3
f 47/38/3 49/79/3 51/80/3
f 49/79/3 50/81/3 51/80/3
f 51/80/3 48/34/3 47/38/3
f 48/34/3 52/27/3 37/26/3
f 52/27/3 54/82/3 55/83/3
f 55/83/3 56/84/3 53/28/3
f 53/28/3 42/30/3 43/24/3
f 42/30/3 44/85/3 43/24/3
f 44/85/3 45/86/3 46/87/3
f 46/87/3 43/24/3 44/85/3
f 43/24/3 37/26/3 52/27/3
f 37/26/3 39/88/3 40/89/3
f 40/89/3 41/90/3 37/26/3
f 41/90/3 38/51/3 37/26/3
f 48/34/3 37/26/3 38/51/3
f 52/27/3 55/83/3 53/28/3
f 32/29/13 23/60/14 42/30/14
f 28/91/7 17/92/7 18/93/7
f 17/92/7 19/94/7 21/95/7
f 19/94/7 20/96/7 21/95/7
f 21/95/7 18/93/7 17/92/7
f 18/93/7 22/31/7 27/35/7
f 22/31/7 24/97/7 25/98/7
f 25/98/7 26/99/7 23/32/7
f 23/32/7 32/100/7 33/33/7
f 32/100/7 34/101/7 33/33/7
f 34/101/7 35/102/7 36/103/7
f 36/103/7 33/33/7 34/101/7
f 33/33/7 27/35/7 22/31/7
f 27/35/7 29/104/7 30/105/7
f 30/105/7 31/106/7 27/35/7
f 31/106/7 28/91/7 27/35/7
f 18/93/7 27/35/7 28/91/7
f 22/31/7 25/98/7 23/32/7
f 33/33/15 52/27/15 48/34/16
f 28/36/17 31/39/18 49/37/18
f 31/39/18 30/107/19 50/40/19
f 30/41/19 29/43/20 51/42/20
f 29/43/20 27/35/16 48/34/16
f 53/28/13 56/45/21 34/44/21
f 56/45/21 55/47/22 35/46/22
f 55/47/22 54/50/23 36/48/23
f 54/50/23 52/27/15 33/33/15
f 38/51/24 41/54/25 19/52/25
f 41/54/25 40/56/26 20/55/26
f 40/56/26 39/59/27 21/57/27
f 39/59/27 37/26/12 18/25/12
f 23/60/14 26/62/28 44/61/28
f 26/62/28 25/108/29 45/63/29
f 25/64/29 24/66/30 46/65/30
f 24/66/30 22/78/11 43/24/11
f 47/38/17 38/51/24 17/53/24
