# Blender v3.4.1 OBJ File: 'environment.blend'
# www.blender.org
o Cube_Cube.014
v -0.971523 0.579394 0.336843
v -0.971523 0.611015 0.336843
v -0.971523 0.579394 -0.336843
v -0.971523 0.611015 -0.336843
v 0.971523 0.579394 0.336843
v 0.971523 0.611015 0.336843
v 0.971523 0.579394 -0.336843
v 0.971523 0.611015 -0.336843
v 0.893586 -0.159560 0.327883
v 0.893586 0.596861 0.327883
v 0.893586 -0.159560 0.274671
v 0.893586 0.596861 0.274671
v 0.950557 -0.159560 0.327883
v 0.950557 0.596861 0.327883
v 0.950557 -0.159560 0.274671
v 0.950557 0.596861 0.274671
v -0.966527 -0.159560 0.327883
v -0.966527 0.596861 0.327883
v -0.966527 -0.159560 0.274671
v -0.966527 0.596861 0.274671
v -0.909556 -0.159560 0.327883
v -0.909556 0.596861 0.327883
v -0.909556 -0.159560 0.274671
v -0.909556 0.596861 0.274671
v -0.953756 -0.159560 -0.303659
v -0.953756 0.596861 -0.303659
v -0.953756 -0.159560 -0.356871
v -0.953756 0.596861 -0.356871
v -0.896785 -0.159560 -0.303659
v -0.896785 0.596861 -0.303659
v -0.896785 -0.159560 -0.356871
v -0.896785 0.596861 -0.356871
v 0.901021 -0.159560 -0.303659
v 0.901021 0.596861 -0.303659
v 0.901021 -0.159560 -0.356871
v 0.901021 0.596861 -0.356871
v 0.957992 -0.159560 -0.303659
v 0.957992 0.596861 -0.303659
v 0.957992 -0.159560 -0.356871
v 0.957992 0.596861 -0.356871
v -1.000000 -0.176262 0.317138
v -1.000000 0.146017 0.317138
v -1.000000 -0.176262 0.286051
v -1.000000 0.146017 0.286051
v -0.026979 -0.176262 0.317138
v -0.026979 0.146017 0.317138
v -0.026979 -0.176262 0.286051
v -0.026979 0.146017 0.286051
v 0.013458 -0.176262 0.317137
v 0.013458 0.140233 0.317137
v 0.013458 -0.176262 0.286051
v 0.013458 0.140233 0.286051
v 0.986479 -0.176262 0.317137
v 0.986479 0.140233 0.317137
v 0.986479 -0.176262 0.286051
v 0.986479 0.140233 0.286051
v -1.000000 -0.176262 -0.313544
v -1.000000 0.140233 -0.313544
v -1.000000 -0.176262 -0.344630
v -1.000000 0.140233 -0.344630
v -0.026979 -0.176262 -0.313544
v -0.026979 0.140233 -0.313544
v -0.026979 -0.176262 -0.344630
v -0.026979 0.140233 -0.344630
v 0.013458 -0.176262 -0.313544
v 0.013458 0.147504 -0.313544
v 0.013458 -0.176262 -0.344630
v 0.013458 0.147504 -0.344630
v 0.986479 -0.176262 -0.313544
v 0.986479 0.147504 -0.313544
v 0.986479 -0.176262 -0.344630
v 0.986479 0.147504 -0.344630
v -0.971523 0.784917 0.000000
v 0.971523 0.784917 0.000000
v -0.999699 0.481610 0.332353
v -1.000126 0.513907 0.332353
v -0.999699 0.481610 0.303117
v -1.000126 0.513907 0.303117
v 1.000126 0.508057 0.332353
v 0.999699 0.540353 0.332353
v 1.000126 0.508057 0.303117
v 0.999699 0.540353 0.303117
v -1.000074 0.513667 -0.343931
v -0.999895 0.545966 -0.343931
v -1.000074 0.513667 -0.373167
v -0.999895 0.545966 -0.373167
v 0.999895 0.502588 -0.343931
v 1.000074 0.534887 -0.343931
v 0.999895 0.502588 -0.373167
v 1.000074 0.534887 -0.373167
vt 0.299479 0.776584
vt 0.240244 0.891321
vt 0.229473 0.891321
vt 0.938624 0.661848
vt 0.949395 0.000000
vt 0.949395 0.661848
vt 0.369485 0.776584
vt 0.310250 0.891321
vt 0.299479 0.891321
vt 0.949395 0.661848
vt 0.960166 0.000000
vt 0.960166 0.661848
vt 0.458946 0.661848
vt 0.229473 0.000000
vt 0.458946 0.000000
vt 0.114737 0.661848
vt 0.000000 0.000039
vt 0.114737 0.000000
vt 0.150123 0.919541
vt 0.131998 0.661886
vt 0.150123 0.661886
vt 0.077622 0.919541
vt 0.058217 0.661886
vt 0.077622 0.661886
vt 0.113873 0.919541
vt 0.095748 0.661886
vt 0.113873 0.661886
vt 0.447108 0.919503
vt 0.427702 0.661848
vt 0.447108 0.661848
vt 0.673496 0.701679
vt 0.655371 0.682274
vt 0.673496 0.682274
vt 0.655371 0.662868
vt 0.673496 0.682274
vt 0.655371 0.682274
vt 0.131998 0.919541
vt 0.113873 0.661886
vt 0.131998 0.661886
vt 0.058217 0.919541
vt 0.038811 0.661886
vt 0.058217 0.661886
vt 0.095748 0.919541
vt 0.077622 0.661886
vt 0.095748 0.661886
vt 0.427702 0.919503
vt 0.408296 0.661848
vt 0.427702 0.661848
vt 0.691621 0.682274
vt 0.673496 0.662868
vt 0.691621 0.662868
vt 0.637246 0.662868
vt 0.655371 0.682274
vt 0.637246 0.682274
vt 0.222624 0.919541
vt 0.204499 0.661886
vt 0.222624 0.661886
vt 0.019406 0.919541
vt 0.000000 0.661886
vt 0.019406 0.661886
vt 0.186374 0.919541
vt 0.168249 0.661886
vt 0.186374 0.661886
vt 0.038811 0.919541
vt 0.019406 0.661886
vt 0.038811 0.661886
vt 0.655371 0.701679
vt 0.637246 0.682274
vt 0.655371 0.682274
vt 0.600995 0.682274
vt 0.619120 0.701679
vt 0.600995 0.701679
vt 0.204499 0.919541
vt 0.186374 0.661886
vt 0.204499 0.661886
vt 0.388891 0.919503
vt 0.369485 0.661848
vt 0.388891 0.661848
vt 0.168249 0.919541
vt 0.150123 0.661886
vt 0.168249 0.661886
vt 0.408296 0.919503
vt 0.388891 0.661848
vt 0.408296 0.661848
vt 0.637246 0.682274
vt 0.619120 0.662868
vt 0.637246 0.662868
vt 0.600995 0.662868
vt 0.619120 0.682274
vt 0.600995 0.682274
vt 0.543656 0.772644
vt 0.533068 0.662868
vt 0.543656 0.662868
vt 0.569229 0.331434
vt 0.679005 0.000000
vt 0.679005 0.331434
vt 0.554245 0.772644
vt 0.543657 0.662868
vt 0.554245 0.662868
vt 0.569229 0.662868
vt 0.679005 0.331434
vt 0.679005 0.662868
vt 0.949213 0.993282
vt 0.938625 0.661848
vt 0.949213 0.661848
vt 0.447108 0.661848
vt 0.457696 0.993282
vt 0.447108 0.993282
vt 0.564834 0.770674
vt 0.554245 0.662868
vt 0.564834 0.662868
vt 0.786811 0.331434
vt 0.894617 0.000000
vt 0.894617 0.331434
vt 0.590406 0.770674
vt 0.579818 0.662868
vt 0.590406 0.662868
vt 0.786811 0.662868
vt 0.894617 0.331434
vt 0.894617 0.662868
vt 0.501301 0.994302
vt 0.490713 0.662868
vt 0.501301 0.662868
vt 0.480124 0.662868
vt 0.490713 0.994302
vt 0.480124 0.994302
vt 0.579818 0.770674
vt 0.569229 0.662868
vt 0.579818 0.662868
vt 0.679005 0.331434
vt 0.786811 0.000000
vt 0.786811 0.331434
vt 0.600995 0.770674
vt 0.590406 0.662868
vt 0.600995 0.662868
vt 0.679005 0.662868
vt 0.786811 0.331434
vt 0.786811 0.662868
vt 0.960166 0.993282
vt 0.949578 0.661848
vt 0.960166 0.661848
vt 0.458946 0.662868
vt 0.469535 0.994302
vt 0.458946 0.994302
vt 0.522479 0.773151
vt 0.511890 0.662868
vt 0.522479 0.662868
vt 0.458946 0.331434
vt 0.569229 0.000000
vt 0.569229 0.331434
vt 0.533068 0.773150
vt 0.522479 0.662868
vt 0.533068 0.662868
vt 0.458946 0.662868
vt 0.569229 0.331434
vt 0.569229 0.662868
vt 0.511890 0.994302
vt 0.501302 0.662868
vt 0.469535 0.662868
vt 0.480124 0.994302
vt 0.469535 0.994302
vt 0.229473 0.661886
vt 0.229473 0.000039
vt 0.701580 0.673869
vt 0.691621 0.662868
vt 0.701580 0.662868
vt 0.938624 0.000000
vt 0.927622 0.681247
vt 0.927622 0.000000
vt 0.693413 0.693275
vt 0.683454 0.682274
vt 0.693413 0.682274
vt 0.905619 0.000000
vt 0.894617 0.681247
vt 0.894617 0.000000
vt 0.990042 0.681194
vt 0.980083 0.000000
vt 0.990042 0.000000
vt 0.990042 0.000000
vt 1.000000 0.681194
vt 0.990042 0.681194
vt 0.683455 0.693275
vt 0.673496 0.682274
vt 0.683455 0.682274
vt 0.927622 0.000000
vt 0.916620 0.681247
vt 0.916620 0.000000
vt 0.629079 0.693275
vt 0.619120 0.682274
vt 0.629079 0.682274
vt 0.905618 0.000000
vt 0.916620 0.681247
vt 0.905618 0.681247
vt 0.980083 0.681234
vt 0.970125 0.000000
vt 0.980083 0.000000
vt 0.960166 0.000000
vt 0.970125 0.681234
vt 0.960166 0.681234
vt 0.229473 0.661848
vt 0.240244 0.661848
vt 0.938624 0.000000
vt 0.299479 0.661848
vt 0.310250 0.661848
vt 0.949395 0.000000
vt 0.229473 0.661848
vt 0.000000 0.661886
vt 0.131998 0.919541
vt 0.058217 0.919541
vt 0.095748 0.919541
vt 0.427702 0.919503
vt 0.655371 0.701679
vt 0.673496 0.662868
vt 0.113873 0.919541
vt 0.038811 0.919541
vt 0.077622 0.919541
vt 0.408296 0.919503
vt 0.673496 0.682274
vt 0.655371 0.662868
vt 0.204499 0.919541
vt 0.000000 0.919541
vt 0.168249 0.919541
vt 0.019406 0.919541
vt 0.637246 0.701679
vt 0.619120 0.682274
vt 0.186374 0.919541
vt 0.369485 0.919503
vt 0.150123 0.919541
vt 0.388891 0.919503
vt 0.619120 0.682274
vt 0.619120 0.662868
vt 0.533068 0.772644
vt 0.569229 0.000000
vt 0.543657 0.772644
vt 0.569229 0.331434
vt 0.938624 0.993282
vt 0.457696 0.661848
vt 0.554245 0.770674
vt 0.786811 0.000000
vt 0.579818 0.770674
vt 0.786811 0.331434
vt 0.490713 0.994302
vt 0.490713 0.662868
vt 0.569229 0.770674
vt 0.679005 0.000000
vt 0.590406 0.770674
vt 0.679005 0.331434
vt 0.949578 0.993282
vt 0.469535 0.662868
vt 0.511890 0.773151
vt 0.458946 0.000000
vt 0.522479 0.773150
vt 0.458946 0.331434
vt 0.501301 0.994302
vt 0.480124 0.662868
vt 0.691621 0.673869
vt 0.938624 0.681247
vt 0.683454 0.693275
vt 0.905618 0.681247
vt 0.980083 0.681194
vt 1.000000 0.000000
vt 0.673496 0.693275
vt 0.927622 0.681247
vt 0.619120 0.693275
vt 0.916620 0.000000
vt 0.970125 0.681234
vt 0.970125 0.000000
vn -1.0000 0.0000 0.0000
vn 0.0000 0.0000 -1.0000
vn 1.0000 0.0000 0.0000
vn 0.0000 0.0000 1.0000
vn 0.0000 -1.0000 0.0000
vn 0.0000 0.8886 0.4587
vn 0.0000 1.0000 0.0000
vn 0.0000 0.8886 -0.4587
vn -0.9999 -0.0132 0.0000
vn 0.9999 0.0132 0.0000
vn 0.0132 -0.9999 0.0000
vn -0.0132 0.9999 0.0000
vn -1.0000 0.0055 0.0000
vn 1.0000 -0.0055 0.0000
vn -0.0055 -1.0000 0.0000
vn 0.0055 1.0000 0.0000
s off
f 73/1/1 4/2/1 3/3/1
f 4/4/2 7/5/2 3/6/2
f 74/7/3 6/8/3 5/9/3
f 6/10/4 1/11/4 5/12/4
f 7/13/5 1/14/5 3/15/5
f 73/16/6 6/17/6 74/18/6
f 10/19/1 11/20/1 9/21/1
f 12/22/2 15/23/2 11/24/2
f 16/25/3 13/26/3 15/27/3
f 14/28/4 9/29/4 13/30/4
f 15/31/5 9/32/5 11/33/5
f 12/34/7 14/35/7 16/36/7
f 18/37/1 19/38/1 17/39/1
f 20/40/2 23/41/2 19/42/2
f 24/43/3 21/44/3 23/45/3
f 22/46/4 17/47/4 21/48/4
f 23/49/5 17/50/5 19/51/5
f 20/52/7 22/53/7 24/54/7
f 26/55/1 27/56/1 25/57/1
f 28/58/2 31/59/2 27/60/2
f 32/61/3 29/62/3 31/63/3
f 30/64/4 25/65/4 29/66/4
f 31/67/5 25/68/5 27/69/5
f 28/70/7 30/71/7 32/72/7
f 34/73/1 35/74/1 33/75/1
f 36/76/2 39/77/2 35/78/2
f 40/79/3 37/80/3 39/81/3
f 38/82/4 33/83/4 37/84/4
f 39/85/5 33/86/5 35/87/5
f 36/88/7 38/89/7 40/90/7
f 42/91/1 43/92/1 41/93/1
f 44/94/2 47/95/2 43/96/2
f 48/97/3 45/98/3 47/99/3
f 46/100/4 41/101/4 45/102/4
f 47/103/5 41/104/5 43/105/5
f 44/106/7 46/107/7 48/108/7
f 50/109/1 51/110/1 49/111/1
f 52/112/2 55/113/2 51/114/2
f 56/115/3 53/116/3 55/117/3
f 54/118/4 49/119/4 53/120/4
f 55/121/5 49/122/5 51/123/5
f 52/124/7 54/125/7 56/126/7
f 58/127/1 59/128/1 57/129/1
f 60/130/2 63/131/2 59/132/2
f 64/133/3 61/134/3 63/135/3
f 62/136/4 57/137/4 61/138/4
f 63/139/5 57/140/5 59/141/5
f 60/142/7 62/143/7 64/144/7
f 66/145/1 67/146/1 65/147/1
f 68/148/2 71/149/2 67/150/2
f 72/151/3 69/152/3 71/153/3
f 70/154/4 65/155/4 69/156/4
f 71/157/5 65/158/5 67/146/5
f 68/159/7 70/160/7 72/161/7
f 4/162/8 74/18/8 8/163/8
f 76/164/9 77/165/9 75/166/9
f 78/167/2 81/168/2 77/169/2
f 82/170/10 79/171/10 81/172/10
f 80/173/4 75/174/4 79/175/4
f 81/176/11 75/177/11 77/178/11
f 78/179/12 80/180/12 82/181/12
f 84/182/13 85/183/13 83/184/13
f 86/185/2 89/186/2 85/187/2
f 90/188/14 87/189/14 89/190/14
f 87/191/4 84/192/4 83/193/4
f 89/194/15 83/195/15 85/196/15
f 86/197/16 88/198/16 90/199/16
f 3/3/1 1/200/1 73/1/1
f 1/200/1 2/201/1 73/1/1
f 4/4/2 8/202/2 7/5/2
f 5/9/3 7/203/3 74/7/3
f 7/203/3 8/204/3 74/7/3
f 6/10/4 2/205/4 1/11/4
f 7/13/5 5/206/5 1/14/5
f 73/16/6 2/207/6 6/17/6
f 10/19/1 12/208/1 11/20/1
f 12/22/2 16/209/2 15/23/2
f 16/25/3 14/210/3 13/26/3
f 14/28/4 10/211/4 9/29/4
f 15/31/5 13/212/5 9/32/5
f 12/34/7 10/213/7 14/35/7
f 18/37/1 20/214/1 19/38/1
f 20/40/2 24/215/2 23/41/2
f 24/43/3 22/216/3 21/44/3
f 22/46/4 18/217/4 17/47/4
f 23/49/5 21/218/5 17/50/5
f 20/52/7 18/219/7 22/53/7
f 26/55/1 28/220/1 27/56/1
f 28/58/2 32/221/2 31/59/2
f 32/61/3 30/222/3 29/62/3
f 30/64/4 26/223/4 25/65/4
f 31/67/5 29/224/5 25/68/5
f 28/70/7 26/225/7 30/71/7
f 34/73/1 36/226/1 35/74/1
f 36/76/2 40/227/2 39/77/2
f 40/79/3 38/228/3 37/80/3
f 38/82/4 34/229/4 33/83/4
f 39/85/5 37/230/5 33/86/5
f 36/88/7 34/231/7 38/89/7
f 42/91/1 44/232/1 43/92/1
f 44/94/2 48/233/2 47/95/2
f 48/97/3 46/234/3 45/98/3
f 46/100/4 42/235/4 41/101/4
f 47/103/5 45/236/5 41/104/5
f 44/106/7 42/237/7 46/107/7
f 50/109/1 52/238/1 51/110/1
f 52/112/2 56/239/2 55/113/2
f 56/115/3 54/240/3 53/116/3
f 54/118/4 50/241/4 49/119/4
f 55/121/5 53/242/5 49/122/5
f 52/124/7 50/243/7 54/125/7
f 58/127/1 60/244/1 59/128/1
f 60/130/2 64/245/2 63/131/2
f 64/133/3 62/246/3 61/134/3
f 62/136/4 58/247/4 57/137/4
f 63/139/5 61/248/5 57/140/5
f 60/142/7 58/249/7 62/143/7
f 66/145/1 68/250/1 67/146/1
f 68/148/2 72/251/2 71/149/2
f 72/151/3 70/252/3 69/152/3
f 70/154/4 66/253/4 65/155/4
f 71/157/5 69/254/5 65/158/5
f 68/159/7 66/255/7 70/160/7
f 4/162/8 73/16/8 74/18/8
f 76/164/9 78/256/9 77/165/9
f 78/167/2 82/257/2 81/168/2
f 82/170/10 80/258/10 79/171/10
f 80/173/4 76/259/4 75/174/4
f 81/176/11 79/260/11 75/177/11
f 78/179/12 76/261/12 80/180/12
f 84/182/13 86/262/13 85/183/13
f 86/185/2 90/263/2 89/186/2
f 90/188/14 88/264/14 87/189/14
f 87/191/4 88/265/4 84/192/4
f 89/194/15 87/266/15 83/195/15
f 86/197/16 84/267/16 88/198/16
