# Blender v3.4.1 OBJ File: 'flags.blend'
# www.blender.org
o Triangle_Flag_Plane.002
v -0.001853 1.003441 -0.998760
v -0.001853 -1.203768 -0.038943
v -0.001853 1.003441 1.001240
v -0.001853 -1.203768 0.041423
v -0.001853 1.003441 0.501240
v -0.001853 1.003441 0.001240
v -0.001853 1.003441 -0.498760
v -0.001853 0.167515 -0.740929
v -0.001853 -0.558693 -0.416086
v -0.001853 -0.997803 -0.171868
v -0.001853 -1.203768 -0.018851
v -0.001853 -1.203768 0.001240
v -0.001853 -1.203768 0.021332
v -0.001853 -0.997803 0.174349
v -0.001853 -0.558693 0.418566
v -0.001853 0.167515 0.743410
v -0.001853 0.167515 -0.369845
v -0.001853 0.167515 0.001240
v -0.001853 0.167515 0.372325
v -0.001853 -0.558693 -0.207423
v -0.001853 -0.558693 0.001240
v -0.001853 -0.558693 0.209903
v -0.001853 -0.997803 -0.085314
v -0.001853 -0.997803 0.001240
v -0.001853 -0.997803 0.087795
v 0.017164 1.003441 1.001240
v 0.017164 -1.203768 0.041423
v 0.017164 1.003441 -0.998760
v 0.017164 -1.203768 -0.038943
v 0.017164 1.003441 -0.498760
v 0.017164 1.003441 0.001240
v 0.017164 1.003441 0.501240
v 0.017164 0.167515 0.743410
v 0.017164 -0.558693 0.418566
v 0.017164 -0.997803 0.174349
v 0.017164 -1.203768 0.021332
v 0.017164 -1.203768 0.001240
v 0.017164 -1.203768 -0.018851
v 0.017164 -0.997803 -0.171868
v 0.017164 -0.558693 -0.416086
v 0.017164 0.167515 -0.740929
v 0.017164 0.167515 0.372325
v 0.017164 0.167515 0.001240
v 0.017164 0.167515 -0.369845
v 0.017164 -0.558693 0.209903
v 0.017164 -0.558693 0.001240
v 0.017164 -0.558693 -0.207423
v 0.017164 -0.997803 0.087795
v 0.017164 -0.997803 0.001240
v 0.017164 -0.997803 -0.085314
vt 0.750000 0.750000
vt 1.000000 1.000000
vt 0.750000 1.000000
vt 0.000000 0.750000
vt 0.250000 1.000000
vt 0.000000 1.000000
vt 0.250000 0.750000
vt 0.500000 1.000000
vt 0.500000 0.750000
vt 0.250000 0.000000
vt 0.000000 0.250000
vt 0.000000 0.000000
vt 0.250000 0.250000
vt 0.000000 0.500000
vt 0.500000 0.000000
vt 0.500000 0.250000
vt 0.250000 0.500000
vt 0.750000 0.000000
vt 0.750000 0.250000
vt 0.500000 0.500000
vt 1.000000 0.000000
vt 1.000000 0.250000
vt 0.750000 0.500000
vt 1.000000 0.750000
vt 0.750000 0.750000
vt 1.000000 1.000000
vt 0.750000 1.000000
vt 0.000000 0.750000
vt 0.250000 1.000000
vt 0.000000 1.000000
vt 0.250000 0.750000
vt 0.500000 1.000000
vt 0.500000 0.750000
vt 0.250000 0.000000
vt 0.000000 0.250000
vt 0.000000 0.000000
vt 0.250000 0.250000
vt 0.000000 0.500000
vt 0.500000 0.000000
vt 0.500000 0.250000
vt 0.250000 0.500000
vt 0.750000 0.000000
vt 0.750000 0.250000
vt 0.500000 0.500000
vt 1.000000 0.000000
vt 1.000000 0.250000
vt 0.750000 0.500000
vt 1.000000 0.750000
vt 1.000000 0.500000
vt 1.000000 0.500000
vn -1.0000 0.0000 0.0000
vn 1.0000 0.0000 0.0000
s off
f 25/1/1 4/2/1 14/3/1
f 5/4/1 16/5/1 3/6/1
f 19/7/1 15/8/1 16/5/1
f 22/9/1 14/3/1 15/8/1
f 8/10/1 7/11/1 1/12/1
f 17/13/1 6/14/1 7/11/1
f 6/14/1 19/7/1 5/4/1
f 9/15/1 17/13/1 8/10/1
f 20/16/1 18/17/1 17/13/1
f 18/17/1 22/9/1 19/7/1
f 10/18/1 20/16/1 9/15/1
f 23/19/1 21/20/1 20/16/1
f 21/20/1 25/1/1 22/9/1
f 2/21/1 23/19/1 10/18/1
f 11/22/1 24/23/1 23/19/1
f 24/23/1 13/24/1 25/1/1
f 50/25/2 29/26/2 39/27/2
f 30/28/2 41/29/2 28/30/2
f 44/31/2 40/32/2 41/29/2
f 47/33/2 39/27/2 40/32/2
f 33/34/2 32/35/2 26/36/2
f 42/37/2 31/38/2 32/35/2
f 31/38/2 44/31/2 30/28/2
f 34/39/2 42/37/2 33/34/2
f 45/40/2 43/41/2 42/37/2
f 43/41/2 47/33/2 44/31/2
f 35/42/2 45/40/2 34/39/2
f 48/43/2 46/44/2 45/40/2
f 46/44/2 50/25/2 47/33/2
f 27/45/2 48/43/2 35/42/2
f 36/46/2 49/47/2 48/43/2
f 49/47/2 38/48/2 50/25/2
f 25/1/1 13/24/1 4/2/1
f 5/4/1 19/7/1 16/5/1
f 19/7/1 22/9/1 15/8/1
f 22/9/1 25/1/1 14/3/1
f 8/10/1 17/13/1 7/11/1
f 17/13/1 18/17/1 6/14/1
f 6/14/1 18/17/1 19/7/1
f 9/15/1 20/16/1 17/13/1
f 20/16/1 21/20/1 18/17/1
f 18/17/1 21/20/1 22/9/1
f 10/18/1 23/19/1 20/16/1
f 23/19/1 24/23/1 21/20/1
f 21/20/1 24/23/1 25/1/1
f 2/21/1 11/22/1 23/19/1
f 11/22/1 12/49/1 24/23/1
f 24/23/1 12/49/1 13/24/1
f 50/25/2 38/48/2 29/26/2
f 30/28/2 44/31/2 41/29/2
f 44/31/2 47/33/2 40/32/2
f 47/33/2 50/25/2 39/27/2
f 33/34/2 42/37/2 32/35/2
f 42/37/2 43/41/2 31/38/2
f 31/38/2 43/41/2 44/31/2
f 34/39/2 45/40/2 42/37/2
f 45/40/2 46/44/2 43/41/2
f 43/41/2 46/44/2 47/33/2
f 35/42/2 48/43/2 45/40/2
f 48/43/2 49/47/2 46/44/2
f 46/44/2 49/47/2 50/25/2
f 27/45/2 36/46/2 48/43/2
f 36/46/2 37/50/2 49/47/2
f 49/47/2 37/50/2 38/48/2
