# Blender v3.4.1 OBJ File: 'environment.blend'
# www.blender.org
o Vent_Piece_LoD_Cube.003
v -0.993387 -0.999999 0.986775
v -0.993387 1.000000 0.986775
v -0.993387 -0.999999 -0.986775
v -0.986775 1.000000 -0.993387
v 0.993387 -0.999999 0.986775
v 0.993387 1.000000 0.986775
v 0.993387 -0.999999 -0.986775
v 0.986775 1.000000 -0.993387
vt 0.330033 0.460050
vt 0.000000 0.229253
vt 0.330033 0.229254
vt 0.903336 0.330033
vt 0.674082 0.660066
vt 0.674082 0.330033
vt 0.671786 0.002910
vt 0.997090 0.328214
vt 0.671786 0.327123
vt 0.330033 0.000000
vt 0.000000 0.000000
vt 0.900764 0.660066
vt 0.669967 0.990099
vt 0.669967 0.660066
vt 0.327123 0.461869
vt 0.002910 0.788264
vt 0.002910 0.461869
vt 0.000000 0.460050
vt 0.903336 0.660066
vt 0.997090 0.001819
vt 0.899221 0.990099
vt 0.327123 0.788264
vn 0.0000 0.0000 1.0000
vn 1.0000 0.0000 0.0000
vn 0.0000 1.0000 0.0000
vn -1.0000 0.0033 -0.0033
vn 0.0000 -0.0033 -1.0000
vn 0.0000 -1.0000 0.0000
vn 1.0000 0.0033 -0.0033
vn -1.0000 0.0000 0.0000
s off
f 5/1/1 2/2/1 1/3/1
f 7/4/2 6/5/2 5/6/2
f 4/7/3 6/8/3 8/9/3
f 3/10/4 2/2/4 4/11/4
f 3/12/5 8/13/5 7/14/5
f 5/15/6 3/16/6 7/17/6
f 5/1/1 6/18/1 2/2/1
f 7/4/7 8/19/7 6/5/7
f 4/7/3 2/20/3 6/8/3
f 3/10/8 1/3/8 2/2/8
f 3/12/5 4/21/5 8/13/5
f 5/15/6 1/22/6 3/16/6
