# Blender v3.4.1 OBJ File: 'environment.blend'
# www.blender.org
o Vent_Piece_Cube.001
v -0.971346 -1.000000 1.000000
v -1.000000 -1.000000 0.971346
v -1.000000 1.000000 0.971346
v -0.971346 1.000000 1.000000
v -1.000000 -1.000000 -0.971346
v -0.971346 -1.000000 -1.000000
v -0.971346 1.000000 -1.000000
v -1.000000 1.000000 -0.971346
v 1.000000 -1.000000 0.971346
v 0.971346 -1.000000 1.000000
v 0.971346 1.000000 1.000000
v 1.000000 1.000000 0.971346
v 0.971346 -1.000000 -1.000000
v 1.000000 -1.000000 -0.971346
v 1.000000 1.000000 -0.971346
v 0.971346 1.000000 -1.000000
vt 0.625000 0.753582
vt 0.375000 0.996418
vt 0.375000 0.753582
vt 0.625000 0.503582
vt 0.375000 0.746418
vt 0.375000 0.503582
vt 0.875000 0.503582
vt 0.871418 0.750000
vt 0.625000 0.746418
vt 0.625000 0.003582
vt 0.375000 0.246418
vt 0.375000 0.003582
vt 0.625000 0.253582
vt 0.375000 0.496418
vt 0.375000 0.253582
vt 0.625000 0.000000
vt 0.375000 0.000000
vt 0.625000 0.246418
vt 0.625000 0.496418
vt 0.371418 0.750000
vt 0.125000 0.746418
vt 0.625000 0.996418
vt 0.628582 0.500000
vt 0.871418 0.500000
vt 0.875000 0.746418
vt 0.628582 0.750000
vt 0.125000 0.503582
vt 0.128582 0.500000
vt 0.371418 0.500000
vt 0.128582 0.750000
vn 0.0000 0.0000 1.0000
vn 1.0000 0.0000 0.0000
vn 0.0000 1.0000 0.0000
vn -1.0000 0.0000 0.0000
vn 0.0000 0.0000 -1.0000
vn -0.7071 0.0000 0.7071
vn -0.7071 0.0000 -0.7071
vn 0.7071 0.0000 -0.7071
vn 0.7071 0.0000 0.7071
vn 0.0000 -1.0000 0.0000
s off
f 11/1/1 1/2/1 10/3/1
f 15/4/2 9/5/2 14/6/2
f 8/7/3 4/8/3 12/9/3
f 3/10/4 5/11/4 2/12/4
f 7/13/5 13/14/5 6/15/5
f 4/16/6 2/12/6 1/17/6
f 6/15/7 8/18/7 7/13/7
f 14/6/8 16/19/8 15/4/8
f 10/3/9 12/9/9 11/1/9
f 14/6/10 10/20/10 2/21/10
f 11/1/1 4/22/1 1/2/1
f 15/4/2 12/9/2 9/5/2
f 12/9/3 15/4/3 16/23/3
f 16/23/3 7/24/3 8/7/3
f 8/7/3 3/25/3 4/8/3
f 4/8/3 11/26/3 12/9/3
f 12/9/3 16/23/3 8/7/3
f 3/10/4 8/18/4 5/11/4
f 7/13/5 16/19/5 13/14/5
f 4/16/6 3/10/6 2/12/6
f 6/15/7 5/11/7 8/18/7
f 14/6/8 13/14/8 16/19/8
f 10/3/9 9/5/9 12/9/9
f 2/21/10 5/27/10 6/28/10
f 6/28/10 13/29/10 14/6/10
f 14/6/10 9/5/10 10/20/10
f 10/20/10 1/30/10 2/21/10
f 2/21/10 6/28/10 14/6/10
