# Blender v3.4.1 OBJ File: 'environment.blend'
# www.blender.org
o Cube_Cube.002
v -1.030000 0.928548 1.030000
v -1.030000 1.019696 1.030000
v -1.030000 0.928548 -1.030000
v -1.030000 1.019696 -1.030000
v 1.030000 0.928548 1.030000
v 1.030000 1.019696 1.030000
v 1.030000 0.928548 -1.030000
v 1.030000 1.019696 -1.030000
v -0.971346 -0.999999 1.000000
v -1.000000 -0.999999 0.971346
v -1.000000 1.000000 0.971346
v -0.971346 1.000000 1.000000
v -1.000000 -0.999999 -0.971346
v -0.971346 -0.999999 -1.000000
v -0.971346 1.000000 -1.000000
v -1.000000 1.000000 -0.971346
v 1.000000 -0.999999 0.971346
v 0.971346 -0.999999 1.000000
v 0.971346 1.000000 1.000000
v 1.000000 1.000000 0.971346
v 0.971346 -0.999999 -1.000000
v 1.000000 -0.999999 -0.971346
v 1.000000 1.000000 -0.971346
v 0.971346 1.000000 -1.000000
vt 0.918377 0.570403
vt 0.903336 0.810772
vt 0.903336 0.570403
vt 0.360115 0.679868
vt 0.345074 0.920238
vt 0.345074 0.679868
vt 0.345074 0.679868
vt 0.330033 0.920238
vt 0.330033 0.679868
vt 0.918377 0.330033
vt 0.903336 0.330033
vt 0.669967 0.000000
vt 0.330033 0.339934
vt 0.330033 0.000000
vt 0.669967 0.339934
vt 0.330033 0.679868
vt 0.330033 0.339934
vt 0.000000 0.460050
vt 0.330033 0.233369
vt 0.330033 0.460050
vt 0.903336 0.660066
vt 0.676654 0.330033
vt 0.903336 0.330033
vt 0.674695 0.000000
vt 1.000000 0.004728
vt 0.995272 0.330033
vt 0.000000 0.226681
vt 0.330033 0.000000
vt 0.330033 0.226682
vt 0.896649 0.990099
vt 0.669967 0.660066
vt 0.896649 0.660066
vt 0.000000 0.233369
vt 0.903336 0.990099
vt 0.918377 0.330033
vt 0.925064 0.660066
vt 0.918377 0.660066
vt 0.669967 0.330033
vt 0.676654 0.660066
vt 0.669967 0.660066
vt 0.004728 0.460050
vt 0.330033 0.464778
vt 0.325305 0.790083
vt 0.918377 0.810772
vt 0.360115 0.920238
vt 0.345074 0.920238
vt 0.669967 0.339934
vt 0.669967 0.679868
vt 0.674695 0.330033
vt 0.669967 0.325305
vt 0.669967 0.004728
vt 0.995272 0.000000
vt 1.000000 0.325305
vt 0.000000 0.000000
vt 0.669967 0.990099
vt 0.903336 0.660066
vt 0.925064 0.330033
vt 0.004728 0.790083
vt 0.000000 0.785355
vt 0.000000 0.464778
vt 0.325305 0.460050
vt 0.330033 0.785355
vn -1.0000 0.0000 0.0000
vn 0.0000 0.0000 -1.0000
vn 1.0000 0.0000 0.0000
vn 0.0000 0.0000 1.0000
vn 0.0000 -1.0000 0.0000
vn 0.0000 1.0000 0.0000
vn -0.7071 0.0000 0.7071
vn -0.7071 0.0000 -0.7071
vn 0.7071 0.0000 -0.7071
vn 0.7071 0.0000 0.7071
s off
f 2/1/1 3/2/1 1/3/1
f 4/4/2 7/5/2 3/6/2
f 8/7/3 5/8/3 7/9/3
f 6/10/4 1/3/4 5/11/4
f 7/12/5 1/13/5 3/14/5
f 4/15/6 6/16/6 8/17/6
f 19/18/4 9/19/4 18/20/4
f 23/21/3 17/22/3 22/23/3
f 16/24/6 12/25/6 20/26/6
f 11/27/1 13/28/1 10/29/1
f 15/30/2 21/31/2 14/32/2
f 12/33/7 10/29/7 9/19/7
f 14/32/8 16/34/8 15/30/8
f 22/35/9 24/36/9 23/37/9
f 18/38/10 20/39/10 19/40/10
f 22/41/5 18/42/5 10/43/5
f 2/1/1 4/44/1 3/2/1
f 4/4/2 8/45/2 7/5/2
f 8/7/3 6/46/3 5/8/3
f 6/10/4 2/1/4 1/3/4
f 7/12/5 5/47/5 1/13/5
f 4/15/6 2/48/6 6/16/6
f 19/18/4 12/33/4 9/19/4
f 23/21/3 20/39/3 17/22/3
f 20/26/6 23/49/6 24/50/6
f 24/50/6 15/51/6 16/24/6
f 16/24/6 11/52/6 12/25/6
f 12/25/6 19/53/6 20/26/6
f 20/26/6 24/50/6 16/24/6
f 11/27/1 16/54/1 13/28/1
f 15/30/2 24/55/2 21/31/2
f 12/33/7 11/27/7 10/29/7
f 14/32/8 13/56/8 16/34/8
f 22/35/9 21/57/9 24/36/9
f 18/38/10 17/22/10 20/39/10
f 10/43/5 13/58/5 14/59/5
f 14/59/5 21/60/5 22/41/5
f 22/41/5 17/61/5 18/42/5
f 18/42/5 9/62/5 10/43/5
f 10/43/5 14/59/5 22/41/5
