# Blender v3.4.1 OBJ File: 'environment.blend'
# www.blender.org
o Cube_Cube.005
v -0.276852 -0.973198 0.042388
v -0.250050 -1.000000 0.042388
v -0.250050 1.000000 0.042388
v -0.276852 0.973198 0.042388
v -0.250050 -1.000000 -0.042388
v -0.276852 -0.973198 -0.042388
v -0.276852 0.973198 -0.042388
v -0.250050 1.000000 -0.042388
v 0.250050 -1.000000 0.042388
v 0.276852 -0.973198 0.042388
v 0.276852 0.973198 0.042388
v 0.250050 1.000000 0.042388
v 0.276852 -0.973198 -0.042388
v 0.250050 -1.000000 -0.042388
v 0.250050 1.000000 -0.042388
v 0.276852 0.973198 -0.042388
v -0.337491 -1.062088 0.018572
v -0.337491 1.062088 0.018572
v -0.337491 -1.062088 -0.018572
v -0.337491 1.062088 -0.018572
v 0.337491 -1.062088 0.018572
v 0.337491 1.062088 0.018572
v 0.337491 -1.062088 -0.018572
v 0.337491 1.062088 -0.018572
vt 0.704746 0.009922
vt 0.714669 0.000000
vt 0.909730 0.009922
vt 0.941114 0.654461
vt 0.909730 0.144945
vt 0.941114 0.144945
vt 0.941114 0.849522
vt 0.909730 0.664383
vt 0.941114 0.664383
vt 0.972499 0.523548
vt 0.941114 0.014032
vt 0.972499 0.014032
vt 0.499763 0.009922
vt 0.509685 0.000000
vt 0.704746 0.009922
vt 0.972499 0.000000
vt 0.941114 0.000000
vt 0.909730 0.859444
vt 0.909730 0.849522
vt 0.941114 0.130913
vt 0.909730 0.130913
vt 0.909730 0.000000
vt 1.000000 0.556054
vt 0.986249 0.000000
vt 1.000000 0.000000
vt 0.499762 0.786378
vt 0.249881 0.000000
vt 0.499763 0.000000
vt 0.986249 0.732746
vt 0.972499 0.176693
vt 0.986249 0.176693
vt 0.249881 0.786378
vt 0.000000 0.000000
vt 0.249881 0.000000
vt 0.972499 0.000000
vt 0.954865 0.773429
vt 0.941114 0.523548
vt 0.954865 0.523548
vt 0.899807 0.000000
vt 0.909730 0.730486
vt 0.704746 0.730486
vt 0.899807 0.740408
vt 0.714669 0.740408
vt 0.909730 0.654461
vt 0.941114 0.523548
vt 0.694824 0.000000
vt 0.704746 0.730486
vt 0.499763 0.730486
vt 0.694824 0.740408
vt 0.509685 0.740408
vt 0.941114 0.859444
vt 0.986249 0.556054
vt 0.249881 0.786378
vt 0.972499 0.732746
vt 0.000000 0.786378
vt 0.941114 0.773429
vn 0.0000 0.0000 1.0000
vn 1.0000 0.0000 0.0000
vn 0.0000 1.0000 0.0000
vn -1.0000 0.0000 0.0000
vn 0.0000 0.0000 -1.0000
vn -0.7071 -0.7071 0.0000
vn -0.7071 0.7071 0.0000
vn 0.7071 -0.7071 0.0000
vn 0.7071 0.7071 0.0000
vn 0.0000 -1.0000 0.0000
s off
f 1/1/1 2/2/1 10/3/1
f 16/4/2 10/5/2 13/6/2
f 8/7/3 12/8/3 15/9/3
f 4/10/4 6/11/4 1/12/4
f 13/13/5 14/14/5 6/15/5
f 2/16/6 6/11/6 5/17/6
f 8/7/7 4/18/7 3/19/7
f 14/20/8 10/5/8 9/21/8
f 12/8/9 16/4/9 15/9/9
f 14/20/10 2/22/10 5/17/10
f 18/23/4 19/24/4 17/25/4
f 20/26/5 23/27/5 19/28/5
f 24/29/2 21/30/2 23/31/2
f 22/32/1 17/33/1 21/34/1
f 23/31/10 17/35/10 19/24/10
f 20/36/3 22/37/3 24/38/3
f 2/2/1 9/39/1 10/3/1
f 10/3/1 11/40/1 4/41/1
f 11/40/1 12/42/1 4/41/1
f 12/42/1 3/43/1 4/41/1
f 4/41/1 1/1/1 10/3/1
f 16/4/2 11/44/2 10/5/2
f 8/7/3 3/19/3 12/8/3
f 4/10/4 7/45/4 6/11/4
f 14/14/5 5/46/5 6/15/5
f 6/15/5 7/47/5 16/48/5
f 7/47/5 8/49/5 16/48/5
f 8/49/5 15/50/5 16/48/5
f 16/48/5 13/13/5 6/15/5
f 2/16/6 1/12/6 6/11/6
f 8/7/7 7/51/7 4/18/7
f 14/20/8 13/6/8 10/5/8
f 12/8/9 11/44/9 16/4/9
f 14/20/10 9/21/10 2/22/10
f 18/23/4 20/52/4 19/24/4
f 20/26/5 24/53/5 23/27/5
f 24/29/2 22/54/2 21/30/2
f 22/32/1 18/55/1 17/33/1
f 23/31/10 21/30/10 17/35/10
f 20/36/3 18/56/3 22/37/3
