# Blender v3.4.1 OBJ File: 'flags.blend'
# www.blender.org
o Vertical_Banner_LoD_Plane.007
v -0.170395 -1.000000 -0.002175
v 0.170395 1.000000 -0.002175
v -0.170395 1.000000 -0.002175
v -0.170395 0.750000 -0.002175
v -0.170395 0.500000 -0.002175
v -0.170395 0.250000 -0.002175
v -0.170395 0.000000 -0.002175
v -0.170395 -0.250000 -0.002175
v -0.170395 -0.500000 -0.002175
v -0.170395 -0.750000 -0.002175
v 0.170395 -1.000000 -0.002175
v 0.170395 -0.750000 -0.002175
v 0.170395 -0.500000 -0.002175
v 0.170395 -0.250000 -0.002175
v 0.170395 0.000000 -0.002175
v 0.170395 0.250000 -0.002175
v 0.170395 0.500000 -0.002175
v 0.170395 0.750000 -0.002175
v 0.015975 0.750000 -0.002175
v 0.015975 0.500000 -0.002175
v -0.095847 0.250000 -0.002175
v 0.063898 0.250000 -0.002175
v -0.095847 0.000000 -0.002175
v 0.063898 0.000000 -0.002175
v -0.005325 -0.250000 -0.002175
v -0.015975 -0.500000 -0.002175
v -0.095847 -0.750000 -0.002175
v 0.063898 -0.750000 -0.002175
v -0.170395 -1.000000 0.003815
v 0.170395 1.000000 0.003815
v -0.170395 1.000000 0.003815
v -0.170395 0.750000 0.003815
v -0.170395 0.500000 0.003815
v -0.170395 0.250000 0.003815
v -0.170395 0.000000 0.003815
v -0.170395 -0.250000 0.003815
v -0.170395 -0.500000 0.003815
v -0.170395 -0.750000 0.003815
v 0.170395 -1.000000 0.003815
v 0.170395 -0.750000 0.003815
v 0.170395 -0.500000 0.003815
v 0.170395 -0.250000 0.003815
v 0.170395 0.000000 0.003815
v 0.170395 0.250000 0.003815
v 0.170395 0.500000 0.003815
v 0.170395 0.750000 0.003815
v -0.063898 0.750000 0.003815
v 0.095847 0.750000 0.003815
v -0.015975 0.500000 0.003815
v -0.063898 0.250000 0.003815
v 0.095847 0.250000 0.003815
v -0.106497 0.000000 0.003815
v 0.058573 0.000000 0.003815
v 0.005325 -0.250000 0.003815
v -0.095847 -0.500000 0.003815
v 0.079873 -0.500000 0.003815
v -0.095847 -0.750000 0.003815
v 0.063898 -0.750000 0.003815
vt 0.587004 0.135000
vt 0.587004 0.010000
vt 0.533755 0.135000
vt 0.587004 1.010000
vt 0.509793 0.885000
vt 0.416608 1.010000
vt 0.533755 0.510000
vt 0.499144 0.385000
vt 0.453882 0.510000
vt 0.453882 0.135000
vt 0.416608 0.010000
vt 0.416608 0.135000
vt 0.587004 0.010000
vt 0.587004 0.135000
vt 0.533755 0.135000
vt 0.549730 0.885000
vt 0.587004 1.010000
vt 0.416608 1.010000
vt 0.493819 0.760000
vt 0.469857 0.885000
vt 0.531093 0.510000
vt 0.549730 0.635000
vt 0.469857 0.635000
vt 0.504468 0.385000
vt 0.448557 0.510000
vt 0.416608 0.010000
vt 0.453882 0.135000
vt 0.416608 0.135000
vt 0.587004 0.885000
vt 0.533755 0.635000
vt 0.587004 0.760000
vt 0.587004 0.635000
vt 0.587004 0.510000
vt 0.587004 0.385000
vt 0.587004 0.260000
vt 0.493819 0.260000
vt 0.416608 0.885000
vt 0.509793 0.760000
vt 0.416608 0.760000
vt 0.453882 0.635000
vt 0.416608 0.635000
vt 0.416608 0.510000
vt 0.416608 0.385000
vt 0.416608 0.260000
vt 0.587004 0.760000
vt 0.587004 0.885000
vt 0.587004 0.635000
vt 0.587004 0.510000
vt 0.587004 0.385000
vt 0.541742 0.260000
vt 0.587004 0.260000
vt 0.416608 0.760000
vt 0.416608 0.885000
vt 0.416608 0.635000
vt 0.416608 0.385000
vt 0.453882 0.260000
vt 0.416608 0.260000
vt 0.416608 0.510000
vn 0.0000 -0.0000 -1.0000
vn -0.0000 0.0000 1.0000
s off
f 12/1/1 11/2/1 28/3/1
f 2/4/1 19/5/1 3/6/1
f 24/7/1 25/8/1 23/9/1
f 27/10/1 1/11/1 10/12/1
f 28/3/1 1/11/1 27/10/1
f 39/13/2 40/14/2 58/15/2
f 48/16/2 30/17/2 31/18/2
f 49/19/2 48/16/2 47/20/2
f 53/21/2 51/22/2 50/23/2
f 54/24/2 53/21/2 52/25/2
f 29/26/2 57/27/2 38/28/2
f 39/13/2 58/15/2 57/27/2
f 2/4/1 18/29/1 19/5/1
f 22/30/1 17/31/1 16/32/1
f 22/30/1 15/33/1 24/7/1
f 24/7/1 14/34/1 25/8/1
f 25/8/1 13/35/1 26/36/1
f 28/3/1 13/35/1 12/1/1
f 4/37/1 20/38/1 5/39/1
f 3/6/1 19/5/1 4/37/1
f 5/39/1 21/40/1 6/41/1
f 19/5/1 17/31/1 20/38/1
f 6/41/1 23/9/1 7/42/1
f 20/38/1 22/30/1 21/40/1
f 21/40/1 24/7/1 23/9/1
f 8/43/1 23/9/1 25/8/1
f 8/43/1 26/36/1 9/44/1
f 9/44/1 27/10/1 10/12/1
f 48/16/2 45/45/2 46/46/2
f 26/36/1 28/3/1 27/10/1
f 28/3/1 11/2/1 1/11/1
f 48/16/2 46/46/2 30/17/2
f 45/45/2 51/22/2 44/47/2
f 51/22/2 43/48/2 44/47/2
f 53/21/2 42/49/2 43/48/2
f 42/49/2 56/50/2 41/51/2
f 56/50/2 40/14/2 41/51/2
f 47/20/2 33/52/2 49/19/2
f 32/53/2 47/20/2 31/18/2
f 47/20/2 48/16/2 31/18/2
f 33/52/2 50/23/2 49/19/2
f 34/54/2 52/25/2 50/23/2
f 50/23/2 51/22/2 49/19/2
f 52/25/2 36/55/2 54/24/2
f 52/25/2 53/21/2 50/23/2
f 36/55/2 55/56/2 54/24/2
f 37/57/2 57/27/2 55/56/2
f 55/56/2 56/50/2 54/24/2
f 55/56/2 58/15/2 56/50/2
f 29/26/2 39/13/2 57/27/2
f 22/30/1 20/38/1 17/31/1
f 22/30/1 16/32/1 15/33/1
f 24/7/1 15/33/1 14/34/1
f 25/8/1 14/34/1 13/35/1
f 28/3/1 26/36/1 13/35/1
f 4/37/1 19/5/1 20/38/1
f 5/39/1 20/38/1 21/40/1
f 19/5/1 18/29/1 17/31/1
f 6/41/1 21/40/1 23/9/1
f 21/40/1 22/30/1 24/7/1
f 8/43/1 7/42/1 23/9/1
f 8/43/1 25/8/1 26/36/1
f 9/44/1 26/36/1 27/10/1
f 48/16/2 49/19/2 45/45/2
f 45/45/2 49/19/2 51/22/2
f 51/22/2 53/21/2 43/48/2
f 53/21/2 54/24/2 42/49/2
f 42/49/2 54/24/2 56/50/2
f 56/50/2 58/15/2 40/14/2
f 47/20/2 32/53/2 33/52/2
f 33/52/2 34/54/2 50/23/2
f 34/54/2 35/58/2 52/25/2
f 52/25/2 35/58/2 36/55/2
f 36/55/2 37/57/2 55/56/2
f 37/57/2 38/28/2 57/27/2
f 55/56/2 57/27/2 58/15/2
