# Blender v3.4.1 OBJ File: 'town.blend'
# www.blender.org
o Wall_Lamp_Bulb_Cylinder.005
v 0.568910 -1.277496 -0.241366
v 0.568910 -0.759533 -0.135112
v 0.750952 -1.277496 -0.165961
v 0.675820 -0.759533 -0.090829
v 0.826357 -1.277496 0.016081
v 0.720103 -0.759533 0.016081
v 0.750952 -1.277496 0.198123
v 0.675820 -0.759533 0.122991
v 0.568910 -1.277496 0.273527
v 0.568910 -0.759533 0.167274
v 0.386868 -1.277496 0.198123
v 0.462000 -0.759533 0.122991
v 0.311464 -1.277496 0.016081
v 0.417717 -0.759533 0.016081
v 0.386868 -1.277496 -0.165961
v 0.462000 -0.759533 -0.090829
v 0.568910 -1.417437 -0.231398
v 0.743904 -1.417437 -0.158913
v 0.816389 -1.417437 0.016081
v 0.743904 -1.417437 0.191075
v 0.568910 -1.417437 0.263559
v 0.393916 -1.417437 0.191075
v 0.321432 -1.417437 0.016081
v 0.393916 -1.417437 -0.158913
v 0.568910 -1.483068 -0.179719
v 0.707362 -1.483068 -0.122370
v 0.764710 -1.483068 0.016081
v 0.707362 -1.483068 0.154532
v 0.568910 -1.483068 0.211881
v 0.430459 -1.483068 0.154532
v 0.373110 -1.483068 0.016081
v 0.430459 -1.483068 -0.122370
v 0.568910 -1.504792 -0.097998
v 0.649576 -1.504792 -0.064585
v 0.682989 -1.504792 0.016081
v 0.649576 -1.504792 0.096746
v 0.568910 -1.504792 0.130159
v 0.488245 -1.504792 0.096746
v 0.454832 -1.504792 0.016081
v 0.488245 -1.504792 -0.064585
vt 1.000000 1.000000
vt 0.875000 0.500000
vt 1.000000 0.500000
vt 0.875000 1.000000
vt 0.750000 0.500000
vt 0.750000 1.000000
vt 0.625000 0.500000
vt 0.625000 1.000000
vt 0.500000 0.500000
vt 0.500000 1.000000
vt 0.375000 0.500000
vt 0.375000 1.000000
vt 0.250000 0.500000
vt 0.010000 0.250000
vt 0.250000 0.010000
vt 0.490000 0.250000
vt 0.250000 1.000000
vt 0.125000 0.500000
vt 0.125000 1.000000
vt 0.000000 0.500000
vt 0.625000 0.500000
vt 0.750000 0.500000
vt 0.875000 0.500000
vt 0.875000 0.500000
vt 0.125000 0.500000
vt 0.250000 0.500000
vt 0.375000 0.500000
vt 0.500000 0.500000
vt 0.000000 0.500000
vt 1.000000 0.500000
vt 0.000000 0.500000
vt 0.125000 0.500000
vt 0.125000 0.500000
vt 0.250000 0.500000
vt 0.500000 0.500000
vt 0.750000 0.500000
vt 1.000000 0.500000
vt 0.375000 0.500000
vt 0.625000 0.500000
vt 0.919706 0.080294
vt 0.580294 0.080294
vt 0.580294 0.419706
vt 0.375000 0.500000
vt 0.625000 0.500000
vt 0.875000 0.500000
vt 0.250000 0.500000
vt 0.500000 0.500000
vt 0.750000 0.500000
vt 1.000000 0.500000
vt 0.419706 0.419706
vt 0.250000 0.490000
vt 0.080294 0.419706
vt 0.080294 0.080294
vt 0.419706 0.080294
vt 0.000000 1.000000
vt 0.000000 0.500000
vt 0.750000 0.490000
vt 0.919706 0.419706
vt 0.990000 0.250000
vt 0.750000 0.010000
vt 0.510000 0.250000
vn -0.0000 0.2010 -0.9796
vn 0.7057 0.0635 -0.7057
vn 0.0000 0.0635 -0.9980
vn 0.6927 0.2010 -0.6927
vn 0.9980 0.0635 -0.0000
vn 0.9796 0.2010 0.0000
vn 0.7057 0.0635 0.7057
vn 0.6927 0.2010 0.6927
vn 0.0000 0.0635 0.9980
vn 0.0000 0.2010 0.9796
vn -0.7057 0.0635 0.7057
vn -0.6927 0.2010 0.6927
vn -0.9980 0.0635 0.0000
vn 0.0000 1.0000 0.0000
vn -0.9796 0.2010 -0.0000
vn -0.7057 0.0635 -0.7057
vn -0.6927 0.2010 -0.6927
vn 0.6653 -0.3387 0.6653
vn 0.9409 -0.3387 0.0000
vn 0.4241 -0.8002 -0.4241
vn 0.6653 -0.3387 -0.6653
vn -0.6653 -0.3387 -0.6653
vn -0.9409 -0.3387 0.0000
vn -0.6653 -0.3387 0.6653
vn 0.0000 -0.3387 0.9409
vn -0.0000 -0.3387 -0.9409
vn -0.0000 -0.8002 -0.5998
vn -0.1139 -0.9869 -0.1139
vn -0.4241 -0.8002 -0.4241
vn -0.5998 -0.8002 0.0000
vn 0.0000 -0.8002 0.5998
vn 0.5998 -0.8002 -0.0000
vn -0.4241 -0.8002 0.4241
vn 0.4241 -0.8002 0.4241
vn 0.1139 -0.9869 0.1139
vn -0.1139 -0.9869 0.1139
vn 0.1139 -0.9869 -0.1139
vn -0.1611 -0.9869 0.0000
vn 0.0000 -0.9869 0.1611
vn 0.1611 -0.9869 0.0000
vn 0.0000 -0.9869 -0.1611
s 1
f 2/1/1 3/2/2 1/3/3
f 4/4/4 5/5/5 3/2/2
f 6/6/6 7/7/7 5/5/5
f 8/8/8 9/9/9 7/7/7
f 10/10/10 11/11/11 9/9/9
f 12/12/12 13/13/13 11/11/11
f 14/14/14 10/15/14 6/16/14
f 14/17/15 15/18/16 13/13/13
f 16/19/17 1/20/3 15/18/16
f 9/9/9 20/21/18 7/7/7
f 19/22/19 26/23/20 18/24/21
f 13/13/13 24/25/22 23/26/23
f 5/5/5 18/24/21 3/2/2
f 9/9/9 22/27/24 21/28/25
f 15/18/16 17/29/26 24/25/22
f 3/2/2 17/30/26 1/3/3
f 7/7/7 19/22/19 5/5/5
f 13/13/13 22/27/24 11/11/11
f 25/31/27 40/32/28 32/33/29
f 24/25/22 31/34/30 23/26/23
f 22/27/24 29/35/31 21/28/25
f 20/21/18 27/36/32 19/22/19
f 18/24/21 25/37/27 17/30/26
f 17/29/26 32/33/29 24/25/22
f 23/26/23 30/38/33 22/27/24
f 21/28/25 28/39/34 20/21/18
f 36/40/35 38/41/36 40/42/28
f 31/34/30 38/43/36 30/38/33
f 29/35/31 36/44/35 28/39/34
f 27/36/32 34/45/37 26/23/20
f 31/34/30 40/32/28 39/46/38
f 30/38/33 37/47/39 29/35/31
f 27/36/32 36/44/35 35/48/40
f 26/23/20 33/49/41 25/37/27
f 2/1/1 4/4/4 3/2/2
f 4/4/4 6/6/6 5/5/5
f 6/6/6 8/8/8 7/7/7
f 8/8/8 10/10/10 9/9/9
f 10/10/10 12/12/12 11/11/11
f 12/12/12 14/17/15 13/13/13
f 6/16/14 4/50/14 2/51/14
f 2/51/14 16/52/14 14/14/14
f 14/14/14 12/53/14 10/15/14
f 10/15/14 8/54/14 6/16/14
f 6/16/14 2/51/14 14/14/14
f 14/17/15 16/19/17 15/18/16
f 16/19/17 2/55/1 1/20/3
f 9/9/9 21/28/25 20/21/18
f 19/22/19 27/36/32 26/23/20
f 13/13/13 15/18/16 24/25/22
f 5/5/5 19/22/19 18/24/21
f 9/9/9 11/11/11 22/27/24
f 15/18/16 1/20/3 17/29/26
f 3/2/2 18/24/21 17/30/26
f 7/7/7 20/21/18 19/22/19
f 13/13/13 23/26/23 22/27/24
f 25/31/27 33/56/41 40/32/28
f 24/25/22 32/33/29 31/34/30
f 22/27/24 30/38/33 29/35/31
f 20/21/18 28/39/34 27/36/32
f 18/24/21 26/23/20 25/37/27
f 17/29/26 25/31/27 32/33/29
f 23/26/23 31/34/30 30/38/33
f 21/28/25 29/35/31 28/39/34
f 40/42/28 33/57/41 34/58/37
f 34/58/37 35/59/40 36/40/35
f 36/40/35 37/60/39 38/41/36
f 38/41/36 39/61/38 40/42/28
f 40/42/28 34/58/37 36/40/35
f 31/34/30 39/46/38 38/43/36
f 29/35/31 37/47/39 36/44/35
f 27/36/32 35/48/40 34/45/37
f 31/34/30 32/33/29 40/32/28
f 30/38/33 38/43/36 37/47/39
f 27/36/32 28/39/34 36/44/35
f 26/23/20 34/45/37 33/49/41
