# Blender v3.4.1 OBJ File: 'environment.blend'
# www.blender.org
o Waterfall_1_Cylinder
v 0.086578 -1.406796 0.087999
v 0.086578 -1.250712 0.087999
v 0.241595 -1.406796 0.133517
v 0.241595 -1.250712 0.133517
v 0.347395 -1.406796 0.255617
v 0.347395 -1.250712 0.255617
v 0.370388 -1.406796 0.415534
v 0.370388 -1.250712 0.415534
v 0.303273 -1.406796 0.562496
v 0.303273 -1.250712 0.562496
v 0.167358 -1.406796 0.649842
v 0.167358 -1.250712 0.649842
v 0.005797 -1.406796 0.649842
v 0.005797 -1.250712 0.649842
v -0.130118 -1.406796 0.562496
v -0.130118 -1.250712 0.562496
v -0.197233 -1.406796 0.415534
v -0.197233 -1.250712 0.415534
v -0.174240 -1.406796 0.255617
v -0.174240 -1.250712 0.255617
v -0.068440 -1.406796 0.133517
v -0.068440 -1.250712 0.133517
v 0.223421 -0.836822 0.121103
v 0.086578 -0.836822 0.080922
v 0.316817 -0.836822 0.228888
v 0.337114 -0.836822 0.370057
v 0.277867 -0.836822 0.499789
v 0.157888 -0.836822 0.576895
v 0.015267 -0.836822 0.576895
v -0.104712 -0.836822 0.499789
v -0.163959 -0.836822 0.370057
v -0.143662 -0.836822 0.228888
v -0.050266 -0.836822 0.121103
v 0.212659 -0.444344 0.090322
v 0.104521 -0.451511 0.048377
v 0.280768 -0.421648 0.181705
v 0.287222 -0.390629 0.293512
v 0.229973 -0.361136 0.390246
v 0.127198 -0.342531 0.441194
v 0.011525 -0.340723 0.430180
v -0.080319 -0.356285 0.360702
v -0.119174 -0.384276 0.254818
v -0.092705 -0.415809 0.146145
v -0.009315 -0.440873 0.069187
v 0.209314 0.047265 -0.021583
v 0.122165 0.036606 -0.054178
v 0.264203 0.076134 0.048594
v 0.269404 0.114046 0.134073
v 0.223268 0.148965 0.207714
v 0.140440 0.169804 0.246138
v 0.047219 0.169947 0.237144
v -0.026798 0.149349 0.183589
v -0.058112 0.114549 0.102475
v -0.036780 0.076596 0.019556
v 0.030424 0.047540 -0.038842
v 0.214545 0.517140 -0.208266
v 0.140856 0.505831 -0.234966
v 0.260956 0.546476 -0.151202
v 0.265354 0.584524 -0.081892
v 0.226343 0.619204 -0.022342
v 0.156309 0.639507 0.008542
v 0.077486 0.638985 0.000955
v 0.014901 0.617805 -0.042696
v -0.011576 0.582690 -0.108550
v 0.006461 0.544791 -0.175700
v 0.063285 0.516139 -0.222826
v 0.207479 1.012459 -0.438267
v 0.161548 1.002883 -0.453595
v 0.236407 1.036106 -0.406013
v 0.239148 1.066314 -0.367075
v 0.214833 1.093494 -0.333814
v 0.171180 1.109016 -0.316791
v 0.122049 1.107952 -0.321411
v 0.083040 1.090640 -0.346206
v 0.066536 1.062575 -0.383305
v 0.077779 1.032669 -0.420928
v 0.113198 1.010417 -0.447131
v 0.206883 1.344533 -0.665400
v 0.175929 1.335375 -0.673430
v 0.226378 1.366060 -0.649182
v 0.228226 1.393120 -0.629926
v 0.211839 1.417123 -0.613745
v 0.182420 1.430447 -0.605777
v 0.149310 1.428863 -0.608551
v 0.123021 1.412873 -0.621187
v 0.111899 1.387553 -0.639672
v 0.119476 1.360944 -0.658139
v 0.143345 1.341492 -0.670723
v 0.207717 1.590911 -0.941829
v 0.188288 1.585163 -0.946869
v 0.219954 1.604423 -0.931649
v 0.221113 1.621408 -0.919562
v 0.210828 1.636474 -0.909406
v 0.192362 1.644837 -0.904405
v 0.171580 1.643843 -0.906146
v 0.155079 1.633806 -0.914077
v 0.148098 1.617914 -0.925680
v 0.152853 1.601212 -0.937271
v 0.167836 1.589003 -0.945170
vt 1.000000 1.000000
vt 0.909091 0.500000
vt 1.000000 0.500000
vt 0.909091 1.000000
vt 0.818182 0.500000
vt 0.818182 1.000000
vt 0.727273 0.500000
vt 0.727273 1.000000
vt 0.636364 0.500000
vt 0.636364 1.000000
vt 0.545454 0.500000
vt 0.545454 1.000000
vt 0.454545 0.500000
vt 0.454545 1.000000
vt 0.363636 0.500000
vt 0.363636 1.000000
vt 0.272727 0.500000
vt 0.272727 1.000000
vt 0.181818 0.500000
vt -0.000000 1.000000
vt 0.090909 1.000000
vt -0.000000 1.000000
vt 0.181818 1.000000
vt 0.090909 0.500000
vt 0.090909 1.000000
vt -0.000000 0.500000
vt 0.879754 0.451901
vt 0.987557 0.215844
vt 0.817616 0.019722
vt 0.363636 1.000000
vt 0.454545 1.000000
vt 0.363636 1.000000
vt 0.818182 1.000000
vt 0.181818 1.000000
vt 0.272727 1.000000
vt 0.454545 1.000000
vt 0.545454 1.000000
vt 0.636364 1.000000
vt 0.909091 1.000000
vt 0.727273 1.000000
vt 0.818182 1.000000
vt 0.909091 1.000000
vt 0.818182 1.000000
vt 0.727273 1.000000
vt 0.636364 1.000000
vt 0.090909 1.000000
vt -0.000000 1.000000
vt 1.000000 1.000000
vt 0.909091 1.000000
vt 0.272727 1.000000
vt 0.545454 1.000000
vt 0.181818 1.000000
vt 0.272727 1.000000
vt 0.181818 1.000000
vt 0.181818 1.000000
vt 0.454545 1.000000
vt 0.727273 1.000000
vt 0.090909 1.000000
vt 0.363636 1.000000
vt 0.636364 1.000000
vt -0.000000 1.000000
vt 1.000000 1.000000
vt 0.545454 1.000000
vt 0.636364 1.000000
vt 0.727273 1.000000
vt 0.636364 1.000000
vt 0.454545 1.000000
vt 0.818182 1.000000
vt 0.727273 1.000000
vt 0.090909 1.000000
vt 0.363636 1.000000
vt -0.000000 1.000000
vt 1.000000 1.000000
vt 0.909091 1.000000
vt 0.272727 1.000000
vt 0.545454 1.000000
vt 0.545454 1.000000
vt 0.454545 1.000000
vt 0.454545 1.000000
vt -0.000000 1.000000
vt 1.000000 1.000000
vt 0.909091 1.000000
vt 0.272727 1.000000
vt 0.818182 1.000000
vt 0.181818 1.000000
vt 0.090909 1.000000
vt 0.363636 1.000000
vt 0.363636 1.000000
vt 0.363636 1.000000
vt 0.818182 1.000000
vt 0.727273 1.000000
vt 0.090909 1.000000
vt 0.636364 1.000000
vt -0.000000 1.000000
vt 1.000000 1.000000
vt 0.909091 1.000000
vt 0.272727 1.000000
vt 0.545454 1.000000
vt 0.181818 1.000000
vt 0.250000 0.490000
vt 0.068620 0.092833
vt 0.487557 0.215844
vt 0.727273 1.000000
vt 0.636364 1.000000
vt -0.000000 1.000000
vt 1.000000 1.000000
vt 0.909091 1.000000
vt 0.272727 1.000000
vt 0.545454 1.000000
vt 0.818182 1.000000
vt 0.181818 1.000000
vt 0.454545 1.000000
vt 0.090909 1.000000
vt 0.620246 0.451901
vt 0.750000 0.490000
vt 0.968312 0.349700
vt 0.931380 0.092833
vt 0.682384 0.019722
vt 0.568620 0.092833
vt 0.512443 0.215844
vt 0.531688 0.349700
vt 1.000000 1.000000
vt 0.468312 0.349700
vt 0.379754 0.451901
vt 0.120246 0.451901
vt 0.031688 0.349700
vt 0.012443 0.215844
vt 0.182384 0.019722
vt 0.317616 0.019722
vt 0.431380 0.092833
vn -0.0000 -0.0086 -1.0000
vn 0.5406 0.0000 -0.8413
vn 0.0000 0.0000 -1.0000
vn 0.5446 -0.0005 -0.8387
vn 0.9096 0.0000 -0.4154
vn 0.9127 0.0208 -0.4082
vn 0.9898 0.0000 0.1423
vn 0.9875 0.0478 0.1504
vn 0.7557 0.0000 0.6549
vn 0.7497 0.0718 0.6579
vn 0.2817 0.0000 0.9595
vn 0.2785 0.0855 0.9566
vn -0.2817 0.0000 0.9595
vn -0.2785 0.0855 0.9566
vn -0.7557 0.0000 0.6549
vn -0.7497 0.0718 0.6579
vn -0.9898 0.0000 0.1423
vn -0.9875 0.0478 0.1504
vn -0.9096 0.0000 -0.4154
vn -0.5444 -0.0339 -0.8381
vn 0.0003 -0.0574 -0.9984
vn -0.9127 0.0208 -0.4082
vn -0.5406 0.0000 -0.8413
vn -0.5446 -0.0005 -0.8387
vn 0.0000 -1.0000 0.0000
vn -0.7412 0.1775 0.6473
vn -0.3607 0.3134 0.8785
vn -0.8021 0.2444 0.5449
vn 0.9116 0.0413 -0.4090
vn -0.9122 0.0296 -0.4087
vn -0.9830 0.1091 0.1477
vn -0.2738 0.2163 0.9372
vn 0.2742 0.2169 0.9369
vn 0.7413 0.1795 0.6467
vn 0.5478 -0.0262 -0.8362
vn 0.9827 0.1150 0.1450
vn 0.9421 -0.0107 -0.3353
vn 0.6182 -0.2334 -0.7506
vn 0.9455 -0.0889 -0.3134
vn 0.9701 0.1231 0.2090
vn 0.6891 0.2436 0.6825
vn -0.4631 -0.1034 -0.8802
vn 0.0884 -0.1399 -0.9862
vn 0.6167 -0.1066 -0.7799
vn -0.9915 0.1265 0.0316
vn 0.1935 0.3128 0.9299
vn -0.8658 -0.0035 -0.5003
vn -0.9929 0.1173 0.0216
vn -0.8653 -0.1207 -0.4864
vn -0.8667 -0.0762 -0.4929
vn -0.3600 0.3952 0.8451
vn 0.9710 0.1039 0.2153
vn -0.4617 -0.2258 -0.8578
vn -0.8025 0.2931 0.5196
vn 0.6901 0.2831 0.6661
vn 0.0925 -0.2842 -0.9543
vn 0.1945 0.3916 0.8994
vn 0.6920 0.3614 0.6249
vn 0.9705 0.1643 0.1766
vn 0.6895 0.4435 0.5726
vn -0.3597 0.4957 0.7905
vn 0.9443 -0.1185 -0.3070
vn 0.9716 0.1322 0.1961
vn -0.4616 -0.3116 -0.8305
vn -0.8023 0.3590 0.4770
vn 0.0912 -0.3825 -0.9194
vn 0.6162 -0.3105 -0.7238
vn -0.9916 0.1293 0.0015
vn 0.1961 0.4967 0.8455
vn 0.1948 0.6042 0.7727
vn -0.3600 0.7086 0.6069
vn -0.3582 0.5963 0.7184
vn 0.0940 -0.4780 -0.8733
vn 0.6178 -0.3838 -0.6863
vn -0.9904 0.1366 -0.0190
vn 0.9449 -0.1446 -0.2937
vn -0.8634 -0.1696 -0.4752
vn -0.4584 -0.3984 -0.7945
vn -0.8003 0.4223 0.4255
vn -0.8028 0.5150 0.3006
vn -0.8011 0.4811 0.3560
vn 0.9465 -0.2072 -0.2473
vn 0.9687 0.1889 0.1609
vn -0.4535 -0.5578 -0.6951
vn 0.6821 0.5378 0.4955
vn 0.0966 -0.6460 -0.7572
vn 0.6182 -0.5177 -0.5914
vn -0.9932 0.1132 -0.0274
vn 0.1882 0.7293 0.6578
vn -0.8630 -0.2765 -0.4229
vn 0.0407 0.5775 -0.8154
vn 0.9710 0.1987 0.1328
vn 0.6897 0.5826 0.4299
vn 0.0921 -0.7372 -0.6693
vn 0.6176 -0.5881 -0.5223
vn -0.9933 0.1092 -0.0378
vn 0.1942 0.7938 0.5763
vn 0.9454 -0.2383 -0.2226
vn -0.8673 -0.3213 -0.3802
vn -0.3603 0.7688 0.5284
vn -0.4623 -0.6376 -0.6163
vn 0.0407 0.5774 -0.8154
s 1
f 2/1/1 3/2/2 1/3/3
f 4/4/4 5/5/5 3/2/2
f 6/6/6 7/7/7 5/5/5
f 8/8/8 9/9/9 7/7/7
f 10/10/10 11/11/11 9/9/9
f 12/12/12 13/13/13 11/11/11
f 14/14/14 15/15/15 13/13/13
f 16/16/16 17/17/17 15/15/15
f 18/18/18 19/19/19 17/17/17
f 2/20/1 33/21/20 24/22/21
f 20/23/22 21/24/23 19/19/19
f 22/25/24 1/26/3 21/24/23
f 3/27/25 7/28/25 11/29/25
f 30/30/26 40/31/27 41/32/28
f 4/4/4 25/33/29 6/6/6
f 22/25/24 32/34/30 33/21/20
f 20/23/22 31/35/31 32/34/30
f 18/18/18 30/30/26 31/35/31
f 16/16/16 29/36/32 30/30/26
f 14/14/14 28/37/33 29/36/32
f 10/10/10 28/37/33 12/12/12
f 8/8/8 27/38/34 10/10/10
f 2/1/1 23/39/35 4/4/4
f 6/6/6 26/40/36 8/8/8
f 36/41/37 45/42/38 47/43/39
f 27/38/34 37/44/40 38/45/41
f 24/22/21 44/46/42 35/47/43
f 23/39/35 35/48/43 34/49/44
f 31/35/31 41/32/28 42/50/45
f 28/37/33 38/45/41 39/51/46
f 23/39/35 36/41/37 25/33/29
f 32/34/30 42/50/45 43/52/47
f 29/36/32 39/51/46 40/31/27
f 25/33/29 37/44/40 26/40/36
f 33/21/20 43/52/47 44/46/42
f 53/53/48 65/54/49 54/55/50
f 42/50/45 54/55/50 43/52/47
f 39/51/46 51/56/51 40/31/27
f 37/44/40 47/43/39 48/57/52
f 43/52/47 55/58/53 44/46/42
f 40/31/27 52/59/54 41/32/28
f 38/45/41 48/57/52 49/60/55
f 44/46/42 46/61/56 35/47/43
f 34/49/44 46/62/56 45/42/38
f 41/32/28 53/53/48 42/50/45
f 39/51/46 49/60/55 50/63/57
f 60/64/58 70/65/59 71/66/60
f 50/63/57 62/67/61 51/56/51
f 48/57/52 58/68/62 59/69/63
f 54/55/50 66/70/64 55/58/53
f 51/56/51 63/71/65 52/59/54
f 49/60/55 59/69/63 60/64/58
f 55/58/53 57/72/66 46/61/56
f 45/42/38 57/73/66 56/74/67
f 52/59/54 64/75/68 53/53/48
f 50/63/57 60/64/58 61/76/69
f 47/43/39 56/74/67 58/68/62
f 72/77/70 84/78/71 73/79/72
f 66/70/64 68/80/73 57/72/66
f 56/74/67 68/81/73 67/82/74
f 63/71/65 75/83/75 64/75/68
f 61/76/69 71/66/60 72/77/70
f 58/68/62 67/82/74 69/84/76
f 64/75/68 76/85/77 65/54/49
f 61/76/69 73/79/72 62/67/61
f 59/69/63 69/84/76 70/65/59
f 65/54/49 77/86/78 66/70/64
f 62/67/61 74/87/79 63/71/65
f 84/78/71 96/88/80 85/89/81
f 70/65/59 80/90/82 81/91/83
f 76/85/77 88/92/84 77/86/78
f 73/79/72 85/89/81 74/87/79
f 71/66/60 81/91/83 82/93/85
f 77/86/78 79/94/86 68/80/73
f 67/82/74 79/95/86 78/96/87
f 74/87/79 86/97/88 75/83/75
f 72/77/70 82/93/85 83/98/89
f 69/84/76 78/96/87 80/90/82
f 75/83/75 87/99/90 76/85/77
f 90/100/91 96/101/91 92/102/91
f 82/93/85 92/103/92 93/104/93
f 88/92/84 90/105/94 79/94/86
f 78/96/87 90/106/94 89/107/95
f 85/89/81 97/108/96 86/97/88
f 83/98/89 93/104/93 94/109/97
f 80/90/82 89/107/95 91/110/98
f 86/97/88 98/111/99 87/99/90
f 83/98/89 95/112/100 84/78/71
f 81/91/83 91/110/98 92/103/92
f 87/99/90 99/113/101 88/92/84
f 2/1/1 4/4/4 3/2/2
f 4/4/4 6/6/6 5/5/5
f 6/6/6 8/8/8 7/7/7
f 8/8/8 10/10/10 9/9/9
f 10/10/10 12/12/12 11/11/11
f 12/12/12 14/14/14 13/13/13
f 14/14/14 16/16/16 15/15/15
f 16/16/16 18/18/18 17/17/17
f 18/18/18 20/23/22 19/19/19
f 2/20/1 22/25/24 33/21/20
f 20/23/22 22/25/24 21/24/23
f 22/25/24 2/20/1 1/26/3
f 21/114/25 1/115/25 3/27/25
f 3/27/25 5/116/25 7/28/25
f 7/28/25 9/117/25 11/29/25
f 11/29/25 13/118/25 15/119/25
f 15/119/25 17/120/25 11/29/25
f 17/120/25 19/121/25 11/29/25
f 19/121/25 21/114/25 11/29/25
f 21/114/25 3/27/25 11/29/25
f 30/30/26 29/36/32 40/31/27
f 4/4/4 23/39/35 25/33/29
f 22/25/24 20/23/22 32/34/30
f 20/23/22 18/18/18 31/35/31
f 18/18/18 16/16/16 30/30/26
f 16/16/16 14/14/14 29/36/32
f 14/14/14 12/12/12 28/37/33
f 10/10/10 27/38/34 28/37/33
f 8/8/8 26/40/36 27/38/34
f 2/1/1 24/122/21 23/39/35
f 6/6/6 25/33/29 26/40/36
f 36/41/37 34/49/44 45/42/38
f 27/38/34 26/40/36 37/44/40
f 24/22/21 33/21/20 44/46/42
f 23/39/35 24/122/21 35/48/43
f 31/35/31 30/30/26 41/32/28
f 28/37/33 27/38/34 38/45/41
f 23/39/35 34/49/44 36/41/37
f 32/34/30 31/35/31 42/50/45
f 29/36/32 28/37/33 39/51/46
f 25/33/29 36/41/37 37/44/40
f 33/21/20 32/34/30 43/52/47
f 53/53/48 64/75/68 65/54/49
f 42/50/45 53/53/48 54/55/50
f 39/51/46 50/63/57 51/56/51
f 37/44/40 36/41/37 47/43/39
f 43/52/47 54/55/50 55/58/53
f 40/31/27 51/56/51 52/59/54
f 38/45/41 37/44/40 48/57/52
f 44/46/42 55/58/53 46/61/56
f 34/49/44 35/48/43 46/62/56
f 41/32/28 52/59/54 53/53/48
f 39/51/46 38/45/41 49/60/55
f 60/64/58 59/69/63 70/65/59
f 50/63/57 61/76/69 62/67/61
f 48/57/52 47/43/39 58/68/62
f 54/55/50 65/54/49 66/70/64
f 51/56/51 62/67/61 63/71/65
f 49/60/55 48/57/52 59/69/63
f 55/58/53 66/70/64 57/72/66
f 45/42/38 46/62/56 57/73/66
f 52/59/54 63/71/65 64/75/68
f 50/63/57 49/60/55 60/64/58
f 47/43/39 45/42/38 56/74/67
f 72/77/70 83/98/89 84/78/71
f 66/70/64 77/86/78 68/80/73
f 56/74/67 57/73/66 68/81/73
f 63/71/65 74/87/79 75/83/75
f 61/76/69 60/64/58 71/66/60
f 58/68/62 56/74/67 67/82/74
f 64/75/68 75/83/75 76/85/77
f 61/76/69 72/77/70 73/79/72
f 59/69/63 58/68/62 69/84/76
f 65/54/49 76/85/77 77/86/78
f 62/67/61 73/79/72 74/87/79
f 84/78/71 95/112/100 96/88/80
f 70/65/59 69/84/76 80/90/82
f 76/85/77 87/99/90 88/92/84
f 73/79/72 84/78/71 85/89/81
f 71/66/60 70/65/59 81/91/83
f 77/86/78 88/92/84 79/94/86
f 67/82/74 68/81/73 79/95/86
f 74/87/79 85/89/81 86/97/88
f 72/77/70 71/66/60 82/93/85
f 69/84/76 67/82/74 78/96/87
f 75/83/75 86/97/88 87/99/90
f 91/123/91 89/124/91 90/100/91
f 90/100/91 99/125/91 98/126/91
f 98/126/91 97/127/91 90/100/91
f 97/127/91 96/101/91 90/100/91
f 96/101/91 95/128/102 94/129/91
f 94/129/91 93/130/91 96/101/91
f 93/130/91 92/102/91 96/101/91
f 92/102/91 91/123/91 90/100/91
f 82/93/85 81/91/83 92/103/92
f 88/92/84 99/113/101 90/105/94
f 78/96/87 79/95/86 90/106/94
f 85/89/81 96/88/80 97/108/96
f 83/98/89 82/93/85 93/104/93
f 80/90/82 78/96/87 89/107/95
f 86/97/88 97/108/96 98/111/99
f 83/98/89 94/109/97 95/112/100
f 81/91/83 80/90/82 91/110/98
f 87/99/90 98/111/99 99/113/101
