# Blender v3.4.1 OBJ File: 'vehicles.blend'
# www.blender.org
o Cable_Car_Station_Supports_Cube.025
v 0.593944 -0.447750 -0.845226
v 0.593944 0.609713 -0.845226
v 0.593944 -0.447750 -0.893608
v 0.593944 0.609713 -0.893608
v 0.544619 -0.447750 -0.845226
v 0.544619 0.609713 -0.845226
v 0.544619 -0.447750 -0.893608
v 0.544619 0.609713 -0.893608
v 1.015728 0.050325 -0.838373
v 1.015728 0.080681 -0.838373
v 1.015728 0.050325 -0.877723
v 1.015728 0.080681 -0.877723
v 0.563370 0.050325 -0.838373
v 0.563370 0.080681 -0.838373
v 0.563370 0.050325 -0.877723
v 0.563370 0.080681 -0.877723
v -0.569743 -0.447750 -0.845226
v -0.569743 0.609713 -0.845226
v -0.569743 -0.447750 -0.893608
v -0.569743 0.609713 -0.893608
v -0.520418 -0.447750 -0.845226
v -0.520418 0.609713 -0.845226
v -0.520418 -0.447750 -0.893608
v -0.520418 0.609713 -0.893608
v -0.991527 0.050325 -0.838373
v -0.991527 0.080681 -0.838373
v -0.991527 0.050325 -0.877723
v -0.991527 0.080681 -0.877723
v -0.539169 0.050325 -0.838373
v -0.539169 0.080681 -0.838373
v -0.539169 0.050325 -0.877723
v -0.539169 0.080681 -0.877723
v -0.998643 0.565780 -0.845486
v -0.998643 0.625054 -0.845486
v -0.998643 0.565780 -0.880796
v -0.998643 0.625054 -0.880796
v 1.001357 0.565780 -0.845486
v 1.001357 0.625054 -0.845486
v 1.001357 0.565780 -0.880796
v 1.001357 0.625054 -0.880796
v 0.593944 -0.447750 0.881088
v 0.593944 0.609713 0.881088
v 0.593944 -0.447750 0.832706
v 0.593944 0.609713 0.832706
v 0.544619 -0.447750 0.881088
v 0.544619 0.609713 0.881088
v 0.544619 -0.447750 0.832706
v 0.544619 0.609713 0.832706
v 1.015728 0.050325 0.887941
v 1.015728 0.080681 0.887941
v 1.015728 0.050325 0.848591
v 1.015728 0.080681 0.848591
v 0.563370 0.050325 0.887941
v 0.563370 0.080681 0.887941
v 0.563370 0.050325 0.848591
v 0.563370 0.080681 0.848591
v -0.569743 -0.447750 0.881088
v -0.569743 0.609713 0.881088
v -0.569743 -0.447750 0.832706
v -0.569743 0.609713 0.832706
v -0.520418 -0.447750 0.881088
v -0.520418 0.609713 0.881088
v -0.520418 -0.447750 0.832706
v -0.520418 0.609713 0.832706
v -0.991527 0.050325 0.887941
v -0.991527 0.080681 0.887941
v -0.991527 0.050325 0.848591
v -0.991527 0.080681 0.848591
v -0.539169 0.050325 0.887941
v -0.539169 0.080681 0.887941
v -0.539169 0.050325 0.848591
v -0.539169 0.080681 0.848591
v -0.998643 0.565780 0.880828
v -0.998643 0.625054 0.880828
v -0.998643 0.565780 0.845518
v -0.998643 0.625054 0.845518
v 1.001357 0.565780 0.880828
v 1.001357 0.625054 0.880828
v 1.001357 0.565780 0.845518
v 1.001357 0.625054 0.845518
v 0.982035 0.564190 0.887408
v 0.982035 0.621388 0.887408
v 0.982035 0.564190 -0.887408
v 0.982035 0.621388 -0.887408
v 1.023141 0.564190 0.887408
v 1.023141 0.621388 0.887408
v 1.023141 0.564190 -0.887408
v 1.023141 0.621388 -0.887408
v 0.989103 -0.421122 -0.350845
v 0.989103 0.904057 -0.350845
v 0.989103 -0.421122 -0.400959
v 0.989103 0.904057 -0.400959
v 1.007806 -0.421122 -0.350845
v 1.007806 0.904057 -0.350845
v 1.007806 -0.421122 -0.400959
v 1.007806 0.904057 -0.400959
v 0.989103 -0.421122 0.398117
v 0.989103 0.904057 0.398117
v 0.989103 -0.421122 0.348004
v 0.989103 0.904057 0.348004
v 1.007806 -0.421122 0.398117
v 1.007806 0.904057 0.398117
v 1.007806 -0.421122 0.348004
v 1.007806 0.904057 0.348004
v -1.021611 0.564190 0.887408
v -1.021611 0.621388 0.887408
v -1.021611 0.564190 -0.887408
v -1.021611 0.621388 -0.887408
v -0.980505 0.564190 0.887408
v -0.980505 0.621388 0.887408
v -0.980505 0.564190 -0.887408
v -0.980505 0.621388 -0.887408
v -1.014543 -0.421122 -0.350845
v -1.014543 0.904057 -0.350845
v -1.014543 -0.421122 -0.400959
v -1.014543 0.904057 -0.400959
v -0.995840 -0.421122 -0.350845
v -0.995840 0.904057 -0.350845
v -0.995840 -0.421122 -0.400959
v -0.995840 0.904057 -0.400959
v -1.014543 -0.421122 0.398117
v -1.014543 0.904057 0.398117
v -1.014543 -0.421122 0.348004
v -1.014543 0.904057 0.348004
v -0.995840 -0.421122 0.398117
v -0.995840 0.904057 0.398117
v -0.995840 -0.421122 0.348004
v -0.995840 0.904057 0.348004
vt 0.813888 0.000000
vt 0.790890 0.502657
vt 0.790890 0.000000
vt 0.604215 0.000000
vt 0.580769 0.502657
vt 0.580769 0.000000
vt 0.767892 0.000000
vt 0.744894 0.502657
vt 0.744894 0.000000
vt 0.651108 0.000000
vt 0.627662 0.502657
vt 0.627662 0.000000
vt 0.405004 0.653360
vt 0.428002 0.629914
vt 0.428002 0.653360
vt 0.428002 0.653360
vt 0.451000 0.629914
vt 0.451000 0.653360
vt 0.438973 0.699254
vt 0.424544 0.680549
vt 0.438973 0.680549
vt 0.767892 0.502657
vt 0.782322 0.717682
vt 0.767892 0.717682
vt 0.419434 0.699254
vt 0.405004 0.680549
vt 0.419434 0.680549
vt 0.753463 0.502657
vt 0.767892 0.717682
vt 0.753463 0.717682
vt 0.693259 0.502657
vt 0.674555 0.717682
vt 0.674555 0.502657
vt 0.622920 0.502657
vt 0.604215 0.717682
vt 0.604215 0.502657
vt 0.836886 0.502657
vt 0.813888 0.000000
vt 0.836887 0.000000
vt 0.627662 0.502657
vt 0.604215 0.000000
vt 0.627662 0.000000
vt 0.790890 0.502657
vt 0.767892 0.000000
vt 0.790890 0.000000
vt 0.580769 0.502657
vt 0.557322 0.000000
vt 0.580769 0.000000
vt 0.389752 0.653360
vt 0.366754 0.629914
vt 0.389752 0.629914
vt 0.473998 0.653360
vt 0.451000 0.629914
vt 0.473998 0.629914
vt 0.440030 0.699254
vt 0.454459 0.680549
vt 0.454459 0.699254
vt 0.796751 0.717682
vt 0.811181 0.502657
vt 0.811181 0.717682
vt 0.471244 0.699254
vt 0.485673 0.680549
vt 0.485673 0.699254
vt 0.811181 0.717682
vt 0.825610 0.502657
vt 0.825610 0.717682
vt 0.669813 0.717682
vt 0.651108 0.502657
vt 0.669813 0.502657
vt 0.651108 0.717682
vt 0.632404 0.502657
vt 0.651108 0.502657
vt 0.471244 0.708724
vt 0.454459 0.680549
vt 0.471244 0.680549
vt 0.084526 0.950685
vt 0.112701 0.000000
vt 0.112701 0.950685
vt 0.383538 0.704982
vt 0.366754 0.676806
vt 0.383538 0.676806
vt 0.056351 0.950685
vt 0.084526 0.000000
vt 0.084526 0.950685
vt 0.349969 0.950685
vt 0.333185 0.000000
vt 0.349969 0.000000
vt 0.366754 0.950685
vt 0.349969 0.000000
vt 0.366754 0.000000
vt 0.882883 0.000000
vt 0.859885 0.502657
vt 0.859885 0.000000
vt 0.721448 0.000000
vt 0.698001 0.502657
vt 0.698001 0.000000
vt 0.859885 0.000000
vt 0.836886 0.502657
vt 0.836887 0.000000
vt 0.744894 0.000000
vt 0.721448 0.502657
vt 0.721448 0.000000
vt 0.473998 0.653360
vt 0.496996 0.629914
vt 0.496996 0.653360
vt 0.509680 0.653360
vt 0.532678 0.629914
vt 0.532678 0.653360
vt 0.540894 0.700240
vt 0.526465 0.681535
vt 0.540894 0.681535
vt 0.796751 0.717682
vt 0.782322 0.502657
vt 0.796751 0.502657
vt 0.526465 0.700240
vt 0.512035 0.681535
vt 0.526465 0.681535
vt 0.753463 0.717682
vt 0.739033 0.502657
vt 0.753463 0.502657
vt 0.711964 0.717682
vt 0.730668 0.502657
vt 0.730668 0.717682
vt 0.693259 0.717682
vt 0.711964 0.502657
vt 0.711964 0.717682
vt 0.905881 0.502657
vt 0.882883 0.000000
vt 0.905881 0.000000
vt 0.698001 0.502657
vt 0.674555 0.000000
vt 0.698001 0.000000
vt 0.928879 0.502657
vt 0.905881 0.000000
vt 0.928879 0.000000
vt 0.674555 0.502657
vt 0.651108 0.000000
vt 0.674555 0.000000
vt 0.389752 0.676806
vt 0.366754 0.653360
vt 0.389752 0.653360
vt 0.556499 0.653360
vt 0.533501 0.629914
vt 0.556499 0.629914
vt 0.495251 0.690769
vt 0.509680 0.672065
vt 0.509680 0.690769
vt 0.825610 0.717682
vt 0.840040 0.502657
vt 0.840040 0.717682
vt 0.495251 0.672065
vt 0.509680 0.653360
vt 0.509680 0.672065
vt 0.390575 0.844939
vt 0.405004 0.629914
vt 0.405004 0.844939
vt 0.576027 0.717682
vt 0.557322 0.502657
vt 0.576027 0.502657
vt 0.599474 0.717682
vt 0.580769 0.502657
vt 0.599474 0.502657
vt 0.543249 0.681535
vt 0.526465 0.653360
vt 0.543249 0.653360
vt 0.000000 0.950685
vt 0.028175 0.000000
vt 0.028175 0.950685
vt 0.526465 0.681535
vt 0.509680 0.653360
vt 0.526465 0.653360
vt 0.028175 0.950685
vt 0.056350 0.000000
vt 0.056350 0.950685
vt 0.316400 0.950685
vt 0.299616 0.000000
vt 0.316400 0.000000
vt 0.333185 0.950685
vt 0.316400 0.000000
vt 0.333185 0.000000
vt 0.112701 0.843645
vt 0.139890 0.000000
vt 0.139890 0.843645
vt 0.444083 0.680549
vt 0.424544 0.653360
vt 0.444083 0.653360
vt 0.139890 0.843645
vt 0.167079 0.000000
vt 0.167079 0.843645
vt 0.424544 0.680549
vt 0.405004 0.653360
vt 0.424544 0.653360
vt 0.260536 0.000000
vt 0.240997 0.843645
vt 0.240997 0.000000
vt 0.240997 0.000000
vt 0.221457 0.843645
vt 0.221457 0.000000
vt 0.438217 0.629914
vt 0.414396 0.000000
vt 0.438217 0.000000
vt 0.946659 0.629914
vt 0.937769 0.000000
vt 0.946659 0.000000
vt 0.509680 0.629914
vt 0.485859 0.000000
vt 0.509680 0.000000
vt 0.955549 0.629914
vt 0.946659 0.000000
vt 0.955549 0.000000
vt 0.631810 0.574120
vt 0.622920 0.597941
vt 0.622920 0.574120
vt 0.631810 0.526478
vt 0.622920 0.550299
vt 0.622920 0.526478
vt 0.414396 0.629914
vt 0.390575 0.000000
vt 0.414396 0.000000
vt 0.937769 0.629914
vt 0.928879 0.000000
vt 0.937769 0.000000
vt 0.390575 0.629914
vt 0.366754 0.000000
vt 0.390575 0.000000
vt 0.964439 0.629914
vt 0.955549 0.000000
vt 0.964440 0.000000
vt 0.631810 0.502657
vt 0.622920 0.526478
vt 0.622920 0.502657
vt 0.631810 0.550299
vt 0.622920 0.574120
vt 0.622920 0.550299
vt 0.167079 0.843645
vt 0.194268 0.000000
vt 0.194268 0.843645
vt 0.493538 0.680549
vt 0.473998 0.653360
vt 0.493538 0.653360
vt 0.194268 0.843645
vt 0.221457 0.000000
vt 0.221457 0.843645
vt 0.473999 0.680549
vt 0.454459 0.653360
vt 0.473999 0.653360
vt 0.280076 0.000000
vt 0.260536 0.843645
vt 0.260537 0.000000
vt 0.299616 0.000000
vt 0.280076 0.843645
vt 0.280076 0.000000
vt 0.462038 0.629914
vt 0.438217 0.000000
vt 0.462038 0.000000
vt 0.991110 0.629914
vt 0.982220 0.000000
vt 0.991110 0.000000
vt 0.485859 0.629914
vt 0.462038 0.000000
vt 0.485859 0.000000
vt 0.973330 0.629914
vt 0.964440 0.000000
vt 0.973330 0.000000
vt 0.631810 0.597941
vt 0.622920 0.621762
vt 0.622920 0.597941
vt 0.631810 0.645583
vt 0.622920 0.669404
vt 0.622920 0.645583
vt 0.557322 0.629914
vt 0.533501 0.000000
vt 0.557322 0.000000
vt 1.000000 0.629914
vt 0.991110 0.000000
vt 1.000000 0.000000
vt 0.533501 0.629914
vt 0.509680 0.000000
vt 0.533501 0.000000
vt 0.982220 0.629914
vt 0.973330 0.000000
vt 0.982220 0.000000
vt 0.452973 0.653360
vt 0.444083 0.677181
vt 0.444083 0.653360
vt 0.631810 0.621762
vt 0.622920 0.645583
vt 0.622920 0.621762
vt 0.813888 0.502657
vt 0.604215 0.502657
vt 0.767892 0.502657
vt 0.651108 0.502657
vt 0.405004 0.629914
vt 0.428002 0.629914
vt 0.424544 0.699254
vt 0.782322 0.502657
vt 0.405004 0.699254
vt 0.767892 0.502657
vt 0.693259 0.717682
vt 0.622920 0.717682
vt 0.813888 0.502657
vt 0.604215 0.502657
vt 0.767892 0.502657
vt 0.557322 0.502657
vt 0.366754 0.653360
vt 0.451000 0.653360
vt 0.440030 0.680549
vt 0.796751 0.502657
vt 0.471244 0.680549
vt 0.811181 0.502657
vt 0.651108 0.717682
vt 0.632404 0.717682
vt 0.454459 0.708724
vt 0.084526 0.000000
vt 0.366754 0.704982
vt 0.056351 0.000000
vt 0.333185 0.950685
vt 0.349969 0.950685
vt 0.882883 0.502657
vt 0.721448 0.502657
vt 0.859884 0.502657
vt 0.744894 0.502657
vt 0.473998 0.629914
vt 0.509680 0.629914
vt 0.526465 0.700240
vt 0.782322 0.717682
vt 0.512035 0.700240
vt 0.739033 0.717682
vt 0.711964 0.502657
vt 0.693259 0.502657
vt 0.882883 0.502657
vt 0.674555 0.502657
vt 0.905881 0.502657
vt 0.651108 0.502657
vt 0.366754 0.676806
vt 0.533501 0.653360
vt 0.495251 0.672065
vt 0.825610 0.502657
vt 0.495251 0.653360
vt 0.390575 0.629914
vt 0.557322 0.717682
vt 0.580769 0.717682
vt 0.526465 0.681535
vt 0.000000 0.000000
vt 0.509680 0.681535
vt 0.028175 0.000000
vt 0.299616 0.950685
vt 0.316400 0.950685
vt 0.112701 0.000000
vt 0.424544 0.680549
vt 0.139890 0.000000
vt 0.405004 0.680549
vt 0.260536 0.843645
vt 0.240997 0.843645
vt 0.414396 0.629914
vt 0.937769 0.629914
vt 0.485859 0.629914
vt 0.946659 0.629914
vt 0.631810 0.597941
vt 0.631810 0.550299
vt 0.390575 0.629914
vt 0.928879 0.629914
vt 0.366754 0.629914
vt 0.955549 0.629914
vt 0.631810 0.526478
vt 0.631810 0.574120
vt 0.167079 0.000000
vt 0.473998 0.680549
vt 0.194268 0.000000
vt 0.454459 0.680549
vt 0.280076 0.843645
vt 0.299615 0.843645
vt 0.438217 0.629914
vt 0.982220 0.629914
vt 0.462038 0.629914
vt 0.964440 0.629914
vt 0.631810 0.621762
vt 0.631810 0.669404
vt 0.533501 0.629914
vt 0.991110 0.629914
vt 0.509680 0.629914
vt 0.973330 0.629914
vt 0.452973 0.677181
vt 0.631810 0.645583
vn 1.0000 0.0000 0.0000
vn 0.0000 0.0000 -1.0000
vn -1.0000 0.0000 0.0000
vn 0.0000 0.0000 1.0000
vn 0.0000 -1.0000 0.0000
vn 0.0000 1.0000 0.0000
s off
f 3/1/1 2/2/1 1/3/1
f 7/4/2 4/5/2 3/6/2
f 5/7/3 8/8/3 7/9/3
f 1/10/4 6/11/4 5/12/4
f 1/13/5 7/14/5 3/15/5
f 6/16/6 4/17/6 8/18/6
f 11/19/1 10/20/1 9/21/1
f 15/22/2 12/23/2 11/24/2
f 13/25/3 16/26/3 15/27/3
f 9/28/4 14/29/4 13/30/4
f 9/31/5 15/32/5 11/33/5
f 14/34/6 12/35/6 16/36/6
f 18/37/3 19/38/3 17/39/3
f 20/40/2 23/41/2 19/42/2
f 24/43/1 21/44/1 23/45/1
f 22/46/4 17/47/4 21/48/4
f 23/49/5 17/50/5 19/51/5
f 20/52/6 22/53/6 24/54/6
f 26/55/3 27/56/3 25/57/3
f 28/58/2 31/59/2 27/60/2
f 32/61/1 29/62/1 31/63/1
f 30/64/4 25/65/4 29/66/4
f 31/67/5 25/68/5 27/69/5
f 28/70/6 30/71/6 32/72/6
f 34/73/3 35/74/3 33/75/3
f 36/76/2 39/77/2 35/78/2
f 40/79/1 37/80/1 39/81/1
f 38/82/4 33/83/4 37/84/4
f 39/85/5 33/86/5 35/87/5
f 36/88/6 38/89/6 40/90/6
f 43/91/1 42/92/1 41/93/1
f 47/94/2 44/95/2 43/96/2
f 45/97/3 48/98/3 47/99/3
f 41/100/4 46/101/4 45/102/4
f 41/103/5 47/104/5 43/105/5
f 46/106/6 44/107/6 48/108/6
f 51/109/1 50/110/1 49/111/1
f 55/112/2 52/113/2 51/114/2
f 53/115/3 56/116/3 55/117/3
f 49/118/4 54/119/4 53/120/4
f 49/121/5 55/122/5 51/123/5
f 54/124/6 52/125/6 56/126/6
f 58/127/3 59/128/3 57/129/3
f 60/130/2 63/131/2 59/132/2
f 64/133/1 61/134/1 63/135/1
f 62/136/4 57/137/4 61/138/4
f 63/139/5 57/140/5 59/141/5
f 60/142/6 62/143/6 64/144/6
f 66/145/3 67/146/3 65/147/3
f 68/148/2 71/149/2 67/150/2
f 72/151/1 69/152/1 71/153/1
f 70/154/4 65/155/4 69/156/4
f 71/157/5 65/158/5 67/159/5
f 68/160/6 70/161/6 72/162/6
f 74/163/3 75/164/3 73/165/3
f 76/166/2 79/167/2 75/168/2
f 80/169/1 77/170/1 79/171/1
f 78/172/4 73/173/4 77/174/4
f 79/175/5 73/176/5 75/177/5
f 76/178/6 78/179/6 80/180/6
f 82/181/3 83/182/3 81/183/3
f 84/184/2 87/185/2 83/186/2
f 88/187/1 85/188/1 87/189/1
f 86/190/4 81/191/4 85/192/4
f 87/193/5 81/194/5 83/195/5
f 84/196/6 86/197/6 88/198/6
f 90/199/3 91/200/3 89/201/3
f 92/202/2 95/203/2 91/204/2
f 96/205/1 93/206/1 95/207/1
f 94/208/4 89/209/4 93/210/4
f 95/211/5 89/212/5 91/213/5
f 92/214/6 94/215/6 96/216/6
f 98/217/3 99/218/3 97/219/3
f 100/220/2 103/221/2 99/222/2
f 104/223/1 101/224/1 103/225/1
f 102/226/4 97/227/4 101/228/4
f 103/229/5 97/230/5 99/231/5
f 100/232/6 102/233/6 104/234/6
f 106/235/3 107/236/3 105/237/3
f 108/238/2 111/239/2 107/240/2
f 112/241/1 109/242/1 111/243/1
f 110/244/4 105/245/4 109/246/4
f 111/247/5 105/248/5 107/249/5
f 108/250/6 110/251/6 112/252/6
f 114/253/3 115/254/3 113/255/3
f 116/256/2 119/257/2 115/258/2
f 120/259/1 117/260/1 119/261/1
f 118/262/4 113/263/4 117/264/4
f 119/265/5 113/266/5 115/267/5
f 116/268/6 118/269/6 120/270/6
f 122/271/3 123/272/3 121/273/3
f 124/274/2 127/275/2 123/276/2
f 128/277/1 125/278/1 127/279/1
f 126/280/4 121/281/4 125/282/4
f 127/283/5 121/284/5 123/285/5
f 124/286/6 126/287/6 128/288/6
f 3/1/1 4/289/1 2/2/1
f 7/4/2 8/290/2 4/5/2
f 5/7/3 6/291/3 8/8/3
f 1/10/4 2/292/4 6/11/4
f 1/13/5 5/293/5 7/14/5
f 6/16/6 2/294/6 4/17/6
f 11/19/1 12/295/1 10/20/1
f 15/22/2 16/296/2 12/23/2
f 13/25/3 14/297/3 16/26/3
f 9/28/4 10/298/4 14/29/4
f 9/31/5 13/299/5 15/32/5
f 14/34/6 10/300/6 12/35/6
f 18/37/3 20/301/3 19/38/3
f 20/40/2 24/302/2 23/41/2
f 24/43/1 22/303/1 21/44/1
f 22/46/4 18/304/4 17/47/4
f 23/49/5 21/305/5 17/50/5
f 20/52/6 18/306/6 22/53/6
f 26/55/3 28/307/3 27/56/3
f 28/58/2 32/308/2 31/59/2
f 32/61/1 30/309/1 29/62/1
f 30/64/4 26/310/4 25/65/4
f 31/67/5 29/311/5 25/68/5
f 28/70/6 26/312/6 30/71/6
f 34/73/3 36/313/3 35/74/3
f 36/76/2 40/314/2 39/77/2
f 40/79/1 38/315/1 37/80/1
f 38/82/4 34/316/4 33/83/4
f 39/85/5 37/317/5 33/86/5
f 36/88/6 34/318/6 38/89/6
f 43/91/1 44/319/1 42/92/1
f 47/94/2 48/320/2 44/95/2
f 45/97/3 46/321/3 48/98/3
f 41/100/4 42/322/4 46/101/4
f 41/103/5 45/323/5 47/104/5
f 46/106/6 42/324/6 44/107/6
f 51/109/1 52/325/1 50/110/1
f 55/112/2 56/326/2 52/113/2
f 53/115/3 54/327/3 56/116/3
f 49/118/4 50/328/4 54/119/4
f 49/121/5 53/329/5 55/122/5
f 54/124/6 50/330/6 52/125/6
f 58/127/3 60/331/3 59/128/3
f 60/130/2 64/332/2 63/131/2
f 64/133/1 62/333/1 61/134/1
f 62/136/4 58/334/4 57/137/4
f 63/139/5 61/335/5 57/140/5
f 60/142/6 58/336/6 62/143/6
f 66/145/3 68/337/3 67/146/3
f 68/148/2 72/338/2 71/149/2
f 72/151/1 70/339/1 69/152/1
f 70/154/4 66/340/4 65/155/4
f 71/157/5 69/341/5 65/158/5
f 68/160/6 66/342/6 70/161/6
f 74/163/3 76/343/3 75/164/3
f 76/166/2 80/344/2 79/167/2
f 80/169/1 78/345/1 77/170/1
f 78/172/4 74/346/4 73/173/4
f 79/175/5 77/347/5 73/176/5
f 76/178/6 74/348/6 78/179/6
f 82/181/3 84/349/3 83/182/3
f 84/184/2 88/350/2 87/185/2
f 88/187/1 86/351/1 85/188/1
f 86/190/4 82/352/4 81/191/4
f 87/193/5 85/353/5 81/194/5
f 84/196/6 82/354/6 86/197/6
f 90/199/3 92/355/3 91/200/3
f 92/202/2 96/356/2 95/203/2
f 96/205/1 94/357/1 93/206/1
f 94/208/4 90/358/4 89/209/4
f 95/211/5 93/359/5 89/212/5
f 92/214/6 90/360/6 94/215/6
f 98/217/3 100/361/3 99/218/3
f 100/220/2 104/362/2 103/221/2
f 104/223/1 102/363/1 101/224/1
f 102/226/4 98/364/4 97/227/4
f 103/229/5 101/365/5 97/230/5
f 100/232/6 98/366/6 102/233/6
f 106/235/3 108/367/3 107/236/3
f 108/238/2 112/368/2 111/239/2
f 112/241/1 110/369/1 109/242/1
f 110/244/4 106/370/4 105/245/4
f 111/247/5 109/371/5 105/248/5
f 108/250/6 106/372/6 110/251/6
f 114/253/3 116/373/3 115/254/3
f 116/256/2 120/374/2 119/257/2
f 120/259/1 118/375/1 117/260/1
f 118/262/4 114/376/4 113/263/4
f 119/265/5 117/377/5 113/266/5
f 116/268/6 114/378/6 118/269/6
f 122/271/3 124/379/3 123/272/3
f 124/274/2 128/380/2 127/275/2
f 128/277/1 126/381/1 125/278/1
f 126/280/4 122/382/4 121/281/4
f 127/283/5 125/383/5 121/284/5
f 124/286/6 122/384/6 126/287/6
