# Blender v3.4.1 OBJ File: 'environment.blend'
# www.blender.org
o Cable_Car_Pole_Cylinder.003
v 0.000000 -1.536446 -0.102702
v 0.000000 1.541649 -0.065867
v 0.039302 -1.536446 -0.094884
v 0.025206 1.541649 -0.060853
v 0.072621 -1.536446 -0.072621
v 0.046575 1.541649 -0.046575
v 0.094884 -1.536446 -0.039302
v 0.060853 1.541649 -0.025206
v 0.102702 -1.536446 0.000000
v 0.065867 1.541649 0.000000
v 0.094884 -1.536446 0.039302
v 0.060853 1.541649 0.025206
v 0.072621 -1.536446 0.072621
v 0.046575 1.541649 0.046575
v 0.039302 -1.536446 0.094884
v 0.025206 1.541649 0.060853
v 0.000000 -1.536446 0.102702
v 0.000000 1.541649 0.065867
v -0.039302 -1.536446 0.094884
v -0.025206 1.541649 0.060853
v -0.072621 -1.536446 0.072621
v -0.046575 1.541649 0.046575
v -0.094884 -1.536446 0.039302
v -0.060853 1.541649 0.025206
v -0.102702 -1.536446 0.000000
v -0.065867 1.541649 0.000000
v -0.094884 -1.536446 -0.039302
v -0.060853 1.541649 -0.025206
v -0.072621 -1.536446 -0.072621
v -0.046575 1.541649 -0.046575
v -0.039302 -1.536446 -0.094884
v -0.025206 1.541649 -0.060853
v 0.040699 1.722268 -0.034184
v -0.000000 1.722268 -0.037000
v 0.075203 1.722268 -0.026163
v 0.098257 1.722268 -0.014159
v 0.106353 1.722268 0.000000
v 0.098257 1.722268 0.014159
v 0.075203 1.722268 0.026163
v 0.040699 1.722268 0.034184
v -0.000000 1.722268 0.037000
v -0.040700 1.722268 0.034184
v -0.075203 1.722268 0.026163
v -0.098257 1.722268 0.014159
v -0.106353 1.722268 0.000000
v -0.098257 1.722268 -0.014159
v -0.075203 1.722268 -0.026163
v -0.040700 1.722268 -0.034184
v 0.067467 1.848156 -0.027278
v -0.000000 1.848156 -0.029525
v 0.124663 1.848156 -0.020877
v 0.162880 1.848156 -0.011299
v 0.176300 1.848156 0.000000
v 0.162880 1.848156 0.011299
v 0.124663 1.848156 0.020877
v 0.067467 1.848156 0.027278
v -0.000000 1.848156 0.029525
v -0.067467 1.848156 0.027278
v -0.124663 1.848156 0.020877
v -0.162880 1.848156 0.011299
v -0.176300 1.848156 0.000000
v -0.162880 1.848156 -0.011299
v -0.124663 1.848156 -0.020877
v -0.067467 1.848156 -0.027278
v -1.000000 2.128416 0.022004
v -1.000000 2.185911 0.035517
v -1.000000 2.128416 -0.022004
v -1.000000 2.185911 -0.035517
v 1.000000 2.128416 0.022004
v 1.000000 2.185911 0.035517
v 1.000000 2.128416 -0.022004
v 1.000000 2.185911 -0.035517
v -0.858823 1.784726 0.025025
v -0.858823 1.818684 0.025025
v -0.858823 1.784726 -0.025025
v -0.858823 1.818684 -0.025025
v 0.858823 1.784726 0.025025
v 0.858823 1.818684 0.025025
v 0.858823 1.784726 -0.025025
v 0.858823 1.818684 -0.025025
v -0.549089 1.705478 0.012123
v -0.844773 1.798151 0.018651
v -0.549089 1.705478 -0.012123
v -0.844773 1.798151 -0.018651
v 0.549089 1.705478 0.012123
v 0.844773 1.798151 0.018651
v 0.549089 1.705478 -0.012123
v 0.844773 1.798151 -0.018651
v -0.429984 1.649701 -0.009493
v -0.429984 1.649701 0.009493
v 0.429984 1.649701 -0.009493
v 0.429984 1.649701 0.009493
v -0.385411 1.591854 -0.008509
v -0.385411 1.591854 0.008509
v 0.385411 1.591854 -0.008509
v 0.385411 1.591854 0.008509
v 0.502058 1.794721 0.021565
v 0.337129 2.130108 0.021565
v 0.502058 1.794721 -0.021565
v 0.337129 2.130108 -0.021565
v 0.547133 1.828744 0.021565
v 0.407436 2.183178 0.021565
v 0.547133 1.828744 -0.021565
v 0.407436 2.183178 -0.021565
v 0.500931 1.828744 0.021565
v 0.640628 2.183178 0.021565
v 0.500931 1.828744 -0.021565
v 0.640628 2.183178 -0.021565
v 0.546005 1.794721 0.021565
v 0.710935 2.130108 0.021565
v 0.546005 1.794721 -0.021565
v 0.710935 2.130108 -0.021565
v -0.562215 1.794721 0.021565
v -0.727144 2.130108 0.021565
v -0.562215 1.794721 -0.021565
v -0.727144 2.130108 -0.021565
v -0.517141 1.828744 0.021565
v -0.656837 2.183178 0.021565
v -0.517141 1.828744 -0.021565
v -0.656837 2.183178 -0.021565
v -0.563342 1.828744 0.021565
v -0.423646 2.183178 0.021565
v -0.563342 1.828744 -0.021565
v -0.423646 2.183178 -0.021565
v -0.518268 1.794721 0.021565
v -0.353339 2.130108 0.021565
v -0.518268 1.794721 -0.021565
v -0.353339 2.130108 -0.021565
v -0.901904 1.779176 0.364245
v -0.901904 1.793516 0.364245
v -0.901904 1.779176 -0.364245
v -0.901904 1.793516 -0.364245
v -0.783733 1.779176 0.364245
v -0.783733 1.793516 0.364245
v -0.783733 1.779176 -0.364245
v -0.783733 1.793516 -0.364245
v 0.777091 1.779176 0.364245
v 0.777091 1.793516 0.364245
v 0.777091 1.779176 -0.364245
v 0.777091 1.793516 -0.364245
v 0.895262 1.779176 0.364245
v 0.895262 1.793516 0.364245
v 0.895262 1.779176 -0.364245
v 0.895262 1.793516 -0.364245
vt 0.625000 0.000000
vt 0.375000 0.250000
vt 0.375000 0.000000
vt 0.625000 0.250000
vt 0.375000 0.500000
vt 0.625000 0.500000
vt 0.375000 0.750000
vt 0.625000 0.750000
vt 0.375000 1.000000
vt 0.125000 0.750000
vt 0.125000 0.500000
vt 0.875000 0.500000
vt 0.625000 0.000000
vt 0.375000 0.250000
vt 0.375000 0.000000
vt 0.625000 0.250000
vt 0.375000 0.500000
vt 0.625000 0.500000
vt 0.375000 0.750000
vt 0.625000 0.750000
vt 0.375000 1.000000
vt 0.125000 0.750000
vt 0.125000 0.500000
vt 0.875000 0.500000
vt 0.625000 0.000000
vt 0.375000 0.250000
vt 0.375000 0.000000
vt 0.625000 0.250000
vt 0.375000 0.500000
vt 0.625000 0.500000
vt 0.375000 0.750000
vt 0.625000 1.000000
vt 0.375000 1.000000
vt 0.125000 0.750000
vt 0.125000 0.500000
vt 0.875000 0.500000
vt 0.625000 0.750000
vt 0.625000 0.000000
vt 0.375000 0.250000
vt 0.375000 0.000000
vt 0.625000 0.500000
vt 0.375000 0.500000
vt 0.625000 0.750000
vt 0.375000 0.750000
vt 0.375000 1.000000
vt 0.125000 0.750000
vt 0.125000 0.500000
vt 0.875000 0.500000
vt 0.625000 0.000000
vt 0.375000 0.250000
vt 0.375000 0.000000
vt 0.625000 0.250000
vt 0.375000 0.500000
vt 0.625000 0.500000
vt 0.375000 0.750000
vt 0.625000 1.000000
vt 0.375000 1.000000
vt 0.125000 0.750000
vt 0.125000 0.500000
vt 0.875000 0.500000
vt 0.625000 0.750000
vt 0.625000 0.000000
vt 0.375000 0.250000
vt 0.375000 0.000000
vt 0.625000 0.500000
vt 0.375000 0.500000
vt 0.375000 0.750000
vt 0.625000 0.750000
vt 0.375000 1.000000
vt 0.125000 0.750000
vt 0.125000 0.500000
vt 0.875000 0.500000
vt 0.625000 0.000000
vt 0.375000 0.250000
vt 0.375000 0.000000
vt 0.625000 0.250000
vt 0.375000 0.500000
vt 0.625000 0.500000
vt 0.375000 0.750000
vt 0.625000 0.750000
vt 0.375000 1.000000
vt 0.125000 0.750000
vt 0.125000 0.500000
vt 0.875000 0.500000
vt 0.625000 0.000000
vt 0.375000 0.250000
vt 0.375000 0.000000
vt 0.625000 0.250000
vt 0.375000 0.500000
vt 0.625000 0.500000
vt 0.375000 0.750000
vt 0.625000 0.750000
vt 0.375000 1.000000
vt 0.125000 0.750000
vt 0.125000 0.500000
vt 0.875000 0.500000
vt 0.625000 1.000000
vt 0.875000 0.750000
vt 0.625000 1.000000
vt 0.875000 0.750000
vt 0.875000 0.750000
vt 0.625000 0.250000
vt 0.625000 1.000000
vt 0.875000 0.750000
vt 0.875000 0.750000
vt 0.625000 0.250000
vt 0.625000 1.000000
vt 0.875000 0.750000
vt 0.625000 1.000000
vt 0.875000 0.750000
vt 0.625000 1.000000
vt 0.875000 0.750000
vt 1.000000 1.000000
vt 0.937500 0.500000
vt 1.000000 0.500000
vt 0.937500 1.000000
vt 0.875000 0.500000
vt 0.875000 1.000000
vt 0.812500 0.500000
vt 0.812500 1.000000
vt 0.750000 0.500000
vt 0.750000 1.000000
vt 0.687500 0.500000
vt 0.687500 1.000000
vt 0.625000 0.500000
vt 0.625000 1.000000
vt 0.562500 0.500000
vt 0.562500 1.000000
vt 0.500000 0.500000
vt 0.500000 1.000000
vt 0.437500 0.500000
vt 0.437500 1.000000
vt 0.375000 0.500000
vt 0.375000 1.000000
vt 0.312500 0.500000
vt 0.250000 1.000000
vt 0.250000 0.500000
vt 0.187500 0.500000
vt 0.187500 1.000000
vt 0.125000 0.500000
vt 0.625000 1.000000
vt 0.125000 1.000000
vt 0.062500 0.500000
vt 0.062500 1.000000
vt 0.000000 0.500000
vt 0.658156 0.028269
vt 0.528269 0.158156
vt 0.658156 0.471731
vt 0.562500 1.000000
vt 0.562500 1.000000
vt 0.312500 1.000000
vt 0.375000 1.000000
vt 0.312500 1.000000
vt 0.000000 1.000000
vt 0.000000 1.000000
vt 0.812500 1.000000
vt 0.750000 1.000000
vt 0.500000 1.000000
vt 0.437500 1.000000
vt 0.125000 1.000000
vt 0.937500 1.000000
vt 0.875000 1.000000
vt 0.250000 1.000000
vt 0.687500 1.000000
vt 0.062500 1.000000
vt 1.000000 1.000000
vt 0.187500 1.000000
vt 0.471731 0.341844
vt 0.419706 0.419706
vt 0.419706 0.080294
vt 0.062500 1.000000
vt 0.500000 1.000000
vt 1.000000 1.000000
vt 0.937500 1.000000
vt 0.000000 1.000000
vt 0.437500 1.000000
vt 0.875000 1.000000
vt 0.375000 1.000000
vt 0.812500 1.000000
vt 0.312500 1.000000
vt 0.750000 1.000000
vt 0.250000 1.000000
vt 0.687500 1.000000
vt 0.187500 1.000000
vt 0.625000 1.000000
vt 0.125000 1.000000
vt 0.625000 0.000000
vt 0.375000 0.250000
vt 0.375000 0.000000
vt 0.625000 0.250000
vt 0.375000 0.500000
vt 0.625000 0.500000
vt 0.375000 0.750000
vt 0.625000 0.750000
vt 0.375000 1.000000
vt 0.375000 0.000000
vt 0.875000 0.500000
vt 0.375000 0.750000
vt 0.375000 0.500000
vt 0.375000 0.500000
vt 0.375000 0.250000
vt 0.125000 0.750000
vt 0.125000 0.500000
vt 0.375000 0.000000
vt 0.375000 1.000000
vt 0.375000 0.750000
vt 0.375000 0.250000
vt 0.750000 0.490000
vt 0.841844 0.471731
vt 0.919706 0.419706
vt 0.971731 0.341844
vt 0.990000 0.250000
vt 0.971731 0.158156
vt 0.919706 0.080294
vt 0.841844 0.028269
vt 0.750000 0.010000
vt 0.580294 0.080294
vt 0.510000 0.250000
vt 0.528269 0.341844
vt 0.580294 0.419706
vt 0.341844 0.471731
vt 0.341844 0.028269
vt 0.250000 0.490000
vt 0.250000 0.010000
vt 0.158156 0.471731
vt 0.158156 0.028269
vt 0.080294 0.419706
vt 0.080294 0.080294
vt 0.028269 0.341844
vt 0.010000 0.250000
vt 0.028269 0.158156
vt 0.471731 0.158156
vt 0.490000 0.250000
vt 0.625000 1.000000
vt 0.875000 0.750000
vt 0.375000 1.000000
vn -1.0000 -0.0000 0.0000
vn 0.0000 -0.2288 -0.9735
vn 1.0000 -0.0000 0.0000
vn 0.0000 -0.2288 0.9735
vn 0.0000 -1.0000 0.0000
vn 0.0000 1.0000 0.0000
vn 0.0000 0.0000 -1.0000
vn 0.0000 0.0000 1.0000
vn -0.8974 -0.4413 0.0000
vn 0.9303 0.3667 0.0000
vn 0.6025 -0.7981 0.0000
vn -0.6025 0.7981 0.0000
vn -0.9303 0.3667 0.0000
vn 0.8974 -0.4413 0.0000
vn -0.6025 -0.7981 0.0000
vn 0.6025 0.7981 0.0000
vn -0.0000 0.0844 -0.9964
vn 0.3827 0.0120 -0.9238
vn 0.0000 0.0120 -0.9999
vn 0.3704 0.0656 -0.9266
vn 0.7071 0.0120 -0.7071
vn 0.6909 0.0120 -0.7228
vn 0.9238 0.0120 -0.3827
vn 0.9147 -0.0575 -0.4001
vn 0.9999 0.0120 0.0000
vn 0.9958 -0.0920 -0.0000
vn 0.9238 0.0120 0.3827
vn 0.9147 -0.0575 0.4001
vn 0.7071 0.0120 0.7071
vn 0.6909 0.0120 0.7228
vn 0.3827 0.0120 0.9238
vn 0.3704 0.0656 0.9266
vn -0.0000 0.0120 0.9999
vn 0.0000 0.0844 0.9964
vn -0.3827 0.0120 0.9238
vn -0.3704 0.0656 0.9266
vn -0.7071 0.0120 0.7071
vn -0.6909 0.0120 0.7228
vn -0.9238 0.0120 0.3827
vn -0.9958 -0.0920 -0.0000
vn -0.9999 0.0120 0.0000
vn -0.9238 0.0120 -0.3827
vn -0.9147 -0.0575 -0.4001
vn -0.7071 0.0120 -0.7071
vn 0.3423 -0.0227 0.9393
vn -0.6909 0.0120 -0.7228
vn -0.3827 0.0120 -0.9238
vn -0.3704 0.0656 -0.9266
vn 0.0879 0.0202 0.9959
vn 0.1501 0.0700 0.9862
vn -0.9147 -0.0575 0.4001
vn -0.3423 -0.0227 0.9393
vn -0.4426 -0.0987 0.8913
vn -0.0000 0.1008 -0.9949
vn 0.8397 -0.2830 -0.4636
vn 0.8206 -0.3062 -0.4827
vn -0.0000 0.1008 0.9949
vn -0.1501 0.0700 0.9862
vn -0.3423 -0.0227 -0.9393
vn 0.1501 0.0700 -0.9862
vn 0.3423 -0.0227 -0.9393
vn -0.8397 -0.2830 0.4636
vn -0.8205 -0.3062 0.4827
vn 0.8397 -0.2830 0.4636
vn -0.1501 0.0700 -0.9862
vn 0.4426 -0.0987 -0.8913
vn -0.8397 -0.2830 -0.4636
vn -0.0879 0.0202 -0.9959
vn 0.0000 0.0500 0.9987
vn 0.0000 0.0500 -0.9987
vn 0.0879 0.0202 -0.9959
vn -0.0879 0.0202 0.9959
vn 0.2064 -0.0670 -0.9762
vn -0.2064 -0.0670 0.9762
vn 0.2418 -0.1022 -0.9649
vn -0.2418 -0.1022 0.9649
vn 0.6194 -0.3416 -0.7068
vn 0.6064 -0.3369 -0.7202
vn -0.6194 -0.3416 0.7068
vn -0.6064 -0.3369 0.7202
vn 0.8206 -0.3062 0.4827
vn 0.6194 -0.3416 0.7068
vn -0.8205 -0.3062 -0.4827
vn -0.6194 -0.3416 -0.7068
vn 0.4426 -0.0987 0.8913
vn 0.2064 -0.0670 0.9762
vn -0.4426 -0.0987 -0.8913
vn -0.2064 -0.0670 -0.9762
vn -0.2991 -0.9542 0.0000
vn -0.3616 -0.9323 0.0000
vn 0.0000 -0.0703 -0.9975
vn 0.0000 -0.0672 -0.9977
vn 0.2991 -0.9542 0.0000
vn 0.3616 -0.9323 0.0000
vn 0.0000 -0.0703 0.9975
vn 0.0000 -0.0672 0.9977
vn -0.6238 -0.7816 0.0000
vn 0.6238 -0.7816 0.0000
vn 0.7921 -0.6104 0.0000
vn 0.0000 -0.0395 0.9992
vn 0.0000 -0.0395 -0.9992
vn -0.7921 -0.6104 0.0000
vn 0.0000 -0.0170 0.9999
vn 0.0000 -0.0170 -0.9999
vn 0.6064 -0.3369 0.7202
vn -0.6064 -0.3369 -0.7202
vn 0.2418 -0.1022 0.9649
vn -0.2418 -0.1022 -0.9649
s off
f 66/1/1 67/2/1 65/3/1
f 68/4/2 71/5/2 67/2/2
f 72/6/3 69/7/3 71/5/3
f 70/8/4 65/9/4 69/7/4
f 71/5/5 65/10/5 67/11/5
f 68/12/6 70/8/6 72/6/6
f 74/13/1 75/14/1 73/15/1
f 76/16/7 79/17/7 75/14/7
f 80/18/3 77/19/3 79/17/3
f 78/20/8 73/21/8 77/19/8
f 79/17/5 73/22/5 75/23/5
f 76/24/6 78/20/6 80/18/6
f 98/25/9 99/26/9 97/27/9
f 100/28/7 103/29/7 99/26/7
f 104/30/10 101/31/10 103/29/10
f 101/31/8 98/32/8 97/33/8
f 103/29/11 97/34/11 99/35/11
f 100/36/12 102/37/12 104/30/12
f 106/38/13 107/39/13 105/40/13
f 107/39/7 112/41/7 111/42/7
f 111/42/14 110/43/14 109/44/14
f 110/43/8 105/45/8 109/44/8
f 111/42/15 105/46/15 107/47/15
f 108/48/16 110/43/16 112/41/16
f 114/49/9 115/50/9 113/51/9
f 116/52/7 119/53/7 115/50/7
f 120/54/10 117/55/10 119/53/10
f 117/55/8 114/56/8 113/57/8
f 119/53/11 113/58/11 115/59/11
f 116/60/12 118/61/12 120/54/12
f 122/62/13 123/63/13 121/64/13
f 123/63/7 128/65/7 127/66/7
f 128/65/14 125/67/14 127/66/14
f 126/68/8 121/69/8 125/67/8
f 127/66/15 121/70/15 123/71/15
f 124/72/16 126/68/16 128/65/16
f 130/73/1 131/74/1 129/75/1
f 132/76/7 135/77/7 131/74/7
f 136/78/3 133/79/3 135/77/3
f 134/80/8 129/81/8 133/79/8
f 135/77/5 129/82/5 131/83/5
f 132/84/6 134/80/6 136/78/6
f 138/85/1 139/86/1 137/87/1
f 140/88/7 143/89/7 139/86/7
f 144/90/3 141/91/3 143/89/3
f 142/92/8 137/93/8 141/91/8
f 143/89/5 137/94/5 139/95/5
f 140/96/6 142/92/6 144/90/6
f 66/1/1 68/4/1 67/2/1
f 68/4/2 72/6/2 71/5/2
f 72/6/3 70/8/3 69/7/3
f 70/8/4 66/97/4 65/9/4
f 71/5/5 69/7/5 65/10/5
f 68/12/6 66/98/6 70/8/6
f 74/13/1 76/16/1 75/14/1
f 76/16/7 80/18/7 79/17/7
f 80/18/3 78/20/3 77/19/3
f 78/20/8 74/99/8 73/21/8
f 79/17/5 77/19/5 73/22/5
f 76/24/6 74/100/6 78/20/6
f 98/25/9 100/28/9 99/26/9
f 100/28/7 104/30/7 103/29/7
f 104/30/10 102/37/10 101/31/10
f 101/31/8 102/37/8 98/32/8
f 103/29/11 101/31/11 97/34/11
f 100/36/12 98/101/12 102/37/12
f 106/38/13 108/102/13 107/39/13
f 107/39/7 108/102/7 112/41/7
f 111/42/14 112/41/14 110/43/14
f 110/43/8 106/103/8 105/45/8
f 111/42/15 109/44/15 105/46/15
f 108/48/16 106/104/16 110/43/16
f 114/49/9 116/52/9 115/50/9
f 116/52/7 120/54/7 119/53/7
f 120/54/10 118/61/10 117/55/10
f 117/55/8 118/61/8 114/56/8
f 119/53/11 117/55/11 113/58/11
f 116/60/12 114/105/12 118/61/12
f 122/62/13 124/106/13 123/63/13
f 123/63/7 124/106/7 128/65/7
f 128/65/14 126/68/14 125/67/14
f 126/68/8 122/107/8 121/69/8
f 127/66/15 125/67/15 121/70/15
f 124/72/16 122/108/16 126/68/16
f 130/73/1 132/76/1 131/74/1
f 132/76/7 136/78/7 135/77/7
f 136/78/3 134/80/3 133/79/3
f 134/80/8 130/109/8 129/81/8
f 135/77/5 133/79/5 129/82/5
f 132/84/6 130/110/6 134/80/6
f 138/85/1 140/88/1 139/86/1
f 140/88/7 144/90/7 143/89/7
f 144/90/3 142/92/3 141/91/3
f 142/92/8 138/111/8 137/93/8
f 143/89/5 141/91/5 137/94/5
f 140/96/6 138/112/6 142/92/6
s 1
f 2/113/17 3/114/18 1/115/19
f 4/116/20 5/117/21 3/114/18
f 6/118/22 7/119/23 5/117/21
f 8/120/24 9/121/25 7/119/23
f 10/122/26 11/123/27 9/121/25
f 12/124/28 13/125/29 11/123/27
f 14/126/30 15/127/31 13/125/29
f 16/128/32 17/129/33 15/127/31
f 18/130/34 19/131/35 17/129/33
f 20/132/36 21/133/37 19/131/35
f 22/134/38 23/135/39 21/133/37
f 23/135/39 26/136/40 25/137/41
f 26/136/40 27/138/42 25/137/41
f 28/139/43 29/140/44 27/138/42
f 12/124/28 39/141/45 14/126/30
f 30/142/46 31/143/47 29/140/44
f 32/144/48 1/145/19 31/143/47
f 19/146/5 23/147/5 31/148/5
f 39/141/45 56/149/49 40/150/50
f 24/151/51 43/152/52 44/153/53
f 32/144/48 34/154/54 2/155/17
f 10/122/26 36/156/55 37/157/56
f 20/132/36 41/158/57 42/159/58
f 28/139/43 47/160/59 30/142/46
f 6/118/22 33/161/60 35/162/61
f 14/126/30 40/150/50 16/128/32
f 26/136/40 44/153/62 45/163/63
f 10/122/26 38/164/64 12/124/28
f 22/134/38 42/159/58 43/152/52
f 30/142/46 48/165/65 32/144/48
f 8/120/24 35/162/61 36/156/66
f 16/128/32 41/158/57 18/130/34
f 4/116/20 34/166/54 33/161/60
f 26/136/40 46/167/67 28/139/43
f 52/168/6 51/169/6 55/170/6
f 47/160/59 64/171/68 48/165/65
f 40/150/50 57/172/69 41/158/57
f 33/161/60 50/173/70 49/174/71
f 48/165/65 50/175/70 34/154/54
f 42/159/58 57/172/69 58/176/72
f 35/162/61 49/174/71 51/177/73
f 43/152/52 58/176/72 59/178/74
f 36/156/66 51/177/73 52/179/75
f 44/153/53 59/178/74 60/180/76
f 37/157/56 52/179/77 53/181/78
f 45/163/63 60/180/79 61/182/80
f 37/157/81 54/183/82 38/164/64
f 45/163/83 62/184/84 46/167/67
f 38/164/85 55/185/86 39/141/45
f 46/167/87 63/186/88 47/160/59
f 82/187/89 83/188/90 81/189/90
f 84/190/91 87/191/92 83/188/92
f 88/192/93 85/193/94 87/191/94
f 86/194/95 81/195/96 85/193/96
f 83/188/90 90/196/97 81/189/90
f 84/197/6 86/194/6 88/192/6
f 92/198/98 95/199/99 91/200/98
f 85/193/94 91/200/98 87/191/94
f 81/195/96 92/198/100 85/193/96
f 87/191/92 89/201/101 83/188/92
f 95/199/5 94/202/5 93/203/5
f 89/201/97 94/204/102 90/196/97
f 90/205/100 96/206/103 92/198/100
f 91/200/101 93/207/104 89/201/101
f 2/113/17 4/116/20 3/114/18
f 4/116/20 6/118/22 5/117/21
f 6/118/22 8/120/24 7/119/23
f 8/120/24 10/122/26 9/121/25
f 10/122/26 12/124/28 11/123/27
f 12/124/28 14/126/30 13/125/29
f 14/126/30 16/128/32 15/127/31
f 16/128/32 18/130/34 17/129/33
f 18/130/34 20/132/36 19/131/35
f 20/132/36 22/134/38 21/133/37
f 22/134/38 24/151/51 23/135/39
f 23/135/39 24/151/51 26/136/40
f 26/136/40 28/139/43 27/138/42
f 28/139/43 30/142/46 29/140/44
f 12/124/28 38/164/85 39/141/45
f 30/142/46 32/144/48 31/143/47
f 32/144/48 2/155/17 1/145/19
f 31/148/5 1/208/5 3/209/5
f 3/209/5 5/210/5 7/211/5
f 7/211/5 9/212/5 11/213/5
f 11/213/5 13/214/5 7/211/5
f 13/214/5 15/215/5 7/211/5
f 15/215/5 17/216/5 19/146/5
f 19/146/5 21/217/5 23/147/5
f 23/147/5 25/218/5 27/219/5
f 27/219/5 29/220/5 23/147/5
f 29/220/5 31/148/5 23/147/5
f 31/148/5 3/209/5 15/215/5
f 3/209/5 7/211/5 15/215/5
f 15/215/5 19/146/5 31/148/5
f 39/141/45 55/185/86 56/149/49
f 24/151/51 22/134/38 43/152/52
f 32/144/48 48/165/65 34/154/54
f 10/122/26 8/120/24 36/156/55
f 20/132/36 18/130/34 41/158/57
f 28/139/43 46/167/87 47/160/59
f 6/118/22 4/116/20 33/161/60
f 14/126/30 39/141/45 40/150/50
f 26/136/40 24/151/51 44/153/62
f 10/122/26 37/157/81 38/164/64
f 22/134/38 20/132/36 42/159/58
f 30/142/46 47/160/59 48/165/65
f 8/120/24 6/118/22 35/162/61
f 16/128/32 40/150/50 41/158/57
f 4/116/20 2/113/17 34/166/54
f 26/136/40 45/163/83 46/167/67
f 51/169/6 49/221/6 56/222/6
f 49/221/6 50/223/6 57/224/6
f 50/223/6 64/225/6 58/226/6
f 64/225/6 63/227/6 59/228/6
f 63/227/6 62/229/6 59/228/6
f 62/229/6 61/230/6 60/231/6
f 59/228/6 62/229/6 60/231/6
f 59/228/6 58/226/6 64/225/6
f 58/226/6 57/224/6 50/223/6
f 57/224/6 56/222/6 49/221/6
f 56/222/6 55/170/6 51/169/6
f 55/170/6 54/232/6 52/168/6
f 54/232/6 53/233/6 52/168/6
f 47/160/59 63/186/88 64/171/68
f 40/150/50 56/149/49 57/172/69
f 33/161/60 34/166/54 50/173/70
f 48/165/65 64/171/68 50/175/70
f 42/159/58 41/158/57 57/172/69
f 35/162/61 33/161/60 49/174/71
f 43/152/52 42/159/58 58/176/72
f 36/156/66 35/162/61 51/177/73
f 44/153/53 43/152/52 59/178/74
f 37/157/56 36/156/55 52/179/77
f 45/163/63 44/153/62 60/180/79
f 37/157/81 53/181/105 54/183/82
f 45/163/83 61/182/106 62/184/84
f 38/164/85 54/183/107 55/185/86
f 46/167/87 62/184/108 63/186/88
f 82/187/89 84/190/89 83/188/90
f 84/190/91 88/192/91 87/191/92
f 88/192/93 86/194/93 85/193/94
f 86/194/95 82/234/95 81/195/96
f 83/188/90 89/201/97 90/196/97
f 84/197/6 82/235/6 86/194/6
f 92/198/98 96/206/99 95/199/99
f 85/193/94 92/198/98 91/200/98
f 81/195/96 90/205/100 92/198/100
f 87/191/92 91/200/101 89/201/101
f 95/199/5 96/206/5 94/202/5
f 89/201/97 93/207/102 94/204/102
f 90/205/100 94/236/103 96/206/103
f 91/200/101 95/199/104 93/207/104
