# Blender v3.4.1 OBJ File: 'vehicles.blend'
# www.blender.org
o Cable_Car_Station_Floor_Cube.005
v -1.000000 -0.407155 0.840655
v -1.000000 -0.372204 0.840655
v -1.000000 -0.407155 -0.840655
v -1.000000 -0.372204 -0.840655
v 1.000000 -0.407155 0.840655
v 1.000000 -0.372204 0.840655
v 1.000000 -0.407155 -0.840655
v 1.000000 -0.372204 -0.840655
vt 1.000000 0.484880
vt 0.989920 0.969760
vt 0.989920 0.484880
vt 0.979840 0.576789
vt 0.989920 0.000000
vt 0.989920 0.576789
vt 1.000000 0.000000
vt 0.989920 0.484880
vt 0.969760 0.576789
vt 0.979840 0.000000
vt 0.979840 0.576789
vt 0.484880 0.576789
vt 0.000000 0.000000
vt 0.484880 0.000000
vt 0.969760 0.576789
vt 0.484880 0.000000
vt 0.969760 0.000000
vt 1.000000 0.969760
vt 0.979840 0.000000
vt 1.000000 0.484880
vt 0.969760 0.000000
vt 0.000000 0.576789
vt 0.484880 0.576789
vn -1.0000 0.0000 0.0000
vn 0.0000 0.0000 -1.0000
vn 1.0000 0.0000 0.0000
vn 0.0000 0.0000 1.0000
vn 0.0000 -1.0000 0.0000
vn 0.0000 1.0000 0.0000
s off
f 2/1/1 3/2/1 1/3/1
f 4/4/2 7/5/2 3/6/2
f 8/7/3 5/8/3 7/5/3
f 6/9/4 1/10/4 5/11/4
f 7/12/5 1/13/5 3/14/5
f 4/15/6 6/16/6 8/17/6
f 2/1/1 4/18/1 3/2/1
f 4/4/2 8/19/2 7/5/2
f 8/7/3 6/20/3 5/8/3
f 6/9/4 2/21/4 1/10/4
f 7/12/5 5/22/5 1/13/5
f 4/15/6 2/23/6 6/16/6
