# Blender v3.4.1 OBJ File: 'platforming.blend'
# www.blender.org
o Boost_Pad_Cube.001
v -0.367903 -0.010137 1.000000
v -0.354087 0.010137 0.962449
v -0.367903 -0.010137 -1.000000
v -0.354087 0.010137 -0.962449
v 0.367903 -0.010137 1.000000
v 0.354087 0.010137 0.962449
v 0.367903 -0.010137 -1.000000
v 0.354087 0.010137 -0.962449
vt 0.728898 0.981225
vt 0.735805 0.000000
vt 0.735805 1.000000
vt 0.728898 0.018776
vt 0.367903 0.000000
vt 0.374810 0.018775
vt 0.367903 1.000000
vt 0.374810 0.981224
vt 0.000000 1.000000
vt 0.000000 0.000000
vn -0.8264 0.5631 0.0000
vn 0.0000 0.8799 -0.4751
vn 0.8264 0.5631 0.0000
vn 0.0000 0.8799 0.4751
vn 0.0000 -1.0000 0.0000
vn 0.0000 1.0000 0.0000
s off
f 2/1/1 3/2/1 1/3/1
f 4/4/2 7/5/2 3/2/2
f 8/6/3 5/7/3 7/5/3
f 6/8/4 1/3/4 5/7/4
f 7/5/5 1/9/5 3/10/5
f 4/4/6 6/8/6 8/6/6
f 2/1/1 4/4/1 3/2/1
f 4/4/2 8/6/2 7/5/2
f 8/6/3 6/8/3 5/7/3
f 6/8/4 2/1/4 1/3/4
f 7/5/5 5/7/5 1/9/5
f 4/4/6 2/1/6 6/8/6
