# Blender v3.4.1 OBJ File: 'platforming.blend'
# www.blender.org
o Jump_Pad_Cube.004
v -0.146107 -0.755541 0.146107
v -0.146107 0.008578 0.146107
v -0.146107 -0.755541 -0.146107
v -0.146107 0.008578 -0.146107
v 0.146107 -0.755541 0.146107
v 0.146107 0.008578 0.146107
v 0.146107 -0.755541 -0.146107
v 0.146107 0.008578 -0.146107
v -0.707343 -0.058220 0.814032
v -0.814032 -0.058220 0.707343
v -0.748171 -0.058220 0.805911
v -0.782784 -0.058220 0.782784
v -0.805911 -0.058220 0.748171
v -0.814032 0.047873 0.707343
v -0.707343 0.047873 0.814032
v -0.805911 0.047873 0.748171
v -0.782784 0.047873 0.782784
v -0.748171 0.047873 0.805911
v -0.814032 -0.058220 -0.707343
v -0.707343 -0.058220 -0.814032
v -0.805911 -0.058220 -0.748171
v -0.782784 -0.058220 -0.782784
v -0.748171 -0.058220 -0.805911
v -0.707343 0.047873 -0.814032
v -0.814032 0.047873 -0.707343
v -0.748171 0.047873 -0.805911
v -0.782784 0.047873 -0.782784
v -0.805911 0.047873 -0.748171
v 0.814032 -0.058220 0.707343
v 0.707343 -0.058220 0.814032
v 0.805911 -0.058220 0.748171
v 0.782784 -0.058220 0.782784
v 0.748171 -0.058220 0.805911
v 0.707343 0.047873 0.814032
v 0.814032 0.047873 0.707343
v 0.748171 0.047873 0.805911
v 0.782784 0.047873 0.782784
v 0.805911 0.047873 0.748171
v 0.707343 -0.058220 -0.814032
v 0.814032 -0.058220 -0.707343
v 0.748171 -0.058220 -0.805911
v 0.782784 -0.058220 -0.782784
v 0.805911 -0.058220 -0.748171
v 0.814032 0.047873 -0.707343
v 0.707343 0.047873 -0.814032
v 0.805911 0.047873 -0.748171
v 0.782784 0.047873 -0.782784
v 0.748171 0.047873 -0.805911
vt 0.625000 0.000000
vt 0.375000 0.250000
vt 0.375000 0.000000
vt 0.625000 0.250000
vt 0.375000 0.500000
vt 0.625000 0.500000
vt 0.375000 0.750000
vt 0.625000 0.750000
vt 0.375000 1.000000
vt 0.125000 0.750000
vt 0.125000 0.500000
vt 0.875000 0.500000
vt 0.625000 0.766383
vt 0.375000 0.983617
vt 0.375000 0.766383
vt 0.625000 0.516383
vt 0.375000 0.733617
vt 0.375000 0.516383
vt 0.875000 0.516383
vt 0.641383 0.750000
vt 0.625000 0.733617
vt 0.625000 0.016383
vt 0.375000 0.233617
vt 0.375000 0.016383
vt 0.625000 0.266383
vt 0.375000 0.483617
vt 0.375000 0.266383
vt 0.625000 0.983617
vt 0.375000 0.989887
vt 0.625000 0.989887
vt 0.375000 1.000000
vt 0.625000 0.000000
vt 0.375000 0.010113
vt 0.375000 0.000000
vt 0.625000 0.010113
vt 0.625000 0.260113
vt 0.375000 0.260113
vt 0.625000 0.250000
vt 0.375000 0.250000
vt 0.625000 0.239887
vt 0.375000 0.239887
vt 0.625000 0.233617
vt 0.625000 0.510113
vt 0.375000 0.510113
vt 0.625000 0.500000
vt 0.375000 0.500000
vt 0.625000 0.489887
vt 0.375000 0.489887
vt 0.625000 0.483617
vt 0.625000 0.760113
vt 0.375000 0.760113
vt 0.625000 0.750000
vt 0.375000 0.750000
vt 0.625000 0.739887
vt 0.375000 0.739887
vt 0.141383 0.750000
vt 0.125000 0.733617
vt 0.625000 1.000000
vt 0.875000 0.750000
vt 0.641383 0.500000
vt 0.626247 0.510113
vt 0.635113 0.501247
vt 0.629798 0.504798
vt 0.858617 0.500000
vt 0.864887 0.501247
vt 0.870202 0.504798
vt 0.873753 0.510113
vt 0.875000 0.733617
vt 0.873753 0.739887
vt 0.858617 0.750000
vt 0.870202 0.745202
vt 0.864887 0.748753
vt 0.635113 0.748753
vt 0.629798 0.745202
vt 0.626247 0.739887
vt 0.625000 1.000000
vt 0.125000 0.516383
vt 0.141383 0.500000
vt 0.126247 0.510113
vt 0.135113 0.501247
vt 0.129798 0.504798
vt 0.358617 0.500000
vt 0.364887 0.501247
vt 0.370202 0.504798
vt 0.373753 0.510113
vt 0.373753 0.739887
vt 0.358617 0.750000
vt 0.370202 0.745202
vt 0.364887 0.748753
vt 0.135113 0.748753
vt 0.129798 0.745202
vt 0.126247 0.739887
vn -1.0000 0.0000 0.0000
vn 0.0000 0.0000 -1.0000
vn 1.0000 0.0000 0.0000
vn 0.0000 0.0000 1.0000
vn 0.0000 -1.0000 0.0000
vn 0.0000 1.0000 0.0000
vn 0.0980 0.0000 0.9952
vn -0.0980 0.0000 0.9952
vn 0.9952 0.0000 -0.0980
vn 0.9952 0.0000 0.0980
vn -0.9952 0.0000 0.0980
vn -0.9952 0.0000 -0.0980
vn -0.0980 0.0000 -0.9952
vn 0.0980 0.0000 -0.9952
vn -0.3827 0.0000 0.9239
vn -0.7071 0.0000 0.7071
vn -0.9239 0.0000 0.3827
vn -0.3827 0.0000 -0.9239
vn -0.7071 0.0000 -0.7071
vn -0.9239 0.0000 -0.3827
vn 0.9239 0.0000 -0.3827
vn 0.7071 0.0000 -0.7071
vn 0.3827 0.0000 -0.9239
vn 0.3827 0.0000 0.9239
vn 0.7071 0.0000 0.7071
vn 0.9239 0.0000 0.3827
s 1
f 2/1/1 3/2/1 1/3/1
f 4/4/2 7/5/2 3/2/2
f 8/6/3 5/7/3 7/5/3
f 6/8/4 1/9/4 5/7/4
f 7/5/5 1/10/5 3/11/5
f 4/12/6 6/8/6 8/6/6
f 34/13/7 9/14/8 30/15/7
f 44/16/9 29/17/10 40/18/9
f 25/19/6 34/20/6 35/21/6
f 14/22/11 19/23/12 10/24/11
f 24/25/13 39/26/14 20/27/13
f 15/28/8 11/29/15 9/14/8
f 18/30/15 12/31/16 11/29/15
f 17/32/16 13/33/17 12/34/16
f 16/35/17 10/24/11 13/33/17
f 20/27/13 26/36/18 24/25/13
f 23/37/18 27/38/19 26/36/18
f 22/39/19 28/40/20 27/38/19
f 21/41/20 25/42/12 28/40/20
f 40/18/9 46/43/21 44/16/9
f 43/44/21 47/45/22 46/43/21
f 42/46/22 48/47/23 47/45/22
f 41/48/23 45/49/14 48/47/23
f 30/15/7 36/50/24 34/13/7
f 33/51/24 37/52/25 36/50/24
f 32/53/25 38/54/26 37/52/25
f 31/55/26 35/21/10 38/54/26
f 40/18/5 9/56/5 10/57/5
f 2/1/1 4/4/1 3/2/1
f 4/4/2 8/6/2 7/5/2
f 8/6/3 6/8/3 5/7/3
f 6/8/4 2/58/4 1/9/4
f 7/5/5 5/7/5 1/10/5
f 4/12/6 2/59/6 6/8/6
f 34/13/7 15/28/8 9/14/8
f 44/16/9 35/21/10 29/17/10
f 35/21/6 44/16/6 45/60/6
f 44/16/6 46/61/6 48/62/6
f 46/61/6 47/63/6 48/62/6
f 48/62/6 45/60/6 44/16/6
f 45/60/6 24/64/6 35/21/6
f 24/64/6 26/65/6 27/66/6
f 27/66/6 28/67/6 25/19/6
f 25/19/6 14/68/6 34/20/6
f 14/68/6 16/69/6 15/70/6
f 34/20/6 14/68/6 15/70/6
f 16/69/6 17/71/6 18/72/6
f 18/72/6 15/70/6 16/69/6
f 34/20/6 36/73/6 35/21/6
f 36/73/6 37/74/6 35/21/6
f 37/74/6 38/75/6 35/21/6
f 24/64/6 27/66/6 25/19/6
f 35/21/6 24/64/6 25/19/6
f 14/22/11 25/42/12 19/23/12
f 24/25/13 45/49/14 39/26/14
f 15/28/8 18/30/15 11/29/15
f 18/30/15 17/76/16 12/31/16
f 17/32/16 16/35/17 13/33/17
f 16/35/17 14/22/11 10/24/11
f 20/27/13 23/37/18 26/36/18
f 23/37/18 22/39/19 27/38/19
f 22/39/19 21/41/20 28/40/20
f 21/41/20 19/23/12 25/42/12
f 40/18/9 43/44/21 46/43/21
f 43/44/21 42/46/22 47/45/22
f 42/46/22 41/48/23 48/47/23
f 41/48/23 39/26/14 45/49/14
f 30/15/7 33/51/24 36/50/24
f 33/51/24 32/53/25 37/52/25
f 32/53/25 31/55/26 38/54/26
f 31/55/26 29/17/10 35/21/10
f 10/57/5 19/77/5 20/78/5
f 19/77/5 21/79/5 23/80/5
f 21/79/5 22/81/5 23/80/5
f 23/80/5 20/78/5 19/77/5
f 20/78/5 39/82/5 10/57/5
f 39/82/5 41/83/5 42/84/5
f 42/84/5 43/85/5 40/18/5
f 40/18/5 29/17/5 9/56/5
f 29/17/5 31/86/5 30/87/5
f 9/56/5 29/17/5 30/87/5
f 31/86/5 32/88/5 33/89/5
f 33/89/5 30/87/5 31/86/5
f 9/56/5 11/90/5 10/57/5
f 11/90/5 12/91/5 10/57/5
f 12/91/5 13/92/5 10/57/5
f 39/82/5 42/84/5 40/18/5
f 10/57/5 39/82/5 40/18/5
