# Blender v3.4.1 OBJ File: 'entities.blend'
# www.blender.org
o Speech_Bubble_Cube
v -1.000000 -0.193112 0.325894
v -0.593885 -0.599227 0.325894
v -0.980123 -0.318608 0.325894
v -0.922439 -0.431820 0.325894
v -0.832593 -0.521666 0.325894
v -0.719381 -0.579350 0.325894
v -0.593885 0.599227 0.325894
v -1.000000 0.193112 0.325894
v -0.719381 0.579350 0.325894
v -0.832593 0.521666 0.325894
v -0.922439 0.431820 0.325894
v -0.980123 0.318608 0.325894
v -0.593885 -0.599227 -0.325894
v -1.000000 -0.193112 -0.325894
v -0.719381 -0.579350 -0.325894
v -0.832593 -0.521666 -0.325894
v -0.922439 -0.431820 -0.325894
v -0.980123 -0.318608 -0.325894
v -1.000000 0.193112 -0.325894
v -0.593885 0.599227 -0.325894
v -0.980123 0.318608 -0.325894
v -0.922439 0.431820 -0.325894
v -0.832593 0.521666 -0.325894
v -0.719381 0.579350 -0.325894
v 0.593885 -0.599227 0.325894
v 1.000000 -0.193112 0.325894
v 0.719381 -0.579350 0.325894
v 0.832593 -0.521666 0.325894
v 0.922439 -0.431820 0.325894
v 0.980123 -0.318608 0.325894
v 1.000000 0.193112 0.325894
v 0.593885 0.599227 0.325894
v 0.980123 0.318608 0.325894
v 0.922439 0.431820 0.325894
v 0.832593 0.521666 0.325894
v 0.719381 0.579350 0.325894
v 1.000000 -0.193112 -0.325894
v 0.593885 -0.599227 -0.325894
v 0.980123 -0.318608 -0.325894
v 0.922439 -0.431820 -0.325894
v 0.832593 -0.521666 -0.325894
v 0.719381 -0.579350 -0.325894
v 0.593885 0.599227 -0.325894
v 1.000000 0.193112 -0.325894
v 0.719381 0.579350 -0.325894
v 0.832593 0.521666 -0.325894
v 0.922439 0.431820 -0.325894
v 0.980123 0.318608 -0.325894
v -0.393300 -0.969066 0.183623
v -0.043060 0.190748 0.183623
v -0.393300 -0.969066 -0.183623
v -0.043060 0.190748 -0.183623
v -0.391650 -0.970542 0.183623
v 0.775122 -0.541314 0.183623
v -0.391650 -0.970542 -0.183623
v 0.775122 -0.541314 -0.183623
vt 0.433538 0.997515
vt 0.391179 0.979074
vt 0.375000 0.949236
vt 0.540284 0.500000
vt 0.459716 0.750000
vt 0.459716 0.500000
vt 0.824236 0.500000
vt 0.675764 0.750000
vt 0.675764 0.500000
vt 0.540284 0.000000
vt 0.459716 0.250000
vt 0.459716 0.000000
vt 0.433538 0.497515
vt 0.391179 0.479074
vt 0.375000 0.449236
vt 0.175764 0.750000
vt 0.160077 0.500000
vt 0.175764 0.500000
vt 0.160077 0.750000
vt 0.145926 0.500000
vt 0.145926 0.750000
vt 0.125000 0.500000
vt 0.375000 0.000000
vt 0.433538 0.250000
vt 0.375000 0.250000
vt 0.433538 0.000000
vt 0.839923 0.750000
vt 0.824236 0.750000
vt 0.839923 0.500000
vt 0.875000 0.750000
vt 0.625000 0.250000
vt 0.590079 0.000000
vt 0.625000 0.000000
vt 0.590079 0.250000
vt 0.566462 0.000000
vt 0.566462 0.250000
vt 0.324236 0.500000
vt 0.339923 0.750000
vt 0.324236 0.750000
vt 0.339923 0.500000
vt 0.354074 0.750000
vt 0.354074 0.500000
vt 0.409921 0.750000
vt 0.409921 0.500000
vt 0.433538 0.750000
vt 0.433538 0.500000
vt 0.660077 0.500000
vt 0.660077 0.750000
vt 0.645926 0.500000
vt 0.645926 0.750000
vt 0.590079 0.500000
vt 0.590079 0.750000
vt 0.566462 0.500000
vt 0.566462 0.750000
vt 0.625000 0.000000
vt 0.375000 0.250000
vt 0.375000 0.000000
vt 0.625000 0.250000
vt 0.375000 0.500000
vt 0.625000 0.500000
vt 0.375000 0.750000
vt 0.625000 1.000000
vt 0.375000 1.000000
vt 0.125000 0.750000
vt 0.125000 0.500000
vt 0.875000 0.500000
vt 0.625000 0.750000
vt 0.375000 0.800764
vt 0.625000 0.800764
vt 0.379146 0.785077
vt 0.391179 0.770926
vt 0.409921 0.759695
vt 0.433538 0.752485
vt 0.540284 0.750000
vt 0.566462 0.752485
vt 0.590079 0.759695
vt 0.608821 0.770926
vt 0.620854 0.785077
vt 0.625000 0.949236
vt 0.620854 0.964923
vt 0.540284 1.000000
vt 0.608821 0.979074
vt 0.590079 0.990305
vt 0.566462 0.997515
vt 0.459716 1.000000
vt 0.409921 0.990305
vt 0.379146 0.964923
vt 0.540284 0.250000
vt 0.375000 0.300764
vt 0.625000 0.300764
vt 0.379146 0.285077
vt 0.391179 0.270926
vt 0.409921 0.259695
vt 0.433538 0.252485
vt 0.566462 0.252485
vt 0.590079 0.259695
vt 0.608821 0.270926
vt 0.620854 0.285077
vt 0.625000 0.449236
vt 0.620854 0.464923
vt 0.608821 0.479074
vt 0.590079 0.490305
vt 0.566462 0.497515
vt 0.409921 0.490305
vt 0.379146 0.464923
vt 0.125000 0.750000
vt 0.875000 0.500000
vt 0.875000 0.750000
vn 0.0000 0.0000 1.0000
vn 0.9969 0.0785 0.0000
vn 0.9969 -0.0785 0.0000
vn -0.0785 0.9969 0.0000
vn 0.0785 0.9969 0.0000
vn -0.9969 0.0785 0.0000
vn -0.9969 -0.0785 0.0000
vn -0.0000 0.0000 -1.0000
vn -0.0785 -0.9969 0.0000
vn -0.3090 -0.9511 0.0000
vn -0.5878 -0.8090 0.0000
vn -0.8090 -0.5878 0.0000
vn -0.9511 -0.3090 0.0000
vn -0.3090 0.9511 0.0000
vn -0.5878 0.8090 0.0000
vn -0.8090 0.5878 0.0000
vn -0.9511 0.3090 0.0000
vn 0.0785 -0.9969 0.0000
vn 0.3090 -0.9511 0.0000
vn 0.5878 -0.8090 0.0000
vn 0.8090 -0.5878 0.0000
vn 0.9511 -0.3090 0.0000
vn 0.3090 0.9511 0.0000
vn 0.5878 0.8090 0.0000
vn 0.8090 0.5878 0.0000
vn 0.9511 0.3090 0.0000
vn -0.9573 0.2891 0.0000
vn 0.3453 -0.9385 0.0000
vn -0.6668 -0.7453 0.0000
vn 0.6668 0.7452 0.0000
s 1
f 3/1/1 5/2/1 2/3/1
f 44/4/2 26/5/3 37/6/3
f 20/7/4 32/8/5 43/9/5
f 8/10/6 14/11/7 1/12/7
f 39/13/8 41/14/8 38/15/8
f 2/16/9 15/17/10 13/18/9
f 6/19/10 16/20/11 15/17/10
f 5/21/11 17/22/12 16/20/11
f 4/23/12 18/24/13 17/25/12
f 3/26/13 14/11/7 18/24/13
f 20/7/4 9/27/14 7/28/4
f 24/29/14 10/30/15 9/27/14
f 23/31/15 11/32/16 10/33/15
f 22/34/16 12/35/17 11/32/16
f 21/36/17 8/10/6 12/35/17
f 38/37/18 27/38/19 25/39/18
f 42/40/19 28/41/20 27/38/19
f 41/42/20 29/43/21 28/41/20
f 40/44/21 30/45/22 29/43/21
f 39/46/22 26/5/3 30/45/22
f 32/8/5 45/47/23 43/9/5
f 36/48/23 46/49/24 45/47/23
f 35/50/24 47/51/25 46/49/24
f 34/52/25 48/53/26 47/51/25
f 33/54/26 44/4/2 48/53/26
f 38/37/18 2/16/9 13/18/9
f 50/55/27 51/56/27 49/57/27
f 52/58/8 55/59/8 51/56/8
f 56/60/28 53/61/28 55/59/28
f 53/61/1 50/62/1 49/63/1
f 55/59/29 49/64/29 51/65/29
f 52/66/30 54/67/30 56/60/30
f 2/3/1 25/68/1 32/69/1
f 25/68/1 27/70/1 26/5/1
f 32/69/1 25/68/1 26/5/1
f 27/70/1 28/71/1 29/72/1
f 29/72/1 30/73/1 26/5/1
f 26/5/1 31/74/1 32/69/1
f 31/74/1 33/75/1 32/69/1
f 33/75/1 34/76/1 35/77/1
f 35/77/1 36/78/1 32/69/1
f 32/69/1 7/79/1 2/3/1
f 7/79/1 9/80/1 8/81/1
f 2/3/1 7/79/1 8/81/1
f 9/80/1 10/82/1 11/83/1
f 11/83/1 12/84/1 8/81/1
f 8/81/1 1/85/1 2/3/1
f 1/85/1 3/1/1 2/3/1
f 3/1/1 4/86/1 5/2/1
f 5/2/1 6/87/1 2/3/1
f 27/70/1 29/72/1 26/5/1
f 33/75/1 35/77/1 32/69/1
f 9/80/1 11/83/1 8/81/1
f 44/4/2 31/74/2 26/5/3
f 20/7/4 7/28/4 32/8/5
f 8/10/6 19/88/6 14/11/7
f 38/15/8 13/89/8 20/90/8
f 13/89/8 15/91/8 14/11/8
f 20/90/8 13/89/8 14/11/8
f 15/91/8 16/92/8 17/93/8
f 17/93/8 18/94/8 14/11/8
f 14/11/8 19/88/8 20/90/8
f 19/88/8 21/95/8 20/90/8
f 21/95/8 22/96/8 23/97/8
f 23/97/8 24/98/8 20/90/8
f 20/90/8 43/99/8 38/15/8
f 43/99/8 45/100/8 44/4/8
f 38/15/8 43/99/8 44/4/8
f 45/100/8 46/101/8 47/102/8
f 47/102/8 48/103/8 44/4/8
f 44/4/8 37/6/8 38/15/8
f 37/6/8 39/13/8 38/15/8
f 39/13/8 40/104/8 41/14/8
f 41/14/8 42/105/8 38/15/8
f 15/91/8 17/93/8 14/11/8
f 21/95/8 23/97/8 20/90/8
f 45/100/8 47/102/8 44/4/8
f 2/16/9 6/19/10 15/17/10
f 6/19/10 5/21/11 16/20/11
f 5/21/11 4/106/12 17/22/12
f 4/23/12 3/26/13 18/24/13
f 3/26/13 1/12/7 14/11/7
f 20/7/4 24/29/14 9/27/14
f 24/29/14 23/107/15 10/30/15
f 23/31/15 22/34/16 11/32/16
f 22/34/16 21/36/17 12/35/17
f 21/36/17 19/88/6 8/10/6
f 38/37/18 42/40/19 27/38/19
f 42/40/19 41/42/20 28/41/20
f 41/42/20 40/44/21 29/43/21
f 40/44/21 39/46/22 30/45/22
f 39/46/22 37/6/3 26/5/3
f 32/8/5 36/48/23 45/47/23
f 36/48/23 35/50/24 46/49/24
f 35/50/24 34/52/25 47/51/25
f 34/52/25 33/54/26 48/53/26
f 33/54/26 31/74/2 44/4/2
f 38/37/18 25/39/18 2/16/9
f 50/55/27 52/58/27 51/56/27
f 52/58/8 56/60/8 55/59/8
f 56/60/28 54/67/28 53/61/28
f 53/61/1 54/67/1 50/62/1
f 55/59/29 53/61/29 49/64/29
f 52/66/30 50/108/30 54/67/30
