# Blender v3.4.1 OBJ File: 'environment.blend'
# www.blender.org
o Vending_Machine_Cube.011
v -0.529937 0.232856 0.390492
v -0.505789 0.217280 0.390492
v -0.522864 0.221842 0.390492
v -0.505789 0.900932 0.390492
v -0.529937 0.885355 0.390492
v -0.522864 0.896369 0.390492
v -0.505789 0.217280 0.366897
v -0.529937 0.232856 0.366897
v -0.522864 0.221842 0.366897
v -0.529937 0.885355 0.366897
v -0.505789 0.900932 0.366897
v -0.522864 0.896369 0.366897
v 0.505789 0.217280 0.390492
v 0.529937 0.232856 0.390492
v 0.522864 0.221842 0.390492
v 0.529937 0.885355 0.390492
v 0.505789 0.900932 0.390492
v 0.522864 0.896369 0.390492
v 0.529937 0.232856 0.366897
v 0.505789 0.217280 0.366897
v 0.522864 0.221842 0.366897
v 0.505789 0.900932 0.366897
v 0.529937 0.885355 0.366897
v 0.522864 0.896369 0.366897
v -0.458952 -0.668350 0.095615
v -0.458952 -0.374797 0.095615
v -0.619405 1.000000 0.377259
v -0.634710 0.984696 0.377259
v -0.634710 0.984696 -0.377259
v 0.458952 -0.668350 0.095615
v -0.619405 1.000000 -0.377259
v 0.458952 -0.374797 0.095615
v 0.634710 0.984696 0.377259
v 0.619405 1.000000 0.377259
v 0.619405 1.000000 -0.377259
v 0.634710 0.984696 -0.377259
v 0.458952 -0.374797 0.377259
v 0.458952 -0.668350 0.377259
v -0.458952 -0.668350 0.377259
v -0.458952 -0.374797 0.377259
v -0.458952 -0.668350 0.326600
v 0.458952 -0.668350 0.326600
v -0.458952 -0.741323 0.095615
v 0.458952 -0.741323 0.095615
v -0.458952 -0.741323 0.326600
v 0.458952 -0.741323 0.326600
v -0.380826 -1.000000 0.377259
v -0.216523 -0.951814 0.377259
v 0.216523 -0.951814 0.377259
v 0.380826 -1.000000 0.377259
v -0.380826 -1.000000 -0.377259
v -0.216523 -0.951814 -0.377259
v 0.216523 -0.951814 -0.377259
v 0.380826 -1.000000 -0.377259
v -0.634710 -0.970633 0.377259
v -0.605343 -1.000000 0.377259
v -0.620958 -0.974052 0.377259
v -0.626108 -0.991399 0.377259
v -0.605343 -1.000000 -0.377259
v -0.634710 -0.970633 -0.377259
v -0.626108 -0.991399 -0.377259
v 0.605343 -1.000000 0.377259
v 0.634710 -0.970633 0.377259
v 0.620958 -0.974052 0.377259
v 0.626108 -0.991399 0.377259
v 0.634710 -0.970633 -0.377259
v 0.605343 -1.000000 -0.377259
v 0.626108 -0.991399 -0.377259
v 0.343170 -0.070077 0.438001
v 0.343170 -0.070077 0.333714
v 0.519748 -0.070077 0.438001
v 0.519748 -0.070077 0.333714
v 0.358036 0.106500 0.418488
v 0.343170 0.091634 0.420131
v 0.347524 0.102146 0.418969
v 0.343170 0.091634 0.333714
v 0.358036 0.106500 0.333714
v 0.347524 0.102146 0.333714
v 0.519748 0.091634 0.420131
v 0.504882 0.106500 0.418488
v 0.515393 0.102146 0.418969
v 0.504882 0.106500 0.333714
v 0.519748 0.091634 0.333714
v 0.515393 0.102146 0.333714
vt 0.508909 0.825824
vt 0.508909 0.752011
vt 0.521647 0.752011
vt 0.582718 0.733663
vt 0.508909 0.502860
vt 0.582718 0.502860
vt 0.202458 0.807506
vt 0.189720 0.807506
vt 0.189720 0.733693
vt 0.601065 0.502860
vt 0.619414 0.733663
vt 0.601065 0.733663
vt 0.260538 0.733693
vt 0.189720 0.502891
vt 0.260538 0.502891
vt 0.638379 0.502860
vt 0.625641 0.733663
vt 0.625641 0.502860
vt 0.318618 0.502891
vt 0.260538 0.733693
vt 0.260538 0.502891
vt 0.579727 0.733663
vt 0.579727 0.752011
vt 0.601065 0.733663
vt 0.260538 0.807506
vt 0.202458 0.825855
vt 0.579727 0.825824
vt 0.508909 0.733663
vt 0.619414 0.502860
vt 0.638379 0.733663
vt 0.318618 0.733693
vt 0.521647 0.733663
vt 0.601065 0.502860
vt 0.260538 0.825855
vt 0.828099 0.272573
vt 0.996073 0.266501
vt 0.999990 0.272573
vt 0.845898 0.699838
vt 0.839965 0.535771
vt 0.845898 0.535771
vt 0.834032 0.791651
vt 0.828099 0.537295
vt 0.834032 0.537295
vt 0.625347 0.669697
vt 0.619414 0.505630
vt 0.625347 0.505630
vt 0.828099 0.006072
vt 0.996083 0.000000
vt 1.000000 0.006072
vt 0.834032 0.537295
vt 0.839965 0.533001
vt 0.839965 0.537295
vt 0.625347 0.502860
vt 0.619414 0.502860
vt 0.828099 0.795945
vt 0.828099 0.791651
vt 0.619414 0.672467
vt 0.625347 0.672467
vt 0.839965 0.791651
vt 0.834032 0.795945
vt 0.834032 0.791651
vt 0.845898 0.533001
vt 0.839965 0.533001
vt 0.834032 0.533001
vt 0.839965 0.702608
vt 0.845898 0.702608
vt 0.508909 0.818202
vt 0.319189 0.506708
vt 0.508909 0.506708
vt 0.594186 0.345665
vt 0.363383 0.345665
vt 0.323038 0.000000
vt 0.828099 0.993759
vt 0.638379 0.502101
vt 0.828099 0.502101
vt 0.189720 0.812533
vt 0.000000 0.756079
vt 0.189720 0.756079
vt 0.319189 0.822050
vt 0.319189 0.818202
vt 0.508909 0.502860
vt 0.533228 0.490745
vt 0.424340 0.490745
vt 0.363383 0.419473
vt 0.319189 0.003848
vt 0.214039 0.490774
vt 0.000000 0.003848
vt 0.828099 0.496880
vt 0.638379 0.005221
vt 0.828099 0.005221
vt 0.189720 0.605879
vt 0.000000 0.564566
vt 0.189720 0.564566
vt 0.189720 0.714766
vt 0.000000 0.605879
vt 0.000000 0.714766
vt 0.638379 0.495477
vt 0.636216 0.500698
vt 0.634921 0.496336
vt 0.630995 0.502860
vt 0.326574 0.502860
vt 0.321352 0.500698
vt 0.322647 0.496336
vt 0.319189 0.495477
vt 0.828099 0.000000
vt 0.189720 0.502891
vt 0.000000 0.508112
vt 0.000000 0.502891
vt 0.000000 0.817755
vt 0.000000 0.812533
vt 0.828099 0.496880
vt 0.638379 0.496880
vt 0.189720 0.508112
vt 0.627387 0.817680
vt 0.606071 0.780757
vt 0.627387 0.780757
vt 0.286761 0.821398
vt 0.308490 0.780736
vt 0.312983 0.821398
vt 0.584221 0.780757
vt 0.605950 0.821419
vt 0.579728 0.821419
vt 0.286761 0.822492
vt 0.260538 0.778093
vt 0.286761 0.778093
vt 0.301199 0.778093
vt 0.260538 0.774355
vt 0.304937 0.774355
vt 0.606071 0.817680
vt 0.627387 0.820324
vt 0.605950 0.820324
vt 0.584513 0.778114
vt 0.605950 0.780757
vt 0.627387 0.778114
vt 0.308198 0.778093
vt 0.286761 0.780736
vt 0.286761 0.778093
vt 0.620389 0.778114
vt 0.579727 0.774371
vt 0.624127 0.774371
vt 0.828099 0.526929
vt 0.829246 0.268279
vt 0.832015 0.266501
vt 0.998843 0.268279
vt 0.999990 0.526929
vt 0.998843 0.531223
vt 0.996073 0.533001
vt 0.832015 0.533001
vt 0.829246 0.531223
vt 0.839965 0.699838
vt 0.619414 0.669697
vt 0.828099 0.260428
vt 0.829246 0.001778
vt 0.832016 0.000000
vt 0.998853 0.001778
vt 1.000000 0.260429
vt 0.998853 0.264722
vt 0.996083 0.266501
vt 0.832016 0.266501
vt 0.829246 0.264722
vt 0.834032 0.533001
vt 0.834032 0.795945
vt 0.839965 0.795945
vt 0.828099 0.533001
vt 0.319189 0.003848
vt 0.634531 0.000000
vt 0.638379 0.003848
vt 0.594186 0.419473
vt 0.638379 0.993759
vt 0.508909 0.822050
vt 0.319189 0.502860
vt 0.574541 0.502860
vt 0.383027 0.502860
vt 0.003848 0.000000
vt 0.315341 0.000000
vt 0.319189 0.495506
vt 0.317027 0.500728
vt 0.311805 0.502891
vt 0.255352 0.502891
vt 0.000000 0.495506
vt 0.105151 0.490774
vt 0.007384 0.502891
vt 0.002163 0.500728
vt 0.063838 0.502891
vt 0.638379 0.496880
vt 0.638379 0.000000
vt 0.189720 0.817755
vt 0.260538 0.822492
vt 0.260538 0.733693
vt 0.304937 0.733693
vt 0.303843 0.776998
vt 0.264276 0.778093
vt 0.261633 0.776998
vt 0.605950 0.778114
vt 0.605950 0.778114
vt 0.579727 0.733663
vt 0.624127 0.733663
vt 0.623032 0.777018
vt 0.583465 0.778114
vt 0.580822 0.777018
vn 1.0000 0.0000 0.0000
vn 0.0000 0.0000 1.0000
vn -1.0000 0.0000 0.0000
vn 0.0000 0.0000 -1.0000
vn 0.0000 -1.0000 0.0000
vn 0.0000 1.0000 0.0000
vn -0.1302 0.9915 0.0000
vn 0.1302 0.9915 0.0000
vn -0.1302 -0.9915 0.0000
vn -0.2581 -0.9661 0.0000
vn -0.8414 -0.5403 0.0000
vn -0.8414 -0.5404 0.0000
vn -0.2581 0.9661 0.0000
vn -0.8414 0.5403 0.0000
vn 0.1302 -0.9915 0.0000
vn 0.2581 -0.9661 0.0000
vn 0.8414 -0.5403 0.0000
vn 0.2581 0.9661 0.0000
vn 0.8414 0.5403 0.0000
vn 0.9808 -0.1951 0.0000
vn 0.1951 -0.9808 0.0000
vn -0.1422 -0.9898 0.0000
vn -0.7071 0.7071 0.0000
vn 0.7071 0.7071 0.0000
vn -0.9808 -0.1951 0.0000
vn 0.1422 -0.9898 0.0000
vn -0.9239 -0.3827 0.0000
vn -0.3827 -0.9239 0.0000
vn -0.1951 -0.9808 0.0000
vn 0.3827 -0.9239 0.0000
vn 0.9239 -0.3827 0.0000
vn -0.1951 0.9808 0.0000
vn 0.1977 0.9803 0.0000
vn 0.1951 0.9808 0.0000
vn 0.9833 0.1820 0.0000
vn -0.9833 0.1820 0.0000
vn -0.1977 0.9803 0.0000
vn -0.3827 0.9239 0.0000
vn -0.9239 0.3827 0.0000
vn -0.9808 0.1951 0.0000
vn 0.3827 0.9239 0.0000
vn 0.9239 0.3827 0.0000
vn 0.9808 0.1951 0.0000
vn 0.0000 0.1098 0.9939
s off
f 40/1/1 39/2/1 41/3/1
f 30/4/2 26/5/2 25/6/2
f 42/7/3 38/8/3 37/9/3
f 42/10/4 45/11/4 41/12/4
f 32/13/5 40/14/5 26/15/5
f 42/16/6 39/17/6 38/18/6
f 44/19/6 45/20/6 46/21/6
f 41/3/1 43/22/1 25/23/1
f 25/6/2 44/24/2 30/4/2
f 30/25/3 46/26/3 42/7/3
f 41/3/1 25/23/1 26/27/1
f 26/27/1 40/1/1 41/3/1
f 30/4/2 32/28/2 26/5/2
f 37/9/3 32/13/3 42/7/3
f 32/13/3 30/25/3 42/7/3
f 42/10/4 46/29/4 45/11/4
f 32/13/5 37/9/5 40/14/5
f 42/16/6 41/30/6 39/17/6
f 44/19/6 43/31/6 45/20/6
f 41/3/1 45/32/1 43/22/1
f 25/6/2 43/33/2 44/24/2
f 30/25/3 44/34/3 46/26/3
s 1
f 13/35/2 16/36/2 17/37/2
f 23/38/1 14/39/1 19/40/1
f 11/41/7 17/42/8 22/43/8
f 5/44/3 8/45/3 1/46/3
f 7/47/4 10/48/4 11/49/4
f 2/50/9 9/51/10 7/52/9
f 3/53/11 8/45/11 9/54/12
f 11/41/7 6/55/13 4/56/7
f 12/57/14 5/44/14 6/58/14
f 20/59/15 15/60/16 13/61/15
f 21/62/17 14/39/17 15/63/17
f 17/42/8 24/64/18 22/43/8
f 18/65/19 23/38/19 24/66/19
f 20/59/15 2/50/9 7/52/9
f 31/67/6 34/68/6 35/69/6
f 40/70/2 37/71/2 34/72/2
f 36/73/1 63/74/20 66/75/20
f 67/76/21 50/77/22 54/78/22
f 31/67/23 28/79/23 27/80/23
f 34/68/24 36/81/24 35/69/24
f 48/82/2 49/83/2 38/84/2
f 36/85/4 53/86/4 29/87/4
f 28/88/3 60/89/25 55/90/25
f 52/91/26 47/92/26 51/93/26
f 53/94/22 48/95/26 52/91/26
f 54/78/22 49/96/22 53/94/22
f 55/97/2 58/98/2 57/99/2
f 58/98/2 56/100/2 57/99/2
f 62/101/2 65/102/2 64/103/2
f 65/102/2 63/104/2 64/103/2
f 60/89/25 58/105/27 55/90/25
f 61/106/28 56/107/29 58/108/28
f 67/76/21 65/109/30 62/110/21
f 68/111/31 63/74/20 65/112/31
f 51/93/26 56/107/29 59/113/29
f 77/114/32 80/115/33 82/116/34
f 72/117/1 79/118/35 71/119/1
f 74/120/36 70/121/3 69/122/3
f 72/123/5 69/124/5 70/125/5
f 77/126/4 83/127/4 76/128/4
f 73/129/37 78/130/38 75/131/38
f 75/132/39 76/133/40 74/120/36
f 80/115/33 84/134/41 82/116/34
f 81/135/42 83/136/43 84/137/42
f 80/138/44 74/139/44 79/140/44
f 2/141/2 13/35/2 17/37/2
f 13/35/2 15/142/2 14/143/2
f 16/36/2 13/35/2 14/143/2
f 16/36/2 18/144/2 17/37/2
f 17/37/2 4/145/2 2/141/2
f 4/145/2 6/146/2 5/147/2
f 2/141/2 4/145/2 1/148/2
f 5/147/2 1/148/2 4/145/2
f 1/148/2 3/149/2 2/141/2
f 23/38/1 16/150/1 14/39/1
f 11/41/7 4/56/7 17/42/8
f 5/44/3 10/151/3 8/45/3
f 20/152/4 7/47/4 11/49/4
f 7/47/4 9/153/4 8/154/4
f 10/48/4 7/47/4 8/154/4
f 10/48/4 12/155/4 11/49/4
f 11/49/4 22/156/4 20/152/4
f 22/156/4 24/157/4 23/158/4
f 20/152/4 22/156/4 19/159/4
f 23/158/4 19/159/4 22/156/4
f 19/159/4 21/160/4 20/152/4
f 2/50/9 3/161/10 9/51/10
f 3/53/11 1/46/11 8/45/11
f 11/41/7 12/162/13 6/55/13
f 12/57/14 10/151/14 5/44/14
f 20/59/15 21/163/16 15/60/16
f 21/62/17 19/40/17 14/39/17
f 17/42/8 18/164/18 24/64/18
f 18/65/19 16/150/19 23/38/19
f 20/59/15 13/61/15 2/50/9
f 31/67/6 27/80/6 34/68/6
f 37/71/2 38/84/2 63/104/2
f 38/84/2 64/103/2 63/104/2
f 63/104/2 33/165/2 37/71/2
f 33/165/2 34/72/2 37/71/2
f 34/72/2 27/166/2 40/70/2
f 27/166/2 28/167/2 40/70/2
f 28/167/2 55/97/2 40/70/2
f 55/97/2 57/99/2 39/168/2
f 55/97/2 39/168/2 40/70/2
f 36/73/1 33/169/1 63/74/20
f 67/76/21 62/110/21 50/77/22
f 31/67/23 29/170/23 28/79/23
f 34/68/24 33/171/24 36/81/24
f 38/84/2 39/168/2 48/82/2
f 39/168/2 57/99/2 47/172/2
f 48/82/2 39/168/2 47/172/2
f 57/99/2 56/100/2 47/172/2
f 62/101/2 64/103/2 50/173/2
f 64/103/2 38/84/2 50/173/2
f 49/83/2 50/173/2 38/84/2
f 31/174/4 35/175/4 36/85/4
f 36/85/4 66/176/4 53/86/4
f 66/176/4 68/177/4 67/178/4
f 53/86/4 66/176/4 54/179/4
f 67/178/4 54/179/4 66/176/4
f 31/174/4 36/85/4 29/87/4
f 60/180/4 29/87/4 52/181/4
f 52/181/4 29/87/4 53/86/4
f 59/182/4 61/183/4 60/180/4
f 52/181/4 51/184/4 60/180/4
f 51/184/4 59/182/4 60/180/4
f 28/88/3 29/185/3 60/89/25
f 52/91/26 48/95/26 47/92/26
f 53/94/22 49/96/22 48/95/26
f 54/78/22 50/77/22 49/96/22
f 60/89/25 61/186/27 58/105/27
f 61/106/28 59/113/29 56/107/29
f 67/76/21 68/187/30 65/109/30
f 68/111/31 66/75/20 63/74/20
f 51/93/26 47/92/26 56/107/29
f 77/114/32 73/129/37 80/115/33
f 72/117/1 83/136/43 79/118/35
f 74/120/36 76/133/40 70/121/3
f 72/123/5 71/188/5 69/124/5
f 72/189/4 70/190/4 76/128/4
f 76/128/4 78/191/4 77/126/4
f 77/126/4 82/192/4 83/127/4
f 82/192/4 84/193/4 83/127/4
f 83/127/4 72/189/4 76/128/4
f 73/129/37 77/114/32 78/130/38
f 75/132/39 78/194/39 76/133/40
f 80/115/33 81/195/41 84/134/41
f 81/135/42 79/118/35 83/136/43
f 69/196/44 71/197/44 79/140/44
f 79/140/44 81/198/44 80/138/44
f 80/138/44 73/199/44 74/139/44
f 73/199/44 75/200/44 74/139/44
f 74/139/44 69/196/44 79/140/44
