# Blender v3.4.1 OBJ File: 'shops.blend'
# www.blender.org
o Food_Stall_1_Cube.002
v 0.882801 -0.886048 0.746673
v 0.882801 1.293994 0.746673
v 0.897194 -0.886048 0.645165
v 0.897194 1.293994 0.645165
v 0.984309 -0.886048 0.761066
v 0.984309 1.293994 0.761066
v 0.998702 -0.886048 0.659558
v 0.998702 1.293994 0.659558
v -0.956383 -0.886048 0.758416
v -0.956383 1.293994 0.758416
v -0.964807 -0.886048 0.656239
v -0.964807 1.293994 0.656239
v -0.854206 -0.886048 0.749992
v -0.854206 1.293994 0.749992
v -0.862630 -0.886048 0.647815
v -0.862630 1.293994 0.647815
v -1.044259 -0.031619 0.692068
v -1.044259 0.031619 0.692068
v -1.044259 -0.031619 -0.369927
v -1.044259 0.031619 -0.369927
v 1.044259 -0.031619 0.692068
v 1.044259 0.031619 0.692068
v 1.044259 -0.031619 -0.369927
v 1.044259 0.031619 -0.369927
v -0.963385 -0.886048 -0.832834
v -0.963385 1.293994 -0.832834
v -0.958011 -0.886048 -0.935217
v -0.958011 1.293994 -0.935217
v -0.861002 -0.886048 -0.827460
v -0.861002 1.293994 -0.827460
v -0.855628 -0.886048 -0.929843
v -0.855628 1.293994 -0.929843
v 0.859015 -0.886048 -0.826614
v 0.859015 1.293994 -0.826614
v 0.851839 -0.886048 -0.928887
v 0.851839 1.293994 -0.928887
v 0.961287 -0.886048 -0.833790
v 0.961287 1.293994 -0.833790
v 0.954111 -0.886048 -0.936062
v 0.954111 1.293994 -0.936062
v -0.946119 -0.832110 0.607706
v -0.946119 -0.055716 0.607706
v -0.964836 -0.832110 -0.796735
v -0.964836 -0.055716 -0.796735
v -0.911240 -0.832110 0.607241
v -0.911240 -0.055716 0.607241
v -0.929957 -0.832110 -0.797199
v -0.929957 -0.055716 -0.797199
v 0.904368 -0.832110 0.606977
v 0.904368 -0.055716 0.606977
v 0.935521 -0.832110 -0.797243
v 0.935521 -0.055716 -0.797243
v 0.939241 -0.832110 0.607750
v 0.939241 -0.055716 0.607750
v 0.970394 -0.832110 -0.796470
v 0.970394 -0.055716 -0.796470
vt 0.920243 0.623087
vt 0.878230 0.580695
vt 0.920243 0.580695
vt 0.920243 0.665478
vt 0.878230 0.623087
vt 0.920243 0.623087
vt 0.888489 0.905954
vt 0.846476 0.863563
vt 0.888489 0.863563
vt 0.920243 0.707870
vt 0.878230 0.665478
vt 0.920243 0.665478
vt 0.084783 0.863563
vt 0.042392 0.905954
vt 0.042392 0.863563
vt 0.127175 0.863563
vt 0.084783 0.905954
vt 0.084783 0.863563
vt 0.719809 0.905955
vt 0.677586 0.863563
vt 0.719809 0.863563
vt 0.846474 0.905954
vt 0.804253 0.863563
vt 0.846474 0.863563
vt 0.762031 0.905954
vt 0.719809 0.863563
vt 0.762031 0.863563
vt 0.804253 0.905954
vt 0.762032 0.863563
vt 0.804253 0.863563
vt 0.000000 0.863563
vt 0.042393 0.905955
vt 0.000000 0.905955
vt 0.339134 0.863563
vt 0.296741 0.905955
vt 0.296741 0.863563
vt 0.998770 0.878208
vt 1.000000 0.439104
vt 1.000000 0.878208
vt 0.997540 0.863541
vt 0.998770 0.000000
vt 0.998770 0.863541
vt 0.998770 0.439104
vt 1.000000 0.000000
vt 1.000000 0.439104
vt 0.996311 0.863541
vt 0.997540 0.000000
vt 0.997540 0.863541
vt 0.000000 0.000000
vt 0.439116 0.863563
vt 0.000000 0.863563
vt 0.439116 0.000000
vt 0.878231 0.863564
vt 0.439116 0.863564
vt 0.466177 0.905954
vt 0.423828 0.863563
vt 0.466177 0.863563
vt 0.423828 0.905954
vt 0.381481 0.863563
vt 0.508526 0.905954
vt 0.466177 0.863563
vt 0.508526 0.863563
vt 0.381481 0.905954
vt 0.339134 0.863563
vt 0.381481 0.863563
vt 0.169567 0.863564
vt 0.211958 0.905956
vt 0.169567 0.905956
vt 0.254349 0.863564
vt 0.211956 0.905954
vt 0.211956 0.863564
vt 0.635321 0.905954
vt 0.593056 0.863563
vt 0.635321 0.863563
vt 0.550790 0.905954
vt 0.508524 0.863563
vt 0.550790 0.863563
vt 0.677586 0.905955
vt 0.635321 0.863563
vt 0.677586 0.863563
vt 0.593055 0.905954
vt 0.550790 0.863563
vt 0.593055 0.863563
vt 0.254351 0.863563
vt 0.296741 0.905954
vt 0.254351 0.905954
vt 0.169565 0.905954
vt 0.127174 0.863563
vt 0.169565 0.863563
vt 0.908424 0.580641
vt 0.923522 0.000000
vt 0.923522 0.580641
vt 0.892651 0.768259
vt 0.878231 0.753161
vt 0.892651 0.753161
vt 0.923522 0.580640
vt 0.938619 0.000000
vt 0.938619 0.580640
vt 0.892651 0.753161
vt 0.878231 0.738064
vt 0.892651 0.738064
vt 0.938618 0.000000
vt 0.953041 0.580761
vt 0.938618 0.580761
vt 0.967464 0.000000
vt 0.953041 0.580761
vt 0.953041 0.000000
vt 0.893327 0.000000
vt 0.878230 0.580695
vt 0.878230 0.000000
vt 0.892651 0.738064
vt 0.878230 0.722967
vt 0.892651 0.722967
vt 0.893327 0.580695
vt 0.908424 0.000000
vt 0.908424 0.580695
vt 0.892651 0.722967
vt 0.878230 0.707870
vt 0.892651 0.707870
vt 0.981888 0.580761
vt 0.996311 0.000000
vt 0.996311 0.580761
vt 0.967465 0.000000
vt 0.981888 0.580761
vt 0.967465 0.580761
vt 0.878230 0.623087
vt 0.878230 0.665478
vt 0.846476 0.905954
vt 0.878230 0.707870
vt 0.084783 0.905954
vt 0.127175 0.905954
vt 0.677586 0.905954
vt 0.804253 0.905954
vt 0.719809 0.905954
vt 0.762032 0.905954
vt 0.042393 0.863563
vt 0.339134 0.905955
vt 0.998770 0.439104
vt 0.997540 0.000000
vt 0.998770 0.000000
vt 0.996311 0.000000
vt 0.439116 0.000000
vt 0.878231 0.000000
vt 0.381481 0.905954
vt 0.466177 0.905954
vt 0.339134 0.905954
vt 0.211958 0.863564
vt 0.254349 0.905954
vt 0.593056 0.905954
vt 0.508524 0.905954
vt 0.635321 0.905954
vt 0.550790 0.905954
vt 0.296741 0.863563
vt 0.127174 0.905954
vt 0.908424 0.000000
vt 0.878231 0.768259
vt 0.923522 0.000000
vt 0.878231 0.753161
vt 0.953041 0.000000
vt 0.967464 0.580761
vt 0.893327 0.580695
vt 0.878230 0.738064
vt 0.893327 0.000000
vt 0.878230 0.722967
vt 0.981888 0.000000
vt 0.981888 0.000000
vn -0.9901 0.0000 -0.1404
vn 0.1404 0.0000 -0.9901
vn 0.9901 0.0000 0.1404
vn -0.1404 0.0000 0.9901
vn 0.0000 -1.0000 0.0000
vn 0.0000 1.0000 0.0000
vn -0.9966 0.0000 0.0822
vn -0.0822 0.0000 -0.9966
vn 0.9966 0.0000 -0.0822
vn 0.0822 0.0000 0.9966
vn -1.0000 0.0000 0.0000
vn 0.0000 0.0000 -1.0000
vn 1.0000 0.0000 0.0000
vn 0.0000 0.0000 1.0000
vn -0.9986 0.0000 -0.0524
vn 0.0524 0.0000 -0.9986
vn 0.9986 0.0000 0.0524
vn -0.0524 0.0000 0.9986
vn -0.9975 0.0000 0.0700
vn -0.0700 0.0000 -0.9975
vn 0.9975 0.0000 -0.0700
vn 0.0700 0.0000 0.9975
vn -0.9999 0.0000 0.0133
vn -0.0133 0.0000 -0.9999
vn 0.9999 0.0000 -0.0133
vn 0.0133 0.0000 0.9999
vn -0.9998 0.0000 -0.0222
vn 0.0222 0.0000 -0.9998
vn 0.9998 0.0000 0.0222
vn -0.0222 0.0000 0.9998
s off
f 2/1/1 3/2/1 1/3/1
f 4/4/2 7/5/2 3/6/2
f 8/7/3 5/8/3 7/9/3
f 6/10/4 1/11/4 5/12/4
f 7/13/5 1/14/5 3/15/5
f 4/16/6 6/17/6 8/18/6
f 10/19/7 11/20/7 9/21/7
f 12/22/8 15/23/8 11/24/8
f 16/25/9 13/26/9 15/27/9
f 14/28/10 9/29/10 13/30/10
f 11/31/5 13/32/5 9/33/5
f 12/34/6 14/35/6 16/36/6
f 18/37/11 19/38/11 17/39/11
f 20/40/12 23/41/12 19/42/12
f 24/43/13 21/44/13 23/45/13
f 22/46/14 17/47/14 21/48/14
f 23/49/5 17/50/5 19/51/5
f 20/52/6 22/53/6 24/54/6
f 26/55/15 27/56/15 25/57/15
f 28/58/16 31/59/16 27/56/16
f 32/60/17 29/61/17 31/62/17
f 30/63/18 25/64/18 29/65/18
f 31/66/5 25/67/5 27/68/5
f 28/69/6 30/70/6 32/71/6
f 34/72/19 35/73/19 33/74/19
f 36/75/20 39/76/20 35/77/20
f 40/78/21 37/79/21 39/80/21
f 38/81/22 33/82/22 37/83/22
f 39/84/5 33/85/5 35/86/5
f 36/87/6 38/88/6 40/89/6
f 42/90/23 43/91/23 41/92/23
f 44/93/24 47/94/24 43/95/24
f 48/96/25 45/97/25 47/98/25
f 46/99/26 41/100/26 45/101/26
f 43/102/5 45/103/5 41/104/5
f 44/105/6 46/106/6 48/107/6
f 50/108/27 51/109/27 49/110/27
f 52/111/28 55/112/28 51/113/28
f 56/114/29 53/115/29 55/116/29
f 54/117/30 49/118/30 53/119/30
f 55/120/5 49/121/5 51/122/5
f 56/123/6 50/124/6 54/125/6
f 2/1/1 4/126/1 3/2/1
f 4/4/2 8/127/2 7/5/2
f 8/7/3 6/128/3 5/8/3
f 6/10/4 2/129/4 1/11/4
f 7/13/5 5/130/5 1/14/5
f 4/16/6 2/131/6 6/17/6
f 10/19/7 12/132/7 11/20/7
f 12/22/8 16/133/8 15/23/8
f 16/25/9 14/134/9 13/26/9
f 14/28/10 10/135/10 9/29/10
f 11/31/5 15/136/5 13/32/5
f 12/34/6 10/137/6 14/35/6
f 18/37/11 20/138/11 19/38/11
f 20/40/12 24/139/12 23/41/12
f 24/43/13 22/140/13 21/44/13
f 22/46/14 18/141/14 17/47/14
f 23/49/5 21/142/5 17/50/5
f 20/52/6 18/143/6 22/53/6
f 26/55/15 28/58/15 27/56/15
f 28/58/16 32/144/16 31/59/16
f 32/60/17 30/145/17 29/61/17
f 30/63/18 26/146/18 25/64/18
f 31/66/5 29/147/5 25/67/5
f 28/69/6 26/148/6 30/70/6
f 34/72/19 36/149/19 35/73/19
f 36/75/20 40/150/20 39/76/20
f 40/78/21 38/151/21 37/79/21
f 38/81/22 34/152/22 33/82/22
f 39/84/5 37/153/5 33/85/5
f 36/87/6 34/154/6 38/88/6
f 42/90/23 44/155/23 43/91/23
f 44/93/24 48/156/24 47/94/24
f 48/96/25 46/157/25 45/97/25
f 46/99/26 42/158/26 41/100/26
f 43/102/5 47/159/5 45/103/5
f 44/105/6 42/160/6 46/106/6
f 50/108/27 52/161/27 51/109/27
f 52/111/28 56/162/28 55/112/28
f 56/114/29 54/163/29 53/115/29
f 54/117/30 50/164/30 49/118/30
f 55/120/5 53/165/5 49/121/5
f 56/123/6 52/166/6 50/124/6
