# Blender v3.4.1 OBJ File: 'shops.blend'
# www.blender.org
o Food_Stall_1_Cube.002
v 0.882801 -0.886048 0.746673
v 0.882801 1.293994 0.746673
v 0.897194 -0.886048 0.645165
v 0.897194 1.293994 0.645165
v 0.984309 -0.886048 0.761066
v 0.984309 1.293994 0.761066
v 0.998702 -0.886048 0.659558
v 0.998702 1.293994 0.659558
v -0.956383 -0.886048 0.758416
v -0.956383 1.293994 0.758416
v -0.964807 -0.886048 0.656239
v -0.964807 1.293994 0.656239
v -0.854206 -0.886048 0.749992
v -0.854206 1.293994 0.749992
v -0.862630 -0.886048 0.647815
v -0.862630 1.293994 0.647815
v -1.044259 -0.031619 0.692068
v -1.044259 0.031619 0.692068
v -1.044259 -0.031619 -0.369927
v -1.044259 0.031619 -0.369927
v 1.044259 -0.031619 0.692068
v 1.044259 0.031619 0.692068
v 1.044259 -0.031619 -0.369927
v 1.044259 0.031619 -0.369927
v -0.963385 -0.886048 -0.832834
v -0.963385 1.293994 -0.832834
v -0.958011 -0.886048 -0.935217
v -0.958011 1.293994 -0.935217
v -0.861002 -0.886048 -0.827460
v -0.861002 1.293994 -0.827460
v -0.855628 -0.886048 -0.929843
v -0.855628 1.293994 -0.929843
v 0.859015 -0.886048 -0.826614
v 0.859015 1.293994 -0.826614
v 0.851839 -0.886048 -0.928887
v 0.851839 1.293994 -0.928887
v 0.961287 -0.886048 -0.833790
v 0.961287 1.293994 -0.833790
v 0.954111 -0.886048 -0.936062
v 0.954111 1.293994 -0.936062
v -0.946119 -0.832110 0.607706
v -0.946119 -0.055716 0.607706
v -0.964836 -0.832110 -0.796735
v -0.964836 -0.055716 -0.796735
v -0.911240 -0.832110 0.607241
v -0.911240 -0.055716 0.607241
v -0.929957 -0.832110 -0.797199
v -0.929957 -0.055716 -0.797199
v 0.904368 -0.832110 0.606977
v 0.904368 -0.055716 0.606977
v 0.935521 -0.832110 -0.797243
v 0.935521 -0.055716 -0.797243
v 0.939241 -0.832110 0.607750
v 0.939241 -0.055716 0.607750
v 0.970394 -0.832110 -0.796470
v 0.970394 -0.055716 -0.796470
v 0.899659 1.081330 0.786284
v 0.899659 1.156076 0.786284
v 0.860532 1.081330 -0.968684
v 0.860532 1.156076 -0.968684
v 0.974387 1.081330 0.784618
v 0.974387 1.156076 0.784618
v 0.935260 1.081330 -0.970350
v 0.935260 1.156076 -0.970350
v -0.934254 1.080068 0.785863
v -0.937224 1.154755 0.785863
v -0.943963 1.079682 -0.969514
v -0.946933 1.154369 -0.969514
v -0.859568 1.083037 0.785449
v -0.862538 1.157725 0.785449
v -0.869277 1.082651 -0.969928
v -0.872246 1.157339 -0.969928
v 1.005980 1.080094 0.745561
v 1.005957 1.154781 0.748531
v -0.988968 1.079655 0.740824
v -0.988992 1.154343 0.743793
v 1.006157 1.083063 0.670873
v 1.006133 1.157751 0.673843
v -0.988792 1.082625 0.666136
v -0.988815 1.157312 0.669106
vt 0.990753 0.510725
vt 0.966965 0.000000
vt 0.990753 0.000013
vt 0.387555 0.489288
vt 0.411343 0.999987
vt 0.387555 1.000000
vt 0.411343 0.489288
vt 0.435132 0.999987
vt 0.387555 1.000000
vt 0.363767 0.489275
vt 0.387555 0.489288
vt 0.655964 0.682051
vt 0.631946 0.658034
vt 0.655964 0.658033
vt 0.583910 0.682052
vt 0.607928 0.658033
vt 0.607928 0.682051
vt 0.895169 0.000008
vt 0.919101 0.510712
vt 0.895169 0.510720
vt 0.943033 0.510720
vt 0.919101 0.000000
vt 0.943033 0.000008
vt 0.895169 0.510720
vt 0.871237 0.000000
vt 0.895169 0.000008
vt 0.943033 0.000008
vt 0.966965 0.510712
vt 0.943033 0.510720
vt 0.655964 0.682052
vt 0.631946 0.706070
vt 0.631946 0.682052
vt 0.631946 0.682052
vt 0.607928 0.706070
vt 0.607928 0.682052
vt 0.512396 0.658034
vt 0.497581 0.906825
vt 0.497581 0.658033
vt 0.727441 0.510717
vt 0.712626 0.999990
vt 0.712626 0.510717
vt 0.527210 0.658033
vt 0.512396 0.906825
vt 0.512396 0.658033
vt 0.711779 0.510717
vt 0.696964 0.999990
vt 0.696964 0.510717
vt 0.497581 0.489271
vt 0.248791 0.000004
vt 0.497581 0.000000
vt 0.000000 0.000000
vt 0.248791 0.489275
vt 0.000000 0.489271
vt 0.703452 0.510717
vt 0.679464 0.000000
vt 0.703452 0.000005
vt 0.727441 0.000005
vt 0.751429 0.510712
vt 0.727441 0.510717
vt 0.751429 0.000005
vt 0.775417 0.510712
vt 0.727440 0.510717
vt 0.727441 0.000005
vt 0.607928 0.706070
vt 0.583910 0.682052
vt 0.607928 0.682052
vt 0.583910 0.706070
vt 0.559892 0.682052
vt 0.583910 0.682052
vt 0.847282 0.000007
vt 0.871237 0.510712
vt 0.847282 0.510719
vt 0.799372 0.510719
vt 0.775417 0.000000
vt 0.799372 0.000007
vt 0.823327 0.510719
vt 0.799372 0.000000
vt 0.823327 0.000007
vt 0.823327 0.000007
vt 0.823327 0.510719
vt 0.631946 0.658034
vt 0.607928 0.682051
vt 0.607928 0.658033
vt 0.559892 0.682051
vt 0.583910 0.658034
vt 0.583910 0.682052
vt 0.679464 0.329028
vt 0.497581 0.658022
vt 0.497581 0.329017
vt 0.543552 0.839917
vt 0.535381 0.658033
vt 0.543552 0.658034
vt 0.497581 0.329017
vt 0.679464 0.000000
vt 0.679464 0.329005
vt 0.535381 0.839917
vt 0.527210 0.658034
vt 0.535381 0.658033
vt 0.781861 0.510719
vt 0.773689 0.839762
vt 0.773689 0.510719
vt 0.877669 0.839763
vt 0.869498 0.510720
vt 0.877669 0.510720
vt 0.363767 0.489275
vt 0.181883 0.818271
vt 0.181883 0.489289
vt 0.551722 0.658034
vt 0.559892 0.839917
vt 0.551722 0.839917
vt 0.181883 0.489289
vt 0.000000 0.818257
vt 0.000000 0.489275
vt 0.551722 0.839917
vt 0.543552 0.658033
vt 0.551722 0.658034
vt 0.920840 0.510720
vt 0.912669 0.839763
vt 0.912669 0.510720
vt 0.487631 0.818318
vt 0.495802 0.489275
vt 0.495802 0.818318
vt 0.799372 0.510720
vt 0.781861 0.921830
vt 0.781861 0.510719
vt 0.594908 0.723582
vt 0.577402 0.706070
vt 0.594908 0.706072
vt 0.864792 0.510719
vt 0.847282 0.921832
vt 0.847282 0.510720
vt 0.594908 0.706072
vt 0.612413 0.723581
vt 0.594908 0.723582
vt 0.751429 0.921950
vt 0.733918 0.510717
vt 0.751428 0.510717
vt 0.768939 0.510717
vt 0.751429 0.921950
vt 0.751429 0.510717
vt 0.895169 0.510720
vt 0.877669 0.921949
vt 0.877669 0.510725
vt 0.577402 0.706071
vt 0.559892 0.723581
vt 0.559892 0.706070
vt 0.895169 0.921944
vt 0.912669 0.510725
vt 0.912669 0.921949
vt 0.655964 0.710566
vt 0.673474 0.693056
vt 0.673474 0.710566
vt 0.823327 0.510719
vt 0.805827 0.921954
vt 0.805827 0.510721
vt 0.847282 0.510721
vt 0.829782 0.921952
vt 0.829782 0.510719
vt 0.679464 0.978072
vt 0.696964 0.510717
vt 0.696964 0.978072
vt 0.655964 0.675544
vt 0.673474 0.693055
vt 0.655964 0.693055
vt 0.487631 0.489275
vt 0.470131 0.956631
vt 0.470131 0.489275
vt 0.673474 0.675544
vt 0.655964 0.658033
vt 0.673474 0.658033
vt 0.452631 0.489277
vt 0.435132 0.956627
vt 0.435132 0.489275
vt 0.470131 0.489275
vt 0.452631 0.956630
vt 0.452631 0.489277
vt 0.966965 0.510712
vt 0.435132 0.489275
vt 0.363767 0.999987
vt 0.631946 0.682052
vt 0.583910 0.658034
vt 0.919101 0.000000
vt 0.919101 0.510712
vt 0.871237 0.510712
vt 0.966965 0.000000
vt 0.655964 0.706070
vt 0.631946 0.706070
vt 0.512396 0.906825
vt 0.727441 0.999990
vt 0.527210 0.906825
vt 0.711779 0.999990
vt 0.248791 0.489275
vt 0.248790 0.000004
vt 0.679464 0.510712
vt 0.775417 0.000000
vt 0.583910 0.706070
vt 0.559892 0.706070
vt 0.871237 0.000000
vt 0.775417 0.510712
vt 0.799372 0.510712
vt 0.631946 0.682052
vt 0.559892 0.658033
vt 0.679464 0.658033
vt 0.535381 0.839917
vt 0.497581 0.000011
vt 0.527210 0.839917
vt 0.781861 0.839762
vt 0.869498 0.839764
vt 0.363767 0.818257
vt 0.559892 0.658033
vt 0.181883 0.818271
vt 0.543552 0.839917
vt 0.920840 0.839763
vt 0.487631 0.489275
vt 0.799372 0.921832
vt 0.577402 0.723581
vt 0.864792 0.921830
vt 0.612413 0.706070
vt 0.733918 0.921950
vt 0.768939 0.921950
vt 0.895169 0.921944
vt 0.577402 0.723581
vt 0.895169 0.510720
vt 0.655964 0.693055
vt 0.823327 0.921952
vt 0.847282 0.921954
vt 0.679464 0.510717
vt 0.673474 0.675544
vt 0.487631 0.956631
vt 0.655964 0.675544
vt 0.452631 0.956630
vt 0.470131 0.956627
vn -0.9901 0.0000 -0.1404
vn 0.1404 0.0000 -0.9901
vn 0.9901 0.0000 0.1404
vn -0.1404 0.0000 0.9901
vn 0.0000 -1.0000 0.0000
vn 0.0000 1.0000 0.0000
vn -0.9966 0.0000 0.0822
vn -0.0822 0.0000 -0.9966
vn 0.9966 0.0000 -0.0822
vn 0.0822 0.0000 0.9966
vn -1.0000 0.0000 0.0000
vn 0.0000 0.0000 -1.0000
vn 1.0000 0.0000 0.0000
vn 0.0000 0.0000 1.0000
vn -0.9986 0.0000 -0.0524
vn 0.0524 0.0000 -0.9986
vn 0.9986 0.0000 0.0524
vn -0.0524 0.0000 0.9986
vn -0.9975 0.0000 0.0700
vn -0.0700 0.0000 -0.9975
vn 0.9975 0.0000 -0.0700
vn 0.0700 0.0000 0.9975
vn -0.9999 0.0000 0.0133
vn -0.0133 0.0000 -0.9999
vn 0.9999 0.0000 -0.0133
vn 0.0133 0.0000 0.9999
vn -0.9998 0.0000 -0.0222
vn 0.0222 0.0000 -0.9998
vn 0.9998 0.0000 0.0222
vn -0.0222 0.0000 0.9998
vn -0.9998 0.0000 0.0223
vn -0.0223 0.0000 -0.9998
vn 0.9998 0.0000 -0.0223
vn 0.0223 0.0000 0.9998
vn -0.9992 -0.0397 0.0055
vn -0.0055 -0.0002 -1.0000
vn 0.9992 0.0397 -0.0055
vn 0.0055 0.0002 1.0000
vn 0.0397 -0.9992 0.0000
vn -0.0397 0.9992 0.0000
vn -0.0024 -0.0397 0.9992
vn -1.0000 -0.0002 -0.0024
vn 0.0024 0.0397 -0.9992
vn 1.0000 0.0002 0.0024
vn 0.0003 -0.9992 -0.0397
vn -0.0003 0.9992 0.0397
s off
f 2/1/1 3/2/1 1/3/1
f 4/4/2 7/5/2 3/6/2
f 8/7/3 5/8/3 7/5/3
f 6/9/4 1/10/4 5/11/4
f 7/12/5 1/13/5 3/14/5
f 4/15/6 6/16/6 8/17/6
f 10/18/7 11/19/7 9/20/7
f 12/21/8 15/22/8 11/23/8
f 16/24/9 13/25/9 15/26/9
f 14/27/10 9/28/10 13/29/10
f 11/30/5 13/31/5 9/32/5
f 12/33/6 14/34/6 16/35/6
f 18/36/11 19/37/11 17/38/11
f 20/39/12 23/40/12 19/41/12
f 24/42/13 21/43/13 23/44/13
f 22/45/14 17/46/14 21/47/14
f 23/48/5 17/49/5 19/50/5
f 20/51/6 22/52/6 24/53/6
f 26/54/15 27/55/15 25/56/15
f 28/57/16 31/58/16 27/59/16
f 32/60/17 29/61/17 31/58/17
f 30/62/18 25/56/18 29/63/18
f 31/64/5 25/65/5 27/66/5
f 32/67/6 26/68/6 30/69/6
f 34/70/19 35/71/19 33/72/19
f 36/73/20 39/74/20 35/75/20
f 40/76/21 37/77/21 39/78/21
f 38/79/22 33/72/22 37/80/22
f 39/81/5 33/82/5 35/83/5
f 40/84/6 34/85/6 38/86/6
f 42/87/23 43/88/23 41/89/23
f 44/90/24 47/91/24 43/92/24
f 48/93/25 45/94/25 47/95/25
f 46/96/26 41/97/26 45/98/26
f 47/99/5 41/100/5 43/101/5
f 48/102/6 42/103/6 46/104/6
f 50/105/27 51/106/27 49/107/27
f 52/108/28 55/109/28 51/110/28
f 56/111/29 53/112/29 55/113/29
f 54/114/30 49/115/30 53/116/30
f 55/117/5 49/118/5 51/119/5
f 52/120/6 54/121/6 56/122/6
f 58/123/31 59/124/31 57/125/31
f 60/126/32 63/127/32 59/128/32
f 64/129/33 61/130/33 63/131/33
f 62/132/34 57/133/34 61/134/34
f 59/135/5 61/136/5 57/137/5
f 60/138/6 62/139/6 64/140/6
f 66/141/35 67/142/35 65/143/35
f 67/144/36 72/145/36 71/146/36
f 72/147/37 69/148/37 71/149/37
f 70/150/38 65/151/38 69/152/38
f 71/153/39 65/154/39 67/155/39
f 68/156/40 70/157/40 72/158/40
f 74/159/41 75/160/41 73/161/41
f 75/162/42 80/163/42 79/164/42
f 80/165/43 77/166/43 79/167/43
f 77/168/44 74/169/44 73/170/44
f 79/171/45 73/172/45 75/173/45
f 76/174/46 78/175/46 80/176/46
f 2/1/1 4/177/1 3/2/1
f 4/4/2 8/7/2 7/5/2
f 8/7/3 6/178/3 5/8/3
f 6/9/4 2/179/4 1/10/4
f 7/12/5 5/180/5 1/13/5
f 4/15/6 2/181/6 6/16/6
f 10/18/7 12/182/7 11/19/7
f 12/21/8 16/183/8 15/22/8
f 16/24/9 14/184/9 13/25/9
f 14/27/10 10/185/10 9/28/10
f 11/30/5 15/186/5 13/31/5
f 12/33/6 10/187/6 14/34/6
f 18/36/11 20/188/11 19/37/11
f 20/39/12 24/189/12 23/40/12
f 24/42/13 22/190/13 21/43/13
f 22/45/14 18/191/14 17/46/14
f 23/48/5 21/192/5 17/49/5
f 20/51/6 18/193/6 22/52/6
f 26/54/15 28/194/15 27/55/15
f 28/57/16 32/60/16 31/58/16
f 32/60/17 30/195/17 29/61/17
f 30/62/18 26/54/18 25/56/18
f 31/64/5 29/196/5 25/65/5
f 32/67/6 28/197/6 26/68/6
f 34/70/19 36/198/19 35/71/19
f 36/73/20 40/199/20 39/74/20
f 40/76/21 38/200/21 37/77/21
f 38/79/22 34/70/22 33/72/22
f 39/81/5 37/201/5 33/82/5
f 40/84/6 36/202/6 34/85/6
f 42/87/23 44/203/23 43/88/23
f 44/90/24 48/204/24 47/91/24
f 48/93/25 46/205/25 45/94/25
f 46/96/26 42/206/26 41/97/26
f 47/99/5 45/207/5 41/100/5
f 48/102/6 44/208/6 42/103/6
f 50/105/27 52/209/27 51/106/27
f 52/108/28 56/210/28 55/109/28
f 56/111/29 54/211/29 53/112/29
f 54/114/30 50/212/30 49/115/30
f 55/117/5 53/213/5 49/118/5
f 52/120/6 50/214/6 54/121/6
f 58/123/31 60/215/31 59/124/31
f 60/126/32 64/216/32 63/127/32
f 64/129/33 62/217/33 61/130/33
f 62/132/34 58/218/34 57/133/34
f 59/135/5 63/219/5 61/136/5
f 60/138/6 58/220/6 62/139/6
f 66/141/35 68/221/35 67/142/35
f 67/144/36 68/222/36 72/145/36
f 72/147/37 70/223/37 69/148/37
f 70/150/38 66/224/38 65/151/38
f 71/153/39 69/225/39 65/154/39
f 68/156/40 66/226/40 70/157/40
f 74/159/41 76/227/41 75/160/41
f 75/162/42 76/228/42 80/163/42
f 80/165/43 78/229/43 77/166/43
f 77/168/44 78/230/44 74/169/44
f 79/171/45 77/231/45 73/172/45
f 76/174/46 74/232/46 78/175/46
