# Blender v3.4.1 OBJ File: 'shops.blend'
# www.blender.org
o Food_Stall_1_Cube.002
v 0.882801 -0.886048 0.746673
v 0.882801 1.293994 0.746673
v 0.897194 -0.886048 0.645165
v 0.897194 1.293994 0.645165
v 0.984309 -0.886048 0.761066
v 0.984309 1.293994 0.761066
v 0.998702 -0.886048 0.659558
v 0.998702 1.293994 0.659558
v -0.956383 -0.886048 0.758416
v -0.956383 1.293994 0.758416
v -0.964807 -0.886048 0.656239
v -0.964807 1.293994 0.656239
v -0.854206 -0.886048 0.749992
v -0.854206 1.293994 0.749992
v -0.862630 -0.886048 0.647815
v -0.862630 1.293994 0.647815
v -1.044259 -0.031619 0.692068
v -1.044259 0.031619 0.692068
v -1.044259 -0.031619 -0.369927
v -1.044259 0.031619 -0.369927
v 1.044259 -0.031619 0.692068
v 1.044259 0.031619 0.692068
v 1.044259 -0.031619 -0.369927
v 1.044259 0.031619 -0.369927
v -0.963385 -0.886048 -0.832834
v -0.963385 1.293994 -0.832834
v -0.958011 -0.886048 -0.935217
v -0.958011 1.293994 -0.935217
v -0.861002 -0.886048 -0.827460
v -0.861002 1.293994 -0.827460
v -0.855628 -0.886048 -0.929843
v -0.855628 1.293994 -0.929843
v 0.859015 -0.886048 -0.826614
v 0.859015 1.293994 -0.826614
v 0.851839 -0.886048 -0.928887
v 0.851839 1.293994 -0.928887
v 0.961287 -0.886048 -0.833790
v 0.961287 1.293994 -0.833790
v 0.954111 -0.886048 -0.936062
v 0.954111 1.293994 -0.936062
v -0.946119 -0.832110 0.607706
v -0.946119 -0.055716 0.607706
v -0.964836 -0.832110 -0.796735
v -0.964836 -0.055716 -0.796735
v -0.911240 -0.832110 0.607241
v -0.911240 -0.055716 0.607241
v -0.929957 -0.832110 -0.797199
v -0.929957 -0.055716 -0.797199
v 0.904368 -0.832110 0.606977
v 0.904368 -0.055716 0.606977
v 0.935521 -0.832110 -0.797243
v 0.935521 -0.055716 -0.797243
v 0.939241 -0.832110 0.607750
v 0.939241 -0.055716 0.607750
v 0.970394 -0.832110 -0.796470
v 0.970394 -0.055716 -0.796470
v 0.899659 1.081330 0.786284
v 0.899659 1.156076 0.786284
v 0.860532 1.081330 -0.968684
v 0.860532 1.156076 -0.968684
v 0.974387 1.081330 0.784618
v 0.974387 1.156076 0.784618
v 0.935260 1.081330 -0.970350
v 0.935260 1.156076 -0.970350
v -0.934254 1.080068 0.785863
v -0.937224 1.154755 0.785863
v -0.943963 1.079682 -0.969514
v -0.946933 1.154369 -0.969514
v -0.859568 1.083037 0.785449
v -0.862538 1.157725 0.785449
v -0.869277 1.082651 -0.969928
v -0.872246 1.157339 -0.969928
v 1.005980 1.080094 0.745561
v 1.005957 1.154781 0.748531
v -0.988968 1.079655 0.740824
v -0.988992 1.154343 0.743793
v 1.006157 1.083063 0.670873
v 1.006133 1.157751 0.673843
v -0.988792 1.082625 0.666136
v -0.988815 1.157312 0.669106
vt 0.763371 0.778327
vt 0.727296 0.741904
vt 0.763371 0.741907
vt 0.036071 0.814746
vt 0.000000 0.778324
vt 0.036071 0.778326
vt 0.763371 0.741907
vt 0.799446 0.778324
vt 0.763371 0.778326
vt 0.036071 0.778327
vt 0.072142 0.814743
vt 0.036071 0.814746
vt 0.036419 0.741904
vt 0.000000 0.778324
vt 0.000000 0.741904
vt 0.072839 0.741904
vt 0.036420 0.778324
vt 0.036420 0.741904
vt 0.691009 0.741906
vt 0.727295 0.778324
vt 0.691009 0.778325
vt 0.618435 0.741906
vt 0.654724 0.778324
vt 0.618435 0.778325
vt 0.691009 0.778326
vt 0.654723 0.741904
vt 0.691009 0.741906
vt 0.618435 0.778325
vt 0.582146 0.741904
vt 0.618435 0.741906
vt 0.109257 0.741904
vt 0.145676 0.778324
vt 0.109257 0.778324
vt 0.291355 0.741904
vt 0.254936 0.778324
vt 0.254936 0.741904
vt 0.915848 0.498875
vt 0.914792 0.876126
vt 0.914792 0.498875
vt 0.993949 0.000000
vt 0.992893 0.741901
vt 0.992893 0.000000
vt 0.914792 0.498875
vt 0.913735 0.876125
vt 0.913735 0.498875
vt 0.995006 0.000000
vt 0.993950 0.741902
vt 0.993950 0.000000
vt 0.377253 0.000000
vt 0.754505 0.741904
vt 0.377253 0.741904
vt 0.000000 0.000000
vt 0.377253 0.741905
vt 0.000000 0.741905
vt 0.364107 0.778325
vt 0.327732 0.741904
vt 0.364107 0.741905
vt 0.400478 0.778325
vt 0.364105 0.741904
vt 0.400478 0.741905
vt 0.291355 0.741905
vt 0.327730 0.778324
vt 0.291355 0.778325
vt 0.400482 0.741905
vt 0.436855 0.778324
vt 0.400482 0.778325
vt 0.145678 0.741905
vt 0.182096 0.778324
vt 0.145678 0.778324
vt 0.218517 0.741905
vt 0.182098 0.778324
vt 0.182098 0.741905
vt 0.545824 0.741906
vt 0.582146 0.778324
vt 0.545824 0.778325
vt 0.473178 0.741906
vt 0.509502 0.778324
vt 0.473178 0.778325
vt 0.545824 0.778325
vt 0.509502 0.741904
vt 0.545824 0.741906
vt 0.473178 0.778325
vt 0.436854 0.741904
vt 0.473178 0.741906
vt 0.218515 0.741904
vt 0.254934 0.778324
vt 0.218515 0.778324
vt 0.109259 0.778324
vt 0.072840 0.741904
vt 0.109259 0.741904
vt 0.926706 0.000000
vt 0.913735 0.498875
vt 0.913735 0.000000
vt 0.754505 0.708668
vt 0.766895 0.721638
vt 0.754505 0.721638
vt 0.939676 0.000000
vt 0.926705 0.498875
vt 0.926705 0.000000
vt 0.766895 0.734609
vt 0.754505 0.721638
vt 0.766895 0.721638
vt 0.965618 0.000000
vt 0.978008 0.498943
vt 0.965618 0.498943
vt 0.990398 0.000000
vt 0.978008 0.498943
vt 0.978008 0.000000
vt 0.952646 0.000000
vt 0.939676 0.498855
vt 0.939676 0.000000
vt 0.084531 0.791294
vt 0.072142 0.778324
vt 0.084531 0.778324
vt 0.965616 0.000000
vt 0.952646 0.498856
vt 0.952646 0.000000
vt 0.766895 0.708668
vt 0.779283 0.721638
vt 0.766895 0.721638
vt 0.952067 0.997799
vt 0.964458 0.498855
vt 0.964458 0.997799
vt 0.939676 0.498856
vt 0.952067 0.997799
vt 0.939676 0.997799
vt 0.996255 0.000000
vt 0.995006 0.623368
vt 0.995006 0.000000
vt 0.785531 0.708668
vt 0.784282 0.735212
vt 0.784282 0.708668
vt 0.997503 0.000000
vt 0.996255 0.623367
vt 0.996255 0.000000
vt 0.786779 0.708668
vt 0.785531 0.735212
vt 0.785531 0.708668
vt 0.834120 0.623572
vt 0.860673 0.000000
vt 0.860673 0.623572
vt 0.807568 0.000000
vt 0.834120 0.623573
vt 0.807568 0.623573
vt 0.998752 0.000000
vt 0.997503 0.623551
vt 0.997503 0.000003
vt 0.783032 0.735199
vt 0.781783 0.709721
vt 0.783032 0.708668
vt 0.998752 0.000000
vt 1.000000 0.623550
vt 0.998752 0.623549
vt 0.784282 0.709721
vt 0.783032 0.735199
vt 0.783032 0.708668
vt 0.913734 0.623572
vt 0.887203 0.000000
vt 0.913734 0.000000
vt 0.887203 0.000000
vt 0.860672 0.623573
vt 0.860672 0.000000
vt 0.992893 0.000006
vt 0.991646 0.708668
vt 0.991646 0.000000
vt 0.779283 0.709720
vt 0.780533 0.735199
vt 0.779283 0.736252
vt 0.990399 0.000008
vt 0.991646 0.708668
vt 0.990399 0.708672
vt 0.781783 0.709720
vt 0.780533 0.735199
vt 0.780533 0.708668
vt 0.807568 0.708667
vt 0.781037 0.000000
vt 0.807568 0.000000
vt 0.781037 0.000000
vt 0.754505 0.708668
vt 0.754505 0.000000
vt 0.727296 0.778324
vt 0.000000 0.814743
vt 0.799446 0.741904
vt 0.072142 0.778324
vt 0.036419 0.778324
vt 0.072839 0.778324
vt 0.727295 0.741904
vt 0.654724 0.741904
vt 0.654723 0.778324
vt 0.582146 0.778324
vt 0.145676 0.741904
vt 0.291355 0.778324
vt 0.915848 0.876126
vt 0.993949 0.741901
vt 0.914792 0.876125
vt 0.995006 0.741902
vt 0.754505 0.000000
vt 0.377253 0.000000
vt 0.327732 0.778324
vt 0.364105 0.778324
vt 0.327730 0.741904
vt 0.436855 0.741904
vt 0.182096 0.741905
vt 0.218517 0.778324
vt 0.582146 0.741904
vt 0.509502 0.741904
vt 0.509502 0.778324
vt 0.436854 0.778324
vt 0.254934 0.741904
vt 0.072840 0.778324
vt 0.926706 0.498875
vt 0.766895 0.708668
vt 0.939676 0.498875
vt 0.754505 0.734609
vt 0.978008 0.000000
vt 0.990398 0.498943
vt 0.952646 0.498855
vt 0.072142 0.791294
vt 0.965616 0.498856
vt 0.779283 0.708668
vt 0.952067 0.498855
vt 0.952067 0.498856
vt 0.996255 0.623368
vt 0.785531 0.735212
vt 0.997503 0.623367
vt 0.786779 0.735212
vt 0.834120 0.000000
vt 0.834120 0.000000
vt 0.998752 0.623548
vt 0.781783 0.736252
vt 1.000000 0.000004
vt 0.784282 0.736252
vt 0.887203 0.623572
vt 0.887203 0.623573
vt 0.992893 0.708673
vt 0.780533 0.708668
vt 0.991646 0.000000
vt 0.781783 0.736252
vt 0.781037 0.708668
vt 0.781037 0.708668
vn -0.9901 0.0000 -0.1404
vn 0.1404 0.0000 -0.9901
vn 0.9901 0.0000 0.1404
vn -0.1404 0.0000 0.9901
vn 0.0000 -1.0000 0.0000
vn 0.0000 1.0000 0.0000
vn -0.9966 0.0000 0.0822
vn -0.0822 0.0000 -0.9966
vn 0.9966 0.0000 -0.0822
vn 0.0822 0.0000 0.9966
vn -1.0000 0.0000 0.0000
vn 0.0000 0.0000 -1.0000
vn 1.0000 0.0000 0.0000
vn 0.0000 0.0000 1.0000
vn -0.9986 0.0000 -0.0524
vn 0.0524 0.0000 -0.9986
vn 0.9986 0.0000 0.0524
vn -0.0524 0.0000 0.9986
vn -0.9975 0.0000 0.0700
vn -0.0700 0.0000 -0.9975
vn 0.9975 0.0000 -0.0700
vn 0.0700 0.0000 0.9975
vn -0.9999 0.0000 0.0133
vn -0.0133 0.0000 -0.9999
vn 0.9999 0.0000 -0.0133
vn 0.0133 0.0000 0.9999
vn -0.9998 0.0000 -0.0222
vn 0.0222 0.0000 -0.9998
vn 0.9998 0.0000 0.0222
vn -0.0222 0.0000 0.9998
vn -0.9998 0.0000 0.0223
vn -0.0223 0.0000 -0.9998
vn 0.9998 0.0000 -0.0223
vn 0.0223 0.0000 0.9998
vn -0.9992 -0.0397 0.0055
vn -0.0055 -0.0002 -1.0000
vn 0.9992 0.0397 -0.0055
vn 0.0055 0.0002 1.0000
vn 0.0397 -0.9992 0.0000
vn -0.0397 0.9992 0.0000
vn -0.0024 -0.0397 0.9992
vn -1.0000 -0.0002 -0.0024
vn 0.0024 0.0397 -0.9992
vn 1.0000 0.0002 0.0024
vn 0.0003 -0.9992 -0.0397
vn -0.0003 0.9992 0.0397
s off
f 2/1/1 3/2/1 1/3/1
f 4/4/2 7/5/2 3/6/2
f 8/7/3 5/8/3 7/9/3
f 6/10/4 1/11/4 5/12/4
f 7/13/5 1/14/5 3/15/5
f 4/16/6 6/17/6 8/18/6
f 10/19/7 11/20/7 9/21/7
f 12/22/8 15/23/8 11/24/8
f 16/25/9 13/26/9 15/27/9
f 14/28/10 9/29/10 13/30/10
f 11/31/5 13/32/5 9/33/5
f 12/34/6 14/35/6 16/36/6
f 18/37/11 19/38/11 17/39/11
f 20/40/12 23/41/12 19/42/12
f 24/43/13 21/44/13 23/45/13
f 22/46/14 17/47/14 21/48/14
f 23/49/5 17/50/5 19/51/5
f 20/52/6 22/53/6 24/54/6
f 26/55/15 27/56/15 25/57/15
f 28/58/16 31/59/16 27/60/16
f 32/61/17 29/62/17 31/63/17
f 30/64/18 25/65/18 29/66/18
f 31/67/5 25/68/5 27/69/5
f 28/70/6 30/71/6 32/72/6
f 34/73/19 35/74/19 33/75/19
f 36/76/20 39/77/20 35/78/20
f 40/79/21 37/80/21 39/81/21
f 38/82/22 33/83/22 37/84/22
f 39/85/5 33/86/5 35/87/5
f 36/88/6 38/89/6 40/90/6
f 42/91/23 43/92/23 41/93/23
f 44/94/24 47/95/24 43/96/24
f 48/97/25 45/98/25 47/99/25
f 46/100/26 41/101/26 45/102/26
f 43/103/5 45/104/5 41/105/5
f 44/106/6 46/107/6 48/108/6
f 50/109/27 51/110/27 49/111/27
f 52/112/28 55/113/28 51/114/28
f 56/115/29 53/116/29 55/117/29
f 54/118/30 49/119/30 53/120/30
f 55/121/5 49/122/5 51/123/5
f 56/124/6 50/125/6 54/126/6
f 58/127/31 59/128/31 57/129/31
f 60/130/32 63/131/32 59/132/32
f 64/133/33 61/134/33 63/135/33
f 62/136/34 57/137/34 61/138/34
f 63/139/5 57/140/5 59/141/5
f 64/142/6 58/143/6 62/144/6
f 66/145/35 67/146/35 65/147/35
f 67/148/36 72/149/36 71/150/36
f 71/151/37 70/152/37 69/153/37
f 70/154/38 65/155/38 69/156/38
f 67/157/39 69/158/39 65/159/39
f 68/160/40 70/161/40 72/162/40
f 74/163/41 75/164/41 73/165/41
f 75/166/42 80/167/42 79/168/42
f 79/169/43 78/170/43 77/171/43
f 78/172/44 73/173/44 77/174/44
f 75/175/45 77/176/45 73/177/45
f 76/178/46 78/179/46 80/180/46
f 2/1/1 4/181/1 3/2/1
f 4/4/2 8/182/2 7/5/2
f 8/7/3 6/183/3 5/8/3
f 6/10/4 2/184/4 1/11/4
f 7/13/5 5/185/5 1/14/5
f 4/16/6 2/186/6 6/17/6
f 10/19/7 12/187/7 11/20/7
f 12/22/8 16/188/8 15/23/8
f 16/25/9 14/189/9 13/26/9
f 14/28/10 10/190/10 9/29/10
f 11/31/5 15/191/5 13/32/5
f 12/34/6 10/192/6 14/35/6
f 18/37/11 20/193/11 19/38/11
f 20/40/12 24/194/12 23/41/12
f 24/43/13 22/195/13 21/44/13
f 22/46/14 18/196/14 17/47/14
f 23/49/5 21/197/5 17/50/5
f 20/52/6 18/198/6 22/53/6
f 26/55/15 28/199/15 27/56/15
f 28/58/16 32/200/16 31/59/16
f 32/61/17 30/201/17 29/62/17
f 30/64/18 26/202/18 25/65/18
f 31/67/5 29/203/5 25/68/5
f 28/70/6 26/204/6 30/71/6
f 34/73/19 36/205/19 35/74/19
f 36/76/20 40/206/20 39/77/20
f 40/79/21 38/207/21 37/80/21
f 38/82/22 34/208/22 33/83/22
f 39/85/5 37/209/5 33/86/5
f 36/88/6 34/210/6 38/89/6
f 42/91/23 44/211/23 43/92/23
f 44/94/24 48/212/24 47/95/24
f 48/97/25 46/213/25 45/98/25
f 46/100/26 42/214/26 41/101/26
f 43/103/5 47/215/5 45/104/5
f 44/106/6 42/216/6 46/107/6
f 50/109/27 52/217/27 51/110/27
f 52/112/28 56/218/28 55/113/28
f 56/115/29 54/219/29 53/116/29
f 54/118/30 50/220/30 49/119/30
f 55/121/5 53/221/5 49/122/5
f 56/124/6 52/222/6 50/125/6
f 58/127/31 60/223/31 59/128/31
f 60/130/32 64/224/32 63/131/32
f 64/133/33 62/225/33 61/134/33
f 62/136/34 58/226/34 57/137/34
f 63/139/5 61/227/5 57/140/5
f 64/142/6 60/228/6 58/143/6
f 66/145/35 68/229/35 67/146/35
f 67/148/36 68/230/36 72/149/36
f 71/151/37 72/231/37 70/152/37
f 70/154/38 66/232/38 65/155/38
f 67/157/39 71/233/39 69/158/39
f 68/160/40 66/234/40 70/161/40
f 74/163/41 76/235/41 75/164/41
f 75/166/42 76/236/42 80/167/42
f 79/169/43 80/237/43 78/170/43
f 78/172/44 74/238/44 73/173/44
f 75/175/45 79/239/45 77/176/45
f 76/178/46 74/240/46 78/179/46
