# Blender v3.4.1 OBJ File: 'environment.blend'
# www.blender.org
o Storefront_5_Cube.025
v -1.031328 -0.849598 0.072060
v -1.031328 0.960112 0.072060
v -1.031328 -0.849598 -1.027082
v -1.031328 0.960112 -1.027082
v -0.945213 -0.849598 0.072060
v -0.945213 0.960112 0.072060
v -0.945213 -0.849598 -1.027082
v -0.945213 0.960112 -1.027082
v -0.641649 -0.811742 0.064432
v -0.641649 0.706048 0.064432
v 0.141649 -0.811742 0.064432
v 0.141649 0.706048 0.064432
v -0.985232 -0.830364 0.111159
v -0.985232 0.736775 0.111159
v -0.985232 -0.830364 0.017101
v -0.985232 0.736775 0.017101
v -0.598111 -0.830364 0.111159
v -0.598111 0.736775 0.111159
v -0.598111 -0.830364 0.017101
v -0.598111 0.736775 0.017101
v -0.977596 0.559070 0.092880
v -0.977596 0.691284 0.092880
v -0.977596 0.559070 0.031576
v -0.977596 0.691284 0.031576
v 1.022404 0.559070 0.092880
v 1.022404 0.691284 0.092880
v 1.022404 0.559070 0.031576
v 1.022404 0.691284 0.031576
v -1.017847 0.647696 0.118600
v -1.017847 0.965651 0.118600
v -1.017847 0.647696 0.026352
v -1.017847 0.965651 0.026352
v 0.982153 0.647696 0.118600
v 0.982153 0.965651 0.118600
v 0.982153 0.647696 0.026352
v 0.982153 0.965651 0.026352
v -1.071785 -0.853905 0.138835
v -1.071785 0.979240 0.138835
v -1.071785 -0.853905 0.015473
v -1.071785 0.979240 0.015473
v -0.950635 -0.853905 0.138835
v -0.950635 0.979240 0.138835
v -0.950635 -0.853905 0.015473
v -0.950635 0.979240 0.015473
v 0.950855 -0.853905 0.124413
v 0.950855 0.979240 0.124413
v 0.950855 -0.853905 0.001051
v 0.950855 0.979240 0.001051
v 1.072005 -0.853905 0.124413
v 1.072005 0.979240 0.124413
v 1.072005 -0.853905 0.001051
v 1.072005 0.979240 0.001051
v 0.088474 -0.797182 0.111159
v 0.088474 0.736775 0.111159
v 0.088474 -0.797182 0.017101
v 0.088474 0.736775 0.017101
v 1.009443 -0.797182 0.111159
v 1.009443 0.736775 0.111159
v 1.009443 -0.797182 0.017101
v 1.009443 0.736775 0.017101
v 0.088474 -0.828801 0.135642
v 0.088474 -0.539670 0.135642
v 0.088474 -0.828801 0.041583
v 0.088474 -0.539670 0.041583
v 1.009443 -0.828801 0.135642
v 1.009443 -0.539670 0.135642
v 1.009443 -0.828801 0.041583
v 1.009443 -0.539670 0.041583
v -0.632032 -0.853905 0.126257
v -0.632032 0.586196 0.126257
v -0.632032 -0.853905 0.042918
v -0.632032 0.586196 0.042918
v -0.556459 -0.853905 0.126257
v -0.556459 0.586196 0.126257
v -0.556459 -0.853905 0.042918
v -0.556459 0.586196 0.042918
v 0.049020 -0.853905 0.126257
v 0.049020 0.586196 0.126257
v 0.049020 -0.853905 0.042918
v 0.049020 0.586196 0.042918
v 0.124593 -0.853905 0.126257
v 0.124593 0.586196 0.126257
v 0.124593 -0.853905 0.042918
v 0.124593 0.586196 0.042918
v -0.683896 0.514958 0.131373
v -0.683896 0.601705 0.131373
v -0.683896 0.514958 0.070069
v -0.683896 0.601705 0.070069
v 0.164805 0.514958 0.131373
v 0.164805 0.601705 0.131373
v 0.164805 0.514958 0.070069
v 0.164805 0.601705 0.070069
v 0.968373 -0.849598 0.072060
v 0.968373 0.960112 0.072060
v 0.968373 -0.849598 -1.027082
v 0.968373 0.960112 -1.027082
v 1.054487 -0.849598 0.072060
v 1.054487 0.960112 0.072060
v 1.054487 -0.849598 -1.027082
v 1.054487 0.960112 -1.027082
v -1.000000 0.907001 0.099979
v 1.000000 0.907001 0.099979
v -1.000000 0.907001 -1.009180
v 1.000000 0.907001 -1.009180
vt 0.000000 0.000000
vt 0.200428 0.361405
vt 0.000000 0.361405
vt 0.200428 0.000000
vt 0.399045 0.327019
vt 0.200428 0.000000
vt 0.399046 0.000000
vt 0.135616 0.965614
vt 0.120055 0.638595
vt 0.135616 0.638595
vt 0.597663 0.327019
vt 0.399046 0.000000
vt 0.597663 0.000000
vt 0.151177 0.965614
vt 0.135616 0.638595
vt 0.151177 0.638595
vt 0.215989 0.654038
vt 0.200428 0.852656
vt 0.200428 0.654038
vt 0.842713 0.638595
vt 0.827152 0.837213
vt 0.827152 0.638595
vt 0.739207 0.551458
vt 0.597663 0.277190
vt 0.739207 0.277190
vt 0.771765 0.921781
vt 0.754769 0.638595
vt 0.771765 0.638595
vt 0.667617 0.834644
vt 0.597663 0.551458
vt 0.667617 0.551458
vt 0.788762 0.921781
vt 0.771765 0.638595
vt 0.788762 0.638595
vt 0.737571 0.834645
vt 0.667617 0.551459
vt 0.737571 0.551459
vt 0.402597 0.723992
vt 0.385601 0.654038
vt 0.402597 0.654038
vt 0.385601 0.723992
vt 0.368604 0.654038
vt 0.385601 0.654038
vt 0.579653 0.677930
vt 0.568576 0.654038
vt 0.579653 0.654038
vt 0.166422 0.722810
vt 0.190313 0.361405
vt 0.190313 0.722810
vt 0.568575 0.677930
vt 0.557498 0.654038
vt 0.568575 0.654038
vt 0.854118 0.638595
vt 0.878009 0.277190
vt 0.878009 0.638595
vt 0.799839 1.000000
vt 0.788762 0.638595
vt 0.799839 0.638595
vt 0.162255 1.000000
vt 0.151177 0.638595
vt 0.162255 0.638595
vt 0.435936 0.711494
vt 0.419267 0.654038
vt 0.435936 0.654038
vt 0.796663 0.638595
vt 0.854118 0.277190
vt 0.854118 0.638595
vt 0.419266 0.711494
vt 0.402597 0.654038
vt 0.419267 0.654038
vt 0.739207 0.638595
vt 0.796663 0.277190
vt 0.796663 0.638595
vt 0.999716 0.638595
vt 0.983047 0.277190
vt 0.999716 0.277190
vt 0.983047 0.638595
vt 0.966378 0.277190
vt 0.983047 0.277190
vt 0.922593 0.608444
vt 0.900301 0.277190
vt 0.922593 0.277190
vt 0.944485 0.939698
vt 0.922593 0.608444
vt 0.944485 0.608444
vt 0.900301 0.608444
vt 0.878009 0.277190
vt 0.900301 0.277190
vt 0.944485 0.608444
vt 0.944485 0.277190
vt 0.535606 0.654038
vt 0.513713 0.676330
vt 0.513713 0.654038
vt 0.557498 0.654038
vt 0.535606 0.676330
vt 0.535606 0.654038
vt 0.900301 0.939698
vt 0.878009 0.608444
vt 0.900301 0.608444
vt 0.966378 0.608444
vt 0.944486 0.277190
vt 0.966378 0.277190
vt 0.922593 0.939698
vt 0.900301 0.608444
vt 0.922593 0.608444
vt 0.966378 0.939698
vt 0.944485 0.608444
vt 0.966378 0.608444
vt 0.491821 0.654038
vt 0.469929 0.676330
vt 0.469929 0.654038
vt 0.513713 0.654038
vt 0.491821 0.676330
vt 0.491821 0.654038
vt 0.798078 0.277190
vt 0.781082 0.000000
vt 0.798078 0.000000
vt 0.166422 0.638595
vt 0.000000 0.361405
vt 0.166422 0.361405
vt 0.781081 0.277190
vt 0.764085 0.000000
vt 0.781082 0.000000
vt 0.764085 0.277190
vt 0.597663 0.000000
vt 0.298101 0.820460
vt 0.281105 0.654038
vt 0.298101 0.654038
vt 0.315098 0.820460
vt 0.298101 0.654038
vt 0.315098 0.654038
vt 0.469929 0.706285
vt 0.452932 0.654038
vt 0.469929 0.654038
vt 0.000000 0.805017
vt 0.052247 0.638595
vt 0.052247 0.805017
vt 0.452932 0.706285
vt 0.435936 0.654038
vt 0.452932 0.654038
vt 0.052247 0.805017
vt 0.104494 0.638595
vt 0.104494 0.805017
vt 0.281104 0.820460
vt 0.264108 0.654038
vt 0.281104 0.654038
vt 0.264108 0.820460
vt 0.247111 0.654038
vt 0.264108 0.654038
vt 0.828197 0.260230
vt 0.813138 0.000000
vt 0.828197 0.000000
vt 0.813496 0.898825
vt 0.799840 0.638595
vt 0.813496 0.638595
vt 0.858317 0.260230
vt 0.843257 0.000000
vt 0.858317 0.000000
vt 0.827152 0.898825
vt 0.813496 0.638595
vt 0.827152 0.638595
vt 0.483585 0.676330
vt 0.469929 0.691390
vt 0.469929 0.676330
vt 0.497241 0.676330
vt 0.483585 0.691390
vt 0.483585 0.676330
vt 0.813138 0.260230
vt 0.798078 0.000000
vt 0.813138 0.000000
vt 0.885629 0.260230
vt 0.871973 0.000000
vt 0.885629 0.000000
vt 0.843257 0.260230
vt 0.828197 0.000000
vt 0.843257 0.000000
vt 0.871973 0.260230
vt 0.858317 0.000000
vt 0.871973 0.000000
vt 0.593310 0.669098
vt 0.579653 0.684157
vt 0.579653 0.669098
vt 0.593310 0.654038
vt 0.579653 0.669098
vt 0.579653 0.654038
vt 0.519397 0.692006
vt 0.508319 0.676330
vt 0.519397 0.676330
vt 0.315098 0.807401
vt 0.330773 0.654038
vt 0.330773 0.807401
vt 0.508319 0.692006
vt 0.497241 0.676330
vt 0.508319 0.676330
vt 0.330773 0.807401
vt 0.346448 0.654038
vt 0.346448 0.807401
vt 0.368604 0.807401
vt 0.357526 0.654038
vt 0.368604 0.654038
vt 0.357526 0.807401
vt 0.346448 0.654038
vt 0.357526 0.654038
vt 0.399046 0.654038
vt 0.200428 0.327019
vt 0.399046 0.327019
vt 0.120055 0.965614
vt 0.104493 0.638595
vt 0.120055 0.638595
vt 0.597663 0.654038
vt 0.399046 0.327019
vt 0.597663 0.327019
vt 0.754768 0.965614
vt 0.739207 0.638595
vt 0.754768 0.638595
vt 0.247111 0.654038
vt 0.231550 0.852656
vt 0.231550 0.654038
vt 0.231550 0.654038
vt 0.215989 0.852656
vt 0.215989 0.654038
vt 0.200428 0.327019
vt 0.120055 0.965614
vt 0.399046 0.327019
vt 0.135616 0.965614
vt 0.215989 0.852656
vt 0.842713 0.837213
vt 0.597663 0.551458
vt 0.754769 0.921781
vt 0.597663 0.834644
vt 0.771765 0.921781
vt 0.667617 0.834645
vt 0.385601 0.723992
vt 0.368604 0.723992
vt 0.568576 0.677930
vt 0.166422 0.361405
vt 0.557498 0.677930
vt 0.854118 0.277190
vt 0.788762 1.000000
vt 0.151177 1.000000
vt 0.419267 0.711494
vt 0.796663 0.277190
vt 0.402597 0.711494
vt 0.739207 0.277190
vt 0.983047 0.638595
vt 0.966378 0.638595
vt 0.900301 0.608444
vt 0.922593 0.939698
vt 0.878009 0.608444
vt 0.535606 0.676330
vt 0.557498 0.676330
vt 0.878009 0.939698
vt 0.944486 0.608444
vt 0.900301 0.939698
vt 0.944485 0.939698
vt 0.491821 0.676330
vt 0.513713 0.676330
vt 0.781082 0.277190
vt 0.000000 0.638595
vt 0.597663 0.277190
vt 0.281105 0.820460
vt 0.298101 0.820460
vt 0.452932 0.706285
vt 0.000000 0.638595
vt 0.435936 0.706285
vt 0.052247 0.638595
vt 0.264108 0.820460
vt 0.247111 0.820460
vt 0.813138 0.260230
vt 0.799840 0.898825
vt 0.843257 0.260230
vt 0.813496 0.898825
vt 0.483585 0.691390
vt 0.497241 0.691390
vt 0.798078 0.260230
vt 0.871973 0.260230
vt 0.828197 0.260230
vt 0.858317 0.260230
vt 0.593310 0.684157
vt 0.593310 0.669098
vt 0.508319 0.692006
vt 0.315098 0.654038
vt 0.497241 0.692006
vt 0.330773 0.654038
vt 0.357526 0.807401
vt 0.346448 0.807401
vt 0.200428 0.654038
vt 0.104493 0.965614
vt 0.399046 0.654038
vt 0.739207 0.965614
vt 0.247111 0.852656
vt 0.231550 0.852656
vn 0.0000 1.0000 0.0000
vn -1.0000 0.0000 0.0000
vn 0.0000 0.0000 -1.0000
vn 1.0000 0.0000 0.0000
vn 0.0000 0.0000 1.0000
vn 0.0000 -1.0000 0.0000
s off
f 102/1/1 103/2/1 101/3/1
f 102/1/1 104/4/1 103/2/1
s 1
f 2/5/2 3/6/2 1/7/2
f 4/8/3 7/9/3 3/10/3
f 8/11/4 5/12/4 7/13/4
f 6/14/5 1/15/5 5/16/5
f 7/17/6 1/18/6 3/19/6
f 4/20/1 6/21/1 8/22/1
f 12/23/5 9/24/5 11/25/5
f 14/26/2 15/27/2 13/28/2
f 16/29/3 19/30/3 15/31/3
f 20/32/4 17/33/4 19/34/4
f 18/35/5 13/36/5 17/37/5
f 19/38/6 13/39/6 15/40/6
f 16/41/1 18/42/1 20/43/1
f 22/44/2 23/45/2 21/46/2
f 24/47/3 27/48/3 23/49/3
f 28/50/4 25/51/4 27/52/4
f 26/53/5 21/54/5 25/55/5
f 27/56/6 21/57/6 23/58/6
f 24/59/1 26/60/1 28/61/1
f 30/62/2 31/63/2 29/64/2
f 32/65/3 35/66/3 31/67/3
f 36/68/4 33/69/4 35/70/4
f 34/71/5 29/72/5 33/73/5
f 35/74/6 29/75/6 31/76/6
f 32/77/1 34/78/1 36/79/1
f 38/80/2 39/81/2 37/82/2
f 40/83/3 43/84/3 39/85/3
f 44/86/4 41/87/4 43/88/4
f 42/89/5 37/82/5 41/90/5
f 43/91/6 37/92/6 39/93/6
f 40/94/1 42/95/1 44/96/1
f 46/97/2 47/98/2 45/99/2
f 48/100/3 51/101/3 47/102/3
f 52/103/4 49/104/4 51/105/4
f 50/106/5 45/107/5 49/108/5
f 51/109/6 45/110/6 47/111/6
f 48/112/1 50/113/1 52/114/1
f 54/115/2 55/116/2 53/117/2
f 56/118/3 59/119/3 55/120/3
f 60/121/4 57/122/4 59/123/4
f 58/124/5 53/125/5 57/122/5
f 59/126/6 53/127/6 55/128/6
f 56/129/1 58/130/1 60/131/1
f 62/132/2 63/133/2 61/134/2
f 64/135/3 67/136/3 63/137/3
f 68/138/4 65/139/4 67/140/4
f 66/141/5 61/142/5 65/143/5
f 67/144/6 61/145/6 63/146/6
f 64/147/1 66/148/1 68/149/1
f 70/150/2 71/151/2 69/152/2
f 72/153/3 75/154/3 71/155/3
f 76/156/4 73/157/4 75/158/4
f 74/159/5 69/160/5 73/161/5
f 75/162/6 69/163/6 71/164/6
f 72/165/1 74/166/1 76/167/1
f 78/168/2 79/169/2 77/170/2
f 80/171/3 83/172/3 79/173/3
f 84/174/4 81/175/4 83/176/4
f 82/177/5 77/178/5 81/179/5
f 83/180/6 77/181/6 79/182/6
f 80/183/1 82/184/1 84/185/1
f 86/186/2 87/187/2 85/188/2
f 88/189/3 91/190/3 87/191/3
f 92/192/4 89/193/4 91/194/4
f 90/195/5 85/196/5 89/197/5
f 91/198/6 85/199/6 87/200/6
f 88/201/1 90/202/1 92/203/1
f 94/204/2 95/205/2 93/206/2
f 96/207/3 99/208/3 95/209/3
f 100/210/4 97/211/4 99/212/4
f 98/213/5 93/214/5 97/215/5
f 99/216/6 93/217/6 95/218/6
f 96/219/1 98/220/1 100/221/1
f 2/5/2 4/222/2 3/6/2
f 4/8/3 8/223/3 7/9/3
f 8/11/4 6/224/4 5/12/4
f 6/14/5 2/225/5 1/15/5
f 7/17/6 5/226/6 1/18/6
f 4/20/1 2/227/1 6/21/1
f 12/23/5 10/228/5 9/24/5
f 14/26/2 16/229/2 15/27/2
f 16/29/3 20/230/3 19/30/3
f 20/32/4 18/231/4 17/33/4
f 18/35/5 14/232/5 13/36/5
f 19/38/6 17/233/6 13/39/6
f 16/41/1 14/234/1 18/42/1
f 22/44/2 24/235/2 23/45/2
f 24/47/3 28/236/3 27/48/3
f 28/50/4 26/237/4 25/51/4
f 26/53/5 22/238/5 21/54/5
f 27/56/6 25/239/6 21/57/6
f 24/59/1 22/240/1 26/60/1
f 30/62/2 32/241/2 31/63/2
f 32/65/3 36/242/3 35/66/3
f 36/68/4 34/243/4 33/69/4
f 34/71/5 30/244/5 29/72/5
f 35/74/6 33/245/6 29/75/6
f 32/77/1 30/246/1 34/78/1
f 38/80/2 40/247/2 39/81/2
f 40/83/3 44/248/3 43/84/3
f 44/86/4 42/249/4 41/87/4
f 42/89/5 38/80/5 37/82/5
f 43/91/6 41/250/6 37/92/6
f 40/94/1 38/251/1 42/95/1
f 46/97/2 48/252/2 47/98/2
f 48/100/3 52/253/3 51/101/3
f 52/103/4 50/254/4 49/104/4
f 50/106/5 46/255/5 45/107/5
f 51/109/6 49/256/6 45/110/6
f 48/112/1 46/257/1 50/113/1
f 54/115/2 56/258/2 55/116/2
f 56/118/3 60/259/3 59/119/3
f 60/121/4 58/124/4 57/122/4
f 58/124/5 54/260/5 53/125/5
f 59/126/6 57/261/6 53/127/6
f 56/129/1 54/262/1 58/130/1
f 62/132/2 64/263/2 63/133/2
f 64/135/3 68/264/3 67/136/3
f 68/138/4 66/265/4 65/139/4
f 66/141/5 62/266/5 61/142/5
f 67/144/6 65/267/6 61/145/6
f 64/147/1 62/268/1 66/148/1
f 70/150/2 72/269/2 71/151/2
f 72/153/3 76/270/3 75/154/3
f 76/156/4 74/271/4 73/157/4
f 74/159/5 70/272/5 69/160/5
f 75/162/6 73/273/6 69/163/6
f 72/165/1 70/274/1 74/166/1
f 78/168/2 80/275/2 79/169/2
f 80/171/3 84/276/3 83/172/3
f 84/174/4 82/277/4 81/175/4
f 82/177/5 78/278/5 77/178/5
f 83/180/6 81/279/6 77/181/6
f 80/183/1 78/280/1 82/184/1
f 86/186/2 88/281/2 87/187/2
f 88/189/3 92/282/3 91/190/3
f 92/192/4 90/283/4 89/193/4
f 90/195/5 86/284/5 85/196/5
f 91/198/6 89/285/6 85/199/6
f 88/201/1 86/286/1 90/202/1
f 94/204/2 96/287/2 95/205/2
f 96/207/3 100/288/3 99/208/3
f 100/210/4 98/289/4 97/211/4
f 98/213/5 94/290/5 93/214/5
f 99/216/6 97/291/6 93/217/6
f 96/219/1 94/292/1 98/220/1
