# Blender v3.4.1 OBJ File: 'environment.blend'
# www.blender.org
o Storefront_2_Cube.031
v 0.887690 -0.809173 0.137761
v 0.887690 0.793697 0.137761
v 0.887690 -0.809173 0.102270
v 0.887690 0.793697 0.102270
v 0.972314 -0.809173 0.137761
v 0.972314 0.793697 0.137761
v 0.972314 -0.809173 0.102270
v 0.972314 0.793697 0.102270
v -1.005713 -0.793697 0.113526
v -1.005713 0.793697 0.113526
v -1.005713 -0.793697 0.091105
v -1.005713 0.793697 0.091105
v -0.027816 -0.793697 0.113526
v -0.027816 0.793697 0.113526
v -0.027816 -0.793697 0.091105
v -0.027816 0.793697 0.091105
v -0.570928 -0.793697 0.131226
v -0.570928 0.793697 0.131226
v -0.570928 -0.793697 0.108805
v -0.570928 0.793697 0.108805
v -0.462601 -0.793697 0.131226
v -0.462601 0.793697 0.131226
v -0.462601 -0.793697 0.108805
v -0.462601 0.793697 0.108805
v -1.028352 -0.328214 0.150232
v -1.027679 -0.251153 0.150232
v -1.028352 -0.328214 0.090995
v -1.027679 -0.251153 0.090995
v -0.005850 -0.337137 0.150232
v -0.005178 -0.260076 0.150232
v -0.005850 -0.337137 0.090995
v -0.005178 -0.260076 0.090995
v -1.011094 -0.793697 0.137761
v -1.011094 0.793697 0.137761
v -1.011094 -0.793697 0.102270
v -1.011094 0.793697 0.102270
v -0.940853 -0.793697 0.137761
v -0.940853 0.793697 0.137761
v -0.940853 -0.793697 0.102270
v -0.940853 0.793697 0.102270
v -0.115457 -0.793697 0.137761
v -0.115457 0.793697 0.137761
v -0.115457 -0.793697 0.102270
v -0.115457 0.793697 0.102270
v -0.045216 -0.793697 0.137761
v -0.045216 0.793697 0.137761
v -0.045216 -0.793697 0.102270
v -0.045216 0.793697 0.102270
v -1.028035 -0.806535 0.150232
v -1.028035 -0.729471 0.150232
v -1.028035 -0.806535 0.090995
v -1.028035 -0.729471 0.090995
v -0.005494 -0.806535 0.150232
v -0.005494 -0.729471 0.150232
v -0.005494 -0.806535 0.090995
v -0.005494 -0.729471 0.090995
v -1.146984 0.698065 0.150232
v -1.146984 0.798785 0.150232
v -1.146984 0.698065 0.090995
v -1.146984 0.798785 0.090995
v 1.003515 0.698065 0.150232
v 1.003515 0.798785 0.150232
v 1.003515 0.698065 0.090995
v 1.003515 0.798785 0.090995
v -1.093861 0.987003 -0.975135
v -1.093861 0.960701 -0.980478
v 0.950391 0.588836 0.985121
v 0.950391 0.987003 -0.975135
v 0.950391 0.562534 0.979779
v 0.950391 0.960701 -0.980478
v -1.093861 0.619222 0.835525
v -0.941209 0.588836 0.985121
v -1.082241 0.607594 0.892773
v -1.049150 0.597736 0.941306
v -0.999626 0.591149 0.973734
v -0.941209 0.562534 0.979779
v -1.093861 0.592920 0.830182
v -0.999626 0.564847 0.968392
v -1.049150 0.571434 0.935963
v -1.082241 0.581292 0.887431
v -1.011094 -0.793697 0.910360
v -1.011094 0.637025 0.910360
v -1.011094 -0.793697 0.874870
v -1.011094 0.637025 0.874870
v -0.940853 -0.793697 0.910360
v -0.940853 0.637025 0.910360
v -0.940853 -0.793697 0.874870
v -0.940853 0.637025 0.874870
v 0.835519 -0.793697 0.910360
v 0.835519 0.637025 0.910360
v 0.835519 -0.793697 0.874870
v 0.835519 0.637025 0.874870
v 0.905761 -0.793697 0.910360
v 0.905761 0.637025 0.910360
v 0.905761 -0.793697 0.874870
v 0.905761 0.637025 0.874870
v 0.901474 -0.799771 0.117632
v 0.901474 0.787949 0.117632
v 0.901474 -0.799771 -0.955717
v 0.901474 1.012774 -0.955717
v 0.938452 -0.799771 0.117632
v 0.938452 0.787949 0.117632
v 0.938452 -0.799771 -0.955717
v 0.938452 1.012774 -0.955717
v -0.997559 -0.799771 0.117632
v -0.997559 0.787949 0.117632
v -0.997559 -0.799771 -0.955717
v -0.997559 1.012774 -0.955717
v -0.960580 -0.799771 0.117632
v -0.960580 0.787949 0.117632
v -0.960580 -0.799771 -0.955717
v -0.960580 1.012774 -0.955717
v -1.002666 0.509001 0.944386
v -1.002666 0.561129 0.944386
v -1.002666 0.509001 0.022707
v -1.002666 0.561129 0.022707
v -0.945377 0.509001 0.944386
v -0.945377 0.561129 0.944386
v -0.945377 0.509001 0.022707
v -0.945377 0.561129 0.022707
v 0.842165 0.509001 0.944386
v 0.842165 0.561129 0.944386
v 0.842165 0.509001 0.022707
v 0.842165 0.561129 0.022707
v 0.899453 0.509001 0.944386
v 0.899453 0.561129 0.944386
v 0.899453 0.509001 0.022707
v 0.899453 0.561129 0.022707
vt 0.942836 0.298590
vt 0.740997 0.000000
vt 0.942836 0.000005
vt 0.972893 0.725318
vt 0.965939 0.384482
vt 0.972893 0.384482
vt 0.201853 0.384476
vt 0.000000 0.683061
vt 0.000000 0.384476
vt 0.972893 0.384484
vt 0.979846 0.682976
vt 0.972893 0.682978
vt 0.190034 0.927177
vt 0.196988 0.725342
vt 0.196988 0.927177
vt 0.183080 0.725342
vt 0.176126 0.928751
vt 0.176126 0.725343
vt 0.775082 0.683071
vt 0.573243 0.384482
vt 0.775082 0.384486
vt 0.965939 0.725318
vt 0.958984 0.384482
vt 0.965939 0.384482
vt 0.573243 0.384482
vt 0.371390 0.683067
vt 0.371390 0.384482
vt 0.969253 0.000002
vt 0.976206 0.298494
vt 0.969253 0.298497
vt 0.183080 0.927177
vt 0.190034 0.725342
vt 0.190034 0.927177
vt 0.176126 0.725342
vt 0.169172 0.928751
vt 0.169172 0.725343
vt 0.169172 0.725342
vt 0.159369 0.898660
vt 0.159369 0.725342
vt 0.455783 0.736121
vt 0.465585 0.725348
vt 0.465585 0.736121
vt 0.139762 0.898672
vt 0.149565 0.725342
vt 0.149565 0.898672
vt 0.485188 0.725351
vt 0.475388 0.736121
vt 0.475388 0.725348
vt 0.073516 0.898657
vt 0.084290 0.725342
vt 0.084290 0.898657
vt 0.095064 0.898528
vt 0.105838 0.725342
vt 0.105838 0.898529
vt 0.159369 0.725342
vt 0.149565 0.898660
vt 0.149565 0.725342
vt 0.465586 0.736121
vt 0.475388 0.725348
vt 0.475388 0.736121
vt 0.129959 0.898672
vt 0.139762 0.725342
vt 0.139762 0.898672
vt 0.494989 0.725351
vt 0.485188 0.736121
vt 0.485188 0.725348
vt 0.084290 0.898657
vt 0.095064 0.725342
vt 0.095064 0.898657
vt 0.116611 0.725342
vt 0.105837 0.898528
vt 0.105837 0.725342
vt 0.740997 0.340866
vt 0.965939 0.725318
vt 0.201853 0.725342
vt 0.979846 0.384482
vt 0.190034 0.725342
vt 0.183080 0.928750
vt 0.573243 0.725347
vt 0.958984 0.725318
vt 0.573243 0.725348
vt 0.976206 0.000000
vt 0.183080 0.725342
vt 0.176126 0.928750
vt 0.169172 0.898660
vt 0.455783 0.725348
vt 0.139762 0.725342
vt 0.485188 0.736124
vt 0.073516 0.725342
vt 0.095064 0.725342
vt 0.159369 0.898660
vt 0.465586 0.725348
vt 0.129959 0.725342
vt 0.494989 0.736124
vt 0.084290 0.725342
vt 0.116611 0.898529
vt 0.279984 0.984349
vt 0.273310 0.682915
vt 0.279984 0.682915
vt 0.296385 0.685884
vt 0.280471 0.384476
vt 0.296385 0.384476
vt 0.982881 0.301435
vt 0.976206 0.000000
vt 0.982881 0.000000
vt 0.296385 0.384481
vt 0.312298 0.685818
vt 0.296385 0.685823
vt 0.449114 0.741262
vt 0.442441 0.725348
vt 0.449114 0.725348
vt 0.455783 0.741262
vt 0.449114 0.725348
vt 0.455783 0.725348
vt 0.997107 0.298524
vt 0.992891 0.000000
vt 0.997107 0.000000
vt 0.958984 0.682980
vt 0.775082 0.384482
vt 0.958984 0.384482
vt 0.995784 0.981503
vt 0.991567 0.682978
vt 0.995784 0.682978
vt 0.775082 0.683035
vt 0.958971 0.981413
vt 0.775082 0.981468
vt 0.196988 0.725342
vt 0.201204 0.909245
vt 0.196988 0.909245
vt 0.375602 0.909250
vt 0.371390 0.725348
vt 0.375602 0.725348
vt 1.000000 0.682978
vt 0.995784 0.384454
vt 1.000000 0.384454
vt 0.260100 0.682974
vt 0.239728 0.384476
vt 0.260100 0.384476
vt 0.995784 0.682979
vt 0.991567 0.384454
vt 0.995784 0.384454
vt 0.260100 0.384482
vt 0.280471 0.682909
vt 0.260100 0.682915
vt 0.745213 0.361237
vt 0.740997 0.340866
vt 0.745213 0.340866
vt 0.740997 0.361238
vt 0.745210 0.381609
vt 0.740997 0.381609
vt 0.420161 0.739841
vt 0.409022 0.725348
vt 0.420161 0.725349
vt 0.296385 0.878122
vt 0.310876 0.685823
vt 0.310876 0.878122
vt 0.431301 0.739840
vt 0.420161 0.725348
vt 0.431301 0.725348
vt 0.028976 0.725346
vt 0.014488 0.917626
vt 0.014488 0.725342
vt 0.051255 0.917634
vt 0.040115 0.725343
vt 0.051255 0.725342
vt 0.073516 0.917638
vt 0.062386 0.725342
vt 0.073516 0.725346
vt 0.986520 0.682978
vt 0.979846 0.384454
vt 0.986520 0.384454
vt 0.347778 0.682974
vt 0.334568 0.384476
vt 0.347778 0.384476
vt 0.259612 0.981498
vt 0.252938 0.682974
vt 0.259612 0.682974
vt 0.942836 0.000004
vt 0.956044 0.298433
vt 0.942836 0.298437
vt 0.501662 0.725348
vt 0.508336 0.738557
vt 0.501662 0.738557
vt 0.548358 0.738557
vt 0.541689 0.725348
vt 0.548358 0.725348
vt 0.986241 0.981502
vt 0.979567 0.682978
vt 0.986241 0.682978
vt 0.360987 0.682974
vt 0.347778 0.384476
vt 0.360987 0.384476
vt 0.979567 0.981502
vt 0.972893 0.682978
vt 0.979567 0.682978
vt 0.956044 0.000004
vt 0.969253 0.298433
vt 0.956044 0.298437
vt 0.521683 0.738557
vt 0.515010 0.725348
vt 0.521683 0.725348
vt 0.541689 0.738557
vt 0.535021 0.725348
vt 0.541689 0.725348
vt 0.442441 0.739841
vt 0.431301 0.725348
vt 0.442441 0.725348
vt 0.280471 0.878182
vt 0.294962 0.685884
vt 0.294962 0.878182
vt 0.409022 0.739840
vt 0.397882 0.725348
vt 0.409022 0.725348
vt 0.014488 0.725346
vt 0.000000 0.917626
vt 0.000000 0.725342
vt 0.040115 0.917640
vt 0.028976 0.725342
vt 0.040115 0.725342
vt 0.062385 0.917640
vt 0.051255 0.725342
vt 0.062385 0.725342
vt 0.397882 0.744289
vt 0.386743 0.725348
vt 0.397882 0.725348
vt 0.201853 0.788897
vt 0.220793 0.384476
vt 0.220793 0.788897
vt 0.386743 0.744289
vt 0.375602 0.725348
vt 0.386743 0.725348
vt 0.239728 0.384482
vt 0.220793 0.788867
vt 0.220793 0.384476
vt 0.323437 0.788897
vt 0.312298 0.384476
vt 0.323437 0.384476
vt 0.334568 0.788897
vt 0.323437 0.384476
vt 0.334568 0.384476
vt 0.371390 0.028743
vt 0.000000 0.384441
vt 0.343047 0.000032
vt 0.986520 0.760627
vt 0.991567 0.384454
vt 0.991567 0.760627
vt 0.371390 0.000041
vt 0.740997 0.355733
vt 0.712790 0.384444
vt 0.992887 0.020400
vt 0.987844 0.367839
vt 0.987840 0.020400
vt 0.987840 0.384441
vt 0.982881 0.000000
vt 0.987840 0.000000
vt 0.365957 0.740188
vt 0.361326 0.751193
vt 0.360987 0.740180
vt 0.367347 0.760593
vt 0.362377 0.760584
vt 0.992891 0.000000
vt 0.987841 0.009388
vt 0.987844 0.000000
vt 0.992888 0.009388
vt 0.362377 0.384476
vt 0.123285 0.994402
vt 0.116611 0.725342
vt 0.123285 0.725342
vt 0.273310 0.951952
vt 0.260100 0.682915
vt 0.273310 0.682915
vt 0.972613 0.994378
vt 0.965939 0.725318
vt 0.972613 0.725318
vt 0.334568 0.682978
vt 0.347777 0.951952
vt 0.334568 0.951956
vt 0.515010 0.738557
vt 0.508336 0.725348
vt 0.515010 0.725348
vt 0.528352 0.738557
vt 0.521683 0.725348
vt 0.528352 0.725348
vt 0.129959 0.994402
vt 0.123285 0.725342
vt 0.129959 0.725342
vt 0.252938 0.952011
vt 0.239728 0.682974
vt 0.252938 0.682974
vt 0.965659 0.994378
vt 0.958984 0.725318
vt 0.965659 0.725318
vt 0.347778 0.682978
vt 0.360986 0.951952
vt 0.347778 0.951956
vt 0.501662 0.738557
vt 0.494989 0.725348
vt 0.501662 0.725348
vt 0.535021 0.738557
vt 0.528352 0.725348
vt 0.535021 0.725348
vt 0.273310 0.984349
vt 0.280471 0.685884
vt 0.976206 0.301435
vt 0.312298 0.384476
vt 0.442441 0.741262
vt 0.449114 0.741262
vt 0.992891 0.298524
vt 0.775082 0.682980
vt 0.991567 0.981503
vt 0.958971 0.682980
vt 0.201204 0.725342
vt 0.371390 0.909250
vt 0.995784 0.682978
vt 0.239728 0.682974
vt 0.991567 0.682979
vt 0.280471 0.384476
vt 0.740997 0.361237
vt 0.745210 0.361238
vt 0.409022 0.739839
vt 0.296385 0.685823
vt 0.420161 0.739840
vt 0.028976 0.917631
vt 0.040115 0.917635
vt 0.062386 0.917634
vt 0.979846 0.682978
vt 0.334568 0.682974
vt 0.252938 0.981498
vt 0.956044 0.000000
vt 0.508336 0.725348
vt 0.541689 0.738557
vt 0.979567 0.981502
vt 0.347778 0.682974
vt 0.972893 0.981502
vt 0.969253 0.000000
vt 0.515010 0.738557
vt 0.535021 0.738557
vt 0.431301 0.739840
vt 0.280471 0.685884
vt 0.397882 0.739840
vt 0.014488 0.917630
vt 0.028976 0.917640
vt 0.051255 0.917641
vt 0.386743 0.744289
vt 0.201853 0.384476
vt 0.375602 0.744289
vt 0.239728 0.788873
vt 0.312298 0.788897
vt 0.323437 0.788898
vt 0.371389 0.384476
vt 0.000000 0.000000
vt 0.353893 0.002218
vt 0.363088 0.008442
vt 0.369232 0.017756
vt 0.986520 0.384454
vt 0.740997 0.000000
vt 0.738850 0.366719
vt 0.723584 0.382257
vt 0.732735 0.376033
vt 0.371390 0.384482
vt 0.992891 0.367839
vt 0.982881 0.384441
vt 0.366296 0.751201
vt 0.367347 0.384484
vt 0.116611 0.994402
vt 0.260100 0.951952
vt 0.965939 0.994378
vt 0.347777 0.682974
vt 0.508336 0.738557
vt 0.521683 0.738557
vt 0.123285 0.994402
vt 0.239728 0.952011
vt 0.958984 0.994378
vt 0.360986 0.682974
vt 0.494989 0.738557
vt 0.528352 0.738557
vn -1.0000 0.0000 0.0000
vn 0.0000 0.0000 -1.0000
vn 1.0000 0.0000 0.0000
vn 0.0000 0.0000 1.0000
vn 0.0000 -1.0000 0.0000
vn 0.0000 0.9788 0.2050
vn 0.0000 1.0000 0.0000
vn -1.0000 0.0087 0.0000
vn 1.0000 -0.0087 0.0000
vn -0.0087 -1.0000 0.0000
vn 0.0087 1.0000 0.0000
vn -0.0000 0.9800 0.1991
vn 0.0000 -0.9800 -0.1991
vn -0.9952 -0.0195 0.0961
vn 0.0000 0.1991 -0.9800
vn -0.0980 -0.1981 0.9753
vn -0.3827 -0.1839 0.9054
vn -0.7071 -0.1407 0.6930
vn -0.9239 -0.0762 0.3750
vn 0.0000 -0.1991 0.9800
s off
f 98/1/1 99/2/1 97/3/1
f 100/4/2 103/5/2 99/6/2
f 103/7/3 102/8/3 101/9/3
f 102/10/4 97/11/4 101/12/4
f 103/13/5 97/14/5 99/15/5
f 100/16/6 102/17/6 104/18/6
f 106/19/1 107/20/1 105/21/1
f 108/22/2 111/23/2 107/24/2
f 111/25/3 110/26/3 109/27/3
f 110/28/4 105/29/4 109/30/4
f 111/31/5 105/32/5 107/33/5
f 108/34/6 110/35/6 112/36/6
f 114/37/1 115/38/1 113/39/1
f 116/40/2 119/41/2 115/42/2
f 120/43/3 117/44/3 119/45/3
f 118/46/4 113/47/4 117/48/4
f 119/49/5 113/50/5 115/51/5
f 116/52/7 118/53/7 120/54/7
f 122/55/1 123/56/1 121/57/1
f 124/58/2 127/59/2 123/60/2
f 128/61/3 125/62/3 127/63/3
f 126/64/4 121/65/4 125/66/4
f 127/67/5 121/68/5 123/69/5
f 124/70/7 126/71/7 128/72/7
f 98/1/1 100/73/1 99/2/1
f 100/4/2 104/74/2 103/5/2
f 103/7/3 104/75/3 102/8/3
f 102/10/4 98/76/4 97/11/4
f 103/13/5 101/77/5 97/14/5
f 100/16/6 98/78/6 102/17/6
f 106/19/1 108/79/1 107/20/1
f 108/22/2 112/80/2 111/23/2
f 111/25/3 112/81/3 110/26/3
f 110/28/4 106/82/4 105/29/4
f 111/31/5 109/83/5 105/32/5
f 108/34/6 106/84/6 110/35/6
f 114/37/1 116/85/1 115/38/1
f 116/40/2 120/86/2 119/41/2
f 120/43/3 118/87/3 117/44/3
f 118/46/4 114/88/4 113/47/4
f 119/49/5 117/89/5 113/50/5
f 116/52/7 114/90/7 118/53/7
f 122/55/1 124/91/1 123/56/1
f 124/58/2 128/92/2 127/59/2
f 128/61/3 126/93/3 125/62/3
f 126/64/4 122/94/4 121/65/4
f 127/67/5 125/95/5 121/68/5
f 124/70/7 122/96/7 126/71/7
s 1
f 2/97/1 3/98/1 1/99/1
f 4/100/2 7/101/2 3/102/2
f 8/103/3 5/104/3 7/105/3
f 6/106/4 1/107/4 5/108/4
f 7/109/5 1/110/5 3/111/5
f 4/112/7 6/113/7 8/114/7
f 10/115/1 11/116/1 9/117/1
f 12/118/2 15/119/2 11/120/2
f 16/121/3 13/122/3 15/123/3
f 14/124/4 9/125/4 13/126/4
f 15/127/5 9/128/5 11/129/5
f 12/130/7 14/131/7 16/132/7
f 18/133/1 19/134/1 17/135/1
f 20/136/2 23/137/2 19/138/2
f 24/139/3 21/140/3 23/141/3
f 22/142/4 17/143/4 21/144/4
f 23/145/5 17/146/5 19/147/5
f 20/148/7 22/149/7 24/150/7
f 26/151/8 27/152/8 25/153/8
f 28/154/2 31/155/2 27/156/2
f 32/157/9 29/158/9 31/159/9
f 30/160/4 25/161/4 29/162/4
f 31/163/10 25/164/10 27/165/10
f 28/166/11 30/167/11 32/168/11
f 34/169/1 35/170/1 33/171/1
f 36/172/2 39/173/2 35/174/2
f 40/175/3 37/176/3 39/177/3
f 38/178/4 33/179/4 37/180/4
f 39/181/5 33/182/5 35/183/5
f 36/184/7 38/185/7 40/186/7
f 42/187/1 43/188/1 41/189/1
f 44/190/2 47/191/2 43/192/2
f 48/193/3 45/194/3 47/195/3
f 46/196/4 41/197/4 45/198/4
f 47/199/5 41/200/5 43/201/5
f 44/202/7 46/203/7 48/204/7
f 50/205/1 51/206/1 49/207/1
f 52/208/2 55/209/2 51/210/2
f 56/211/3 53/212/3 55/213/3
f 54/214/4 49/215/4 53/216/4
f 55/217/5 49/218/5 51/219/5
f 52/220/7 54/221/7 56/222/7
f 58/223/1 59/224/1 57/225/1
f 60/226/2 63/227/2 59/228/2
f 64/229/3 61/230/3 63/231/3
f 62/232/4 57/233/4 61/234/4
f 63/235/5 57/236/5 59/237/5
f 60/238/7 62/239/7 64/240/7
f 72/241/12 68/242/12 71/243/12
f 69/244/3 68/245/3 67/246/3
f 70/247/13 76/248/13 77/249/13
f 71/250/14 66/251/1 77/252/14
f 66/253/15 68/254/15 70/255/15
f 72/256/16 78/257/17 76/258/16
f 78/257/17 74/259/18 79/260/18
f 74/261/18 80/262/19 79/263/18
f 73/264/19 77/252/14 80/262/19
f 69/265/20 72/256/16 76/258/16
f 82/266/1 83/267/1 81/268/1
f 84/269/2 87/270/2 83/271/2
f 88/272/3 85/273/3 87/274/3
f 86/275/4 81/276/4 85/277/4
f 87/278/5 81/279/5 83/280/5
f 84/281/7 86/282/7 88/283/7
f 90/284/1 91/285/1 89/286/1
f 92/287/2 95/288/2 91/289/2
f 96/290/3 93/291/3 95/292/3
f 94/293/4 89/294/4 93/295/4
f 95/296/5 89/297/5 91/298/5
f 92/299/7 94/300/7 96/301/7
f 2/97/1 4/302/1 3/98/1
f 4/100/2 8/303/2 7/101/2
f 8/103/3 6/304/3 5/104/3
f 6/106/4 2/305/4 1/107/4
f 7/109/5 5/306/5 1/110/5
f 4/112/7 2/307/7 6/113/7
f 10/115/1 12/308/1 11/116/1
f 12/118/2 16/309/2 15/119/2
f 16/121/3 14/310/3 13/122/3
f 14/124/4 10/311/4 9/125/4
f 15/127/5 13/312/5 9/128/5
f 12/130/7 10/313/7 14/131/7
f 18/133/1 20/314/1 19/134/1
f 20/136/2 24/315/2 23/137/2
f 24/139/3 22/316/3 21/140/3
f 22/142/4 18/317/4 17/143/4
f 23/145/5 21/318/5 17/146/5
f 20/148/7 18/319/7 22/149/7
f 26/151/8 28/320/8 27/152/8
f 28/154/2 32/321/2 31/155/2
f 32/157/9 30/322/9 29/158/9
f 30/160/4 26/323/4 25/161/4
f 31/163/10 29/324/10 25/164/10
f 28/166/11 26/325/11 30/167/11
f 34/169/1 36/326/1 35/170/1
f 36/172/2 40/327/2 39/173/2
f 40/175/3 38/328/3 37/176/3
f 38/178/4 34/329/4 33/179/4
f 39/181/5 37/330/5 33/182/5
f 36/184/7 34/331/7 38/185/7
f 42/187/1 44/332/1 43/188/1
f 44/190/2 48/333/2 47/191/2
f 48/193/3 46/334/3 45/194/3
f 46/196/4 42/335/4 41/197/4
f 47/199/5 45/336/5 41/200/5
f 44/202/7 42/337/7 46/203/7
f 50/205/1 52/338/1 51/206/1
f 52/208/2 56/339/2 55/209/2
f 56/211/3 54/340/3 53/212/3
f 54/214/4 50/341/4 49/215/4
f 55/217/5 53/342/5 49/218/5
f 52/220/7 50/343/7 54/221/7
f 58/223/1 60/344/1 59/224/1
f 60/226/2 64/345/2 63/227/2
f 64/229/3 62/346/3 61/230/3
f 62/232/4 58/347/4 57/233/4
f 63/235/5 61/348/5 57/236/5
f 60/238/7 58/349/7 62/239/7
f 72/241/12 67/350/12 68/242/12
f 68/242/12 65/351/12 71/243/12
f 71/243/12 73/352/12 72/241/12
f 73/352/12 74/353/12 72/241/12
f 74/353/12 75/354/12 72/241/12
f 69/244/3 70/355/3 68/245/3
f 69/356/13 76/248/13 70/247/13
f 76/248/13 78/357/13 80/358/13
f 78/357/13 79/359/13 80/358/13
f 80/358/13 77/249/13 76/248/13
f 77/249/13 66/360/13 70/247/13
f 71/250/14 65/361/1 66/251/1
f 66/253/15 65/362/15 68/254/15
f 72/256/16 75/363/17 78/257/17
f 78/257/17 75/363/17 74/259/18
f 74/261/18 73/264/19 80/262/19
f 73/264/19 71/250/14 77/252/14
f 69/265/20 67/364/20 72/256/16
f 82/266/1 84/365/1 83/267/1
f 84/269/2 88/366/2 87/270/2
f 88/272/3 86/367/3 85/273/3
f 86/275/4 82/368/4 81/276/4
f 87/278/5 85/369/5 81/279/5
f 84/281/7 82/370/7 86/282/7
f 90/284/1 92/371/1 91/285/1
f 92/287/2 96/372/2 95/288/2
f 96/290/3 94/373/3 93/291/3
f 94/293/4 90/374/4 89/294/4
f 95/296/5 93/375/5 89/297/5
f 92/299/7 90/376/7 94/300/7
