# Blender v3.4.1 OBJ File: 'environment.blend'
# www.blender.org
o Storefront_1_Cover_Plane.011
v -0.867748 0.940862 0.018502
v 0.895032 0.940862 0.018502
v -0.867748 0.469864 0.722644
v 0.895032 0.469864 0.722644
v -0.867748 0.582303 0.720542
v -0.867748 0.803223 0.546507
v -0.867748 0.653201 0.706284
v -0.867748 0.720081 0.668203
v -0.867748 0.772762 0.612097
v 0.895032 0.803223 0.546507
v 0.895032 0.582303 0.720542
v 0.895032 0.772762 0.612097
v 0.895032 0.720081 0.668203
v 0.895032 0.653201 0.706284
v 0.381744 -0.164105 0.596304
v 0.983943 -0.164105 0.596304
v 0.381744 0.419282 0.596304
v 0.983943 0.419282 0.596304
v -0.969845 -0.164105 0.596304
v -0.367646 -0.164105 0.596304
v -0.969845 0.419282 0.596304
v -0.367646 0.419282 0.596304
v -0.867748 0.940862 0.018502
v 0.895032 0.940862 0.018502
v -0.867748 0.469864 0.722644
v 0.895032 0.469864 0.722644
v -0.867748 0.582303 0.720542
v -0.867748 0.803223 0.546507
v -0.867748 0.653201 0.706284
v -0.867748 0.720081 0.668203
v -0.867748 0.772762 0.612097
v 0.895032 0.803223 0.546507
v 0.895032 0.582303 0.720542
v 0.895032 0.772762 0.612097
v 0.895032 0.720081 0.668203
v 0.895032 0.653201 0.706284
vt 0.861937 0.308179
vt 1.000000 0.616358
vt 0.861936 0.616358
vt 0.861937 0.000000
vt 1.000000 0.308179
vt 0.861936 0.308179
vt 1.000000 0.308179
vt 1.000000 0.000000
vt 0.834373 0.000000
vt 0.861937 0.902113
vt 0.834373 0.902113
vt 0.811125 0.000000
vt 0.811125 0.902113
vt 0.778018 0.000000
vt 0.778018 0.902113
vt 0.740093 0.000000
vt 0.740093 0.902113
vt 0.703123 0.000000
vt 0.703123 0.902113
vt 0.430968 0.000000
vt 0.430968 0.000000
vt 0.403405 0.902113
vt 0.403405 0.000000
vt 0.380157 0.902113
vt 0.347050 0.902113
vt 0.380157 0.000000
vt 0.309125 0.902113
vt 0.347050 0.000000
vt 0.272155 0.902113
vt 0.309125 0.000000
vt 0.000000 0.902113
vt 0.272155 0.000000
vt 0.861937 0.000000
vt 0.430968 0.902113
vt 0.430968 0.902113
vt 0.000000 0.000000
vn 0.0000 0.0000 1.0000
vn 0.0000 0.1084 0.9941
vn 0.0000 0.0187 0.9998
vn 0.0000 0.3504 0.9366
vn 0.0000 0.6188 0.7855
vn 0.0000 0.8285 0.5600
vn 0.0000 0.9411 0.3381
vn 0.0000 0.9677 0.2522
vn 0.0000 -0.0187 -0.9998
vn 0.0000 -0.1084 -0.9941
vn 0.0000 -0.3504 -0.9366
vn 0.0000 -0.6188 -0.7855
vn 0.0000 -0.8285 -0.5600
vn 0.0000 -0.9411 -0.3381
vn 0.0000 -0.9677 -0.2522
s off
f 16/1/1 17/2/1 15/3/1
f 20/4/1 21/5/1 19/6/1
f 16/1/1 18/7/1 17/2/1
f 20/4/1 22/8/1 21/5/1
s 1
f 5/9/2 4/10/3 11/11/2
f 11/11/2 7/12/4 5/9/2
f 14/13/4 8/14/5 7/12/4
f 13/15/5 9/16/6 8/14/5
f 12/17/6 6/18/7 9/16/6
f 10/19/7 1/20/8 6/18/7
f 26/21/9 27/22/10 33/23/10
f 29/24/11 33/23/10 27/22/10
f 30/25/12 36/26/11 29/24/11
f 31/27/13 35/28/12 30/25/12
f 28/29/14 34/30/13 31/27/13
f 23/31/15 32/32/14 28/29/14
f 5/9/2 3/33/3 4/10/3
f 11/11/2 14/13/4 7/12/4
f 14/13/4 13/15/5 8/14/5
f 13/15/5 12/17/6 9/16/6
f 12/17/6 10/19/7 6/18/7
f 10/19/7 2/34/8 1/20/8
f 26/21/9 25/35/9 27/22/10
f 29/24/11 36/26/11 33/23/10
f 30/25/12 35/28/12 36/26/11
f 31/27/13 34/30/13 35/28/12
f 28/29/14 32/32/14 34/30/13
f 23/31/15 24/36/15 32/32/14
