# Blender v3.4.1 OBJ File: 'environment.blend'
# www.blender.org
o Plane_Plane.024
v -1.156711 1.024945 -1.060536
v 1.013287 1.024945 -1.060536
v -1.156711 0.646785 1.000579
v -1.096755 0.635216 1.060535
v -1.096755 0.707833 1.001931
v -1.152147 0.642190 1.023316
v -1.139151 0.638378 1.042695
v -1.152147 0.669980 1.000889
v -1.146639 0.665858 1.024212
v -1.136101 0.661551 1.039966
v -1.131371 0.674952 1.035480
v -1.096755 0.659291 1.056282
v -1.096755 0.681546 1.043651
v -1.119699 0.635929 1.055764
v -1.120274 0.660770 1.050577
v -1.119081 0.678882 1.040350
v -1.119699 0.703018 1.001620
v -1.139151 0.689726 1.001255
v -1.096755 0.698591 1.024565
v -1.120274 0.692703 1.024806
v -1.136101 0.682166 1.023329
v 0.953330 0.635216 1.060535
v 1.013287 0.646785 1.000579
v 0.953330 0.707833 1.001931
v 0.976275 0.635929 1.055764
v 0.995726 0.638378 1.042695
v 0.953330 0.659291 1.056282
v 0.976850 0.660770 1.050577
v 0.992677 0.661551 1.039966
v 0.987946 0.674952 1.035480
v 1.008723 0.669980 1.000889
v 0.995726 0.689726 1.001255
v 1.008723 0.642190 1.023316
v 1.003215 0.665858 1.024212
v 0.992677 0.682166 1.023329
v 0.953330 0.698591 1.024565
v 0.953330 0.681546 1.043651
v 0.976275 0.703018 1.001620
v 0.976850 0.692703 1.024806
v 0.975656 0.678882 1.040350
v -1.156711 1.092034 -1.060536
v -1.096755 1.153374 -1.060536
v -1.152147 1.115508 -1.060536
v -1.139151 1.135408 -1.060536
v -1.119699 1.148705 -1.060536
v 0.953330 1.153374 -1.060536
v 1.013287 1.092034 -1.060536
v 0.976275 1.148705 -1.060536
v 0.995726 1.135408 -1.060536
v 1.008723 1.115508 -1.060536
v -1.096755 0.566743 1.060536
v -1.156711 0.579696 1.000579
v -1.119699 0.567729 1.055972
v -1.139151 0.570537 1.042975
v -1.152147 0.574739 1.023523
v 1.013287 0.579696 1.000579
v 0.953330 0.566743 1.060536
v 1.008723 0.574739 1.023523
v 0.995726 0.570537 1.042975
v 0.976275 0.567729 1.055972
vt 0.027630 0.000000
vt 0.972370 0.000000
vt 0.972370 0.000000
vt 1.000000 0.028267
vt 1.000000 1.000000
vt 1.000000 1.000000
vt 0.972370 0.027630
vt 0.027630 1.000000
vt 0.027630 0.027630
vt 0.000000 0.028267
vt 0.000000 0.017125
vt 0.000000 0.028121
vt 0.000000 0.017548
vt 0.000000 0.000000
vt 0.000000 0.015494
vt 0.000000 0.026173
vt 0.003893 0.003106
vt 0.027630 0.000000
vt 0.017056 0.000000
vt 0.027630 0.000000
vt 0.016791 0.000000
vt 0.000000 0.000000
vt 0.017056 0.027301
vt 0.027630 0.016535
vt 0.016791 0.015854
vt 0.017341 0.000000
vt 0.982944 0.000000
vt 0.972370 0.000000
vt 1.000000 0.000000
vt 0.983209 0.000000
vt 0.972370 0.000000
vt 0.996107 0.003106
vt 0.982659 0.000000
vt 1.000000 0.017125
vt 1.000000 0.017548
vt 1.000000 0.028121
vt 1.000000 0.015494
vt 1.000000 0.000000
vt 0.972370 0.016535
vt 0.982944 0.027301
vt 0.983209 0.015854
vt 1.000000 0.026172
vt 0.000000 1.000000
vt 0.000000 1.000000
vt 0.000000 0.998252
vt 0.017056 0.999546
vt 1.000000 1.000000
vt 1.000000 0.998252
vt 0.982944 0.999546
vt 0.982944 0.000000
vt 1.000000 0.000000
vt 1.000000 0.017450
vt 1.000000 0.028267
vt 0.000000 0.028267
vt 0.000000 0.017450
vt 0.000000 0.000000
vt 0.017056 0.000000
vt 0.000000 1.000000
vt 0.027630 0.000000
vt 0.972370 1.000000
vn -0.0997 0.0862 0.9913
vn 0.0967 0.0000 0.9953
vn 0.0997 0.0862 0.9913
vn 0.9879 0.0976 0.1209
vn 1.0000 0.0000 0.0000
vn 0.9938 0.1087 0.0235
vn 0.1001 0.9508 0.2930
vn -0.0967 0.9729 0.2102
vn -0.1001 0.9508 0.2930
vn -0.9879 0.0976 0.1209
vn -0.8367 0.3440 0.4262
vn -0.9150 0.3633 0.1756
vn -0.9150 0.0953 0.3920
vn -0.6504 0.2944 0.7003
vn -0.6504 0.6223 0.4356
vn -0.6985 0.6771 0.2316
vn -0.5534 0.5231 0.6482
vn -0.0977 0.3337 0.9376
vn -0.3794 0.0868 0.9212
vn -0.0909 0.6254 0.7750
vn -0.3619 0.3275 0.8728
vn -0.6985 0.0847 0.7105
vn -0.3796 0.8825 0.2778
vn -0.0977 0.8460 0.5242
vn -0.3619 0.7840 0.5044
vn -0.3144 0.5962 0.7387
vn 0.3794 0.0868 0.9212
vn 0.0977 0.3337 0.9376
vn 0.6985 0.0847 0.7105
vn 0.3619 0.3275 0.8728
vn 0.0909 0.6254 0.7750
vn 0.5534 0.5231 0.6482
vn 0.3144 0.5962 0.7387
vn 0.8367 0.3440 0.4262
vn 0.9150 0.0953 0.3920
vn 0.9150 0.3633 0.1756
vn 0.6504 0.6223 0.4356
vn 0.6504 0.2944 0.7003
vn 0.0977 0.8460 0.5242
vn 0.3796 0.8825 0.2778
vn 0.3619 0.7840 0.5044
vn 0.6985 0.6771 0.2316
vn -0.9938 0.1087 0.0235
vn -0.9141 0.3963 0.0857
vn -0.6934 0.7043 0.1522
vn -0.3730 0.9069 0.1960
vn 0.9141 0.3963 0.0857
vn 0.6934 0.7043 0.1522
vn 0.3730 0.9069 0.1960
vn 0.3736 0.0016 0.9276
vn 0.6931 0.0026 0.7208
vn 0.9138 0.0015 0.4061
vn 0.9938 0.0003 0.1114
vn -0.9938 0.0003 0.1114
vn -0.9138 0.0015 0.4061
vn -0.6931 0.0026 0.7208
vn -0.3736 0.0016 0.9276
vn -1.0000 0.0000 0.0000
vn -0.0967 0.0000 0.9953
vn 0.0967 0.9729 0.2102
s 1
f 4/1/1 57/2/2 22/3/3
f 23/4/4 2/5/5 47/6/6
f 24/7/7 42/8/8 5/9/9
f 3/10/10 9/11/11 8/12/12
f 6/13/13 10/14/14 9/11/11
f 8/12/12 21/15/15 18/16/16
f 9/11/11 11/17/17 21/15/15
f 12/18/18 14/19/19 4/1/1
f 13/20/20 15/21/21 12/18/18
f 15/21/21 7/22/22 14/19/19
f 15/21/21 11/17/17 10/14/14
f 17/23/23 19/24/24 5/9/9
f 18/16/16 20/25/25 17/23/23
f 20/25/25 13/20/20 19/24/24
f 20/25/25 11/17/17 16/26/26
f 25/27/27 27/28/28 22/3/3
f 26/29/29 28/30/30 25/27/27
f 28/30/30 37/31/31 27/28/28
f 28/30/30 30/32/32 40/33/33
f 23/4/4 34/34/34 33/35/35
f 31/36/36 35/37/37 34/34/34
f 33/35/35 29/38/38 26/29/29
f 34/34/34 30/32/32 29/38/38
f 36/39/39 38/40/40 24/7/7
f 37/31/31 39/41/41 36/39/39
f 39/41/41 32/42/42 38/40/40
f 39/41/41 30/32/32 35/37/37
f 41/43/43 8/12/12 43/44/44
f 43/44/44 18/16/16 44/45/45
f 44/45/45 17/23/23 45/46/46
f 45/46/46 5/9/9 42/8/8
f 22/3/3 12/18/18 4/1/1
f 27/28/28 13/20/20 12/18/18
f 37/31/31 19/24/24 13/20/20
f 36/39/39 5/9/9 19/24/24
f 47/6/6 31/36/36 23/4/4
f 50/47/47 32/42/42 31/36/36
f 49/48/48 38/40/40 32/42/42
f 48/49/49 24/7/7 38/40/40
f 22/3/3 60/50/50 25/27/27
f 25/27/27 59/51/51 26/29/29
f 26/29/29 58/52/52 33/35/35
f 33/35/35 56/53/53 23/4/4
f 52/54/54 6/13/13 3/10/10
f 55/55/55 7/22/22 6/13/13
f 54/56/56 14/19/19 7/22/22
f 53/57/57 4/1/1 14/19/19
f 3/10/10 1/58/58 52/54/54
f 4/1/1 51/59/59 57/2/2
f 23/4/4 56/53/53 2/5/5
f 24/7/7 46/60/60 42/8/8
f 3/10/10 6/13/13 9/11/11
f 6/13/13 7/22/22 10/14/14
f 8/12/12 9/11/11 21/15/15
f 9/11/11 10/14/14 11/17/17
f 12/18/18 15/21/21 14/19/19
f 13/20/20 16/26/26 15/21/21
f 15/21/21 10/14/14 7/22/22
f 15/21/21 16/26/26 11/17/17
f 17/23/23 20/25/25 19/24/24
f 18/16/16 21/15/15 20/25/25
f 20/25/25 16/26/26 13/20/20
f 20/25/25 21/15/15 11/17/17
f 25/27/27 28/30/30 27/28/28
f 26/29/29 29/38/38 28/30/30
f 28/30/30 40/33/33 37/31/31
f 28/30/30 29/38/38 30/32/32
f 23/4/4 31/36/36 34/34/34
f 31/36/36 32/42/42 35/37/37
f 33/35/35 34/34/34 29/38/38
f 34/34/34 35/37/37 30/32/32
f 36/39/39 39/41/41 38/40/40
f 37/31/31 40/33/33 39/41/41
f 39/41/41 35/37/37 32/42/42
f 39/41/41 40/33/33 30/32/32
f 41/43/43 3/10/10 8/12/12
f 43/44/44 8/12/12 18/16/16
f 44/45/45 18/16/16 17/23/23
f 45/46/46 17/23/23 5/9/9
f 22/3/3 27/28/28 12/18/18
f 27/28/28 37/31/31 13/20/20
f 37/31/31 36/39/39 19/24/24
f 36/39/39 24/7/7 5/9/9
f 47/6/6 50/47/47 31/36/36
f 50/47/47 49/48/48 32/42/42
f 49/48/48 48/49/49 38/40/40
f 48/49/49 46/60/60 24/7/7
f 22/3/3 57/2/2 60/50/50
f 25/27/27 60/50/50 59/51/51
f 26/29/29 59/51/51 58/52/52
f 33/35/35 58/52/52 56/53/53
f 52/54/54 55/55/55 6/13/13
f 55/55/55 54/56/56 7/22/22
f 54/56/56 53/57/57 14/19/19
f 53/57/57 51/59/59 4/1/1
f 3/10/10 41/43/43 1/58/58
