# Blender v3.4.1 OBJ File: 'environment.blend'
# www.blender.org
o Storefront_4_Cube.045
v -1.492550 -0.795130 0.259228
v -1.492550 0.676845 0.259228
v -1.492550 -0.795130 0.179469
v -1.492550 0.676845 0.179469
v -1.411679 -0.795130 0.259228
v -1.411679 0.676845 0.259228
v -1.411679 -0.795130 0.179469
v -1.411679 0.676845 0.179469
v -1.458568 -0.779928 0.223482
v -1.458568 0.658980 0.223482
v -1.458568 -0.779928 -0.780986
v -1.458568 0.835619 -0.780986
v -0.991117 -0.779928 0.223482
v -0.991117 0.658980 0.223482
v -0.991117 -0.779928 -0.780986
v -0.991117 0.835619 -0.780986
v -1.399562 -0.101061 0.300472
v -1.399562 -0.078508 0.300472
v -1.399562 -0.101061 0.157389
v -1.399562 -0.078508 0.157389
v -1.020513 -0.101061 0.300472
v -1.020513 -0.078508 0.300472
v -1.020513 -0.101061 0.157389
v -1.020513 -0.078508 0.157389
v -1.010270 -0.779341 0.323492
v -1.010270 0.674477 0.323492
v -1.010270 -0.779341 -0.759575
v -1.010270 0.674477 -0.759575
v -0.960094 -0.779341 0.323492
v -0.960094 0.674477 0.323492
v -0.960094 -0.779341 -0.759575
v -0.960094 0.674477 -0.759575
v -1.000000 -0.776649 0.143171
v -1.000000 -0.168017 0.143171
v -1.000000 -0.776649 -0.143171
v -1.000000 -0.168017 -0.143171
v 1.000000 -0.776649 0.143171
v 1.000000 -0.168017 0.143171
v 1.000000 -0.776649 -0.143171
v 1.000000 -0.168017 -0.143171
v -1.000000 -0.209976 0.200000
v -1.000000 -0.146180 0.200000
v -1.000000 -0.209976 -0.286129
v -1.000000 -0.146180 -0.286129
v 1.000000 -0.209976 0.200000
v 1.000000 -0.146180 0.200000
v 1.000000 -0.209976 -0.286129
v 1.000000 -0.146180 -0.286129
v 0.962158 -0.779341 0.323492
v 0.962158 0.674477 0.323492
v 0.962158 -0.779341 -0.759575
v 0.962158 0.674477 -0.759575
v 1.012334 -0.779341 0.323492
v 1.012334 0.674477 0.323492
v 1.012334 -0.779341 -0.759575
v 1.012334 0.674477 -0.759575
v 1.507930 -0.795130 0.259228
v 1.507930 0.676845 0.259228
v 1.507930 -0.795130 0.179469
v 1.507930 0.676845 0.179469
v 1.427059 -0.795130 0.259228
v 1.427059 0.676845 0.259228
v 1.427059 -0.795130 0.179469
v 1.427059 0.676845 0.179469
v 1.473949 -0.779928 0.223482
v 1.473949 0.658980 0.223482
v 1.473949 -0.779928 -0.780986
v 1.473949 0.835619 -0.780986
v 1.006498 -0.779928 0.223482
v 1.006498 0.658980 0.223482
v 1.006498 -0.779928 -0.780986
v 1.006498 0.835619 -0.780986
v 1.414943 -0.101061 0.300472
v 1.414943 -0.078508 0.300472
v 1.414943 -0.101061 0.157388
v 1.414943 -0.078508 0.157388
v 1.035894 -0.101061 0.300472
v 1.035894 -0.078508 0.300472
v 1.035894 -0.101061 0.157388
v 1.035894 -0.078508 0.157388
v -1.516380 0.620722 0.378991
v -1.516380 0.675506 0.387790
v -1.516380 0.818183 -0.850451
v -1.516380 0.872967 -0.841652
v 1.516380 0.620722 0.378991
v 1.516380 0.675506 0.387790
v 1.516380 0.818183 -0.850451
v 1.516380 0.872967 -0.841652
vt 0.532944 0.999637
vt 0.519994 0.760646
vt 0.532944 0.760646
vt 0.390007 0.967411
vt 0.376876 0.728445
vt 0.390007 0.728445
vt 0.519994 0.999637
vt 0.507045 0.760646
vt 0.519994 0.760646
vt 0.164922 0.967411
vt 0.151792 0.728445
vt 0.164922 0.728445
vt 0.727105 0.502086
vt 0.740053 0.515216
vt 0.727105 0.515216
vt 0.740053 0.488955
vt 0.752989 0.502086
vt 0.740053 0.502086
vt 0.564019 0.495924
vt 0.400933 0.262302
vt 0.564019 0.262302
vt 0.980729 0.524549
vt 0.904833 0.262274
vt 0.980729 0.262274
vt 0.564019 0.262302
vt 0.727105 0.028679
vt 0.727105 0.262302
vt 0.151792 0.962043
vt 0.075896 0.728445
vt 0.151792 0.728445
vt 0.300981 0.891514
vt 0.376876 0.728445
vt 0.376876 0.891514
vt 0.803001 0.488955
vt 0.878897 0.324722
vt 0.878897 0.488955
vt 0.760313 0.512186
vt 0.763975 0.488955
vt 0.763975 0.512186
vt 0.724677 0.822189
vt 0.728338 0.760646
vt 0.728338 0.822189
vt 0.763974 0.512186
vt 0.767636 0.488955
vt 0.767636 0.512186
vt 0.728338 0.822189
vt 0.732000 0.760646
vt 0.732000 0.822189
vt 0.611091 0.760646
vt 0.634320 0.822189
vt 0.611091 0.822189
vt 0.657548 0.760646
vt 0.680755 0.822189
vt 0.657548 0.822189
vt 0.752628 0.760646
vt 0.576780 0.524603
vt 0.752628 0.524603
vt 0.400933 0.964463
vt 0.392786 0.728445
vt 0.400933 0.728445
vt 0.576780 0.760646
vt 0.400933 0.524603
vt 0.576780 0.524603
vt 0.575137 0.996665
vt 0.566990 0.760646
vt 0.575137 0.760646
vt 0.878897 0.500551
vt 0.887043 0.324722
vt 0.887043 0.500551
vt 0.895190 0.500383
vt 0.903337 0.324722
vt 0.903337 0.500383
vt 0.493914 0.859464
vt 0.447423 0.760646
vt 0.493914 0.760646
vt 0.752628 0.849325
vt 0.851436 0.524603
vt 0.851436 0.849325
vt 0.447423 0.859464
vt 0.400933 0.760646
vt 0.447423 0.760646
vt 0.727105 0.324722
vt 0.825913 0.000000
vt 0.825913 0.324722
vt 0.178599 0.492402
vt 0.225085 0.817123
vt 0.178599 0.817123
vt 0.930281 0.524603
vt 0.976722 0.849325
vt 0.930281 0.849325
vt 0.703961 0.839575
vt 0.714319 0.760646
vt 0.714319 0.839575
vt 0.989643 0.649443
vt 1.000000 0.324722
vt 1.000000 0.649443
vt 0.714319 0.839575
vt 0.724677 0.760646
vt 0.724677 0.839575
vt 0.989643 0.324722
vt 1.000000 0.000000
vt 1.000000 0.324722
vt 0.825913 0.000000
vt 0.904833 0.324722
vt 0.825913 0.324722
vt 0.851436 0.524603
vt 0.930280 0.849325
vt 0.851436 0.849325
vt 0.175848 0.728445
vt 0.000000 0.492401
vt 0.175848 0.492401
vt 0.584927 0.996665
vt 0.576780 0.760646
vt 0.584927 0.760646
vt 0.400933 0.728445
vt 0.225085 0.492402
vt 0.400933 0.492402
vt 0.566990 0.996665
vt 0.558843 0.760646
vt 0.566990 0.760646
vt 0.887043 0.500551
vt 0.895190 0.324722
vt 0.895190 0.500551
vt 0.602945 0.936308
vt 0.611091 0.760646
vt 0.611091 0.936308
vt 0.545894 0.760646
vt 0.532944 0.999637
vt 0.532944 0.760646
vt 0.507045 0.760646
vt 0.493914 0.999613
vt 0.493914 0.760646
vt 0.558843 0.760646
vt 0.545894 0.999637
vt 0.545894 0.760646
vt 0.178052 0.728445
vt 0.164922 0.967411
vt 0.164922 0.728445
vt 0.740053 0.488955
vt 0.727105 0.502086
vt 0.727105 0.488955
vt 0.752989 0.502086
vt 0.740053 0.515216
vt 0.740053 0.502086
vt 0.564019 0.524603
vt 0.727105 0.290981
vt 0.727105 0.524603
vt 0.980729 0.000000
vt 0.904833 0.262274
vt 0.904833 0.000000
vt 0.400933 0.000000
vt 0.564019 0.233622
vt 0.400933 0.262302
vt 0.075896 0.728445
vt 0.000000 0.962043
vt 0.000000 0.728445
vt 0.225085 0.728445
vt 0.300981 0.891514
vt 0.225085 0.891514
vt 0.727105 0.324722
vt 0.803001 0.488955
vt 0.727105 0.488955
vt 0.760313 0.512186
vt 0.756651 0.488955
vt 0.760313 0.488955
vt 0.739322 0.822189
vt 0.735661 0.760646
vt 0.739322 0.760646
vt 0.756651 0.512186
vt 0.752989 0.488955
vt 0.756651 0.488955
vt 0.735661 0.822189
vt 0.732000 0.760646
vt 0.735661 0.760646
vt 0.657549 0.760646
vt 0.634320 0.822189
vt 0.634320 0.760646
vt 0.703961 0.760646
vt 0.680755 0.822189
vt 0.680755 0.760646
vt 0.593936 0.760646
vt 0.602945 0.962818
vt 0.593936 0.962818
vt 0.989643 0.000000
vt 0.980729 0.492402
vt 0.980729 0.000000
vt 0.584927 0.760646
vt 0.593936 0.962818
vt 0.584927 0.962818
vt 0.989643 0.492402
vt 0.980729 0.984803
vt 0.980729 0.492402
vt 0.400933 0.492402
vt 0.200878 0.000000
vt 0.400933 0.000000
vt 0.000000 0.000000
vt 0.200877 0.492401
vt 0.000000 0.492401
vt 0.519994 0.999637
vt 0.376876 0.967411
vt 0.507045 0.999637
vt 0.151792 0.967411
vt 0.740053 0.502086
vt 0.752989 0.488955
vt 0.400933 0.524603
vt 0.904833 0.524549
vt 0.564019 0.000000
vt 0.075896 0.962043
vt 0.300981 0.728445
vt 0.803001 0.324722
vt 0.760313 0.488955
vt 0.724677 0.760646
vt 0.763974 0.488955
vt 0.728338 0.760646
vt 0.634320 0.760646
vt 0.680755 0.760646
vt 0.576780 0.760646
vt 0.392786 0.964463
vt 0.400933 0.760646
vt 0.566990 0.996665
vt 0.878897 0.324722
vt 0.895190 0.324722
vt 0.447423 0.859464
vt 0.752628 0.524603
vt 0.400933 0.859464
vt 0.727105 0.000000
vt 0.225085 0.492402
vt 0.976722 0.524603
vt 0.703961 0.760646
vt 0.989643 0.324722
vt 0.714319 0.760646
vt 0.989643 0.000000
vt 0.904833 0.000000
vt 0.930280 0.524603
vt 0.000000 0.728445
vt 0.576780 0.996665
vt 0.225085 0.728445
vt 0.558843 0.996665
vt 0.887043 0.324722
vt 0.602945 0.760646
vt 0.545894 0.999637
vt 0.507045 0.999613
vt 0.558843 0.999637
vt 0.178052 0.967411
vt 0.740053 0.502086
vt 0.752989 0.515216
vt 0.564019 0.262302
vt 0.980729 0.262274
vt 0.564019 0.000000
vt 0.075896 0.962043
vt 0.300981 0.728445
vt 0.803001 0.324722
vt 0.756651 0.512186
vt 0.735661 0.822189
vt 0.752989 0.512186
vt 0.732000 0.822189
vt 0.657549 0.822189
vt 0.703961 0.822189
vt 0.602945 0.760646
vt 0.989643 0.492402
vt 0.593936 0.760646
vt 0.989643 0.984803
vt 0.200878 0.492402
vt 0.200877 0.000000
vn -1.0000 0.0000 0.0000
vn 0.0000 0.0000 -1.0000
vn 1.0000 0.0000 0.0000
vn 0.0000 0.0000 1.0000
vn 0.0000 -1.0000 0.0000
vn 0.0000 1.0000 0.0000
vn 0.0000 0.9849 0.1732
vn 0.0000 0.1586 -0.9873
vn 0.0000 -0.1586 0.9873
vn 0.0000 -0.9873 -0.1586
vn 0.0000 0.9873 0.1586
s off
f 2/1/1 3/2/1 1/3/1
f 4/4/2 7/5/2 3/6/2
f 8/7/3 5/8/3 7/9/3
f 6/10/4 1/11/4 5/12/4
f 7/13/5 1/14/5 3/15/5
f 4/16/6 6/17/6 8/18/6
f 10/19/1 11/20/1 9/21/1
f 12/22/2 15/23/2 11/24/2
f 15/25/3 14/26/3 13/27/3
f 14/28/4 9/29/4 13/30/4
f 15/31/5 9/32/5 11/33/5
f 12/34/7 14/35/7 16/36/7
f 18/37/1 19/38/1 17/39/1
f 20/40/2 23/41/2 19/42/2
f 24/43/3 21/44/3 23/45/3
f 22/46/4 17/47/4 21/48/4
f 23/49/5 17/50/5 19/51/5
f 20/52/6 22/53/6 24/54/6
f 26/55/1 27/56/1 25/57/1
f 28/58/2 31/59/2 27/60/2
f 32/61/3 29/62/3 31/63/3
f 30/64/4 25/65/4 29/66/4
f 31/67/5 25/68/5 27/69/5
f 28/70/6 30/71/6 32/72/6
f 34/73/1 35/74/1 33/75/1
f 36/76/2 39/77/2 35/78/2
f 40/79/3 37/80/3 39/81/3
f 38/82/4 33/83/4 37/84/4
f 39/85/5 33/86/5 35/87/5
f 36/88/6 38/89/6 40/90/6
f 42/91/1 43/92/1 41/93/1
f 44/94/2 47/95/2 43/96/2
f 48/97/3 45/98/3 47/99/3
f 46/100/4 41/101/4 45/102/4
f 47/103/5 41/104/5 43/105/5
f 44/106/6 46/107/6 48/108/6
f 50/109/1 51/110/1 49/111/1
f 52/112/2 55/113/2 51/114/2
f 56/115/3 53/116/3 55/117/3
f 54/118/4 49/119/4 53/120/4
f 55/121/5 49/122/5 51/123/5
f 52/124/6 54/125/6 56/126/6
f 59/127/3 58/128/3 57/129/3
f 63/130/2 60/131/2 59/132/2
f 61/133/1 64/134/1 63/135/1
f 57/136/4 62/137/4 61/138/4
f 57/139/5 63/140/5 59/141/5
f 62/142/6 60/143/6 64/144/6
f 67/145/3 66/146/3 65/147/3
f 71/148/2 68/149/2 67/150/2
f 71/151/1 70/152/1 72/153/1
f 65/154/4 70/155/4 69/156/4
f 65/157/5 71/158/5 67/159/5
f 70/160/7 68/161/7 72/162/7
f 75/163/3 74/164/3 73/165/3
f 79/166/2 76/167/2 75/168/2
f 77/169/1 80/170/1 79/171/1
f 73/172/4 78/173/4 77/174/4
f 73/175/5 79/176/5 75/177/5
f 78/178/6 76/179/6 80/180/6
f 81/181/1 84/182/1 83/183/1
f 84/184/8 87/185/8 83/186/8
f 87/187/3 86/188/3 85/189/3
f 86/190/9 81/191/9 85/192/9
f 87/193/10 81/194/10 83/195/10
f 84/196/11 86/197/11 88/198/11
f 2/1/1 4/199/1 3/2/1
f 4/4/2 8/200/2 7/5/2
f 8/7/3 6/201/3 5/8/3
f 6/10/4 2/202/4 1/11/4
f 7/13/5 5/203/5 1/14/5
f 4/16/6 2/204/6 6/17/6
f 10/19/1 12/205/1 11/20/1
f 12/22/2 16/206/2 15/23/2
f 15/25/3 16/207/3 14/26/3
f 14/28/4 10/208/4 9/29/4
f 15/31/5 13/209/5 9/32/5
f 12/34/7 10/210/7 14/35/7
f 18/37/1 20/211/1 19/38/1
f 20/40/2 24/212/2 23/41/2
f 24/43/3 22/213/3 21/44/3
f 22/46/4 18/214/4 17/47/4
f 23/49/5 21/215/5 17/50/5
f 20/52/6 18/216/6 22/53/6
f 26/55/1 28/217/1 27/56/1
f 28/58/2 32/218/2 31/59/2
f 32/61/3 30/219/3 29/62/3
f 30/64/4 26/220/4 25/65/4
f 31/67/5 29/221/5 25/68/5
f 28/70/6 26/222/6 30/71/6
f 34/73/1 36/223/1 35/74/1
f 36/76/2 40/224/2 39/77/2
f 40/79/3 38/225/3 37/80/3
f 38/82/4 34/226/4 33/83/4
f 39/85/5 37/227/5 33/86/5
f 36/88/6 34/228/6 38/89/6
f 42/91/1 44/229/1 43/92/1
f 44/94/2 48/230/2 47/95/2
f 48/97/3 46/231/3 45/98/3
f 46/100/4 42/232/4 41/101/4
f 47/103/5 45/233/5 41/104/5
f 44/106/6 42/234/6 46/107/6
f 50/109/1 52/235/1 51/110/1
f 52/112/2 56/236/2 55/113/2
f 56/115/3 54/237/3 53/116/3
f 54/118/4 50/238/4 49/119/4
f 55/121/5 53/239/5 49/122/5
f 52/124/6 50/240/6 54/125/6
f 59/127/3 60/241/3 58/128/3
f 63/130/2 64/242/2 60/131/2
f 61/133/1 62/243/1 64/134/1
f 57/136/4 58/244/4 62/137/4
f 57/139/5 61/245/5 63/140/5
f 62/142/6 58/246/6 60/143/6
f 67/145/3 68/247/3 66/146/3
f 71/148/2 72/248/2 68/149/2
f 71/151/1 69/249/1 70/152/1
f 65/154/4 66/250/4 70/155/4
f 65/157/5 69/251/5 71/158/5
f 70/160/7 66/252/7 68/161/7
f 75/163/3 76/253/3 74/164/3
f 79/166/2 80/254/2 76/167/2
f 77/169/1 78/255/1 80/170/1
f 73/172/4 74/256/4 78/173/4
f 73/175/5 77/257/5 79/176/5
f 78/178/6 74/258/6 76/179/6
f 81/181/1 82/259/1 84/182/1
f 84/184/8 88/260/8 87/185/8
f 87/187/3 88/261/3 86/188/3
f 86/190/9 82/262/9 81/191/9
f 87/193/10 85/263/10 81/194/10
f 84/196/11 82/264/11 86/197/11
