# Blender v3.4.1 OBJ File: 'environment.blend'
# www.blender.org
o Storefront_4_Flags_Plane.012
v 0.390860 0.091924 0.352642
v 0.754816 0.091924 0.352642
v 0.390860 0.654236 0.352642
v 0.754816 0.654236 0.352642
v 0.390860 0.466799 0.352642
v 0.390860 0.279362 0.352642
v 0.512179 0.091924 0.352642
v 0.633497 0.091924 0.352642
v 0.754816 0.279362 0.352642
v 0.754816 0.466799 0.352642
v 0.633497 0.654236 0.352642
v 0.512179 0.654236 0.352642
v 0.512179 0.279362 0.352642
v 0.512179 0.466799 0.352642
v 0.633497 0.279362 0.352642
v 0.633497 0.466799 0.352642
v -0.831765 0.091924 0.352642
v -0.467809 0.091924 0.352642
v -0.831765 0.654236 0.352642
v -0.467809 0.654236 0.352642
v -0.831765 0.466799 0.352642
v -0.831765 0.279362 0.352642
v -0.710446 0.091924 0.352642
v -0.589127 0.091924 0.352642
v -0.467809 0.279362 0.352642
v -0.467809 0.466799 0.352642
v -0.589127 0.654236 0.352642
v -0.710446 0.654236 0.352642
v -0.710446 0.279362 0.352642
v -0.710446 0.466799 0.352642
v -0.589127 0.279362 0.352642
v -0.589127 0.466799 0.352642
v -0.431164 0.091924 0.352642
v -0.067207 0.091924 0.352642
v -0.431164 0.654236 0.352642
v -0.067207 0.654236 0.352642
v -0.431164 0.466799 0.352642
v -0.431164 0.279362 0.352642
v -0.309845 0.091924 0.352642
v -0.188526 0.091924 0.352642
v -0.067207 0.279362 0.352642
v -0.067207 0.466799 0.352642
v -0.188526 0.654236 0.352642
v -0.309845 0.654236 0.352642
v -0.309845 0.279362 0.352642
v -0.309845 0.466799 0.352642
v -0.188526 0.279362 0.352642
v -0.188526 0.466799 0.352642
v -0.011467 0.091924 0.352642
v 0.352489 0.091924 0.352642
v -0.011467 0.654236 0.352642
v 0.352489 0.654236 0.352642
v -0.011467 0.466799 0.352642
v -0.011467 0.279362 0.352642
v 0.109852 0.091924 0.352642
v 0.231170 0.091924 0.352642
v 0.352489 0.279362 0.352642
v 0.352489 0.466799 0.352642
v 0.231170 0.654236 0.352642
v 0.109852 0.654236 0.352642
v 0.109852 0.279362 0.352642
v 0.109852 0.466799 0.352642
v 0.231170 0.279362 0.352642
v 0.231170 0.466799 0.352642
vt 1.000000 0.666667
vt 0.666667 1.000000
vt 0.666667 0.666667
vt 0.333333 0.666667
vt 0.000000 1.000000
vt 0.000000 0.666667
vt 0.333333 1.000000
vt 0.333333 0.000000
vt 0.000000 0.333333
vt 0.000000 0.000000
vt 0.333333 0.333333
vt 0.666667 0.000000
vt 0.666667 0.333333
vt 1.000000 0.000000
vt 1.000000 0.333333
vt 1.000000 0.666667
vt 0.666667 1.000000
vt 0.666667 0.666667
vt 0.333333 0.666667
vt 0.000000 1.000000
vt 0.000000 0.666667
vt 0.333333 1.000000
vt 0.333333 0.000000
vt 0.000000 0.333333
vt 0.000000 0.000000
vt 0.333333 0.333333
vt 0.666667 0.000000
vt 0.666667 0.333333
vt 1.000000 0.000000
vt 1.000000 0.333333
vt 1.000000 0.666667
vt 0.666667 1.000000
vt 0.666667 0.666667
vt 0.333333 0.666667
vt 0.000000 1.000000
vt 0.000000 0.666667
vt 0.333333 1.000000
vt 0.333333 0.000000
vt 0.000000 0.333333
vt 0.000000 0.000000
vt 0.333333 0.333333
vt 0.666667 0.000000
vt 0.666667 0.333333
vt 1.000000 0.000000
vt 1.000000 0.333333
vt 1.000000 0.666667
vt 0.666667 1.000000
vt 0.666667 0.666667
vt 0.333333 0.666667
vt 0.000000 1.000000
vt 0.000000 0.666667
vt 0.333333 1.000000
vt 0.333333 0.000000
vt 0.000000 0.333333
vt 0.000000 0.000000
vt 0.333333 0.333333
vt 0.666667 0.000000
vt 0.666667 0.333333
vt 1.000000 0.000000
vt 1.000000 0.333333
vt 1.000000 1.000000
vt 1.000000 1.000000
vt 1.000000 1.000000
vt 1.000000 1.000000
vn 0.0000 -0.0000 1.0000
s off
f 10/1/1 11/2/1 16/3/1
f 14/4/1 3/5/1 5/6/1
f 16/3/1 12/7/1 14/4/1
f 7/8/1 6/9/1 1/10/1
f 13/11/1 5/6/1 6/9/1
f 8/12/1 13/11/1 7/8/1
f 15/13/1 14/4/1 13/11/1
f 2/14/1 15/13/1 8/12/1
f 9/15/1 16/3/1 15/13/1
f 26/16/1 27/17/1 32/18/1
f 30/19/1 19/20/1 21/21/1
f 32/18/1 28/22/1 30/19/1
f 23/23/1 22/24/1 17/25/1
f 29/26/1 21/21/1 22/24/1
f 24/27/1 29/26/1 23/23/1
f 31/28/1 30/19/1 29/26/1
f 18/29/1 31/28/1 24/27/1
f 25/30/1 32/18/1 31/28/1
f 42/31/1 43/32/1 48/33/1
f 46/34/1 35/35/1 37/36/1
f 48/33/1 44/37/1 46/34/1
f 39/38/1 38/39/1 33/40/1
f 45/41/1 37/36/1 38/39/1
f 40/42/1 45/41/1 39/38/1
f 47/43/1 46/34/1 45/41/1
f 34/44/1 47/43/1 40/42/1
f 41/45/1 48/33/1 47/43/1
f 58/46/1 59/47/1 64/48/1
f 62/49/1 51/50/1 53/51/1
f 64/48/1 60/52/1 62/49/1
f 55/53/1 54/54/1 49/55/1
f 61/56/1 53/51/1 54/54/1
f 56/57/1 61/56/1 55/53/1
f 63/58/1 62/49/1 61/56/1
f 50/59/1 63/58/1 56/57/1
f 57/60/1 64/48/1 63/58/1
f 10/1/1 4/61/1 11/2/1
f 14/4/1 12/7/1 3/5/1
f 16/3/1 11/2/1 12/7/1
f 7/8/1 13/11/1 6/9/1
f 13/11/1 14/4/1 5/6/1
f 8/12/1 15/13/1 13/11/1
f 15/13/1 16/3/1 14/4/1
f 2/14/1 9/15/1 15/13/1
f 9/15/1 10/1/1 16/3/1
f 26/16/1 20/62/1 27/17/1
f 30/19/1 28/22/1 19/20/1
f 32/18/1 27/17/1 28/22/1
f 23/23/1 29/26/1 22/24/1
f 29/26/1 30/19/1 21/21/1
f 24/27/1 31/28/1 29/26/1
f 31/28/1 32/18/1 30/19/1
f 18/29/1 25/30/1 31/28/1
f 25/30/1 26/16/1 32/18/1
f 42/31/1 36/63/1 43/32/1
f 46/34/1 44/37/1 35/35/1
f 48/33/1 43/32/1 44/37/1
f 39/38/1 45/41/1 38/39/1
f 45/41/1 46/34/1 37/36/1
f 40/42/1 47/43/1 45/41/1
f 47/43/1 48/33/1 46/34/1
f 34/44/1 41/45/1 47/43/1
f 41/45/1 42/31/1 48/33/1
f 58/46/1 52/64/1 59/47/1
f 62/49/1 60/52/1 51/50/1
f 64/48/1 59/47/1 60/52/1
f 55/53/1 61/56/1 54/54/1
f 61/56/1 62/49/1 53/51/1
f 56/57/1 63/58/1 61/56/1
f 63/58/1 64/48/1 62/49/1
f 50/59/1 57/60/1 63/58/1
f 57/60/1 58/46/1 64/48/1
