# Blender v3.4.1 OBJ File: 'environment.blend'
# www.blender.org
o Storefront_5_Cover_Sphere.003
v -0.057860 0.908478 0.180414
v 0.082481 0.836971 0.180414
v 0.193857 0.725595 0.180414
v 0.265365 0.585254 0.180414
v 0.290004 0.429684 0.180414
v -0.078703 0.908478 0.258199
v 0.042837 0.836971 0.328369
v 0.139291 0.725595 0.384057
v 0.201218 0.585254 0.419811
v 0.222557 0.429684 0.432131
v -0.135645 0.908478 0.315141
v -0.065474 0.836971 0.436680
v -0.009786 0.725595 0.533135
v 0.025967 0.585254 0.595062
v 0.038287 0.429684 0.616401
v -0.213430 0.908478 0.335984
v -0.213430 0.836971 0.476325
v -0.213430 0.725595 0.587701
v -0.213430 0.585254 0.659208
v -0.213430 0.429684 0.683848
v -0.291215 0.908478 0.315141
v -0.361386 0.836971 0.436680
v -0.417073 0.725595 0.533135
v -0.452827 0.585254 0.595062
v -0.465147 0.429684 0.616401
v -0.348157 0.908478 0.258199
v -0.469697 0.836971 0.328369
v -0.566151 0.725595 0.384057
v -0.628078 0.585254 0.419811
v -0.649417 0.429684 0.432131
v -0.213430 0.933118 0.180414
v -0.369000 0.908478 0.180414
v -0.509341 0.836971 0.180414
v -0.620717 0.725595 0.180414
v -0.692225 0.585254 0.180414
v -0.716864 0.429684 0.180414
v 0.996215 0.908478 0.180414
v 0.996215 0.836971 0.180414
v 0.996215 0.725595 0.180414
v 0.996215 0.585254 0.180414
v 0.996215 0.429684 0.180414
v 0.996215 0.933118 0.180414
v -1.000044 0.933118 0.180414
v -1.000044 0.908478 0.180414
v -1.000044 0.836971 0.180414
v -1.000044 0.725595 0.180414
v -1.000044 0.585254 0.180414
v -1.000044 0.429684 0.180414
v -0.213430 0.992481 -0.711074
v 0.996215 0.992481 -0.711074
v -1.000044 0.992481 -0.711074
v -0.213430 0.992481 0.120629
v -0.213430 0.932696 0.180414
v -0.213430 0.984471 0.150522
v -0.213430 0.962588 0.172404
v 0.996215 0.992481 0.120629
v 0.996215 0.933118 0.180414
v 0.996215 0.984528 0.150522
v 0.996215 0.962799 0.172404
v -1.000044 0.933118 0.180414
v -1.000044 0.992481 0.120629
v -1.000044 0.962799 0.172404
v -1.000044 0.984528 0.150522
v -0.057860 0.908478 0.180414
v 0.082481 0.836971 0.180414
v 0.193857 0.725595 0.180414
v 0.265365 0.585254 0.180414
v 0.290004 0.429684 0.180414
v -0.078703 0.908478 0.258199
v 0.042837 0.836971 0.328369
v 0.139291 0.725595 0.384057
v 0.201218 0.585254 0.419811
v 0.222557 0.429684 0.432131
v -0.135645 0.908478 0.315141
v -0.065474 0.836971 0.436680
v -0.009786 0.725595 0.533135
v 0.025967 0.585254 0.595062
v 0.038287 0.429684 0.616401
v -0.213430 0.908478 0.335984
v -0.213430 0.836971 0.476325
v -0.213430 0.725595 0.587701
v -0.213430 0.585254 0.659208
v -0.213430 0.429684 0.683848
v -0.291215 0.908478 0.315141
v -0.361386 0.836971 0.436680
v -0.417073 0.725595 0.533135
v -0.452827 0.585254 0.595062
v -0.465147 0.429684 0.616401
v -0.348157 0.908478 0.258199
v -0.469697 0.836971 0.328369
v -0.566151 0.725595 0.384057
v -0.628078 0.585254 0.419811
v -0.649417 0.429684 0.432131
v -0.213430 0.933118 0.180414
v -0.369000 0.908478 0.180414
v -0.509341 0.836971 0.180414
v -0.620717 0.725595 0.180414
v -0.692225 0.585254 0.180414
v -0.716864 0.429684 0.180414
v 0.996215 0.908478 0.180414
v 0.996215 0.836971 0.180414
v 0.996215 0.725595 0.180414
v 0.996215 0.585254 0.180414
v 0.996215 0.429684 0.180414
v 0.996215 0.933118 0.180414
v -1.000044 0.933118 0.180414
v -1.000044 0.908478 0.180414
v -1.000044 0.836971 0.180414
v -1.000044 0.725595 0.180414
v -1.000044 0.585254 0.180414
v -1.000044 0.429684 0.180414
v -0.213430 0.992481 -0.711074
v 0.996215 0.992481 -0.711074
v -1.000044 0.992481 -0.711074
v -0.213430 0.992481 0.120629
v -0.213430 0.932696 0.180414
v -0.213430 0.984471 0.150522
v -0.213430 0.962588 0.172404
v 0.996215 0.992481 0.120629
v 0.996215 0.933118 0.180414
v 0.996215 0.984528 0.150522
v 0.996215 0.962799 0.172404
v -1.000044 0.933118 0.180414
v -1.000044 0.992481 0.120629
v -1.000044 0.962799 0.172404
v -1.000044 0.984528 0.150522
vt 0.458154 0.614153
vt 0.510618 0.548692
vt 0.463334 0.538166
vt 0.409293 0.421202
vt 0.385289 0.426982
vt 0.409293 0.469750
vt 0.409293 0.613740
vt 0.414739 0.533841
vt 0.360707 0.388311
vt 0.406364 0.377318
vt 0.506212 0.613331
vt 0.551963 0.564390
vt 0.510618 0.675322
vt 0.548762 0.611353
vt 0.367325 0.444209
vt 0.414739 0.690365
vt 0.326537 0.421080
vt 0.272303 0.465614
vt 0.290920 0.402626
vt 0.601037 0.455835
vt 0.648833 0.392313
vt 0.603215 0.381161
vt 0.360214 0.468269
vt 0.551963 0.455835
vt 0.554252 0.377318
vt 0.313010 0.466843
vt 0.554252 0.534351
vt 0.365861 0.492713
vt 0.323751 0.513340
vt 0.648833 0.519356
vt 0.646980 0.455835
vt 0.382753 0.510993
vt 0.409293 0.453943
vt 0.463334 0.380654
vt 0.414739 0.377318
vt 0.355882 0.548110
vt 0.506212 0.454352
vt 0.551963 0.411291
vt 0.510618 0.392361
vt 0.458154 0.453529
vt 0.510618 0.518991
vt 0.406364 0.518210
vt 0.414739 0.533841
vt 0.400793 0.561838
vt 0.548762 0.456330
vt 0.420764 0.000000
vt 0.398591 0.285016
vt 0.420764 0.328792
vt 0.320541 0.000000
vt 0.272303 0.220284
vt 0.320541 0.227970
vt 0.398591 0.000000
vt 0.364057 0.250275
vt 0.428404 0.000000
vt 0.428404 0.377318
vt 0.364057 0.000000
vt 0.428404 0.157034
vt 0.476642 0.245364
vt 0.476642 0.149348
vt 0.520158 0.127043
vt 0.554692 0.245364
vt 0.554692 0.092302
vt 0.576865 0.048526
vt 0.584505 0.245364
vt 0.584505 0.000000
vt 0.520158 0.245364
vt 0.576865 0.245364
vt 0.658570 0.622682
vt 0.658570 1.000000
vt 0.658570 1.000000
vt 0.272303 0.622682
vt 0.017631 0.377318
vt 0.017631 0.622682
vt 0.658570 0.377318
vt 0.658439 0.622682
vt 0.008005 0.000000
vt 0.017631 0.000000
vt 0.000013 0.000000
vt 0.008002 0.377318
vt 0.648964 0.377318
vt 0.658373 0.754636
vt 0.658439 0.377318
vt 0.008005 0.622682
vt 0.000013 0.622682
vt 0.648964 1.000000
vt 0.658439 1.000000
vt 0.272303 0.377318
vt 0.510618 0.548692
vt 0.458154 0.614153
vt 0.463334 0.538166
vt 0.409293 0.421202
vt 0.409293 0.469750
vt 0.385289 0.426982
vt 0.409293 0.613740
vt 0.414739 0.533841
vt 0.360707 0.388311
vt 0.406364 0.377318
vt 0.551963 0.564390
vt 0.506212 0.613331
vt 0.548762 0.611353
vt 0.510618 0.675322
vt 0.463334 0.687028
vt 0.367325 0.444209
vt 0.414739 0.690365
vt 0.326537 0.421080
vt 0.272303 0.465614
vt 0.290920 0.402626
vt 0.603215 0.381161
vt 0.646980 0.455835
vt 0.601037 0.455835
vt 0.360214 0.468269
vt 0.551963 0.455835
vt 0.554252 0.377318
vt 0.313010 0.466843
vt 0.554252 0.534351
vt 0.323751 0.513340
vt 0.287087 0.529611
vt 0.603215 0.530509
vt 0.365861 0.492713
vt 0.382753 0.510993
vt 0.463334 0.380654
vt 0.409293 0.453943
vt 0.414739 0.377318
vt 0.355882 0.548110
vt 0.551963 0.411291
vt 0.506212 0.454352
vt 0.510618 0.392361
vt 0.458154 0.453529
vt 0.463334 0.529517
vt 0.406364 0.518210
vt 0.414739 0.533841
vt 0.400793 0.561838
vt 0.551963 0.503293
vt 0.510618 0.518991
vt 0.398591 0.285016
vt 0.420764 0.000000
vt 0.420764 0.328792
vt 0.272303 0.220284
vt 0.320541 0.000000
vt 0.320541 0.227970
vt 0.364057 0.250275
vt 0.398591 0.000000
vt 0.428404 0.000000
vt 0.428404 0.377318
vt 0.364057 0.000000
vt 0.428404 0.157034
vt 0.476642 0.245364
vt 0.428404 0.245364
vt 0.520158 0.127043
vt 0.554692 0.245364
vt 0.520158 0.245364
vt 0.576865 0.048526
vt 0.584505 0.245364
vt 0.576865 0.245364
vt 0.476642 0.149348
vt 0.554692 0.092302
vt 0.658570 0.622682
vt 0.658570 1.000000
vt 0.658439 0.622682
vt 0.017631 0.377318
vt 0.272303 0.622682
vt 0.017631 0.622682
vt 0.658570 0.377318
vt 0.658570 0.377318
vt 0.008005 0.000000
vt 0.017631 0.000000
vt 0.008002 0.377318
vt 0.000013 0.000000
vt 0.658373 0.754636
vt 0.648964 0.377318
vt 0.658439 0.377318
vt 0.008005 0.622682
vt 0.000013 0.622682
vt 0.000000 0.377318
vt 0.648964 1.000000
vt 0.648833 0.754636
vt 0.272303 0.377318
vt 0.551963 0.656392
vt 0.463334 0.687028
vt 0.603215 0.530509
vt 0.287087 0.529611
vt 0.463334 0.529517
vt 0.551963 0.503293
vt 0.272303 0.000000
vt 0.428404 0.245364
vt 0.658570 0.377318
vt 0.000000 0.377318
vt 0.648833 0.754636
vt 0.272303 0.000000
vt 0.551963 0.656392
vt 0.648833 0.392313
vt 0.648833 0.519356
vt 0.548762 0.456330
vt 0.272303 0.000000
vt 0.584505 0.000000
vt 0.658570 1.000000
vt 0.658439 1.000000
vt 0.272303 0.000000
vn -0.8257 -0.3017 -0.4767
vn -0.7987 -0.5624 -0.2140
vn -0.9237 -0.2923 -0.2475
vn -0.3309 -0.9395 -0.0887
vn -0.2877 -0.9432 -0.1661
vn 0.0000 -0.9945 -0.1050
vn -0.8554 -0.1564 -0.4938
vn -0.9548 -0.1512 -0.2558
vn -0.5233 -0.7968 -0.3021
vn -0.5965 -0.7865 -0.1598
vn -0.7081 -0.5758 -0.4088
vn -0.4088 -0.5758 -0.7081
vn -0.1661 -0.9432 -0.2877
vn -0.4938 -0.1564 -0.8554
vn -0.3021 -0.7968 -0.5233
vn 0.0000 -0.5758 -0.8176
vn 0.0000 -0.3017 -0.9534
vn -0.4767 -0.3017 -0.8257
vn -0.0000 -0.9432 -0.3322
vn -0.0000 -0.1564 -0.9877
vn 0.0000 -0.7968 -0.6043
vn 0.4938 -0.1564 -0.8554
vn 0.1661 -0.9432 -0.2877
vn 0.3021 -0.7968 -0.5233
vn 0.4088 -0.5758 -0.7081
vn 0.2877 -0.9432 -0.1661
vn 0.8554 -0.1564 -0.4938
vn 0.4767 -0.3017 -0.8257
vn 0.5233 -0.7968 -0.3021
vn 0.7081 -0.5758 -0.4088
vn 0.8257 -0.3017 -0.4767
vn 0.7987 -0.5624 -0.2140
vn 0.3309 -0.9395 -0.0887
vn 0.9548 -0.1512 -0.2558
vn 0.5965 -0.7865 -0.1598
vn 0.0000 -0.0000 -1.0000
vn 0.0000 0.0000 1.0000
vn 0.0000 -1.0000 0.0000
vn -0.0000 -0.9914 -0.1305
vn 0.0000 -0.9916 -0.1296
vn 0.0000 -0.8673 -0.4977
vn 0.0000 -0.5023 -0.8647
vn -0.0000 -0.8660 -0.5000
vn 0.0000 -0.2605 -0.9655
vn -0.0000 -0.5000 -0.8660
vn -0.0001 -0.5023 -0.8647
vn -0.0001 -0.2605 -0.9655
vn 0.7987 0.5624 0.2140
vn 0.8257 0.3017 0.4767
vn 0.9237 0.2923 0.2475
vn 0.3309 0.9395 0.0887
vn -0.0000 0.9945 0.1050
vn 0.2877 0.9432 0.1661
vn 0.8554 0.1564 0.4938
vn 0.9548 0.1512 0.2558
vn 0.5233 0.7968 0.3021
vn 0.5965 0.7865 0.1598
vn 0.7081 0.5758 0.4088
vn 0.4088 0.5758 0.7081
vn 0.4767 0.3017 0.8257
vn 0.1661 0.9432 0.2877
vn 0.4938 0.1564 0.8554
vn 0.3021 0.7968 0.5233
vn -0.0000 0.5758 0.8176
vn -0.0000 0.3017 0.9534
vn -0.0000 0.9432 0.3322
vn 0.0000 0.1564 0.9877
vn 0.0000 0.7968 0.6043
vn -0.4938 0.1564 0.8554
vn -0.3021 0.7968 0.5233
vn -0.4088 0.5758 0.7081
vn -0.4767 0.3017 0.8257
vn -0.1661 0.9432 0.2877
vn -0.2877 0.9432 0.1661
vn -0.8554 0.1564 0.4938
vn -0.5233 0.7968 0.3021
vn -0.7081 0.5758 0.4088
vn -0.8257 0.3017 0.4767
vn -0.9237 0.2923 0.2475
vn -0.3309 0.9395 0.0887
vn -0.9548 0.1512 0.2558
vn -0.5965 0.7865 0.1598
vn -0.7987 0.5624 0.2140
vn 0.0000 0.9914 0.1305
vn 0.0000 1.0000 0.0000
vn 0.0000 0.9916 0.1296
vn 0.0000 0.2588 0.9659
vn 0.0000 0.1314 0.9913
vn -0.0000 0.8673 0.4977
vn 0.0000 0.8660 0.5000
vn -0.0000 0.5023 0.8647
vn 0.0000 0.5000 0.8660
vn -0.0000 0.2605 0.9655
vn 0.0001 0.5023 0.8647
vn 0.9237 -0.2923 -0.2475
vn -0.0000 -0.2588 -0.9659
s 1
f 9/1/1 3/2/2 4/3/3
f 1/4/4 6/5/5 31/6/6
f 10/7/7 4/3/3 5/8/8
f 7/9/9 1/4/4 2/10/10
f 8/11/11 2/12/10 3/2/2
f 13/13/12 7/14/9 8/11/11
f 9/1/1 13/13/12 8/11/11
f 6/5/5 11/15/13 31/6/6
f 15/16/14 9/1/1 10/7/7
f 12/17/15 6/5/5 7/9/9
f 18/18/16 12/17/15 13/19/12
f 19/20/17 13/21/12 14/22/18
f 11/15/13 16/23/19 31/6/6
f 20/24/20 14/22/18 15/25/14
f 17/26/21 11/15/13 12/17/15
f 25/27/22 19/20/17 20/24/20
f 17/26/21 21/28/23 16/23/19
f 18/18/16 22/29/24 17/26/21
f 19/20/17 23/30/25 18/31/16
f 16/23/19 21/28/23 31/6/6
f 21/28/23 26/32/26 31/6/6
f 30/33/27 24/34/28 25/35/22
f 27/36/29 21/28/23 22/29/24
f 28/37/30 22/38/24 23/39/25
f 29/40/31 23/39/25 24/34/28
f 29/40/31 34/41/32 28/37/30
f 26/32/26 32/42/33 31/6/6
f 36/43/34 29/40/31 30/33/27
f 33/44/35 26/32/26 27/36/29
f 34/41/32 27/45/29 28/37/30
f 37/46/36 2/47/36 1/48/36
f 40/49/36 5/50/36 4/51/36
f 38/52/36 3/53/36 2/47/36
f 42/54/36 1/48/36 31/55/36
f 39/56/36 4/51/36 3/53/36
f 36/57/36 47/58/36 35/59/36
f 34/60/36 45/61/36 33/62/36
f 32/63/36 43/64/36 31/65/36
f 35/59/36 46/66/36 34/60/36
f 33/62/36 44/67/36 32/63/36
f 31/68/37 57/69/37 42/70/37
f 51/71/38 52/72/39 61/73/40
f 43/74/37 53/75/37 31/68/37
f 58/76/41 52/72/39 56/77/40
f 59/78/42 54/79/43 58/76/41
f 57/80/44 55/81/45 59/82/42
f 52/72/39 63/83/41 61/73/40
f 54/79/43 62/84/46 63/83/41
f 55/81/45 60/85/47 62/86/46
f 49/87/38 56/77/40 52/72/39
f 66/88/48 72/89/49 67/90/50
f 64/91/51 94/92/52 69/93/53
f 67/90/50 73/94/54 68/95/55
f 64/91/51 70/96/56 65/97/57
f 65/98/57 71/99/58 66/88/48
f 70/100/56 76/101/59 71/99/58
f 72/89/49 76/101/59 77/102/60
f 69/93/53 94/92/52 74/103/61
f 73/94/54 77/102/60 78/104/62
f 69/93/53 75/105/63 70/96/56
f 75/105/63 81/106/64 76/107/59
f 77/108/60 81/109/64 82/110/65
f 74/103/61 94/92/52 79/111/66
f 77/108/60 83/112/67 78/113/62
f 75/105/63 79/111/66 80/114/68
f 82/110/65 88/115/69 83/112/67
f 79/111/66 85/116/70 80/114/68
f 81/106/64 85/116/70 86/117/71
f 81/109/64 87/118/72 82/110/65
f 79/111/66 94/92/52 84/119/73
f 84/119/73 94/92/52 89/120/74
f 87/121/72 93/122/75 88/123/69
f 84/119/73 90/124/76 85/116/70
f 85/125/70 91/126/77 86/127/71
f 86/127/71 92/128/78 87/121/72
f 91/126/77 98/129/79 92/128/78
f 89/120/74 94/92/52 95/130/80
f 92/128/78 99/131/81 93/122/75
f 89/120/74 96/132/82 90/124/76
f 91/126/77 96/133/82 97/134/83
f 65/135/37 100/136/37 64/137/37
f 68/138/37 103/139/37 67/140/37
f 66/141/37 101/142/37 65/135/37
f 64/137/37 105/143/37 94/144/37
f 67/140/37 102/145/37 66/141/37
f 99/146/37 110/147/37 111/148/37
f 97/149/37 108/150/37 109/151/37
f 95/152/37 106/153/37 107/154/37
f 98/155/37 109/151/37 110/147/37
f 96/156/37 107/154/37 108/150/37
f 94/157/36 120/158/36 116/159/36
f 115/160/84 114/161/85 124/162/86
f 106/163/37 116/159/87 123/164/88
f 115/160/84 121/165/89 119/166/86
f 117/167/90 122/168/91 121/165/89
f 118/169/92 120/170/93 122/171/91
f 115/160/84 126/172/89 117/167/90
f 117/167/90 125/173/94 118/174/92
f 118/169/92 123/175/88 116/176/87
f 119/166/86 112/177/85 115/160/84
f 9/1/1 8/11/11 3/2/2
f 10/7/7 9/1/1 4/3/3
f 7/9/9 6/5/5 1/4/4
f 8/11/11 7/14/9 2/12/10
f 13/13/12 12/178/15 7/14/9
f 9/1/1 14/179/18 13/13/12
f 15/16/14 14/179/18 9/1/1
f 12/17/15 11/15/13 6/5/5
f 18/18/16 17/26/21 12/17/15
f 19/20/17 18/31/16 13/21/12
f 20/24/20 19/20/17 14/22/18
f 17/26/21 16/23/19 11/15/13
f 25/27/22 24/180/28 19/20/17
f 17/26/21 22/29/24 21/28/23
f 18/18/16 23/181/25 22/29/24
f 19/20/17 24/180/28 23/30/25
f 30/33/27 29/40/31 24/34/28
f 27/36/29 26/32/26 21/28/23
f 28/37/30 27/45/29 22/38/24
f 29/40/31 28/37/30 23/39/25
f 29/40/31 35/182/95 34/41/32
f 36/43/34 35/182/95 29/40/31
f 33/44/35 32/42/33 26/32/26
f 34/41/32 33/183/35 27/45/29
f 37/46/36 38/52/36 2/47/36
f 40/49/36 41/184/36 5/50/36
f 38/52/36 39/56/36 3/53/36
f 42/54/36 37/46/36 1/48/36
f 39/56/36 40/49/36 4/51/36
f 36/57/36 48/185/36 47/58/36
f 34/60/36 46/66/36 45/61/36
f 32/63/36 44/67/36 43/64/36
f 35/59/36 47/58/36 46/66/36
f 33/62/36 45/61/36 44/67/36
f 31/68/37 53/75/37 57/69/37
f 51/71/38 49/87/38 52/72/39
f 43/74/37 60/186/37 53/75/37
f 58/76/41 54/79/43 52/72/39
f 59/78/42 55/187/45 54/79/43
f 57/80/44 53/188/96 55/81/45
f 52/72/39 54/79/43 63/83/41
f 54/79/43 55/187/45 62/84/46
f 55/81/45 53/188/96 60/85/47
f 49/87/38 50/189/38 56/77/40
f 66/88/48 71/99/58 72/89/49
f 67/90/50 72/89/49 73/94/54
f 64/91/51 69/93/53 70/96/56
f 65/98/57 70/100/56 71/99/58
f 70/100/56 75/190/63 76/101/59
f 72/89/49 71/99/58 76/101/59
f 73/94/54 72/89/49 77/102/60
f 69/93/53 74/103/61 75/105/63
f 75/105/63 80/114/68 81/106/64
f 77/108/60 76/191/59 81/109/64
f 77/108/60 82/110/65 83/112/67
f 75/105/63 74/103/61 79/111/66
f 82/110/65 87/118/72 88/115/69
f 79/111/66 84/119/73 85/116/70
f 81/106/64 80/114/68 85/116/70
f 81/109/64 86/192/71 87/118/72
f 87/121/72 92/128/78 93/122/75
f 84/119/73 89/120/74 90/124/76
f 85/125/70 90/193/76 91/126/77
f 86/127/71 91/126/77 92/128/78
f 91/126/77 97/134/83 98/129/79
f 92/128/78 98/129/79 99/131/81
f 89/120/74 95/130/80 96/132/82
f 91/126/77 90/193/76 96/133/82
f 65/135/37 101/142/37 100/136/37
f 68/138/37 104/194/37 103/139/37
f 66/141/37 102/145/37 101/142/37
f 64/137/37 100/136/37 105/143/37
f 67/140/37 103/139/37 102/145/37
f 99/146/37 98/155/37 110/147/37
f 97/149/37 96/156/37 108/150/37
f 95/152/37 94/195/37 106/153/37
f 98/155/37 97/149/37 109/151/37
f 96/156/37 95/152/37 107/154/37
f 94/157/37 105/196/37 120/158/37
f 115/160/84 112/177/85 114/161/85
f 106/163/36 94/157/36 116/159/36
f 115/160/84 117/167/90 121/165/89
f 117/167/90 118/174/92 122/168/91
f 118/169/92 116/176/87 120/170/93
f 115/160/84 124/162/86 126/172/89
f 117/167/90 126/172/89 125/173/94
f 118/169/92 125/197/94 123/175/88
f 119/166/86 113/198/85 112/177/85
