# Blender v3.4.1 OBJ File: 'buildings.blend'
# www.blender.org
o B2_Base_Cube.020
v 0.906136 -1.409502 0.683708
v 0.906136 1.409502 0.683708
v -0.911788 -1.409502 0.683708
v -0.911788 1.409502 0.683708
v 0.676009 -1.409502 -0.683708
v 0.906136 -1.409502 -0.575211
v 0.906136 1.409502 -0.575211
v 0.676009 1.409502 -0.683708
v -0.911788 -1.409502 -0.575211
v -0.676009 -1.409502 -0.683708
v -0.676009 1.409502 -0.683708
v -0.911788 1.409502 -0.575211
v 0.905941 -1.409502 -0.695583
v 0.778432 -1.409502 -0.804080
v 0.778432 1.409502 -0.804080
v 0.905941 1.409502 -0.695583
v -0.902672 1.422406 -0.700708
v -0.775163 1.422406 -0.809206
v -0.775163 -1.396597 -0.809206
v -0.902672 -1.396597 -0.700708
vt 0.625000 0.769836
vt 0.375000 0.980164
vt 0.375000 0.769836
vt 0.625000 0.250000
vt 0.375000 0.500000
vt 0.375000 0.250000
vt 0.855164 0.750000
vt 0.644836 0.750000
vt 0.875000 0.500000
vt 0.625000 0.019836
vt 0.375000 0.019836
vt 0.625000 0.500000
vt 0.375000 0.730164
vt 0.625000 0.019836
vt 0.375000 0.769836
vt 0.625000 0.769836
vt 0.355164 0.750000
vt 0.625000 0.000000
vt 0.375000 0.019836
vt 0.375000 0.000000
vt 0.625000 0.980164
vt 0.375000 0.980164
vt 0.875000 0.730164
vt 0.855164 0.750000
vt 0.144836 0.750000
vt 0.125000 0.730164
vt 0.125000 0.730164
vt 0.625000 0.730164
vt 0.375000 0.730164
vt 0.355164 0.750000
vt 0.625000 0.730164
vt 0.875000 0.730164
vt 0.125000 0.500000
vt 0.625000 0.980164
vt 0.144836 0.750000
vt 0.644836 0.750000
vn 0.0000 0.0000 -1.0000
vn 0.0000 0.0000 1.0000
vn 0.0000 1.0000 0.0000
vn 1.0000 0.0000 0.0000
vn -1.0000 0.0000 0.0000
vn 1.0000 0.0000 -0.0016
vn 0.7846 0.0000 -0.6199
vn 0.0000 -1.0000 0.0000
vn 0.6480 0.0000 -0.7616
vn -0.7616 0.0000 -0.6480
vn -0.6480 0.0000 -0.7616
vn -0.0522 -0.9968 -0.0613
vn 0.0486 0.9932 0.1057
vn -0.9974 0.0000 -0.0724
vn -0.0486 -0.9932 -0.1057
vn 0.0522 0.9968 0.0613
s off
f 11/1/1 5/2/1 10/3/1
f 2/4/2 3/5/2 1/6/2
f 8/7/3 11/8/3 2/9/3
f 7/10/4 1/6/4 6/11/4
f 4/12/5 9/13/5 3/5/5
f 6/11/6 16/14/6 7/10/6
f 11/1/7 19/15/7 18/16/7
f 3/5/8 9/13/8 10/17/8
f 15/18/9 13/19/9 14/20/9
f 8/21/10 14/22/10 5/2/10
f 8/7/3 16/23/3 15/24/3
f 5/25/8 13/26/8 6/27/8
f 19/15/11 17/28/11 18/16/11
f 10/17/12 20/29/12 19/30/12
f 11/8/13 17/28/13 12/31/13
f 12/31/14 20/29/14 9/13/14
f 11/1/1 8/21/1 5/2/1
f 2/4/2 4/12/2 3/5/2
f 12/31/3 4/12/3 11/8/3
f 4/12/3 2/9/3 11/8/3
f 2/9/3 7/32/3 8/7/3
f 7/10/4 2/4/4 1/6/4
f 4/12/5 12/31/5 9/13/5
f 6/11/6 13/19/6 16/14/6
f 11/1/7 10/3/7 19/15/7
f 6/27/8 1/33/8 5/25/8
f 1/33/8 3/5/8 10/17/8
f 5/25/8 1/33/8 10/17/8
f 15/18/9 16/14/9 13/19/9
f 8/21/10 15/34/10 14/22/10
f 8/7/3 7/32/3 16/23/3
f 5/25/8 14/35/8 13/26/8
f 19/15/11 20/29/11 17/28/11
f 10/17/15 9/13/15 20/29/15
f 11/8/16 18/36/16 17/28/16
f 12/31/14 17/28/14 20/29/14
