# Blender v3.4.1 OBJ File: 'buildings.blend'
# www.blender.org
o B2_Cube.020
v 0.803518 -1.409502 0.683708
v 0.803518 1.409502 0.683708
v -0.803518 -1.409502 0.683708
v -0.803518 1.409502 0.683708
v 0.676009 -1.409502 -0.683708
v 0.803518 -1.409502 -0.575211
v 0.803518 1.409502 -0.575211
v 0.676009 1.409502 -0.683708
v -0.803518 -1.409502 -0.575211
v -0.676009 -1.409502 -0.683708
v -0.676009 1.409502 -0.683708
v -0.803518 1.409502 -0.575211
vt 0.625000 0.769836
vt 0.375000 0.980164
vt 0.375000 0.769836
vt 0.625000 0.250000
vt 0.375000 0.500000
vt 0.375000 0.250000
vt 0.855164 0.750000
vt 0.644836 0.750000
vt 0.625000 0.730164
vt 0.625000 0.019836
vt 0.375000 0.019836
vt 0.625000 0.500000
vt 0.375000 0.730164
vt 0.625000 0.000000
vt 0.375000 0.000000
vt 0.355164 0.750000
vt 0.144836 0.750000
vt 0.125000 0.730164
vt 0.625000 0.980164
vt 0.875000 0.500000
vt 0.875000 0.730164
vt 0.125000 0.500000
vn 0.0000 0.0000 -1.0000
vn 0.0000 0.0000 1.0000
vn 0.0000 1.0000 -0.0000
vn 1.0000 0.0000 0.0000
vn -1.0000 0.0000 0.0000
vn 0.6480 0.0000 -0.7616
vn -0.6480 0.0000 -0.7616
vn 0.0000 -1.0000 -0.0000
s off
f 11/1/1 5/2/1 10/3/1
f 2/4/2 3/5/2 1/6/2
f 8/7/3 11/8/3 12/9/3
f 7/10/4 1/6/4 6/11/4
f 4/12/5 9/13/5 3/5/5
f 8/14/6 6/11/6 5/15/6
f 10/3/7 12/9/7 11/1/7
f 10/16/8 5/17/8 6/18/8
f 11/1/1 8/19/1 5/2/1
f 2/4/2 4/12/2 3/5/2
f 12/9/3 4/12/3 2/20/3
f 2/20/3 7/21/3 12/9/3
f 7/21/3 8/7/3 12/9/3
f 7/10/4 2/4/4 1/6/4
f 4/12/5 12/9/5 9/13/5
f 8/14/6 7/10/6 6/11/6
f 10/3/7 9/13/7 12/9/7
f 6/18/8 1/22/8 3/5/8
f 3/5/8 9/13/8 6/18/8
f 9/13/8 10/16/8 6/18/8
