# Blender v3.4.1 OBJ File: 'buildings.blend'
# www.blender.org
o B2_Levels_Cube.068
v 0.924342 0.412838 0.787792
v 0.924342 0.582040 0.787792
v -0.927340 0.412838 0.787792
v -0.927340 0.582040 0.787792
v 0.777421 0.412838 -0.833634
v 0.924342 0.412838 -0.708620
v 0.924342 0.582040 -0.708620
v 0.777421 0.582040 -0.833634
v -0.927340 0.412838 -0.708620
v -0.780420 0.412838 -0.833634
v -0.780420 0.582040 -0.833634
v -0.927340 0.582040 -0.708620
v 0.924342 0.084290 0.787792
v 0.924342 0.253491 0.787792
v -0.927340 0.084290 0.787792
v -0.927340 0.253491 0.787792
v 0.777421 0.084290 -0.833634
v 0.924342 0.084290 -0.708620
v 0.924342 0.253491 -0.708620
v 0.777421 0.253491 -0.833634
v -0.927340 0.084290 -0.708620
v -0.780420 0.084290 -0.833634
v -0.780420 0.253491 -0.833634
v -0.927340 0.253491 -0.708620
v 0.924342 1.072381 0.787792
v 0.924342 1.241583 0.787792
v -0.927340 1.072381 0.787792
v -0.927340 1.241583 0.787792
v 0.777421 1.072381 -0.833634
v 0.924342 1.072381 -0.708620
v 0.924342 1.241583 -0.708620
v 0.777421 1.241583 -0.833634
v -0.927340 1.072381 -0.708620
v -0.780420 1.072381 -0.833634
v -0.780420 1.241583 -0.833634
v -0.927340 1.241583 -0.708620
v 0.924342 0.743833 0.787792
v 0.924342 0.913034 0.787792
v -0.927340 0.743833 0.787792
v -0.927340 0.913034 0.787792
v 0.777421 0.743833 -0.833634
v 0.924342 0.743833 -0.708620
v 0.924342 0.913034 -0.708620
v 0.777421 0.913034 -0.833634
v -0.927340 0.743833 -0.708620
v -0.780420 0.743833 -0.833634
v -0.780420 0.913034 -0.833634
v -0.927340 0.913034 -0.708620
v 0.924342 -0.912368 0.787792
v 0.924342 -0.743166 0.787792
v -0.927340 -0.912368 0.787792
v -0.927340 -0.743166 0.787792
v 0.777421 -0.912368 -0.833634
v 0.924342 -0.912368 -0.708620
v 0.924342 -0.743166 -0.708620
v 0.777421 -0.743166 -0.833634
v -0.927340 -0.912368 -0.708620
v -0.780420 -0.912368 -0.833634
v -0.780420 -0.743166 -0.833634
v -0.927340 -0.743166 -0.708620
v 0.924342 -1.240917 0.787792
v 0.924342 -1.071715 0.787792
v -0.927340 -1.240917 0.787792
v -0.927340 -1.071715 0.787792
v 0.777421 -1.240917 -0.833634
v 0.924342 -1.240917 -0.708620
v 0.924342 -1.071715 -0.708620
v 0.777421 -1.071715 -0.833634
v -0.927340 -1.240917 -0.708620
v -0.780420 -1.240917 -0.833634
v -0.780420 -1.071715 -0.833634
v -0.927340 -1.071715 -0.708620
v 0.924342 -0.252825 0.787792
v 0.924342 -0.083623 0.787792
v -0.927340 -0.252825 0.787792
v -0.927340 -0.083623 0.787792
v 0.777421 -0.252825 -0.833634
v 0.924342 -0.252825 -0.708620
v 0.924342 -0.083623 -0.708620
v 0.777421 -0.083623 -0.833634
v -0.927340 -0.252825 -0.708620
v -0.780420 -0.252825 -0.833634
v -0.780420 -0.083623 -0.833634
v -0.927340 -0.083623 -0.708620
v 0.924342 -0.581373 0.787792
v 0.924342 -0.412172 0.787792
v -0.927340 -0.581373 0.787792
v -0.927340 -0.412172 0.787792
v 0.777421 -0.581373 -0.833634
v 0.924342 -0.581373 -0.708620
v 0.924342 -0.412172 -0.708620
v 0.777421 -0.412172 -0.833634
v -0.927340 -0.581373 -0.708620
v -0.780420 -0.581373 -0.833634
v -0.780420 -0.412172 -0.833634
v -0.927340 -0.412172 -0.708620
vt 0.928390 0.315875
vt 0.916456 0.452174
vt 0.916456 0.315875
vt 0.952260 0.687342
vt 0.964195 0.458228
vt 0.964195 0.687342
vt 0.210935 0.471560
vt 0.018179 0.471560
vt 0.000000 0.453381
vt 0.928390 0.477883
vt 0.916456 0.631750
vt 0.916456 0.477883
vt 0.976130 0.179576
vt 0.988065 0.025709
vt 0.988065 0.179576
vt 0.928390 0.452174
vt 0.988065 0.000000
vt 0.976130 0.025709
vt 0.976130 0.000000
vt 0.669163 0.235780
vt 0.476407 0.235780
vt 0.458228 0.217601
vt 0.928390 0.947626
vt 0.940325 0.811327
vt 0.940325 0.947626
vt 0.952260 0.229114
vt 0.964195 0.000000
vt 0.964195 0.229114
vt 0.440049 0.707340
vt 0.247293 0.707340
vt 0.229114 0.689161
vt 0.928390 0.785618
vt 0.940325 0.631750
vt 0.940325 0.785618
vt 0.976130 0.359152
vt 0.988065 0.205285
vt 0.988065 0.359152
vt 0.928390 0.811327
vt 0.988065 0.179576
vt 0.976130 0.205285
vt 0.976130 0.179576
vt 0.898277 0.235780
vt 0.705521 0.235780
vt 0.687342 0.217601
vt 0.940325 0.315875
vt 0.952260 0.179576
vt 0.952260 0.315875
vt 0.952260 0.916455
vt 0.964195 0.687342
vt 0.964195 0.916455
vt 0.210935 0.943120
vt 0.018179 0.943120
vt 0.000000 0.924941
vt 0.940325 0.153867
vt 0.952260 0.000000
vt 0.952260 0.153867
vt 0.976130 0.538728
vt 0.988065 0.384861
vt 0.988065 0.538728
vt 0.940325 0.179576
vt 0.988065 0.359152
vt 0.976130 0.384861
vt 0.976130 0.359152
vt 0.669163 0.943120
vt 0.476407 0.943120
vt 0.458228 0.924941
vt 0.928390 0.631750
vt 0.916455 0.768049
vt 0.916455 0.631750
vt 0.964195 0.458228
vt 0.976130 0.229114
vt 0.976130 0.458228
vt 0.898277 0.943120
vt 0.705521 0.943120
vt 0.687342 0.924941
vt 0.928390 0.793758
vt 0.916455 0.947626
vt 0.916455 0.793758
vt 0.988065 0.359152
vt 1.000000 0.205285
vt 1.000000 0.359152
vt 0.928390 0.768049
vt 1.000000 0.179576
vt 0.988065 0.205285
vt 0.988065 0.179576
vt 0.440049 0.943120
vt 0.247293 0.943120
vt 0.229114 0.924941
vt 0.928390 0.000000
vt 0.916455 0.136299
vt 0.916455 0.000000
vt 0.940325 0.860864
vt 0.952260 0.631750
vt 0.952260 0.860864
vt 0.898277 0.707340
vt 0.705521 0.707340
vt 0.687342 0.689161
vt 0.928390 0.162008
vt 0.916455 0.315875
vt 0.916455 0.162008
vt 0.964195 0.866918
vt 0.976130 0.713050
vt 0.976130 0.866918
vt 0.928390 0.136299
vt 0.976130 0.687342
vt 0.964195 0.713050
vt 0.964195 0.687342
vt 0.898277 0.471560
vt 0.705521 0.471560
vt 0.687342 0.453381
vt 0.940325 0.631750
vt 0.952260 0.495451
vt 0.952260 0.631750
vt 0.952260 0.458228
vt 0.964195 0.229114
vt 0.964195 0.458228
vt 0.669163 0.707340
vt 0.476407 0.707340
vt 0.458228 0.689161
vt 0.940325 0.469743
vt 0.952260 0.315875
vt 0.952260 0.469743
vt 0.976130 0.718304
vt 0.988065 0.564437
vt 0.988065 0.718304
vt 0.940325 0.495451
vt 0.988065 0.538728
vt 0.976130 0.564437
vt 0.976130 0.538728
vt 0.210935 0.707340
vt 0.018179 0.707340
vt 0.000000 0.689161
vt 0.940325 0.315875
vt 0.928390 0.452174
vt 0.928390 0.315875
vt 0.964195 0.229114
vt 0.976130 0.000000
vt 0.976130 0.229114
vt 0.669163 0.471560
vt 0.476407 0.471560
vt 0.458228 0.453381
vt 0.940325 0.477883
vt 0.928390 0.631750
vt 0.928390 0.477883
vt 0.988065 0.179576
vt 1.000000 0.025709
vt 1.000000 0.179576
vt 0.940325 0.452174
vt 1.000000 0.000000
vt 0.988065 0.025709
vt 0.988065 0.000000
vt 0.440049 0.471560
vt 0.247293 0.471560
vt 0.229114 0.453381
vt 0.940325 0.000000
vt 0.928390 0.136299
vt 0.928390 0.000000
vt 0.964195 0.687342
vt 0.976130 0.458228
vt 0.976130 0.687342
vt 0.440049 0.235780
vt 0.247293 0.235780
vt 0.229114 0.217601
vt 0.940325 0.162008
vt 0.928390 0.315875
vt 0.928390 0.162008
vt 0.976130 0.897880
vt 0.988065 0.744013
vt 0.988065 0.897880
vt 0.940325 0.136299
vt 0.988065 0.718304
vt 0.976130 0.744013
vt 0.976130 0.718304
vt 0.210935 0.235780
vt 0.018179 0.235780
vt 0.000000 0.217601
vt 0.952260 0.458228
vt 0.000000 0.235780
vt 0.229114 0.235780
vt 0.229114 0.453381
vt 0.928390 0.631750
vt 0.458228 0.000000
vt 0.687342 0.000000
vt 0.687342 0.217601
vt 0.952260 0.000000
vt 0.229114 0.471560
vt 0.458228 0.471560
vt 0.458228 0.689161
vt 0.928390 0.631750
vt 0.687342 0.000000
vt 0.916455 0.000000
vt 0.916455 0.217601
vt 0.952260 0.687342
vt 0.000000 0.707340
vt 0.229114 0.707340
vt 0.229114 0.924941
vt 0.940325 0.000000
vt 0.458228 0.707340
vt 0.687342 0.707340
vt 0.687342 0.924941
vt 0.964195 0.229114
vt 0.687342 0.707340
vt 0.916455 0.707340
vt 0.916455 0.924941
vt 0.928390 0.947626
vt 0.229114 0.707340
vt 0.458228 0.707340
vt 0.458228 0.924941
vt 0.940325 0.631750
vt 0.687342 0.471560
vt 0.916455 0.471560
vt 0.916455 0.689161
vt 0.928390 0.315875
vt 0.687342 0.235780
vt 0.916455 0.235780
vt 0.916455 0.453381
vt 0.952260 0.229114
vt 0.458228 0.471560
vt 0.687342 0.471560
vt 0.687342 0.689161
vt 0.940325 0.315875
vt 0.000000 0.471560
vt 0.229114 0.471560
vt 0.229114 0.689161
vt 0.964195 0.000000
vt 0.458228 0.235780
vt 0.687342 0.235780
vt 0.687342 0.453381
vt 0.940325 0.631750
vt 0.229114 0.235780
vt 0.458228 0.235780
vt 0.458228 0.453381
vt 0.964195 0.458228
vt 0.229114 0.000000
vt 0.458228 0.000000
vt 0.458228 0.217601
vt 0.940325 0.315875
vt 0.000000 0.000000
vt 0.229114 0.000000
vt 0.229114 0.217601
vn 0.0000 0.0000 -1.0000
vn 0.0000 0.0000 1.0000
vn 0.0000 1.0000 0.0000
vn 1.0000 0.0000 0.0000
vn -1.0000 0.0000 0.0000
vn 0.6480 0.0000 -0.7616
vn -0.6480 0.0000 -0.7616
vn 0.0000 -1.0000 0.0000
s off
f 11/1/1 5/2/1 10/3/1
f 2/4/2 3/5/2 1/6/2
f 8/7/3 11/8/3 12/9/3
f 7/10/4 1/11/4 6/12/4
f 4/13/5 9/14/5 3/15/5
f 8/16/6 6/12/6 5/2/6
f 10/17/7 12/18/7 11/19/7
f 10/20/8 5/21/8 6/22/8
f 23/23/1 17/24/1 22/25/1
f 14/26/2 15/27/2 13/28/2
f 20/29/3 23/30/3 24/31/3
f 19/32/4 13/33/4 18/34/4
f 16/35/5 21/36/5 15/37/5
f 20/38/6 18/34/6 17/24/6
f 22/39/7 24/40/7 23/41/7
f 22/42/8 17/43/8 18/44/8
f 35/45/1 29/46/1 34/47/1
f 26/48/2 27/49/2 25/50/2
f 32/51/3 35/52/3 36/53/3
f 31/54/4 25/55/4 30/56/4
f 28/57/5 33/58/5 27/59/5
f 32/60/6 30/56/6 29/46/6
f 34/61/7 36/62/7 35/63/7
f 34/64/8 29/65/8 30/66/8
f 47/67/1 41/68/1 46/69/1
f 38/70/2 39/71/2 37/72/2
f 44/73/3 47/74/3 48/75/3
f 43/76/4 37/77/4 42/78/4
f 40/79/5 45/80/5 39/81/5
f 44/82/6 42/78/6 41/68/6
f 46/83/7 48/84/7 47/85/7
f 46/86/8 41/87/8 42/88/8
f 59/89/1 53/90/1 58/91/1
f 50/92/2 51/93/2 49/94/2
f 56/95/3 59/96/3 60/97/3
f 55/98/4 49/99/4 54/100/4
f 52/101/5 57/102/5 51/103/5
f 56/104/6 54/100/6 53/90/6
f 58/105/7 60/106/7 59/107/7
f 58/108/8 53/109/8 54/110/8
f 71/111/1 65/112/1 70/113/1
f 62/114/2 63/115/2 61/116/2
f 68/117/3 71/118/3 72/119/3
f 67/120/4 61/121/4 66/122/4
f 64/123/5 69/124/5 63/125/5
f 68/126/6 66/122/6 65/112/6
f 70/127/7 72/128/7 71/129/7
f 70/130/8 65/131/8 66/132/8
f 83/133/1 77/134/1 82/135/1
f 74/136/2 75/137/2 73/138/2
f 80/139/3 83/140/3 84/141/3
f 79/142/4 73/143/4 78/144/4
f 76/145/5 81/146/5 75/147/5
f 80/148/6 78/144/6 77/134/6
f 82/149/7 84/150/7 83/151/7
f 82/152/8 77/153/8 78/154/8
f 95/155/1 89/156/1 94/157/1
f 86/158/2 87/159/2 85/160/2
f 92/161/3 95/162/3 96/163/3
f 91/164/4 85/165/4 90/166/4
f 88/167/5 93/168/5 87/169/5
f 92/170/6 90/166/6 89/156/6
f 94/171/7 96/172/7 95/173/7
f 94/174/8 89/175/8 90/176/8
f 11/1/1 8/16/1 5/2/1
f 2/4/2 4/177/2 3/5/2
f 12/9/3 4/178/3 2/179/3
f 2/179/3 7/180/3 12/9/3
f 7/180/3 8/7/3 12/9/3
f 7/10/4 2/181/4 1/11/4
f 4/13/5 12/18/5 9/14/5
f 8/16/6 7/10/6 6/12/6
f 10/17/7 9/14/7 12/18/7
f 6/22/8 1/182/8 3/183/8
f 3/183/8 9/184/8 6/22/8
f 9/184/8 10/20/8 6/22/8
f 23/23/1 20/38/1 17/24/1
f 14/26/2 16/185/2 15/27/2
f 24/31/3 16/186/3 14/187/3
f 14/187/3 19/188/3 24/31/3
f 19/188/3 20/29/3 24/31/3
f 19/32/4 14/189/4 13/33/4
f 16/35/5 24/40/5 21/36/5
f 20/38/6 19/32/6 18/34/6
f 22/39/7 21/36/7 24/40/7
f 18/44/8 13/190/8 15/191/8
f 15/191/8 21/192/8 18/44/8
f 21/192/8 22/42/8 18/44/8
f 35/45/1 32/60/1 29/46/1
f 26/48/2 28/193/2 27/49/2
f 36/53/3 28/194/3 26/195/3
f 26/195/3 31/196/3 36/53/3
f 31/196/3 32/51/3 36/53/3
f 31/54/4 26/197/4 25/55/4
f 28/57/5 36/62/5 33/58/5
f 32/60/6 31/54/6 30/56/6
f 34/61/7 33/58/7 36/62/7
f 30/66/8 25/198/8 27/199/8
f 27/199/8 33/200/8 30/66/8
f 33/200/8 34/64/8 30/66/8
f 47/67/1 44/82/1 41/68/1
f 38/70/2 40/201/2 39/71/2
f 48/75/3 40/202/3 38/203/3
f 38/203/3 43/204/3 48/75/3
f 43/204/3 44/73/3 48/75/3
f 43/76/4 38/205/4 37/77/4
f 40/79/5 48/84/5 45/80/5
f 44/82/6 43/76/6 42/78/6
f 46/83/7 45/80/7 48/84/7
f 42/88/8 37/206/8 39/207/8
f 39/207/8 45/208/8 42/88/8
f 45/208/8 46/86/8 42/88/8
f 59/89/1 56/104/1 53/90/1
f 50/92/2 52/209/2 51/93/2
f 60/97/3 52/210/3 50/211/3
f 50/211/3 55/212/3 60/97/3
f 55/212/3 56/95/3 60/97/3
f 55/98/4 50/213/4 49/99/4
f 52/101/5 60/106/5 57/102/5
f 56/104/6 55/98/6 54/100/6
f 58/105/7 57/102/7 60/106/7
f 54/110/8 49/214/8 51/215/8
f 51/215/8 57/216/8 54/110/8
f 57/216/8 58/108/8 54/110/8
f 71/111/1 68/126/1 65/112/1
f 62/114/2 64/217/2 63/115/2
f 72/119/3 64/218/3 62/219/3
f 62/219/3 67/220/3 72/119/3
f 67/220/3 68/117/3 72/119/3
f 67/120/4 62/221/4 61/121/4
f 64/123/5 72/128/5 69/124/5
f 68/126/6 67/120/6 66/122/6
f 70/127/7 69/124/7 72/128/7
f 66/132/8 61/222/8 63/223/8
f 63/223/8 69/224/8 66/132/8
f 69/224/8 70/130/8 66/132/8
f 83/133/1 80/148/1 77/134/1
f 74/136/2 76/225/2 75/137/2
f 84/141/3 76/226/3 74/227/3
f 74/227/3 79/228/3 84/141/3
f 79/228/3 80/139/3 84/141/3
f 79/142/4 74/229/4 73/143/4
f 76/145/5 84/150/5 81/146/5
f 80/148/6 79/142/6 78/144/6
f 82/149/7 81/146/7 84/150/7
f 78/154/8 73/230/8 75/231/8
f 75/231/8 81/232/8 78/154/8
f 81/232/8 82/152/8 78/154/8
f 95/155/1 92/170/1 89/156/1
f 86/158/2 88/233/2 87/159/2
f 96/163/3 88/234/3 86/235/3
f 86/235/3 91/236/3 96/163/3
f 91/236/3 92/161/3 96/163/3
f 91/164/4 86/237/4 85/165/4
f 88/167/5 96/172/5 93/168/5
f 92/170/6 91/164/6 90/166/6
f 94/171/7 93/168/7 96/172/7
f 90/176/8 85/238/8 87/239/8
f 87/239/8 93/240/8 90/176/8
f 93/240/8 94/174/8 90/176/8
