# Blender v3.4.1 OBJ File: 'buildings.blend'
# www.blender.org
o Cube.003_Cube.004
v 0.317270 -0.539235 -0.994118
v 0.317270 -0.506180 -0.994118
v 0.317270 -0.539235 0.994118
v 0.317270 -0.506180 0.994118
v -0.317270 -0.539235 -0.994118
v -0.317270 -0.506180 -0.994118
v -0.317270 -0.539235 0.994118
v -0.317270 -0.506180 0.994118
v 0.593860 -0.305019 -0.994118
v 0.593860 -0.235125 -0.994118
v 0.593860 -0.305019 0.994118
v 0.593860 -0.235125 0.994118
v -0.593860 -0.305019 -0.994118
v -0.593860 -0.235125 -0.994118
v -0.593860 -0.305019 0.994118
v -0.593860 -0.235125 0.994118
v 0.331542 -0.611020 -0.994118
v 0.331542 -0.541126 -0.994118
v 0.331542 -0.611020 0.994118
v 0.331542 -0.541126 0.994118
v 0.265244 -0.611020 -0.994118
v 0.265244 -0.541126 -0.994118
v 0.265244 -0.611020 0.994118
v 0.265244 -0.541126 0.994118
v -0.331542 -0.611020 0.994118
v -0.331542 -0.541126 0.994118
v -0.331543 -0.611020 -0.994118
v -0.331543 -0.541126 -0.994118
v -0.265244 -0.611020 0.994118
v -0.265244 -0.541126 0.994118
v -0.265245 -0.611020 -0.994118
v -0.265245 -0.541126 -0.994118
vt 0.625000 0.000000
vt 0.375000 0.250000
vt 0.375000 0.000000
vt 0.625000 0.250000
vt 0.375000 0.500000
vt 0.625000 0.500000
vt 0.375000 0.750000
vt 0.625000 0.750000
vt 0.375000 1.000000
vt 0.125000 0.750000
vt 0.125000 0.500000
vt 0.875000 0.500000
vt 0.625000 0.000000
vt 0.375000 0.250000
vt 0.375000 0.000000
vt 0.625000 0.250000
vt 0.375000 0.500000
vt 0.625000 0.500000
vt 0.375000 0.750000
vt 0.625000 0.750000
vt 0.375000 1.000000
vt 0.125000 0.750000
vt 0.125000 0.500000
vt 0.875000 0.500000
vt 0.625000 0.000000
vt 0.375000 0.250000
vt 0.375000 0.000000
vt 0.625000 0.250000
vt 0.375000 0.500000
vt 0.625000 0.500000
vt 0.375000 0.750000
vt 0.625000 0.750000
vt 0.375000 1.000000
vt 0.125000 0.750000
vt 0.125000 0.500000
vt 0.875000 0.500000
vt 0.625000 0.000000
vt 0.375000 0.250000
vt 0.375000 0.000000
vt 0.625000 0.250000
vt 0.375000 0.500000
vt 0.625000 0.500000
vt 0.375000 0.750000
vt 0.625000 0.750000
vt 0.375000 1.000000
vt 0.125000 0.750000
vt 0.125000 0.500000
vt 0.875000 0.750000
vt 0.625000 1.000000
vt 0.875000 0.750000
vt 0.625000 1.000000
vt 0.875000 0.750000
vt 0.625000 1.000000
vt 0.875000 0.750000
vt 0.625000 1.000000
vt 0.875000 0.500000
vn 1.0000 0.0000 0.0000
vn 0.0000 0.0000 1.0000
vn -1.0000 0.0000 0.0000
vn 0.0000 0.0000 -1.0000
vn 0.0000 -1.0000 0.0000
vn 0.0000 1.0000 0.0000
s off
f 2/1/1 3/2/1 1/3/1
f 4/4/2 7/5/2 3/2/2
f 8/6/3 5/7/3 7/5/3
f 6/8/4 1/9/4 5/7/4
f 7/5/5 1/10/5 3/11/5
f 4/12/6 6/8/6 8/6/6
f 10/13/1 11/14/1 9/15/1
f 12/16/2 15/17/2 11/14/2
f 16/18/3 13/19/3 15/17/3
f 14/20/4 9/21/4 13/19/4
f 15/17/5 9/22/5 11/23/5
f 12/24/6 14/20/6 16/18/6
f 18/25/1 19/26/1 17/27/1
f 20/28/2 23/29/2 19/26/2
f 24/30/3 21/31/3 23/29/3
f 22/32/4 17/33/4 21/31/4
f 23/29/5 17/34/5 19/35/5
f 20/36/6 22/32/6 24/30/6
f 26/37/3 27/38/3 25/39/3
f 28/40/4 31/41/4 27/38/4
f 32/42/1 29/43/1 31/41/1
f 30/44/2 25/45/2 29/43/2
f 31/41/5 25/46/5 27/47/5
f 32/42/6 26/48/6 30/44/6
f 2/1/1 4/4/1 3/2/1
f 4/4/2 8/6/2 7/5/2
f 8/6/3 6/8/3 5/7/3
f 6/8/4 2/49/4 1/9/4
f 7/5/5 5/7/5 1/10/5
f 4/12/6 2/50/6 6/8/6
f 10/13/1 12/16/1 11/14/1
f 12/16/2 16/18/2 15/17/2
f 16/18/3 14/20/3 13/19/3
f 14/20/4 10/51/4 9/21/4
f 15/17/5 13/19/5 9/22/5
f 12/24/6 10/52/6 14/20/6
f 18/25/1 20/28/1 19/26/1
f 20/28/2 24/30/2 23/29/2
f 24/30/3 22/32/3 21/31/3
f 22/32/4 18/53/4 17/33/4
f 23/29/5 21/31/5 17/34/5
f 20/36/6 18/54/6 22/32/6
f 26/37/3 28/40/3 27/38/3
f 28/40/4 32/42/4 31/41/4
f 32/42/1 30/44/1 29/43/1
f 30/44/2 26/55/2 25/45/2
f 31/41/5 29/43/5 25/46/5
f 32/42/6 28/56/6 26/48/6
o Cube.001_Cube.011
v -0.271908 -0.526137 0.834770
v -0.589672 -0.298540 0.834770
v -0.271908 -0.526137 0.777020
v -0.589672 -0.298540 0.777020
v -0.184622 -0.512560 0.834770
v -0.553649 -0.248246 0.834770
v -0.184622 -0.512560 0.777020
v -0.553649 -0.248246 0.777020
v -0.271908 -0.526137 0.028875
v -0.589673 -0.298540 0.028875
v -0.271908 -0.526137 -0.028875
v -0.589673 -0.298540 -0.028875
v -0.184622 -0.512560 0.028875
v -0.553650 -0.248246 0.028875
v -0.184622 -0.512560 -0.028875
v -0.553650 -0.248246 -0.028875
v -0.271908 -0.526137 0.443042
v -0.589673 -0.298540 0.443042
v -0.271908 -0.526137 0.385292
v -0.589673 -0.298540 0.385292
v -0.184622 -0.512560 0.443042
v -0.553650 -0.248246 0.443042
v -0.184622 -0.512560 0.385292
v -0.553650 -0.248246 0.385292
v -0.271908 -0.526137 -0.382750
v -0.589673 -0.298540 -0.382750
v -0.271908 -0.526137 -0.440500
v -0.589673 -0.298540 -0.440500
v -0.184622 -0.512560 -0.382750
v -0.553650 -0.248246 -0.382750
v -0.184622 -0.512560 -0.440500
v -0.553650 -0.248246 -0.440500
v -0.271908 -0.526137 -0.796340
v -0.589673 -0.298540 -0.796340
v -0.271908 -0.526137 -0.854090
v -0.589673 -0.298540 -0.854090
v -0.184622 -0.512560 -0.796340
v -0.553650 -0.248246 -0.796340
v -0.184622 -0.512560 -0.854090
v -0.553650 -0.248246 -0.854090
v 0.271908 -0.526137 -0.834770
v 0.589673 -0.298541 -0.834770
v 0.271908 -0.526137 -0.777020
v 0.589673 -0.298541 -0.777020
v 0.184622 -0.512560 -0.834770
v 0.553650 -0.248246 -0.834770
v 0.184622 -0.512560 -0.777020
v 0.553650 -0.248246 -0.777020
v 0.271908 -0.526137 -0.028875
v 0.589673 -0.298540 -0.028875
v 0.271908 -0.526137 0.028875
v 0.589673 -0.298540 0.028875
v 0.184622 -0.512560 -0.028875
v 0.553650 -0.248246 -0.028875
v 0.184622 -0.512560 0.028875
v 0.553650 -0.248246 0.028875
v 0.271908 -0.526137 -0.443042
v 0.589673 -0.298540 -0.443042
v 0.271908 -0.526137 -0.385292
v 0.589673 -0.298540 -0.385292
v 0.184622 -0.512560 -0.443042
v 0.553650 -0.248246 -0.443042
v 0.184622 -0.512560 -0.385292
v 0.553650 -0.248246 -0.385292
v 0.271908 -0.526137 0.382750
v 0.589673 -0.298540 0.382750
v 0.271908 -0.526137 0.440500
v 0.589673 -0.298540 0.440500
v 0.184622 -0.512560 0.382750
v 0.553650 -0.248246 0.382750
v 0.184622 -0.512560 0.440500
v 0.553650 -0.248246 0.440500
v 0.271908 -0.526137 0.796340
v 0.589673 -0.298540 0.796340
v 0.271908 -0.526137 0.854090
v 0.589673 -0.298540 0.854091
v 0.184622 -0.512560 0.796340
v 0.553650 -0.248246 0.796340
v 0.184622 -0.512560 0.854090
v 0.553650 -0.248246 0.854090
vt 0.625000 0.000000
vt 0.375000 0.250000
vt 0.375000 0.000000
vt 0.625000 0.500000
vt 0.375000 0.500000
vt 0.375000 0.750000
vt 0.625000 0.750000
vt 0.375000 1.000000
vt 0.125000 0.750000
vt 0.125000 0.500000
vt 0.875000 0.500000
vt 0.625000 0.000000
vt 0.375000 0.250000
vt 0.375000 0.000000
vt 0.625000 0.500000
vt 0.375000 0.500000
vt 0.375000 0.750000
vt 0.625000 0.750000
vt 0.375000 1.000000
vt 0.125000 0.750000
vt 0.125000 0.500000
vt 0.875000 0.500000
vt 0.625000 0.000000
vt 0.375000 0.250000
vt 0.375000 0.000000
vt 0.625000 0.500000
vt 0.375000 0.500000
vt 0.375000 0.750000
vt 0.625000 0.750000
vt 0.375000 1.000000
vt 0.125000 0.750000
vt 0.125000 0.500000
vt 0.875000 0.500000
vt 0.625000 0.000000
vt 0.375000 0.250000
vt 0.375000 0.000000
vt 0.625000 0.500000
vt 0.375000 0.500000
vt 0.375000 0.750000
vt 0.625000 0.750000
vt 0.375000 1.000000
vt 0.125000 0.750000
vt 0.125000 0.500000
vt 0.875000 0.500000
vt 0.625000 0.000000
vt 0.375000 0.250000
vt 0.375000 0.000000
vt 0.625000 0.500000
vt 0.375000 0.500000
vt 0.375000 0.750000
vt 0.625000 0.750000
vt 0.375000 1.000000
vt 0.125000 0.750000
vt 0.125000 0.500000
vt 0.875000 0.500000
vt 0.625000 0.000000
vt 0.375000 0.250000
vt 0.375000 0.000000
vt 0.625000 0.500000
vt 0.375000 0.500000
vt 0.625000 0.750000
vt 0.375000 0.750000
vt 0.375000 1.000000
vt 0.125000 0.750000
vt 0.125000 0.500000
vt 0.875000 0.750000
vt 0.625000 0.000000
vt 0.375000 0.250000
vt 0.375000 0.000000
vt 0.625000 0.500000
vt 0.375000 0.500000
vt 0.375000 0.750000
vt 0.625000 0.750000
vt 0.375000 1.000000
vt 0.125000 0.750000
vt 0.125000 0.500000
vt 0.875000 0.750000
vt 0.625000 0.000000
vt 0.375000 0.250000
vt 0.375000 0.000000
vt 0.625000 0.500000
vt 0.375000 0.500000
vt 0.375000 0.750000
vt 0.625000 0.750000
vt 0.375000 1.000000
vt 0.125000 0.500000
vt 0.125000 0.750000
vt 0.875000 0.500000
vt 0.625000 0.000000
vt 0.375000 0.250000
vt 0.375000 0.000000
vt 0.625000 0.500000
vt 0.375000 0.500000
vt 0.375000 0.750000
vt 0.625000 0.750000
vt 0.375000 1.000000
vt 0.125000 0.750000
vt 0.125000 0.500000
vt 0.875000 0.500000
vt 0.625000 0.000000
vt 0.375000 0.250000
vt 0.375000 0.000000
vt 0.625000 0.500000
vt 0.375000 0.500000
vt 0.375000 0.750000
vt 0.625000 0.750000
vt 0.375000 1.000000
vt 0.125000 0.750000
vt 0.125000 0.500000
vt 0.875000 0.750000
vt 0.625000 0.250000
vt 0.625000 1.000000
vt 0.875000 0.750000
vt 0.625000 0.250000
vt 0.625000 1.000000
vt 0.875000 0.750000
vt 0.625000 0.250000
vt 0.625000 1.000000
vt 0.875000 0.750000
vt 0.625000 0.250000
vt 0.625000 1.000000
vt 0.875000 0.750000
vt 0.625000 0.250000
vt 0.625000 1.000000
vt 0.875000 0.750000
vt 0.625000 0.250000
vt 0.625000 1.000000
vt 0.875000 0.500000
vt 0.625000 0.250000
vt 0.625000 1.000000
vt 0.875000 0.500000
vt 0.625000 0.250000
vt 0.625000 1.000000
vt 0.875000 0.750000
vt 0.625000 0.250000
vt 0.625000 1.000000
vt 0.875000 0.750000
vt 0.625000 0.250000
vt 0.625000 1.000000
vt 0.875000 0.500000
vn -0.5823 -0.8130 0.0000
vn 0.0000 -0.0000 -1.0000
vn 0.5823 0.8130 0.0000
vn 0.0000 0.0000 1.0000
vn 0.1537 -0.9881 0.0000
vn -0.8130 0.5823 0.0000
vn 0.5823 -0.8130 -0.0000
vn -0.5823 0.8130 -0.0000
vn -0.1537 -0.9881 0.0000
vn 0.8130 0.5823 0.0000
s off
f 34/57/7 35/58/7 33/59/7
f 35/58/8 40/60/8 39/61/8
f 40/60/9 37/62/9 39/61/9
f 38/63/10 33/64/10 37/62/10
f 39/61/11 33/65/11 35/66/11
f 36/67/12 38/63/12 40/60/12
f 42/68/7 43/69/7 41/70/7
f 43/69/8 48/71/8 47/72/8
f 48/71/9 45/73/9 47/72/9
f 46/74/10 41/75/10 45/73/10
f 47/72/11 41/76/11 43/77/11
f 44/78/12 46/74/12 48/71/12
f 50/79/7 51/80/7 49/81/7
f 51/80/8 56/82/8 55/83/8
f 56/82/9 53/84/9 55/83/9
f 54/85/10 49/86/10 53/84/10
f 55/83/11 49/87/11 51/88/11
f 52/89/12 54/85/12 56/82/12
f 58/90/7 59/91/7 57/92/7
f 59/91/8 64/93/8 63/94/8
f 64/93/9 61/95/9 63/94/9
f 62/96/10 57/97/10 61/95/10
f 63/94/11 57/98/11 59/99/11
f 60/100/12 62/96/12 64/93/12
f 66/101/7 67/102/7 65/103/7
f 67/102/8 72/104/8 71/105/8
f 72/104/9 69/106/9 71/105/9
f 70/107/10 65/108/10 69/106/10
f 71/105/11 65/109/11 67/110/11
f 68/111/12 70/107/12 72/104/12
f 74/112/13 75/113/13 73/114/13
f 75/113/10 80/115/10 79/116/10
f 79/116/14 78/117/14 77/118/14
f 78/117/8 73/119/8 77/118/8
f 79/116/15 73/120/15 75/121/15
f 80/115/16 74/122/16 78/117/16
f 82/123/13 83/124/13 81/125/13
f 83/124/10 88/126/10 87/127/10
f 88/126/14 85/128/14 87/127/14
f 86/129/8 81/130/8 85/128/8
f 87/127/15 81/131/15 83/132/15
f 88/126/16 82/133/16 86/129/16
f 90/134/13 91/135/13 89/136/13
f 91/135/10 96/137/10 95/138/10
f 96/137/14 93/139/14 95/138/14
f 94/140/8 89/141/8 93/139/8
f 91/142/15 93/139/15 89/143/15
f 92/144/16 94/140/16 96/137/16
f 98/145/13 99/146/13 97/147/13
f 99/146/10 104/148/10 103/149/10
f 104/148/14 101/150/14 103/149/14
f 102/151/8 97/152/8 101/150/8
f 103/149/15 97/153/15 99/154/15
f 100/155/16 102/151/16 104/148/16
f 106/156/13 107/157/13 105/158/13
f 107/157/10 112/159/10 111/160/10
f 112/159/14 109/161/14 111/160/14
f 110/162/8 105/163/8 109/161/8
f 111/160/15 105/164/15 107/165/15
f 112/159/16 106/166/16 110/162/16
f 34/57/7 36/167/7 35/58/7
f 35/58/8 36/167/8 40/60/8
f 40/60/9 38/63/9 37/62/9
f 38/63/10 34/168/10 33/64/10
f 39/61/11 37/62/11 33/65/11
f 36/67/12 34/169/12 38/63/12
f 42/68/7 44/170/7 43/69/7
f 43/69/8 44/170/8 48/71/8
f 48/71/9 46/74/9 45/73/9
f 46/74/10 42/171/10 41/75/10
f 47/72/11 45/73/11 41/76/11
f 44/78/12 42/172/12 46/74/12
f 50/79/7 52/173/7 51/80/7
f 51/80/8 52/173/8 56/82/8
f 56/82/9 54/85/9 53/84/9
f 54/85/10 50/174/10 49/86/10
f 55/83/11 53/84/11 49/87/11
f 52/89/12 50/175/12 54/85/12
f 58/90/7 60/176/7 59/91/7
f 59/91/8 60/176/8 64/93/8
f 64/93/9 62/96/9 61/95/9
f 62/96/10 58/177/10 57/97/10
f 63/94/11 61/95/11 57/98/11
f 60/100/12 58/178/12 62/96/12
f 66/101/7 68/179/7 67/102/7
f 67/102/8 68/179/8 72/104/8
f 72/104/9 70/107/9 69/106/9
f 70/107/10 66/180/10 65/108/10
f 71/105/11 69/106/11 65/109/11
f 68/111/12 66/181/12 70/107/12
f 74/112/13 76/182/13 75/113/13
f 75/113/10 76/182/10 80/115/10
f 79/116/14 80/115/14 78/117/14
f 78/117/8 74/183/8 73/119/8
f 79/116/15 77/118/15 73/120/15
f 80/115/16 76/184/16 74/122/16
f 82/123/13 84/185/13 83/124/13
f 83/124/10 84/185/10 88/126/10
f 88/126/14 86/129/14 85/128/14
f 86/129/8 82/186/8 81/130/8
f 87/127/15 85/128/15 81/131/15
f 88/126/16 84/187/16 82/133/16
f 90/134/13 92/188/13 91/135/13
f 91/135/10 92/188/10 96/137/10
f 96/137/14 94/140/14 93/139/14
f 94/140/8 90/189/8 89/141/8
f 91/142/15 95/138/15 93/139/15
f 92/144/16 90/190/16 94/140/16
f 98/145/13 100/191/13 99/146/13
f 99/146/10 100/191/10 104/148/10
f 104/148/14 102/151/14 101/150/14
f 102/151/8 98/192/8 97/152/8
f 103/149/15 101/150/15 97/153/15
f 100/155/16 98/193/16 102/151/16
f 106/156/13 108/194/13 107/157/13
f 107/157/10 108/194/10 112/159/10
f 112/159/14 110/162/14 109/161/14
f 110/162/8 106/195/8 105/163/8
f 111/160/15 109/161/15 105/164/15
f 112/159/16 108/196/16 106/166/16
o Cube.002_Cube.016
v -0.008682 0.765090 0.984448
v 0.002737 0.779699 0.984448
v -0.008683 0.765090 -0.984448
v 0.002736 0.779699 -0.984448
v 0.586083 0.300222 0.984448
v 0.597502 0.314832 0.984448
v 0.586083 0.300222 -0.984448
v 0.597502 0.314832 -0.984448
v -0.008556 0.765090 -0.984448
v -0.019975 0.779699 -0.984448
v -0.008556 0.765090 0.984448
v -0.019975 0.779699 0.984448
v -0.603322 0.300222 -0.984448
v -0.614741 0.314832 -0.984448
v -0.603322 0.300222 0.984448
v -0.614741 0.314832 0.984448
vt 0.625000 0.000000
vt 0.375000 0.250000
vt 0.375000 0.000000
vt 0.625000 0.250000
vt 0.375000 0.500000
vt 0.625000 0.500000
vt 0.375000 0.750000
vt 0.625000 0.750000
vt 0.375000 1.000000
vt 0.125000 0.750000
vt 0.125000 0.500000
vt 0.875000 0.500000
vt 0.375000 0.000000
vt 0.625000 0.250000
vt 0.375000 0.250000
vt 0.625000 0.500000
vt 0.375000 0.500000
vt 0.375000 0.750000
vt 0.625000 0.750000
vt 0.375000 1.000000
vt 0.125000 0.500000
vt 0.125000 0.750000
vt 0.875000 0.500000
vt 0.625000 1.000000
vt 0.875000 0.750000
vt 0.625000 0.000000
vt 0.625000 1.000000
vt 0.875000 0.750000
vn -0.7879 0.6158 0.0000
vn 0.0000 0.0000 -1.0000
vn 0.7879 -0.6158 -0.0000
vn 0.0000 -0.0000 1.0000
vn -0.6158 -0.7879 0.0000
vn 0.6158 0.7879 -0.0000
vn 0.7879 0.6158 0.0000
vn -0.7879 -0.6158 -0.0000
vn 0.6158 -0.7879 0.0000
vn -0.6158 0.7879 0.0000
s off
f 114/197/17 115/198/17 113/199/17
f 116/200/18 119/201/18 115/198/18
f 120/202/19 117/203/19 119/201/19
f 118/204/20 113/205/20 117/203/20
f 119/201/21 113/206/21 115/207/21
f 116/208/22 118/204/22 120/202/22
f 121/209/23 124/210/23 123/211/23
f 123/211/20 128/212/20 127/213/20
f 128/212/24 125/214/24 127/213/24
f 126/215/18 121/216/18 125/214/18
f 123/217/25 125/214/25 121/218/25
f 124/219/26 126/215/26 128/212/26
f 114/197/17 116/200/17 115/198/17
f 116/200/18 120/202/18 119/201/18
f 120/202/19 118/204/19 117/203/19
f 118/204/20 114/220/20 113/205/20
f 119/201/21 117/203/21 113/206/21
f 116/208/22 114/221/22 118/204/22
f 121/209/23 122/222/23 124/210/23
f 123/211/20 124/210/20 128/212/20
f 128/212/24 126/215/24 125/214/24
f 126/215/18 122/223/18 121/216/18
f 123/217/25 127/213/25 125/214/25
f 124/219/26 122/224/26 126/215/26
o Cube_Cube.018
v 0.026581 0.749042 -0.984706
v 0.026581 0.787030 -0.984706
v 0.026581 0.749042 0.984706
v 0.026581 0.787030 0.984706
v -0.044480 0.749042 -0.984706
v -0.044480 0.787030 -0.984706
v -0.044480 0.749042 0.984706
v -0.044480 0.787030 0.984706
vt 0.625000 0.000000
vt 0.375000 0.250000
vt 0.375000 0.000000
vt 0.625000 0.250000
vt 0.375000 0.500000
vt 0.625000 0.500000
vt 0.375000 0.750000
vt 0.625000 0.750000
vt 0.375000 1.000000
vt 0.125000 0.750000
vt 0.125000 0.500000
vt 0.875000 0.500000
vt 0.625000 1.000000
vt 0.875000 0.750000
vn 1.0000 0.0000 0.0000
vn 0.0000 0.0000 1.0000
vn -1.0000 0.0000 0.0000
vn 0.0000 0.0000 -1.0000
vn 0.0000 -1.0000 0.0000
vn 0.0000 1.0000 0.0000
s off
f 130/225/27 131/226/27 129/227/27
f 132/228/28 135/229/28 131/226/28
f 136/230/29 133/231/29 135/229/29
f 134/232/30 129/233/30 133/231/30
f 135/229/31 129/234/31 131/235/31
f 132/236/32 134/232/32 136/230/32
f 130/225/27 132/228/27 131/226/27
f 132/228/28 136/230/28 135/229/28
f 136/230/29 134/232/29 133/231/29
f 134/232/30 130/237/30 129/233/30
f 135/229/31 133/231/31 129/234/31
f 132/236/32 130/238/32 134/232/32
