# Blender v3.4.1 OBJ File: 'buildings.blend'
# www.blender.org
o Bridge_2_Floor_Cube.024
v -0.325787 0.000114 1.000000
v -0.325787 0.039693 1.000000
v -0.325787 0.000114 -1.000000
v -0.325787 0.039693 -1.000000
v 0.325787 0.000114 1.000000
v 0.325787 0.039693 1.000000
v 0.325787 0.000114 -1.000000
v 0.325787 0.039693 -1.000000
v -0.325787 0.080434 -0.714286
v -0.325787 0.124216 -0.428571
v -0.325787 0.142514 -0.142857
v -0.325787 0.142514 0.142857
v -0.325787 0.124216 0.428571
v -0.325787 0.080434 0.714286
v -0.325787 0.120013 0.714286
v -0.325787 0.163795 0.428571
v -0.325787 0.182094 0.142857
v -0.325787 0.182094 -0.142857
v -0.325787 0.163795 -0.428571
v -0.325787 0.120013 -0.714286
v 0.325787 0.080434 0.714286
v 0.325787 0.124216 0.428571
v 0.325787 0.142514 0.142857
v 0.325787 0.142514 -0.142857
v 0.325787 0.124216 -0.428571
v 0.325787 0.080434 -0.714286
v 0.325787 0.120013 -0.714286
v 0.325787 0.163795 -0.428571
v 0.325787 0.182094 -0.142857
v 0.325787 0.182094 0.142857
v 0.325787 0.163795 0.428571
v 0.325787 0.120013 0.714286
v -0.289305 -0.079501 1.000000
v -0.289305 0.009874 1.000000
v -0.289305 -0.079501 -1.000000
v -0.289305 0.009874 -1.000000
v 0.289305 -0.079501 1.000000
v 0.289305 0.009874 1.000000
v 0.289305 -0.079501 -1.000000
v 0.289305 0.009874 -1.000000
v -0.289305 0.000820 -0.714286
v -0.289305 0.044601 -0.428571
v -0.289305 0.062900 -0.142857
v -0.289305 0.062900 0.142857
v -0.289305 0.044601 0.428571
v -0.289305 0.000820 0.714286
v -0.289305 0.090194 0.714286
v -0.289305 0.133976 0.428571
v -0.289305 0.152274 0.142857
v -0.289305 0.152274 -0.142857
v -0.289305 0.133976 -0.428571
v -0.289305 0.090194 -0.714286
v 0.289305 0.000820 0.714286
v 0.289305 0.044601 0.428571
v 0.289305 0.062900 0.142857
v 0.289305 0.062900 -0.142857
v 0.289305 0.044601 -0.428571
v 0.289305 0.000820 -0.714286
v 0.289305 0.090194 -0.714286
v 0.289305 0.133976 -0.428571
v 0.289305 0.152274 -0.142857
v 0.289305 0.152274 0.142857
v 0.289305 0.133976 0.428571
v 0.289305 0.090194 0.714286
vt 0.375000 0.214286
vt 0.625000 0.250000
vt 0.375000 0.250000
vt 0.375000 0.500000
vt 0.375000 0.714286
vt 0.625000 0.750000
vt 0.375000 0.750000
vt 0.375000 1.000000
vt 0.125000 0.750000
vt 0.125000 0.714286
vt 0.875000 0.714286
vt 0.625000 0.714286
vt 0.875000 0.500000
vt 0.625000 0.535714
vt 0.625000 0.500000
vt 0.875000 0.535714
vt 0.625000 0.571429
vt 0.875000 0.571429
vt 0.625000 0.607143
vt 0.875000 0.607143
vt 0.625000 0.642857
vt 0.875000 0.642857
vt 0.625000 0.678571
vt 0.875000 0.678571
vt 0.125000 0.535714
vt 0.125000 0.500000
vt 0.375000 0.535714
vt 0.125000 0.571429
vt 0.375000 0.571429
vt 0.125000 0.607143
vt 0.375000 0.607143
vt 0.125000 0.642857
vt 0.375000 0.642857
vt 0.125000 0.678571
vt 0.375000 0.678571
vt 0.625000 0.000000
vt 0.375000 0.035714
vt 0.375000 0.000000
vt 0.625000 0.035714
vt 0.375000 0.071429
vt 0.625000 0.071429
vt 0.375000 0.107143
vt 0.625000 0.107143
vt 0.375000 0.142857
vt 0.625000 0.178571
vt 0.375000 0.178571
vt 0.625000 0.214286
vt 0.375000 0.214286
vt 0.625000 0.250000
vt 0.375000 0.250000
vt 0.375000 0.500000
vt 0.375000 0.714286
vt 0.625000 0.750000
vt 0.375000 0.750000
vt 0.375000 1.000000
vt 0.125000 0.750000
vt 0.125000 0.714286
vt 0.875000 0.714286
vt 0.625000 0.714286
vt 0.875000 0.500000
vt 0.625000 0.535714
vt 0.625000 0.500000
vt 0.875000 0.535714
vt 0.625000 0.571429
vt 0.875000 0.571429
vt 0.625000 0.607143
vt 0.875000 0.607143
vt 0.625000 0.642857
vt 0.875000 0.642857
vt 0.625000 0.678571
vt 0.875000 0.678571
vt 0.125000 0.535714
vt 0.125000 0.500000
vt 0.375000 0.535714
vt 0.125000 0.571429
vt 0.375000 0.571429
vt 0.125000 0.607143
vt 0.375000 0.607143
vt 0.125000 0.642857
vt 0.375000 0.642857
vt 0.125000 0.678571
vt 0.375000 0.678571
vt 0.625000 0.000000
vt 0.375000 0.035714
vt 0.375000 0.000000
vt 0.625000 0.035714
vt 0.375000 0.071429
vt 0.625000 0.071429
vt 0.375000 0.107143
vt 0.625000 0.107143
vt 0.375000 0.142857
vt 0.625000 0.178571
vt 0.375000 0.178571
vt 0.625000 0.214286
vt 0.625000 1.000000
vt 0.875000 0.750000
vt 0.625000 0.142857
vt 0.625000 1.000000
vt 0.875000 0.750000
vt 0.625000 0.142857
vn -1.0000 0.0000 0.0000
vn 0.0000 0.0000 -1.0000
vn 1.0000 0.0000 0.0000
vn 0.0000 0.0000 1.0000
vn 0.0000 -0.9627 -0.2706
vn 0.0000 0.9627 0.2706
vn 0.0000 0.9627 -0.2706
vn 0.0000 0.9885 -0.1515
vn 0.0000 0.9980 -0.0639
vn 0.0000 1.0000 0.0000
vn 0.0000 0.9980 0.0639
vn 0.0000 0.9885 0.1515
vn 0.0000 -0.9627 0.2706
vn 0.0000 -0.9885 0.1515
vn 0.0000 -0.9980 0.0639
vn 0.0000 -1.0000 0.0000
vn 0.0000 -0.9980 -0.0639
vn 0.0000 -0.9885 -0.1515
s off
f 9/1/1 4/2/1 3/3/1
f 4/2/2 7/4/2 3/3/2
f 21/5/3 6/6/3 5/7/3
f 6/6/4 1/8/4 5/7/4
f 21/5/5 1/9/5 14/10/5
f 15/11/6 6/6/6 32/12/6
f 4/13/7 27/14/7 8/15/7
f 20/16/8 28/17/8 27/14/8
f 19/18/9 29/19/9 28/17/9
f 18/20/10 30/21/10 29/19/10
f 17/22/11 31/23/11 30/21/11
f 16/24/12 32/12/12 31/23/12
f 7/4/13 9/25/13 3/26/13
f 26/27/14 10/28/14 9/25/14
f 25/29/15 11/30/15 10/28/15
f 24/31/16 12/32/16 11/30/16
f 23/33/17 13/34/17 12/32/17
f 22/35/18 14/10/18 13/34/18
f 8/15/3 26/27/3 7/4/3
f 27/14/3 25/29/3 26/27/3
f 28/17/3 24/31/3 25/29/3
f 29/19/3 23/33/3 24/31/3
f 23/33/3 31/23/3 22/35/3
f 22/35/3 32/12/3 21/5/3
f 2/36/1 14/37/1 1/38/1
f 15/39/1 13/40/1 14/37/1
f 16/41/1 12/42/1 13/40/1
f 17/43/1 11/44/1 12/42/1
f 11/44/1 19/45/1 10/46/1
f 10/46/1 20/47/1 9/1/1
f 41/48/1 36/49/1 35/50/1
f 36/49/2 39/51/2 35/50/2
f 53/52/3 38/53/3 37/54/3
f 38/53/4 33/55/4 37/54/4
f 53/52/5 33/56/5 46/57/5
f 47/58/6 38/53/6 64/59/6
f 36/60/7 59/61/7 40/62/7
f 52/63/8 60/64/8 59/61/8
f 51/65/9 61/66/9 60/64/9
f 50/67/10 62/68/10 61/66/10
f 49/69/11 63/70/11 62/68/11
f 48/71/12 64/59/12 63/70/12
f 39/51/13 41/72/13 35/73/13
f 58/74/14 42/75/14 41/72/14
f 57/76/15 43/77/15 42/75/15
f 56/78/16 44/79/16 43/77/16
f 55/80/17 45/81/17 44/79/17
f 54/82/18 46/57/18 45/81/18
f 40/62/3 58/74/3 39/51/3
f 59/61/3 57/76/3 58/74/3
f 60/64/3 56/78/3 57/76/3
f 61/66/3 55/80/3 56/78/3
f 55/80/3 63/70/3 54/82/3
f 54/82/3 64/59/3 53/52/3
f 34/83/1 46/84/1 33/85/1
f 47/86/1 45/87/1 46/84/1
f 48/88/1 44/89/1 45/87/1
f 49/90/1 43/91/1 44/89/1
f 43/91/1 51/92/1 42/93/1
f 42/93/1 52/94/1 41/48/1
f 9/1/1 20/47/1 4/2/1
f 4/2/2 8/15/2 7/4/2
f 21/5/3 32/12/3 6/6/3
f 6/6/4 2/95/4 1/8/4
f 21/5/5 5/7/5 1/9/5
f 15/11/6 2/96/6 6/6/6
f 4/13/7 20/16/7 27/14/7
f 20/16/8 19/18/8 28/17/8
f 19/18/9 18/20/9 29/19/9
f 18/20/10 17/22/10 30/21/10
f 17/22/11 16/24/11 31/23/11
f 16/24/12 15/11/12 32/12/12
f 7/4/13 26/27/13 9/25/13
f 26/27/14 25/29/14 10/28/14
f 25/29/15 24/31/15 11/30/15
f 24/31/16 23/33/16 12/32/16
f 23/33/17 22/35/17 13/34/17
f 22/35/18 21/5/18 14/10/18
f 8/15/3 27/14/3 26/27/3
f 27/14/3 28/17/3 25/29/3
f 28/17/3 29/19/3 24/31/3
f 29/19/3 30/21/3 23/33/3
f 23/33/3 30/21/3 31/23/3
f 22/35/3 31/23/3 32/12/3
f 2/36/1 15/39/1 14/37/1
f 15/39/1 16/41/1 13/40/1
f 16/41/1 17/43/1 12/42/1
f 17/43/1 18/97/1 11/44/1
f 11/44/1 18/97/1 19/45/1
f 10/46/1 19/45/1 20/47/1
f 41/48/1 52/94/1 36/49/1
f 36/49/2 40/62/2 39/51/2
f 53/52/3 64/59/3 38/53/3
f 38/53/4 34/98/4 33/55/4
f 53/52/5 37/54/5 33/56/5
f 47/58/6 34/99/6 38/53/6
f 36/60/7 52/63/7 59/61/7
f 52/63/8 51/65/8 60/64/8
f 51/65/9 50/67/9 61/66/9
f 50/67/10 49/69/10 62/68/10
f 49/69/11 48/71/11 63/70/11
f 48/71/12 47/58/12 64/59/12
f 39/51/13 58/74/13 41/72/13
f 58/74/14 57/76/14 42/75/14
f 57/76/15 56/78/15 43/77/15
f 56/78/16 55/80/16 44/79/16
f 55/80/17 54/82/17 45/81/17
f 54/82/18 53/52/18 46/57/18
f 40/62/3 59/61/3 58/74/3
f 59/61/3 60/64/3 57/76/3
f 60/64/3 61/66/3 56/78/3
f 61/66/3 62/68/3 55/80/3
f 55/80/3 62/68/3 63/70/3
f 54/82/3 63/70/3 64/59/3
f 34/83/1 47/86/1 46/84/1
f 47/86/1 48/88/1 45/87/1
f 48/88/1 49/90/1 44/89/1
f 49/90/1 50/100/1 43/91/1
f 43/91/1 50/100/1 51/92/1
f 42/93/1 51/92/1 52/94/1
