# Blender v3.4.1 OBJ File: 'buildings.blend'
# www.blender.org
o B1_Cube.017
v -1.097923 -1.703147 1.097923
v -1.097923 -2.009955 1.097923
v 1.097923 -1.703147 1.097923
v 1.097923 -2.009955 1.097923
v -0.599286 -1.703147 -1.097923
v -1.097923 -1.703147 -0.599286
v -1.097923 -2.009955 -0.599286
v -0.599286 -2.009955 -1.097923
v 1.097923 -1.703147 -0.599286
v 0.599286 -1.703147 -1.097923
v 0.599286 -2.009955 -1.097923
v 1.097923 -2.009955 -0.599286
v -1.097923 0.773997 1.097923
v -1.097923 0.467188 1.097923
v 1.097923 0.773997 1.097923
v 1.097923 0.467188 1.097923
v -0.599286 0.773997 -1.097923
v -1.097923 0.773997 -0.599286
v -1.097923 0.467188 -0.599286
v -0.599286 0.467188 -1.097923
v 1.097923 0.773997 -0.599286
v 0.599286 0.773997 -1.097923
v 0.599286 0.467188 -1.097923
v 1.097923 0.467188 -0.599286
v -1.097923 -0.464706 1.097923
v -1.097923 -0.771515 1.097923
v 1.097923 -0.464706 1.097923
v 1.097923 -0.771515 1.097923
v -0.599286 -0.464706 -1.097923
v -1.097923 -0.464706 -0.599286
v -1.097923 -0.771515 -0.599286
v -0.599286 -0.771515 -1.097923
v 1.097923 -0.464706 -0.599286
v 0.599286 -0.464706 -1.097923
v 0.599286 -0.771515 -1.097923
v 1.097923 -0.771515 -0.599286
v -1.097923 0.153404 1.097923
v -1.097923 -0.153404 1.097923
v 1.097923 0.153404 1.097923
v 1.097923 -0.153404 1.097923
v -0.599286 0.153404 -1.097923
v -1.097923 0.153404 -0.599286
v -1.097923 -0.153404 -0.599286
v -0.599286 -0.153404 -1.097923
v 1.097923 0.153404 -0.599286
v 0.599286 0.153404 -1.097923
v 0.599286 -0.153404 -1.097923
v 1.097923 -0.153404 -0.599286
v -1.097923 -1.085299 1.097923
v -1.097923 -1.392107 1.097923
v 1.097923 -1.085299 1.097923
v 1.097923 -1.392107 1.097923
v -0.599286 -1.085299 -1.097923
v -1.097923 -1.085299 -0.599286
v -1.097923 -1.392107 -0.599286
v -0.599286 -1.392107 -1.097923
v 1.097923 -1.085299 -0.599286
v 0.599286 -1.085299 -1.097923
v 0.599286 -1.392107 -1.097923
v 1.097923 -1.392107 -0.599286
v -1.097923 1.406164 1.097923
v -1.097923 1.099355 1.097923
v 1.097923 1.406164 1.097923
v 1.097923 1.099355 1.097923
v -0.599286 1.406164 -1.097923
v -1.097923 1.406164 -0.599286
v -1.097923 1.099355 -0.599286
v -0.599286 1.099355 -1.097923
v 1.097923 1.406164 -0.599286
v 0.599286 1.406164 -1.097923
v 0.599286 1.099355 -1.097923
v 1.097923 1.099355 -0.599286
v -1.097923 2.056159 1.097923
v -1.097923 1.749350 1.097923
v 1.097923 2.056159 1.097923
v 1.097923 1.749350 1.097923
v -0.599286 2.056159 -1.097923
v -1.097923 2.056159 -0.599286
v -1.097923 1.749350 -0.599286
v -0.599286 1.749350 -1.097923
v 1.097923 2.056159 -0.599286
v 0.599286 2.056159 -1.097923
v 0.599286 1.749350 -1.097923
v 1.097923 1.749350 -0.599286
v -1.000000 1.914329 1.000000
v -1.000000 -1.914329 1.000000
v 1.000000 1.914329 1.000000
v 1.000000 -1.914329 1.000000
v -0.545836 1.914329 -1.000000
v -1.000000 1.914329 -0.545836
v -1.000000 -1.914329 -0.545836
v -0.545836 -1.914329 -1.000000
v 1.000000 1.914329 -0.545836
v 0.545836 1.914329 -1.000000
v 0.545836 -1.914329 -1.000000
v 1.000000 -1.914329 -0.545836
vt 0.318229 0.750000
vt 0.181771 0.750000
vt 0.125000 0.693229
vt 0.818229 0.750000
vt 0.681771 0.750000
vt 0.625000 0.693229
vt 0.625000 0.056771
vt 0.375000 0.250000
vt 0.375000 0.056771
vt 0.625000 0.806771
vt 0.375000 0.943229
vt 0.375000 0.806771
vt 0.625000 0.250000
vt 0.375000 0.500000
vt 0.625000 0.000000
vt 0.375000 0.000000
vt 0.625000 0.500000
vt 0.375000 0.693229
vt 0.318229 0.750000
vt 0.181771 0.750000
vt 0.125000 0.693229
vt 0.818229 0.750000
vt 0.681771 0.750000
vt 0.625000 0.693229
vt 0.625000 0.056771
vt 0.375000 0.250000
vt 0.375000 0.056771
vt 0.625000 0.806771
vt 0.375000 0.943229
vt 0.375000 0.806771
vt 0.625000 0.250000
vt 0.375000 0.500000
vt 0.625000 0.000000
vt 0.375000 0.000000
vt 0.625000 0.500000
vt 0.375000 0.693229
vt 0.318229 0.750000
vt 0.181771 0.750000
vt 0.125000 0.693229
vt 0.818229 0.750000
vt 0.681771 0.750000
vt 0.625000 0.693229
vt 0.625000 0.056771
vt 0.375000 0.250000
vt 0.375000 0.056771
vt 0.625000 0.806771
vt 0.375000 0.943229
vt 0.375000 0.806771
vt 0.625000 0.250000
vt 0.375000 0.500000
vt 0.625000 0.000000
vt 0.375000 0.000000
vt 0.625000 0.500000
vt 0.375000 0.693229
vt 0.318229 0.750000
vt 0.181771 0.750000
vt 0.125000 0.693229
vt 0.818229 0.750000
vt 0.681771 0.750000
vt 0.625000 0.693229
vt 0.625000 0.056771
vt 0.375000 0.250000
vt 0.375000 0.056771
vt 0.625000 0.806771
vt 0.375000 0.943229
vt 0.375000 0.806771
vt 0.625000 0.250000
vt 0.375000 0.500000
vt 0.625000 0.000000
vt 0.375000 0.000000
vt 0.625000 0.500000
vt 0.375000 0.693229
vt 0.318229 0.750000
vt 0.181771 0.750000
vt 0.125000 0.693229
vt 0.818229 0.750000
vt 0.681771 0.750000
vt 0.625000 0.693229
vt 0.625000 0.056771
vt 0.375000 0.250000
vt 0.375000 0.056771
vt 0.625000 0.806771
vt 0.375000 0.943229
vt 0.375000 0.806771
vt 0.625000 0.250000
vt 0.375000 0.500000
vt 0.625000 0.000000
vt 0.375000 0.000000
vt 0.625000 0.500000
vt 0.375000 0.693229
vt 0.318229 0.750000
vt 0.181771 0.750000
vt 0.125000 0.693229
vt 0.818229 0.750000
vt 0.681771 0.750000
vt 0.625000 0.693229
vt 0.625000 0.056771
vt 0.375000 0.250000
vt 0.375000 0.056771
vt 0.625000 0.806771
vt 0.375000 0.943229
vt 0.375000 0.806771
vt 0.625000 0.250000
vt 0.375000 0.500000
vt 0.625000 0.000000
vt 0.375000 0.000000
vt 0.625000 0.500000
vt 0.375000 0.693229
vt 0.318229 0.750000
vt 0.181771 0.750000
vt 0.125000 0.693229
vt 0.818229 0.750000
vt 0.681771 0.750000
vt 0.625000 0.693229
vt 0.625000 0.056771
vt 0.375000 0.250000
vt 0.375000 0.056771
vt 0.625000 0.806771
vt 0.375000 0.943229
vt 0.375000 0.806771
vt 0.625000 0.250000
vt 0.375000 0.500000
vt 0.625000 0.000000
vt 0.375000 0.000000
vt 0.625000 0.500000
vt 0.375000 0.693229
vt 0.318229 0.750000
vt 0.181771 0.750000
vt 0.125000 0.693229
vt 0.818229 0.750000
vt 0.681771 0.750000
vt 0.625000 0.693229
vt 0.625000 0.056771
vt 0.375000 0.250000
vt 0.375000 0.056771
vt 0.625000 0.806771
vt 0.375000 0.943229
vt 0.375000 0.806771
vt 0.625000 0.250000
vt 0.375000 0.500000
vt 0.625000 0.000000
vt 0.375000 0.000000
vt 0.625000 0.500000
vt 0.375000 0.693229
vt 0.125000 0.500000
vt 0.875000 0.500000
vt 0.875000 0.693229
vt 0.625000 0.943229
vt 0.125000 0.500000
vt 0.875000 0.500000
vt 0.875000 0.693229
vt 0.625000 0.943229
vt 0.125000 0.500000
vt 0.875000 0.500000
vt 0.875000 0.693229
vt 0.625000 0.943229
vt 0.125000 0.500000
vt 0.875000 0.500000
vt 0.875000 0.693229
vt 0.625000 0.943229
vt 0.125000 0.500000
vt 0.875000 0.500000
vt 0.875000 0.693229
vt 0.625000 0.943229
vt 0.125000 0.500000
vt 0.875000 0.500000
vt 0.875000 0.693229
vt 0.625000 0.943229
vt 0.125000 0.500000
vt 0.875000 0.500000
vt 0.875000 0.693229
vt 0.625000 0.943229
vt 0.125000 0.500000
vt 0.875000 0.500000
vt 0.875000 0.693229
vt 0.625000 0.943229
vn 0.0000 -1.0000 0.0000
vn 0.0000 1.0000 -0.0000
vn 1.0000 0.0000 0.0000
vn 0.0000 0.0000 -1.0000
vn 0.0000 0.0000 1.0000
vn 0.7071 0.0000 -0.7071
vn -0.7071 0.0000 -0.7071
vn -1.0000 0.0000 0.0000
s off
f 8/1/1 11/2/1 12/3/1
f 10/4/2 5/5/2 6/6/2
f 9/7/3 4/8/3 12/9/3
f 5/10/4 11/11/4 8/12/4
f 3/13/5 2/14/5 4/8/5
f 10/15/6 12/9/6 11/16/6
f 8/12/7 6/6/7 5/10/7
f 1/17/8 7/18/8 2/14/8
f 20/19/1 23/20/1 24/21/1
f 22/22/2 17/23/2 18/24/2
f 21/25/3 16/26/3 24/27/3
f 17/28/4 23/29/4 20/30/4
f 15/31/5 14/32/5 16/26/5
f 22/33/6 24/27/6 23/34/6
f 20/30/7 18/24/7 17/28/7
f 13/35/8 19/36/8 14/32/8
f 32/37/1 35/38/1 36/39/1
f 34/40/2 29/41/2 30/42/2
f 33/43/3 28/44/3 36/45/3
f 29/46/4 35/47/4 32/48/4
f 27/49/5 26/50/5 28/44/5
f 34/51/6 36/45/6 35/52/6
f 32/48/7 30/42/7 29/46/7
f 25/53/8 31/54/8 26/50/8
f 44/55/1 47/56/1 48/57/1
f 46/58/2 41/59/2 42/60/2
f 45/61/3 40/62/3 48/63/3
f 41/64/4 47/65/4 44/66/4
f 39/67/5 38/68/5 40/62/5
f 46/69/6 48/63/6 47/70/6
f 44/66/7 42/60/7 41/64/7
f 37/71/8 43/72/8 38/68/8
f 56/73/1 59/74/1 60/75/1
f 58/76/2 53/77/2 54/78/2
f 57/79/3 52/80/3 60/81/3
f 53/82/4 59/83/4 56/84/4
f 51/85/5 50/86/5 52/80/5
f 58/87/6 60/81/6 59/88/6
f 56/84/7 54/78/7 53/82/7
f 49/89/8 55/90/8 50/86/8
f 68/91/1 71/92/1 72/93/1
f 70/94/2 65/95/2 66/96/2
f 69/97/3 64/98/3 72/99/3
f 65/100/4 71/101/4 68/102/4
f 63/103/5 62/104/5 64/98/5
f 70/105/6 72/99/6 71/106/6
f 68/102/7 66/96/7 65/100/7
f 61/107/8 67/108/8 62/104/8
f 80/109/1 83/110/1 84/111/1
f 82/112/2 77/113/2 78/114/2
f 81/115/3 76/116/3 84/117/3
f 77/118/4 83/119/4 80/120/4
f 75/121/5 74/122/5 76/116/5
f 82/123/6 84/117/6 83/124/6
f 80/120/7 78/114/7 77/118/7
f 73/125/8 79/126/8 74/122/8
f 92/127/1 95/128/1 96/129/1
f 94/130/2 89/131/2 90/132/2
f 93/133/3 88/134/3 96/135/3
f 89/136/4 95/137/4 92/138/4
f 87/139/5 86/140/5 88/134/5
f 94/141/6 96/135/6 95/142/6
f 92/138/7 90/132/7 89/136/7
f 85/143/8 91/144/8 86/140/8
f 12/3/1 4/145/1 2/14/1
f 2/14/1 7/18/1 12/3/1
f 7/18/1 8/1/1 12/3/1
f 6/6/2 1/17/2 3/146/2
f 3/146/2 9/147/2 6/6/2
f 9/147/2 10/4/2 6/6/2
f 9/7/3 3/13/3 4/8/3
f 5/10/4 10/148/4 11/11/4
f 3/13/5 1/17/5 2/14/5
f 10/15/6 9/7/6 12/9/6
f 8/12/7 7/18/7 6/6/7
f 1/17/8 6/6/8 7/18/8
f 24/21/1 16/149/1 14/32/1
f 14/32/1 19/36/1 24/21/1
f 19/36/1 20/19/1 24/21/1
f 18/24/2 13/35/2 15/150/2
f 15/150/2 21/151/2 18/24/2
f 21/151/2 22/22/2 18/24/2
f 21/25/3 15/31/3 16/26/3
f 17/28/4 22/152/4 23/29/4
f 15/31/5 13/35/5 14/32/5
f 22/33/6 21/25/6 24/27/6
f 20/30/7 19/36/7 18/24/7
f 13/35/8 18/24/8 19/36/8
f 36/39/1 28/153/1 26/50/1
f 26/50/1 31/54/1 36/39/1
f 31/54/1 32/37/1 36/39/1
f 30/42/2 25/53/2 27/154/2
f 27/154/2 33/155/2 30/42/2
f 33/155/2 34/40/2 30/42/2
f 33/43/3 27/49/3 28/44/3
f 29/46/4 34/156/4 35/47/4
f 27/49/5 25/53/5 26/50/5
f 34/51/6 33/43/6 36/45/6
f 32/48/7 31/54/7 30/42/7
f 25/53/8 30/42/8 31/54/8
f 48/57/1 40/157/1 38/68/1
f 38/68/1 43/72/1 48/57/1
f 43/72/1 44/55/1 48/57/1
f 42/60/2 37/71/2 39/158/2
f 39/158/2 45/159/2 42/60/2
f 45/159/2 46/58/2 42/60/2
f 45/61/3 39/67/3 40/62/3
f 41/64/4 46/160/4 47/65/4
f 39/67/5 37/71/5 38/68/5
f 46/69/6 45/61/6 48/63/6
f 44/66/7 43/72/7 42/60/7
f 37/71/8 42/60/8 43/72/8
f 60/75/1 52/161/1 50/86/1
f 50/86/1 55/90/1 60/75/1
f 55/90/1 56/73/1 60/75/1
f 54/78/2 49/89/2 51/162/2
f 51/162/2 57/163/2 54/78/2
f 57/163/2 58/76/2 54/78/2
f 57/79/3 51/85/3 52/80/3
f 53/82/4 58/164/4 59/83/4
f 51/85/5 49/89/5 50/86/5
f 58/87/6 57/79/6 60/81/6
f 56/84/7 55/90/7 54/78/7
f 49/89/8 54/78/8 55/90/8
f 72/93/1 64/165/1 62/104/1
f 62/104/1 67/108/1 72/93/1
f 67/108/1 68/91/1 72/93/1
f 66/96/2 61/107/2 63/166/2
f 63/166/2 69/167/2 66/96/2
f 69/167/2 70/94/2 66/96/2
f 69/97/3 63/103/3 64/98/3
f 65/100/4 70/168/4 71/101/4
f 63/103/5 61/107/5 62/104/5
f 70/105/6 69/97/6 72/99/6
f 68/102/7 67/108/7 66/96/7
f 61/107/8 66/96/8 67/108/8
f 84/111/1 76/169/1 74/122/1
f 74/122/1 79/126/1 84/111/1
f 79/126/1 80/109/1 84/111/1
f 78/114/2 73/125/2 75/170/2
f 75/170/2 81/171/2 78/114/2
f 81/171/2 82/112/2 78/114/2
f 81/115/3 75/121/3 76/116/3
f 77/118/4 82/172/4 83/119/4
f 75/121/5 73/125/5 74/122/5
f 82/123/6 81/115/6 84/117/6
f 80/120/7 79/126/7 78/114/7
f 73/125/8 78/114/8 79/126/8
f 96/129/1 88/173/1 86/140/1
f 86/140/1 91/144/1 96/129/1
f 91/144/1 92/127/1 96/129/1
f 90/132/2 85/143/2 87/174/2
f 87/174/2 93/175/2 90/132/2
f 93/175/2 94/130/2 90/132/2
f 93/133/3 87/139/3 88/134/3
f 89/136/4 94/176/4 95/137/4
f 87/139/5 85/143/5 86/140/5
f 94/141/6 93/133/6 96/135/6
f 92/138/7 91/144/7 90/132/7
f 85/143/8 90/132/8 91/144/8
