# Blender v3.4.1 OBJ File: 'buildings.blend'
# www.blender.org
o Concrete_Rim_Cube.001
v -1.000000 0.590949 1.000000
v -1.000000 0.711428 1.000000
v -1.000000 0.590949 -1.000000
v -1.000000 0.711428 -1.000000
v 1.000000 0.590949 1.000000
v 1.000000 0.711428 1.000000
v 1.000000 0.590949 -1.000000
v 1.000000 0.711428 -1.000000
v -0.611992 0.605748 0.959848
v -0.611992 0.699109 0.883700
v -0.611992 -0.658357 -0.590003
v -0.611992 -0.564995 -0.666151
v -0.369248 0.605748 0.959848
v -0.369248 0.699109 0.883700
v -0.369248 -0.658357 -0.590003
v -0.369248 -0.564995 -0.666151
v 0.399098 0.605748 0.959848
v 0.399098 0.699109 0.883700
v 0.399098 -0.658357 -0.590003
v 0.399098 -0.564995 -0.666151
v 0.641842 0.605748 0.959848
v 0.641842 0.699109 0.883700
v 0.641842 -0.658357 -0.590003
v 0.641842 -0.564995 -0.666151
v -1.000000 -0.050573 0.124037
v -1.000000 0.042234 0.236195
v -1.000000 0.012389 0.071937
v -1.000000 0.105197 0.184096
v 1.000000 -0.050573 0.124037
v 1.000000 0.042234 0.236195
v 1.000000 0.012389 0.071937
v 1.000000 0.105197 0.184096
vt 0.625000 0.000000
vt 0.375000 0.250000
vt 0.375000 0.000000
vt 0.625000 0.250000
vt 0.375000 0.500000
vt 0.625000 0.500000
vt 0.375000 0.750000
vt 0.625000 0.750000
vt 0.375000 1.000000
vt 0.125000 0.750000
vt 0.125000 0.500000
vt 0.875000 0.500000
vt 0.375000 0.000000
vt 0.625000 0.250000
vt 0.375000 0.250000
vt 0.375000 0.500000
vt 0.625000 0.500000
vt 0.375000 0.750000
vt 0.625000 0.750000
vt 0.375000 1.000000
vt 0.125000 0.750000
vt 0.125000 0.500000
vt 0.875000 0.500000
vt 0.375000 0.000000
vt 0.625000 0.250000
vt 0.375000 0.250000
vt 0.375000 0.500000
vt 0.625000 0.500000
vt 0.375000 0.750000
vt 0.625000 0.750000
vt 0.375000 1.000000
vt 0.125000 0.750000
vt 0.125000 0.500000
vt 0.875000 0.500000
vt 0.625000 0.000000
vt 0.375000 0.250000
vt 0.375000 0.000000
vt 0.625000 0.250000
vt 0.375000 0.500000
vt 0.625000 0.750000
vt 0.375000 0.750000
vt 0.375000 1.000000
vt 0.125000 0.750000
vt 0.125000 0.500000
vt 0.875000 0.500000
vt 0.625000 0.500000
vt 0.625000 1.000000
vt 0.875000 0.750000
vt 0.625000 0.000000
vt 0.625000 1.000000
vt 0.875000 0.750000
vt 0.625000 0.000000
vt 0.625000 1.000000
vt 0.875000 0.750000
vt 0.625000 1.000000
vt 0.875000 0.750000
vn -1.0000 0.0000 0.0000
vn 0.0000 0.0000 -1.0000
vn 1.0000 0.0000 0.0000
vn 0.0000 0.0000 1.0000
vn 0.0000 -1.0000 0.0000
vn 0.0000 1.0000 0.0000
vn 0.0000 -0.6321 -0.7749
vn 0.0000 0.6321 0.7749
vn 0.0000 -0.7749 0.6321
vn 0.0000 0.7749 -0.6321
vn 0.0000 0.7704 -0.6375
vn 0.0000 -0.7704 0.6375
vn 0.0000 -0.6375 -0.7704
vn 0.0000 0.6375 0.7704
s off
f 2/1/1 3/2/1 1/3/1
f 4/4/2 7/5/2 3/2/2
f 8/6/3 5/7/3 7/5/3
f 6/8/4 1/9/4 5/7/4
f 7/5/5 1/10/5 3/11/5
f 4/12/6 6/8/6 8/6/6
f 9/13/1 12/14/1 11/15/1
f 12/14/7 15/16/7 11/15/7
f 16/17/3 13/18/3 15/16/3
f 14/19/8 9/20/8 13/18/8
f 15/16/9 9/21/9 11/22/9
f 12/23/10 14/19/10 16/17/10
f 17/24/1 20/25/1 19/26/1
f 20/25/7 23/27/7 19/26/7
f 24/28/3 21/29/3 23/27/3
f 22/30/8 17/31/8 21/29/8
f 23/27/9 17/32/9 19/33/9
f 20/34/10 22/30/10 24/28/10
f 26/35/1 27/36/1 25/37/1
f 28/38/11 31/39/11 27/36/11
f 31/39/3 30/40/3 29/41/3
f 30/40/12 25/42/12 29/41/12
f 31/39/13 25/43/13 27/44/13
f 28/45/14 30/40/14 32/46/14
f 2/1/1 4/4/1 3/2/1
f 4/4/2 8/6/2 7/5/2
f 8/6/3 6/8/3 5/7/3
f 6/8/4 2/47/4 1/9/4
f 7/5/5 5/7/5 1/10/5
f 4/12/6 2/48/6 6/8/6
f 9/13/1 10/49/1 12/14/1
f 12/14/7 16/17/7 15/16/7
f 16/17/3 14/19/3 13/18/3
f 14/19/8 10/50/8 9/20/8
f 15/16/9 13/18/9 9/21/9
f 12/23/10 10/51/10 14/19/10
f 17/24/1 18/52/1 20/25/1
f 20/25/7 24/28/7 23/27/7
f 24/28/3 22/30/3 21/29/3
f 22/30/8 18/53/8 17/31/8
f 23/27/9 21/29/9 17/32/9
f 20/34/10 18/54/10 22/30/10
f 26/35/1 28/38/1 27/36/1
f 28/38/11 32/46/11 31/39/11
f 31/39/3 32/46/3 30/40/3
f 30/40/12 26/55/12 25/42/12
f 31/39/13 29/41/13 25/43/13
f 28/45/14 26/56/14 30/40/14
