# Blender v3.4.1 OBJ File: 'buildings.blend'
# www.blender.org
o Cube_Cube.014
v -1.000000 -1.000000 0.129603
v -1.000000 1.000000 0.129603
v -1.000000 -1.000000 -0.416990
v -1.000000 1.000000 -0.416990
v 1.000000 -1.000000 0.129603
v 1.000000 1.000000 0.129603
v 1.000000 -1.000000 -0.416990
v 1.000000 1.000000 -0.416990
v -1.000000 -0.880740 0.396194
v -1.000000 -0.803876 0.396194
v -1.000000 -0.880740 0.125265
v -1.000000 -0.803876 0.125265
v 1.000000 -0.880740 0.396194
v 1.000000 -0.803876 0.396194
v 1.000000 -0.880740 0.125265
v 1.000000 -0.803876 0.125265
v -1.000000 -0.803876 0.298941
v 1.000000 -0.803876 0.298941
v 1.000000 -0.663627 0.298941
v 1.000000 -0.663627 0.396194
v -1.000000 -0.663627 0.396194
v -1.000000 -0.663627 0.298941
v -0.940411 -0.803876 0.334950
v 0.948981 -0.803876 0.334950
v -0.940411 -0.663627 0.334950
v 0.948981 -0.663627 0.334950
v -1.000000 -0.803876 0.123338
v -1.000000 -0.663627 0.123338
v -0.940411 -0.803876 0.123338
v -0.940411 -0.663627 0.123338
v 0.948981 -0.803876 0.125614
v 1.000000 -0.803876 0.125614
v 0.948981 -0.663627 0.125614
v 1.000000 -0.663627 0.125614
v -1.000000 -0.399525 0.396194
v -1.000000 -0.322661 0.396194
v -1.000000 -0.399525 0.125265
v -1.000000 -0.322661 0.125265
v 1.000000 -0.399525 0.396194
v 1.000000 -0.322661 0.396194
v 1.000000 -0.399525 0.125265
v 1.000000 -0.322661 0.125265
v -1.000000 -0.322661 0.298941
v 1.000000 -0.322661 0.298941
v 1.000000 -0.182413 0.298941
v 1.000000 -0.182413 0.396194
v -1.000000 -0.182413 0.396194
v -1.000000 -0.182413 0.298941
v -0.940411 -0.322661 0.334950
v 0.948981 -0.322661 0.334950
v -0.940411 -0.182413 0.334950
v 0.948981 -0.182413 0.334950
v -1.000000 -0.322661 0.123338
v -1.000000 -0.182413 0.123338
v -0.940411 -0.322661 0.123338
v -0.940411 -0.182413 0.123338
v 0.948981 -0.322661 0.125614
v 1.000000 -0.322661 0.125614
v 0.948981 -0.182413 0.125614
v 1.000000 -0.182413 0.125614
v -1.000000 0.616127 0.396194
v -1.000000 0.692992 0.396194
v -1.000000 0.616127 0.125265
v -1.000000 0.692992 0.125265
v 1.000000 0.616127 0.396194
v 1.000000 0.692992 0.396194
v 1.000000 0.616127 0.125265
v 1.000000 0.692992 0.125265
v -1.000000 0.692992 0.298941
v 1.000000 0.692992 0.298941
v 1.000000 0.833240 0.298941
v 1.000000 0.833240 0.396194
v -1.000000 0.833240 0.396194
v -1.000000 0.833240 0.298941
v -0.940411 0.692992 0.334950
v 0.948981 0.692992 0.334950
v -0.940411 0.833240 0.334950
v 0.948981 0.833240 0.334950
v -1.000000 0.692992 0.123338
v -1.000000 0.833240 0.123338
v -0.940411 0.692992 0.123338
v -0.940411 0.833240 0.123338
v 0.948981 0.692992 0.125614
v 1.000000 0.692992 0.125614
v 0.948981 0.833240 0.125614
v 1.000000 0.833240 0.125614
v -1.000000 0.108297 0.396194
v -1.000000 0.185162 0.396194
v -1.000000 0.108297 0.125265
v -1.000000 0.185162 0.125265
v 1.000000 0.108297 0.396194
v 1.000000 0.185162 0.396194
v 1.000000 0.108297 0.125265
v 1.000000 0.185162 0.125265
v -1.000000 0.185162 0.298941
v 1.000000 0.185162 0.298941
v 1.000000 0.325410 0.298941
v 1.000000 0.325410 0.396194
v -1.000000 0.325410 0.396194
v -1.000000 0.325410 0.298941
v -0.940411 0.185162 0.334950
v 0.948981 0.185162 0.334950
v -0.940411 0.325410 0.334950
v 0.948981 0.325410 0.334950
v -1.000000 0.185162 0.123338
v -1.000000 0.325410 0.123338
v -0.940411 0.185162 0.123338
v -0.940411 0.325410 0.123338
v 0.948981 0.185162 0.125614
v 1.000000 0.185162 0.125614
v 0.948981 0.325410 0.125614
v 1.000000 0.325410 0.125614
v -0.555763 -1.000000 0.367724
v -0.555763 1.000000 0.367724
v -0.555763 -1.000000 -0.178869
v -0.555763 1.000000 -0.178869
v -0.465745 -1.000000 0.367724
v -0.465745 1.000000 0.367724
v -0.465745 -1.000000 -0.178869
v -0.465745 1.000000 -0.178869
v 0.474981 -1.000000 0.367724
v 0.474981 1.000000 0.367724
v 0.474981 -1.000000 -0.178869
v 0.474981 1.000000 -0.178869
v 0.564999 -1.000000 0.367724
v 0.564999 1.000000 0.367724
v 0.564999 -1.000000 -0.178869
v 0.564999 1.000000 -0.178869
vt 0.625000 0.000000
vt 0.375000 0.250000
vt 0.375000 0.000000
vt 0.625000 0.250000
vt 0.375000 0.500000
vt 0.625000 0.500000
vt 0.375000 0.750000
vt 0.625000 0.750000
vt 0.375000 1.000000
vt 0.125000 0.750000
vt 0.125000 0.500000
vt 0.875000 0.500000
vt 0.625000 0.125000
vt 0.625000 0.250000
vt 0.375000 0.250000
vt 0.375000 0.500000
vt 0.625000 0.625000
vt 0.625000 0.750000
vt 0.375000 0.750000
vt 0.375000 1.000000
vt 0.125000 0.750000
vt 0.125000 0.500000
vt 0.875000 0.625000
vt 0.791667 0.625000
vt 0.875000 0.625000
vt 0.791667 0.625000
vt 0.708333 0.625000
vt 0.791667 0.625000
vt 0.875000 0.750000
vt 0.625000 0.750000
vt 0.625000 0.000000
vt 0.625000 0.125000
vt 0.625000 1.000000
vt 0.625000 1.000000
vt 0.708333 0.625000
vt 0.708333 0.625000
vt 0.875000 0.625000
vt 0.791667 0.625000
vt 0.875000 0.625000
vt 0.625000 0.125000
vt 0.625000 0.625000
vt 0.625000 0.625000
vt 0.625000 0.625000
vt 0.708333 0.625000
vt 0.625000 0.125000
vt 0.625000 0.250000
vt 0.375000 0.250000
vt 0.375000 0.500000
vt 0.625000 0.625000
vt 0.625000 0.750000
vt 0.375000 0.750000
vt 0.375000 1.000000
vt 0.125000 0.750000
vt 0.125000 0.500000
vt 0.875000 0.625000
vt 0.791667 0.625000
vt 0.875000 0.625000
vt 0.791667 0.625000
vt 0.708333 0.625000
vt 0.791667 0.625000
vt 0.875000 0.750000
vt 0.625000 0.750000
vt 0.625000 0.000000
vt 0.625000 0.125000
vt 0.625000 1.000000
vt 0.625000 1.000000
vt 0.708333 0.625000
vt 0.708333 0.625000
vt 0.875000 0.625000
vt 0.791667 0.625000
vt 0.875000 0.625000
vt 0.625000 0.125000
vt 0.625000 0.625000
vt 0.625000 0.625000
vt 0.625000 0.625000
vt 0.708333 0.625000
vt 0.625000 0.125000
vt 0.625000 0.250000
vt 0.375000 0.250000
vt 0.375000 0.500000
vt 0.625000 0.625000
vt 0.625000 0.750000
vt 0.375000 0.750000
vt 0.375000 1.000000
vt 0.125000 0.750000
vt 0.125000 0.500000
vt 0.875000 0.625000
vt 0.791667 0.625000
vt 0.875000 0.625000
vt 0.791667 0.625000
vt 0.708333 0.625000
vt 0.791667 0.625000
vt 0.875000 0.750000
vt 0.625000 0.750000
vt 0.625000 0.000000
vt 0.625000 0.125000
vt 0.625000 1.000000
vt 0.625000 1.000000
vt 0.708333 0.625000
vt 0.708333 0.625000
vt 0.875000 0.625000
vt 0.791667 0.625000
vt 0.875000 0.625000
vt 0.625000 0.125000
vt 0.625000 0.625000
vt 0.625000 0.625000
vt 0.625000 0.625000
vt 0.708333 0.625000
vt 0.625000 0.125000
vt 0.625000 0.250000
vt 0.375000 0.250000
vt 0.375000 0.500000
vt 0.625000 0.625000
vt 0.625000 0.750000
vt 0.375000 0.750000
vt 0.375000 1.000000
vt 0.125000 0.750000
vt 0.125000 0.500000
vt 0.875000 0.625000
vt 0.791667 0.625000
vt 0.875000 0.625000
vt 0.791667 0.625000
vt 0.708333 0.625000
vt 0.791667 0.625000
vt 0.875000 0.750000
vt 0.625000 0.750000
vt 0.625000 0.000000
vt 0.625000 0.125000
vt 0.625000 1.000000
vt 0.625000 1.000000
vt 0.708333 0.625000
vt 0.708333 0.625000
vt 0.875000 0.625000
vt 0.791667 0.625000
vt 0.875000 0.625000
vt 0.625000 0.125000
vt 0.625000 0.625000
vt 0.625000 0.625000
vt 0.625000 0.625000
vt 0.708333 0.625000
vt 0.625000 0.000000
vt 0.375000 0.250000
vt 0.375000 0.000000
vt 0.625000 0.250000
vt 0.375000 0.500000
vt 0.625000 0.500000
vt 0.375000 0.750000
vt 0.625000 0.750000
vt 0.375000 1.000000
vt 0.125000 0.750000
vt 0.125000 0.500000
vt 0.875000 0.500000
vt 0.625000 0.000000
vt 0.375000 0.250000
vt 0.375000 0.000000
vt 0.625000 0.250000
vt 0.375000 0.500000
vt 0.625000 0.500000
vt 0.375000 0.750000
vt 0.625000 0.750000
vt 0.375000 1.000000
vt 0.125000 0.750000
vt 0.125000 0.500000
vt 0.875000 0.500000
vt 0.625000 1.000000
vt 0.875000 0.750000
vt 0.375000 0.000000
vt 0.625000 0.500000
vt 0.875000 0.500000
vt 0.625000 0.000000
vt 0.625000 0.125000
vt 0.375000 0.000000
vt 0.625000 0.500000
vt 0.875000 0.500000
vt 0.625000 0.000000
vt 0.625000 0.125000
vt 0.375000 0.000000
vt 0.625000 0.500000
vt 0.875000 0.500000
vt 0.625000 0.000000
vt 0.625000 0.125000
vt 0.375000 0.000000
vt 0.625000 0.500000
vt 0.875000 0.500000
vt 0.625000 0.000000
vt 0.625000 0.125000
vt 0.625000 1.000000
vt 0.875000 0.750000
vt 0.625000 1.000000
vt 0.875000 0.750000
vn -1.0000 0.0000 0.0000
vn 0.0000 0.0000 -1.0000
vn 1.0000 0.0000 0.0000
vn 0.0000 0.0000 1.0000
vn 0.0000 -1.0000 0.0000
vn 0.0000 1.0000 0.0000
s off
f 2/1/1 3/2/1 1/3/1
f 4/4/2 7/5/2 3/2/2
f 8/6/3 5/7/3 7/5/3
f 6/8/4 1/9/4 5/7/4
f 7/5/5 1/10/5 3/11/5
f 4/12/6 6/8/6 8/6/6
f 17/13/1 12/14/1 11/15/1
f 12/14/2 15/16/2 11/15/2
f 18/17/3 14/18/3 13/19/3
f 14/18/4 9/20/4 13/19/4
f 15/16/5 9/21/5 11/22/5
f 22/23/6 30/24/6 28/25/6
f 23/26/6 24/27/6 18/17/6
f 25/28/6 21/29/6 20/30/6
f 10/31/1 22/32/1 17/13/1
f 18/17/3 20/30/3 14/18/3
f 14/18/4 21/33/4 10/34/4
f 26/35/1 31/36/1 24/27/1
f 23/26/2 26/35/2 24/27/2
f 27/37/2 30/24/2 29/38/2
f 17/39/5 29/38/5 23/26/5
f 22/32/1 27/40/1 17/13/1
f 23/26/3 30/24/3 25/28/3
f 31/36/2 34/41/2 32/42/2
f 18/17/5 31/36/5 32/42/5
f 18/17/3 34/41/3 19/43/3
f 19/43/6 33/44/6 26/35/6
f 43/45/1 38/46/1 37/47/1
f 38/46/2 41/48/2 37/47/2
f 44/49/3 40/50/3 39/51/3
f 40/50/4 35/52/4 39/51/4
f 41/48/5 35/53/5 37/54/5
f 48/55/6 56/56/6 54/57/6
f 49/58/6 50/59/6 44/49/6
f 51/60/6 47/61/6 46/62/6
f 36/63/1 48/64/1 43/45/1
f 44/49/3 46/62/3 40/50/3
f 40/50/4 47/65/4 36/66/4
f 52/67/1 57/68/1 50/59/1
f 49/58/2 52/67/2 50/59/2
f 53/69/2 56/56/2 55/70/2
f 43/71/5 55/70/5 49/58/5
f 48/64/1 53/72/1 43/45/1
f 49/58/3 56/56/3 51/60/3
f 57/68/2 60/73/2 58/74/2
f 44/49/5 57/68/5 58/74/5
f 44/49/3 60/73/3 45/75/3
f 45/75/6 59/76/6 52/67/6
f 69/77/1 64/78/1 63/79/1
f 64/78/2 67/80/2 63/79/2
f 70/81/3 66/82/3 65/83/3
f 66/82/4 61/84/4 65/83/4
f 67/80/5 61/85/5 63/86/5
f 74/87/6 82/88/6 80/89/6
f 75/90/6 76/91/6 70/81/6
f 77/92/6 73/93/6 72/94/6
f 62/95/1 74/96/1 69/77/1
f 70/81/3 72/94/3 66/82/3
f 66/82/4 73/97/4 62/98/4
f 78/99/1 83/100/1 76/91/1
f 75/90/2 78/99/2 76/91/2
f 79/101/2 82/88/2 81/102/2
f 69/103/5 81/102/5 75/90/5
f 74/96/1 79/104/1 69/77/1
f 75/90/3 82/88/3 77/92/3
f 83/100/2 86/105/2 84/106/2
f 70/81/5 83/100/5 84/106/5
f 70/81/3 86/105/3 71/107/3
f 71/107/6 85/108/6 78/99/6
f 95/109/1 90/110/1 89/111/1
f 90/110/2 93/112/2 89/111/2
f 96/113/3 92/114/3 91/115/3
f 92/114/4 87/116/4 91/115/4
f 93/112/5 87/117/5 89/118/5
f 100/119/6 108/120/6 106/121/6
f 101/122/6 102/123/6 96/113/6
f 103/124/6 99/125/6 98/126/6
f 88/127/1 100/128/1 95/109/1
f 96/113/3 98/126/3 92/114/3
f 92/114/4 99/129/4 88/130/4
f 104/131/1 109/132/1 102/123/1
f 101/122/2 104/131/2 102/123/2
f 105/133/2 108/120/2 107/134/2
f 95/135/5 107/134/5 101/122/5
f 100/128/1 105/136/1 95/109/1
f 101/122/3 108/120/3 103/124/3
f 109/132/2 112/137/2 110/138/2
f 96/113/5 109/132/5 110/138/5
f 96/113/3 112/137/3 97/139/3
f 97/139/6 111/140/6 104/131/6
f 114/141/1 115/142/1 113/143/1
f 116/144/2 119/145/2 115/142/2
f 120/146/3 117/147/3 119/145/3
f 118/148/4 113/149/4 117/147/4
f 119/145/5 113/150/5 115/151/5
f 116/152/6 118/148/6 120/146/6
f 122/153/1 123/154/1 121/155/1
f 124/156/2 127/157/2 123/154/2
f 128/158/3 125/159/3 127/157/3
f 126/160/4 121/161/4 125/159/4
f 127/157/5 121/162/5 123/163/5
f 124/164/6 126/160/6 128/158/6
f 2/1/1 4/4/1 3/2/1
f 4/4/2 8/6/2 7/5/2
f 8/6/3 6/8/3 5/7/3
f 6/8/4 2/165/4 1/9/4
f 7/5/5 5/7/5 1/10/5
f 4/12/6 2/166/6 6/8/6
f 11/15/1 9/167/1 17/13/1
f 9/167/1 10/31/1 17/13/1
f 12/14/2 16/168/2 15/16/2
f 13/19/3 15/16/3 18/17/3
f 15/16/3 16/168/3 18/17/3
f 14/18/4 10/34/4 9/20/4
f 15/16/5 13/19/5 9/21/5
f 22/23/6 25/28/6 30/24/6
f 18/17/6 16/168/6 23/26/6
f 16/168/6 12/169/6 23/26/6
f 12/169/6 17/39/6 23/26/6
f 20/30/6 19/43/6 26/35/6
f 25/28/6 22/23/6 21/29/6
f 20/30/6 26/35/6 25/28/6
f 10/31/1 21/170/1 22/32/1
f 18/17/3 19/43/3 20/30/3
f 14/18/4 20/30/4 21/33/4
f 26/35/1 33/44/1 31/36/1
f 23/26/2 25/28/2 26/35/2
f 27/37/2 28/25/2 30/24/2
f 17/39/5 27/37/5 29/38/5
f 22/32/1 28/171/1 27/40/1
f 23/26/3 29/38/3 30/24/3
f 31/36/2 33/44/2 34/41/2
f 18/17/5 24/27/5 31/36/5
f 18/17/3 32/42/3 34/41/3
f 19/43/6 34/41/6 33/44/6
f 37/47/1 35/172/1 43/45/1
f 35/172/1 36/63/1 43/45/1
f 38/46/2 42/173/2 41/48/2
f 39/51/3 41/48/3 44/49/3
f 41/48/3 42/173/3 44/49/3
f 40/50/4 36/66/4 35/52/4
f 41/48/5 39/51/5 35/53/5
f 48/55/6 51/60/6 56/56/6
f 44/49/6 42/173/6 49/58/6
f 42/173/6 38/174/6 49/58/6
f 38/174/6 43/71/6 49/58/6
f 46/62/6 45/75/6 52/67/6
f 51/60/6 48/55/6 47/61/6
f 46/62/6 52/67/6 51/60/6
f 36/63/1 47/175/1 48/64/1
f 44/49/3 45/75/3 46/62/3
f 40/50/4 46/62/4 47/65/4
f 52/67/1 59/76/1 57/68/1
f 49/58/2 51/60/2 52/67/2
f 53/69/2 54/57/2 56/56/2
f 43/71/5 53/69/5 55/70/5
f 48/64/1 54/176/1 53/72/1
f 49/58/3 55/70/3 56/56/3
f 57/68/2 59/76/2 60/73/2
f 44/49/5 50/59/5 57/68/5
f 44/49/3 58/74/3 60/73/3
f 45/75/6 60/73/6 59/76/6
f 63/79/1 61/177/1 69/77/1
f 61/177/1 62/95/1 69/77/1
f 64/78/2 68/178/2 67/80/2
f 65/83/3 67/80/3 70/81/3
f 67/80/3 68/178/3 70/81/3
f 66/82/4 62/98/4 61/84/4
f 67/80/5 65/83/5 61/85/5
f 74/87/6 77/92/6 82/88/6
f 70/81/6 68/178/6 75/90/6
f 68/178/6 64/179/6 75/90/6
f 64/179/6 69/103/6 75/90/6
f 72/94/6 71/107/6 78/99/6
f 77/92/6 74/87/6 73/93/6
f 72/94/6 78/99/6 77/92/6
f 62/95/1 73/180/1 74/96/1
f 70/81/3 71/107/3 72/94/3
f 66/82/4 72/94/4 73/97/4
f 78/99/1 85/108/1 83/100/1
f 75/90/2 77/92/2 78/99/2
f 79/101/2 80/89/2 82/88/2
f 69/103/5 79/101/5 81/102/5
f 74/96/1 80/181/1 79/104/1
f 75/90/3 81/102/3 82/88/3
f 83/100/2 85/108/2 86/105/2
f 70/81/5 76/91/5 83/100/5
f 70/81/3 84/106/3 86/105/3
f 71/107/6 86/105/6 85/108/6
f 89/111/1 87/182/1 95/109/1
f 87/182/1 88/127/1 95/109/1
f 90/110/2 94/183/2 93/112/2
f 91/115/3 93/112/3 96/113/3
f 93/112/3 94/183/3 96/113/3
f 92/114/4 88/130/4 87/116/4
f 93/112/5 91/115/5 87/117/5
f 100/119/6 103/124/6 108/120/6
f 96/113/6 94/183/6 101/122/6
f 94/183/6 90/184/6 101/122/6
f 90/184/6 95/135/6 101/122/6
f 98/126/6 97/139/6 104/131/6
f 103/124/6 100/119/6 99/125/6
f 98/126/6 104/131/6 103/124/6
f 88/127/1 99/185/1 100/128/1
f 96/113/3 97/139/3 98/126/3
f 92/114/4 98/126/4 99/129/4
f 104/131/1 111/140/1 109/132/1
f 101/122/2 103/124/2 104/131/2
f 105/133/2 106/121/2 108/120/2
f 95/135/5 105/133/5 107/134/5
f 100/128/1 106/186/1 105/136/1
f 101/122/3 107/134/3 108/120/3
f 109/132/2 111/140/2 112/137/2
f 96/113/5 102/123/5 109/132/5
f 96/113/3 110/138/3 112/137/3
f 97/139/6 112/137/6 111/140/6
f 114/141/1 116/144/1 115/142/1
f 116/144/2 120/146/2 119/145/2
f 120/146/3 118/148/3 117/147/3
f 118/148/4 114/187/4 113/149/4
f 119/145/5 117/147/5 113/150/5
f 116/152/6 114/188/6 118/148/6
f 122/153/1 124/156/1 123/154/1
f 124/156/2 128/158/2 127/157/2
f 128/158/3 126/160/3 125/159/3
f 126/160/4 122/189/4 121/161/4
f 127/157/5 125/159/5 121/162/5
f 124/164/6 122/190/6 126/160/6
