# Blender v3.4.1 OBJ File: 'buildings.blend'
# www.blender.org
o Cylinder-2_Cylinder.002
v -0.000000 0.086586 -0.606614
v -0.000000 0.912199 -0.439756
v 0.232141 0.086586 -0.560438
v 0.168287 0.912199 -0.406281
v 0.428941 0.086586 -0.428941
v 0.310954 0.912199 -0.310954
v 0.560438 0.086586 -0.232141
v 0.406281 0.912199 -0.168287
v 0.606614 0.086586 -0.000000
v 0.439756 0.912199 0.000000
v 0.560438 0.086586 0.232141
v 0.406281 0.912199 0.168287
v 0.428941 0.086586 0.428941
v 0.310954 0.912199 0.310954
v 0.232141 0.086586 0.560438
v 0.168287 0.912199 0.406281
v -0.000000 0.086586 0.606614
v -0.000000 0.912199 0.439756
v -0.232141 0.086586 0.560438
v -0.168287 0.912199 0.406281
v -0.428941 0.086586 0.428941
v -0.310954 0.912199 0.310954
v -0.560438 0.086586 0.232141
v -0.406281 0.912199 0.168287
v -0.606614 0.086586 -0.000000
v -0.439756 0.912199 0.000000
v -0.560438 0.086586 -0.232141
v -0.406281 0.912199 -0.168287
v -0.428941 0.086586 -0.428941
v -0.310954 0.912199 -0.310954
v -0.232141 0.086586 -0.560438
v -0.168287 0.912199 -0.406281
v -0.000000 -0.455818 -0.786010
v 0.300793 -0.455818 -0.726178
v 0.555793 -0.455818 -0.555793
v 0.726178 -0.455818 -0.300793
v 0.786010 -0.455818 -0.000000
v 0.726178 -0.455818 0.300793
v 0.555793 -0.455818 0.555793
v 0.300793 -0.455818 0.726178
v -0.000000 -0.455818 0.786010
v -0.300793 -0.455818 0.726178
v -0.555793 -0.455818 0.555793
v -0.726178 -0.455818 0.300793
v -0.786010 -0.455818 -0.000000
v -0.726178 -0.455818 -0.300793
v -0.555793 -0.455818 -0.555793
v -0.300793 -0.455818 -0.726178
v -0.000000 -0.709661 -0.889305
v 0.340322 -0.709661 -0.821611
v 0.628834 -0.709661 -0.628834
v 0.821611 -0.709661 -0.340322
v 0.889305 -0.709661 -0.000000
v 0.821611 -0.709661 0.340322
v 0.628834 -0.709661 0.628834
v 0.340322 -0.709661 0.821611
v -0.000000 -0.709661 0.889305
v -0.340322 -0.709661 0.821611
v -0.628834 -0.709661 0.628834
v -0.821611 -0.709661 0.340322
v -0.889305 -0.709661 -0.000000
v -0.821611 -0.709661 -0.340322
v -0.628834 -0.709661 -0.628834
v -0.340322 -0.709661 -0.821611
v -0.000000 -0.812905 -0.963731
v 0.368804 -0.812905 -0.890372
v 0.681461 -0.812905 -0.681461
v 0.890372 -0.812905 -0.368804
v 0.963731 -0.812905 -0.000000
v 0.890372 -0.812905 0.368804
v 0.681461 -0.812905 0.681461
v 0.368804 -0.812905 0.890372
v -0.000000 -0.812905 0.963731
v -0.368804 -0.812905 0.890372
v -0.681461 -0.812905 0.681461
v -0.890372 -0.812905 0.368804
v -0.963731 -0.812905 -0.000000
v -0.890372 -0.812905 -0.368804
v -0.681461 -0.812905 -0.681461
v -0.368804 -0.812905 -0.890372
v -0.000000 0.955499 -0.446042
v 0.170693 0.955499 -0.412089
v 0.315399 0.955499 -0.315399
v 0.412089 0.955499 -0.170693
v 0.446042 0.955499 0.000000
v 0.412089 0.955499 0.170693
v 0.315399 0.955499 0.315399
v 0.170693 0.955499 0.412089
v -0.000000 0.955499 0.446042
v -0.170693 0.955499 0.412089
v -0.315399 0.955499 0.315399
v -0.412089 0.955499 0.170693
v -0.446042 0.955499 0.000000
v -0.412089 0.955499 -0.170693
v -0.315399 0.955499 -0.315399
v -0.170693 0.955499 -0.412089
v -0.000000 0.986002 -0.462896
v 0.177143 0.986002 -0.427660
v 0.327317 0.986002 -0.327317
v 0.427660 0.986002 -0.177143
v 0.462896 0.986002 0.000000
v 0.427660 0.986002 0.177143
v 0.327317 0.986002 0.327317
v 0.177143 0.986002 0.427660
v -0.000000 0.986002 0.462896
v -0.177143 0.986002 0.427660
v -0.327317 0.986002 0.327317
v -0.427660 0.986002 0.177143
v -0.462896 0.986002 0.000000
v -0.427660 0.986002 -0.177143
v -0.327317 0.986002 -0.327317
v -0.177143 0.986002 -0.427660
v -0.000000 1.036391 -0.437471
v 0.167413 1.036391 -0.404171
v 0.309339 1.036391 -0.309339
v 0.404171 1.036391 -0.167413
v 0.437471 1.036391 0.000000
v 0.404171 1.036391 0.167413
v 0.309339 1.036391 0.309339
v 0.167413 1.036391 0.404171
v -0.000000 1.036391 0.437471
v -0.167413 1.036391 0.404171
v -0.309339 1.036391 0.309339
v -0.404171 1.036391 0.167413
v -0.437471 1.036391 0.000000
v -0.404171 1.036391 -0.167413
v -0.309339 1.036391 -0.309339
v -0.167413 1.036391 -0.404171
v -0.000000 1.066526 -0.272518
v 0.104288 1.066526 -0.251774
v 0.192699 1.066526 -0.192699
v 0.251774 1.066526 -0.104288
v 0.272518 1.066526 0.000000
v 0.251774 1.066526 0.104288
v 0.192699 1.066526 0.192699
v 0.104288 1.066526 0.251774
v -0.000000 1.066526 0.272518
v -0.104288 1.066526 0.251774
v -0.192699 1.066526 0.192699
v -0.251774 1.066526 0.104288
v -0.272518 1.066526 0.000000
v -0.251774 1.066526 -0.104288
v -0.192699 1.066526 -0.192699
v -0.104288 1.066526 -0.251774
v 0.000000 -0.857657 -0.879074
v 0.336407 -0.857657 -0.812159
v 0.621599 -0.857657 -0.621599
v 0.812159 -0.857657 -0.336407
v 0.879074 -0.857657 -0.000000
v 0.812159 -0.857657 0.336407
v 0.621599 -0.857657 0.621599
v 0.336407 -0.857657 0.812159
v 0.000000 -0.857657 0.879074
v -0.336407 -0.857657 0.812159
v -0.621600 -0.857657 0.621599
v -0.812159 -0.857657 0.336407
v -0.879074 -0.857657 -0.000000
v -0.812159 -0.857657 -0.336407
v -0.621600 -0.857657 -0.621599
v -0.336407 -0.857657 -0.812159
vt 1.000000 0.500000
vt 0.937500 1.000000
vt 0.937500 0.500000
vt 0.875000 0.500000
vt 0.875000 1.000000
vt 0.812500 0.500000
vt 0.750000 1.000000
vt 0.750000 0.500000
vt 0.687500 1.000000
vt 0.687500 0.500000
vt 0.625000 0.500000
vt 0.625000 1.000000
vt 0.562500 0.500000
vt 0.500000 1.000000
vt 0.500000 0.500000
vt 0.437500 0.500000
vt 0.437500 1.000000
vt 0.375000 0.500000
vt 0.375000 1.000000
vt 0.312500 0.500000
vt 0.250000 1.000000
vt 0.250000 0.500000
vt 0.187500 1.000000
vt 0.187500 0.500000
vt 0.125000 0.500000
vt 0.812500 1.000000
vt 0.750000 1.000000
vt 0.125000 1.000000
vt 0.062500 0.500000
vt 0.062500 1.000000
vt 0.000000 0.500000
vt 0.875000 0.500000
vt 0.750000 0.500000
vt 0.812500 0.500000
vt 0.812500 0.500000
vt 0.562500 0.500000
vt 1.000000 0.500000
vt 0.250000 0.500000
vt 0.687500 0.500000
vt 0.375000 0.500000
vt 0.062500 0.500000
vt 0.500000 0.500000
vt 0.187500 0.500000
vt 0.937500 0.500000
vt 0.625000 0.500000
vt 0.312500 0.500000
vt 0.437500 0.500000
vt 0.125000 0.500000
vt 0.250000 0.500000
vt 0.312500 0.500000
vt 0.312500 0.500000
vt 0.750000 0.500000
vt 0.687500 0.500000
vt 0.187500 0.500000
vt 0.625000 0.500000
vt 0.062500 0.500000
vt 0.125000 0.500000
vt 0.562500 0.500000
vt 1.000000 0.500000
vt 0.000000 0.500000
vt 0.500000 0.500000
vt 0.937500 0.500000
vt 0.437500 0.500000
vt 0.875000 0.500000
vt 0.375000 0.500000
vt 0.812500 0.500000
vt 0.750000 0.500000
vt 0.812500 0.500000
vt 0.750000 0.500000
vt 0.250000 0.500000
vt 0.687500 0.500000
vt 0.187500 0.500000
vt 0.625000 0.500000
vt 0.062500 0.500000
vt 0.125000 0.500000
vt 0.562500 0.500000
vt 1.000000 0.500000
vt 0.000000 0.500000
vt 0.500000 0.500000
vt 0.937500 0.500000
vt 0.437500 0.500000
vt 0.875000 0.500000
vt 0.375000 0.500000
vt 0.562500 1.000000
vt 0.500000 1.000000
vt 0.500000 1.000000
vt 0.437500 1.000000
vt 0.125000 1.000000
vt 0.875000 1.000000
vt 0.562500 1.000000
vt 0.312500 1.000000
vt 0.250000 1.000000
vt 0.687500 1.000000
vt 0.375000 1.000000
vt 0.062500 1.000000
vt 0.812500 1.000000
vt 1.000000 1.000000
vt 0.937500 1.000000
vt 0.187500 1.000000
vt 0.625000 1.000000
vt 0.312500 1.000000
vt 0.000000 1.000000
vt 0.000000 1.000000
vt 0.625000 1.000000
vt 0.562500 1.000000
vt 0.562500 1.000000
vt 1.000000 1.000000
vt 0.937500 1.000000
vt 0.000000 1.000000
vt 0.437500 1.000000
vt 0.875000 1.000000
vt 0.375000 1.000000
vt 0.812500 1.000000
vt 0.312500 1.000000
vt 0.750000 1.000000
vt 0.250000 1.000000
vt 0.687500 1.000000
vt 0.187500 1.000000
vt 0.125000 1.000000
vt 0.062500 1.000000
vt 0.312500 1.000000
vt 0.250000 1.000000
vt 0.250000 1.000000
vt 0.062500 1.000000
vt 0.500000 1.000000
vt 1.000000 1.000000
vt 0.937500 1.000000
vt 0.000000 1.000000
vt 0.437500 1.000000
vt 0.875000 1.000000
vt 0.375000 1.000000
vt 0.812500 1.000000
vt 0.750000 1.000000
vt 0.687500 1.000000
vt 0.187500 1.000000
vt 0.625000 1.000000
vt 0.125000 1.000000
vt 0.080294 0.080294
vt 0.419706 0.080294
vt 0.419706 0.419706
vt 0.687500 1.000000
vt 0.187500 1.000000
vt 0.625000 1.000000
vt 0.125000 1.000000
vt 0.562500 1.000000
vt 0.062500 1.000000
vt 0.500000 1.000000
vt 0.937500 1.000000
vt 0.000000 1.000000
vt 0.437500 1.000000
vt 0.875000 1.000000
vt 0.375000 1.000000
vt 0.812500 1.000000
vt 0.312500 1.000000
vt 0.750000 1.000000
vt 0.841844 0.028269
vt 0.528269 0.158156
vt 0.658156 0.471731
vt 0.250000 0.500000
vt 0.312500 0.500000
vt 0.687500 0.500000
vt 0.187500 0.500000
vt 0.125000 0.500000
vt 0.625000 0.500000
vt 0.500000 0.500000
vt 0.562500 0.500000
vt 0.937500 0.500000
vt 1.000000 0.500000
vt 0.000000 0.500000
vt 0.062500 0.500000
vt 0.437500 0.500000
vt 0.875000 0.500000
vt 0.375000 0.500000
vt 1.000000 1.000000
vt 0.000000 0.500000
vt 0.341844 0.471731
vt 0.080294 0.419706
vt 0.250000 0.490000
vt 0.158156 0.471731
vt 0.028269 0.341844
vt 0.010000 0.250000
vt 0.028269 0.158156
vt 0.158156 0.028269
vt 0.250000 0.010000
vt 0.341844 0.028269
vt 0.471731 0.158156
vt 0.490000 0.250000
vt 0.471731 0.341844
vt 1.000000 1.000000
vt 0.750000 0.490000
vt 0.841844 0.471731
vt 0.919706 0.419706
vt 0.971731 0.341844
vt 0.990000 0.250000
vt 0.971731 0.158156
vt 0.919706 0.080294
vt 0.750000 0.010000
vt 0.658156 0.028269
vt 0.580294 0.080294
vt 0.510000 0.250000
vt 0.528269 0.341844
vt 0.580294 0.419706
vn 0.0000 0.2584 -0.9660
vn 0.3825 0.0282 -0.9235
vn 0.3697 0.2584 -0.8925
vn 0.6831 0.2584 -0.6831
vn 0.7068 0.0282 -0.7068
vn 0.8925 0.2584 -0.3697
vn 0.9996 0.0282 0.0000
vn 0.9660 0.2584 -0.0000
vn 0.9235 0.0282 0.3825
vn 0.8925 0.2584 0.3697
vn 0.6831 0.2584 0.6831
vn 0.7068 0.0282 0.7068
vn 0.3697 0.2584 0.8925
vn -0.0000 0.0282 0.9996
vn -0.0000 0.2584 0.9660
vn -0.3697 0.2584 0.8925
vn -0.3825 0.0282 0.9235
vn -0.6831 0.2584 0.6831
vn -0.7068 0.0282 0.7068
vn -0.8925 0.2584 0.3697
vn -0.9996 0.0282 -0.0000
vn -0.9660 0.2584 0.0000
vn -0.9235 0.0282 -0.3825
vn -0.8925 0.2584 -0.3697
vn -0.6831 0.2584 -0.6831
vn 0.9235 0.0282 -0.3825
vn 0.9455 -0.3258 -0.0000
vn -0.7068 0.0282 -0.7068
vn -0.3697 0.2584 -0.8925
vn -0.3825 0.0282 -0.9235
vn 0.6632 0.3470 -0.6632
vn 0.9379 0.3470 0.0000
vn 0.8050 0.4906 -0.3335
vn 0.8665 0.3470 -0.3589
vn 0.3589 0.3470 0.8665
vn 0.0000 0.3470 -0.9379
vn -0.9379 0.3470 -0.0000
vn 0.8665 0.3470 0.3589
vn -0.6632 0.3470 0.6632
vn -0.3589 0.3470 -0.8665
vn 0.0000 0.3470 0.9379
vn -0.8665 0.3470 -0.3589
vn 0.3589 0.3470 -0.8665
vn 0.6632 0.3470 0.6632
vn -0.8665 0.3470 0.3589
vn -0.3589 0.3470 0.8665
vn -0.6632 0.3470 -0.6632
vn -0.8714 0.4906 0.0000
vn -0.7495 0.5848 0.3104
vn -0.8050 0.4906 0.3335
vn 0.8714 0.4906 -0.0000
vn 0.8050 0.4906 0.3335
vn -0.8050 0.4906 -0.3335
vn 0.6161 0.4906 0.6161
vn -0.3335 0.4906 -0.8050
vn -0.6161 0.4906 -0.6161
vn 0.3335 0.4906 0.8050
vn 0.0000 0.4906 -0.8714
vn -0.0000 0.4906 0.8714
vn 0.3335 0.4906 -0.8050
vn -0.3335 0.4906 0.8050
vn 0.6161 0.4906 -0.6161
vn -0.6161 0.4906 0.6161
vn 0.4318 -0.8841 -0.1788
vn 0.2687 -0.9632 -0.0000
vn 0.2482 -0.9632 -0.1028
vn 0.8112 0.5848 -0.0000
vn -0.8112 0.5848 0.0000
vn 0.7495 0.5848 0.3104
vn -0.7495 0.5848 -0.3104
vn 0.5736 0.5848 0.5736
vn -0.3104 0.5848 -0.7495
vn -0.5736 0.5848 -0.5736
vn 0.3104 0.5848 0.7495
vn -0.0000 0.5848 -0.8112
vn 0.0000 0.5848 0.8112
vn 0.3104 0.5848 -0.7495
vn -0.3104 0.5848 0.7495
vn 0.5736 0.5848 -0.5736
vn -0.5736 0.5848 0.5736
vn 0.7495 0.5848 -0.3104
vn 0.3618 -0.3258 0.8735
vn 0.0000 -0.4836 0.8753
vn -0.0000 -0.3258 0.9455
vn -0.3618 -0.3258 0.8735
vn -0.6685 -0.3258 -0.6685
vn 0.6685 -0.3258 -0.6685
vn 0.3825 0.0282 0.9235
vn -0.9235 0.0282 0.3825
vn -0.9455 -0.3258 -0.0000
vn 0.8735 -0.3258 0.3618
vn -0.6685 -0.3258 0.6685
vn -0.3618 -0.3258 -0.8735
vn 0.8735 -0.3258 -0.3618
vn 0.0000 -0.3258 -0.9455
vn 0.3618 -0.3258 -0.8735
vn -0.8735 -0.3258 -0.3618
vn 0.6685 -0.3258 0.6685
vn -0.8735 -0.3258 0.3618
vn -0.0000 0.0282 -0.9996
vn 0.6313 0.4505 0.6313
vn 0.3417 0.4505 0.8248
vn 0.0000 -0.4836 -0.8753
vn 0.3350 -0.4836 -0.8086
vn -0.3350 -0.4836 0.8086
vn 0.6189 -0.4836 -0.6189
vn -0.6189 -0.4836 0.6189
vn 0.8086 -0.4836 -0.3350
vn -0.8086 -0.4836 0.3350
vn 0.8753 -0.4836 -0.0000
vn -0.8753 -0.4836 -0.0000
vn 0.8086 -0.4836 0.3350
vn -0.8086 -0.4836 -0.3350
vn 0.6189 -0.4836 0.6189
vn -0.6189 -0.4836 -0.6189
vn 0.3350 -0.4836 0.8086
vn -0.3350 -0.4836 -0.8086
vn -0.1660 0.9837 0.0688
vn -0.1014 0.9948 0.0000
vn -0.1797 0.9837 -0.0000
vn -0.6313 0.4505 -0.6313
vn -0.3417 0.4505 -0.8248
vn -0.0000 0.4505 0.8928
vn 0.3417 0.4505 -0.8248
vn 0.0000 0.4505 -0.8928
vn -0.3417 0.4505 0.8248
vn 0.6313 0.4505 -0.6313
vn -0.6313 0.4505 0.6313
vn 0.8248 0.4505 -0.3417
vn -0.8248 0.4505 0.3417
vn 0.8928 0.4505 0.0000
vn -0.8928 0.4505 -0.0000
vn 0.8248 0.4505 0.3417
vn -0.8248 0.4505 -0.3417
vn -0.0717 0.9948 0.0717
vn 0.0717 0.9948 0.0717
vn 0.0717 0.9948 -0.0717
vn 0.1797 0.9837 0.0000
vn 0.0937 0.9948 0.0388
vn 0.1660 0.9837 0.0688
vn -0.0937 0.9948 -0.0388
vn -0.1660 0.9837 -0.0688
vn 0.1271 0.9837 0.1271
vn -0.0717 0.9948 -0.0717
vn -0.1271 0.9837 -0.1271
vn 0.0688 0.9837 0.1660
vn 0.0388 0.9948 0.0937
vn -0.0388 0.9948 -0.0937
vn -0.0688 0.9837 -0.1660
vn -0.0000 0.9948 0.1014
vn -0.0000 0.9837 0.1797
vn -0.0000 0.9837 -0.1797
vn 0.0388 0.9948 -0.0937
vn 0.0688 0.9837 -0.1660
vn 0.0000 0.9948 -0.1014
vn -0.0388 0.9948 0.0937
vn -0.0688 0.9837 0.1660
vn 0.1271 0.9837 -0.1271
vn -0.1271 0.9837 0.1271
vn 0.0937 0.9948 -0.0388
vn 0.1660 0.9837 -0.0688
vn -0.0937 0.9948 0.0388
vn 0.1014 0.9948 -0.0000
vn 0.1028 -0.9632 0.2482
vn -0.2482 -0.9632 0.1028
vn -0.1028 -0.9632 -0.2482
vn -0.4318 -0.8841 0.1788
vn -0.2687 -0.9632 0.0000
vn 0.4673 -0.8841 -0.0000
vn 0.2482 -0.9632 0.1028
vn -0.4673 -0.8841 0.0000
vn -0.2482 -0.9632 -0.1028
vn 0.3305 -0.8841 0.3305
vn 0.4318 -0.8841 0.1788
vn -0.4318 -0.8841 -0.1788
vn -0.1900 -0.9632 -0.1900
vn 0.1788 -0.8841 0.4318
vn 0.1900 -0.9632 0.1900
vn -0.1788 -0.8841 -0.4318
vn -0.3305 -0.8841 -0.3305
vn -0.0000 -0.9632 0.2687
vn 0.0000 -0.8841 -0.4673
vn 0.1028 -0.9632 -0.2482
vn 0.0000 -0.9632 -0.2687
vn -0.0000 -0.8841 0.4673
vn -0.1028 -0.9632 0.2482
vn 0.3305 -0.8841 -0.3305
vn 0.1788 -0.8841 -0.4318
vn -0.3305 -0.8841 0.3305
vn -0.1788 -0.8841 0.4318
vn 0.1900 -0.9632 -0.1900
vn -0.1900 -0.9632 0.1900
s 1
f 1/1/1 4/2/2 3/3/3
f 4/2/2 5/4/4 3/3/3
f 6/5/5 7/6/6 5/4/4
f 7/6/6 10/7/7 9/8/8
f 9/8/8 12/9/9 11/10/10
f 12/9/9 13/11/11 11/10/10
f 14/12/12 15/13/13 13/11/11
f 15/13/13 18/14/14 17/15/15
f 18/14/14 19/16/16 17/15/15
f 20/17/17 21/18/18 19/16/16
f 22/19/19 23/20/20 21/18/18
f 23/20/20 26/21/21 25/22/22
f 25/22/22 28/23/23 27/24/24
f 28/23/23 29/25/25 27/24/24
f 8/26/26 85/27/27 10/7/7
f 30/28/28 31/29/29 29/25/25
f 32/30/30 1/31/1 31/29/29
f 7/6/6 35/32/31 5/4/4
f 37/33/32 52/34/33 36/35/34
f 17/15/15 40/36/35 15/13/13
f 3/3/3 33/37/36 1/1/1
f 27/24/24 45/38/37 25/22/22
f 13/11/11 38/39/38 11/10/10
f 23/20/20 43/40/39 21/18/18
f 1/31/1 48/41/40 31/29/29
f 9/8/8 36/35/34 7/6/6
f 19/16/16 41/42/41 17/15/15
f 29/25/25 46/43/42 27/24/24
f 5/4/4 34/44/43 3/3/3
f 15/13/13 39/45/44 13/11/11
f 25/22/22 44/46/45 23/20/20
f 11/10/10 37/33/32 9/8/8
f 21/18/18 42/47/46 19/16/16
f 31/29/29 47/48/47 29/25/25
f 61/49/48 76/50/49 60/51/50
f 45/38/37 60/51/50 44/46/45
f 38/39/38 53/52/51 37/33/32
f 46/43/42 61/49/48 45/38/37
f 39/45/44 54/53/52 38/39/38
f 47/48/47 62/54/53 46/43/42
f 40/36/35 55/55/54 39/45/44
f 47/48/47 64/56/55 63/57/56
f 41/42/41 56/58/57 40/36/35
f 34/44/43 49/59/58 33/37/36
f 33/60/36 64/56/55 48/41/40
f 42/47/46 57/61/59 41/42/41
f 35/32/31 50/62/60 34/44/43
f 43/40/39 58/63/61 42/47/46
f 35/32/31 52/34/33 51/64/62
f 44/46/45 59/65/63 43/40/39
f 68/66/64 149/67/65 148/68/66
f 54/53/52 69/69/67 53/52/51
f 62/54/53 77/70/68 61/49/48
f 55/55/54 70/71/69 54/53/52
f 63/57/56 78/72/70 62/54/53
f 56/58/57 71/73/71 55/55/54
f 63/57/56 80/74/72 79/75/73
f 57/61/59 72/76/74 56/58/57
f 50/62/60 65/77/75 49/59/58
f 49/78/58 80/74/72 64/56/55
f 58/63/61 73/79/76 57/61/59
f 51/64/62 66/80/77 50/62/60
f 59/65/63 74/81/78 58/63/61
f 52/34/33 67/82/79 51/64/62
f 59/65/63 76/50/49 75/83/80
f 53/52/51 68/66/81 52/34/33
f 88/84/82 105/85/83 89/86/84
f 18/14/14 90/87/85 20/17/17
f 28/23/23 95/88/86 30/28/28
f 4/2/2 83/89/87 6/5/5
f 14/12/12 88/84/82 16/90/88
f 24/91/89 93/92/90 26/21/21
f 12/9/9 85/27/27 86/93/91
f 22/19/19 90/87/85 91/94/92
f 32/30/30 95/88/86 96/95/93
f 6/5/5 84/96/94 8/26/26
f 16/90/88 89/86/84 18/14/14
f 4/2/2 81/97/95 82/98/96
f 28/23/23 93/92/90 94/99/97
f 12/9/9 87/100/98 14/12/12
f 22/19/19 92/101/99 24/91/89
f 32/30/30 81/102/95 2/103/100
f 103/104/101 120/105/102 104/106/102
f 82/98/96 97/107/103 98/108/104
f 96/95/93 97/109/103 81/102/95
f 89/86/84 106/110/105 90/87/85
f 82/98/96 99/111/106 83/89/87
f 90/87/85 107/112/107 91/94/92
f 84/96/94 99/111/106 100/113/108
f 92/101/99 107/112/107 108/114/109
f 84/96/94 101/115/110 85/27/27
f 92/101/99 109/116/111 93/92/90
f 86/93/91 101/115/110 102/117/112
f 94/99/97 109/116/111 110/118/113
f 86/93/91 103/104/114 87/100/98
f 94/99/97 111/119/115 95/88/86
f 88/84/82 103/104/114 104/106/116
f 96/95/93 111/119/115 112/120/117
f 124/121/118 141/122/119 125/123/120
f 111/119/121 128/124/122 112/120/122
f 104/106/102 121/125/123 105/85/123
f 98/108/124 113/126/125 114/127/124
f 112/120/122 113/128/125 97/109/125
f 105/85/123 122/129/126 106/110/126
f 99/111/127 114/127/124 115/130/127
f 106/110/126 123/131/128 107/112/128
f 99/111/127 116/132/129 100/113/129
f 107/112/128 124/121/130 108/114/130
f 100/113/129 117/133/131 101/115/131
f 108/114/130 125/123/132 109/116/132
f 101/115/131 118/134/133 102/117/133
f 109/116/132 126/135/134 110/118/134
f 102/117/133 119/136/101 103/104/101
f 110/118/134 127/137/121 111/119/121
f 139/138/135 135/139/136 131/140/137
f 117/133/138 134/141/139 118/134/140
f 125/123/120 142/142/141 126/135/142
f 118/134/140 135/143/136 119/136/143
f 126/135/142 143/144/144 127/137/145
f 120/105/146 135/143/136 136/145/147
f 127/137/145 144/146/148 128/124/149
f 120/105/146 137/147/150 121/125/151
f 113/126/152 130/148/153 114/127/154
f 113/128/152 144/146/148 129/149/155
f 121/125/151 138/150/156 122/129/157
f 114/127/154 131/151/137 115/130/158
f 123/131/159 138/150/156 139/152/135
f 115/130/158 132/153/160 116/132/161
f 123/131/159 140/154/162 124/121/118
f 116/132/161 133/155/163 117/133/138
f 152/156/164 156/157/165 160/158/166
f 76/50/167 157/159/168 156/160/165
f 69/69/169 150/161/170 149/67/65
f 77/70/171 158/162/172 157/159/168
f 71/73/173 150/161/170 70/71/174
f 78/72/175 159/163/176 158/162/172
f 72/76/177 151/164/178 71/73/173
f 80/74/179 159/163/176 79/75/180
f 72/76/177 153/165/181 152/166/164
f 65/77/182 146/167/183 145/168/184
f 80/74/179 145/169/184 160/170/166
f 73/79/185 154/171/186 153/165/181
f 67/82/187 146/167/183 66/80/188
f 75/83/189 154/171/186 74/81/190
f 68/66/64 147/172/191 67/82/187
f 76/50/167 155/173/192 75/83/189
f 1/1/1 2/174/100 4/2/2
f 4/2/2 6/5/5 5/4/4
f 6/5/5 8/26/26 7/6/6
f 7/6/6 8/26/26 10/7/7
f 9/8/8 10/7/7 12/9/9
f 12/9/9 14/12/12 13/11/11
f 14/12/12 16/90/88 15/13/13
f 15/13/13 16/90/88 18/14/14
f 18/14/14 20/17/17 19/16/16
f 20/17/17 22/19/19 21/18/18
f 22/19/19 24/91/89 23/20/20
f 23/20/20 24/91/89 26/21/21
f 25/22/22 26/21/21 28/23/23
f 28/23/23 30/28/28 29/25/25
f 8/26/26 84/96/94 85/27/27
f 30/28/28 32/30/30 31/29/29
f 32/30/30 2/103/100 1/31/1
f 7/6/6 36/35/34 35/32/31
f 37/33/32 53/52/51 52/34/33
f 17/15/15 41/42/41 40/36/35
f 3/3/3 34/44/43 33/37/36
f 27/24/24 46/43/42 45/38/37
f 13/11/11 39/45/44 38/39/38
f 23/20/20 44/46/45 43/40/39
f 1/31/1 33/60/36 48/41/40
f 9/8/8 37/33/32 36/35/34
f 19/16/16 42/47/46 41/42/41
f 29/25/25 47/48/47 46/43/42
f 5/4/4 35/32/31 34/44/43
f 15/13/13 40/36/35 39/45/44
f 25/22/22 45/38/37 44/46/45
f 11/10/10 38/39/38 37/33/32
f 21/18/18 43/40/39 42/47/46
f 31/29/29 48/41/40 47/48/47
f 61/49/48 77/70/68 76/50/49
f 45/38/37 61/49/48 60/51/50
f 38/39/38 54/53/52 53/52/51
f 46/43/42 62/54/53 61/49/48
f 39/45/44 55/55/54 54/53/52
f 47/48/47 63/57/56 62/54/53
f 40/36/35 56/58/57 55/55/54
f 47/48/47 48/41/40 64/56/55
f 41/42/41 57/61/59 56/58/57
f 34/44/43 50/62/60 49/59/58
f 33/60/36 49/78/58 64/56/55
f 42/47/46 58/63/61 57/61/59
f 35/32/31 51/64/62 50/62/60
f 43/40/39 59/65/63 58/63/61
f 35/32/31 36/35/34 52/34/33
f 44/46/45 60/51/50 59/65/63
f 68/66/64 69/69/169 149/67/65
f 54/53/52 70/71/69 69/69/67
f 62/54/53 78/72/70 77/70/68
f 55/55/54 71/73/71 70/71/69
f 63/57/56 79/75/73 78/72/70
f 56/58/57 72/76/74 71/73/71
f 63/57/56 64/56/55 80/74/72
f 57/61/59 73/79/76 72/76/74
f 50/62/60 66/80/77 65/77/75
f 49/78/58 65/175/75 80/74/72
f 58/63/61 74/81/78 73/79/76
f 51/64/62 67/82/79 66/80/77
f 59/65/63 75/83/80 74/81/78
f 52/34/33 68/66/81 67/82/79
f 59/65/63 60/51/50 76/50/49
f 53/52/51 69/69/67 68/66/81
f 88/84/82 104/106/116 105/85/83
f 18/14/14 89/86/84 90/87/85
f 28/23/23 94/99/97 95/88/86
f 4/2/2 82/98/96 83/89/87
f 14/12/12 87/100/98 88/84/82
f 24/91/89 92/101/99 93/92/90
f 12/9/9 10/7/7 85/27/27
f 22/19/19 20/17/17 90/87/85
f 32/30/30 30/28/28 95/88/86
f 6/5/5 83/89/87 84/96/94
f 16/90/88 88/84/82 89/86/84
f 4/2/2 2/174/100 81/97/95
f 28/23/23 26/21/21 93/92/90
f 12/9/9 86/93/91 87/100/98
f 22/19/19 91/94/92 92/101/99
f 32/30/30 96/95/93 81/102/95
f 103/104/101 119/136/101 120/105/102
f 82/98/96 81/97/95 97/107/103
f 96/95/93 112/120/117 97/109/103
f 89/86/84 105/85/83 106/110/105
f 82/98/96 98/108/104 99/111/106
f 90/87/85 106/110/105 107/112/107
f 84/96/94 83/89/87 99/111/106
f 92/101/99 91/94/92 107/112/107
f 84/96/94 100/113/108 101/115/110
f 92/101/99 108/114/109 109/116/111
f 86/93/91 85/27/27 101/115/110
f 94/99/97 93/92/90 109/116/111
f 86/93/91 102/117/112 103/104/114
f 94/99/97 110/118/113 111/119/115
f 88/84/82 87/100/98 103/104/114
f 96/95/93 95/88/86 111/119/115
f 124/121/118 140/154/162 141/122/119
f 111/119/121 127/137/121 128/124/122
f 104/106/102 120/105/102 121/125/123
f 98/108/124 97/107/125 113/126/125
f 112/120/122 128/124/122 113/128/125
f 105/85/123 121/125/123 122/129/126
f 99/111/127 98/108/124 114/127/124
f 106/110/126 122/129/126 123/131/128
f 99/111/127 115/130/127 116/132/129
f 107/112/128 123/131/128 124/121/130
f 100/113/129 116/132/129 117/133/131
f 108/114/130 124/121/130 125/123/132
f 101/115/131 117/133/131 118/134/133
f 109/116/132 125/123/132 126/135/134
f 102/117/133 118/134/133 119/136/101
f 110/118/134 126/135/134 127/137/121
f 131/140/137 130/176/153 143/177/144
f 130/176/153 129/178/155 143/177/144
f 129/178/155 144/179/148 143/177/144
f 143/177/144 142/180/141 141/181/119
f 141/181/119 140/182/162 143/177/144
f 140/182/162 139/138/135 143/177/144
f 139/138/135 138/183/156 137/184/150
f 137/184/150 136/185/147 139/138/135
f 136/185/147 135/139/136 139/138/135
f 135/139/136 134/186/139 133/187/163
f 133/187/163 132/188/160 135/139/136
f 132/188/160 131/140/137 135/139/136
f 131/140/137 143/177/144 139/138/135
f 117/133/138 133/155/163 134/141/139
f 125/123/120 141/122/119 142/142/141
f 118/134/140 134/141/139 135/143/136
f 126/135/142 142/142/141 143/144/144
f 120/105/146 119/136/143 135/143/136
f 127/137/145 143/144/144 144/146/148
f 120/105/146 136/145/147 137/147/150
f 113/126/152 129/189/155 130/148/153
f 113/128/152 128/124/149 144/146/148
f 121/125/151 137/147/150 138/150/156
f 114/127/154 130/148/153 131/151/137
f 123/131/159 122/129/157 138/150/156
f 115/130/158 131/151/137 132/153/160
f 123/131/159 139/152/135 140/154/162
f 116/132/161 132/153/160 133/155/163
f 160/158/166 145/190/184 146/191/183
f 146/191/183 147/192/191 148/193/66
f 148/193/66 149/194/65 150/195/170
f 150/195/170 151/196/178 152/156/164
f 152/156/164 153/197/181 154/198/186
f 154/198/186 155/199/192 156/157/165
f 156/157/165 157/200/168 158/201/172
f 158/201/172 159/202/176 160/158/166
f 160/158/166 146/191/183 148/193/66
f 148/193/66 150/195/170 152/156/164
f 152/156/164 154/198/186 156/157/165
f 156/157/165 158/201/172 160/158/166
f 160/158/166 148/193/66 152/156/164
f 76/50/167 77/70/171 157/159/168
f 69/69/169 70/71/174 150/161/170
f 77/70/171 78/72/175 158/162/172
f 71/73/173 151/164/178 150/161/170
f 78/72/175 79/75/180 159/163/176
f 72/76/177 152/166/164 151/164/178
f 80/74/179 160/170/166 159/163/176
f 72/76/177 73/79/185 153/165/181
f 65/77/182 66/80/188 146/167/183
f 80/74/179 65/175/182 145/169/184
f 73/79/185 74/81/190 154/171/186
f 67/82/187 147/172/191 146/167/183
f 75/83/189 155/173/192 154/171/186
f 68/66/64 148/68/66 147/172/191
f 76/50/167 156/160/165 155/173/192
