# Blender v3.4.1 OBJ File: 'buildings.blend'
# www.blender.org
o Mini_Building_Cube.046
v -1.045932 0.461890 0.579406
v -1.045932 0.526532 0.581925
v -1.045932 0.544789 -0.626190
v -1.045932 0.619763 -0.622916
v 1.045932 0.461890 0.579406
v 1.045932 0.526532 0.581925
v 1.045932 0.544789 -0.626190
v 1.045932 0.619763 -0.622916
v -1.000000 -0.601409 0.546613
v -1.000000 0.517177 0.546613
v -1.000000 -0.601409 -0.546613
v -1.000000 0.601410 -0.546613
v 1.000000 -0.601409 0.546613
v 1.000000 0.517177 0.546613
v 1.000000 -0.601409 -0.546613
v 1.000000 0.601410 -0.546613
v 0.014806 -0.610014 0.569475
v 0.014806 0.536110 0.569475
v 0.014806 -0.610014 -0.558727
v 0.014806 0.620117 -0.558727
v 0.065267 -0.610014 0.569475
v 0.065267 0.536110 0.569475
v 0.065267 -0.610014 -0.558727
v 0.065267 0.620117 -0.558727
v -0.521586 -0.610014 0.569475
v -0.521586 0.536110 0.569475
v -0.521586 -0.610014 -0.558727
v -0.521586 0.620117 -0.558727
v -0.471125 -0.610014 0.569475
v -0.471125 0.536110 0.569475
v -0.471125 -0.610014 -0.558727
v -0.471125 0.620117 -0.558727
v -1.030511 -0.610014 0.569475
v -1.030511 0.536110 0.569475
v -1.030511 -0.610014 -0.558727
v -1.030511 0.620117 -0.558727
v -0.980050 -0.610014 0.569475
v -0.980050 0.536110 0.569475
v -0.980050 -0.610014 -0.558727
v -0.980050 0.620117 -0.558727
v 0.979031 -0.610014 0.569475
v 0.979031 0.536110 0.569475
v 0.979031 -0.610014 -0.558727
v 0.979031 0.620117 -0.558727
v 1.029492 -0.610014 0.569475
v 1.029492 0.536110 0.569475
v 1.029492 -0.610014 -0.558727
v 1.029492 0.620117 -0.558727
v 0.475712 -0.610014 0.569475
v 0.475712 0.536110 0.569475
v 0.475712 -0.610014 -0.558727
v 0.475712 0.620117 -0.558727
v 0.526173 -0.610014 0.569475
v 0.526173 0.536110 0.569475
v 0.526173 -0.610014 -0.558727
v 0.526173 0.620117 -0.558727
v -1.045932 0.017078 0.582278
v -1.045932 0.059307 0.582278
v -1.045932 0.017078 -0.626165
v -1.045932 0.059307 -0.626165
v 1.045932 0.017078 0.582278
v 1.045932 0.059307 0.582278
v 1.045932 0.017078 -0.626165
v 1.045932 0.059307 -0.626165
v -0.057236 -0.610014 0.569475
v -0.057236 0.536110 0.569475
v -0.057236 -0.610014 -0.558727
v -0.057236 0.620117 -0.558727
v -0.006775 -0.610014 0.569475
v -0.006775 0.536110 0.569475
v -0.006775 -0.610014 -0.558727
v -0.006775 0.620117 -0.558727
v -1.000000 0.041967 0.546613
v 1.000000 0.041967 0.546613
v 0.000000 -0.601409 0.546613
v 0.000000 0.517177 0.546613
v 0.000000 0.041967 0.546613
vt 0.859499 0.177398
vt 0.868992 0.000275
vt 0.868992 0.177680
vt 0.844381 0.487683
vt 0.855390 0.180588
vt 0.855390 0.487683
vt 0.176639 0.791593
vt 0.167146 0.614471
vt 0.176639 0.614189
vt 0.855390 0.487683
vt 0.864881 0.180588
vt 0.864881 0.487683
vt 0.354794 0.000000
vt 0.531868 0.307094
vt 0.354794 0.307094
vt 0.177399 0.000000
vt 0.354794 0.307094
vt 0.177399 0.307094
vt 0.839510 0.859410
vt 1.000000 0.777282
vt 1.000000 0.953861
vt 0.177010 0.600703
vt 0.353587 0.307094
vt 0.353587 0.600703
vt 1.000000 0.777282
vt 0.839510 0.764916
vt 0.839510 0.695153
vt 0.517799 0.453899
vt 0.517799 0.600703
vt 0.423349 0.600703
vt 0.531868 0.000000
vt 0.692354 0.000000
vt 0.692354 0.146804
vt 0.517799 0.307094
vt 0.678756 0.307094
vt 0.678756 0.453899
vt 0.000000 0.807110
vt 0.165625 0.975365
vt 0.000000 0.975365
vt 0.884688 0.541761
vt 0.877280 0.361175
vt 0.884688 0.361175
vt 0.508260 0.600703
vt 0.342635 0.768959
vt 0.342635 0.600703
vt 0.899504 0.517097
vt 0.892096 0.348843
vt 0.899504 0.348843
vt 0.921728 0.346208
vt 0.929136 0.180588
vt 0.929136 0.346208
vt 0.914320 0.346667
vt 0.921728 0.180588
vt 0.921728 0.346667
vt 0.673885 0.793624
vt 0.839510 0.961879
vt 0.673885 0.961879
vt 0.891216 0.180586
vt 0.883808 0.000000
vt 0.891216 0.000000
vt 0.165625 0.614189
vt 0.000000 0.782445
vt 0.000000 0.614189
vt 0.906912 0.348843
vt 0.899504 0.180588
vt 0.906912 0.180588
vt 0.929136 0.346208
vt 0.936543 0.180588
vt 0.936543 0.346208
vt 0.906912 0.514921
vt 0.914320 0.348843
vt 0.914320 0.514921
vt 0.692354 0.012333
vt 0.857978 0.180588
vt 0.692354 0.180588
vt 0.892096 0.361174
vt 0.884688 0.180588
vt 0.892096 0.180588
vt 0.844381 0.307094
vt 0.678756 0.475350
vt 0.678756 0.307094
vt 0.906032 0.168254
vt 0.898624 0.000000
vt 0.906032 0.000000
vt 0.928255 0.165620
vt 0.935663 0.000000
vt 0.935663 0.165620
vt 0.913440 0.166079
vt 0.920848 0.000000
vt 0.920848 0.166079
vt 0.508260 0.793624
vt 0.673885 0.961879
vt 0.508260 0.961879
vt 0.876400 0.180586
vt 0.868992 0.000000
vt 0.876400 0.000000
vt 0.673885 0.600703
vt 0.508260 0.768959
vt 0.508260 0.600703
vt 0.892096 0.529429
vt 0.884688 0.361175
vt 0.892096 0.361175
vt 0.914320 0.512287
vt 0.921728 0.346667
vt 0.921728 0.512287
vt 0.899504 0.514921
vt 0.906912 0.348843
vt 0.906912 0.514921
vt 0.177010 0.793624
vt 0.342635 0.961879
vt 0.177010 0.961879
vt 0.883808 0.180586
vt 0.876400 0.000000
vt 0.883808 0.000000
vt 0.839510 0.600703
vt 0.673885 0.768959
vt 0.673885 0.600703
vt 0.898624 0.168254
vt 0.891216 0.000000
vt 0.898624 0.000000
vt 0.920848 0.165620
vt 0.928256 0.000000
vt 0.928255 0.165620
vt 0.906032 0.166079
vt 0.913440 0.000000
vt 0.913440 0.166079
vt 0.935335 0.523613
vt 0.941534 0.346208
vt 0.941534 0.523613
vt 0.871081 0.487683
vt 0.877280 0.180588
vt 0.877280 0.487683
vt 0.935335 0.346208
vt 0.929136 0.523613
vt 0.929136 0.346208
vt 0.864881 0.487683
vt 0.871081 0.180588
vt 0.871081 0.487683
vt 0.000000 0.000000
vt 0.177399 0.307094
vt 0.000000 0.307094
vt 0.000000 0.307094
vt 0.177010 0.614189
vt 0.000000 0.614189
vt 0.342635 0.793624
vt 0.508260 0.961879
vt 0.342635 0.961879
vt 0.884688 0.361174
vt 0.877280 0.180588
vt 0.884688 0.180588
vt 0.342635 0.600703
vt 0.177010 0.768959
vt 0.177010 0.600703
vt 0.899504 0.348843
vt 0.892096 0.180588
vt 0.899504 0.180588
vt 0.921728 0.511828
vt 0.929136 0.346208
vt 0.929136 0.511828
vt 0.906912 0.346667
vt 0.914320 0.180588
vt 0.914320 0.346667
vt 0.423349 0.453899
vt 0.353587 0.600703
vt 0.857978 0.000000
vt 0.844381 0.180588
vt 0.165625 0.791869
vt 0.855390 0.180588
vt 0.531868 0.000000
vt 0.354794 0.000000
vt 0.839510 0.953861
vt 0.839510 0.789647
vt 0.177010 0.307094
vt 0.839510 0.600703
vt 1.000000 0.600703
vt 0.423349 0.307094
vt 0.517799 0.307094
vt 0.692354 0.293608
vt 0.531868 0.293608
vt 0.678756 0.600703
vt 0.517799 0.600703
vt 0.165625 0.794777
vt 0.877280 0.541761
vt 0.508260 0.781291
vt 0.892096 0.517097
vt 0.921728 0.180588
vt 0.914320 0.180588
vt 0.839510 0.781291
vt 0.883808 0.180586
vt 0.165625 0.794777
vt 0.899504 0.348843
vt 0.929136 0.180588
vt 0.906912 0.348843
vt 0.857978 0.000000
vt 0.884688 0.361174
vt 0.844381 0.487683
vt 0.898624 0.168254
vt 0.928255 0.000000
vt 0.913440 0.000000
vt 0.673885 0.781291
vt 0.868992 0.180586
vt 0.673885 0.781291
vt 0.884688 0.529429
vt 0.914320 0.346667
vt 0.899504 0.348843
vt 0.342635 0.781291
vt 0.876400 0.180586
vt 0.839510 0.781291
vt 0.891216 0.168254
vt 0.920848 0.000000
vt 0.906032 0.000000
vt 0.935335 0.346208
vt 0.871081 0.180588
vt 0.935335 0.523613
vt 0.864881 0.180588
vt 0.177399 0.000000
vt 0.177010 0.307094
vt 0.508260 0.781291
vt 0.877280 0.361174
vt 0.342635 0.781291
vt 0.892096 0.348843
vt 0.921728 0.346208
vt 0.906912 0.180588
vt 0.353587 0.453899
vt 0.353587 0.307094
vn -1.0000 0.0000 0.0000
vn 0.0000 0.0436 -0.9990
vn 1.0000 -0.0000 0.0000
vn 0.0000 -0.0389 0.9992
vn 0.0000 -0.9976 -0.0686
vn 0.0000 0.9970 0.0771
vn 0.0000 0.0000 -1.0000
vn 0.0000 0.0000 1.0000
vn 0.0000 -1.0000 0.0000
vn 0.0000 0.9970 0.0768
vn 0.0000 0.9972 0.0743
vn 0.0000 1.0000 0.0000
s off
f 2/1/1 3/2/1 1/3/1
f 4/4/2 7/5/2 3/6/2
f 7/7/3 6/8/3 5/9/3
f 6/10/4 1/11/4 5/12/4
f 7/13/5 1/14/5 3/15/5
f 4/16/6 6/17/6 8/18/6
f 73/19/1 12/20/1 11/21/1
f 12/22/7 15/23/7 11/24/7
f 16/25/3 14/26/3 74/27/3
f 75/28/8 13/29/8 74/30/8
f 15/31/9 13/32/9 75/33/9
f 12/34/10 10/35/10 76/36/10
f 18/37/1 19/38/1 17/39/1
f 20/40/7 23/41/7 19/42/7
f 23/43/3 22/44/3 21/45/3
f 22/46/8 17/47/8 21/48/8
f 23/49/9 17/50/9 19/51/9
f 20/52/11 22/53/11 24/54/11
f 26/55/1 27/56/1 25/57/1
f 28/58/7 31/59/7 27/60/7
f 31/61/3 30/62/3 29/63/3
f 30/64/8 25/65/8 29/66/8
f 31/67/9 25/68/9 27/69/9
f 28/70/11 30/71/11 32/72/11
f 34/73/1 35/74/1 33/75/1
f 36/76/7 39/77/7 35/78/7
f 39/79/3 38/80/3 37/81/3
f 38/82/8 33/83/8 37/84/8
f 39/85/9 33/86/9 35/87/9
f 36/88/11 38/89/11 40/90/11
f 42/91/1 43/92/1 41/93/1
f 44/94/7 47/95/7 43/96/7
f 47/97/3 46/98/3 45/99/3
f 46/100/8 41/101/8 45/102/8
f 47/103/9 41/104/9 43/105/9
f 44/106/11 46/107/11 48/108/11
f 50/109/1 51/110/1 49/111/1
f 52/112/7 55/113/7 51/114/7
f 55/115/3 54/116/3 53/117/3
f 54/118/8 49/119/8 53/120/8
f 55/121/9 49/122/9 51/123/9
f 52/124/11 54/125/11 56/126/11
f 58/127/1 59/128/1 57/129/1
f 60/130/7 63/131/7 59/132/7
f 64/133/3 61/134/3 63/135/3
f 62/136/8 57/137/8 61/138/8
f 63/139/9 57/140/9 59/141/9
f 60/142/12 62/143/12 64/144/12
f 66/145/1 67/146/1 65/147/1
f 68/148/7 71/149/7 67/150/7
f 71/151/3 70/152/3 69/153/3
f 70/154/8 65/155/8 69/156/8
f 71/157/9 65/158/9 67/159/9
f 68/160/11 70/161/11 72/162/11
f 77/163/8 74/30/8 14/164/8
f 2/1/1 4/165/1 3/2/1
f 4/4/2 8/166/2 7/5/2
f 7/7/3 8/167/3 6/8/3
f 6/10/4 2/168/4 1/11/4
f 7/13/5 5/169/5 1/14/5
f 4/16/6 2/170/6 6/17/6
f 11/21/1 9/171/1 73/19/1
f 73/19/1 10/172/1 12/20/1
f 12/22/7 16/173/7 15/23/7
f 13/174/3 15/175/3 74/27/3
f 15/175/3 16/25/3 74/27/3
f 74/30/8 77/163/8 75/28/8
f 77/163/8 73/176/8 75/28/8
f 73/176/8 9/177/8 75/28/8
f 9/178/9 11/179/9 75/33/9
f 11/179/9 15/31/9 75/33/9
f 14/180/10 16/181/10 76/36/10
f 16/181/10 12/34/10 76/36/10
f 18/37/1 20/182/1 19/38/1
f 20/40/7 24/183/7 23/41/7
f 23/43/3 24/184/3 22/44/3
f 22/46/8 18/185/8 17/47/8
f 23/49/9 21/186/9 17/50/9
f 20/52/11 18/187/11 22/53/11
f 26/55/1 28/188/1 27/56/1
f 28/58/7 32/189/7 31/59/7
f 31/61/3 32/190/3 30/62/3
f 30/64/8 26/191/8 25/65/8
f 31/67/9 29/192/9 25/68/9
f 28/70/11 26/193/11 30/71/11
f 34/73/1 36/194/1 35/74/1
f 36/76/7 40/195/7 39/77/7
f 39/79/3 40/196/3 38/80/3
f 38/82/8 34/197/8 33/83/8
f 39/85/9 37/198/9 33/86/9
f 36/88/11 34/199/11 38/89/11
f 42/91/1 44/200/1 43/92/1
f 44/94/7 48/201/7 47/95/7
f 47/97/3 48/202/3 46/98/3
f 46/100/8 42/203/8 41/101/8
f 47/103/9 45/204/9 41/104/9
f 44/106/11 42/205/11 46/107/11
f 50/109/1 52/206/1 51/110/1
f 52/112/7 56/207/7 55/113/7
f 55/115/3 56/208/3 54/116/3
f 54/118/8 50/209/8 49/119/8
f 55/121/9 53/210/9 49/122/9
f 52/124/11 50/211/11 54/125/11
f 58/127/1 60/212/1 59/128/1
f 60/130/7 64/213/7 63/131/7
f 64/133/3 62/214/3 61/134/3
f 62/136/8 58/215/8 57/137/8
f 63/139/9 61/216/9 57/140/9
f 60/142/12 58/217/12 62/143/12
f 66/145/1 68/218/1 67/146/1
f 68/148/7 72/219/7 71/149/7
f 71/151/3 72/220/3 70/152/3
f 70/154/8 66/221/8 65/155/8
f 71/157/9 69/222/9 65/158/9
f 68/160/11 66/223/11 70/161/11
f 14/164/8 76/224/8 77/163/8
f 76/224/8 10/225/8 77/163/8
f 10/225/8 73/176/8 77/163/8
