# Blender v3.4.1 OBJ File: 'buildings.blend'
# www.blender.org
o Round_Tower_Supports_Cube.021
v -0.399123 2.310518 0.208217
v -0.399123 2.624439 0.208217
v -0.365797 2.310518 0.188976
v -0.365797 2.624439 0.188976
v -0.379883 2.310518 0.241543
v -0.379883 2.624439 0.241543
v -0.346557 2.310518 0.222302
v -0.346557 2.624439 0.222302
v 0.019241 2.310518 -0.449759
v 0.019241 2.624439 -0.449759
v 0.019241 2.310518 -0.411278
v 0.019241 2.624439 -0.411278
v -0.019241 2.310518 -0.449759
v -0.019241 2.624439 -0.449759
v -0.019241 2.310518 -0.411278
v -0.019241 2.624439 -0.411278
v -0.379883 2.310518 -0.241543
v -0.379883 2.624439 -0.241543
v -0.346557 2.310518 -0.222302
v -0.346557 2.624439 -0.222302
v -0.399123 2.310518 -0.208217
v -0.399123 2.624439 -0.208217
v -0.365797 2.310518 -0.188976
v -0.365797 2.624439 -0.188976
v 0.399123 2.310518 -0.208217
v 0.399123 2.624439 -0.208217
v 0.365797 2.310518 -0.188976
v 0.365797 2.624439 -0.188976
v 0.379883 2.310518 -0.241543
v 0.379883 2.624439 -0.241543
v 0.346557 2.310518 -0.222302
v 0.346557 2.624439 -0.222302
v -0.019241 2.310518 0.449759
v -0.019241 2.624439 0.449759
v -0.019241 2.310518 0.411278
v -0.019241 2.624439 0.411278
v 0.019241 2.310518 0.449759
v 0.019241 2.624439 0.449759
v 0.019241 2.310518 0.411278
v 0.019241 2.624439 0.411278
v 0.379883 2.310518 0.241543
v 0.379883 2.624439 0.241543
v 0.346557 2.310518 0.222302
v 0.346557 2.624439 0.222302
v 0.399123 2.310518 0.208217
v 0.399123 2.624439 0.208217
v 0.365797 2.310518 0.188976
v 0.365797 2.624439 0.188976
v -0.914311 -1.002911 0.476982
v -0.914311 1.002910 0.476982
v -0.837968 -1.002911 0.432906
v -0.837968 1.002910 0.432906
v -0.870234 -1.002911 0.553326
v -0.870234 1.002910 0.553326
v -0.793891 -1.002911 0.509249
v -0.793891 1.002910 0.509249
v 0.044077 -1.002911 -1.030308
v 0.044077 1.002910 -1.030308
v 0.044077 -1.002911 -0.942154
v 0.044077 1.002910 -0.942154
v -0.044077 -1.002911 -1.030308
v -0.044077 1.002910 -1.030308
v -0.044077 -1.002911 -0.942154
v -0.044077 1.002910 -0.942154
v -0.870234 -1.002911 -0.553325
v -0.870234 1.002910 -0.553325
v -0.793891 -1.002911 -0.509249
v -0.793891 1.002910 -0.509249
v -0.914311 -1.002911 -0.476982
v -0.914311 1.002910 -0.476982
v -0.837968 -1.002911 -0.432905
v -0.837968 1.002910 -0.432905
v 0.914311 -1.002911 -0.476982
v 0.914311 1.002910 -0.476982
v 0.837968 -1.002911 -0.432905
v 0.837968 1.002910 -0.432905
v 0.870234 -1.002911 -0.553326
v 0.870234 1.002910 -0.553326
v 0.793891 -1.002911 -0.509249
v 0.793891 1.002910 -0.509249
v -0.044077 -1.002911 1.030308
v -0.044077 1.002910 1.030308
v -0.044077 -1.002911 0.942154
v -0.044077 1.002910 0.942154
v 0.044077 -1.002911 1.030308
v 0.044077 1.002910 1.030308
v 0.044077 -1.002911 0.942154
v 0.044077 1.002910 0.942154
v 0.870234 -1.002911 0.553326
v 0.870234 1.002910 0.553326
v 0.793891 -1.002911 0.509249
v 0.793891 1.002910 0.509249
v 0.914311 -1.002911 0.476982
v 0.914311 1.002910 0.476982
v 0.837968 -1.002911 0.432905
v 0.837968 1.002910 0.432905
v -1.009283 1.023824 0.526528
v -0.357536 2.301296 0.186521
v -0.925009 1.023824 0.477872
v -0.327682 2.301296 0.169285
v -0.960628 1.023824 0.610801
v -0.340300 2.301296 0.216375
v -0.876354 1.023824 0.562146
v -0.310446 2.301296 0.199139
v 0.048655 1.023824 -1.137328
v 0.017236 2.301296 -0.402896
v 0.048655 1.023824 -1.040018
v 0.017236 2.301296 -0.368424
v -0.048655 1.023824 -1.137328
v -0.017236 2.301296 -0.402896
v -0.048655 1.023824 -1.040018
v -0.017236 2.301296 -0.368424
v -0.960628 1.023824 -0.610801
v -0.340300 2.301296 -0.216374
v -0.876354 1.023824 -0.562145
v -0.310446 2.301296 -0.199138
v -1.009283 1.023824 -0.526527
v -0.357536 2.301296 -0.186521
v -0.925009 1.023824 -0.477872
v -0.327682 2.301296 -0.169285
v 1.009283 1.023824 -0.526528
v 0.357536 2.301296 -0.186521
v 0.925009 1.023824 -0.477872
v 0.327682 2.301296 -0.169285
v 0.960628 1.023824 -0.610801
v 0.340300 2.301296 -0.216375
v 0.876354 1.023824 -0.562146
v 0.310446 2.301296 -0.199139
v -0.048655 1.023824 1.137328
v -0.017236 2.301296 0.402896
v -0.048655 1.023824 1.040018
v -0.017236 2.301296 0.368424
v 0.048655 1.023824 1.137328
v 0.017236 2.301296 0.402896
v 0.048655 1.023824 1.040018
v 0.017236 2.301296 0.368424
v 0.960628 1.023824 0.610801
v 0.340300 2.301296 0.216375
v 0.876354 1.023824 0.562145
v 0.310446 2.301296 0.199139
v 1.009283 1.023824 0.526527
v 0.357536 2.301296 0.186521
v 0.925009 1.023824 0.477872
v 0.327682 2.301296 0.169285
vt 0.625000 0.000000
vt 0.375000 0.250000
vt 0.375000 0.000000
vt 0.625000 0.250000
vt 0.375000 0.500000
vt 0.625000 0.500000
vt 0.375000 0.750000
vt 0.625000 0.750000
vt 0.375000 1.000000
vt 0.125000 0.750000
vt 0.125000 0.500000
vt 0.875000 0.500000
vt 0.625000 0.000000
vt 0.375000 0.250000
vt 0.375000 0.000000
vt 0.625000 0.250000
vt 0.375000 0.500000
vt 0.625000 0.500000
vt 0.375000 0.750000
vt 0.625000 0.750000
vt 0.375000 1.000000
vt 0.125000 0.500000
vt 0.125000 0.750000
vt 0.875000 0.500000
vt 0.625000 0.000000
vt 0.375000 0.250000
vt 0.375000 0.000000
vt 0.625000 0.250000
vt 0.375000 0.500000
vt 0.625000 0.500000
vt 0.375000 0.750000
vt 0.625000 0.750000
vt 0.375000 1.000000
vt 0.125000 0.750000
vt 0.125000 0.500000
vt 0.875000 0.500000
vt 0.625000 0.000000
vt 0.375000 0.250000
vt 0.375000 0.000000
vt 0.625000 0.250000
vt 0.375000 0.500000
vt 0.625000 0.500000
vt 0.375000 0.750000
vt 0.625000 0.750000
vt 0.375000 1.000000
vt 0.125000 0.750000
vt 0.125000 0.500000
vt 0.875000 0.500000
vt 0.625000 0.000000
vt 0.375000 0.250000
vt 0.375000 0.000000
vt 0.625000 0.250000
vt 0.375000 0.500000
vt 0.625000 0.500000
vt 0.375000 0.750000
vt 0.625000 0.750000
vt 0.375000 1.000000
vt 0.125000 0.500000
vt 0.125000 0.750000
vt 0.875000 0.500000
vt 0.625000 0.000000
vt 0.375000 0.250000
vt 0.375000 0.000000
vt 0.625000 0.250000
vt 0.375000 0.500000
vt 0.625000 0.500000
vt 0.375000 0.750000
vt 0.625000 0.750000
vt 0.375000 1.000000
vt 0.125000 0.500000
vt 0.125000 0.750000
vt 0.875000 0.500000
vt 0.625000 0.000000
vt 0.375000 0.250000
vt 0.375000 0.000000
vt 0.625000 0.250000
vt 0.375000 0.500000
vt 0.625000 0.500000
vt 0.375000 0.750000
vt 0.625000 0.750000
vt 0.375000 1.000000
vt 0.125000 0.750000
vt 0.125000 0.500000
vt 0.875000 0.500000
vt 0.625000 0.000000
vt 0.375000 0.250000
vt 0.375000 0.000000
vt 0.625000 0.250000
vt 0.375000 0.500000
vt 0.625000 0.500000
vt 0.375000 0.750000
vt 0.625000 0.750000
vt 0.375000 1.000000
vt 0.125000 0.500000
vt 0.125000 0.750000
vt 0.875000 0.500000
vt 0.625000 0.000000
vt 0.375000 0.250000
vt 0.375000 0.000000
vt 0.625000 0.250000
vt 0.375000 0.500000
vt 0.625000 0.500000
vt 0.375000 0.750000
vt 0.625000 0.750000
vt 0.375000 1.000000
vt 0.125000 0.750000
vt 0.125000 0.500000
vt 0.875000 0.500000
vt 0.625000 0.000000
vt 0.375000 0.250000
vt 0.375000 0.000000
vt 0.625000 0.250000
vt 0.375000 0.500000
vt 0.625000 0.500000
vt 0.375000 0.750000
vt 0.625000 0.750000
vt 0.375000 1.000000
vt 0.125000 0.750000
vt 0.125000 0.500000
vt 0.875000 0.500000
vt 0.625000 0.000000
vt 0.375000 0.250000
vt 0.375000 0.000000
vt 0.625000 0.250000
vt 0.375000 0.500000
vt 0.625000 0.500000
vt 0.375000 0.750000
vt 0.625000 0.750000
vt 0.375000 1.000000
vt 0.125000 0.500000
vt 0.125000 0.750000
vt 0.875000 0.500000
vt 0.625000 0.000000
vt 0.375000 0.250000
vt 0.375000 0.000000
vt 0.625000 0.250000
vt 0.375000 0.500000
vt 0.625000 0.500000
vt 0.375000 0.750000
vt 0.625000 0.750000
vt 0.375000 1.000000
vt 0.125000 0.750000
vt 0.125000 0.500000
vt 0.875000 0.500000
vt 0.625000 0.000000
vt 0.375000 0.250000
vt 0.375000 0.000000
vt 0.625000 0.250000
vt 0.375000 0.500000
vt 0.625000 0.750000
vt 0.375000 0.750000
vt 0.375000 1.000000
vt 0.125000 0.750000
vt 0.125000 0.500000
vt 0.875000 0.500000
vt 0.625000 0.500000
vt 0.625000 0.000000
vt 0.375000 0.250000
vt 0.375000 0.000000
vt 0.625000 0.500000
vt 0.375000 0.500000
vt 0.625000 0.750000
vt 0.375000 0.750000
vt 0.375000 1.000000
vt 0.125000 0.750000
vt 0.125000 0.500000
vt 0.875000 0.500000
vt 0.625000 0.000000
vt 0.375000 0.250000
vt 0.375000 0.000000
vt 0.625000 0.250000
vt 0.375000 0.500000
vt 0.625000 0.750000
vt 0.375000 0.750000
vt 0.375000 1.000000
vt 0.125000 0.500000
vt 0.125000 0.750000
vt 0.625000 0.500000
vt 0.875000 0.750000
vt 0.625000 0.000000
vt 0.375000 0.250000
vt 0.375000 0.000000
vt 0.625000 0.250000
vt 0.375000 0.500000
vt 0.625000 0.750000
vt 0.375000 0.750000
vt 0.375000 1.000000
vt 0.125000 0.750000
vt 0.125000 0.500000
vt 0.625000 0.500000
vt 0.875000 0.750000
vt 0.625000 0.000000
vt 0.375000 0.250000
vt 0.375000 0.000000
vt 0.625000 0.500000
vt 0.375000 0.500000
vt 0.625000 0.750000
vt 0.375000 0.750000
vt 0.625000 1.000000
vt 0.375000 1.000000
vt 0.125000 0.750000
vt 0.125000 0.500000
vt 0.875000 0.500000
vt 0.625000 0.000000
vt 0.375000 0.250000
vt 0.375000 0.000000
vt 0.625000 0.250000
vt 0.375000 0.500000
vt 0.625000 0.750000
vt 0.375000 0.750000
vt 0.375000 1.000000
vt 0.125000 0.500000
vt 0.125000 0.750000
vt 0.625000 0.500000
vt 0.875000 0.750000
vt 0.625000 1.000000
vt 0.875000 0.750000
vt 0.625000 1.000000
vt 0.875000 0.750000
vt 0.625000 1.000000
vt 0.875000 0.750000
vt 0.625000 1.000000
vt 0.875000 0.750000
vt 0.625000 1.000000
vt 0.875000 0.750000
vt 0.625000 1.000000
vt 0.875000 0.750000
vt 0.625000 1.000000
vt 0.875000 0.750000
vt 0.625000 1.000000
vt 0.875000 0.750000
vt 0.625000 1.000000
vt 0.875000 0.750000
vt 0.625000 1.000000
vt 0.875000 0.750000
vt 0.625000 1.000000
vt 0.875000 0.750000
vt 0.625000 1.000000
vt 0.875000 0.750000
vt 0.625000 1.000000
vt 0.875000 0.750000
vt 0.625000 0.250000
vt 0.625000 1.000000
vt 0.875000 0.750000
vt 0.625000 1.000000
vt 0.875000 0.500000
vt 0.625000 1.000000
vt 0.875000 0.500000
vt 0.625000 0.250000
vt 0.875000 0.750000
vt 0.625000 1.000000
vt 0.875000 0.500000
vn -0.5000 0.0000 -0.8660
vn 0.8660 0.0000 -0.5000
vn 0.5000 0.0000 0.8660
vn -0.8660 0.0000 0.5000
vn 0.0000 -1.0000 0.0000
vn 0.0000 1.0000 0.0000
vn 1.0000 0.0000 0.0000
vn 0.0000 0.0000 1.0000
vn -1.0000 0.0000 -0.0000
vn 0.0000 0.0000 -1.0000
vn 0.5000 0.0000 -0.8660
vn 0.8660 0.0000 0.5000
vn -0.5000 0.0000 0.8660
vn -0.8660 0.0000 -0.5000
vn -0.4998 0.0246 -0.8658
vn 0.7665 -0.4653 -0.4426
vn 0.4998 0.0246 0.8658
vn -0.7508 0.4984 0.4335
vn 0.9997 0.0246 -0.0000
vn 0.0000 -0.4653 0.8851
vn -0.9997 0.0246 0.0000
vn 0.0000 0.4984 -0.8669
vn 0.4998 0.0246 -0.8658
vn 0.7666 -0.4653 0.4426
vn -0.4999 0.0246 0.8658
vn -0.7508 0.4984 -0.4335
vn -0.7665 -0.4653 0.4426
vn 0.7508 0.4984 -0.4335
vn 0.0000 -0.4653 -0.8851
vn 0.0000 0.4984 0.8669
vn -0.4998 0.0246 0.8658
vn -0.7665 -0.4653 -0.4426
vn 0.7508 0.4984 0.4335
vn 0.7665 -0.4653 0.4426
vn 0.4999 0.0246 0.8658
s off
f 2/1/1 3/2/1 1/3/1
f 4/4/2 7/5/2 3/2/2
f 8/6/3 5/7/3 7/5/3
f 6/8/4 1/9/4 5/7/4
f 7/5/5 1/10/5 3/11/5
f 4/12/6 6/8/6 8/6/6
f 10/13/7 11/14/7 9/15/7
f 12/16/8 15/17/8 11/14/8
f 16/18/9 13/19/9 15/17/9
f 14/20/10 9/21/10 13/19/10
f 11/22/5 13/19/5 9/23/5
f 12/24/6 14/20/6 16/18/6
f 18/25/11 19/26/11 17/27/11
f 20/28/12 23/29/12 19/26/12
f 24/30/13 21/31/13 23/29/13
f 22/32/14 17/33/14 21/31/14
f 23/29/5 17/34/5 19/35/5
f 20/36/6 22/32/6 24/30/6
f 26/37/3 27/38/3 25/39/3
f 28/40/4 31/41/4 27/38/4
f 32/42/1 29/43/1 31/41/1
f 30/44/2 25/45/2 29/43/2
f 31/41/5 25/46/5 27/47/5
f 28/48/6 30/44/6 32/42/6
f 34/49/9 35/50/9 33/51/9
f 36/52/10 39/53/10 35/50/10
f 40/54/7 37/55/7 39/53/7
f 38/56/8 33/57/8 37/55/8
f 35/58/5 37/55/5 33/59/5
f 36/60/6 38/56/6 40/54/6
f 42/61/13 43/62/13 41/63/13
f 44/64/14 47/65/14 43/62/14
f 48/66/11 45/67/11 47/65/11
f 46/68/12 41/69/12 45/67/12
f 43/70/5 45/67/5 41/71/5
f 44/72/6 46/68/6 48/66/6
f 50/73/1 51/74/1 49/75/1
f 52/76/2 55/77/2 51/74/2
f 56/78/3 53/79/3 55/77/3
f 54/80/4 49/81/4 53/79/4
f 55/77/5 49/82/5 51/83/5
f 52/84/6 54/80/6 56/78/6
f 58/85/7 59/86/7 57/87/7
f 60/88/8 63/89/8 59/86/8
f 64/90/9 61/91/9 63/89/9
f 62/92/10 57/93/10 61/91/10
f 59/94/5 61/91/5 57/95/5
f 60/96/6 62/92/6 64/90/6
f 66/97/11 67/98/11 65/99/11
f 68/100/12 71/101/12 67/98/12
f 72/102/13 69/103/13 71/101/13
f 70/104/14 65/105/14 69/103/14
f 71/101/5 65/106/5 67/107/5
f 68/108/6 70/104/6 72/102/6
f 74/109/3 75/110/3 73/111/3
f 76/112/4 79/113/4 75/110/4
f 80/114/1 77/115/1 79/113/1
f 78/116/2 73/117/2 77/115/2
f 79/113/5 73/118/5 75/119/5
f 76/120/6 78/116/6 80/114/6
f 82/121/9 83/122/9 81/123/9
f 84/124/10 87/125/10 83/122/10
f 88/126/7 85/127/7 87/125/7
f 86/128/8 81/129/8 85/127/8
f 83/130/5 85/127/5 81/131/5
f 84/132/6 86/128/6 88/126/6
f 90/133/13 91/134/13 89/135/13
f 92/136/14 95/137/14 91/134/14
f 96/138/11 93/139/11 95/137/11
f 94/140/12 89/141/12 93/139/12
f 95/137/5 89/142/5 91/143/5
f 92/144/6 94/140/6 96/138/6
f 98/145/15 99/146/15 97/147/15
f 100/148/16 103/149/16 99/146/16
f 103/149/17 102/150/17 101/151/17
f 102/150/18 97/152/18 101/151/18
f 103/149/5 97/153/5 99/154/5
f 100/155/6 102/150/6 104/156/6
f 106/157/19 107/158/19 105/159/19
f 107/158/20 112/160/20 111/161/20
f 111/161/21 110/162/21 109/163/21
f 110/162/22 105/164/22 109/163/22
f 111/161/5 105/165/5 107/166/5
f 108/167/6 110/162/6 112/160/6
f 114/168/23 115/169/23 113/170/23
f 116/171/24 119/172/24 115/169/24
f 119/172/25 118/173/25 117/174/25
f 118/173/26 113/175/26 117/174/26
f 115/176/5 117/174/5 113/177/5
f 120/178/6 114/179/6 118/173/6
f 122/180/17 123/181/17 121/182/17
f 124/183/27 127/184/27 123/181/27
f 127/184/15 126/185/15 125/186/15
f 126/185/28 121/187/28 125/186/28
f 127/184/5 121/188/5 123/189/5
f 128/190/6 122/191/6 126/185/6
f 130/192/21 131/193/21 129/194/21
f 131/193/29 136/195/29 135/196/29
f 135/196/19 134/197/19 133/198/19
f 133/198/30 130/199/30 129/200/30
f 135/196/5 129/201/5 131/202/5
f 132/203/6 134/197/6 136/195/6
f 138/204/31 139/205/31 137/206/31
f 140/207/32 143/208/32 139/205/32
f 143/208/23 142/209/23 141/210/23
f 142/209/33 137/211/33 141/210/33
f 139/212/5 141/210/5 137/213/5
f 144/214/6 138/215/6 142/209/6
f 2/1/1 4/4/1 3/2/1
f 4/4/2 8/6/2 7/5/2
f 8/6/3 6/8/3 5/7/3
f 6/8/4 2/216/4 1/9/4
f 7/5/5 5/7/5 1/10/5
f 4/12/6 2/217/6 6/8/6
f 10/13/7 12/16/7 11/14/7
f 12/16/8 16/18/8 15/17/8
f 16/18/9 14/20/9 13/19/9
f 14/20/10 10/218/10 9/21/10
f 11/22/5 15/17/5 13/19/5
f 12/24/6 10/219/6 14/20/6
f 18/25/11 20/28/11 19/26/11
f 20/28/12 24/30/12 23/29/12
f 24/30/13 22/32/13 21/31/13
f 22/32/14 18/220/14 17/33/14
f 23/29/5 21/31/5 17/34/5
f 20/36/6 18/221/6 22/32/6
f 26/37/3 28/40/3 27/38/3
f 28/40/4 32/42/4 31/41/4
f 32/42/1 30/44/1 29/43/1
f 30/44/2 26/222/2 25/45/2
f 31/41/5 29/43/5 25/46/5
f 28/48/6 26/223/6 30/44/6
f 34/49/9 36/52/9 35/50/9
f 36/52/10 40/54/10 39/53/10
f 40/54/7 38/56/7 37/55/7
f 38/56/8 34/224/8 33/57/8
f 35/58/5 39/53/5 37/55/5
f 36/60/6 34/225/6 38/56/6
f 42/61/13 44/64/13 43/62/13
f 44/64/14 48/66/14 47/65/14
f 48/66/11 46/68/11 45/67/11
f 46/68/12 42/226/12 41/69/12
f 43/70/5 47/65/5 45/67/5
f 44/72/6 42/227/6 46/68/6
f 50/73/1 52/76/1 51/74/1
f 52/76/2 56/78/2 55/77/2
f 56/78/3 54/80/3 53/79/3
f 54/80/4 50/228/4 49/81/4
f 55/77/5 53/79/5 49/82/5
f 52/84/6 50/229/6 54/80/6
f 58/85/7 60/88/7 59/86/7
f 60/88/8 64/90/8 63/89/8
f 64/90/9 62/92/9 61/91/9
f 62/92/10 58/230/10 57/93/10
f 59/94/5 63/89/5 61/91/5
f 60/96/6 58/231/6 62/92/6
f 66/97/11 68/100/11 67/98/11
f 68/100/12 72/102/12 71/101/12
f 72/102/13 70/104/13 69/103/13
f 70/104/14 66/232/14 65/105/14
f 71/101/5 69/103/5 65/106/5
f 68/108/6 66/233/6 70/104/6
f 74/109/3 76/112/3 75/110/3
f 76/112/4 80/114/4 79/113/4
f 80/114/1 78/116/1 77/115/1
f 78/116/2 74/234/2 73/117/2
f 79/113/5 77/115/5 73/118/5
f 76/120/6 74/235/6 78/116/6
f 82/121/9 84/124/9 83/122/9
f 84/124/10 88/126/10 87/125/10
f 88/126/7 86/128/7 85/127/7
f 86/128/8 82/236/8 81/129/8
f 83/130/5 87/125/5 85/127/5
f 84/132/6 82/237/6 86/128/6
f 90/133/13 92/136/13 91/134/13
f 92/136/14 96/138/14 95/137/14
f 96/138/11 94/140/11 93/139/11
f 94/140/12 90/238/12 89/141/12
f 95/137/5 93/139/5 89/142/5
f 92/144/6 90/239/6 94/140/6
f 98/145/15 100/148/15 99/146/15
f 100/148/16 104/156/16 103/149/16
f 103/149/17 104/156/17 102/150/17
f 102/150/18 98/240/18 97/152/18
f 103/149/5 101/151/5 97/153/5
f 100/155/6 98/241/6 102/150/6
f 106/157/19 108/242/19 107/158/19
f 107/158/20 108/242/20 112/160/20
f 111/161/21 112/160/21 110/162/21
f 110/162/22 106/243/22 105/164/22
f 111/161/5 109/163/5 105/165/5
f 108/167/6 106/244/6 110/162/6
f 114/168/23 116/171/23 115/169/23
f 116/171/34 120/178/34 119/172/34
f 119/172/31 120/178/31 118/173/31
f 118/173/26 114/245/26 113/175/26
f 115/176/5 119/172/5 117/174/5
f 120/178/6 116/246/6 114/179/6
f 122/180/35 124/183/35 123/181/35
f 124/183/27 128/190/27 127/184/27
f 127/184/15 128/190/15 126/185/15
f 126/185/28 122/247/28 121/187/28
f 127/184/5 125/186/5 121/188/5
f 128/190/6 124/248/6 122/191/6
f 130/192/21 132/249/21 131/193/21
f 131/193/29 132/249/29 136/195/29
f 135/196/19 136/195/19 134/197/19
f 133/198/30 134/197/30 130/199/30
f 135/196/5 133/198/5 129/201/5
f 132/203/6 130/250/6 134/197/6
f 138/204/31 140/207/31 139/205/31
f 140/207/32 144/214/32 143/208/32
f 143/208/23 144/214/23 142/209/23
f 142/209/33 138/251/33 137/211/33
f 139/212/5 143/208/5 141/210/5
f 144/214/6 140/252/6 138/215/6
