# Blender v3.4.1 OBJ File: 'buildings.blend'
# www.blender.org
o Round_Tower_Base_Cylinder.004
v 0.000487 0.510545 -1.003542
v 0.000487 0.721456 -1.003542
v 0.866512 0.510545 -0.503542
v 0.866512 0.721456 -0.503542
v 0.866512 0.510545 0.496458
v 0.866512 0.721456 0.496458
v 0.000487 0.510545 0.996458
v 0.000487 0.721456 0.996458
v -0.865539 0.510545 0.496458
v -0.865539 0.721456 0.496458
v -0.865539 0.510545 -0.503542
v -0.865539 0.721456 -0.503542
v 0.000000 -0.006432 -1.000000
v 0.000000 0.204479 -1.000000
v 0.866025 -0.006432 -0.500000
v 0.866025 0.204479 -0.500000
v 0.866025 -0.006432 0.500000
v 0.866025 0.204479 0.500000
v 0.000000 -0.006432 1.000000
v 0.000000 0.204479 1.000000
v -0.866025 -0.006432 0.500000
v -0.866025 0.204479 0.500000
v -0.866025 -0.006432 -0.500000
v -0.866025 0.204479 -0.500000
v 0.000000 -0.510922 -1.000000
v 0.000000 -0.300011 -1.000000
v 0.866025 -0.510922 -0.500000
v 0.866025 -0.300011 -0.500000
v 0.866025 -0.510922 0.500000
v 0.866025 -0.300011 0.500000
v 0.000000 -0.510922 1.000000
v 0.000000 -0.300011 1.000000
v -0.866025 -0.510922 0.500000
v -0.866025 -0.300011 0.500000
v -0.866025 -0.510922 -0.500000
v -0.866025 -0.300011 -0.500000
v 0.000000 -0.997750 -1.000000
v 0.000000 -0.786839 -1.000000
v 0.866025 -0.997750 -0.500000
v 0.866025 -0.786839 -0.500000
v 0.866025 -0.997750 0.500000
v 0.866025 -0.786839 0.500000
v 0.000000 -0.997750 1.000000
v 0.000000 -0.786839 1.000000
v -0.866025 -0.997750 0.500000
v -0.866025 -0.786839 0.500000
v -0.866025 -0.997750 -0.500000
v -0.866025 -0.786839 -0.500000
vt 1.000000 1.000000
vt 0.833333 0.500000
vt 1.000000 0.500000
vt 0.833333 1.000000
vt 0.666667 0.500000
vt 0.666667 1.000000
vt 0.500000 0.500000
vt 0.500000 1.000000
vt 0.333333 0.500000
vt 0.250000 0.490000
vt 0.042154 0.130000
vt 0.457846 0.130000
vt 0.333333 1.000000
vt 0.166667 0.500000
vt 0.166667 1.000000
vt -0.000000 0.500000
vt 0.957846 0.370000
vt 0.750000 0.010000
vt 0.542154 0.370000
vt 1.000000 1.000000
vt 0.833333 0.500000
vt 1.000000 0.500000
vt 0.833333 1.000000
vt 0.666667 0.500000
vt 0.666667 1.000000
vt 0.500000 0.500000
vt 0.500000 1.000000
vt 0.333333 0.500000
vt 0.250000 0.490000
vt 0.042154 0.130000
vt 0.457846 0.130000
vt 0.333333 1.000000
vt 0.166667 0.500000
vt 0.166667 1.000000
vt -0.000000 0.500000
vt 0.957846 0.370000
vt 0.750000 0.010000
vt 0.542154 0.370000
vt 1.000000 1.000000
vt 0.833333 0.500000
vt 1.000000 0.500000
vt 0.833333 1.000000
vt 0.666667 0.500000
vt 0.666667 1.000000
vt 0.500000 0.500000
vt 0.500000 1.000000
vt 0.333333 0.500000
vt 0.250000 0.490000
vt 0.042154 0.130000
vt 0.457846 0.130000
vt 0.333333 1.000000
vt 0.166667 0.500000
vt 0.166667 1.000000
vt -0.000000 0.500000
vt 0.957846 0.370000
vt 0.750000 0.010000
vt 0.542154 0.370000
vt 1.000000 1.000000
vt 0.833333 0.500000
vt 1.000000 0.500000
vt 0.833333 1.000000
vt 0.666667 0.500000
vt 0.666667 1.000000
vt 0.500000 0.500000
vt 0.500000 1.000000
vt 0.333333 0.500000
vt 0.250000 0.490000
vt 0.042154 0.130000
vt 0.457846 0.130000
vt 0.333333 1.000000
vt 0.166667 0.500000
vt 0.166667 1.000000
vt -0.000000 0.500000
vt 0.957846 0.370000
vt 0.750000 0.010000
vt 0.542154 0.370000
vt 0.457846 0.370000
vt 0.042154 0.370000
vt 0.250000 0.010000
vt -0.000000 1.000000
vt 0.750000 0.490000
vt 0.957846 0.130000
vt 0.542154 0.130000
vt 0.457846 0.370000
vt 0.042154 0.370000
vt 0.250000 0.010000
vt -0.000000 1.000000
vt 0.750000 0.490000
vt 0.957846 0.130000
vt 0.542154 0.130000
vt 0.457846 0.370000
vt 0.042154 0.370000
vt 0.250000 0.010000
vt -0.000000 1.000000
vt 0.750000 0.490000
vt 0.957846 0.130000
vt 0.542154 0.130000
vt 0.457846 0.370000
vt 0.042154 0.370000
vt 0.250000 0.010000
vt -0.000000 1.000000
vt 0.750000 0.490000
vt 0.957846 0.130000
vt 0.542154 0.130000
vn 0.5000 0.0000 -0.8660
vn 1.0000 0.0000 0.0000
vn 0.5000 0.0000 0.8660
vn -0.5000 0.0000 0.8660
vn 0.0000 1.0000 0.0000
vn -1.0000 0.0000 0.0000
vn -0.5000 0.0000 -0.8660
vn 0.0000 -1.0000 0.0000
s off
f 2/1/1 3/2/1 1/3/1
f 4/4/2 5/5/2 3/2/2
f 6/6/3 7/7/3 5/5/3
f 8/8/4 9/9/4 7/7/4
f 2/10/5 10/11/5 6/12/5
f 10/13/6 11/14/6 9/9/6
f 12/15/7 1/16/7 11/14/7
f 3/17/8 7/18/8 11/19/8
f 14/20/1 15/21/1 13/22/1
f 16/23/2 17/24/2 15/21/2
f 18/25/3 19/26/3 17/24/3
f 20/27/4 21/28/4 19/26/4
f 14/29/5 22/30/5 18/31/5
f 22/32/6 23/33/6 21/28/6
f 24/34/7 13/35/7 23/33/7
f 15/36/8 19/37/8 23/38/8
f 26/39/1 27/40/1 25/41/1
f 28/42/2 29/43/2 27/40/2
f 30/44/3 31/45/3 29/43/3
f 32/46/4 33/47/4 31/45/4
f 26/48/5 34/49/5 30/50/5
f 34/51/6 35/52/6 33/47/6
f 36/53/7 25/54/7 35/52/7
f 27/55/8 31/56/8 35/57/8
f 38/58/1 39/59/1 37/60/1
f 40/61/2 41/62/2 39/59/2
f 42/63/3 43/64/3 41/62/3
f 44/65/4 45/66/4 43/64/4
f 38/67/5 46/68/5 42/69/5
f 46/70/6 47/71/6 45/66/6
f 48/72/7 37/73/7 47/71/7
f 39/74/8 43/75/8 47/76/8
f 2/1/1 4/4/1 3/2/1
f 4/4/2 6/6/2 5/5/2
f 6/6/3 8/8/3 7/7/3
f 8/8/4 10/13/4 9/9/4
f 6/12/5 4/77/5 2/10/5
f 2/10/5 12/78/5 10/11/5
f 10/11/5 8/79/5 6/12/5
f 10/13/6 12/15/6 11/14/6
f 12/15/7 2/80/7 1/16/7
f 11/19/8 1/81/8 3/17/8
f 3/17/8 5/82/8 7/18/8
f 7/18/8 9/83/8 11/19/8
f 14/20/1 16/23/1 15/21/1
f 16/23/2 18/25/2 17/24/2
f 18/25/3 20/27/3 19/26/3
f 20/27/4 22/32/4 21/28/4
f 18/31/5 16/84/5 14/29/5
f 14/29/5 24/85/5 22/30/5
f 22/30/5 20/86/5 18/31/5
f 22/32/6 24/34/6 23/33/6
f 24/34/7 14/87/7 13/35/7
f 23/38/8 13/88/8 15/36/8
f 15/36/8 17/89/8 19/37/8
f 19/37/8 21/90/8 23/38/8
f 26/39/1 28/42/1 27/40/1
f 28/42/2 30/44/2 29/43/2
f 30/44/3 32/46/3 31/45/3
f 32/46/4 34/51/4 33/47/4
f 30/50/5 28/91/5 26/48/5
f 26/48/5 36/92/5 34/49/5
f 34/49/5 32/93/5 30/50/5
f 34/51/6 36/53/6 35/52/6
f 36/53/7 26/94/7 25/54/7
f 35/57/8 25/95/8 27/55/8
f 27/55/8 29/96/8 31/56/8
f 31/56/8 33/97/8 35/57/8
f 38/58/1 40/61/1 39/59/1
f 40/61/2 42/63/2 41/62/2
f 42/63/3 44/65/3 43/64/3
f 44/65/4 46/70/4 45/66/4
f 42/69/5 40/98/5 38/67/5
f 38/67/5 48/99/5 46/68/5
f 46/68/5 44/100/5 42/69/5
f 46/70/6 48/72/6 47/71/6
f 48/72/7 38/101/7 37/73/7
f 47/76/8 37/102/8 39/74/8
f 39/74/8 41/103/8 43/75/8
f 43/75/8 45/104/8 47/76/8
