# Blender v3.4.1 OBJ File: 'town.blend'
# www.blender.org
o House_Supports_Cube.022
v 0.863561 -0.422105 -0.594813
v 0.863561 0.356364 -0.594813
v 0.863561 -0.422105 -0.570460
v 0.863561 0.356364 -0.570460
v -0.863561 -0.422105 -0.594813
v -0.863561 0.356364 -0.594813
v -0.863561 -0.422105 -0.570460
v -0.863561 0.356364 -0.570460
v 0.805458 -0.103260 -0.570460
v 0.805458 0.210989 -0.570460
v -0.821820 -0.103260 -0.570460
v -0.821820 0.210989 -0.570460
v -0.821820 -0.103260 -0.594813
v -0.821820 0.210989 -0.594813
v 0.805458 -0.103260 -0.594813
v 0.805458 0.210989 -0.594813
v 0.148191 -0.429329 -0.607131
v 0.148191 0.389559 -0.607131
v 0.148191 -0.429329 -0.582927
v 0.148191 0.389559 -0.582927
v 0.108489 -0.429329 -0.607131
v 0.108489 0.389559 -0.607131
v 0.108489 -0.429329 -0.582927
v 0.108489 0.389559 -0.582927
v -0.117978 -0.429329 -0.607131
v -0.117978 0.389559 -0.607131
v -0.117978 -0.429329 -0.582927
v -0.117978 0.389559 -0.582927
v -0.157680 -0.429329 -0.607131
v -0.157680 0.389559 -0.607131
v -0.157680 -0.429329 -0.582927
v -0.157680 0.389559 -0.582927
v 0.879496 -0.429329 -0.607131
v 0.879496 0.389559 -0.607131
v 0.879496 -0.429329 -0.582928
v 0.879496 0.389559 -0.582928
v 0.839794 -0.429329 -0.607131
v 0.839794 0.389559 -0.607131
v 0.839794 -0.429329 -0.582928
v 0.839794 0.389559 -0.582928
v -0.851188 -0.429329 -0.607131
v -0.851188 0.389559 -0.607131
v -0.851188 -0.429329 -0.582927
v -0.851188 0.389559 -0.582927
v -0.890890 -0.429329 -0.607131
v -0.890890 0.389559 -0.607131
v -0.890890 -0.429329 -0.582927
v -0.890890 0.389559 -0.582927
v 1.434956 -0.516196 -0.027485
v 1.434956 0.873159 -0.027485
v 1.434956 -0.516196 0.027484
v 1.434956 0.873159 0.027484
v 1.379987 -0.516196 -0.027485
v 1.379987 0.873159 -0.027485
v 1.379987 -0.516196 0.027484
v 1.379987 0.873159 0.027484
v 1.308478 -0.516196 -0.473346
v 1.308478 0.538478 -0.473346
v 1.308478 -0.516196 -0.418378
v 1.308478 0.538478 -0.418378
v 1.253510 -0.516196 -0.473346
v 1.253510 0.538478 -0.473346
v 1.253510 -0.516196 -0.418378
v 1.253510 0.538478 -0.418378
v 1.308478 -0.516196 0.423610
v 1.308478 0.538478 0.423610
v 1.308478 -0.516196 0.478579
v 1.308478 0.538478 0.478579
v 1.253510 -0.516196 0.423610
v 1.253510 0.538478 0.423610
v 1.253510 -0.516196 0.478579
v 1.253510 0.538478 0.478579
v -0.863561 -0.422105 0.594813
v -0.863561 0.356364 0.594813
v -0.863561 -0.422105 0.570460
v -0.863561 0.356364 0.570460
v 0.863561 -0.422105 0.594813
v 0.863561 0.356364 0.594813
v 0.863561 -0.422105 0.570460
v 0.863561 0.356364 0.570460
v -0.806450 -0.103260 0.570460
v 0.820828 -0.103260 0.570460
v 0.820828 -0.103260 0.594813
v -0.806450 -0.103260 0.594813
v -0.148191 -0.429329 0.607131
v -0.148191 0.389559 0.607131
v -0.148191 -0.429329 0.582927
v -0.148191 0.389559 0.582927
v -0.108489 -0.429329 0.607131
v -0.108489 0.389559 0.607131
v -0.108489 -0.429329 0.582927
v -0.108489 0.389559 0.582927
v 0.117978 -0.429329 0.607131
v 0.117978 0.389559 0.607131
v 0.117978 -0.429329 0.582927
v 0.117978 0.389559 0.582927
v 0.157680 -0.429329 0.607131
v 0.157680 0.389559 0.607131
v 0.157680 -0.429329 0.582928
v 0.157680 0.389559 0.582928
v -0.879496 -0.429329 0.607131
v -0.879496 0.389559 0.607131
v -0.879496 -0.429329 0.582927
v -0.879496 0.389559 0.582927
v -0.839794 -0.429329 0.607131
v -0.839794 0.389559 0.607131
v -0.839794 -0.429329 0.582927
v -0.839794 0.389559 0.582927
v 0.851187 -0.429329 0.607131
v 0.851187 0.389559 0.607131
v 0.851187 -0.429329 0.582927
v 0.851187 0.389559 0.582927
v 0.890890 -0.429329 0.607131
v 0.890890 0.389559 0.607131
v 0.890889 -0.429329 0.582927
v 0.890889 0.389559 0.582927
v -1.434956 -0.516196 0.027484
v -1.434956 0.873159 0.027484
v -1.434956 -0.516196 -0.027484
v -1.434956 0.873159 -0.027484
v -1.379987 -0.516196 0.027484
v -1.379987 0.873159 0.027484
v -1.379987 -0.516196 -0.027484
v -1.379987 0.873159 -0.027484
v -1.308478 -0.516196 0.473346
v -1.308478 0.538478 0.473346
v -1.308478 -0.516196 0.418378
v -1.308478 0.538478 0.418378
v -1.253510 -0.516196 0.473346
v -1.253510 0.538478 0.473346
v -1.253510 -0.516196 0.418378
v -1.253510 0.538478 0.418378
v -1.308478 -0.516196 -0.423610
v -1.308478 0.538478 -0.423610
v -1.308478 -0.516196 -0.478579
v -1.308478 0.538478 -0.478579
v -1.253510 -0.516196 -0.423610
v -1.253510 0.538478 -0.423610
v -1.253510 -0.516196 -0.478579
v -1.253510 0.538478 -0.478579
v -0.731630 0.210989 0.570460
v -0.806450 0.136169 0.570460
v -0.760263 0.205293 0.570460
v -0.784536 0.189074 0.570460
v -0.800755 0.164801 0.570460
v 0.820828 0.136169 0.570460
v 0.746008 0.210989 0.570460
v 0.841928 0.282771 0.570460
v 0.815132 0.164801 0.570460
v 0.798913 0.189074 0.570460
v 0.774640 0.205293 0.570460
v 0.746008 0.210989 0.594813
v 0.820828 0.136169 0.594813
v 0.841929 0.282771 0.594813
v 0.774640 0.205293 0.594813
v 0.798914 0.189074 0.594813
v 0.815132 0.164801 0.594813
v -0.806450 0.136169 0.594813
v -0.731630 0.210989 0.594813
v -0.800755 0.164801 0.594813
v -0.784536 0.189074 0.594813
v -0.760263 0.205293 0.594813
v -0.897498 -0.429688 0.611004
v -0.897498 -0.393898 0.611004
v -0.897498 -0.429688 -0.611004
v -0.897498 -0.393898 -0.611004
v 0.897498 -0.429688 0.611004
v 0.897498 -0.393898 0.611004
v 0.897498 -0.429688 -0.611004
v 0.897498 -0.393898 -0.611004
vt 0.625000 0.000000
vt 0.375000 0.250000
vt 0.375000 0.000000
vt 0.625000 0.250000
vt 0.375000 0.500000
vt 0.625000 0.500000
vt 0.375000 0.750000
vt 0.625000 0.750000
vt 0.375000 1.000000
vt 0.125000 0.750000
vt 0.125000 0.500000
vt 0.875000 0.500000
vt 0.625000 1.000000
vt 0.875000 0.750000
vt 0.625000 0.000000
vt 0.375000 0.250000
vt 0.375000 0.000000
vt 0.625000 0.500000
vt 0.435213 0.489034
vt 0.564972 0.489034
vt 0.625000 0.250000
vt 0.435213 0.263191
vt 0.375000 0.750000
vt 0.375000 0.500000
vt 0.435213 0.760966
vt 0.625000 0.750000
vt 0.564972 0.760966
vt 0.435213 0.986809
vt 0.564972 0.986809
vt 0.625000 1.000000
vt 0.125000 0.750000
vt 0.125000 0.500000
vt 0.875000 0.500000
vt 0.375000 0.129272
vt 0.625000 0.097110
vt 0.375000 0.097110
vt 0.625000 0.620728
vt 0.375000 0.652890
vt 0.625000 0.652890
vt 0.375000 0.620728
vt 0.125000 0.652890
vt 0.875000 0.652890
vt 0.875000 0.620728
vt 0.625000 0.000000
vt 0.375000 0.250000
vt 0.375000 0.000000
vt 0.625000 0.250000
vt 0.375000 0.500000
vt 0.625000 0.500000
vt 0.375000 0.750000
vt 0.625000 0.750000
vt 0.375000 1.000000
vt 0.125000 0.750000
vt 0.125000 0.500000
vt 0.875000 0.500000
vt 0.625000 0.000000
vt 0.375000 0.250000
vt 0.375000 0.000000
vt 0.625000 0.250000
vt 0.375000 0.500000
vt 0.625000 0.500000
vt 0.375000 0.750000
vt 0.625000 0.750000
vt 0.375000 1.000000
vt 0.125000 0.750000
vt 0.125000 0.500000
vt 0.875000 0.500000
vt 0.625000 0.000000
vt 0.375000 0.250000
vt 0.375000 0.000000
vt 0.625000 0.250000
vt 0.375000 0.500000
vt 0.625000 0.500000
vt 0.375000 0.750000
vt 0.625000 0.750000
vt 0.375000 1.000000
vt 0.125000 0.750000
vt 0.125000 0.500000
vt 0.875000 0.750000
vt 0.625000 0.000000
vt 0.375000 0.250000
vt 0.375000 0.000000
vt 0.625000 0.250000
vt 0.375000 0.500000
vt 0.625000 0.500000
vt 0.375000 0.750000
vt 0.625000 0.750000
vt 0.375000 1.000000
vt 0.125000 0.750000
vt 0.125000 0.500000
vt 0.875000 0.750000
vt 0.625000 0.000000
vt 0.375000 0.250000
vt 0.375000 0.000000
vt 0.625000 0.250000
vt 0.375000 0.500000
vt 0.625000 0.500000
vt 0.375000 0.750000
vt 0.625000 0.750000
vt 0.375000 1.000000
vt 0.125000 0.750000
vt 0.125000 0.500000
vt 0.875000 0.500000
vt 0.625000 0.000000
vt 0.375000 0.250000
vt 0.375000 0.000000
vt 0.625000 0.250000
vt 0.375000 0.500000
vt 0.625000 0.500000
vt 0.375000 0.750000
vt 0.625000 0.750000
vt 0.375000 1.000000
vt 0.125000 0.500000
vt 0.125000 0.750000
vt 0.875000 0.500000
vt 0.625000 0.000000
vt 0.375000 0.250000
vt 0.375000 0.000000
vt 0.625000 0.250000
vt 0.375000 0.500000
vt 0.625000 0.500000
vt 0.375000 0.750000
vt 0.625000 0.750000
vt 0.375000 1.000000
vt 0.125000 0.500000
vt 0.125000 0.750000
vt 0.875000 0.500000
vt 0.625000 0.000000
vt 0.375000 0.250000
vt 0.375000 0.000000
vt 0.625000 0.750000
vt 0.594612 0.755551
vt 0.534078 0.760966
vt 0.375000 0.129272
vt 0.565477 0.097110
vt 0.375000 0.097110
vt 0.625000 0.500000
vt 0.375000 0.750000
vt 0.375000 0.500000
vt 0.625000 1.000000
vt 0.543847 0.985439
vt 0.551728 0.982435
vt 0.125000 0.750000
vt 0.125000 0.500000
vt 0.875000 0.750000
vt 0.565477 0.620728
vt 0.375000 0.652890
vt 0.565477 0.652890
vt 0.534078 0.489034
vt 0.435213 0.489034
vt 0.375000 0.620728
vt 0.125000 0.652890
vt 0.625000 0.250000
vt 0.543847 0.264560
vt 0.534078 0.263191
vt 0.625000 0.000000
vt 0.375000 0.250000
vt 0.375000 0.000000
vt 0.625000 0.250000
vt 0.375000 0.500000
vt 0.625000 0.500000
vt 0.375000 0.750000
vt 0.625000 0.750000
vt 0.375000 1.000000
vt 0.125000 0.750000
vt 0.125000 0.500000
vt 0.875000 0.500000
vt 0.625000 0.000000
vt 0.375000 0.250000
vt 0.375000 0.000000
vt 0.625000 0.250000
vt 0.375000 0.500000
vt 0.625000 0.500000
vt 0.375000 0.750000
vt 0.625000 0.750000
vt 0.375000 1.000000
vt 0.125000 0.750000
vt 0.125000 0.500000
vt 0.875000 0.750000
vt 0.625000 0.000000
vt 0.375000 0.250000
vt 0.375000 0.000000
vt 0.625000 0.250000
vt 0.375000 0.500000
vt 0.625000 0.500000
vt 0.375000 0.750000
vt 0.625000 0.750000
vt 0.375000 1.000000
vt 0.125000 0.750000
vt 0.125000 0.500000
vt 0.875000 0.750000
vt 0.625000 0.000000
vt 0.375000 0.250000
vt 0.375000 0.000000
vt 0.625000 0.250000
vt 0.375000 0.500000
vt 0.625000 0.500000
vt 0.375000 0.750000
vt 0.625000 0.750000
vt 0.375000 1.000000
vt 0.125000 0.750000
vt 0.125000 0.500000
vt 0.875000 0.750000
vt 0.625000 0.000000
vt 0.375000 0.250000
vt 0.375000 0.000000
vt 0.625000 0.250000
vt 0.375000 0.500000
vt 0.625000 0.500000
vt 0.375000 0.750000
vt 0.625000 0.750000
vt 0.375000 1.000000
vt 0.125000 0.750000
vt 0.125000 0.500000
vt 0.875000 0.500000
vt 0.625000 0.000000
vt 0.375000 0.250000
vt 0.375000 0.000000
vt 0.625000 0.250000
vt 0.375000 0.500000
vt 0.625000 0.500000
vt 0.375000 0.750000
vt 0.625000 0.750000
vt 0.375000 1.000000
vt 0.125000 0.500000
vt 0.125000 0.750000
vt 0.875000 0.500000
vt 0.625000 0.000000
vt 0.375000 0.250000
vt 0.375000 0.000000
vt 0.625000 0.250000
vt 0.375000 0.500000
vt 0.625000 0.500000
vt 0.375000 0.750000
vt 0.625000 0.750000
vt 0.375000 1.000000
vt 0.125000 0.500000
vt 0.125000 0.750000
vt 0.875000 0.500000
vt 0.564972 0.489034
vt 0.539840 0.487004
vt 0.594612 0.494449
vt 0.564972 0.485992
vt 0.564972 0.482623
vt 0.564972 0.478650
vt 0.564972 0.771350
vt 0.562217 0.767550
vt 0.564972 0.764008
vt 0.564972 0.761757
vt 0.564972 0.760966
vt 0.863505 0.620728
vt 0.867904 0.652890
vt 0.867904 0.620728
vt 0.875000 0.652890
vt 0.875000 0.620728
vt 0.625000 0.129272
vt 0.588256 0.097110
vt 0.588256 0.129272
vt 0.565477 0.129272
vt 0.588256 0.652890
vt 0.588256 0.620728
vt 0.625000 0.652890
vt 0.625000 0.620728
vt 0.632096 0.652890
vt 0.632096 0.620728
vt 0.636495 0.652890
vt 0.636495 0.620728
vt 0.863505 0.652890
vt 0.564972 0.263191
vt 0.375000 1.000000
vt 0.875000 0.750000
vt 0.625000 0.129272
vt 0.125000 0.620728
vt 0.625000 1.000000
vt 0.875000 0.750000
vt 0.625000 1.000000
vt 0.875000 0.750000
vt 0.625000 1.000000
vt 0.875000 0.500000
vt 0.625000 1.000000
vt 0.875000 0.500000
vt 0.625000 1.000000
vt 0.875000 0.750000
vt 0.625000 1.000000
vt 0.875000 0.750000
vt 0.625000 1.000000
vt 0.875000 0.750000
vt 0.435213 0.760966
vt 0.564972 0.976425
vt 0.375000 1.000000
vt 0.435213 0.986809
vt 0.561446 0.979996
vt 0.534078 0.986809
vt 0.875000 0.500000
vt 0.125000 0.620728
vt 0.435213 0.263191
vt 0.564972 0.273575
vt 0.561446 0.270004
vt 0.551728 0.267565
vt 0.625000 1.000000
vt 0.875000 0.750000
vt 0.625000 1.000000
vt 0.875000 0.500000
vt 0.625000 1.000000
vt 0.875000 0.500000
vt 0.625000 1.000000
vt 0.875000 0.500000
vt 0.625000 1.000000
vt 0.875000 0.750000
vt 0.625000 1.000000
vt 0.875000 0.750000
vt 0.625000 1.000000
vt 0.875000 0.750000
vt 0.625000 0.097110
vn -1.0000 0.0000 0.0000
vn 0.0000 0.0000 -1.0000
vn 1.0000 0.0000 0.0000
vn 0.0000 0.0000 1.0000
vn 0.0000 -1.0000 0.0000
vn 0.0000 1.0000 0.0000
vn 0.9952 -0.0980 -0.0000
vn -0.9952 -0.0980 0.0000
vn 0.0980 -0.9952 -0.0000
vn 0.3827 -0.9239 -0.0000
vn 0.7071 -0.7071 -0.0000
vn 0.9239 -0.3827 -0.0000
vn -0.9239 -0.3827 0.0000
vn -0.7071 -0.7071 0.0000
vn -0.3827 -0.9239 0.0000
vn -0.0980 -0.9952 0.0000
s off
f 164/1/1 165/2/1 163/3/1
f 166/4/2 169/5/2 165/2/2
f 170/6/3 167/7/3 169/5/3
f 168/8/4 163/9/4 167/7/4
f 169/5/5 163/10/5 165/11/5
f 166/12/6 168/8/6 170/6/6
f 164/1/1 166/4/1 165/2/1
f 166/4/2 170/6/2 169/5/2
f 170/6/3 168/8/3 167/7/3
f 168/8/4 164/13/4 163/9/4
f 169/5/5 167/7/5 163/10/5
f 166/12/6 164/14/6 168/8/6
s 1
f 2/15/3 3/16/3 1/17/3
f 8/18/4 11/19/4 12/20/4
f 3/16/4 4/21/4 9/22/4
f 8/18/1 5/23/1 7/24/1
f 13/25/2 6/26/2 14/27/2
f 15/28/2 16/29/2 2/30/2
f 7/24/5 1/31/5 3/32/5
f 4/33/6 6/26/6 8/18/6
f 9/34/1 16/35/1 15/36/1
f 12/37/3 13/38/3 14/39/3
f 11/40/6 15/41/6 13/38/6
f 12/37/5 16/42/5 10/43/5
f 18/44/3 19/45/3 17/46/3
f 20/47/4 23/48/4 19/45/4
f 24/49/1 21/50/1 23/48/1
f 22/51/2 17/52/2 21/50/2
f 23/48/5 17/53/5 19/54/5
f 20/55/6 22/51/6 24/49/6
f 26/56/3 27/57/3 25/58/3
f 28/59/4 31/60/4 27/57/4
f 32/61/1 29/62/1 31/60/1
f 30/63/2 25/64/2 29/62/2
f 31/60/5 25/65/5 27/66/5
f 28/67/6 30/63/6 32/61/6
f 34/68/3 35/69/3 33/70/3
f 36/71/4 39/72/4 35/69/4
f 40/73/1 37/74/1 39/72/1
f 38/75/2 33/76/2 37/74/2
f 39/72/5 33/77/5 35/78/5
f 40/73/6 34/79/6 38/75/6
f 42/80/3 43/81/3 41/82/3
f 44/83/4 47/84/4 43/81/4
f 48/85/1 45/86/1 47/84/1
f 46/87/2 41/88/2 45/86/2
f 47/84/5 41/89/5 43/90/5
f 48/85/6 42/91/6 46/87/6
f 50/92/3 51/93/3 49/94/3
f 52/95/4 55/96/4 51/93/4
f 56/97/1 53/98/1 55/96/1
f 54/99/2 49/100/2 53/98/2
f 55/96/5 49/101/5 51/102/5
f 52/103/6 54/99/6 56/97/6
f 58/104/3 59/105/3 57/106/3
f 60/107/4 63/108/4 59/105/4
f 64/109/1 61/110/1 63/108/1
f 62/111/2 57/112/2 61/110/2
f 59/113/5 61/110/5 57/114/5
f 60/115/6 62/111/6 64/109/6
f 66/116/3 67/117/3 65/118/3
f 68/119/4 71/120/4 67/117/4
f 72/121/1 69/122/1 71/120/1
f 70/123/2 65/124/2 69/122/2
f 67/125/5 69/122/5 65/126/5
f 68/127/6 70/123/6 72/121/6
f 74/128/1 75/129/1 73/130/1
f 78/131/4 154/132/4 153/133/4
f 81/134/3 158/135/7 84/136/3
f 80/137/3 77/138/3 79/139/3
f 74/140/4 160/141/4 161/142/4
f 79/139/5 73/143/5 75/144/5
f 80/137/6 74/145/6 78/131/6
f 146/146/8 83/147/1 153/148/8
f 146/149/2 80/137/2 82/150/2
f 82/151/6 84/152/6 83/147/6
f 76/153/2 145/154/2 142/155/2
f 86/156/1 87/157/1 85/158/1
f 88/159/2 91/160/2 87/157/2
f 92/161/3 89/162/3 91/160/3
f 90/163/4 85/164/4 89/162/4
f 91/160/5 85/165/5 87/166/5
f 88/167/6 90/163/6 92/161/6
f 94/168/1 95/169/1 93/170/1
f 96/171/2 99/172/2 95/169/2
f 100/173/3 97/174/3 99/172/3
f 98/175/4 93/176/4 97/174/4
f 99/172/5 93/177/5 95/178/5
f 100/173/6 94/179/6 98/175/6
f 102/180/1 103/181/1 101/182/1
f 104/183/2 107/184/2 103/181/2
f 108/185/3 105/186/3 107/184/3
f 106/187/4 101/188/4 105/186/4
f 107/184/5 101/189/5 103/190/5
f 108/185/6 102/191/6 106/187/6
f 110/192/1 111/193/1 109/194/1
f 112/195/2 115/196/2 111/193/2
f 116/197/3 113/198/3 115/196/3
f 114/199/4 109/200/4 113/198/4
f 115/196/5 109/201/5 111/202/5
f 116/197/6 110/203/6 114/199/6
f 118/204/1 119/205/1 117/206/1
f 120/207/2 123/208/2 119/205/2
f 124/209/3 121/210/3 123/208/3
f 122/211/4 117/212/4 121/210/4
f 123/208/5 117/213/5 119/214/5
f 120/215/6 122/211/6 124/209/6
f 126/216/1 127/217/1 125/218/1
f 128/219/2 131/220/2 127/217/2
f 132/221/3 129/222/3 131/220/3
f 130/223/4 125/224/4 129/222/4
f 127/225/5 129/222/5 125/226/5
f 128/227/6 130/223/6 132/221/6
f 134/228/1 135/229/1 133/230/1
f 136/231/2 139/232/2 135/229/2
f 140/233/3 137/234/3 139/232/3
f 138/235/4 133/236/4 137/234/4
f 135/237/5 137/234/5 133/238/5
f 136/239/6 138/235/6 140/233/6
f 146/240/2 149/241/2 148/242/2
f 149/241/2 150/243/2 148/242/2
f 150/243/2 151/244/2 148/242/2
f 151/244/2 147/245/2 148/242/2
f 152/246/4 155/247/4 154/132/4
f 155/247/4 156/248/4 154/132/4
f 156/248/4 157/249/4 154/132/4
f 157/249/4 153/250/4 154/132/4
f 141/251/9 162/252/10 143/253/10
f 143/253/10 161/254/11 144/255/11
f 144/256/11 160/257/12 145/258/12
f 160/257/12 142/259/7 145/258/12
f 146/146/8 157/260/13 149/261/13
f 149/261/13 156/262/14 150/263/14
f 150/263/14 155/264/15 151/265/15
f 151/265/15 152/266/16 147/267/16
f 147/267/16 159/268/9 141/251/9
f 2/15/3 4/21/3 3/16/3
f 8/18/4 7/24/4 11/19/4
f 11/19/4 7/24/4 9/22/4
f 7/24/4 3/16/4 9/22/4
f 4/21/4 8/18/4 10/269/4
f 8/18/4 12/20/4 10/269/4
f 4/21/4 10/269/4 9/22/4
f 8/18/1 6/26/1 5/23/1
f 13/25/2 5/23/2 6/26/2
f 16/29/2 14/27/2 6/26/2
f 1/270/2 5/23/2 15/28/2
f 5/23/2 13/25/2 15/28/2
f 16/29/2 6/26/2 2/30/2
f 1/270/2 15/28/2 2/30/2
f 7/24/5 5/23/5 1/31/5
f 4/33/6 2/271/6 6/26/6
f 9/34/1 10/272/1 16/35/1
f 12/37/3 11/40/3 13/38/3
f 11/40/6 9/273/6 15/41/6
f 12/37/5 14/39/5 16/42/5
f 18/44/3 20/47/3 19/45/3
f 20/47/4 24/49/4 23/48/4
f 24/49/1 22/51/1 21/50/1
f 22/51/2 18/274/2 17/52/2
f 23/48/5 21/50/5 17/53/5
f 20/55/6 18/275/6 22/51/6
f 26/56/3 28/59/3 27/57/3
f 28/59/4 32/61/4 31/60/4
f 32/61/1 30/63/1 29/62/1
f 30/63/2 26/276/2 25/64/2
f 31/60/5 29/62/5 25/65/5
f 28/67/6 26/277/6 30/63/6
f 34/68/3 36/71/3 35/69/3
f 36/71/4 40/73/4 39/72/4
f 40/73/1 38/75/1 37/74/1
f 38/75/2 34/278/2 33/76/2
f 39/72/5 37/74/5 33/77/5
f 40/73/6 36/279/6 34/79/6
f 42/80/3 44/83/3 43/81/3
f 44/83/4 48/85/4 47/84/4
f 48/85/1 46/87/1 45/86/1
f 46/87/2 42/280/2 41/88/2
f 47/84/5 45/86/5 41/89/5
f 48/85/6 44/281/6 42/91/6
f 50/92/3 52/95/3 51/93/3
f 52/95/4 56/97/4 55/96/4
f 56/97/1 54/99/1 53/98/1
f 54/99/2 50/282/2 49/100/2
f 55/96/5 53/98/5 49/101/5
f 52/103/6 50/283/6 54/99/6
f 58/104/3 60/107/3 59/105/3
f 60/107/4 64/109/4 63/108/4
f 64/109/1 62/111/1 61/110/1
f 62/111/2 58/284/2 57/112/2
f 59/113/5 63/108/5 61/110/5
f 60/115/6 58/285/6 62/111/6
f 66/116/3 68/119/3 67/117/3
f 68/119/4 72/121/4 71/120/4
f 72/121/1 70/123/1 69/122/1
f 70/123/2 66/286/2 65/124/2
f 67/125/5 71/120/5 69/122/5
f 68/127/6 66/287/6 70/123/6
f 74/128/1 76/153/1 75/129/1
f 153/133/4 83/288/4 78/131/4
f 83/288/4 77/138/4 78/131/4
f 81/134/3 142/259/7 158/135/7
f 80/137/3 78/131/3 77/138/3
f 159/289/4 152/246/4 78/131/4
f 152/246/4 154/132/4 78/131/4
f 78/131/4 74/140/4 159/289/4
f 73/290/4 77/138/4 84/291/4
f 77/138/4 83/288/4 84/291/4
f 162/292/4 159/289/4 74/140/4
f 74/140/4 73/290/4 84/291/4
f 74/140/4 84/291/4 158/293/4
f 161/142/4 162/292/4 74/140/4
f 74/140/4 158/293/4 160/141/4
f 79/139/5 77/138/5 73/143/5
f 80/137/6 76/294/6 74/145/6
f 146/146/8 82/151/1 83/147/1
f 148/242/2 80/137/2 146/149/2
f 80/137/2 79/139/2 82/150/2
f 82/151/6 81/295/6 84/152/6
f 82/150/2 79/139/2 81/296/2
f 79/139/2 75/129/2 81/296/2
f 76/153/2 80/137/2 141/297/2
f 80/137/2 148/242/2 147/245/2
f 141/297/2 80/137/2 147/245/2
f 142/155/2 81/296/2 76/153/2
f 81/296/2 75/129/2 76/153/2
f 76/153/2 141/297/2 143/298/2
f 76/153/2 143/298/2 144/299/2
f 76/153/2 144/299/2 145/154/2
f 86/156/1 88/159/1 87/157/1
f 88/159/2 92/161/2 91/160/2
f 92/161/3 90/163/3 89/162/3
f 90/163/4 86/300/4 85/164/4
f 91/160/5 89/162/5 85/165/5
f 88/167/6 86/301/6 90/163/6
f 94/168/1 96/171/1 95/169/1
f 96/171/2 100/173/2 99/172/2
f 100/173/3 98/175/3 97/174/3
f 98/175/4 94/302/4 93/176/4
f 99/172/5 97/174/5 93/177/5
f 100/173/6 96/303/6 94/179/6
f 102/180/1 104/183/1 103/181/1
f 104/183/2 108/185/2 107/184/2
f 108/185/3 106/187/3 105/186/3
f 106/187/4 102/304/4 101/188/4
f 107/184/5 105/186/5 101/189/5
f 108/185/6 104/305/6 102/191/6
f 110/192/1 112/195/1 111/193/1
f 112/195/2 116/197/2 115/196/2
f 116/197/3 114/199/3 113/198/3
f 114/199/4 110/306/4 109/200/4
f 115/196/5 113/198/5 109/201/5
f 116/197/6 112/307/6 110/203/6
f 118/204/1 120/207/1 119/205/1
f 120/207/2 124/209/2 123/208/2
f 124/209/3 122/211/3 121/210/3
f 122/211/4 118/308/4 117/212/4
f 123/208/5 121/210/5 117/213/5
f 120/215/6 118/309/6 122/211/6
f 126/216/1 128/219/1 127/217/1
f 128/219/2 132/221/2 131/220/2
f 132/221/3 130/223/3 129/222/3
f 130/223/4 126/310/4 125/224/4
f 127/225/5 131/220/5 129/222/5
f 128/227/6 126/311/6 130/223/6
f 134/228/1 136/231/1 135/229/1
f 136/231/2 140/233/2 139/232/2
f 140/233/3 138/235/3 137/234/3
f 138/235/4 134/312/4 133/236/4
f 135/237/5 139/232/5 137/234/5
f 136/239/6 134/313/6 138/235/6
f 141/251/9 159/268/9 162/252/10
f 143/253/10 162/252/10 161/254/11
f 144/256/11 161/314/11 160/257/12
f 160/257/12 158/135/7 142/259/7
f 146/146/8 153/148/8 157/260/13
f 149/261/13 157/260/13 156/262/14
f 150/263/14 156/262/14 155/264/15
f 151/265/15 155/264/15 152/266/16
f 147/267/16 152/266/16 159/268/9
