# Blender v3.4.1 OBJ File: 'buildings.blend'
# www.blender.org
o Wood_House_Roof_Cube.033
v -0.004607 1.333592 0.897216
v 0.013373 1.366983 0.897216
v -0.004607 1.333592 -1.102784
v 0.013373 1.366983 -1.102784
v 1.048382 0.766589 0.897216
v 1.066362 0.799980 0.897216
v 1.048382 0.766589 -1.102784
v 1.066362 0.799980 -1.102784
v 0.497541 1.004875 -1.102784
v 0.515521 1.038267 -1.102784
v 0.497541 1.004875 0.897216
v 0.515521 1.038267 0.897216
v -0.003971 1.333601 -1.104194
v -0.021952 1.366992 -1.104194
v -0.003972 1.333601 0.895806
v -0.021952 1.366992 0.895806
v -1.056961 0.766598 -1.104195
v -1.074941 0.799989 -1.104195
v -1.056961 0.766598 0.895805
v -1.074941 0.799989 0.895805
v -0.506119 1.004884 0.895805
v -0.524099 1.038275 0.895805
v -0.506119 1.004884 -1.104195
v -0.524099 1.038275 -1.104195
vt 0.625000 0.000000
vt 0.375000 0.250000
vt 0.375000 0.000000
vt 0.625000 0.375000
vt 0.375000 0.500000
vt 0.375000 0.375000
vt 0.625000 0.500000
vt 0.375000 0.750000
vt 0.625000 0.875000
vt 0.375000 1.000000
vt 0.375000 0.875000
vt 0.250000 0.750000
vt 0.250000 0.500000
vt 0.875000 0.500000
vt 0.750000 0.750000
vt 0.750000 0.500000
vt 0.625000 0.750000
vt 0.125000 0.750000
vt 0.125000 0.500000
vt 0.375000 0.000000
vt 0.625000 0.250000
vt 0.375000 0.250000
vt 0.375000 0.375000
vt 0.625000 0.500000
vt 0.375000 0.500000
vt 0.375000 0.750000
vt 0.625000 0.875000
vt 0.375000 1.000000
vt 0.375000 0.875000
vt 0.250000 0.500000
vt 0.250000 0.750000
vt 0.875000 0.500000
vt 0.750000 0.750000
vt 0.750000 0.500000
vt 0.625000 0.750000
vt 0.125000 0.500000
vt 0.125000 0.750000
vt 0.625000 0.375000
vt 0.625000 0.250000
vt 0.625000 1.000000
vt 0.875000 0.750000
vt 0.625000 0.000000
vt 0.625000 1.000000
vt 0.875000 0.750000
vn -0.8805 0.4741 0.0000
vn 0.0000 0.0000 -1.0000
vn 0.8805 -0.4741 0.0000
vn 0.0000 0.0000 1.0000
vn -0.3970 -0.9178 0.0000
vn 0.5477 0.8367 0.0000
vn 0.3970 0.9178 0.0000
vn -0.5477 -0.8367 0.0000
vn 0.8805 0.4741 0.0000
vn -0.8805 -0.4741 -0.0000
vn 0.3970 -0.9178 0.0000
vn -0.5477 0.8367 -0.0000
vn -0.3970 0.9178 -0.0000
vn 0.5477 -0.8367 0.0000
s off
f 2/1/1 3/2/1 1/3/1
f 10/4/2 7/5/2 9/6/2
f 8/7/3 5/8/3 7/5/3
f 12/9/4 1/10/4 11/11/4
f 7/5/5 11/12/5 9/13/5
f 4/14/6 12/15/6 10/16/6
f 10/16/7 6/17/7 8/7/7
f 9/13/8 1/18/8 3/19/8
f 5/8/4 12/9/4 11/11/4
f 3/2/2 10/4/2 9/6/2
f 13/20/9 16/21/9 15/22/9
f 21/23/4 20/24/4 19/25/4
f 20/24/10 17/26/10 19/25/10
f 24/27/2 13/28/2 23/29/2
f 21/30/11 17/26/11 23/31/11
f 16/32/12 24/33/12 22/34/12
f 22/34/13 18/35/13 20/24/13
f 15/36/14 23/31/14 13/37/14
f 18/35/2 23/29/2 17/26/2
f 15/22/4 22/38/4 21/23/4
f 2/1/1 4/39/1 3/2/1
f 10/4/2 8/7/2 7/5/2
f 8/7/3 6/17/3 5/8/3
f 12/9/4 2/40/4 1/10/4
f 7/5/5 5/8/5 11/12/5
f 4/14/6 2/41/6 12/15/6
f 10/16/7 12/15/7 6/17/7
f 9/13/8 11/12/8 1/18/8
f 5/8/4 6/17/4 12/9/4
f 3/2/2 4/39/2 10/4/2
f 13/20/9 14/42/9 16/21/9
f 21/23/4 22/38/4 20/24/4
f 20/24/10 18/35/10 17/26/10
f 24/27/2 14/43/2 13/28/2
f 21/30/11 19/25/11 17/26/11
f 16/32/12 14/44/12 24/33/12
f 22/34/13 24/33/13 18/35/13
f 15/36/14 21/30/14 23/31/14
f 18/35/2 24/27/2 23/29/2
f 15/22/4 16/21/4 22/38/4
