# Blender v3.4.1 OBJ File: 'buildings.blend'
# www.blender.org
o Wood_Awning_Cube.044
v 0.862920 0.599504 0.887806
v 0.862920 0.764327 0.887806
v 0.862920 0.599504 0.954686
v 0.862920 0.764327 0.954686
v -0.898619 0.599504 0.887806
v -0.898619 1.576007 0.887806
v -0.898619 0.599504 0.954686
v -0.898619 1.576007 0.954686
v -0.546311 0.702103 0.954686
v -0.194003 0.731998 0.954686
v 0.158305 0.731998 0.954686
v 0.510613 0.702103 0.954686
v 0.510613 0.702103 0.887806
v 0.158305 0.731998 0.887806
v -0.194003 0.731998 0.887806
v -0.546311 0.702103 0.887806
v 0.862920 0.599504 -0.946973
v 0.862920 0.764327 -0.946973
v 0.862920 0.599504 -0.880094
v 0.862920 0.764327 -0.880094
v -0.898619 0.599504 -0.946973
v -0.898619 1.576007 -0.946973
v -0.898619 0.599504 -0.880094
v -0.898619 1.576007 -0.880094
v -0.546311 0.702103 -0.880094
v -0.194003 0.731998 -0.880094
v 0.158305 0.731998 -0.880094
v 0.510613 0.702103 -0.880094
v 0.510613 0.702103 -0.946973
v 0.158305 0.731998 -0.946973
v -0.194003 0.731998 -0.946973
v -0.546311 0.702103 -0.946973
v 0.803306 -1.033683 -0.847871
v 0.803306 0.924396 -0.847871
v 0.745426 -1.033683 -0.875745
v 0.745426 0.924396 -0.875745
v 0.731130 -1.033683 -0.938376
v 0.731130 0.924396 -0.938376
v 0.771185 -1.033683 -0.988602
v 0.771185 0.924396 -0.988602
v 0.835427 -1.033683 -0.988602
v 0.835427 0.924396 -0.988602
v 0.875481 -1.033683 -0.938376
v 0.875481 0.924396 -0.938376
v 0.861186 -1.033683 -0.875745
v 0.861186 0.924396 -0.875745
v 0.803306 -1.033683 0.987392
v 0.803306 0.924396 0.987392
v 0.745426 -1.033683 0.959518
v 0.745426 0.924396 0.959518
v 0.731130 -1.033683 0.896887
v 0.731130 0.924396 0.896887
v 0.771185 -1.033683 0.846661
v 0.771185 0.924396 0.846661
v 0.835427 -1.033683 0.846661
v 0.835427 0.924396 0.846661
v 0.875481 -1.033683 0.896887
v 0.875481 0.924396 0.896887
v 0.861186 -1.033683 0.959518
v 0.861186 0.924396 0.959518
v -0.848129 -1.000000 0.701652
v -0.848129 1.524049 0.701652
v -0.848129 -1.000000 0.929017
v -0.848129 1.524049 0.929017
v -0.902343 -1.000000 0.701652
v -0.902343 1.524049 0.701652
v -0.902343 -1.000000 0.929017
v -0.902343 1.524049 0.929017
v -0.833198 -1.000412 -0.916438
v -0.833198 1.523637 -0.916438
v -0.833198 -1.000412 -0.689074
v -0.833198 1.523637 -0.689074
v -0.887412 -1.000412 -0.916438
v -0.887412 1.523637 -0.916438
v -0.887412 -1.000412 -0.689074
v -0.887412 1.523637 -0.689074
v -0.848129 -1.000000 0.167747
v -0.848129 1.524049 0.167747
v -0.848129 -1.000000 0.395112
v -0.848129 1.524049 0.395112
v -0.902343 -1.000000 0.167747
v -0.902343 1.524049 0.167747
v -0.902343 -1.000000 0.395112
v -0.902343 1.524049 0.395112
v -0.848129 -1.000000 -0.360428
v -0.848129 1.524049 -0.360428
v -0.848129 -1.000000 -0.133063
v -0.848129 1.524049 -0.133063
v -0.902343 -1.000000 -0.360428
v -0.902343 1.524049 -0.360428
v -0.902343 -1.000000 -0.133063
v -0.902343 1.524049 -0.133063
v -0.811906 0.838017 -1.000000
v -0.811906 1.042840 -1.000000
v -0.811906 0.838017 1.000000
v -0.811906 1.042840 1.000000
v -0.871822 0.838017 -1.000000
v -0.871822 1.042840 -1.000000
v -0.871822 0.838017 1.000000
v -0.871822 1.042840 1.000000
v -0.811906 -0.196413 -1.000000
v -0.811906 0.008410 -1.000000
v -0.811906 -0.196413 1.000000
v -0.811906 0.008410 1.000000
v -0.871822 -0.196413 -1.000000
v -0.871822 0.008410 -1.000000
v -0.871822 -0.196413 1.000000
v -0.871822 0.008410 1.000000
v 0.896233 0.701460 -1.248002
v 0.930850 0.779209 -1.248002
v 0.896233 0.701460 1.286378
v 0.930850 0.779209 1.286378
v -0.930850 1.514951 -1.248002
v -0.896233 1.592700 -1.248002
v -0.930850 1.514951 1.286378
v -0.896233 1.592700 1.286378
v 0.474079 1.074797 1.286378
v 0.017308 1.307792 1.286378
v -0.439462 1.481542 1.286378
v -0.439462 1.481542 -1.248002
v 0.017308 1.307792 -1.248002
v 0.474079 1.074797 -1.248002
vt 0.625000 0.000000
vt 0.375000 0.250000
vt 0.375000 0.000000
vt 0.375000 0.350000
vt 0.625000 0.250000
vt 0.375000 0.400000
vt 0.625000 0.500000
vt 0.375000 0.750000
vt 0.375000 0.500000
vt 0.625000 1.000000
vt 0.375000 0.900000
vt 0.375000 0.850000
vt 0.325000 0.750000
vt 0.325000 0.500000
vt 0.875000 0.500000
vt 0.625000 0.750000
vt 0.175000 0.500000
vt 0.125000 0.750000
vt 0.125000 0.500000
vt 0.225000 0.500000
vt 0.175000 0.750000
vt 0.275000 0.500000
vt 0.225000 0.750000
vt 0.275000 0.750000
vt 0.625000 0.000000
vt 0.375000 0.250000
vt 0.375000 0.000000
vt 0.375000 0.350000
vt 0.625000 0.250000
vt 0.375000 0.400000
vt 0.625000 0.500000
vt 0.375000 0.750000
vt 0.375000 0.500000
vt 0.625000 1.000000
vt 0.375000 0.900000
vt 0.375000 0.850000
vt 0.325000 0.750000
vt 0.325000 0.500000
vt 0.875000 0.500000
vt 0.625000 0.750000
vt 0.175000 0.500000
vt 0.125000 0.750000
vt 0.125000 0.500000
vt 0.225000 0.500000
vt 0.175000 0.750000
vt 0.275000 0.500000
vt 0.225000 0.750000
vt 0.275000 0.750000
vt 1.000000 1.000000
vt 0.857143 0.500000
vt 1.000000 0.500000
vt 0.857143 1.000000
vt 0.714286 0.500000
vt 0.714286 1.000000
vt 0.571429 0.500000
vt 0.571429 1.000000
vt 0.428571 0.500000
vt 0.428571 1.000000
vt 0.285714 0.500000
vt 0.354132 0.033767
vt 0.483983 0.196595
vt 0.016017 0.196595
vt 0.285714 1.000000
vt 0.142857 0.500000
vt 0.142857 1.000000
vt 0.000000 0.500000
vt 0.516017 0.196595
vt 0.562360 0.399638
vt 0.937640 0.399638
vt 1.000000 1.000000
vt 0.857143 0.500000
vt 1.000000 0.500000
vt 0.857143 1.000000
vt 0.714286 0.500000
vt 0.714286 1.000000
vt 0.571429 0.500000
vt 0.571429 1.000000
vt 0.428571 0.500000
vt 0.428571 1.000000
vt 0.285714 0.500000
vt 0.354132 0.033767
vt 0.483983 0.196595
vt 0.016017 0.196595
vt 0.285714 1.000000
vt 0.142857 0.500000
vt 0.142857 1.000000
vt 0.000000 0.500000
vt 0.516017 0.196595
vt 0.562360 0.399638
vt 0.937640 0.399638
vt 0.625000 0.000000
vt 0.375000 0.250000
vt 0.375000 0.000000
vt 0.625000 0.250000
vt 0.375000 0.500000
vt 0.625000 0.500000
vt 0.375000 0.750000
vt 0.625000 0.750000
vt 0.375000 1.000000
vt 0.125000 0.750000
vt 0.125000 0.500000
vt 0.875000 0.500000
vt 0.625000 0.000000
vt 0.375000 0.250000
vt 0.375000 0.000000
vt 0.625000 0.250000
vt 0.375000 0.500000
vt 0.625000 0.500000
vt 0.375000 0.750000
vt 0.625000 0.750000
vt 0.375000 1.000000
vt 0.125000 0.750000
vt 0.125000 0.500000
vt 0.875000 0.500000
vt 0.625000 0.000000
vt 0.375000 0.250000
vt 0.375000 0.000000
vt 0.625000 0.250000
vt 0.375000 0.500000
vt 0.625000 0.500000
vt 0.375000 0.750000
vt 0.625000 0.750000
vt 0.375000 1.000000
vt 0.125000 0.750000
vt 0.125000 0.500000
vt 0.875000 0.500000
vt 0.625000 0.000000
vt 0.375000 0.250000
vt 0.375000 0.000000
vt 0.625000 0.250000
vt 0.375000 0.500000
vt 0.625000 0.500000
vt 0.375000 0.750000
vt 0.625000 0.750000
vt 0.375000 1.000000
vt 0.125000 0.750000
vt 0.125000 0.500000
vt 0.875000 0.500000
vt 0.625000 0.000000
vt 0.375000 0.250000
vt 0.375000 0.000000
vt 0.625000 0.250000
vt 0.375000 0.500000
vt 0.625000 0.500000
vt 0.375000 0.750000
vt 0.625000 0.750000
vt 0.375000 1.000000
vt 0.125000 0.750000
vt 0.125000 0.500000
vt 0.875000 0.500000
vt 0.625000 0.000000
vt 0.375000 0.250000
vt 0.375000 0.000000
vt 0.625000 0.250000
vt 0.375000 0.500000
vt 0.625000 0.500000
vt 0.375000 0.750000
vt 0.625000 0.750000
vt 0.375000 1.000000
vt 0.125000 0.750000
vt 0.125000 0.500000
vt 0.875000 0.500000
vt 0.625000 0.000000
vt 0.375000 0.250000
vt 0.375000 0.000000
vt 0.625000 0.437500
vt 0.625000 0.500000
vt 0.375000 0.500000
vt 0.375000 0.750000
vt 0.625000 0.937500
vt 0.625000 1.000000
vt 0.375000 1.000000
vt 0.125000 0.750000
vt 0.125000 0.500000
vt 0.875000 0.500000
vt 0.812500 0.750000
vt 0.812500 0.500000
vt 0.687500 0.500000
vt 0.625000 0.750000
vt 0.750000 0.500000
vt 0.687500 0.750000
vt 0.750000 0.750000
vt 0.375000 0.300000
vt 0.375000 0.450000
vt 0.375000 0.800000
vt 0.375000 1.000000
vt 0.375000 0.950000
vt 0.875000 0.750000
vt 0.375000 0.300000
vt 0.375000 0.450000
vt 0.375000 0.800000
vt 0.375000 1.000000
vt 0.375000 0.950000
vt 0.875000 0.750000
vt 0.437640 0.399638
vt 0.062360 0.399638
vt 0.250000 0.490000
vt 0.145868 0.033767
vt 0.000000 1.000000
vt 0.750000 0.490000
vt 0.983983 0.196595
vt 0.854132 0.033767
vt 0.645868 0.033767
vt 0.437640 0.399638
vt 0.062360 0.399638
vt 0.250000 0.490000
vt 0.145868 0.033767
vt 0.000000 1.000000
vt 0.750000 0.490000
vt 0.983983 0.196595
vt 0.854132 0.033767
vt 0.645868 0.033767
vt 0.625000 1.000000
vt 0.875000 0.750000
vt 0.625000 1.000000
vt 0.875000 0.750000
vt 0.625000 1.000000
vt 0.875000 0.750000
vt 0.625000 1.000000
vt 0.875000 0.750000
vt 0.625000 1.000000
vt 0.875000 0.750000
vt 0.625000 1.000000
vt 0.875000 0.750000
vt 0.625000 0.250000
vt 0.625000 0.312500
vt 0.625000 0.375000
vt 0.625000 0.812500
vt 0.625000 0.875000
vt 0.875000 0.750000
vn 1.0000 0.0000 0.0000
vn 0.0000 0.0000 1.0000
vn -1.0000 0.0000 0.0000
vn 0.0000 0.0000 -1.0000
vn 0.2796 -0.9601 0.0000
vn 0.4185 0.9082 0.0000
vn -0.2796 -0.9601 0.0000
vn -0.0846 -0.9964 -0.0000
vn 0.0000 -1.0000 0.0000
vn 0.0846 -0.9964 -0.0000
vn -0.4339 0.0000 0.9010
vn -0.9749 0.0000 0.2225
vn -0.7818 0.0000 -0.6235
vn 0.7818 0.0000 -0.6235
vn 0.0000 1.0000 0.0000
vn 0.9749 0.0000 0.2225
vn 0.4339 0.0000 0.9010
vn 0.9135 -0.4067 0.0000
vn -0.9135 0.4067 0.0000
vn -0.4067 -0.9135 0.0000
vn 0.5433 0.8395 0.0000
vn 0.2365 0.9716 0.0000
vn 0.3555 0.9347 0.0000
vn 0.4544 0.8908 0.0000
s off
f 2/1/1 3/2/1 1/3/1
f 11/4/2 4/5/2 10/6/2
f 8/7/3 5/8/3 7/9/3
f 2/10/4 14/11/4 15/12/4
f 7/9/5 16/13/5 9/14/5
f 4/15/6 6/16/6 8/7/6
f 12/17/7 1/18/7 3/19/7
f 11/20/8 13/21/8 12/17/8
f 10/22/9 14/23/9 11/20/9
f 9/14/10 15/24/10 10/22/10
f 18/25/1 19/26/1 17/27/1
f 27/28/2 20/29/2 26/30/2
f 24/31/3 21/32/3 23/33/3
f 18/34/4 30/35/4 31/36/4
f 23/33/5 32/37/5 25/38/5
f 20/39/6 22/40/6 24/31/6
f 28/41/7 17/42/7 19/43/7
f 27/44/8 29/45/8 28/41/8
f 26/46/9 30/47/9 27/44/9
f 25/38/10 31/48/10 26/46/10
f 34/49/11 35/50/11 33/51/11
f 36/52/12 37/53/12 35/50/12
f 38/54/13 39/55/13 37/53/13
f 40/56/4 41/57/4 39/55/4
f 42/58/14 43/59/14 41/57/14
f 40/60/15 38/61/15 44/62/15
f 44/63/16 45/64/16 43/59/16
f 46/65/17 33/66/17 45/64/17
f 43/67/9 45/68/9 35/69/9
f 48/70/11 49/71/11 47/72/11
f 50/73/12 51/74/12 49/71/12
f 52/75/13 53/76/13 51/74/13
f 54/77/4 55/78/4 53/76/4
f 56/79/14 57/80/14 55/78/14
f 54/81/15 52/82/15 58/83/15
f 58/84/16 59/85/16 57/80/16
f 60/86/17 47/87/17 59/85/17
f 57/88/9 59/89/9 49/90/9
f 62/91/1 63/92/1 61/93/1
f 64/94/2 67/95/2 63/92/2
f 68/96/3 65/97/3 67/95/3
f 66/98/4 61/99/4 65/97/4
f 67/95/9 61/100/9 63/101/9
f 64/102/15 66/98/15 68/96/15
f 70/103/1 71/104/1 69/105/1
f 72/106/2 75/107/2 71/104/2
f 76/108/3 73/109/3 75/107/3
f 74/110/4 69/111/4 73/109/4
f 75/107/9 69/112/9 71/113/9
f 72/114/15 74/110/15 76/108/15
f 78/115/1 79/116/1 77/117/1
f 80/118/2 83/119/2 79/116/2
f 84/120/3 81/121/3 83/119/3
f 82/122/4 77/123/4 81/121/4
f 83/119/9 77/124/9 79/125/9
f 80/126/15 82/122/15 84/120/15
f 86/127/1 87/128/1 85/129/1
f 88/130/2 91/131/2 87/128/2
f 92/132/3 89/133/3 91/131/3
f 90/134/4 85/135/4 89/133/4
f 91/131/9 85/136/9 87/137/9
f 88/138/15 90/134/15 92/132/15
f 94/139/1 95/140/1 93/141/1
f 96/142/2 99/143/2 95/140/2
f 100/144/3 97/145/3 99/143/3
f 98/146/4 93/147/4 97/145/4
f 99/143/9 93/148/9 95/149/9
f 96/150/15 98/146/15 100/144/15
f 102/151/1 103/152/1 101/153/1
f 104/154/2 107/155/2 103/152/2
f 108/156/3 105/157/3 107/155/3
f 106/158/4 101/159/4 105/157/4
f 107/155/9 101/160/9 103/161/9
f 104/162/15 106/158/15 108/156/15
f 110/163/18 111/164/18 109/165/18
f 119/166/2 116/167/2 115/168/2
f 116/167/19 113/169/19 115/168/19
f 122/170/4 110/171/4 109/172/4
f 115/168/20 109/173/20 111/174/20
f 112/175/21 122/176/21 117/177/21
f 119/178/22 114/179/22 116/167/22
f 118/180/23 120/181/23 119/178/23
f 117/177/24 121/182/24 118/180/24
f 2/1/1 4/5/1 3/2/1
f 12/183/2 3/2/2 4/5/2
f 8/7/2 7/9/2 9/184/2
f 8/7/2 9/184/2 10/6/2
f 12/183/2 4/5/2 11/4/2
f 4/5/2 8/7/2 10/6/2
f 8/7/3 6/16/3 5/8/3
f 16/185/4 5/8/4 6/16/4
f 6/16/4 2/10/4 15/12/4
f 2/10/4 1/186/4 13/187/4
f 2/10/4 13/187/4 14/11/4
f 15/12/4 16/185/4 6/16/4
f 7/9/5 5/8/5 16/13/5
f 4/15/6 2/188/6 6/16/6
f 12/17/7 13/21/7 1/18/7
f 11/20/8 14/23/8 13/21/8
f 10/22/9 15/24/9 14/23/9
f 9/14/10 16/13/10 15/24/10
f 18/25/1 20/29/1 19/26/1
f 28/189/2 19/26/2 20/29/2
f 24/31/2 23/33/2 25/190/2
f 24/31/2 25/190/2 26/30/2
f 28/189/2 20/29/2 27/28/2
f 20/29/2 24/31/2 26/30/2
f 24/31/3 22/40/3 21/32/3
f 32/191/4 21/32/4 22/40/4
f 22/40/4 18/34/4 31/36/4
f 18/34/4 17/192/4 29/193/4
f 18/34/4 29/193/4 30/35/4
f 31/36/4 32/191/4 22/40/4
f 23/33/5 21/32/5 32/37/5
f 20/39/6 18/194/6 22/40/6
f 28/41/7 29/45/7 17/42/7
f 27/44/8 30/47/8 29/45/8
f 26/46/9 31/48/9 30/47/9
f 25/38/10 32/37/10 31/48/10
f 34/49/11 36/52/11 35/50/11
f 36/52/12 38/54/12 37/53/12
f 38/54/13 40/56/13 39/55/13
f 40/56/4 42/58/4 41/57/4
f 42/58/14 44/63/14 43/59/14
f 38/61/15 36/195/15 46/196/15
f 36/195/15 34/197/15 46/196/15
f 46/196/15 44/62/15 38/61/15
f 44/62/15 42/198/15 40/60/15
f 44/63/16 46/65/16 45/64/16
f 46/65/17 34/199/17 33/66/17
f 45/68/9 33/200/9 35/69/9
f 35/69/9 37/201/9 43/67/9
f 37/201/9 39/202/9 43/67/9
f 39/202/9 41/203/9 43/67/9
f 48/70/11 50/73/11 49/71/11
f 50/73/12 52/75/12 51/74/12
f 52/75/13 54/77/13 53/76/13
f 54/77/4 56/79/4 55/78/4
f 56/79/14 58/84/14 57/80/14
f 52/82/15 50/204/15 60/205/15
f 50/204/15 48/206/15 60/205/15
f 60/205/15 58/83/15 52/82/15
f 58/83/15 56/207/15 54/81/15
f 58/84/16 60/86/16 59/85/16
f 60/86/17 48/208/17 47/87/17
f 59/89/9 47/209/9 49/90/9
f 49/90/9 51/210/9 57/88/9
f 51/210/9 53/211/9 57/88/9
f 53/211/9 55/212/9 57/88/9
f 62/91/1 64/94/1 63/92/1
f 64/94/2 68/96/2 67/95/2
f 68/96/3 66/98/3 65/97/3
f 66/98/4 62/213/4 61/99/4
f 67/95/9 65/97/9 61/100/9
f 64/102/15 62/214/15 66/98/15
f 70/103/1 72/106/1 71/104/1
f 72/106/2 76/108/2 75/107/2
f 76/108/3 74/110/3 73/109/3
f 74/110/4 70/215/4 69/111/4
f 75/107/9 73/109/9 69/112/9
f 72/114/15 70/216/15 74/110/15
f 78/115/1 80/118/1 79/116/1
f 80/118/2 84/120/2 83/119/2
f 84/120/3 82/122/3 81/121/3
f 82/122/4 78/217/4 77/123/4
f 83/119/9 81/121/9 77/124/9
f 80/126/15 78/218/15 82/122/15
f 86/127/1 88/130/1 87/128/1
f 88/130/2 92/132/2 91/131/2
f 92/132/3 90/134/3 89/133/3
f 90/134/4 86/219/4 85/135/4
f 91/131/9 89/133/9 85/136/9
f 88/138/15 86/220/15 90/134/15
f 94/139/1 96/142/1 95/140/1
f 96/142/2 100/144/2 99/143/2
f 100/144/3 98/146/3 97/145/3
f 98/146/4 94/221/4 93/147/4
f 99/143/9 97/145/9 93/148/9
f 96/150/15 94/222/15 98/146/15
f 102/151/1 104/154/1 103/152/1
f 104/154/2 108/156/2 107/155/2
f 108/156/3 106/158/3 105/157/3
f 106/158/4 102/223/4 101/159/4
f 107/155/9 105/157/9 101/160/9
f 104/162/15 102/224/15 106/158/15
f 110/163/18 112/225/18 111/164/18
f 115/168/2 111/164/2 117/226/2
f 111/164/2 112/225/2 117/226/2
f 117/226/2 118/227/2 115/168/2
f 118/227/2 119/166/2 115/168/2
f 116/167/19 114/179/19 113/169/19
f 109/172/4 113/169/4 122/170/4
f 113/169/4 114/179/4 120/228/4
f 122/170/4 113/169/4 121/229/4
f 120/228/4 121/229/4 113/169/4
f 115/168/20 113/169/20 109/173/20
f 112/175/21 110/230/21 122/176/21
f 119/178/22 120/181/22 114/179/22
f 118/180/23 121/182/23 120/181/23
f 117/177/24 122/176/24 121/182/24
