# Blender v3.4.1 OBJ File: 'buildings.blend'
# www.blender.org
o Wood_Tower_LoD_Cube.022
v -1.011135 1.235690 -0.940366
v 0.988865 1.382800 -0.940366
v -1.011135 1.382800 -0.904591
v 0.988865 1.235690 -0.904590
v -1.011135 -0.076297 -0.940366
v 0.988865 0.070813 -0.940366
v -1.011135 0.070813 -0.904591
v 0.988865 -0.076297 -0.904590
v -0.722578 -0.060207 -0.940366
v 0.700308 1.352958 -0.940366
v -0.818307 0.051495 -0.904591
v 0.796037 1.241256 -0.904590
v 0.700308 -1.349037 -0.904591
v -0.722578 0.064128 -0.904590
v 0.796037 -1.237335 -0.940366
v -0.818307 -0.047574 -0.940366
v -1.011135 -1.380560 -0.940366
v 0.988865 -1.233450 -0.940366
v -1.011135 -1.233450 -0.904591
v 0.988865 -1.380560 -0.904590
v 0.936717 -1.324399 -0.940366
v 0.789606 1.297438 -0.940366
v 0.789606 -1.324399 -0.904590
v 0.936716 1.297438 -0.904590
v -0.802846 -1.324399 -0.940366
v -0.949956 1.297438 -0.940366
v -0.949956 -1.324399 -0.904591
v -0.802846 1.297438 -0.904591
v 1.001182 1.238431 -1.000000
v 1.001182 1.385542 1.000000
v 0.965406 1.385542 -1.000000
v 0.965406 1.238431 1.000000
v 1.001182 -0.073555 -1.000000
v 1.001182 0.073555 1.000000
v 0.965406 0.073555 -1.000000
v 0.965406 -0.073555 1.000000
v 1.001182 -0.057465 -0.711443
v 1.001182 1.355700 0.711443
v 0.965406 0.054237 -0.807173
v 0.965406 1.243998 0.807172
v 0.965406 -1.346295 0.711443
v 0.965406 0.066870 -0.711443
v 1.001182 -1.234593 0.807172
v 1.001182 -0.044832 -0.807173
v 1.001182 -1.377818 -1.000000
v 1.001182 -1.230708 1.000000
v 0.965406 -1.230708 -1.000000
v 0.965406 -1.377818 1.000000
v 1.001182 -1.321657 0.947851
v 1.001182 1.300180 0.800741
v 0.965406 -1.321657 0.800741
v 0.965406 1.300180 0.947851
v 1.001182 -1.321657 -0.791711
v 1.001182 1.300180 -0.938821
v 0.965406 -1.321657 -0.938821
v 0.965406 1.300180 -0.791711
v -1.017925 1.238431 1.000000
v -1.017925 1.385542 -1.000000
v -0.982150 1.385542 1.000000
v -0.982150 1.238431 -1.000000
v -1.017925 -0.073555 1.000000
v -1.017925 0.073555 -1.000000
v -0.982150 0.073555 1.000000
v -0.982150 -0.073555 -1.000000
v -1.017925 -0.057465 0.711443
v -1.017925 1.355700 -0.711443
v -0.982150 0.054237 0.807172
v -0.982150 1.243998 -0.807172
v -0.982150 -1.346295 -0.711443
v -0.982149 0.066870 0.711443
v -1.017925 -1.234593 -0.807172
v -1.017925 -0.044832 0.807172
v -1.017925 -1.377818 1.000000
v -1.017925 -1.230708 -1.000000
v -0.982150 -1.230708 1.000000
v -0.982150 -1.377818 -1.000000
v -1.017925 -1.321657 -0.947852
v -1.017925 1.300180 -0.800741
v -0.982150 -1.321657 -0.800741
v -0.982150 1.300180 -0.947851
v -1.017925 -1.321657 0.791711
v -1.017925 1.300180 0.938821
v -0.982150 -1.321657 0.938821
v -0.982150 1.300180 0.791711
v 0.980979 1.237405 0.950458
v -1.019021 1.384516 0.950459
v 0.980979 1.384516 0.914683
v -1.019021 1.237405 0.914683
v 0.980979 -0.074581 0.950458
v -1.019021 0.072529 0.950459
v 0.980979 0.072529 0.914683
v -1.019021 -0.074581 0.914683
v 0.692422 -0.058491 0.950459
v -0.730464 1.354674 0.950459
v 0.788151 0.053211 0.914683
v -0.826194 1.242972 0.914683
v -0.730464 -1.347321 0.914683
v 0.692422 0.065844 0.914683
v -0.826194 -1.235619 0.950459
v 0.788151 -0.045858 0.950458
v 0.980979 -1.378844 0.950458
v -1.019021 -1.231734 0.950459
v 0.980979 -1.231734 0.914683
v -1.019021 -1.378844 0.914683
v -0.966873 -1.322683 0.950459
v -0.819762 1.299154 0.950459
v -0.819762 -1.322683 0.914683
v -0.966872 1.299154 0.914683
v 0.772690 -1.322683 0.950458
v 0.919800 1.299154 0.950458
v 0.919800 -1.322683 0.914683
v 0.772690 1.299154 0.914683
vt 0.625000 0.750000
vt 0.125000 0.750000
vt 0.375000 0.500000
vt 0.875000 0.500000
vt 0.625000 0.250000
vt 0.375000 1.000000
vt 0.625000 0.250000
vt 0.375000 0.500000
vt 0.375000 0.000000
vt 0.625000 0.750000
vt 0.125000 0.750000
vt 0.375000 0.500000
vt 0.875000 0.500000
vt 0.625000 0.250000
vt 0.375000 1.000000
vt 0.375000 0.000000
vt 0.625000 0.750000
vt 0.125000 0.750000
vt 0.375000 0.500000
vt 0.875000 0.500000
vt 0.625000 0.250000
vt 0.375000 1.000000
vt 0.375000 0.000000
vt 0.625000 0.750000
vt 0.125000 0.750000
vt 0.375000 0.500000
vt 0.875000 0.500000
vt 0.625000 0.250000
vt 0.375000 1.000000
vt 0.375000 0.000000
vt 0.625000 0.750000
vt 0.125000 0.750000
vt 0.375000 0.500000
vt 0.875000 0.500000
vt 0.625000 0.250000
vt 0.375000 1.000000
vt 0.375000 0.000000
vt 0.625000 0.750000
vt 0.125000 0.750000
vt 0.375000 0.500000
vt 0.875000 0.500000
vt 0.625000 0.250000
vt 0.375000 1.000000
vt 0.375000 0.000000
vt 0.625000 0.750000
vt 0.125000 0.750000
vt 0.375000 0.500000
vt 0.875000 0.500000
vt 0.625000 0.250000
vt 0.375000 1.000000
vt 0.375000 0.000000
vt 0.625000 0.750000
vt 0.125000 0.750000
vt 0.375000 0.500000
vt 0.875000 0.500000
vt 0.625000 0.250000
vt 0.375000 1.000000
vt 0.375000 0.000000
vt 0.625000 0.750000
vt 0.125000 0.750000
vt 0.375000 0.500000
vt 0.875000 0.500000
vt 0.625000 0.250000
vt 0.375000 1.000000
vt 0.375000 0.000000
vt 0.625000 0.750000
vt 0.125000 0.750000
vt 0.375000 0.500000
vt 0.875000 0.500000
vt 0.625000 0.250000
vt 0.375000 1.000000
vt 0.375000 0.000000
vt 0.625000 0.750000
vt 0.125000 0.750000
vt 0.375000 0.500000
vt 0.875000 0.500000
vt 0.625000 0.250000
vt 0.375000 1.000000
vt 0.375000 0.000000
vt 0.625000 0.750000
vt 0.125000 0.750000
vt 0.375000 0.500000
vt 0.875000 0.500000
vt 0.625000 0.250000
vt 0.375000 1.000000
vt 0.375000 0.000000
vt 0.625000 0.750000
vt 0.125000 0.750000
vt 0.375000 0.500000
vt 0.875000 0.500000
vt 0.625000 0.250000
vt 0.375000 1.000000
vt 0.375000 0.000000
vt 0.625000 0.750000
vt 0.125000 0.750000
vt 0.375000 0.500000
vt 0.875000 0.500000
vt 0.625000 0.250000
vt 0.375000 1.000000
vt 0.375000 0.000000
vt 0.625000 0.750000
vt 0.125000 0.750000
vt 0.375000 0.500000
vt 0.875000 0.500000
vt 0.625000 0.250000
vt 0.375000 1.000000
vt 0.375000 0.000000
vt 0.625000 0.750000
vt 0.125000 0.750000
vt 0.375000 0.500000
vt 0.875000 0.500000
vt 0.625000 0.250000
vt 0.375000 1.000000
vt 0.375000 0.000000
vt 0.625000 0.750000
vt 0.125000 0.750000
vt 0.375000 0.500000
vt 0.875000 0.500000
vt 0.625000 0.250000
vt 0.375000 1.000000
vt 0.375000 0.000000
vt 0.625000 0.750000
vt 0.125000 0.750000
vt 0.375000 0.500000
vt 0.875000 0.500000
vt 0.625000 0.250000
vt 0.375000 1.000000
vt 0.375000 0.000000
vt 0.625000 0.750000
vt 0.125000 0.750000
vt 0.375000 0.500000
vt 0.875000 0.500000
vt 0.625000 0.250000
vt 0.375000 1.000000
vt 0.375000 0.000000
vt 0.625000 0.750000
vt 0.125000 0.750000
vt 0.375000 0.500000
vt 0.875000 0.500000
vt 0.625000 0.250000
vt 0.375000 1.000000
vt 0.375000 0.000000
vt 0.625000 0.750000
vt 0.125000 0.750000
vt 0.375000 0.500000
vt 0.875000 0.500000
vt 0.625000 0.250000
vt 0.375000 1.000000
vt 0.375000 0.000000
vt 0.625000 0.750000
vt 0.125000 0.750000
vt 0.375000 0.500000
vt 0.875000 0.500000
vt 0.625000 0.250000
vt 0.375000 1.000000
vt 0.375000 0.000000
vt 0.625000 0.750000
vt 0.125000 0.750000
vt 0.375000 0.500000
vt 0.875000 0.500000
vt 0.625000 0.250000
vt 0.375000 1.000000
vt 0.375000 0.000000
vt 0.625000 0.750000
vt 0.125000 0.750000
vt 0.375000 0.500000
vt 0.875000 0.500000
vt 0.625000 0.250000
vt 0.375000 1.000000
vt 0.375000 0.000000
vt 0.625000 0.750000
vt 0.125000 0.750000
vt 0.375000 0.500000
vt 0.875000 0.500000
vt 0.625000 0.250000
vt 0.375000 1.000000
vt 0.375000 0.000000
vt 0.625000 0.750000
vt 0.125000 0.750000
vt 0.375000 0.500000
vt 0.875000 0.500000
vt 0.625000 0.250000
vt 0.375000 1.000000
vt 0.375000 0.000000
vt 0.625000 0.750000
vt 0.125000 0.750000
vt 0.375000 0.500000
vt 0.875000 0.500000
vt 0.625000 0.250000
vt 0.375000 1.000000
vt 0.375000 0.000000
vt 0.375000 0.000000
vt 0.875000 0.500000
vt 0.625000 0.750000
vt 0.125000 0.750000
vt 0.375000 1.000000
vn -0.0174 -0.2363 0.9715
vn 0.0174 0.2363 0.9715
vn -0.0174 0.2363 -0.9715
vn 0.0174 -0.2363 -0.9715
vn 0.1406 -0.1907 0.9715
vn -0.1406 0.1907 0.9715
vn -0.1669 0.1681 -0.9715
vn -0.1406 -0.1907 -0.9715
vn 0.1406 0.1907 -0.9715
vn 0.1669 0.1681 0.9715
vn 0.1669 -0.1681 -0.9715
vn -0.1669 -0.1681 0.9715
vn 0.2363 -0.0133 0.9716
vn -0.2363 0.0133 0.9716
vn -0.2363 -0.0133 -0.9716
vn 0.2363 0.0133 -0.9716
vn -0.9715 -0.2363 -0.0174
vn -0.9715 0.2363 0.0174
vn 0.9715 0.2363 -0.0174
vn 0.9715 -0.2363 0.0174
vn -0.9715 -0.1907 0.1405
vn -0.9715 0.1907 -0.1405
vn 0.9715 0.1681 -0.1669
vn 0.9715 -0.1907 -0.1405
vn 0.9715 0.1907 0.1405
vn -0.9715 0.1681 0.1669
vn 0.9715 -0.1681 0.1669
vn -0.9715 -0.1681 -0.1669
vn -0.9716 -0.0133 0.2363
vn -0.9716 0.0133 -0.2363
vn 0.9716 -0.0133 -0.2363
vn 0.9716 0.0133 0.2363
vn 0.9715 -0.1907 -0.1406
vn 0.9715 0.1907 0.1406
vn -0.9715 -0.1907 0.1406
vn -0.9715 0.1907 -0.1406
vn -0.1405 -0.1907 -0.9715
vn 0.1405 -0.1907 0.9715
s off
f 7/1/1 5/2/1 8/3/1
f 6/4/2 7/1/2 8/3/2
f 7/1/3 6/5/3 5/6/3
f 2/7/4 4/8/4 1/9/4
f 11/10/5 9/11/5 12/12/5
f 10/13/6 11/10/6 12/12/6
f 11/10/7 10/14/7 9/15/7
f 6/5/4 8/3/4 5/16/4
f 15/17/8 13/18/8 16/19/8
f 14/20/9 15/17/9 16/19/9
f 15/17/10 14/21/10 13/22/10
f 10/14/11 12/12/11 9/23/11
f 19/24/1 17/25/1 20/26/1
f 18/27/2 19/24/2 20/26/2
f 19/24/3 18/28/3 17/29/3
f 14/21/12 16/19/12 13/30/12
f 23/31/13 21/32/13 24/33/13
f 22/34/14 23/31/14 24/33/14
f 23/31/15 22/35/15 21/36/15
f 18/28/4 20/26/4 17/37/4
f 27/38/13 25/39/13 28/40/13
f 26/41/14 27/38/14 28/40/14
f 27/38/15 26/42/15 25/43/15
f 22/35/16 24/33/16 21/44/16
f 31/45/17 29/46/17 32/47/17
f 30/48/18 31/45/18 32/47/18
f 31/45/19 30/49/19 29/50/19
f 26/42/16 28/40/16 25/51/16
f 35/52/17 33/53/17 36/54/17
f 34/55/18 35/52/18 36/54/18
f 35/52/19 34/56/19 33/57/19
f 30/49/20 32/47/20 29/58/20
f 39/59/21 37/60/21 40/61/21
f 38/62/22 39/59/22 40/61/22
f 39/59/23 38/63/23 37/64/23
f 34/56/20 36/54/20 33/65/20
f 43/66/24 41/67/24 44/68/24
f 42/69/25 43/66/25 44/68/25
f 43/66/26 42/70/26 41/71/26
f 38/63/27 40/61/27 37/72/27
f 47/73/17 45/74/17 48/75/17
f 46/76/18 47/73/18 48/75/18
f 47/73/19 46/77/19 45/78/19
f 42/70/28 44/68/28 41/79/28
f 51/80/29 49/81/29 52/82/29
f 50/83/30 51/80/30 52/82/30
f 51/80/31 50/84/31 49/85/31
f 46/77/20 48/75/20 45/86/20
f 55/87/29 53/88/29 56/89/29
f 54/90/30 55/87/30 56/89/30
f 55/87/31 54/91/31 53/92/31
f 50/84/32 52/82/32 49/93/32
f 59/94/20 57/95/20 60/96/20
f 58/97/19 59/94/19 60/96/19
f 59/94/18 58/98/18 57/99/18
f 54/91/32 56/89/32 53/100/32
f 63/101/20 61/102/20 64/103/20
f 62/104/19 63/101/19 64/103/19
f 63/101/18 62/105/18 61/106/18
f 58/98/17 60/96/17 57/107/17
f 67/108/33 65/109/33 68/110/33
f 66/111/34 67/108/34 68/110/34
f 67/108/26 66/112/26 65/113/26
f 62/105/17 64/103/17 61/114/17
f 71/115/35 69/116/35 72/117/35
f 70/118/36 71/115/36 72/117/36
f 71/115/23 70/119/23 69/120/23
f 66/112/28 68/110/28 65/121/28
f 75/122/20 73/123/20 76/124/20
f 74/125/19 75/122/19 76/124/19
f 75/122/18 74/126/18 73/127/18
f 70/119/27 72/117/27 69/128/27
f 79/129/31 77/130/31 80/131/31
f 78/132/32 79/129/32 80/131/32
f 79/129/29 78/133/29 77/134/29
f 74/126/17 76/124/17 73/135/17
f 83/136/31 81/137/31 84/138/31
f 82/139/32 83/136/32 84/138/32
f 83/136/29 82/140/29 81/141/29
f 78/133/30 80/131/30 77/142/30
f 87/143/4 85/144/4 88/145/4
f 86/146/3 87/143/3 88/145/3
f 87/143/2 86/147/2 85/148/2
f 82/140/30 84/138/30 81/149/30
f 91/150/4 89/151/4 92/152/4
f 90/153/3 91/150/3 92/152/3
f 91/150/2 90/154/2 89/155/2
f 86/147/1 88/145/1 85/156/1
f 95/157/37 93/158/37 96/159/37
f 94/160/9 95/157/9 96/159/9
f 95/157/10 94/161/10 93/162/10
f 90/154/1 92/152/1 89/163/1
f 99/164/38 97/165/38 100/166/38
f 98/167/6 99/164/6 100/166/6
f 99/164/7 98/168/7 97/169/7
f 94/161/12 96/159/12 93/170/12
f 103/171/4 101/172/4 104/173/4
f 102/174/3 103/171/3 104/173/3
f 103/171/2 102/175/2 101/176/2
f 98/168/11 100/166/11 97/177/11
f 107/178/15 105/179/15 108/180/15
f 106/181/16 107/178/16 108/180/16
f 107/178/13 106/182/13 105/183/13
f 102/175/1 104/173/1 101/184/1
f 111/185/15 109/186/15 112/187/15
f 110/188/16 111/185/16 112/187/16
f 111/185/13 110/189/13 109/190/13
f 106/182/14 108/180/14 105/191/14
f 110/189/14 112/187/14 109/192/14
f 2/193/2 3/194/2 4/8/2
f 3/194/1 1/195/1 4/8/1
f 3/194/3 2/7/3 1/196/3
