# Blender v3.4.1 OBJ File: 'buildings.blend'
# www.blender.org
o Wood_Electrical_Tower_Cube.007
v -0.041963 1.615410 0.878593
v -0.041963 1.654024 0.878593
v -0.041963 1.615410 -0.253899
v -0.041963 1.654024 -0.253899
v 0.041963 1.615410 0.878593
v 0.041963 1.654024 0.878593
v 0.041963 1.615410 -0.253899
v 0.041963 1.654024 -0.253899
v -0.041963 1.187669 0.878593
v -0.041963 1.226284 0.878593
v -0.041963 1.187669 -0.303084
v -0.041963 1.226284 -0.303084
v 0.041963 1.187669 0.878593
v 0.041963 1.226284 0.878593
v 0.041963 1.187669 -0.303084
v 0.041963 1.226284 -0.303084
v 0.654819 -1.738788 -0.063254
v 0.254689 1.744670 -0.063254
v 0.654819 -1.738788 0.063254
v 0.254689 1.744670 0.063254
v 0.603613 -1.744670 -0.063254
v 0.203482 1.738788 -0.063254
v 0.603613 -1.744670 0.063254
v 0.203482 1.738788 0.063254
v -0.654819 -1.738788 0.063254
v -0.254689 1.744670 0.063254
v -0.654819 -1.738788 -0.063254
v -0.254689 1.744670 -0.063254
v -0.603613 -1.744670 0.063254
v -0.203482 1.738788 0.063254
v -0.603613 -1.744670 -0.063254
v -0.203482 1.738788 -0.063254
v 0.063254 -1.738788 0.654819
v 0.063254 1.744670 0.254689
v -0.063254 -1.738788 0.654819
v -0.063254 1.744670 0.254689
v 0.063254 -1.744670 0.603613
v 0.063254 1.738788 0.203482
v -0.063254 -1.744670 0.603613
v -0.063254 1.738788 0.203482
v -0.063254 -1.738788 -0.654819
v -0.063254 1.744670 -0.254689
v 0.063253 -1.738788 -0.654819
v 0.063254 1.744670 -0.254689
v -0.063254 -1.744670 -0.603613
v -0.063254 1.738788 -0.203482
v 0.063253 -1.744670 -0.603613
v 0.063254 1.738788 -0.203482
vt 0.625000 0.000000
vt 0.375000 0.250000
vt 0.375000 0.000000
vt 0.625000 0.250000
vt 0.375000 0.500000
vt 0.625000 0.500000
vt 0.375000 0.750000
vt 0.625000 0.750000
vt 0.375000 1.000000
vt 0.125000 0.750000
vt 0.125000 0.500000
vt 0.875000 0.500000
vt 0.625000 0.000000
vt 0.375000 0.250000
vt 0.375000 0.000000
vt 0.625000 0.250000
vt 0.375000 0.500000
vt 0.625000 0.500000
vt 0.375000 0.750000
vt 0.625000 0.750000
vt 0.375000 1.000000
vt 0.125000 0.750000
vt 0.125000 0.500000
vt 0.875000 0.500000
vt 0.625000 0.000000
vt 0.375000 0.250000
vt 0.375000 0.000000
vt 0.625000 0.500000
vt 0.375000 0.500000
vt 0.375000 0.750000
vt 0.625000 0.750000
vt 0.375000 1.000000
vt 0.125000 0.750000
vt 0.125000 0.500000
vt 0.875000 0.750000
vt 0.625000 0.000000
vt 0.375000 0.250000
vt 0.375000 0.000000
vt 0.625000 0.500000
vt 0.375000 0.500000
vt 0.375000 0.750000
vt 0.625000 0.750000
vt 0.375000 1.000000
vt 0.125000 0.500000
vt 0.125000 0.750000
vt 0.875000 0.500000
vt 0.625000 0.000000
vt 0.375000 0.250000
vt 0.375000 0.000000
vt 0.625000 0.500000
vt 0.375000 0.500000
vt 0.375000 0.750000
vt 0.625000 0.750000
vt 0.375000 1.000000
vt 0.125000 0.500000
vt 0.125000 0.750000
vt 0.875000 0.500000
vt 0.625000 0.000000
vt 0.375000 0.250000
vt 0.375000 0.000000
vt 0.625000 0.500000
vt 0.375000 0.500000
vt 0.375000 0.750000
vt 0.625000 0.750000
vt 0.375000 1.000000
vt 0.125000 0.500000
vt 0.125000 0.750000
vt 0.875000 0.500000
vt 0.625000 1.000000
vt 0.875000 0.750000
vt 0.625000 1.000000
vt 0.875000 0.750000
vt 0.625000 0.250000
vt 0.625000 1.000000
vt 0.875000 0.500000
vt 0.625000 0.250000
vt 0.625000 1.000000
vt 0.875000 0.750000
vt 0.625000 0.250000
vt 0.625000 1.000000
vt 0.875000 0.750000
vt 0.625000 0.250000
vt 0.625000 1.000000
vt 0.875000 0.750000
vn -1.0000 0.0000 0.0000
vn 0.0000 0.0000 -1.0000
vn 1.0000 0.0000 0.0000
vn 0.0000 0.0000 1.0000
vn 0.0000 -1.0000 0.0000
vn 0.0000 1.0000 0.0000
vn 0.9935 0.1141 -0.0000
vn -0.9935 -0.1141 0.0000
vn 0.1141 -0.9935 -0.0000
vn -0.1141 0.9935 0.0000
vn -0.9935 0.1141 -0.0000
vn 0.9935 -0.1141 0.0000
vn -0.1141 -0.9935 0.0000
vn 0.1141 0.9935 -0.0000
vn -0.0000 0.1141 0.9935
vn 0.0000 -0.1141 -0.9935
vn -0.0000 -0.9935 0.1141
vn 0.0000 0.9935 -0.1141
vn 0.0000 0.1141 -0.9935
vn 0.0000 -0.1141 0.9935
vn 0.0000 -0.9935 -0.1141
vn 0.0000 0.9935 0.1141
s off
f 2/1/1 3/2/1 1/3/1
f 4/4/2 7/5/2 3/2/2
f 8/6/3 5/7/3 7/5/3
f 6/8/4 1/9/4 5/7/4
f 7/5/5 1/10/5 3/11/5
f 4/12/6 6/8/6 8/6/6
f 10/13/1 11/14/1 9/15/1
f 12/16/2 15/17/2 11/14/2
f 16/18/3 13/19/3 15/17/3
f 14/20/4 9/21/4 13/19/4
f 15/17/5 9/22/5 11/23/5
f 12/24/6 14/20/6 16/18/6
f 18/25/7 19/26/7 17/27/7
f 19/26/4 24/28/4 23/29/4
f 24/28/8 21/30/8 23/29/8
f 22/31/2 17/32/2 21/30/2
f 23/29/9 17/33/9 19/34/9
f 24/28/10 18/35/10 22/31/10
f 26/36/11 27/37/11 25/38/11
f 27/37/2 32/39/2 31/40/2
f 32/39/12 29/41/12 31/40/12
f 30/42/4 25/43/4 29/41/4
f 27/44/13 29/41/13 25/45/13
f 28/46/14 30/42/14 32/39/14
f 34/47/15 35/48/15 33/49/15
f 35/48/1 40/50/1 39/51/1
f 40/50/16 37/52/16 39/51/16
f 38/53/3 33/54/3 37/52/3
f 35/55/17 37/52/17 33/56/17
f 36/57/18 38/53/18 40/50/18
f 42/58/19 43/59/19 41/60/19
f 43/59/3 48/61/3 47/62/3
f 48/61/20 45/63/20 47/62/20
f 46/64/1 41/65/1 45/63/1
f 43/66/21 45/63/21 41/67/21
f 44/68/22 46/64/22 48/61/22
f 2/1/1 4/4/1 3/2/1
f 4/4/2 8/6/2 7/5/2
f 8/6/3 6/8/3 5/7/3
f 6/8/4 2/69/4 1/9/4
f 7/5/5 5/7/5 1/10/5
f 4/12/6 2/70/6 6/8/6
f 10/13/1 12/16/1 11/14/1
f 12/16/2 16/18/2 15/17/2
f 16/18/3 14/20/3 13/19/3
f 14/20/4 10/71/4 9/21/4
f 15/17/5 13/19/5 9/22/5
f 12/24/6 10/72/6 14/20/6
f 18/25/7 20/73/7 19/26/7
f 19/26/4 20/73/4 24/28/4
f 24/28/8 22/31/8 21/30/8
f 22/31/2 18/74/2 17/32/2
f 23/29/9 21/30/9 17/33/9
f 24/28/10 20/75/10 18/35/10
f 26/36/11 28/76/11 27/37/11
f 27/37/2 28/76/2 32/39/2
f 32/39/12 30/42/12 29/41/12
f 30/42/4 26/77/4 25/43/4
f 27/44/13 31/40/13 29/41/13
f 28/46/14 26/78/14 30/42/14
f 34/47/15 36/79/15 35/48/15
f 35/48/1 36/79/1 40/50/1
f 40/50/16 38/53/16 37/52/16
f 38/53/3 34/80/3 33/54/3
f 35/55/17 39/51/17 37/52/17
f 36/57/18 34/81/18 38/53/18
f 42/58/19 44/82/19 43/59/19
f 43/59/3 44/82/3 48/61/3
f 48/61/20 46/64/20 45/63/20
f 46/64/1 42/83/1 41/65/1
f 43/66/21 47/62/21 45/63/21
f 44/68/22 42/84/22 46/64/22
