# Blender v3.4.1 OBJ File: 'buildings.blend'
# www.blender.org
o Wood_Facade_Cube
v -1.000000 -1.000000 0.012656
v -1.000000 1.000000 0.012656
v -1.000000 -1.000000 -0.062062
v -1.000000 1.000000 -0.062062
v 1.000000 -1.000000 0.012656
v 1.000000 1.000000 0.012656
v 1.000000 -1.000000 -0.062062
v 1.000000 1.000000 -0.062062
vt 0.537359 0.500000
vt 0.518680 0.000000
vt 0.537359 0.000000
vt 0.500000 0.500000
vt 0.000000 0.000000
vt 0.500000 0.000000
vt 0.518679 0.500000
vt 0.500000 0.000000
vt 0.518680 0.000000
vt 0.500000 1.000000
vt 0.000000 0.500000
vt 0.500000 0.500000
vt 0.574718 0.500000
vt 0.556039 0.000000
vt 0.574718 0.000000
vt 0.556039 0.500000
vt 0.537359 0.000000
vt 0.556039 0.000000
vt 0.518680 0.500000
vt 0.000000 0.500000
vt 0.500000 0.500000
vt 0.000000 1.000000
vt 0.556039 0.500000
vn -1.0000 0.0000 0.0000
vn 0.0000 0.0000 -1.0000
vn 1.0000 0.0000 0.0000
vn 0.0000 0.0000 1.0000
vn 0.0000 -1.0000 0.0000
vn 0.0000 1.0000 0.0000
s off
f 2/1/1 3/2/1 1/3/1
f 4/4/2 7/5/2 3/6/2
f 8/7/3 5/8/3 7/9/3
f 6/10/4 1/11/4 5/12/4
f 7/13/5 1/14/5 3/15/5
f 4/16/6 6/17/6 8/18/6
f 2/1/1 4/19/1 3/2/1
f 4/4/2 8/20/2 7/5/2
f 8/7/3 6/21/3 5/8/3
f 6/10/4 2/22/4 1/11/4
f 7/13/5 5/23/5 1/14/5
f 4/16/6 2/1/6 6/17/6
