# Blender v3.4.1 OBJ File: 'teikoku.blend'
# www.blender.org
o Green_Curve_Sign_Cube.001
v -1.000000 -0.151697 0.037336
v -1.000000 -0.090982 0.037336
v -1.000000 -0.151697 -0.037336
v -1.000000 -0.090982 -0.037336
v 1.000000 -0.151697 0.037336
v 1.000000 -0.090982 0.037336
v 1.000000 -0.151697 -0.037336
v 1.000000 -0.090982 -0.037336
v -0.971430 0.049356 -0.037336
v -0.906942 0.177078 -0.037336
v -0.803516 0.280680 -0.037336
v -0.695797 0.328227 -0.037336
v -0.561280 0.339046 -0.037336
v 0.561281 0.339046 -0.037336
v 0.695797 0.328227 -0.037336
v 0.803516 0.280680 -0.037336
v 0.906942 0.177078 -0.037336
v 0.971430 0.049356 -0.037336
v 0.971430 0.049356 0.037336
v 0.906942 0.177078 0.037336
v 0.803516 0.280680 0.037336
v 0.695797 0.328227 0.037336
v 0.561280 0.339046 0.037336
v -0.561281 0.339046 0.037336
v -0.695797 0.328227 0.037336
v -0.803516 0.280680 0.037336
v -0.906942 0.177078 0.037336
v -0.971430 0.049356 0.037336
v -0.436551 0.313200 -0.037336
v -0.336715 0.250225 -0.037336
v -0.202029 0.185289 -0.037336
v -0.067343 0.152119 -0.037336
v 0.067343 0.152119 -0.037336
v 0.202029 0.185289 -0.037336
v 0.336715 0.250225 -0.037336
v 0.436552 0.313200 -0.037336
v 0.436551 0.313200 0.037336
v 0.336715 0.250225 0.037336
v 0.202029 0.185289 0.037336
v 0.067343 0.152119 0.037336
v -0.067343 0.152119 0.037336
v -0.202029 0.185289 0.037336
v -0.336715 0.250225 0.037336
v -0.436552 0.313200 0.037336
v 0.600000 -0.091377 -0.037336
v 0.200000 -0.061645 -0.037336
v -0.200000 -0.061645 -0.037336
v -0.600000 -0.091377 -0.037336
v -0.600000 -0.091377 0.037336
v -0.200000 -0.061645 0.037336
v 0.200000 -0.061645 0.037336
v 0.600000 -0.091377 0.037336
vt 0.625000 0.000000
vt 0.375000 0.250000
vt 0.375000 0.000000
vt 0.375000 0.400000
vt 0.625000 0.378788
vt 0.625000 0.381313
vt 0.625000 0.500000
vt 0.375000 0.750000
vt 0.375000 0.500000
vt 0.375000 0.900000
vt 0.625000 0.878788
vt 0.625000 0.881313
vt 0.325000 0.750000
vt 0.325000 0.500000
vt 0.875000 0.500000
vt 0.852273 0.750000
vt 0.852273 0.500000
vt 0.647727 0.500000
vt 0.625000 0.750000
vt 0.670455 0.500000
vt 0.647727 0.750000
vt 0.693182 0.500000
vt 0.670455 0.750000
vt 0.715909 0.500000
vt 0.693182 0.750000
vt 0.738636 0.500000
vt 0.715909 0.750000
vt 0.761364 0.500000
vt 0.758838 0.750000
vt 0.758838 0.500000
vt 0.784091 0.500000
vt 0.761364 0.750000
vt 0.806818 0.500000
vt 0.784091 0.750000
vt 0.829545 0.500000
vt 0.806818 0.750000
vt 0.829545 0.750000
vt 0.741162 0.500000
vt 0.738636 0.750000
vt 0.743687 0.500000
vt 0.741162 0.750000
vt 0.746212 0.500000
vt 0.743687 0.750000
vt 0.748737 0.500000
vt 0.746212 0.750000
vt 0.751263 0.500000
vt 0.748737 0.750000
vt 0.753788 0.500000
vt 0.751263 0.750000
vt 0.756313 0.500000
vt 0.753788 0.750000
vt 0.756313 0.750000
vt 0.175000 0.500000
vt 0.125000 0.750000
vt 0.125000 0.500000
vt 0.225000 0.500000
vt 0.175000 0.750000
vt 0.275000 0.500000
vt 0.225000 0.750000
vt 0.275000 0.750000
vt 0.625000 0.250000
vt 0.375000 0.300000
vt 0.625000 0.272727
vt 0.625000 0.295455
vt 0.625000 0.318182
vt 0.625000 0.340909
vt 0.625000 0.363636
vt 0.625000 0.366162
vt 0.625000 0.368687
vt 0.375000 0.350000
vt 0.625000 0.371212
vt 0.625000 0.373737
vt 0.375000 0.450000
vt 0.625000 0.376263
vt 0.625000 0.477273
vt 0.625000 0.431818
vt 0.625000 0.454545
vt 0.625000 0.386364
vt 0.625000 0.409091
vt 0.625000 0.383838
vt 0.375000 0.800000
vt 0.625000 0.772727
vt 0.625000 0.795455
vt 0.625000 0.818182
vt 0.625000 0.840909
vt 0.625000 0.863636
vt 0.625000 0.866162
vt 0.625000 0.868687
vt 0.375000 0.850000
vt 0.625000 0.871212
vt 0.625000 0.873737
vt 0.625000 1.000000
vt 0.375000 1.000000
vt 0.375000 0.950000
vt 0.625000 0.876263
vt 0.625000 0.977273
vt 0.625000 0.931818
vt 0.625000 0.954545
vt 0.625000 0.886364
vt 0.625000 0.909091
vt 0.625000 0.883838
vt 0.875000 0.750000
vn -0.9950 0.1002 0.0000
vn -1.0000 0.0000 0.0000
vn 0.0000 0.0000 -1.0000
vn 0.9950 0.1002 0.0000
vn 1.0000 0.0000 0.0000
vn -0.0000 0.0000 1.0000
vn -0.1491 -0.9888 0.0000
vn -0.1117 -0.9937 0.0000
vn -0.9447 0.3280 0.0000
vn 0.9447 0.3280 0.0000
vn 0.8103 0.5860 0.0000
vn 0.5654 0.8248 0.0000
vn 0.2454 0.9694 0.0000
vn -0.0620 0.9981 0.0000
vn 0.0620 0.9981 0.0000
vn 0.3742 0.9273 0.0000
vn -0.2454 0.9694 -0.0000
vn -0.5654 0.8248 -0.0000
vn -0.8103 0.5860 0.0000
vn -0.3742 0.9273 -0.0000
vn -0.4847 0.8747 -0.0000
vn -0.3385 0.9410 -0.0000
vn -0.1204 0.9927 -0.0000
vn 0.1204 0.9927 0.0000
vn 0.3385 0.9410 0.0000
vn 0.4847 0.8747 0.0000
vn 0.1117 -0.9937 0.0000
vn 0.1491 -0.9888 0.0000
vn 0.0371 -0.9993 0.0000
vn -0.0371 -0.9993 0.0000
s 1
f 2/1/1 3/2/2 1/3/2
f 46/4/3 34/5/3 35/6/3
f 8/7/4 5/8/5 7/9/5
f 50/10/6 42/11/6 43/12/6
f 7/9/7 52/13/8 45/14/8
f 4/15/1 28/16/9 9/17/9
f 18/18/10 6/19/4 8/7/4
f 17/20/11 19/21/10 18/18/10
f 16/22/12 20/23/11 17/20/11
f 15/24/13 21/25/12 16/22/12
f 14/26/14 22/27/13 15/24/13
f 13/28/15 44/29/16 29/30/16
f 12/31/17 24/32/15 13/28/15
f 11/33/18 25/34/17 12/31/17
f 10/35/19 26/36/18 11/33/18
f 9/17/9 27/37/19 10/35/19
f 36/38/20 23/39/14 14/26/14
f 35/40/21 37/41/20 36/38/20
f 34/42/22 38/43/21 35/40/21
f 33/44/23 39/45/22 34/42/22
f 32/46/24 40/47/23 33/44/23
f 31/48/25 41/49/24 32/46/24
f 30/50/26 42/51/25 31/48/25
f 29/30/16 43/52/26 30/50/26
f 48/53/27 1/54/28 3/55/28
f 47/56/29 49/57/27 48/53/27
f 46/58/30 50/59/29 47/56/29
f 45/14/8 51/60/30 46/58/30
f 2/1/1 4/61/1 3/2/2
f 48/62/3 3/2/3 4/61/3
f 4/61/3 9/63/3 48/62/3
f 9/63/3 10/64/3 48/62/3
f 10/64/3 11/65/3 48/62/3
f 11/65/3 12/66/3 48/62/3
f 12/66/3 13/67/3 48/62/3
f 13/67/3 29/68/3 48/62/3
f 29/68/3 30/69/3 48/62/3
f 47/70/3 48/62/3 30/69/3
f 30/69/3 31/71/3 47/70/3
f 46/4/3 47/70/3 32/72/3
f 47/70/3 31/71/3 32/72/3
f 8/7/3 7/9/3 45/73/3
f 45/73/3 46/4/3 35/6/3
f 46/4/3 32/72/3 33/74/3
f 46/4/3 33/74/3 34/5/3
f 18/75/3 8/7/3 45/73/3
f 16/76/3 17/77/3 45/73/3
f 17/77/3 18/75/3 45/73/3
f 14/78/3 15/79/3 45/73/3
f 15/79/3 16/76/3 45/73/3
f 35/6/3 36/80/3 45/73/3
f 36/80/3 14/78/3 45/73/3
f 8/7/4 6/19/4 5/8/5
f 52/81/6 5/8/6 6/19/6
f 6/19/6 19/82/6 52/81/6
f 19/82/6 20/83/6 52/81/6
f 20/83/6 21/84/6 52/81/6
f 21/84/6 22/85/6 52/81/6
f 22/85/6 23/86/6 52/81/6
f 23/86/6 37/87/6 52/81/6
f 37/87/6 38/88/6 52/81/6
f 51/89/6 52/81/6 38/88/6
f 38/88/6 39/90/6 51/89/6
f 50/10/6 51/89/6 40/91/6
f 51/89/6 39/90/6 40/91/6
f 2/92/6 1/93/6 49/94/6
f 49/94/6 50/10/6 43/12/6
f 50/10/6 40/91/6 41/95/6
f 50/10/6 41/95/6 42/11/6
f 28/96/6 2/92/6 49/94/6
f 26/97/6 27/98/6 49/94/6
f 27/98/6 28/96/6 49/94/6
f 24/99/6 25/100/6 49/94/6
f 25/100/6 26/97/6 49/94/6
f 43/12/6 44/101/6 49/94/6
f 44/101/6 24/99/6 49/94/6
f 7/9/7 5/8/7 52/13/8
f 4/15/1 2/102/1 28/16/9
f 18/18/10 19/21/10 6/19/4
f 17/20/11 20/23/11 19/21/10
f 16/22/12 21/25/12 20/23/11
f 15/24/13 22/27/13 21/25/12
f 14/26/14 23/39/14 22/27/13
f 13/28/15 24/32/15 44/29/16
f 12/31/17 25/34/17 24/32/15
f 11/33/18 26/36/18 25/34/17
f 10/35/19 27/37/19 26/36/18
f 9/17/9 28/16/9 27/37/19
f 36/38/20 37/41/20 23/39/14
f 35/40/21 38/43/21 37/41/20
f 34/42/22 39/45/22 38/43/21
f 33/44/23 40/47/23 39/45/22
f 32/46/24 41/49/24 40/47/23
f 31/48/25 42/51/25 41/49/24
f 30/50/26 43/52/26 42/51/25
f 29/30/16 44/29/16 43/52/26
f 48/53/27 49/57/27 1/54/28
f 47/56/29 50/59/29 49/57/27
f 46/58/30 51/60/30 50/59/29
f 45/14/8 52/13/8 51/60/30
