# Blender v3.4.1 OBJ File: 'teikoku.blend'
# www.blender.org
o Hanging_Light_Fan_Cylinder.004
v 0.455362 -0.039220 -0.204747
v 0.455362 0.039220 -0.204747
v 0.290314 -0.039220 0.002889
v 0.290314 0.039220 0.002889
v 0.113741 -0.039220 0.094977
v 0.113741 0.039220 0.094977
v -0.032250 -0.039220 0.055859
v -0.032250 0.039220 0.055859
v -0.139123 -0.039220 -0.051014
v -0.139123 0.039220 -0.051014
v -0.147659 -0.039220 -0.249974
v -0.147659 0.039220 -0.249974
v -0.050365 -0.039220 -0.496729
v -0.050365 0.039220 -0.496729
v 0.056508 -0.039220 -0.603602
v 0.056508 0.039220 -0.603602
v 0.202499 -0.039220 -0.642720
v 0.202499 0.039220 -0.642720
v 0.348490 -0.039220 -0.603602
v 0.348490 0.039220 -0.603602
v 0.455362 -0.039220 -0.496729
v 0.455362 0.039220 -0.496729
v 0.494480 -0.039220 -0.350738
v 0.494480 0.039220 -0.350738
v -0.404997 -0.039220 -0.291982
v -0.404997 0.039220 -0.291982
v -0.142655 -0.039220 -0.252864
v -0.142655 0.039220 -0.252864
v 0.025382 -0.039220 -0.145991
v 0.025382 0.039220 -0.145991
v 0.064500 -0.039220 0.000000
v 0.064500 0.039220 0.000000
v 0.025382 -0.039220 0.145991
v 0.025382 0.039220 0.145991
v -0.142655 -0.039220 0.252864
v -0.142655 0.039220 0.252864
v -0.404997 -0.039220 0.291982
v -0.404997 0.039220 0.291982
v -0.550988 -0.039220 0.252864
v -0.550988 0.039220 0.252864
v -0.657861 -0.039220 0.145991
v -0.657861 0.039220 0.145991
v -0.696979 -0.039220 0.000000
v -0.696979 0.039220 0.000000
v -0.657861 -0.039220 -0.145991
v -0.657861 0.039220 -0.145991
v -0.550988 -0.039220 -0.252864
v -0.550988 0.039220 -0.252864
v -0.050365 -0.039220 0.496729
v -0.050365 0.039220 0.496729
v -0.147659 -0.039220 0.249974
v -0.147659 0.039220 0.249974
v -0.139123 -0.039220 0.051014
v -0.139123 0.039220 0.051014
v -0.032250 -0.039220 -0.055859
v -0.032250 0.039220 -0.055859
v 0.113741 -0.039220 -0.094977
v 0.113741 0.039220 -0.094977
v 0.290314 -0.039220 -0.002889
v 0.290314 0.039220 -0.002889
v 0.455362 -0.039220 0.204747
v 0.455362 0.039220 0.204747
v 0.494480 -0.039220 0.350738
v 0.494480 0.039220 0.350738
v 0.455362 -0.039220 0.496729
v 0.455362 0.039220 0.496729
v 0.348490 -0.039220 0.603602
v 0.348490 0.039220 0.603602
v 0.202499 -0.039220 0.642720
v 0.202499 0.039220 0.642720
v 0.056508 -0.039220 0.603602
v 0.056508 0.039220 0.603602
vt 1.000000 1.000000
vt 0.916667 0.500000
vt 1.000000 0.500000
vt 0.916667 1.000000
vt 0.833333 0.500000
vt 0.833333 1.000000
vt 0.750000 0.500000
vt 0.750000 1.000000
vt 0.666667 0.500000
vt 0.666667 1.000000
vt 0.583333 0.500000
vt 0.583333 1.000000
vt 0.500000 0.500000
vt 0.500000 1.000000
vt 0.416667 0.500000
vt 0.416667 1.000000
vt 0.333333 0.500000
vt 0.333333 1.000000
vt 0.250000 0.500000
vt 0.250000 1.000000
vt 0.166667 0.500000
vt 0.250000 0.490000
vt 0.042154 0.370000
vt 0.250000 0.010000
vt 0.166667 1.000000
vt 0.083333 0.500000
vt 0.083333 1.000000
vt 0.000000 0.500000
vt 0.870000 0.457846
vt 0.990000 0.250000
vt 0.870000 0.042154
vt 1.000000 1.000000
vt 0.916667 0.500000
vt 1.000000 0.500000
vt 0.916667 1.000000
vt 0.833333 0.500000
vt 0.833333 1.000000
vt 0.750000 0.500000
vt 0.750000 1.000000
vt 0.666667 0.500000
vt 0.666667 1.000000
vt 0.583333 0.500000
vt 0.583333 1.000000
vt 0.500000 0.500000
vt 0.500000 1.000000
vt 0.416667 0.500000
vt 0.416667 1.000000
vt 0.333333 0.500000
vt 0.333333 1.000000
vt 0.250000 0.500000
vt 0.250000 1.000000
vt 0.166667 0.500000
vt 0.250000 0.490000
vt 0.042154 0.370000
vt 0.250000 0.010000
vt 0.166667 1.000000
vt 0.083333 0.500000
vt 0.083333 1.000000
vt 0.000000 0.500000
vt 0.870000 0.457846
vt 0.990000 0.250000
vt 0.870000 0.042154
vt 1.000000 1.000000
vt 0.916667 0.500000
vt 1.000000 0.500000
vt 0.916667 1.000000
vt 0.833333 0.500000
vt 0.833333 1.000000
vt 0.750000 0.500000
vt 0.750000 1.000000
vt 0.666667 0.500000
vt 0.666667 1.000000
vt 0.583333 0.500000
vt 0.583333 1.000000
vt 0.500000 0.500000
vt 0.500000 1.000000
vt 0.416667 0.500000
vt 0.416667 1.000000
vt 0.333333 0.500000
vt 0.333333 1.000000
vt 0.250000 0.500000
vt 0.250000 1.000000
vt 0.166667 0.500000
vt 0.042154 0.370000
vt 0.042154 0.130000
vt 0.250000 0.010000
vt 0.166667 1.000000
vt 0.083333 0.500000
vt 0.083333 1.000000
vt 0.000000 0.500000
vt 0.870000 0.457846
vt 0.990000 0.250000
vt 0.870000 0.042154
vt 0.457846 0.370000
vt 0.370000 0.457846
vt 0.490000 0.250000
vt 0.130000 0.457846
vt 0.010000 0.250000
vt 0.042154 0.130000
vt 0.130000 0.042154
vt 0.370000 0.042154
vt 0.457846 0.130000
vt 0.000000 1.000000
vt 0.630000 0.457846
vt 0.750000 0.490000
vt 0.630000 0.042154
vt 0.750000 0.010000
vt 0.957846 0.370000
vt 0.957846 0.130000
vt 0.542154 0.130000
vt 0.510000 0.250000
vt 0.542154 0.370000
vt 0.457846 0.370000
vt 0.370000 0.457846
vt 0.490000 0.250000
vt 0.130000 0.457846
vt 0.010000 0.250000
vt 0.042154 0.130000
vt 0.130000 0.042154
vt 0.370000 0.042154
vt 0.457846 0.130000
vt 0.000000 1.000000
vt 0.630000 0.457846
vt 0.750000 0.490000
vt 0.750000 0.010000
vt 0.957846 0.370000
vt 0.957846 0.130000
vt 0.630000 0.042154
vt 0.542154 0.130000
vt 0.510000 0.250000
vt 0.542154 0.370000
vt 0.457846 0.370000
vt 0.370000 0.457846
vt 0.490000 0.250000
vt 0.250000 0.490000
vt 0.130000 0.457846
vt 0.010000 0.250000
vt 0.130000 0.042154
vt 0.370000 0.042154
vt 0.457846 0.130000
vt 0.000000 1.000000
vt 0.630000 0.457846
vt 0.750000 0.490000
vt 0.630000 0.042154
vt 0.750000 0.010000
vt 0.957846 0.370000
vt 0.957846 0.130000
vt 0.542154 0.130000
vt 0.510000 0.250000
vt 0.542154 0.370000
vn 0.8931 0.0000 0.4499
vn 0.6365 0.0000 0.7713
vn 0.4624 0.0000 0.8867
vn -0.2588 0.0000 0.9659
vn -0.7071 0.0000 0.7071
vn -0.9991 0.0000 0.0429
vn -0.9862 0.0000 -0.1656
vn -0.8362 0.0000 -0.5484
vn -0.7071 0.0000 -0.7071
vn -0.2588 0.0000 -0.9659
vn -0.0000 0.0000 -1.0000
vn 0.2588 0.0000 -0.9659
vn 0.7071 0.0000 -0.7071
vn 0.8660 0.0000 -0.5000
vn 0.0000 1.0000 0.0000
vn 0.9659 0.0000 -0.2588
vn 0.9659 0.0000 0.2588
vn 0.0000 -1.0000 0.0000
vn -0.0569 0.0000 -0.9984
vn 0.3497 0.0000 -0.9369
vn 0.5367 0.0000 -0.8438
vn 0.5367 0.0000 0.8438
vn 0.3497 0.0000 0.9369
vn -0.0569 0.0000 0.9984
vn -0.5000 0.0000 0.8660
vn -0.9659 0.0000 0.2588
vn -1.0000 0.0000 -0.0000
vn -0.8660 0.0000 -0.5000
vn -0.8362 0.0000 0.5484
vn -0.9862 0.0000 0.1656
vn -0.9991 0.0000 -0.0429
vn 0.4624 0.0000 -0.8867
vn 0.6365 0.0000 -0.7713
vn 0.8931 0.0000 -0.4499
vn 0.8660 0.0000 0.5000
vn 0.7071 0.0000 0.7071
vn 0.2588 0.0000 0.9659
vn 0.0000 0.0000 1.0000
s 1
f 2/1/1 3/2/2 1/3/1
f 4/4/2 5/5/3 3/2/2
f 6/6/4 7/7/4 5/5/4
f 8/8/5 9/9/5 7/7/5
f 10/10/6 11/11/7 9/9/6
f 12/12/7 13/13/8 11/11/7
f 14/14/8 15/15/9 13/13/8
f 16/16/10 17/17/11 15/15/10
f 18/18/11 19/19/12 17/17/11
f 20/20/13 21/21/14 19/19/13
f 2/22/15 22/23/15 14/24/15
f 22/25/14 23/26/16 21/21/14
f 24/27/17 1/28/1 23/26/17
f 3/29/18 7/30/18 11/31/18
f 26/32/19 27/33/20 25/34/19
f 28/35/20 29/36/21 27/33/20
f 30/37/16 31/38/16 29/36/16
f 32/39/17 33/40/17 31/38/17
f 34/41/22 35/42/23 33/40/22
f 36/43/23 37/44/24 35/42/23
f 38/45/24 39/46/25 37/44/24
f 40/47/25 41/48/5 39/46/25
f 42/49/26 43/50/27 41/48/26
f 44/51/27 45/52/28 43/50/27
f 26/53/15 46/54/15 38/55/15
f 46/56/28 47/57/9 45/52/28
f 48/58/10 25/59/19 47/57/10
f 27/60/18 31/61/18 35/62/18
f 50/63/29 51/64/30 49/65/29
f 52/66/30 53/67/31 51/64/30
f 54/68/9 55/69/9 53/67/9
f 56/70/10 57/71/10 55/69/10
f 58/72/32 59/73/33 57/71/32
f 60/74/33 61/75/34 59/73/33
f 62/76/34 63/77/16 61/75/34
f 64/78/17 65/79/35 63/77/17
f 66/80/35 67/81/36 65/79/35
f 68/82/37 69/83/38 67/81/37
f 70/84/15 66/85/15 62/86/15
f 70/87/38 71/88/25 69/83/38
f 72/89/25 49/90/29 71/88/25
f 51/91/18 55/92/18 59/93/18
f 2/1/1 4/4/2 3/2/2
f 4/4/2 6/6/3 5/5/3
f 6/6/4 8/8/4 7/7/4
f 8/8/5 10/10/5 9/9/5
f 10/10/6 12/12/7 11/11/7
f 12/12/7 14/14/8 13/13/8
f 14/14/8 16/16/9 15/15/9
f 16/16/10 18/18/11 17/17/11
f 18/18/11 20/20/12 19/19/12
f 20/20/13 22/25/14 21/21/14
f 6/94/15 4/95/15 8/96/15
f 4/95/15 2/22/15 14/24/15
f 2/22/15 24/97/15 22/23/15
f 22/23/15 20/98/15 18/99/15
f 18/99/15 16/100/15 22/23/15
f 16/100/15 14/24/15 22/23/15
f 14/24/15 12/101/15 4/95/15
f 12/101/15 10/102/15 8/96/15
f 12/101/15 8/96/15 4/95/15
f 22/25/14 24/27/16 23/26/16
f 24/27/17 2/103/1 1/28/1
f 23/104/18 1/105/18 15/106/18
f 1/105/18 3/29/18 13/107/18
f 15/106/18 1/105/18 13/107/18
f 3/29/18 5/108/18 7/30/18
f 7/30/18 9/109/18 11/31/18
f 11/31/18 13/107/18 3/29/18
f 15/106/18 17/110/18 19/111/18
f 19/111/18 21/112/18 15/106/18
f 21/112/18 23/104/18 15/106/18
f 26/32/19 28/35/20 27/33/20
f 28/35/20 30/37/21 29/36/21
f 30/37/16 32/39/16 31/38/16
f 32/39/17 34/41/17 33/40/17
f 34/41/22 36/43/23 35/42/23
f 36/43/23 38/45/24 37/44/24
f 38/45/24 40/47/25 39/46/25
f 40/47/25 42/49/5 41/48/5
f 42/49/26 44/51/27 43/50/27
f 44/51/27 46/56/28 45/52/28
f 30/113/15 28/114/15 32/115/15
f 28/114/15 26/53/15 38/55/15
f 26/53/15 48/116/15 46/54/15
f 46/54/15 44/117/15 42/118/15
f 42/118/15 40/119/15 46/54/15
f 40/119/15 38/55/15 46/54/15
f 38/55/15 36/120/15 28/114/15
f 36/120/15 34/121/15 32/115/15
f 36/120/15 32/115/15 28/114/15
f 46/56/28 48/58/9 47/57/9
f 48/58/10 26/122/19 25/59/19
f 47/123/18 25/124/18 37/125/18
f 25/124/18 27/60/18 35/62/18
f 27/60/18 29/126/18 31/61/18
f 31/61/18 33/127/18 35/62/18
f 35/62/18 37/125/18 25/124/18
f 37/125/18 39/128/18 47/123/18
f 39/128/18 41/129/18 43/130/18
f 43/130/18 45/131/18 39/128/18
f 45/131/18 47/123/18 39/128/18
f 50/63/29 52/66/30 51/64/30
f 52/66/30 54/68/31 53/67/31
f 54/68/9 56/70/9 55/69/9
f 56/70/10 58/72/10 57/71/10
f 58/72/32 60/74/33 59/73/33
f 60/74/33 62/76/34 61/75/34
f 62/76/34 64/78/16 63/77/16
f 64/78/17 66/80/35 65/79/35
f 66/80/35 68/82/36 67/81/36
f 68/82/37 70/87/38 69/83/38
f 54/132/15 52/133/15 56/134/15
f 52/133/15 50/135/15 62/86/15
f 50/135/15 72/136/15 70/84/15
f 70/84/15 68/137/15 66/85/15
f 66/85/15 64/138/15 62/86/15
f 62/86/15 60/139/15 52/133/15
f 60/139/15 58/140/15 56/134/15
f 60/139/15 56/134/15 52/133/15
f 50/135/15 70/84/15 62/86/15
f 70/87/38 72/89/25 71/88/25
f 72/89/25 50/141/29 49/90/29
f 71/142/18 49/143/18 63/144/18
f 49/143/18 51/91/18 61/145/18
f 63/144/18 49/143/18 61/145/18
f 51/91/18 53/146/18 55/92/18
f 55/92/18 57/147/18 59/93/18
f 59/93/18 61/145/18 51/91/18
f 63/144/18 65/148/18 71/142/18
f 65/148/18 67/149/18 71/142/18
f 67/149/18 69/150/18 71/142/18
