# Blender v3.4.1 OBJ File: 'vehicles.blend'
# www.blender.org
o Cube_Cube.001
v -0.286049 -0.352216 0.940842
v -0.286049 -0.293059 1.000000
v -0.345207 -0.293059 0.940842
v -0.286049 -0.347713 0.963481
v -0.286049 -0.334889 0.982673
v -0.308688 -0.347713 0.940842
v -0.309255 -0.342278 0.964048
v -0.308078 -0.331881 0.979665
v -0.320204 -0.327213 0.974997
v -0.308688 -0.293059 0.995497
v -0.327880 -0.293059 0.982673
v -0.286049 -0.315697 0.995497
v -0.309255 -0.316265 0.990062
v -0.324872 -0.315087 0.979665
v -0.340704 -0.315697 0.940842
v -0.327880 -0.334889 0.940842
v -0.340704 -0.293059 0.963481
v -0.335269 -0.316265 0.964048
v -0.324872 -0.331881 0.962871
v -0.286049 0.293059 1.000000
v -0.286049 0.352216 0.940842
v -0.345207 0.293059 0.940842
v -0.286049 0.315697 0.995497
v -0.286049 0.334889 0.982673
v -0.308688 0.293059 0.995497
v -0.309255 0.316265 0.990062
v -0.308078 0.331881 0.979665
v -0.320204 0.327213 0.974997
v -0.308688 0.347713 0.940842
v -0.327880 0.334889 0.940842
v -0.286049 0.347713 0.963481
v -0.309255 0.342278 0.964048
v -0.324872 0.331881 0.962871
v -0.340704 0.293059 0.963481
v -0.327880 0.293059 0.982673
v -0.340704 0.315697 0.940842
v -0.335269 0.316265 0.964048
v -0.324872 0.315087 0.979665
v -0.286049 -0.352216 -0.940842
v -0.345207 -0.293059 -0.940842
v -0.286049 -0.293059 -1.000000
v -0.308688 -0.347713 -0.940842
v -0.327880 -0.334889 -0.940842
v -0.286049 -0.347713 -0.963481
v -0.309255 -0.342278 -0.964048
v -0.324872 -0.331881 -0.962871
v -0.320204 -0.327213 -0.974997
v -0.340704 -0.293059 -0.963481
v -0.327880 -0.293059 -0.982673
v -0.340704 -0.315697 -0.940842
v -0.335269 -0.316265 -0.964048
v -0.324872 -0.315087 -0.979665
v -0.286049 -0.315697 -0.995497
v -0.286049 -0.334889 -0.982673
v -0.308688 -0.293059 -0.995497
v -0.309255 -0.316265 -0.990062
v -0.308078 -0.331881 -0.979665
v -0.286049 0.352216 -0.940842
v -0.286049 0.293059 -1.000000
v -0.345207 0.293059 -0.940842
v -0.286049 0.347713 -0.963481
v -0.286049 0.334889 -0.982673
v -0.308688 0.347713 -0.940842
v -0.309255 0.342278 -0.964048
v -0.308078 0.331881 -0.979665
v -0.320204 0.327213 -0.974997
v -0.308688 0.293059 -0.995497
v -0.327880 0.293059 -0.982673
v -0.286049 0.315697 -0.995497
v -0.309255 0.316265 -0.990062
v -0.324872 0.315087 -0.979665
v -0.340704 0.315697 -0.940842
v -0.327880 0.334889 -0.940842
v -0.340704 0.293059 -0.963481
v -0.335269 0.316265 -0.964048
v -0.324872 0.331881 -0.962871
v 0.286049 -0.352216 0.940842
v 0.345207 -0.293059 0.940842
v 0.286049 -0.293059 1.000000
v 0.308688 -0.347713 0.940842
v 0.327880 -0.334889 0.940842
v 0.286049 -0.347713 0.963481
v 0.309255 -0.342278 0.964048
v 0.324872 -0.331881 0.962871
v 0.320204 -0.327213 0.974997
v 0.340704 -0.293059 0.963481
v 0.327880 -0.293059 0.982673
v 0.340704 -0.315697 0.940842
v 0.335269 -0.316265 0.964048
v 0.324872 -0.315087 0.979665
v 0.286049 -0.315697 0.995497
v 0.286049 -0.334889 0.982673
v 0.308688 -0.293059 0.995497
v 0.309255 -0.316265 0.990062
v 0.308078 -0.331881 0.979665
v 0.286049 0.352216 0.940842
v 0.286049 0.293059 1.000000
v 0.345207 0.293059 0.940842
v 0.286049 0.347713 0.963481
v 0.286049 0.334889 0.982673
v 0.308688 0.347713 0.940842
v 0.309255 0.342278 0.964048
v 0.308078 0.331881 0.979665
v 0.320204 0.327213 0.974997
v 0.308688 0.293059 0.995497
v 0.327880 0.293059 0.982673
v 0.286049 0.315697 0.995497
v 0.309255 0.316265 0.990062
v 0.324872 0.315087 0.979665
v 0.340704 0.315697 0.940842
v 0.327880 0.334889 0.940842
v 0.340704 0.293059 0.963481
v 0.335269 0.316265 0.964048
v 0.324872 0.331881 0.962871
v 0.286049 -0.352216 -0.940842
v 0.286049 -0.293059 -1.000000
v 0.345207 -0.293059 -0.940842
v 0.286049 -0.347713 -0.963481
v 0.286049 -0.334889 -0.982673
v 0.308688 -0.347713 -0.940842
v 0.309255 -0.342278 -0.964048
v 0.308078 -0.331881 -0.979665
v 0.320204 -0.327213 -0.974997
v 0.308688 -0.293059 -0.995497
v 0.327880 -0.293059 -0.982673
v 0.286049 -0.315697 -0.995497
v 0.309255 -0.316265 -0.990062
v 0.324872 -0.315087 -0.979665
v 0.340704 -0.315697 -0.940842
v 0.327880 -0.334889 -0.940842
v 0.340704 -0.293059 -0.963481
v 0.335269 -0.316265 -0.964048
v 0.324872 -0.331881 -0.962871
v 0.286049 0.352216 -0.940842
v 0.345207 0.293059 -0.940842
v 0.286049 0.293059 -1.000000
v 0.308688 0.347713 -0.940842
v 0.327880 0.334889 -0.940842
v 0.286049 0.347713 -0.963481
v 0.309255 0.342278 -0.964048
v 0.324872 0.331881 -0.962871
v 0.320204 0.327213 -0.974997
v 0.340704 0.293059 -0.963481
v 0.327880 0.293059 -0.982673
v 0.340704 0.315697 -0.940842
v 0.335269 0.316265 -0.964048
v 0.324872 0.315087 -0.979665
v 0.286049 0.315697 -0.995497
v 0.286049 0.334889 -0.982673
v 0.308688 0.293059 -0.995497
v 0.309255 0.316265 -0.990062
v 0.308078 0.331881 -0.979665
vt 0.604005 0.771421
vt 0.395995 0.978579
vt 0.395995 0.771421
vt 0.604005 0.507395
vt 0.395995 0.742605
vt 0.395995 0.507395
vt 0.853579 0.507395
vt 0.646421 0.742605
vt 0.646421 0.507395
vt 0.604005 0.007395
vt 0.395995 0.242605
vt 0.395995 0.007395
vt 0.604005 0.271421
vt 0.395995 0.478579
vt 0.395995 0.271421
vt 0.146421 0.745435
vt 0.138224 0.742605
vt 0.146421 0.742605
vt 0.146421 0.750000
vt 0.138018 0.745506
vt 0.125000 0.742605
vt 0.134054 0.750000
vt 0.125000 0.745359
vt 0.395995 0.986777
vt 0.387960 0.978579
vt 0.395995 1.000000
vt 0.387759 0.986982
vt 0.375000 0.978579
vt 0.383873 1.000000
vt 0.375000 0.986556
vt 0.387960 0.007395
vt 0.395995 0.004565
vt 0.375000 0.007395
vt 0.387759 0.004494
vt 0.395995 0.000000
vt 0.375000 0.003125
vt 0.388177 0.000000
vt 0.612040 0.978579
vt 0.604005 0.986776
vt 0.604005 0.978579
vt 0.625000 0.978579
vt 0.612241 0.986982
vt 0.604005 1.000000
vt 0.625000 0.990946
vt 0.611823 1.000000
vt 0.861776 0.742605
vt 0.853579 0.745435
vt 0.853579 0.742605
vt 0.875000 0.742605
vt 0.861982 0.745506
vt 0.853579 0.750000
vt 0.875000 0.746875
vt 0.861556 0.750000
vt 0.604005 0.004565
vt 0.612040 0.007395
vt 0.604005 0.000000
vt 0.612241 0.004494
vt 0.625000 0.007395
vt 0.616127 0.000000
vt 0.625000 0.004641
vt 0.138224 0.507395
vt 0.146421 0.504565
vt 0.146421 0.507395
vt 0.125000 0.507395
vt 0.138018 0.504494
vt 0.146421 0.500000
vt 0.125000 0.503125
vt 0.138445 0.500000
vt 0.395995 0.245435
vt 0.387960 0.242605
vt 0.395995 0.250000
vt 0.387759 0.245506
vt 0.375000 0.242605
vt 0.383873 0.250000
vt 0.375000 0.245359
vt 0.387960 0.271421
vt 0.395995 0.263224
vt 0.375000 0.271421
vt 0.387759 0.263018
vt 0.375000 0.259054
vt 0.388177 0.250000
vt 0.853579 0.504565
vt 0.861776 0.507395
vt 0.853579 0.500000
vt 0.861982 0.504494
vt 0.875000 0.507395
vt 0.865946 0.500000
vt 0.875000 0.504641
vt 0.604005 0.263224
vt 0.612040 0.271421
vt 0.604005 0.250000
vt 0.612241 0.263018
vt 0.625000 0.271421
vt 0.616127 0.250000
vt 0.625000 0.263445
vt 0.612040 0.242605
vt 0.604005 0.245435
vt 0.604005 0.242605
vt 0.625000 0.242605
vt 0.612241 0.245506
vt 0.625000 0.246875
vt 0.611823 0.250000
vt 0.361776 0.742605
vt 0.353579 0.745435
vt 0.353579 0.742605
vt 0.375000 0.742605
vt 0.361982 0.745506
vt 0.353579 0.750000
vt 0.377958 0.751976
vt 0.361555 0.750000
vt 0.395995 0.745435
vt 0.387960 0.742605
vt 0.395995 0.750000
vt 0.387759 0.745506
vt 0.375000 0.745359
vt 0.387960 0.771421
vt 0.395995 0.763224
vt 0.375000 0.771421
vt 0.387759 0.763018
vt 0.388177 0.750000
vt 0.646421 0.745435
vt 0.638224 0.742605
vt 0.646421 0.750000
vt 0.638018 0.745506
vt 0.625000 0.742605
vt 0.625060 0.748958
vt 0.625000 0.745359
vt 0.604005 0.763224
vt 0.612040 0.771421
vt 0.604005 0.750000
vt 0.612241 0.763018
vt 0.625000 0.771421
vt 0.625000 0.763444
vt 0.612040 0.742605
vt 0.604005 0.745435
vt 0.604005 0.742605
vt 0.612241 0.745506
vt 0.611823 0.750000
vt 0.353579 0.504565
vt 0.361776 0.507395
vt 0.353579 0.507395
vt 0.353579 0.500000
vt 0.361982 0.504494
vt 0.375000 0.507395
vt 0.374940 0.501042
vt 0.375000 0.504641
vt 0.395995 0.486776
vt 0.387960 0.478579
vt 0.395995 0.500000
vt 0.387759 0.486982
vt 0.375000 0.478579
vt 0.375000 0.486556
vt 0.387960 0.507395
vt 0.395995 0.504565
vt 0.387759 0.504494
vt 0.388177 0.500000
vt 0.638224 0.507395
vt 0.646421 0.504565
vt 0.625000 0.507395
vt 0.638018 0.504494
vt 0.646421 0.500000
vt 0.622042 0.498024
vt 0.638445 0.500000
vt 0.604005 0.504565
vt 0.612040 0.507395
vt 0.604005 0.500000
vt 0.612241 0.504494
vt 0.625000 0.504641
vt 0.612040 0.478579
vt 0.604005 0.486776
vt 0.604005 0.478579
vt 0.625000 0.478579
vt 0.612241 0.486982
vt 0.611823 0.500000
vt 0.138444 0.750000
vt 0.388177 1.000000
vt 0.375000 0.004641
vt 0.625000 0.986556
vt 0.875000 0.745359
vt 0.611823 0.000000
vt 0.125000 0.504641
vt 0.375000 0.263444
vt 0.861556 0.500000
vt 0.625000 0.245359
vt 0.375000 0.763444
vt 0.638444 0.750000
vt 0.361555 0.500000
vt 0.625000 0.486556
vn 0.0970 0.0970 0.9905
vn -0.0970 -0.0970 0.9905
vn 0.0970 -0.0970 0.9905
vn 0.9905 0.0970 -0.0970
vn 0.9905 -0.0970 0.0970
vn 0.9905 -0.0970 -0.0970
vn -0.0970 0.9905 -0.0970
vn 0.0970 0.9905 0.0970
vn 0.0970 0.9905 -0.0970
vn -0.9905 0.0970 0.0970
vn -0.9905 -0.0970 -0.0970
vn -0.9905 -0.0970 0.0970
vn -0.0970 0.0970 -0.9905
vn 0.0970 -0.0970 -0.9905
vn -0.0970 -0.0970 -0.9905
vn -0.0972 -0.9206 0.3783
vn -0.3783 -0.9206 0.0972
vn -0.0970 -0.9905 0.0970
vn -0.0919 -0.7041 0.7041
vn -0.3703 -0.8519 0.3703
vn -0.7041 -0.7041 0.0919
vn -0.5774 -0.5774 0.5773
vn -0.6683 -0.6683 0.3266
vn -0.3783 -0.0972 0.9206
vn -0.0972 -0.3783 0.9206
vn -0.7041 -0.0919 0.7041
vn -0.3703 -0.3703 0.8519
vn -0.3266 -0.6683 0.6683
vn -0.9206 -0.3783 0.0972
vn -0.9206 -0.0972 0.3783
vn -0.8519 -0.3703 0.3703
vn -0.6683 -0.3266 0.6683
vn -0.0972 0.3783 0.9206
vn -0.3783 0.0972 0.9206
vn -0.0970 0.0970 0.9905
vn -0.0919 0.7041 0.7041
vn -0.3703 0.3703 0.8519
vn -0.7041 0.0919 0.7041
vn -0.5774 0.5774 0.5773
vn -0.6683 0.3266 0.6683
vn -0.3783 0.9206 0.0972
vn -0.0972 0.9206 0.3783
vn -0.0970 0.9905 0.0970
vn -0.7041 0.7041 0.0919
vn -0.3703 0.8519 0.3703
vn -0.3266 0.6683 0.6683
vn -0.9206 0.0972 0.3783
vn -0.9206 0.3783 0.0972
vn -0.8519 0.3703 0.3703
vn -0.6683 0.6683 0.3266
vn -0.3783 -0.9206 -0.0972
vn -0.0972 -0.9206 -0.3783
vn -0.0970 -0.9905 -0.0970
vn -0.7041 -0.7041 -0.0919
vn -0.3703 -0.8519 -0.3703
vn -0.0919 -0.7041 -0.7041
vn -0.5774 -0.5774 -0.5773
vn -0.3266 -0.6683 -0.6683
vn -0.9206 -0.0972 -0.3783
vn -0.9206 -0.3783 -0.0972
vn -0.7041 -0.0919 -0.7041
vn -0.8519 -0.3703 -0.3703
vn -0.6683 -0.6683 -0.3266
vn -0.0972 -0.3783 -0.9206
vn -0.3783 -0.0972 -0.9206
vn -0.3703 -0.3703 -0.8519
vn -0.6683 -0.3266 -0.6683
vn -0.0972 0.9206 -0.3783
vn -0.3783 0.9206 -0.0972
vn -0.0919 0.7041 -0.7041
vn -0.3703 0.8519 -0.3703
vn -0.7041 0.7041 -0.0919
vn -0.5774 0.5774 -0.5773
vn -0.6683 0.6683 -0.3266
vn -0.3783 0.0972 -0.9206
vn -0.0972 0.3783 -0.9206
vn -0.7041 0.0919 -0.7041
vn -0.3703 0.3703 -0.8519
vn -0.3266 0.6683 -0.6683
vn -0.9206 0.3783 -0.0972
vn -0.9206 0.0972 -0.3783
vn -0.9905 0.0970 -0.0970
vn -0.8519 0.3703 -0.3703
vn -0.6683 0.3266 -0.6683
vn 0.3783 -0.9206 0.0972
vn 0.0972 -0.9206 0.3783
vn 0.0970 -0.9905 0.0970
vn 0.7041 -0.7041 0.0919
vn 0.3703 -0.8519 0.3703
vn 0.0919 -0.7041 0.7041
vn 0.5774 -0.5774 0.5773
vn 0.3266 -0.6683 0.6683
vn 0.9206 -0.0972 0.3783
vn 0.9206 -0.3783 0.0972
vn 0.7041 -0.0919 0.7041
vn 0.8519 -0.3703 0.3703
vn 0.6683 -0.6683 0.3266
vn 0.0972 -0.3783 0.9206
vn 0.3783 -0.0972 0.9206
vn 0.3703 -0.3703 0.8519
vn 0.6683 -0.3266 0.6683
vn 0.0972 0.9206 0.3783
vn 0.3783 0.9206 0.0972
vn 0.0919 0.7041 0.7041
vn 0.3703 0.8519 0.3703
vn 0.7041 0.7041 0.0919
vn 0.5774 0.5774 0.5773
vn 0.6683 0.6683 0.3266
vn 0.3783 0.0972 0.9206
vn 0.0972 0.3783 0.9206
vn 0.7041 0.0919 0.7041
vn 0.3703 0.3703 0.8519
vn 0.3266 0.6683 0.6683
vn 0.9206 0.3783 0.0972
vn 0.9206 0.0972 0.3783
vn 0.9905 0.0970 0.0970
vn 0.8519 0.3703 0.3703
vn 0.6683 0.3266 0.6683
vn 0.0972 -0.9206 -0.3783
vn 0.3783 -0.9206 -0.0972
vn 0.0970 -0.9905 -0.0970
vn 0.0919 -0.7041 -0.7041
vn 0.3703 -0.8519 -0.3703
vn 0.7041 -0.7041 -0.0919
vn 0.5774 -0.5774 -0.5773
vn 0.6683 -0.6683 -0.3266
vn 0.3783 -0.0972 -0.9206
vn 0.0972 -0.3783 -0.9206
vn 0.7041 -0.0919 -0.7041
vn 0.3703 -0.3703 -0.8519
vn 0.3266 -0.6683 -0.6683
vn 0.9206 -0.3783 -0.0972
vn 0.9206 -0.0972 -0.3783
vn 0.8519 -0.3703 -0.3703
vn 0.6683 -0.3266 -0.6683
vn 0.3783 0.9206 -0.0972
vn 0.0972 0.9206 -0.3783
vn 0.7041 0.7041 -0.0919
vn 0.3703 0.8519 -0.3703
vn 0.0919 0.7041 -0.7041
vn 0.5774 0.5774 -0.5773
vn 0.3266 0.6683 -0.6683
vn 0.9206 0.0972 -0.3783
vn 0.9206 0.3783 -0.0972
vn 0.7041 0.0919 -0.7041
vn 0.8519 0.3703 -0.3703
vn 0.6683 0.6683 -0.3266
vn 0.0972 0.3783 -0.9206
vn 0.3783 0.0972 -0.9206
vn 0.0970 0.0970 -0.9905
vn 0.3703 0.3703 -0.8519
vn 0.6683 0.3266 -0.6683
s 1
f 97/1/1 2/2/2 79/3/3
f 135/4/4 78/5/5 117/6/6
f 58/7/7 96/8/8 134/9/9
f 22/10/10 40/11/11 3/12/12
f 59/13/13 116/14/14 41/15/15
f 4/16/16 6/17/17 1/18/18
f 5/19/19 7/20/20 4/16/16
f 7/20/20 16/21/21 6/17/17
f 7/20/20 9/22/22 19/23/23
f 10/24/24 12/25/25 2/2/2
f 11/26/26 13/27/27 10/24/24
f 13/27/27 5/28/19 12/25/25
f 13/27/27 9/29/22 8/30/28
f 15/31/29 17/32/30 3/12/12
f 16/33/21 18/34/31 15/31/29
f 18/34/31 11/35/26 17/32/30
f 18/34/31 9/36/22 14/37/32
f 23/38/33 25/39/34 20/40/35
f 24/41/36 26/42/37 23/38/33
f 26/42/37 35/43/38 25/39/34
f 26/42/37 28/44/39 38/45/40
f 29/46/41 31/47/42 21/48/43
f 30/49/44 32/50/45 29/46/41
f 32/50/45 24/51/36 31/47/42
f 32/50/45 28/52/39 27/53/46
f 34/54/47 36/55/48 22/10/10
f 35/56/38 37/57/49 34/54/47
f 37/57/49 30/58/44 36/55/48
f 37/57/49 28/59/39 33/60/50
f 42/61/51 44/62/52 39/63/53
f 43/64/54 45/65/55 42/61/51
f 45/65/55 54/66/56 44/62/52
f 45/65/55 47/67/57 57/68/58
f 48/69/59 50/70/60 40/11/11
f 49/71/61 51/72/62 48/69/59
f 51/72/62 43/73/54 50/70/60
f 51/72/62 47/74/57 46/75/63
f 53/76/64 55/77/65 41/15/15
f 54/78/56 56/79/66 53/76/64
f 56/79/66 49/71/61 55/77/65
f 56/79/66 47/80/57 52/81/67
f 61/82/68 63/83/69 58/7/7
f 62/84/70 64/85/71 61/82/68
f 64/85/71 73/86/72 63/83/69
f 64/85/71 66/87/73 76/88/74
f 67/89/75 69/90/76 59/13/13
f 68/91/77 70/92/78 67/89/75
f 70/92/78 62/93/70 69/90/76
f 70/92/78 66/94/73 65/95/79
f 72/96/80 74/97/81 60/98/82
f 73/99/72 75/100/83 72/96/80
f 75/100/83 68/91/77 74/97/81
f 75/100/83 66/101/73 71/102/84
f 80/103/85 82/104/86 77/105/87
f 81/106/88 83/107/89 80/103/85
f 83/107/89 92/108/90 82/104/86
f 83/107/89 85/109/91 95/110/92
f 86/111/93 88/112/94 78/5/5
f 87/113/95 89/114/96 86/111/93
f 89/114/96 81/106/88 88/112/94
f 89/114/96 85/109/91 84/115/97
f 91/116/98 93/117/99 79/3/3
f 92/118/90 94/119/100 91/116/98
f 94/119/100 87/113/95 93/117/99
f 94/119/100 85/109/91 90/120/101
f 99/121/102 101/122/103 96/8/8
f 100/123/104 102/124/105 99/121/102
f 102/124/105 111/125/106 101/122/103
f 102/124/105 104/126/107 114/127/108
f 105/128/109 107/129/110 97/1/1
f 106/130/111 108/131/112 105/128/109
f 108/131/112 100/132/104 107/129/110
f 108/131/112 104/126/107 103/133/113
f 110/134/114 112/135/115 98/136/116
f 111/125/106 113/137/117 110/134/114
f 113/137/117 106/130/111 112/135/115
f 113/137/117 104/126/107 109/138/118
f 118/139/119 120/140/120 115/141/121
f 119/142/122 121/143/123 118/139/119
f 121/143/123 130/144/124 120/140/120
f 121/143/123 123/145/125 133/146/126
f 124/147/127 126/148/128 116/14/14
f 125/149/129 127/150/130 124/147/127
f 127/150/130 119/151/122 126/148/128
f 127/150/130 123/145/125 122/152/131
f 129/153/132 131/154/133 117/6/6
f 130/144/124 132/155/134 129/153/132
f 132/155/134 125/149/129 131/154/133
f 132/155/134 123/145/125 128/156/135
f 137/157/136 139/158/137 134/9/9
f 138/159/138 140/160/139 137/157/136
f 140/160/139 149/161/140 139/158/137
f 140/160/139 142/162/141 152/163/142
f 143/164/143 145/165/144 135/4/4
f 144/166/145 146/167/146 143/164/143
f 146/167/146 138/159/138 145/165/144
f 146/167/146 142/162/141 141/168/147
f 148/169/148 150/170/149 136/171/150
f 149/172/140 151/173/151 148/169/148
f 151/173/151 144/166/145 150/170/149
f 151/173/151 142/162/141 147/174/152
f 1/18/18 42/61/51 39/63/53
f 6/17/17 43/64/54 42/61/51
f 16/33/21 50/70/60 43/73/54
f 15/31/29 40/11/11 50/70/60
f 20/40/35 10/24/24 2/2/2
f 25/39/34 11/26/26 10/24/24
f 35/56/38 17/32/30 11/35/26
f 34/54/47 3/12/12 17/32/30
f 58/7/7 29/46/41 21/48/43
f 63/83/69 30/49/44 29/46/41
f 73/99/72 36/55/48 30/58/44
f 72/96/80 22/10/10 36/55/48
f 41/15/15 67/89/75 59/13/13
f 55/77/65 68/91/77 67/89/75
f 49/71/61 74/97/81 68/91/77
f 48/69/59 60/98/82 74/97/81
f 39/63/53 118/139/119 115/141/121
f 44/62/52 119/142/122 118/139/119
f 54/78/56 126/148/128 119/151/122
f 53/76/64 116/14/14 126/148/128
f 134/9/9 61/82/68 58/7/7
f 139/158/137 62/84/70 61/82/68
f 149/172/140 69/90/76 62/93/70
f 148/169/148 59/13/13 69/90/76
f 117/6/6 143/164/143 135/4/4
f 131/154/133 144/166/145 143/164/143
f 125/149/129 150/170/149 144/166/145
f 124/147/127 136/171/150 150/170/149
f 115/141/121 80/103/85 77/105/87
f 120/140/120 81/106/88 80/103/85
f 130/144/124 88/112/94 81/106/88
f 129/153/132 78/5/5 88/112/94
f 96/8/8 137/157/136 134/9/9
f 101/122/103 138/159/138 137/157/136
f 111/125/106 145/165/144 138/159/138
f 110/134/114 135/4/4 145/165/144
f 79/3/3 105/128/109 97/1/1
f 93/117/99 106/130/111 105/128/109
f 87/113/95 112/135/115 106/130/111
f 86/111/93 98/136/116 112/135/115
f 77/105/87 4/16/16 1/18/18
f 82/104/86 5/19/19 4/16/16
f 92/118/90 12/25/25 5/28/19
f 91/116/98 2/2/2 12/25/25
f 21/48/43 99/121/102 96/8/8
f 31/47/42 100/123/104 99/121/102
f 24/41/36 107/129/110 100/132/104
f 23/38/33 97/1/1 107/129/110
f 115/141/121 1/18/18 39/63/53
f 97/1/1 20/40/35 2/2/2
f 135/4/4 98/136/116 78/5/5
f 58/7/7 21/48/43 96/8/8
f 22/10/10 60/98/82 40/11/11
f 59/13/13 136/171/150 116/14/14
f 4/16/16 7/20/20 6/17/17
f 5/19/19 8/175/28 7/20/20
f 7/20/20 19/23/23 16/21/21
f 7/20/20 8/175/28 9/22/22
f 10/24/24 13/27/27 12/25/25
f 11/26/26 14/176/32 13/27/27
f 13/27/27 8/30/28 5/28/19
f 13/27/27 14/176/32 9/29/22
f 15/31/29 18/34/31 17/32/30
f 16/33/21 19/177/23 18/34/31
f 18/34/31 14/37/32 11/35/26
f 18/34/31 19/177/23 9/36/22
f 23/38/33 26/42/37 25/39/34
f 24/41/36 27/178/46 26/42/37
f 26/42/37 38/45/40 35/43/38
f 26/42/37 27/178/46 28/44/39
f 29/46/41 32/50/45 31/47/42
f 30/49/44 33/179/50 32/50/45
f 32/50/45 27/53/46 24/51/36
f 32/50/45 33/179/50 28/52/39
f 34/54/47 37/57/49 36/55/48
f 35/56/38 38/180/40 37/57/49
f 37/57/49 33/60/50 30/58/44
f 37/57/49 38/180/40 28/59/39
f 42/61/51 45/65/55 44/62/52
f 43/64/54 46/181/63 45/65/55
f 45/65/55 57/68/58 54/66/56
f 45/65/55 46/181/63 47/67/57
f 48/69/59 51/72/62 50/70/60
f 49/71/61 52/81/67 51/72/62
f 51/72/62 46/75/63 43/73/54
f 51/72/62 52/81/67 47/74/57
f 53/76/64 56/79/66 55/77/65
f 54/78/56 57/182/58 56/79/66
f 56/79/66 52/81/67 49/71/61
f 56/79/66 57/182/58 47/80/57
f 61/82/68 64/85/71 63/83/69
f 62/84/70 65/183/79 64/85/71
f 64/85/71 76/88/74 73/86/72
f 64/85/71 65/183/79 66/87/73
f 67/89/75 70/92/78 69/90/76
f 68/91/77 71/102/84 70/92/78
f 70/92/78 65/95/79 62/93/70
f 70/92/78 71/102/84 66/94/73
f 72/96/80 75/100/83 74/97/81
f 73/99/72 76/184/74 75/100/83
f 75/100/83 71/102/84 68/91/77
f 75/100/83 76/184/74 66/101/73
f 80/103/85 83/107/89 82/104/86
f 81/106/88 84/115/97 83/107/89
f 83/107/89 95/110/92 92/108/90
f 83/107/89 84/115/97 85/109/91
f 86/111/93 89/114/96 88/112/94
f 87/113/95 90/120/101 89/114/96
f 89/114/96 84/115/97 81/106/88
f 89/114/96 90/120/101 85/109/91
f 91/116/98 94/119/100 93/117/99
f 92/118/90 95/185/92 94/119/100
f 94/119/100 90/120/101 87/113/95
f 94/119/100 95/185/92 85/109/91
f 99/121/102 102/124/105 101/122/103
f 100/123/104 103/186/113 102/124/105
f 102/124/105 114/127/108 111/125/106
f 102/124/105 103/186/113 104/126/107
f 105/128/109 108/131/112 107/129/110
f 106/130/111 109/138/118 108/131/112
f 108/131/112 103/133/113 100/132/104
f 108/131/112 109/138/118 104/126/107
f 110/134/114 113/137/117 112/135/115
f 111/125/106 114/127/108 113/137/117
f 113/137/117 109/138/118 106/130/111
f 113/137/117 114/127/108 104/126/107
f 118/139/119 121/143/123 120/140/120
f 119/142/122 122/187/131 121/143/123
f 121/143/123 133/146/126 130/144/124
f 121/143/123 122/187/131 123/145/125
f 124/147/127 127/150/130 126/148/128
f 125/149/129 128/156/135 127/150/130
f 127/150/130 122/152/131 119/151/122
f 127/150/130 128/156/135 123/145/125
f 129/153/132 132/155/134 131/154/133
f 130/144/124 133/146/126 132/155/134
f 132/155/134 128/156/135 125/149/129
f 132/155/134 133/146/126 123/145/125
f 137/157/136 140/160/139 139/158/137
f 138/159/138 141/168/147 140/160/139
f 140/160/139 152/163/142 149/161/140
f 140/160/139 141/168/147 142/162/141
f 143/164/143 146/167/146 145/165/144
f 144/166/145 147/174/152 146/167/146
f 146/167/146 141/168/147 138/159/138
f 146/167/146 147/174/152 142/162/141
f 148/169/148 151/173/151 150/170/149
f 149/172/140 152/188/142 151/173/151
f 151/173/151 147/174/152 144/166/145
f 151/173/151 152/188/142 142/162/141
f 1/18/18 6/17/17 42/61/51
f 6/17/17 16/21/21 43/64/54
f 16/33/21 15/31/29 50/70/60
f 15/31/29 3/12/12 40/11/11
f 20/40/35 25/39/34 10/24/24
f 25/39/34 35/43/38 11/26/26
f 35/56/38 34/54/47 17/32/30
f 34/54/47 22/10/10 3/12/12
f 58/7/7 63/83/69 29/46/41
f 63/83/69 73/86/72 30/49/44
f 73/99/72 72/96/80 36/55/48
f 72/96/80 60/98/82 22/10/10
f 41/15/15 55/77/65 67/89/75
f 55/77/65 49/71/61 68/91/77
f 49/71/61 48/69/59 74/97/81
f 48/69/59 40/11/11 60/98/82
f 39/63/53 44/62/52 118/139/119
f 44/62/52 54/66/56 119/142/122
f 54/78/56 53/76/64 126/148/128
f 53/76/64 41/15/15 116/14/14
f 134/9/9 139/158/137 61/82/68
f 139/158/137 149/161/140 62/84/70
f 149/172/140 148/169/148 69/90/76
f 148/169/148 136/171/150 59/13/13
f 117/6/6 131/154/133 143/164/143
f 131/154/133 125/149/129 144/166/145
f 125/149/129 124/147/127 150/170/149
f 124/147/127 116/14/14 136/171/150
f 115/141/121 120/140/120 80/103/85
f 120/140/120 130/144/124 81/106/88
f 130/144/124 129/153/132 88/112/94
f 129/153/132 117/6/6 78/5/5
f 96/8/8 101/122/103 137/157/136
f 101/122/103 111/125/106 138/159/138
f 111/125/106 110/134/114 145/165/144
f 110/134/114 98/136/116 135/4/4
f 79/3/3 93/117/99 105/128/109
f 93/117/99 87/113/95 106/130/111
f 87/113/95 86/111/93 112/135/115
f 86/111/93 78/5/5 98/136/116
f 77/105/87 82/104/86 4/16/16
f 82/104/86 92/108/90 5/19/19
f 92/118/90 91/116/98 12/25/25
f 91/116/98 79/3/3 2/2/2
f 21/48/43 31/47/42 99/121/102
f 31/47/42 24/51/36 100/123/104
f 24/41/36 23/38/33 107/129/110
f 23/38/33 20/40/35 97/1/1
f 115/141/121 77/105/87 1/18/18
